<svg width="96" height="96" viewBox="0 0 96 96" fill="none" xmlns="http://www.w3.org/2000/svg">
<path d="M53.18 51.81L44.32 51.43C43.24 51.43 42.17 51.51 41.09 51.43C37.29 51.2367 33.4867 51.01 29.68 50.75C27.99 50.63 26.3 50.67 24.62 50.69C23.54 50.69 22.46 50.77 21.37 50.69C20.8149 50.6876 20.2605 50.6508 19.71 50.58C19.43 50.58 19.15 50.5 18.88 50.44L18.44 50.35L17.9 50.18C16.99 49.86 17.65 49.05 18.32 48.18L18.79 47.54C18.9965 47.325 19.2206 47.1276 19.46 46.95C19.9199 46.5792 20.4811 46.3562 21.07 46.31C25.3964 45.9622 29.7436 45.9622 34.07 46.31C36.761 46.4702 39.459 46.4702 42.15 46.31L51.06 46.42C52.89 46.42 54.72 46.48 56.55 46.48C59.32 46.48 62.1 46.55 64.85 46.39C66.98 46.27 69.07 45.86 71.19 45.59C71.65 45.53 72.11 45.42 72.58 45.39C74.34 45.3 74.9 45.67 75.27 47.12C75.3724 47.4483 75.4558 47.7822 75.52 48.12C75.5897 48.675 75.4425 49.2354 75.109 49.6845C74.7755 50.1335 74.2815 50.4364 73.73 50.53C69.9355 51.5329 66.0247 52.0272 62.1 52C59.1 52 56.16 52 53.18 51.93V51.81Z" fill="currentColor"/>
<path d="M10.09 54.47L9.6 54.06C9.6 54.01 9.35 53.87 9.21 53.76L8.76 53.4L7.1 52L4.29 49.27L5.67 47.71C6.08 47.27 6.48 46.82 6.86 46.37C7.24 45.92 7.86 45.53 8.39 45.13C8.92 44.73 9.29 44.54 9.73 44.25C9.93 44.12 10.2 43.93 10.34 43.86L10.78 43.61L12.56 42.61L16.09 40.71C17.09 40.15 18.09 39.49 19.09 38.85C20.2738 37.922 21.5923 37.1801 23 36.65C23.46 36.5 23.81 37.2 23.9 38.08C23.9766 38.5232 23.9487 38.9782 23.8185 39.4088C23.6883 39.8393 23.4594 40.2335 23.15 40.56C20.7916 42.4428 18.2525 44.0875 15.57 45.47C14.7499 45.9 13.9759 46.4126 13.26 47L12.52 47.6C12.3816 47.7176 12.2346 47.8246 12.08 47.92C11.7741 48.0891 11.4917 48.2975 11.24 48.54C11.18 48.54 11.19 48.59 11.24 48.61V48.67C11.2644 48.7109 11.2947 48.748 11.33 48.78L11.54 49.02C11.7 49.18 11.87 49.35 12.07 49.53C12.4665 49.8557 12.8804 50.1595 13.31 50.44C13.82 50.79 14.31 51.13 14.86 51.44C16.4217 52.4905 18.0596 53.4231 19.76 54.23C21.0946 54.7515 22.4942 55.0879 23.92 55.23C24.22 55.23 24.54 55.23 24.81 55.32C25.0357 55.3399 25.2493 55.4309 25.42 55.58C25.5678 55.7005 25.6729 55.8653 25.72 56.05C25.8172 56.6417 25.834 57.2438 25.77 57.84C25.77 58.19 25.77 58.53 25.7 58.84C25.6498 59.3654 25.4365 59.8619 25.09 60.26C24.7356 60.7378 24.2077 61.0574 23.62 61.15C22.8354 61.2082 22.0465 61.1475 21.28 60.97C20.5507 60.8144 19.835 60.6004 19.14 60.33C17.7906 59.7782 16.4923 59.109 15.26 58.33C13.42 57.2 11.72 55.89 10 54.61L10.09 54.47Z" fill="currentColor"/>
<path d="M82.38 48.9L82.92 48.65C83.05 48.59 83.02 48.65 83.04 48.65C83.1164 48.6596 83.1936 48.6596 83.27 48.65C83.4685 48.6227 83.6592 48.5546 83.83 48.45C83.8467 48.4211 83.8555 48.3884 83.8555 48.355C83.8555 48.3217 83.8467 48.2889 83.83 48.26C83.76 48.12 83.53 48.04 83.45 47.9L83.2 47.58C83.1448 47.5092 83.0847 47.4423 83.02 47.38L82.7 47C82.24 46.55 81.76 46.1 81.28 45.66C80.28 44.78 79.34 43.91 78.28 43.09C77.3767 42.3592 76.4245 41.691 75.43 41.09C74.1134 40.3998 72.8958 39.5354 71.81 38.52C71.49 38.17 71.95 37.52 72.7 37.08C73.0684 36.8152 73.4949 36.6425 73.9438 36.5764C74.3927 36.5102 74.8509 36.5526 75.28 36.7C78.0474 38.07 80.6117 39.8166 82.9 41.89C83.6086 42.5216 84.3604 43.1031 85.15 43.63L85.79 44.08L86.67 44.72C87.24 45.12 87.86 45.72 88.44 46.17C88.6955 46.3879 88.9268 46.6327 89.13 46.9L89.74 47.63L90.89 49.16C89.5257 50.3244 88.0932 51.4063 86.6 52.4C85.66 53.02 85.25 53.22 84.66 53.57L82.98 54.57C81.28 55.57 79.52 56.38 77.84 57.39C76.54 58.17 75.39 59.23 74.04 60.13C73.7602 60.3616 73.4588 60.5659 73.14 60.74C72.8871 60.8866 72.6021 60.969 72.31 60.98C72.0681 60.9943 71.8276 60.935 71.62 60.81C71.1476 60.4119 70.786 59.8987 70.57 59.32C70.43 59 70.28 58.7 70.18 58.4C70.0221 57.896 69.9777 57.3632 70.05 56.84C70.0847 56.5575 70.1348 56.2771 70.2 56C70.2493 55.7705 70.356 55.5572 70.51 55.38C71.3771 54.4971 72.3715 53.7488 73.46 53.16C74.55 52.52 75.73 51.96 76.92 51.38C78.69 50.53 80.54 49.73 82.31 48.81L82.38 48.9Z" fill="currentColor"/>
</svg>
