<svg width="96" height="96" viewBox="0 0 96 96" fill="none" xmlns="http://www.w3.org/2000/svg">
<path d="M23.81 66.18C27.64 65.89 31.73 64.27 36 62.57C37.56 61.96 39.11 61.19 40.79 60.67C41.54 60.44 42.28 60.21 43.06 60.03C43.8299 59.824 44.6112 59.6637 45.4 59.55C47.0531 59.2877 48.7313 59.2205 50.4 59.35C51.3211 59.4244 52.2269 59.6298 53.09 59.96C54.0597 60.3257 54.9274 60.919 55.62 61.69C55.9378 62.0953 56.2094 62.5346 56.43 63C56.6293 63.434 56.7867 63.886 56.9 64.35C57.0184 64.7749 57.0954 65.2103 57.13 65.65C57.1826 66.0645 57.206 66.4822 57.2 66.9C57.1126 69.5834 56.8319 72.257 56.36 74.9C56.1262 76.585 55.7923 78.2547 55.36 79.9C54.9149 81.6272 54.1556 83.2577 53.12 84.71C52.38 85.62 51.89 84.96 51.68 83.86C51.3664 82.4135 51.3664 80.9165 51.68 79.47C52.0386 77.9156 52.3157 76.3434 52.51 74.76C52.72 73.15 52.93 71.46 53.08 69.9C53.2572 68.5169 53.2302 67.1153 53 65.74C52.9199 65.3319 52.7452 64.9483 52.49 64.62C52.33 64.35 51.95 64.21 51.49 63.99C49.8221 63.6778 48.1024 63.7913 46.49 64.32C44.6007 64.8214 42.7494 65.4563 40.95 66.22C36.84 67.84 32.63 69.98 27.86 71.22C24.8492 72.0049 21.7153 72.2018 18.63 71.8C16.0813 71.4987 13.699 70.3794 11.84 68.61C10.9225 67.6664 10.1988 66.552 9.71 65.33C9.25295 64.1811 8.94706 62.9777 8.8 61.75C8.37969 58.2246 8.53845 54.6542 9.27 51.18C9.42 50.43 9.53 49.69 9.74 48.96C10.56 46.26 11.32 45.6 13.05 45.66C13.4407 45.6513 13.8315 45.668 14.22 45.71C15.49 45.95 16.04 47.34 15.78 49.23C15.41 52.04 14.99 54.83 14.88 57.42C14.77 60.01 14.88 62.42 15.6 63.65C15.8415 64.1099 16.1833 64.5098 16.6 64.82C17.1542 65.2114 17.7691 65.5087 18.42 65.7C20.1672 66.1414 21.9809 66.2567 23.77 66.04L23.81 66.18Z" fill="currentColor"/>
<path d="M50.4 37.07C53.26 36.18 56.3 35.07 59.4 34.15C62.5481 33.1259 65.7536 32.2878 69 31.64C71.5469 31.0618 74.1628 30.8464 76.77 31C78.0742 31.1301 79.3554 31.4327 80.58 31.9C81.2444 32.1706 81.8808 32.5055 82.48 32.9C82.78 33.12 83.1 33.33 83.37 33.56L84.12 34.27C85.9099 36.1511 87.0822 38.5341 87.48 41.1C87.8186 43.3319 87.8489 45.5998 87.57 47.84C87.3217 49.9573 86.9308 52.0554 86.4 54.12C85.5094 57.6866 84.4347 61.2046 83.18 64.66C81.6996 69.0646 79.8149 73.3227 77.55 77.38C76.82 78.62 76.18 78.12 75.9 76.68C75.5755 74.553 75.7641 72.3793 76.45 70.34C77.93 65.96 79.27 61.57 80.36 57.2C81.6088 53.0314 82.3146 48.7192 82.46 44.37C82.46 41.94 81.68 39.68 80.23 38.47C79.906 38.1681 79.5299 37.9276 79.12 37.76C78.9101 37.6654 78.6927 37.5885 78.47 37.53C78.22 37.53 77.99 37.4 77.72 37.37C76.5496 37.2117 75.3644 37.1949 74.19 37.32C71.2462 37.6433 68.3376 38.2324 65.5 39.08C62.5 39.93 59.58 40.95 56.58 42.01C54.72 42.65 52.88 43.32 50.86 43.9L48 44.7C47 44.97 46 45.23 45 45.43C43.2156 45.831 41.3644 45.831 39.58 45.43C38.5316 45.1519 37.5647 44.6273 36.76 43.9C36.3878 43.5304 36.0529 43.1251 35.76 42.69C35.4671 42.2565 35.2128 41.798 35 41.32C34.3259 39.6326 34.062 37.8093 34.23 36C34.3623 34.3868 34.6469 32.7896 35.08 31.23C36.3237 26.6891 37.9116 22.2496 39.83 17.95C40.24 17.02 40.6 16.09 41.07 15.19C42.81 11.85 43.76 11.13 45.79 11.3C46.2488 11.3171 46.7062 11.3605 47.16 11.43C48.64 11.74 48.96 13.76 48.01 16.36C46.62 20.21 45.01 23.9 43.54 27.57C42.831 29.3461 42.2168 31.1587 41.7 33C41.2346 34.488 41.0118 36.0412 41.04 37.6C41.0508 37.9403 41.1114 38.2773 41.22 38.6C41.22 38.6 41.22 38.72 41.22 38.74C41.549 38.8061 41.8847 38.8329 42.22 38.82C43.4744 38.7167 44.7145 38.4821 45.92 38.12L48.27 37.47C48.94 37.29 49.58 37.1 50.27 36.86L50.4 37.07Z" fill="currentColor"/>
</svg>
