<svg width="96" height="96" viewBox="0 0 96 96" fill="none" xmlns="http://www.w3.org/2000/svg">
<path d="M20.46 54.18C21.0698 58.8892 22.7829 63.388 25.46 67.31C26.4663 68.7248 27.6012 70.0438 28.85 71.25C30.9262 73.5187 33.3748 75.416 36.09 76.86C38.8814 78.336 41.8939 79.3492 45.01 79.86C47.8424 80.3169 50.7182 80.4444 53.58 80.24C55.41 80.13 57.25 79.89 59.09 79.64C60.93 79.39 62.82 79.31 64.71 79.13C65.88 79.05 65.83 79.47 64.98 80.23C63.6351 81.4351 62.0743 82.375 60.38 83C56.4637 84.042 52.4324 84.5896 48.38 84.63C46.3022 84.6336 44.2302 84.4124 42.2 83.97C41.1856 83.7606 40.184 83.4935 39.2 83.17L37.7 82.67C37.21 82.48 36.7 82.25 36.25 82.04C31.65 80.04 27.01 77.27 23.69 73.34C20.0146 69.0796 17.4121 64.0015 16.1 58.53L15.93 57.92L15.83 57.29L15.62 56C15.4504 55.1678 15.3302 54.3264 15.26 53.48C15.1002 51.7984 15.0501 50.1081 15.11 48.42C15.298 43.3321 16.42 38.3221 18.42 33.64L19 32.31L19.63 31L20.28 29.69L20.6 29L20.98 28.38C21.5 27.55 21.98 26.7 22.54 25.89C23.1 25.08 23.8 24.38 24.44 23.63C24.9964 22.9686 25.6086 22.3564 26.27 21.8C26.7763 21.3406 27.3106 20.9131 27.87 20.52C28.2967 20.3069 28.7419 20.1328 29.2 20C29.7767 19.7849 30.4065 19.7569 31 19.92C31.2192 19.9567 31.4338 20.0171 31.64 20.1C31.91 20.24 31.85 20.6 31.57 21.1C31.1719 21.8628 30.6925 22.5803 30.14 23.24C26.132 28.1779 23.1719 33.8805 21.44 40C20.16 44.5934 19.8703 49.4062 20.59 54.12L20.46 54.18Z" fill="currentColor"/>
<path d="M42.46 37.53C42.1934 41.2496 43.0505 44.9634 44.92 48.19C45.6515 49.3393 46.5139 50.3997 47.49 51.35C49.1824 53.1499 51.1587 54.6599 53.34 55.82C55.6113 57.0184 58.0584 57.8487 60.59 58.28C62.8774 58.6448 65.2066 58.6651 67.5 58.34C70.5 57.98 73.32 57.26 76.29 56.61C77.23 56.42 77.41 57.11 76.93 58.15C76.2122 59.6043 74.9841 60.7435 73.48 61.35C72.68 61.66 71.87 61.95 71.04 62.18C70.2179 62.4418 69.3794 62.6489 68.53 62.8C67.68 62.94 66.81 63 65.95 63.08C65.09 63.16 64.21 63.16 63.34 63.08C59.8275 63.0064 56.3656 62.2276 53.16 60.79C51.2101 59.9206 49.3224 58.9183 47.51 57.79C45.6736 56.6099 44.0252 55.1604 42.62 53.49C39.5835 49.8034 37.782 45.2559 37.47 40.49C37.2891 37.6543 37.5249 34.8073 38.17 32.04C38.625 29.9273 39.3864 27.8925 40.43 26C41.4947 24.1375 42.7733 22.4057 44.24 20.84C44.77 20.2 45.38 19.66 45.95 19.05C46.52 18.44 47.13 17.91 47.77 17.41C49.0176 16.3303 50.3559 15.36 51.77 14.51C52.4059 14.1378 53.0756 13.8264 53.77 13.58C54.3078 13.3754 54.8636 13.2214 55.43 13.12C55.8346 13.0627 56.2453 13.0627 56.65 13.12C57.244 13.2215 57.7846 13.5253 58.18 13.98C58.364 14.157 58.5344 14.3476 58.69 14.55C59.1 15.2 58.26 16.12 56.89 17.34C56.34 17.67 55.82 18.09 55.3 18.46C55.04 18.65 54.79 18.86 54.54 19.06C54.29 19.26 54 19.38 53.75 19.57C52.7 20.26 51.68 20.98 50.75 21.76C48.8051 23.2535 47.1163 25.0537 45.75 27.09C44.7771 28.5857 44.0386 30.2212 43.56 31.94C43.0621 33.7653 42.767 35.64 42.68 37.53H42.46Z" fill="currentColor"/>
<path d="M19.29 45.42C18.9625 47.1458 18.7686 48.8944 18.71 50.65C18.6662 52.395 18.7632 54.1406 19 55.87C19.5596 59.337 20.742 62.6741 22.49 65.72C22.7718 66.2901 23.1066 66.8325 23.49 67.34L24.65 68.89C25.54 69.82 26.34 70.89 27.31 71.7C28.9638 73.3136 30.7995 74.7298 32.78 75.92C34.8169 77.1044 36.9719 78.073 39.21 78.81C43.7979 80.3115 48.637 80.8926 53.45 80.52C54.5298 80.4615 55.6051 80.338 56.67 80.15C57.7361 79.9965 58.7915 79.7761 59.83 79.49C61.9013 78.9373 63.9115 78.1768 65.83 77.22C70.76 74.79 74.99 71.05 79.42 67.48C80.81 66.36 81.16 67.06 80.62 68.68C79.6671 71.1952 78.1197 73.4425 76.11 75.23C73.813 77.3135 71.3063 79.1533 68.63 80.72C65.8797 82.3124 62.9118 83.4949 59.82 84.23L58.66 84.5L57.5 84.71C56.73 84.83 55.96 84.99 55.18 85.09C53.6232 85.2749 52.0576 85.3751 50.49 85.39C48.9177 85.4166 47.3451 85.3531 45.78 85.2C45 85.12 44.22 84.98 43.44 84.87L42.28 84.68L41.13 84.41C37.377 83.5742 33.7378 82.2917 30.29 80.59C26.7986 78.8072 23.6527 76.4165 21 73.53C18.0855 70.3297 15.8202 66.5939 14.33 62.53C13.603 60.5039 13.0804 58.4101 12.77 56.28C12.4457 54.173 12.3151 52.0408 12.38 49.91C12.564 44.7334 13.689 39.6336 15.7 34.86C18.5876 27.5426 23.5862 21.2491 30.06 16.78C32.5933 15.0976 35.3153 13.7182 38.17 12.67C41.03 11.6937 43.9928 11.0494 47 10.75C48.33 10.59 49.62 10.55 51 10.51C55.94 10.68 57.4 11.51 58.12 13.39C58.3125 13.7971 58.4632 14.2226 58.57 14.66C58.67 15.35 58.2 15.9 57.31 16.28C56.7909 16.491 56.2462 16.6322 55.69 16.7C55.05 16.79 54.33 16.83 53.52 16.9C48.8478 16.9798 44.2175 17.7966 39.8 19.32C37.7033 20.1136 35.6929 21.1188 33.8 22.32C31.9085 23.5573 30.1756 25.0215 28.64 26.68C26.265 29.2614 24.2898 32.1838 22.78 35.35C21.9859 36.9628 21.3173 38.6345 20.78 40.35C20.2165 42.0339 19.7852 43.7591 19.49 45.51L19.29 45.42Z" fill="currentColor"/>
</svg>
