<svg width="96" height="96" viewBox="0 0 96 96" fill="none" xmlns="http://www.w3.org/2000/svg">
<path d="M61.74 11.5C64.5209 13.5996 66.5935 16.4992 67.68 19.81C68.6608 22.8773 68.8905 26.1353 68.35 29.31C68.0401 31.4811 67.438 33.6003 66.56 35.61C64.947 38.8992 62.7976 41.8968 60.2 44.48C57.7673 46.8822 55.2105 49.1553 52.54 51.29C50.2924 53.1291 48.1865 55.1347 46.24 57.29C45 58.62 44 60.1 42.9 61.55C41.8 63 40.78 64.47 39.71 66C39.06 66.92 38.3 66.44 37.89 65.1C37.4038 63.2023 37.6652 61.1904 38.62 59.48C40.7407 55.9896 43.3581 52.8264 46.39 50.09C49.27 47.4 52.2 45.01 54.91 42.52C56.525 41.0601 57.9226 39.3763 59.06 37.52C60.109 35.6863 60.9221 33.7275 61.48 31.69C62.0899 29.5801 62.25 27.3657 61.95 25.19C61.807 24.1554 61.521 23.1458 61.1 22.19C60.6998 21.249 60.1567 20.3754 59.49 19.6C58.6647 18.5839 57.6823 17.7061 56.58 17C55.4326 16.321 54.1832 15.8314 52.88 15.55C50.8002 15.116 48.6531 15.1177 46.574 15.5549C44.4949 15.992 42.5289 16.8552 40.8 18.09C38.2378 20.1384 36.3781 22.9349 35.48 26.09C35.23 26.75 35.17 27.46 34.95 28.09C34.22 30.61 33.74 31.38 31.95 31.84C31.5496 31.9719 31.1423 32.0821 30.73 32.17C30.3986 32.2328 30.056 32.1938 29.7472 32.0582C29.4384 31.9225 29.1779 31.6965 29 31.41C28.7532 31.023 28.5645 30.6018 28.44 30.16C28.3191 29.5909 28.2522 29.0116 28.24 28.43C28.317 24.3443 29.6277 20.3773 32 17.05C34.5541 13.4193 38.154 10.6531 42.32 9.11997C45.5128 7.89513 48.9536 7.4574 52.3514 7.84383C55.7491 8.23025 59.0038 9.42946 61.84 11.34L61.74 11.5Z" fill="currentColor"/>
<path d="M40.48 77.24C40.6644 77.7417 40.7394 78.2769 40.7 78.81L40.64 79.63C40.64 79.9 40.52 80.18 40.46 80.45L40.26 81.24C40.1336 81.4974 39.9934 81.7477 39.84 81.99C39.5746 82.4835 39.2376 82.9351 38.84 83.33C38.57 83.61 38.33 83.93 38.07 84.2C37.81 84.47 37.46 84.61 37.15 84.78C36.6142 84.9858 36.0369 85.0605 35.4663 84.9979C34.8958 84.9353 34.3484 84.7371 33.87 84.42C33.66 84.25 33.46 84.05 33.26 83.87C33.06 83.69 32.94 83.43 32.78 83.22C32.5684 82.8122 32.4008 82.3832 32.28 81.94C32.0674 81.2399 31.93 80.5192 31.87 79.79C31.7753 79.3149 31.793 78.8244 31.9214 78.3573C32.0499 77.8903 32.2857 77.4598 32.61 77.1C32.83 76.88 33.38 77.3 33.91 77.77C34.44 78.24 35.03 78.69 35.07 78.91C35.1098 79.3407 35.1936 79.7663 35.32 80.18C35.43 80.6 35.61 80.94 35.5 81.18C35.4972 81.2193 35.5026 81.2587 35.5161 81.2957C35.5295 81.3327 35.5506 81.3665 35.578 81.3948C35.6053 81.4231 35.6384 81.4453 35.6749 81.46C35.7114 81.4747 35.7507 81.4815 35.79 81.48C35.939 81.4507 36.0772 81.3816 36.19 81.28C36.5296 81.0393 36.771 80.6843 36.87 80.28C36.9401 79.9795 36.8947 79.6636 36.7428 79.395C36.5909 79.1264 36.3436 78.9248 36.05 78.83C35.9615 78.7932 35.8633 78.7869 35.7709 78.8123C35.6785 78.8377 35.5973 78.8932 35.54 78.97C35.31 79.19 35.31 79.68 35.36 80.17C35.3734 80.2729 35.3734 80.3771 35.36 80.48C35.21 80.85 34.79 80.86 33.52 80.69L32.66 80.58C32.25 80.5663 31.852 80.4382 31.511 80.2103C31.17 79.9823 30.8994 79.6636 30.73 79.29C30.6291 79.0385 30.5749 78.7708 30.57 78.5C30.5842 78.2213 30.6176 77.944 30.67 77.67C30.8034 77.0655 31.0438 76.4898 31.38 75.97C31.6006 75.6802 31.8412 75.4062 32.1 75.15C32.3851 74.8569 32.7248 74.6225 33.1 74.46C33.4904 74.2429 33.9121 74.0878 34.35 74C34.7663 73.8981 35.1917 73.8378 35.62 73.82C38.04 73.82 39.62 75.44 40.62 77.16L40.48 77.24Z" fill="currentColor"/>
</svg>
