<svg width="96" height="96" viewBox="0 0 96 96" fill="none" xmlns="http://www.w3.org/2000/svg">
<path d="M34.08 25.22H52.33C52.33 25.22 48.94 18.22 43.2 19.52C39.6426 20.4287 36.4556 22.4206 34.08 25.22Z" fill="currentColor"/>
<path d="M30.85 69.06C30.85 69.06 32.36 64.42 38.65 65.74C44.94 67.06 41.7 70.63 41.7 70.63L30.85 69.06Z" fill="currentColor"/>
<path d="M58.57 48.26C58.9243 47.0187 59.684 45.9317 60.7279 45.1723C61.7718 44.4129 63.0399 44.0249 64.33 44.07C69.12 44.07 72.14 48.75 72.14 48.75L58.57 48.26Z" fill="currentColor"/>
<path d="M54.35 28.43C50.79 28.23 47.22 28.05 43.64 27.96C42.34 27.96 41.04 28.08 39.74 28.03C35.13 27.88 30.52 27.73 25.9 27.67C23.9 27.67 21.8 27.74 19.77 27.88C17.16 28.05 14.57 28.44 11.87 27.95C11.03 27.79 11.16 26.69 11.87 25.56C12.2151 24.9724 12.6543 24.4454 13.17 24C13.7365 23.5161 14.4312 23.2069 15.17 23.11C20.4712 22.3869 25.8326 22.2093 31.17 22.58C34.4 22.85 37.74 22.42 41.04 22.38C44.66 22.38 48.29 22.38 51.93 22.44L58.64 22.6C62.03 22.67 65.43 22.88 68.81 22.9C71.44 22.9 74.04 22.57 76.7 22.77C77.2844 22.7483 77.8693 22.8021 78.44 22.93C80.6 23.58 81.2 24.2 81.44 25.45C81.5052 25.7232 81.552 26.0005 81.58 26.28C81.58 27.15 80.58 27.79 79.04 28.19C78.47 28.34 77.92 28.45 77.33 28.64C76.7639 28.7691 76.189 28.856 75.61 28.9C75.04 28.97 74.47 29.02 73.9 29.07C73.3205 29.1544 72.7355 29.1945 72.15 29.19C69.85 29.19 67.47 29.13 65.15 29.02C63.38 28.96 61.59 28.89 59.81 28.8L54.44 28.61L54.35 28.43Z" fill="currentColor"/>
<path d="M41.58 45.4C45.13 45.54 48.7 45.64 52.28 45.64C53.58 45.64 54.88 45.45 56.18 45.46C60.79 45.46 65.41 45.46 70.03 45.36C72.03 45.36 74.13 45.14 76.16 44.93C78.77 44.66 81.34 44.16 84.16 44.6C85.01 44.73 84.88 45.84 84.24 46.98C83.8946 47.585 83.4559 48.1318 82.94 48.6C82.3995 49.0986 81.7253 49.4288 81 49.55C75.78 50.28 70.45 51.02 65 50.66C61.74 50.51 58.41 51.04 55.1 51.18C51.46 51.32 47.82 51.37 44.16 51.37C41.92 51.37 39.67 51.31 37.42 51.37C35.72 51.37 34.01 51.26 32.3 51.22C30.59 51.18 28.85 51 27.15 51C24.5 50.9 21.86 51.23 19.15 50.9C18.5559 50.8983 17.9645 50.821 17.39 50.67C15.23 49.85 14.66 49.2 14.54 47.95C14.493 47.6725 14.4696 47.3915 14.47 47.11C14.47 46.25 15.58 45.67 17.12 45.36C17.69 45.25 18.23 45.18 18.82 45.02C19.384 44.9096 19.9557 44.8427 20.53 44.82C21.09 44.82 21.65 44.74 22.21 44.72C22.49 44.72 22.78 44.72 23.07 44.65H24C25.15 44.65 26.28 44.74 27.45 44.77C28.62 44.8 29.8 44.84 30.98 44.9L36.28 45.12C38.05 45.18 39.84 45.21 41.63 45.25L41.58 45.4Z" fill="currentColor"/>
<path d="M38.46 68.31C42.01 68.45 45.58 68.55 49.15 68.55C50.46 68.55 51.75 68.36 53.06 68.37C57.66 68.37 62.28 68.37 66.91 68.27C68.91 68.27 71.01 68.05 73.04 67.84C75.65 67.57 78.22 67.07 80.98 67.51C81.84 67.64 81.71 68.75 81.06 69.89C80.7215 70.4969 80.2857 71.0442 79.77 71.51C79.2295 72.0086 78.5553 72.3388 77.83 72.46C72.61 73.19 67.28 73.93 61.83 73.57C58.58 73.42 55.25 73.95 51.94 74.09C48.3 74.23 44.65 74.28 41 74.28C38.76 74.28 36.5 74.22 34.26 74.28C32.56 74.28 30.85 74.17 29.14 74.13C27.43 74.09 25.73 73.96 24.03 73.96C21.38 73.86 18.74 74.2 16.03 73.86C15.4359 73.8583 14.8445 73.781 14.27 73.63C12.11 72.81 11.54 72.16 11.42 70.91C11.3749 70.6321 11.3482 70.3515 11.34 70.07C11.39 69.21 12.46 68.63 13.99 68.32C14.57 68.21 15.11 68.14 15.7 67.98C16.2607 67.8702 16.8291 67.8033 17.4 67.78C17.97 67.78 18.53 67.7 19.09 67.68C19.37 67.68 19.66 67.68 19.95 67.61C20.24 67.54 20.52 67.61 20.81 67.61C21.96 67.61 23.09 67.7 24.26 67.73C25.43 67.76 26.61 67.8 27.78 67.86L33.08 68.08C34.86 68.14 36.65 68.17 38.43 68.21L38.46 68.31Z" fill="currentColor"/>
<path d="M45.52 38.09C43.5257 38.3592 41.5019 38.3187 39.52 37.97C37.5434 37.6451 35.6322 37.0035 33.86 36.07C32.3383 35.397 31.0008 34.3681 29.96 33.07C29.0272 31.8155 28.4472 30.3343 28.28 28.78C28.2142 28.0092 28.2444 27.2333 28.37 26.47C28.5196 25.7728 28.7304 25.0901 29 24.43C29.263 23.8019 29.5774 23.1965 29.94 22.62C30.2899 22.0576 30.6952 21.5316 31.15 21.05L31.84 20.35L32.57 19.74C33.0588 19.3386 33.5769 18.9743 34.12 18.65C35.9643 17.4813 37.9929 16.6327 40.12 16.14C40.8133 15.9954 41.5145 15.8919 42.22 15.83C42.9422 15.7334 43.6755 15.757 44.39 15.9C45.8307 16.1976 47.1603 16.89 48.23 17.9C48.89 18.54 48.23 19.11 47.23 19.66C46.72 19.94 46.16 20.21 45.58 20.56C45.29 20.72 45.03 20.84 44.76 20.98C44.5263 21.1218 44.2688 21.2201 44 21.27C43.78 21.27 43.55 21.41 43.35 21.43C43.1404 21.4101 42.9295 21.4101 42.72 21.43L42.08 21.48L41.43 21.6C40.544 21.7611 39.6809 22.0298 38.86 22.4C38.0222 22.7481 37.227 23.191 36.49 23.72L35.95 24.12L35.46 24.55C35.2976 24.6905 35.144 24.8408 35 25C34.85 25.15 34.65 25.29 34.52 25.45L34.03 26.07L33.7 26.77C33.5332 27.1819 33.4647 27.627 33.5 28.07C33.6292 28.9897 34.0705 29.837 34.75 30.47C35.734 31.3516 36.9182 31.9797 38.2 32.3C39.61 32.7061 41.0729 32.8983 42.54 32.87C44.2997 32.8893 46.0362 32.4663 47.59 31.64C48.6749 31.0537 49.5621 30.1595 50.14 29.07L50.49 28.21C50.6 27.93 50.61 27.65 50.69 27.38C50.757 26.8388 50.7058 26.2895 50.54 25.77C50.2323 24.9534 49.6762 24.2539 48.95 23.77C48.1714 23.2482 47.3275 22.8313 46.44 22.53C46.06 22.37 45.67 22.26 45.29 22.11C44.7369 21.944 44.2459 21.6167 43.88 21.17C43.6035 20.6061 43.4339 19.9958 43.38 19.37C43.33 19.03 43.24 18.69 43.21 18.37C43.1896 18.0968 43.2364 17.8228 43.3462 17.5718C43.456 17.3208 43.6255 17.1005 43.84 16.93C44.1263 16.6537 44.4648 16.4372 44.8356 16.293C45.2064 16.1488 45.6022 16.0798 46 16.09C47.4236 16.0993 48.8346 16.3565 50.17 16.85C51.5662 17.503 52.8253 18.4159 53.88 19.54C55.1069 20.8459 55.9811 22.4427 56.42 24.18C56.875 26.0335 56.7988 27.9778 56.2 29.79C55.96 30.3767 55.71 30.9567 55.45 31.53C55.14 32.08 54.77 32.61 54.45 33.14C54.0566 33.6299 53.6359 34.0973 53.19 34.54C52.73 34.96 52.25 35.34 51.77 35.72C49.9179 37.0164 47.7937 37.8716 45.56 38.22L45.52 38.09Z" fill="currentColor"/>
<path d="M69.42 60.26C67.6362 60.7456 65.7859 60.9414 63.94 60.84C63.0586 60.8045 62.1802 60.7143 61.31 60.57C60.4218 60.4229 59.546 60.209 58.69 59.93C57.3933 59.58 56.1514 59.0516 55 58.36C53.8029 57.5573 52.8181 56.4764 52.13 55.21C51.3944 53.783 51.2059 52.1363 51.6 50.58C52.2582 48.3211 53.5783 46.3113 55.39 44.81C56.8621 43.5629 58.5593 42.6091 60.39 42C62.6427 41.294 65.0574 41.294 67.31 42C67.99 42.24 67.77 42.91 67.15 43.63C66.8066 44.0422 66.4212 44.4176 66 44.75C65.5759 45.1099 65.0824 45.3788 64.55 45.54C63.6944 45.7519 62.8657 46.0606 62.08 46.46C61.3804 46.7634 60.7108 47.1316 60.08 47.56C58.8745 48.4023 57.8872 49.5198 57.2 50.82C57.1 51.01 57.01 51.24 56.93 51.42C56.8924 51.5339 56.8656 51.6511 56.85 51.77C56.8377 51.8562 56.8429 51.944 56.8653 52.0282C56.8876 52.1124 56.9266 52.1912 56.98 52.26C57.5171 52.8028 58.156 53.2343 58.86 53.53C59.9177 54.0481 61.0468 54.4054 62.21 54.59C63.4401 54.7898 64.6917 54.8201 65.93 54.68C66.634 54.5984 67.3277 54.4443 68 54.22C68.5976 54.0078 69.1553 53.6968 69.65 53.3C69.9781 53.0092 70.2452 52.6562 70.4358 52.2614C70.6263 51.8665 70.7365 51.4378 70.76 51C70.8617 50.0149 70.6177 49.0251 70.07 48.2C69.19 47 67.51 46.62 66 46.6C65.64 46.6 65.31 46.66 65 46.68C64.7427 46.7075 64.4825 46.6827 64.2351 46.607C63.9876 46.5314 63.758 46.4066 63.56 46.24C63.1352 45.7909 62.8412 45.2341 62.71 44.63C62.59 44.27 62.44 43.91 62.34 43.55C62.2561 43.2662 62.2305 42.9684 62.2649 42.6745C62.2993 42.3806 62.3929 42.0967 62.54 41.84C62.9071 41.248 63.4867 40.8187 64.16 40.64C65.3595 40.286 66.6192 40.1838 67.86 40.34C69.2651 40.4837 70.6262 40.9125 71.86 41.6C73.2546 42.3619 74.4476 43.4451 75.34 44.76C76.2414 46.1371 76.8097 47.7052 77 49.34C77.081 49.9162 77.1078 50.4988 77.08 51.08C77.0651 51.6989 76.9915 52.315 76.86 52.92C76.7252 53.5701 76.5207 54.2038 76.25 54.81C75.9715 55.4262 75.6367 56.0153 75.25 56.57C73.7819 58.4105 71.7804 59.7518 69.52 60.41L69.42 60.26Z" fill="currentColor"/>
<path d="M40.4 81.45C38.6178 81.8196 36.7878 81.9007 34.98 81.69C33.2704 81.4963 31.5912 81.0933 29.98 80.49C28.652 80.0842 27.4014 79.4588 26.28 78.64C25.1909 77.6983 24.3613 76.4933 23.87 75.14C23.4142 73.8074 23.3346 72.3749 23.64 71C24.1929 68.6735 25.5807 66.631 27.54 65.26C29.0552 64.1697 30.7465 63.3477 32.54 62.83C34.6954 62.1881 36.9862 62.1535 39.16 62.73C39.83 62.94 39.66 63.62 39.09 64.36C38.4593 65.2425 37.5978 65.9345 36.6 66.36C35.7475 66.6253 34.9181 66.9598 34.12 67.36C33.3923 67.6393 32.6869 67.9736 32.01 68.36C30.8659 69.0193 29.9117 69.9632 29.24 71.1C29.0696 71.3542 28.9688 71.6487 28.9478 71.954C28.9267 72.2593 28.9861 72.5648 29.12 72.84C29.4732 73.3909 29.9715 73.8338 30.56 74.12C31.5448 74.6693 32.6067 75.067 33.71 75.3C34.8723 75.5751 36.0663 75.6928 37.26 75.65C38.5668 75.6454 39.8433 75.2558 40.93 74.53C41.2519 74.2704 41.529 73.9596 41.75 73.61C41.8691 73.4302 41.9632 73.2351 42.03 73.03C42.0785 72.9336 42.1187 72.8333 42.15 72.73V72.44C42.219 72.0255 42.1918 71.6007 42.0704 71.1984C41.949 70.7961 41.7367 70.4271 41.45 70.12C40.2509 68.9794 38.7276 68.2387 37.09 68C36.73 67.91 36.35 67.91 36 67.83C34.71 67.52 34.51 67.02 34.33 65.35C34.33 64.97 34.21 64.59 34.19 64.21C34.1548 63.9169 34.183 63.6197 34.2728 63.3385C34.3625 63.0572 34.5116 62.7986 34.71 62.58C35.2084 62.0819 35.8759 61.7892 36.58 61.76C38.9526 61.6873 41.2939 62.317 43.31 63.57C44.4865 64.2911 45.5342 65.2037 46.41 66.27C47.4696 67.6122 48.1591 69.2085 48.41 70.9C48.4849 71.5846 48.4849 72.2754 48.41 72.96C48.3507 73.6206 48.213 74.2719 48 74.9C47.6106 76.1047 46.9851 77.2197 46.16 78.18C44.6394 79.8827 42.632 81.0767 40.41 81.6L40.4 81.45Z" fill="currentColor"/>
</svg>
