<svg width="96" height="96" viewBox="0 0 96 96" fill="none" xmlns="http://www.w3.org/2000/svg">
<path d="M25.39 29.25C28.923 31.3684 32.5985 33.2395 36.39 34.85L42.29 37.43L48.19 40.05C51.07 41.31 54.02 42.43 56.89 43.8C62.0132 46.201 66.9708 48.9404 71.73 52C74.1985 53.568 76.5182 55.3588 78.66 57.35C80.9613 59.3834 82.8344 61.8548 84.17 64.62L84.6 65.62C84.73 65.95 84.82 66.31 84.93 66.62C85.04 66.93 85.15 67.31 85.23 67.62L85.4 68.72C85.5081 69.4749 85.5383 70.2389 85.49 71C85.4287 71.7477 85.3117 72.4897 85.14 73.22C84.93 73.93 84.63 74.61 84.36 75.29L83.27 77.13L82 78.77C81.5273 79.2943 81.0158 79.7823 80.47 80.23C79.061 81.3614 77.4388 82.198 75.7 82.69C74.0431 83.1527 72.3303 83.3848 70.61 83.38C67.3406 83.3127 64.1004 82.7496 61 81.71C59.11 81.11 59.5 80.63 61.25 80.25C62.12 80.04 63.34 79.86 64.76 79.65C66.18 79.44 67.76 79.24 69.39 79.13C71.9779 79.0677 74.4828 78.2048 76.56 76.66C76.76 76.46 76.97 76.29 77.17 76.09C77.37 75.89 77.52 75.67 77.71 75.46C78.03 74.97 78.41 74.46 78.71 73.96C78.9658 73.4912 79.1671 72.9946 79.31 72.48L79.41 72.13C79.4631 72.0205 79.4937 71.9015 79.5 71.78C79.5 71.5533 79.53 71.3233 79.59 71.09C79.6314 70.1011 79.4574 69.115 79.08 68.2C78.5888 67.0833 77.9714 66.0264 77.24 65.05C75.5234 62.759 73.5052 60.7105 71.24 58.96C68.2345 56.6851 65.0162 54.7059 61.63 53.05C58.19 51.32 54.63 49.76 51.05 48.17L39.23 43C35.29 41.28 31.23 39.61 27.23 37.6C22.37 35.14 17.5 32.19 13.58 27.96C13.39 27.76 13.21 27.58 13.01 27.35C12.81 27.12 12.61 26.88 12.44 26.63C12.0644 26.1278 11.7299 25.5961 11.44 25.04C10.8337 23.8685 10.4923 22.5781 10.44 21.26C10.3794 19.7942 10.8203 18.3515 11.69 17.17C11.9139 16.8829 12.1543 16.6091 12.41 16.35C12.6642 16.1153 12.9313 15.8949 13.21 15.69C13.6935 15.3541 14.1941 15.0436 14.71 14.76C16.7065 13.733 18.8645 13.0565 21.09 12.76C23.1937 12.4725 25.3178 12.3621 27.44 12.43C33.7578 12.6722 40.0403 13.4889 46.21 14.87C47.55 15.16 48.87 15.4 50.21 15.75C51.9532 16.1361 53.6354 16.7585 55.21 17.6C56.0359 18.1145 56.6902 18.8629 57.09 19.75C57.2764 20.0715 57.4401 20.4057 57.58 20.75C57.71 21.29 57.22 21.64 56.19 21.87C54.7236 22.1539 53.2164 22.1539 51.75 21.87C46.29 21.01 40.87 19.87 35.42 19.16C32.7679 18.7925 30.0968 18.5789 27.42 18.52C24.9577 18.4382 22.4963 18.7076 20.11 19.32C19.3707 19.5287 18.6539 19.8101 17.97 20.16C17.6594 20.3121 17.3617 20.4894 17.08 20.69C16.81 20.87 16.91 20.83 16.87 20.83C16.87 20.83 16.87 20.83 16.87 20.97C16.9049 21.3966 17.0347 21.81 17.25 22.18C17.3879 22.4309 17.5485 22.6686 17.73 22.89L17.88 23.07L18.11 23.32L18.58 23.82C18.88 24.16 19.23 24.47 19.58 24.82C19.93 25.17 20.26 25.46 20.63 25.75C22.1247 27.0041 23.7239 28.1282 25.41 29.11L25.39 29.25Z" fill="currentColor"/>
<path d="M62.76 60.79C63.795 61.534 64.7207 62.4192 65.51 63.42C66.0095 64.083 66.3578 64.8473 66.5305 65.6592C66.7033 66.4712 66.6963 67.3111 66.51 68.12C66.51 68.27 66.45 68.41 66.4 68.55L66.22 68.96L65.86 69.77C65.5753 70.282 65.2403 70.7643 64.86 71.21L63.58 72.15C63.34 72.27 63.09 72.35 62.86 72.46C62.63 72.57 62.47 72.61 62.27 72.69C61.5665 72.9083 60.8429 73.0557 60.11 73.13C58.7802 73.2668 57.4399 73.2668 56.11 73.13C55 73 53.93 73 52.84 72.86C51.4527 72.7994 50.0786 72.5642 48.75 72.16C48.34 72.02 48.42 71.59 48.82 71.16C49.2988 70.5636 49.9708 70.1533 50.72 70C53.3231 69.6151 55.9489 69.4047 58.58 69.37C58.9336 69.3625 59.2854 69.3189 59.63 69.24C59.9463 69.146 60.254 69.0256 60.55 68.88C60.85 68.68 60.9 68.71 61.02 68.59C61.1337 68.5049 61.2407 68.4113 61.34 68.31C61.4733 68.1837 61.5724 68.0259 61.6284 67.851C61.6843 67.6762 61.6952 67.4901 61.66 67.31C61.6534 67.2152 61.6261 67.1231 61.58 67.04C61.5422 66.9274 61.4847 66.8224 61.41 66.73C61.21 66.451 60.9822 66.193 60.73 65.96C59.9564 65.263 59.104 64.659 58.19 64.16C56.7167 63.3108 55.1706 62.5946 53.57 62.02C52.31 61.58 50.94 61.57 49.65 61.22C49.37 61.15 49.07 61.11 48.79 61.01C48.5776 60.979 48.3743 60.9025 48.1941 60.7856C48.014 60.6688 47.8612 60.5143 47.7463 60.3329C47.6314 60.1515 47.557 59.9475 47.5283 59.7346C47.4996 59.5218 47.5173 59.3053 47.58 59.1C47.594 58.8483 47.6241 58.5978 47.67 58.35C47.7735 57.983 47.9873 57.6566 48.2824 57.4151C48.5776 57.1737 48.9398 57.0287 49.32 57C50.6168 56.8149 51.9333 56.8149 53.23 57C54.5462 57.2054 55.8437 57.5164 57.11 57.93C58.105 58.1945 59.0727 58.5528 60 59C60.9813 59.4903 61.933 60.038 62.85 60.64L62.76 60.79Z" fill="currentColor"/>
</svg>
