<svg width="96" height="96" viewBox="0 0 96 96" fill="none" xmlns="http://www.w3.org/2000/svg">
<path d="M39.33 68C41.342 66.937 43.2708 65.7235 45.1 64.37C47 63 48.75 61.49 50.47 59.91C51.1 59.32 51.7 58.71 52.3 58.1C52.9 57.49 53.47 56.85 54.07 56.24C58.3126 51.8677 62.1734 47.1405 65.61 42.11C67.1227 39.871 68.4825 37.5323 69.68 35.11C70.44 33.57 71.14 31.99 71.76 30.4C72.38 28.81 73.1 27.27 73.62 25.65C73.97 24.65 74.35 24.82 74.62 25.84C74.8138 26.5236 74.918 27.2295 74.93 27.94C74.9692 28.3992 74.9692 28.8608 74.93 29.32L74.85 30.07C74.7905 30.3206 74.7171 30.5676 74.63 30.81C73.4276 34.2792 71.9009 37.6274 70.07 40.81C68.2758 43.9913 66.2257 47.0213 63.94 49.87C61.2 53.27 58.47 56.87 55.39 60.17C52.0043 63.7923 48.2279 67.0287 44.13 69.82C41.5521 71.5967 38.7381 73.0037 35.77 74C33.4302 74.7925 30.9422 75.0488 28.49 74.75C27.196 74.5893 25.9441 74.1856 24.8 73.56C23.5629 72.8752 22.565 71.8283 21.94 70.56C21.0988 68.6788 20.8478 66.5868 21.22 64.56C21.4863 62.6916 22.0608 60.8803 22.92 59.2C23.2714 58.4688 23.6689 57.7608 24.11 57.08C25.84 54.59 26.82 54.14 27.92 54.3C28.1708 54.3155 28.419 54.3591 28.66 54.43C29.35 54.71 29.01 55.95 28.14 57.7C27.4876 58.9838 26.9489 60.3222 26.53 61.7C26.0939 62.9608 25.7955 64.265 25.64 65.59C25.4773 66.5876 25.6022 67.6108 26 68.54C26.1682 68.8958 26.4118 69.2108 26.7141 69.4629C27.0163 69.715 27.3698 69.8983 27.75 70C29.5272 70.5795 31.429 70.6625 33.25 70.24C35.3524 69.7632 37.3737 68.9816 39.25 67.92L39.33 68Z" fill="currentColor"/>
<path d="M52.62 75.84C54.0001 75.2714 55.337 74.6029 56.62 73.84C57.1 73.56 57.5 73.18 57.97 72.9C59.6701 71.9104 61.2886 70.7869 62.81 69.54C63.4738 68.9761 64.0954 68.3645 64.67 67.71C65.06 67.31 65.37 66.84 65.78 66.46C66.19 66.08 66.58 65.69 67 65.32C67.25 65.08 67.46 65.27 67.55 65.7C67.6547 66.2987 67.5781 66.9151 67.33 67.47C67.27 67.61 67.22 67.77 67.15 67.9L66.88 68.27L66.33 68.97C65.95 69.44 65.56 69.89 65.15 70.32C64.3383 71.1933 63.4479 71.99 62.49 72.7C61.33 73.54 60.31 74.63 59.12 75.49C57.7747 76.4204 56.3682 77.2589 54.91 78C54.02 78.45 53.11 78.87 52.18 79.24C50.7524 79.8065 49.2717 80.2286 47.76 80.5C46.5682 80.7586 45.3486 80.8661 44.13 80.82C43.8548 80.8181 43.5804 80.7914 43.31 80.74C42.31 80.4 42.1 80 42.12 79.43C42.1097 79.2969 42.1097 79.1631 42.12 79.03C42.2 78.63 42.69 78.4 43.32 78.32C43.7625 78.2301 44.21 78.1666 44.66 78.13C45.09 78.06 45.52 78.01 45.95 77.9C46.81 77.73 47.66 77.46 48.56 77.25C49.9361 76.9025 51.2755 76.4237 52.56 75.82L52.62 75.84Z" fill="currentColor"/>
<path d="M34.72 77.55C33.3915 78.0236 32.0061 78.3195 30.6 78.43C29.0282 78.5426 27.452 78.2822 26 77.67C24.5198 77.0157 23.2396 75.9805 22.29 74.67L21.66 73.74L21.15 72.74C20.7941 72.0076 20.5385 71.2306 20.39 70.43C20.0226 67.6627 20.3667 64.8473 21.39 62.25C22.2414 59.9095 23.2815 57.6421 24.5 55.47C26.8796 51.1941 29.7856 47.2333 33.15 43.68C36.4821 40.0937 40.2361 36.924 44.33 34.24C47.3498 32.2407 50.5957 30.606 54 29.37C57.5201 28.0925 61.26 27.5315 65 27.72C68.3681 27.9231 71.6605 28.804 74.68 30.31C76.2606 31.0678 77.7225 32.0514 79.02 33.23C80.3914 34.4991 81.4697 36.0518 82.18 37.78C82.8641 39.4656 83.2041 41.271 83.18 43.09C83.1515 44.779 82.9164 46.4581 82.48 48.09C81.6291 51.219 80.3539 54.2168 78.69 57C77.1029 59.7022 75.2756 62.2559 73.23 64.63C71.1997 66.9669 69.0219 69.1714 66.71 71.23C62.1061 75.3845 56.8707 78.7802 51.2 81.29C49.9233 81.8481 48.6182 82.3388 47.29 82.76C46.62 82.96 45.94 83.15 45.29 83.32C44.3913 83.5213 43.4703 83.6054 42.55 83.57C41.6088 83.5312 40.683 83.3176 39.82 82.94C39.3942 82.7678 39.0109 82.5051 38.6967 82.1701C38.3824 81.8352 38.1447 81.4359 38 81C37.52 79.23 38.65 77.43 39.92 76C40.07 75.83 40.25 75.62 40.38 75.49L40.75 75.12C41 74.87 41.25 74.62 41.5 74.39C42 73.9 42.5 73.45 43.04 72.99C44.04 72.08 45.15 71.23 46.24 70.4C48.4142 68.7507 50.6885 67.2378 53.05 65.87C56.1153 64.0449 59.3888 62.5945 62.8 61.55C64.5977 61.0151 66.4557 60.7094 68.33 60.64C70.3569 60.5547 72.3769 60.9272 74.24 61.73C76.1483 62.6249 77.7514 64.0612 78.85 65.86L79.59 67.18C79.8191 67.6677 80.0097 68.1726 80.16 68.69C80.4407 69.6666 80.5986 70.6744 80.63 71.69C80.6948 73.5775 80.4482 75.4627 79.9 77.27C79.3973 79.0414 78.6715 80.7417 77.74 82.33C76.5 84.33 75.48 84.84 75.3 84.56C75.12 84.28 75.47 83.17 75.8 81.41C76.2509 79.1053 76.3621 76.7469 76.13 74.41C76.0421 73.0769 75.7625 71.7634 75.3 70.51C74.775 69.4103 74.0256 68.4326 73.1 67.64C72.226 66.9562 71.1946 66.5024 70.1 66.32C68.7728 66.1199 67.4218 66.1368 66.1 66.37C63.0176 66.9501 60.0384 67.9847 57.26 69.44C54.3351 70.9253 51.5388 72.6513 48.9 74.6C47.56 75.6 46.26 76.6 45.06 77.65C44.76 77.92 44.45 78.19 44.18 78.46L43.64 78.98C43.53 79.08 43.56 79.04 43.52 79.09C43.48 79.14 43.52 79.24 43.64 79.25H43.81L44.23 79.16L44.79 79.02C45.54 78.82 46.3 78.58 47.05 78.31C50.1254 77.1497 53.0714 75.6717 55.84 73.9C61.4683 70.2372 66.5004 65.7313 70.76 60.54C73.3032 57.4427 75.3787 53.9894 76.92 50.29C78.39 46.67 79.09 42.63 77.74 39.6C77.0451 38.0504 75.8983 36.7468 74.45 35.86C73.6659 35.3591 72.8472 34.9146 72 34.53C71.55 34.36 71.11 34.16 70.66 33.99L69.29 33.56C65.5185 32.5862 61.5615 32.5862 57.79 33.56C53.4536 34.6506 49.3416 36.4917 45.64 39C41.8551 41.5342 38.3812 44.5045 35.29 47.85C32.1585 51.1771 29.4696 54.8944 27.29 58.91C26.2398 60.8836 25.3985 62.9616 24.78 65.11C24.21 67.2 24.06 69.33 24.84 70.88C25.3205 71.9404 26.0811 72.8497 27.04 73.51C27.5078 73.7921 28.0175 73.998 28.55 74.12C29.122 74.238 29.7077 74.2751 30.29 74.23C32.9332 73.8789 35.4591 72.9205 37.67 71.43C42.42 68.52 46.67 64.55 50.72 60.54C56.9333 54.5046 62.314 47.6677 66.72 40.21C68.8511 36.5294 70.5012 32.5905 71.63 28.49L72 27L72.27 25.46C72.4692 24.4711 72.5895 23.4679 72.63 22.46C72.7633 20.6193 72.3343 18.7815 71.4 17.19C70.6429 16.087 69.5689 15.2396 68.32 14.76C66.9368 14.2539 65.482 13.9704 64.01 13.92C60.8705 13.8211 57.7335 14.185 54.7 15C51.5942 15.7895 48.5576 16.8296 45.62 18.11C42.7046 19.4393 39.8992 20.9975 37.23 22.77C34.86 24.34 32.65 26.07 30.4 27.89C28.31 29.58 26.61 31.04 25.18 32.27C23.75 33.5 22.55 34.45 21.54 35.22C20.1651 36.3939 18.5758 37.2904 16.86 37.86C16.2982 38.0718 15.7194 38.2357 15.13 38.35C14.41 38.35 14.69 37.46 15.81 35.74C17.5751 33.1671 19.5592 30.7515 21.74 28.52C26.0724 23.9461 30.8909 19.8586 36.11 16.33C37.46 15.44 38.85 14.59 40.29 13.8C41.7452 12.9849 43.2441 12.2505 44.78 11.6C47.863 10.3143 51.056 9.31023 54.32 8.59999C57.7663 7.80362 61.3088 7.50392 64.84 7.70999C66.8543 7.85484 68.8292 8.34181 70.68 9.14999C72.8256 10.0781 74.6685 11.5885 76 13.51C77.2589 15.3908 78.013 17.5637 78.19 19.82C78.3547 21.7439 78.2605 23.6812 77.91 25.58C77.3236 28.9938 76.3472 32.3289 75 35.52C73.0231 40.1083 70.5518 44.4674 67.63 48.52C64.7732 52.4842 61.6422 56.2434 58.26 59.77C54.9151 63.2716 51.3833 66.5898 47.68 69.71C45.7717 71.3132 43.7681 72.7992 41.68 74.16C39.5237 75.6055 37.2001 76.7841 34.76 77.67L34.72 77.55Z" fill="currentColor"/>
</svg>
