<svg width="96" height="96" viewBox="0 0 96 96" fill="none" xmlns="http://www.w3.org/2000/svg">
<path d="M38.39 20.84C37.82 21.18 37.17 21.64 36.39 22.13C36.01 22.37 35.6 22.62 35.15 22.86L34.45 23.22C34.19 23.35 33.97 23.43 33.61 23.58C32.9314 23.8437 32.2079 23.9727 31.48 23.96C31.1143 23.9453 30.7501 23.9052 30.39 23.84L29.64 23.68C28.75 23.46 27.96 23.21 27.17 22.98C26.02 22.67 24.88 22.5 23.79 22.21C21.31 21.64 21.47 21.47 20.44 21.4C20.3314 21.3873 20.2214 21.3967 20.1166 21.4276C20.0118 21.4585 19.9143 21.5104 19.83 21.58C19.7578 21.651 19.7024 21.7372 19.6678 21.8324C19.6332 21.9275 19.6203 22.0292 19.63 22.13C19.6589 22.5611 19.8194 22.973 20.09 23.31C20.211 23.4887 20.3556 23.6501 20.52 23.79L20.65 23.9L20.86 24.09L21.31 24.45C21.984 24.9456 22.6962 25.387 23.44 25.77C25.38 26.77 27.5 27.57 29.44 28.47C29.91 28.7 29.98 29.47 29.16 30.23C28.6488 30.6653 28.0468 30.981 27.3981 31.154C26.7493 31.327 26.0701 31.353 25.41 31.23C24.128 30.9483 22.8781 30.5361 21.68 30C21.07 29.73 20.47 29.43 19.87 29.1C19.27 28.77 18.73 28.44 18 28C17.6276 27.7464 17.2913 27.4437 17 27.1C16.59 26.68 16.16 26.29 15.8 25.86C15.44 25.43 15 25 14.7 24.55L14.07 23.15C13.9435 22.6928 13.8433 22.2287 13.77 21.76C13.755 21.5369 13.755 21.3131 13.77 21.09C13.761 20.8754 13.7777 20.6605 13.82 20.45C13.9026 19.5687 14.2795 18.7409 14.89 18.1C15.6417 17.3738 16.598 16.8957 17.63 16.73C18.7845 16.5436 19.9598 16.5234 21.12 16.67C22.47 16.85 23.29 17.03 24.02 17.18C24.75 17.33 25.51 17.53 26.23 17.73L28.55 18.4C29.32 18.59 30.08 18.78 30.76 18.91L31.1 18.98C31.1797 18.9896 31.2603 18.9896 31.34 18.98C31.521 18.9878 31.7007 18.9463 31.86 18.86C32.4733 18.5663 33.0533 18.2076 33.59 17.79C34.37 17.25 35.2 16.61 36.19 16.02C36.7242 15.7032 37.2826 15.429 37.86 15.2C38.5319 14.9161 39.2237 14.6821 39.93 14.5C42 14 44 14 45.47 15.21C45.8143 15.5359 46.0892 15.928 46.2782 16.3627C46.4672 16.7975 46.5665 17.2659 46.57 17.74C46.5877 18.6914 46.4143 19.6368 46.06 20.52C45.7757 21.2617 45.4416 21.9833 45.06 22.68L44.41 23.75L43.85 24.59C43.1275 25.6633 42.3073 26.6676 41.4 27.59C41.0122 27.9996 40.6016 28.3868 40.17 28.75C38.49 30.06 37.58 29.86 36.57 28.82C36.325 28.5873 36.0977 28.3366 35.89 28.07C35.5936 27.5931 35.4678 27.0297 35.5332 26.472C35.5986 25.9144 35.8513 25.3954 36.25 25C37.4828 23.7044 38.6318 22.3317 39.69 20.89C39.7869 20.7656 39.8706 20.6316 39.94 20.49H39.89C39.89 20.49 39.89 20.49 39.89 20.41C39.8674 20.4015 39.8426 20.4015 39.82 20.41C39.3608 20.5833 38.9242 20.8116 38.52 21.09L38.39 20.84Z" fill="currentColor"/>
<path d="M50.74 66.86C51.3819 66.9866 52.0111 67.1707 52.62 67.41C53.0443 67.5826 53.4584 67.7796 53.86 68C54.63 68.41 55.28 68.82 55.86 69.2C55.9636 69.2675 56.0606 69.3445 56.15 69.43C56.2071 69.4819 56.2756 69.5196 56.35 69.54C56.425 69.5619 56.5038 69.5679 56.5813 69.5576C56.6589 69.5473 56.7333 69.5208 56.8 69.48C56.9382 69.3994 57.0658 69.302 57.18 69.19L57.81 68.67C58.2302 68.3112 58.6709 67.9773 59.13 67.67C60.3646 66.815 61.6811 66.0847 63.06 65.49C64.1634 64.9985 65.3625 64.7593 66.57 64.79C67.0897 64.8056 67.6033 64.9069 68.09 65.09C68.6199 65.2992 69.0854 65.6441 69.44 66.09C69.6004 66.3298 69.744 66.5804 69.87 66.84C69.9629 67.0933 70.0332 67.3543 70.08 67.62C70.0851 68.0909 70.0348 68.5608 69.93 69.02C69.6962 70.0175 69.2937 70.9679 68.74 71.83C68.43 72.34 68.02 72.83 67.66 73.38C67.3 73.93 66.89 74.38 66.46 74.87C66.03 75.36 66.05 75.38 65.88 75.6L65.41 76.21C65.09 76.62 64.76 77.02 64.41 77.42C63.6887 78.173 62.9097 78.8684 62.08 79.5C61.58 79.88 61.2 79.5 61.03 78.69C60.8094 77.6022 60.9066 76.4739 61.31 75.44C61.82 74.52 62.38 73.65 62.9 72.77C62.96 72.7 62.96 72.77 63.07 72.69C63.2506 72.5834 63.4127 72.4484 63.55 72.29C63.6687 72.1555 63.7534 71.9945 63.7969 71.8204C63.8404 71.6464 63.8414 71.4645 63.8 71.29C63.7 70.96 63.29 71.09 62.94 71.29C62.7607 71.3939 62.5871 71.5074 62.42 71.63L61.29 72.44C60.69 72.86 60.42 73.12 59.29 73.9C58.3592 74.5654 57.2188 74.871 56.08 74.76C55.5209 74.6902 54.975 74.5385 54.46 74.31C53.95 74.07 53.46 73.79 53.21 73.64C52.6 73.3 52.03 72.98 51.49 72.73C51.0283 72.4908 50.5376 72.3126 50.03 72.2C49.5806 72.115 49.1193 72.115 48.67 72.2C48.2445 72.2561 47.843 72.4292 47.51 72.7C47.3583 72.8468 47.2623 73.0418 47.2386 73.2516C47.2149 73.4614 47.2649 73.673 47.38 73.85C47.6881 74.396 48.1238 74.8592 48.65 75.2C48.8996 75.3614 49.1603 75.5051 49.43 75.63C49.84 75.85 50.29 76.02 50.72 76.2C51.61 76.52 52.51 76.78 53.42 77.01C53.8268 77.0759 54.228 77.1728 54.62 77.3C56.05 77.83 56.45 78.24 56.54 79.46C56.54 79.73 56.61 79.99 56.61 80.24C56.61 81.04 55.75 81.73 54.37 81.73C53.3583 81.7766 52.3456 81.6618 51.37 81.39C50.3388 81.1321 49.3343 80.7772 48.37 80.33C47.89 80.09 47.37 79.86 46.93 79.57C46.19 79.15 45.39 78.57 44.64 78.02L43.64 77.09C43.31 76.78 43.04 76.45 42.73 76.09C42.2341 75.498 41.8511 74.8202 41.6 74.09L41.36 73.33C41.2332 72.3076 41.3888 71.2701 41.81 70.33C42.0402 69.8641 42.3256 69.4277 42.66 69.03C43.0223 68.6539 43.4247 68.3185 43.86 68.03C44.8324 67.464 45.8943 67.0683 47 66.86C48.2225 66.572 49.4893 66.5245 50.73 66.72L50.74 66.86Z" fill="currentColor"/>
<path d="M75.48 42.1399L74.15 43.1399L73.28 43.79C72.8697 44.0835 72.4267 44.3284 71.96 44.5199C71.1827 44.7749 70.3679 44.8966 69.55 44.88C68.8993 44.8547 68.2527 44.7642 67.62 44.61C66.6336 44.3476 65.6676 44.0133 64.73 43.61C63.8454 43.2939 62.944 43.0269 62.03 42.81C61.63 42.68 61.23 42.5799 60.84 42.4799L60.34 42.3699L60.12 42.2999C59.7997 42.1854 59.4556 42.1544 59.12 42.2099C58.9309 42.2338 58.7586 42.3307 58.64 42.4799C58.5426 42.6277 58.4968 42.8035 58.51 42.9799C58.5279 43.3756 58.6523 43.7591 58.87 44.0899C59.1871 44.4814 59.5653 44.8191 59.99 45.0899C60.6017 45.4872 61.2516 45.8222 61.93 46.0899C63.9427 46.6912 65.8841 47.5093 67.72 48.5299C68.31 48.9299 68.05 49.2299 67.37 49.5299C66.4261 49.9745 65.4099 50.2455 64.37 50.33C61.912 50.4567 59.4637 49.9361 57.27 48.8199L56.8 48.5499L56.19 48.1399L55.6 47.7299L55.07 47.15L54.56 46.5699L54.17 45.9099L53.78 45.2699L53.55 44.58C53.1907 43.7792 53.0407 42.9003 53.1142 42.0257C53.1877 41.1511 53.4821 40.3095 53.97 39.58C55.25 37.95 57.35 37.47 59.57 37.58C60.12 37.58 60.71 37.6699 61.1 37.7299L62.22 37.8899C62.9244 38.01 63.622 38.1669 64.31 38.36C64.94 38.55 65.55 38.7399 66.2 38.9799C66.85 39.2199 67.29 39.4 67.78 39.56C68.2265 39.7109 68.6847 39.8247 69.15 39.9C69.2931 39.9105 69.4369 39.9105 69.58 39.9C69.7092 39.9197 69.8407 39.9197 69.97 39.9C70.0689 39.8745 70.1633 39.834 70.25 39.7799L70.39 39.68L70.63 39.4999C71.94 38.4999 73.31 37.21 74.92 36.08C75.6314 35.5597 76.426 35.164 77.27 34.9099L77.73 34.83C77.9164 34.8148 78.1036 34.8148 78.29 34.83C78.5179 34.8451 78.743 34.8888 78.96 34.9599C79.2001 35.0366 79.4263 35.1514 79.63 35.2999C80.2351 35.7601 80.6369 36.4382 80.75 37.1899C80.75 37.4299 80.82 37.72 80.84 37.88V38.4C80.8795 38.871 80.856 39.3452 80.77 39.81C80.5879 40.6742 80.249 41.4978 79.77 42.24C79.14 43.24 78.52 44.24 77.89 45.08C77.26 45.92 76.57 46.78 75.89 47.58C75.58 47.93 75.31 48.29 74.97 48.58C73.72 49.78 73.04 49.8299 71.87 49.0699C71.6008 48.9072 71.3404 48.7303 71.09 48.54C70.7022 48.1776 70.4637 47.6835 70.4212 47.1545C70.3787 46.6255 70.5351 46.0996 70.86 45.6799C71.86 44.07 72.86 42.5299 73.86 41.0999C74.4 40.4499 74.86 39.8 75.24 39.29C75.3514 39.1269 75.4516 38.9565 75.54 38.7799L75.74 38.83L76.01 38.9H75.95H75.66C75.52 38.9 75.56 38.9 75.56 38.9C75.5655 38.8501 75.5655 38.7998 75.56 38.7499V38.5099V38.27C75.67 38.27 75.9 38.2699 76.06 38.1799C76.8491 38.1466 77.608 37.8668 78.23 37.38C78.207 37.4786 78.207 37.5813 78.23 37.6799C78.196 37.8651 78.196 38.0548 78.23 38.24C78.2577 38.4999 78.3182 38.7552 78.41 38.9999C78.4911 39.3117 78.5981 39.6161 78.73 39.9099C78.73 40.0299 78.73 40.02 78.73 40.02L78.53 40.11C78.055 40.3669 77.6033 40.6647 77.18 40.9999C76.67 41.38 76.18 41.8099 75.6 42.2599L75.48 42.1399Z" fill="currentColor"/>
</svg>
