<svg width="96" height="96" viewBox="0 0 96 96" fill="none" xmlns="http://www.w3.org/2000/svg">
<path d="M46.88 78.57C47.46 79.33 47 80.22 45.95 81.18C45.4282 81.5328 44.7925 81.6757 44.17 81.58C43.7143 81.2339 43.2864 80.8527 42.89 80.44C42.68 80.18 40.69 75.88 39.89 74.5C39.1607 73.1392 38.5194 71.7329 37.97 70.29C36.79 67.39 35.5 64.54 34.14 61.73C33.8515 61.1001 33.6141 60.448 33.43 59.78C32.7872 57.4771 31.8317 55.2732 30.59 53.23C30.4338 52.8522 30.178 52.5239 29.85 52.28C29.0241 51.2602 28.3006 50.1616 27.69 49C26.9855 47.8579 26.3478 46.6759 25.78 45.46C25.1 43.46 24.23 41.57 23.45 39.6C23.34 39.32 23.1 39.1 23.18 38.72C23.229 38.377 23.2045 38.0275 23.1079 37.6947C23.0114 37.3619 22.845 37.0535 22.62 36.79C22.169 36.0046 21.7649 35.1932 21.41 34.36C21.2895 33.8595 21.2424 33.3441 21.27 32.83C21.27 32.35 22.13 31.97 22.27 32.02C22.75 32.18 22.91 31.65 23.21 31.39C23.3086 31.2939 23.4157 31.2069 23.53 31.13C24.4092 31.6031 25.237 32.1661 26 32.81C26.9172 33.4738 27.783 34.2059 28.59 35L29.4 36C29.86 36.62 30.51 37.42 31.12 38.28L33.83 42.18C34.0794 42.5836 34.2586 43.0265 34.36 43.49C34.47 43.68 37.87 49 37.95 49.25C38.6503 50.3952 39.1097 51.6712 39.3 53C39.3311 53.2629 39.4274 53.5138 39.58 53.73C40.5429 55.7563 41.3518 57.8522 42 60C42.37 61.08 42.84 62.12 43.25 63.18C43.3029 63.3835 43.3397 63.5908 43.36 63.8C43.3963 64.0607 43.4531 64.3182 43.53 64.57C44.53 67.07 45.15 69.71 46.18 72.2C46.43 72.78 46.71 75.79 46.98 76.45C47.13 76.78 46.66 78.27 46.88 78.57Z" fill="currentColor"/>
<path d="M68.48 68.9C68.93 69.76 68.37 70.58 67.22 71.42C66.85 71.68 65.66 71.81 65.46 71.57C65.0675 71.1165 64.713 70.6315 64.4 70.12C64.0828 69.1341 63.8158 68.1329 63.6 67.12C63.28 65.6 62.88 63.89 62.72 63.02C62.3778 61.3375 62.1937 59.6267 62.17 57.91C62.0233 54.4166 62.0233 50.92 62.17 47.42C62.2188 46.6418 62.3325 45.8692 62.51 45.11C62.8 43.8 63.08 42.5 63.26 41.18C63.44 39.86 63.65 38.55 63.78 37.18C63.8752 36.7384 63.8752 36.2816 63.78 35.84C63.7981 34.3798 63.9861 32.9267 64.34 31.51C64.6063 30.0204 64.984 28.553 65.47 27.12C66.47 24.98 67.33 22.83 68.35 20.74C68.49 20.44 68.52 20.08 68.86 19.88C69.4661 19.4395 69.8895 18.7919 70.05 18.06C70.4181 17.1455 70.8665 16.2654 71.39 15.43C71.7233 15.013 72.1177 14.6489 72.56 14.35C72.94 14.04 73.7 14.59 73.73 14.76C73.84 15.27 74.36 15.1 74.73 15.2C74.8595 15.2234 74.9843 15.2673 75.1 15.33C75.1649 16.3314 75.1246 17.3369 74.98 18.33C74.9266 19.4358 74.8098 20.5376 74.63 21.63C74.63 21.63 74.46 22.16 74.27 22.91C74.08 23.66 73.82 24.65 73.56 25.66C73.3 26.67 73.1 27.73 72.91 28.57C72.72 29.41 72.63 30.06 72.6 30.28C72.4968 30.7398 72.3248 31.1814 72.09 31.59C72.03 31.69 71.79 33.3 71.54 34.9C71.29 36.5 71.15 38.11 71.11 38.23C71.0199 39.5245 70.7263 40.7968 70.24 42C70.1375 42.2404 70.0832 42.4986 70.08 42.76C69.88 44.97 69.48 47.17 69.22 49.39C69.11 50.53 69.08 51.67 69.07 52.81C69.0455 53.016 69.0053 53.22 68.95 53.42C68.8857 53.6756 68.8455 53.9368 68.83 54.2C68.7048 56.9274 68.7616 59.6601 69 62.38C69 63 68.76 66.03 68.88 66.75C69 67.15 68.31 68.56 68.48 68.9Z" fill="currentColor"/>
</svg>
