<svg width="96" height="96" viewBox="0 0 96 96" fill="none" xmlns="http://www.w3.org/2000/svg">
<path d="M55.72 73.91L64.72 72.72C64.72 72.72 77.33 51.45 78.13 50.72C79.58 49.42 66.45 74.88 66.45 74.88L53.17 76.2L55.72 73.91Z" fill="currentColor"/>
<path d="M28.2 66.04L32.34 72.24L65.56 18.23H58.32L28.2 66.04Z" fill="currentColor"/>
<path d="M43.63 76.26L54.29 75.26L76.35 37.67C76.17 37.97 71.67 29.38 71.67 29.38L43.63 76.26Z" fill="currentColor"/>
<path d="M65 24.34L63.55 21.77L63.19 21.16L63 20.87C62.9978 20.8467 62.9978 20.8233 63 20.8C62.9806 20.707 62.9433 20.6187 62.89 20.54C62.8348 20.4988 62.7742 20.4651 62.71 20.44H62.61C62.61 20.44 62.53 20.44 62.45 20.44H62.19C61.49 20.38 60.77 20.33 60.03 20.3C58.77 20.24 57.5 20.38 56.22 20.3C51.71 20.19 47.14 19.94 42.59 19.93C40.5853 19.9429 38.5826 20.0597 36.59 20.28C35.31 20.4 34.03 20.6 32.75 20.71C31.4439 20.7506 30.137 20.6567 28.85 20.43C28.03 20.27 28.06 19.29 28.65 18.16C29.307 16.8148 30.4619 15.7783 31.87 15.27C37.1437 14.5423 42.477 14.3447 47.79 14.68C51 14.89 54.32 14.55 57.62 14.59C58.8 14.59 59.99 14.63 61.19 14.71L62.1 14.78L63.1 14.86C63.5665 14.8772 64.0296 14.9476 64.48 15.07C64.9201 15.1684 65.3515 15.3022 65.77 15.47C66.5445 16.0701 67.1964 16.8137 67.69 17.66C68.06 18.24 68.38 18.78 68.69 19.34C69.83 21.28 70.88 23.23 71.97 25.15C73.62 28.06 75.18 31.03 76.97 33.83C78.34 36.01 79.97 37.97 81.49 39.99C81.83 40.43 82.21 40.83 82.49 41.3C82.7531 41.6445 82.9653 42.0251 83.12 42.43C83.2518 42.725 83.3101 43.0475 83.29 43.37C83.1502 43.9708 82.8691 44.5296 82.47 45C82.29 45.24 82.16 45.5 81.99 45.68C81.8229 45.8367 81.6186 45.9484 81.3964 46.0043C81.1743 46.0603 80.9415 46.0588 80.72 46C80.382 45.9545 80.0478 45.8843 79.72 45.79C79.3411 45.6732 78.9973 45.4635 78.72 45.18C77.0156 43.5196 75.4844 41.6902 74.15 39.72C72.77 37.72 71.5 35.72 70.26 33.67C68.42 30.61 66.7 27.47 64.9 24.44L65 24.34Z" fill="currentColor"/>
<path d="M24.25 34.19C23.47 35.42 22.68 36.66 21.92 37.92C21.65 38.38 21.5 38.92 21.21 39.35C20.21 40.94 18.98 42.47 17.95 44.08C17.5007 44.794 17.103 45.5392 16.76 46.31C16.2822 47.3212 15.6014 48.2233 14.76 48.96C14.46 49.18 13.98 48.82 13.55 48.23C13.0639 47.6752 12.7878 46.9674 12.77 46.23L13.13 44.65C13.3055 44.1493 13.523 43.6642 13.78 43.2C14.2717 42.2316 14.8472 41.3081 15.5 40.44C16.178 39.2857 16.7761 38.0862 17.29 36.85C18 35.56 18.75 34.28 19.49 32.99C19.94 32.2 20.41 31.41 20.85 30.61C21.49 29.38 22.31 28.23 22.97 27.01C23.47 26.01 23.78 25.01 24.28 24.01C24.3759 23.7832 24.4861 23.5628 24.61 23.35C24.6958 23.1938 24.8135 23.0574 24.9555 22.9497C25.0975 22.8419 25.2606 22.7653 25.4341 22.7248C25.6077 22.6842 25.7878 22.6806 25.9629 22.7143C26.1379 22.7479 26.3039 22.818 26.45 22.92C26.63 23.01 26.81 23.09 26.98 23.19C27.2332 23.3681 27.4349 23.6098 27.5648 23.8907C27.6947 24.1716 27.7482 24.4818 27.72 24.79C27.495 26.6939 27.0313 28.5619 26.34 30.35C26.2288 30.6904 26.0986 31.0242 25.95 31.35L25.42 32.3L24.35 34.21L24.25 34.19Z" fill="currentColor"/>
<path d="M25 58.7C25.83 60.18 26.66 61.7 27.53 63.11C27.84 63.64 28.27 64.11 28.53 64.61C29.62 66.49 30.67 68.4 31.85 70.21C32.3953 70.9819 32.9828 71.723 33.61 72.43L34.77 73.77C34.96 74 35.13 74.23 35.29 74.45C35.45 74.67 35.44 74.68 35.52 74.81C35.6 74.94 35.63 75.01 35.68 75.12C35.79 75.4 35.47 76.12 34.73 76.5C34.3408 76.7319 33.8994 76.8617 33.4466 76.8775C32.9938 76.8932 32.5444 76.7943 32.14 76.59C31.58 76.18 31.05 75.75 30.56 75.32C30.3084 75.1095 30.0681 74.8858 29.84 74.65L29.24 73.88C28.4713 72.8487 27.8016 71.7472 27.24 70.59C26.4253 69.2645 25.5092 68.0041 24.5 66.82C23.5 65.43 22.58 64.01 21.64 62.59L19.92 60C19.1123 58.6226 18.2345 57.2875 17.29 56C16.4853 55.0836 15.6307 54.2123 14.73 53.39C14.5352 53.2104 14.3578 53.0129 14.2 52.8C13.64 51.98 13.71 51.53 14.43 50.72C14.5828 50.5307 14.7464 50.3504 14.92 50.18C15.1922 49.9179 15.5419 49.751 15.9168 49.7041C16.2917 49.6573 16.6717 49.733 17 49.92C17.5286 50.1794 18.0338 50.4839 18.51 50.83C18.96 51.19 19.39 51.56 19.81 51.96C20.6263 52.7564 21.3975 53.5977 22.12 54.48C22.66 55.13 23.18 55.81 23.69 56.48C24.2 57.15 24.61 57.91 25.09 58.61L25 58.7Z" fill="currentColor"/>
<path d="M72.84 69.34L70.63 73.15L70.05 74.15L69.76 74.64L69.6 74.89L69.34 75.27C69.0211 75.7878 68.6527 76.2734 68.24 76.72C67.7774 77.1422 67.2058 77.4263 66.59 77.54C66.3667 77.602 66.1396 77.6488 65.91 77.68L65.27 77.79L64.43 77.92C63.8904 78.0123 63.3463 78.0758 62.8 78.11C58.98 78.29 55.25 78.35 51.5 78.45C49.83 78.45 48.17 78.61 46.5 78.78C45.4558 78.9316 44.4043 79.0284 43.35 79.07C42.2819 79.0896 41.2136 79.0495 40.15 78.95C39.48 78.87 39.49 78.34 39.95 77.62C40.5698 76.6555 41.4652 75.8994 42.52 75.45C43.0388 75.247 43.5699 75.0767 44.11 74.94L45.73 74.64C46.8 74.44 47.88 74.28 48.96 74.14C50.0375 73.9851 51.1223 73.885 52.21 73.84C53.3 73.84 54.4 73.84 55.5 73.92C58.1402 73.9074 60.7764 73.7136 63.39 73.34L64.39 73.23H64.87C65.18 73.23 65.28 72.93 65.52 72.65C66.25 71.49 67.02 70.21 67.75 68.96C68.65 67.4 69.56 65.84 70.44 64.26C71.78 61.87 73.18 59.49 74.44 57.07C75.44 55.18 76.15 53.21 77.09 51.28C77.3 50.85 77.49 50.41 77.73 49.99C77.9154 49.6328 78.1402 49.2974 78.4 48.99C78.6185 48.7979 78.8689 48.6456 79.14 48.54C79.3712 48.4432 79.6193 48.3933 79.87 48.3933C80.1206 48.3933 80.3688 48.4432 80.6 48.54C80.8108 48.6122 81.0149 48.7025 81.21 48.81C81.3536 48.923 81.4715 49.0653 81.556 49.2274C81.6405 49.3894 81.6896 49.5676 81.7 49.75C81.7392 49.9714 81.7626 50.1953 81.77 50.42C81.7892 50.7147 81.769 51.0107 81.71 51.3C81.08 52.93 80.35 54.66 79.55 56.4C78.75 58.14 77.88 59.88 76.99 61.62C75.67 64.22 74.26 66.79 72.89 69.4L72.84 69.34Z" fill="currentColor"/>
<path d="M41.82 31.34L35.13 40.91C34.33 42.08 33.65 43.33 32.83 44.49C29.9434 48.5834 27 52.65 24 56.69C22.69 58.49 21.5 60.38 20.32 62.25C19.56 63.45 18.87 64.68 18.07 65.87C17.2239 67.04 16.2624 68.1221 15.2 69.1C14.52 69.72 13.98 69.1 13.69 68.02C13.5321 67.365 13.4515 66.6938 13.45 66.02C13.4402 65.2218 13.5898 64.4297 13.89 63.69C16.7587 58.6804 19.9661 53.8725 23.49 49.3C25.7 46.58 27.49 43.4 29.42 40.44L36 30.69L40 24.69L43 20.12C44 18.61 45 17.12 46 15.56C46.75 14.36 47.44 13.14 48.11 11.92L49.11 10.08C49.46 9.48001 49.85 8.89001 50.22 8.31001C50.59 7.73001 50.85 7.31001 51.22 6.76001C51.6784 6.05454 52.2572 5.43512 52.93 4.93001C53.3767 4.65038 53.9102 4.54369 54.43 4.63001C54.6492 4.64484 54.8666 4.6783 55.08 4.73001C55.4 4.85001 55.51 5.18001 55.52 5.73001C55.5397 6.41633 55.4101 7.09874 55.14 7.73001C54.2969 10.147 53.2947 12.5055 52.14 14.79C51 17 49.7 19.29 48.37 21.55C46.37 24.9 44.08 28.11 41.93 31.4L41.82 31.34Z" fill="currentColor"/>
<path d="M47.45 40.85L40.81 50.69C40.01 51.89 39.34 53.17 38.52 54.37C35.64 58.56 32.73 62.75 29.76 66.89C28.47 68.74 27.27 70.67 26.11 72.59C25.35 73.82 24.65 75.08 23.85 76.3C22.9899 77.5014 22.0117 78.6136 20.93 79.62C20.24 80.26 19.7 79.68 19.42 78.54C19.2578 77.8858 19.1772 77.214 19.18 76.54C19.1617 75.7291 19.3079 74.9228 19.61 74.17C22.4632 69.0483 25.6571 64.1239 29.17 59.43C31.37 56.63 33.09 53.37 35.06 50.34L41.61 40.34L45.61 34.17L48.61 29.48C49.61 27.93 50.61 26.37 51.61 24.79C52.34 23.55 53 22.3 53.66 21L54.66 19.12C55 18.5 55.37 17.9 55.74 17.29C56.11 16.68 56.36 16.22 56.74 15.7C57.1749 14.9752 57.7333 14.3322 58.39 13.8C58.8241 13.5135 59.3414 13.3798 59.86 13.42C60.0832 13.4089 60.3068 13.4089 60.53 13.42C60.86 13.51 61 13.82 61.04 14.34C61.0645 15.0229 60.9488 15.7036 60.7 16.34C59.8934 18.8332 58.9109 21.2659 57.76 23.62C56.57 25.98 55.29 28.33 53.97 30.62C51.97 34.05 49.73 37.37 47.6 40.74L47.45 40.85Z" fill="currentColor"/>
<path d="M53.92 43.71L46.68 55C45.81 56.38 45.07 57.83 44.19 59.21C41.07 64.04 37.93 68.87 34.73 73.67C33.33 75.81 32.03 78.03 30.73 80.22C29.91 81.64 29.14 83.08 28.28 84.48C27.3493 85.8682 26.2878 87.1642 25.11 88.35C24.32 89.11 23.82 88.49 23.58 87.29C23.2634 85.6858 23.4091 84.0247 24 82.5C27.1287 76.6397 30.5911 70.9637 34.37 65.5C36.74 62.25 38.63 58.5 40.77 55.04L47.9 43.57C49.38 41.22 50.9 38.86 52.32 36.51L55.67 31.16C56.8 29.38 57.93 27.61 59.01 25.82C59.86 24.43 60.63 23.02 61.41 21.61C62.15 20.1723 62.9748 18.7798 63.88 17.44C64.27 16.84 64.64 16.24 65.08 15.66C65.4201 15.1985 65.7874 14.7577 66.18 14.34C66.4531 14.0361 66.7659 13.7704 67.11 13.55C67.3749 13.3973 67.6615 13.2861 67.96 13.22C68.2277 13.1701 68.5023 13.1701 68.77 13.22C68.9983 13.2442 69.2232 13.2945 69.44 13.37C69.74 13.52 69.79 13.89 69.73 14.37C69.6888 14.6841 69.6253 14.9949 69.54 15.3C69.4205 15.7011 69.2701 16.0923 69.09 16.47C67.88 19 66.88 21.81 65.42 24.37C63.96 26.93 62.57 29.61 61.09 32.24C58.84 36.12 56.37 39.9 54.03 43.75L53.92 43.71Z" fill="currentColor"/>
<path d="M63.34 49.68L56.34 60.31C55.5 61.6 54.79 62.98 53.94 64.31C50.92 68.8433 47.8567 73.3567 44.75 77.85C43.39 79.85 42.13 81.93 40.9 83.99C40.1 85.31 39.36 86.67 38.52 87.99C37.6142 89.2855 36.5862 90.491 35.45 91.59C34.72 92.29 34.19 91.7 33.93 90.52C33.7831 89.8233 33.7193 89.1117 33.74 88.4C33.7416 87.5452 33.9115 86.6991 34.24 85.91C37.2751 80.4077 40.6413 75.0946 44.32 70C46.62 67 48.45 63.47 50.52 60.19L57.41 49.41L61.63 42.77L64.81 37.71C65.87 36 67 34.32 68 32.62C68.78 31.3 69.5 29.96 70.2 28.62L71.26 26.62C71.63 25.96 72.03 25.32 72.43 24.67C72.83 24.02 73.08 23.52 73.48 22.96C73.963 22.1852 74.5674 21.493 75.27 20.91C75.7206 20.5835 76.2771 20.4372 76.83 20.5C77.0518 20.5008 77.273 20.5243 77.49 20.57C77.81 20.68 77.92 21.02 77.92 21.57C77.91 22.2876 77.7641 22.9968 77.49 23.66C76.5661 26.2914 75.4875 28.8658 74.26 31.37C72.99 33.88 71.62 36.37 70.26 38.89C68.14 42.58 65.78 46.15 63.54 49.79L63.34 49.68Z" fill="currentColor"/>
<path d="M70.64 53.87L64.64 63.01C63.92 64.13 63.33 65.32 62.64 66.43C60.04 70.3367 57.3967 74.2167 54.71 78.07C53.52 79.79 52.46 81.59 51.4 83.37C50.71 84.51 50.1 85.69 49.4 86.82C48.6119 87.9426 47.6995 88.9724 46.68 89.89C46.03 90.47 45.49 89.89 45.17 88.8C44.9824 88.1762 44.8749 87.531 44.85 86.88C44.7979 86.129 44.907 85.3754 45.17 84.67C47.693 79.9211 50.5433 75.3535 53.7 71C55.7 68.41 57.23 65.37 59 62.55L64.9 53.26L68.51 47.53L71.23 43.17C72.14 41.72 73.06 40.28 73.91 38.81C74.57 37.67 75.17 36.51 75.76 35.34L76.64 33.58C76.95 33.01 77.29 32.45 77.64 31.89C77.99 31.33 78.2 30.89 78.55 30.41C78.9665 29.7328 79.5058 29.1394 80.14 28.66C80.5803 28.3928 81.1035 28.2967 81.61 28.39C81.8231 28.4118 82.0339 28.4519 82.24 28.51C82.55 28.63 82.67 28.95 82.71 29.44C82.7552 30.069 82.663 30.7002 82.44 31.29C81.7282 33.5823 80.8629 35.824 79.85 38C78.79 40.18 77.65 42.36 76.48 44.52C74.69 47.71 72.66 50.78 70.75 53.92L70.64 53.87Z" fill="currentColor"/>
</svg>
