<svg width="96" height="96" viewBox="0 0 96 96" fill="none" xmlns="http://www.w3.org/2000/svg">
<path d="M40.44 49.13C40.44 49.13 45.62 50.71 46.3 53.59C46.94 56.28 42.1 57.52 42.1 57.52C42.1 57.52 50.5 58.44 50.61 55.18C50.72 51.92 47.67 48.69 45.47 48.85C43.27 49.01 40.44 49.13 40.44 49.13Z" fill="currentColor"/>
<path d="M41.32 50.93C39.5688 50.6396 37.7773 50.7008 36.05 51.11C34.4155 51.4836 32.8977 52.2527 31.63 53.35L31.33 53.65L31.2 53.8C31.2 53.8 31.2 53.85 31.2 53.88C31.1203 54.0169 31.0533 54.1608 31 54.31C30.8533 54.8154 30.7398 55.3298 30.66 55.85C30.307 58.2843 30.2533 60.7527 30.5 63.2C30.7259 65.8226 31.1201 68.4279 31.68 71C32.1826 73.2987 32.851 75.5579 33.68 77.76C34.2 79.16 34.82 80.53 35.41 81.88L35.85 82.88L36.2 84C36.41 84.71 36.63 85.41 36.87 86.1C37.15 86.95 36.57 87.31 35.38 87.1C34.6408 86.9353 33.9321 86.6552 33.28 86.27C32.88 86.0493 32.5017 85.7915 32.15 85.5C31.96 85.35 31.81 85.18 31.62 85.03C31.485 84.8374 31.3615 84.6371 31.25 84.43C29.7624 81.5205 28.5343 78.4854 27.58 75.36C26.6462 72.2215 26.0429 68.9939 25.78 65.73C25.62 63.73 25.38 61.73 25.26 59.68C25.1998 58.6109 25.1998 57.5392 25.26 56.47C25.3544 55.286 25.6032 54.1195 26 53C26.2754 52.283 26.6526 51.6095 27.12 51L27.53 50.51L27.89 50.17C28.1223 49.9437 28.3695 49.7332 28.63 49.54C29.6178 48.7638 30.7081 48.1278 31.87 47.65C34.0801 46.7691 36.4312 46.2948 38.81 46.25C41.7007 46.1454 44.5734 46.746 47.18 48C48.4148 48.5541 49.5069 49.3825 50.3733 50.4222C51.2397 51.4619 51.8576 52.6856 52.18 54C52.2347 54.297 52.2648 54.598 52.27 54.9C52.27 55.2 52.21 55.5 52.19 55.8C52.17 56.1 51.96 56.36 51.83 56.63L51.31 57.36L50.65 57.98C50.4169 58.1659 50.1695 58.3331 49.91 58.48C49.4805 58.7275 49.0325 58.9415 48.57 59.12C47.0069 59.6742 45.3749 60.0107 43.72 60.12C42.92 60.22 42.14 60.19 41.34 60.22C40.54 60.25 39.75 60.22 38.97 60.11C38.19 60 37.6 60.03 36.97 59.9C36.34 59.77 35.81 59.67 35.38 59.55C35.0273 59.4295 34.6913 59.2648 34.38 59.06C33.931 58.7787 33.603 58.3402 33.46 57.83C33.3749 57.6229 33.308 57.4087 33.26 57.19C33.18 56.55 34.33 56.19 36.11 56.19C38.6851 56.4152 41.2749 56.4152 43.85 56.19C44.9891 56.0938 46.1096 55.8415 47.18 55.44C47.4 55.34 47.58 55.23 47.78 55.14C47.98 55.05 47.91 55.05 47.92 55.04C47.83 55.04 47.92 55.11 47.92 55.04C47.8905 54.9779 47.8571 54.9178 47.82 54.86C47.7558 54.7496 47.6857 54.6428 47.61 54.54C47.43 54.34 47.31 54.1 47.13 53.89C46.7255 53.4029 46.2421 52.9871 45.7 52.66C44.3757 51.7921 42.8772 51.2255 41.31 51L41.32 50.93Z" fill="currentColor"/>
<path d="M38.5 17.52C38.62 16.99 38.74 16.47 38.88 15.94L39.02 15.39C39.0579 15.1534 39.1114 14.9196 39.18 14.69L39.59 13.3C39.83 12.36 40.23 11.53 40.53 10.66L41.14 9.57001L41.44 9.03001L41.77 8.60002C42.4511 7.56781 43.4167 6.75504 44.55 6.26002C45.0861 6.01521 45.662 5.86953 46.25 5.83002C46.5878 5.8099 46.9265 5.85054 47.25 5.95002C47.5332 6.04638 47.8049 6.17382 48.06 6.33002C48.7234 6.77196 49.2941 7.33925 49.74 8.00002C50.2933 8.87335 50.6862 9.83851 50.9 10.85C51.1397 11.9339 51.3034 13.0333 51.39 14.14C51.39 14.71 51.47 15.28 51.49 15.85C51.51 16.42 51.49 17.06 51.49 17.31C51.49 18.67 51.49 20.02 51.38 21.37C51.24 24.05 51.04 26.71 50.67 29.37C50.4 31.72 50.12 34.08 49.85 36.37C49.619 39.425 48.8576 42.4164 47.6 45.21C47.15 46.08 46.6 45.73 46.18 44.8C45.5698 43.5125 45.2555 42.1048 45.26 40.68C45.31 39.95 45.26 39.21 45.36 38.48L45.53 36.29L45.81 31.87C45.9 30.4 45.99 28.87 46.07 27.44C46.15 26.01 46.36 24.44 46.5 23C46.6717 21.2048 46.6884 19.3981 46.55 17.6L46.54 17V16.55L46.42 15.61C46.3619 15.1984 46.2189 14.8034 46 14.45C45.9491 14.3678 45.8726 14.3047 45.7822 14.2703C45.6918 14.236 45.5926 14.2324 45.5 14.26C45.3384 14.3159 45.1938 14.4123 45.08 14.54C44.5879 15.1526 44.221 15.856 44 16.61C43.9424 16.7472 43.8924 16.8874 43.85 17.03L43.58 17.89C43.41 18.48 43.23 19.06 43.08 19.66C42.75 20.85 42.49 22.07 42.27 23.29C41.5676 26.9931 41.1431 30.7436 41 34.51C40.974 37.381 41.1712 40.2496 41.59 43.09C41.67 43.71 41.81 44.3 41.88 44.92C41.9515 45.7462 41.9009 46.5785 41.73 47.39C41.565 47.8869 41.2677 48.3295 40.87 48.67C40.7104 48.8345 40.54 48.9882 40.36 49.13C40.07 49.32 39.75 49.2 39.36 48.82C38.765 48.2971 38.2995 47.6433 38 46.91C37.4905 45.6063 37.1543 44.2413 37 42.85C36.8 41.47 36.64 40.06 36.56 38.66C36.4067 35.8278 36.4334 32.9888 36.64 30.16C36.7933 28.0533 37.0233 25.9467 37.33 23.84C37.49 22.78 37.67 21.73 37.86 20.68C38.05 19.63 38.21 18.56 38.42 17.5L38.5 17.52Z" fill="currentColor"/>
<path d="M64.2 23.08C64.45 22.24 64.67 21.39 64.86 20.56C65.05 19.73 65.27 18.93 65.4 18.14V17.85V17.67C65.4044 17.6235 65.4044 17.5766 65.4 17.53C65.4108 17.4303 65.4108 17.3297 65.4 17.23C65.4103 16.9948 65.3512 16.7618 65.23 16.56C65.1929 16.4824 65.1286 16.4212 65.0493 16.388C64.97 16.3548 64.8813 16.352 64.8 16.38C64.6655 16.4696 64.5384 16.5699 64.42 16.68C64.3069 16.7694 64.2031 16.8699 64.11 16.98C64.0431 17.0438 63.9828 17.1141 63.93 17.19L63.87 17.26L63.77 17.44L63.55 17.81C62.98 18.81 62.47 19.81 61.89 20.88C60.77 22.96 59.74 25.13 58.8 27.34C57.97 29.34 57.34 31.34 56.66 33.34C56.25 34.63 55.9 35.94 55.52 37.23L54.94 39.15C54.77 39.77 54.41 40.38 54.22 40.94C54.09 41.28 53.9 41.31 53.64 41.38C53.38 41.45 53.01 41.31 52.64 40.87C52.1936 40.3262 51.8297 39.7197 51.56 39.07C51.2762 38.3107 51.1902 37.4917 51.31 36.69C51.53 35.23 51.81 33.8 52.13 32.39C52.4136 30.9724 52.815 29.5809 53.33 28.23C54.3367 25.5063 55.5468 22.8622 56.95 20.32C57.38 19.56 57.79 18.77 58.19 17.98L59.53 15.6L60 15C60.18 14.71 60.35 14.42 60.56 14.12C60.96 13.52 61.38 12.96 61.8 12.42C62.5376 11.4536 63.5222 10.7039 64.65 10.25C65.2479 10.0347 65.9021 10.0347 66.5 10.25C66.79 10.4 67.08 10.54 67.37 10.7L68.15 11.25C69.0939 12.2317 69.7361 13.4639 70 14.8C70.1577 15.5228 70.2382 16.2603 70.24 17C70.2678 17.3328 70.2678 17.6673 70.24 18C70.24 18.27 70.24 18.55 70.18 18.8C70.0811 19.8122 69.9039 20.8152 69.65 21.8C69.0175 24.1519 68.2325 26.4601 67.3 28.71C65.95 32.09 64.3 35.32 62.74 38.52C61.51 41.01 60.43 43.52 59.14 45.98C58.85 46.52 58.59 47.07 58.26 47.6C57.8796 48.342 57.3359 48.9882 56.67 49.49C56.1822 49.7269 55.6272 49.787 55.1 49.66C54.8666 49.6318 54.6359 49.585 54.41 49.52C54.08 49.39 53.94 49.06 53.91 48.52C53.8504 47.8568 53.9823 47.1905 54.29 46.6L57.37 40.06C58.37 37.82 59.37 35.54 60.37 33.25C61.8262 29.9031 63.0556 26.462 64.05 22.95L64.2 23.08Z" fill="currentColor"/>
<path d="M59.12 69C57.13 71.5318 54.9396 73.8994 52.57 76.08C51.7309 76.9368 50.8283 77.729 49.87 78.45C48.9595 79.1182 47.9766 79.6817 46.94 80.13C46.3601 80.3809 45.7525 80.5621 45.13 80.67C44.391 80.8073 43.6299 80.7662 42.91 80.55L42.34 80.35C42.17 80.26 42 80.15 41.84 80.05C41.5062 79.8396 41.209 79.5761 40.96 79.27C40.7141 78.9646 40.509 78.6284 40.35 78.27C40.2249 77.9447 40.1246 77.6104 40.05 77.27C39.8745 76.0728 40.0088 74.8506 40.44 73.72C41.0618 71.9664 41.9233 70.3073 43 68.79C44.2692 66.8686 45.8952 65.2086 47.79 63.9C48.39 63.5 48.69 63.99 48.68 64.83C48.6469 65.9062 48.2993 66.9492 47.68 67.83C47.34 68.25 47.06 68.7 46.75 69.13C46.59 69.35 46.45 69.57 46.32 69.79L45.86 70.42C45.3038 71.2442 44.806 72.1063 44.37 73C43.9381 73.7853 43.628 74.6316 43.45 75.51C43.3815 75.8387 43.3546 76.1746 43.37 76.51C43.42 76.73 43.42 76.92 43.51 77.02C43.6 77.12 43.56 77.09 43.6 77.13C43.6123 77.1518 43.6296 77.1704 43.6505 77.1843C43.6713 77.1982 43.6951 77.207 43.72 77.21C43.72 77.21 43.78 77.27 43.85 77.27C43.9163 77.2597 43.9837 77.2597 44.05 77.27C44.5093 77.2158 44.9522 77.0659 45.35 76.83C46.4044 76.2038 47.3811 75.4553 48.26 74.6C50.3989 72.6068 52.3227 70.3947 54 68C55.0682 66.5179 56.0498 64.9753 56.94 63.38C57.6 62.18 58.26 60.97 58.79 59.73C58.93 59.42 59.04 59.1 59.16 58.79C59.22 58.64 59.28 58.48 59.33 58.32L59.45 57.95C59.5804 57.5676 59.6676 57.1718 59.71 56.77C59.7814 56.4934 59.7605 56.2011 59.6503 55.9375C59.5402 55.6739 59.347 55.4536 59.1 55.31C58.6 55.04 57.96 55.42 57.6 55.7C57.42 55.84 57.27 56.03 57.14 56.13C57.0449 56.2157 56.9266 56.2713 56.8 56.29C56.8 56.29 56.54 56.29 56.42 56.29C56.2737 56.305 56.1263 56.305 55.98 56.29C55.7006 56.2631 55.4308 56.1743 55.19 56.03C54.918 55.8285 54.6727 55.5933 54.46 55.33C54.2625 55.112 54.0882 54.8741 53.94 54.62C53.7656 54.1788 53.7038 53.7011 53.76 53.23C53.7578 52.9552 53.8123 52.6829 53.92 52.43C53.9769 52.2984 54.0437 52.1714 54.12 52.05L54.24 51.86L54.31 51.76C54.31 51.67 54.31 51.67 54.31 51.66L54.39 51.58C55.0679 51.0114 55.7792 50.4838 56.52 50C57.2303 49.5443 58.0212 49.2287 58.85 49.07C59.2305 49.0124 59.6153 48.9889 60 49H60.58L61.13 49.12C61.8955 49.3107 62.616 49.6505 63.25 50.12L64.1 51.12C64.3683 51.4465 64.5934 51.8061 64.77 52.19C64.94 52.58 65.04 53.01 65.19 53.43C65.34 53.85 65.31 54.35 65.37 54.81C65.43 55.27 65.37 55.81 65.32 56.3C65.2546 56.8112 65.1476 57.3162 65 57.81C64.894 58.3363 64.7503 58.8543 64.57 59.36L64.37 59.96C64.32 60.11 64.27 60.26 64.21 60.4C62.9496 63.5029 61.267 66.417 59.21 69.06L59.12 69Z" fill="currentColor"/>
<path d="M64.2 72.46C62.7775 74.3161 61.2306 76.0735 59.57 77.72C58.94 78.3 58.39 78.94 57.71 79.47C56.5092 80.4132 55.2352 81.2592 53.9 82C53.2053 82.3855 52.4834 82.7197 51.74 83C50.9516 83.3167 50.1178 83.5057 49.27 83.56C48.4312 83.591 47.5993 83.3977 46.86 83C46.4378 82.7992 46.0659 82.5063 45.7717 82.1429C45.4776 81.7795 45.2685 81.3548 45.16 80.9C45.0596 80.2922 45.1324 79.6684 45.37 79.1C45.5644 78.6253 45.8459 78.1912 46.2 77.82C46.7704 77.1737 47.4467 76.6292 48.2 76.21C48.67 75.97 48.9 76.35 48.94 77.02C48.9884 77.82 48.8797 78.6218 48.62 79.38C48.5038 79.6362 48.4166 79.9045 48.36 80.18C48.36 80.28 48.36 80.18 48.36 80.24C48.36 80.24 48.3 80.24 48.52 80.36C48.8515 80.545 49.2393 80.602 49.61 80.52C49.9085 80.4858 50.2011 80.4118 50.48 80.3C50.78 80.14 51.09 80.03 51.4 79.84C52.9537 78.8276 54.3093 77.5398 55.4 76.04C56.73 74.43 58.17 72.87 59.4 71.12C60.167 70.0655 60.8715 68.9669 61.51 67.83C62.5075 66.2059 63.2211 64.4238 63.62 62.56C63.74 61.9777 63.6735 61.3724 63.43 60.83C63.4013 60.7443 63.345 60.6705 63.27 60.62C63.2487 60.603 63.2223 60.5937 63.195 60.5937C63.1677 60.5937 63.1413 60.603 63.12 60.62L63.34 60.44L63.46 60.35C63.53 60.35 63.62 60.19 63.66 60.16C63.702 60.1178 63.7389 60.0708 63.77 60.02C63.87 59.88 63.77 59.91 63.77 60.2C63.7496 60.3962 63.7496 60.5939 63.77 60.79C63.77 60.92 63.77 61.05 63.77 61.18V61.25L63.55 61.3C63.1306 61.4111 62.6894 61.4111 62.27 61.3C61.835 61.0931 61.4675 60.7672 61.21 60.36C61.05 60.14 60.88 59.94 60.75 59.73C60.5468 59.3723 60.4793 58.9534 60.56 58.55C60.6262 58.0548 60.8467 57.593 61.19 57.23C61.5103 56.8454 61.8841 56.5086 62.3 56.23C62.7201 55.9565 63.1975 55.7836 63.6953 55.7246C64.193 55.6656 64.6977 55.7222 65.17 55.89C65.8276 56.0793 66.4308 56.422 66.93 56.89C67.0433 56.99 67.1433 57.09 67.23 57.19C67.32 57.29 67.38 57.37 67.45 57.46L67.84 58.02C68.0565 58.3718 68.231 58.7477 68.36 59.14C68.4895 59.4622 68.5833 59.7975 68.64 60.14C68.8299 61.2539 68.8096 62.3936 68.58 63.5C68.4104 64.4009 68.1594 65.2845 67.83 66.14C66.8855 68.4082 65.67 70.5538 64.21 72.53L64.2 72.46Z" fill="currentColor"/>
</svg>
