<svg width="96" height="96" viewBox="0 0 96 96" fill="none" xmlns="http://www.w3.org/2000/svg">
<path d="M9.38 47.63C9.56 47.9 16.17 55.3 16.17 55.3H19.75L10.36 45.3L9.38 47.63Z" fill="currentColor"/>
<path d="M12.62 45C13.3396 45.5286 14.0244 46.1032 14.67 46.72L14.9 46.94L15.03 47.07L15.29 47.34L15.81 47.86L17.88 50.06C18.7553 50.8645 19.5865 51.7158 20.37 52.61C20.8413 53.1826 21.2409 53.8106 21.56 54.48C21.6554 54.7335 21.7127 54.9997 21.73 55.27L21.83 55.97C21.83 56.04 21.83 56.11 21.83 56.2C21.83 56.29 21.73 56.4 21.67 56.48C21.577 56.6266 21.4585 56.7553 21.32 56.86C21.0608 57.027 20.7821 57.1613 20.49 57.26C19.6669 57.5422 18.7998 57.6743 17.93 57.65L16.55 57.56C16.1 57.56 15.63 57.45 15.21 57.46H14.58H14.07C13.83 57.46 13.58 57.46 13.35 57.53C12.2377 57.6658 11.1598 58.0048 10.17 58.53C9.89 58.69 9.42 58.44 9.17 57.75C9.04004 57.3332 9.04004 56.8868 9.17 56.47C9.32698 55.9535 9.65492 55.5056 10.1 55.2C10.8545 54.695 11.695 54.3324 12.58 54.13C12.99 54.04 13.39 53.98 13.79 53.93H13.94C14.3153 54.171 14.7383 54.328 15.18 54.39C15.2955 54.4137 15.4145 54.4137 15.53 54.39C15.64 54.39 15.69 54.32 15.66 54.28C15.66 54.02 15.15 53.7 14.94 53.39L14.74 53L13.74 52L11.91 50.15C11.5245 49.7006 11.0726 49.3128 10.57 49C10.42 48.92 10.41 49.09 10.38 49.17L10.29 49.46C10.237 49.6545 10.1702 49.845 10.09 50.03C10.14 50.25 10.09 50.3 10.09 50.45L10.02 50.83C9.98365 50.9641 9.96021 51.1014 9.95 51.24L9.81 51.92C9.53 53.28 9.34 54.65 8.98 56.06C8.90617 56.3702 8.80923 56.6743 8.69 56.97C8.55295 57.3816 8.31586 57.7527 8 58.05C7.75813 58.2087 7.465 58.2694 7.18 58.22C7.0524 58.2065 6.92557 58.1864 6.8 58.16C6.44 58.04 6.31 57.43 6.47 56.71C6.74582 55.6062 6.90668 54.4769 6.95 53.34C6.95 52.72 6.95 52.11 6.95 51.49V51C6.93045 50.7838 6.93045 50.5662 6.95 50.35V48.27V47.21V46.16L7.05 46.27L7.43 45.27C7.45725 45.1844 7.49067 45.1008 7.53 45.02L7.67 44.9L8 44.61L8.28 44.38L8.54 44.26L8.8 44.14C8.9037 44.0727 9.01899 44.0253 9.14 44C9.68659 43.8503 10.2634 43.8503 10.81 44C11.1202 44.0789 11.4192 44.1965 11.7 44.35C12.0228 44.4794 12.3368 44.6297 12.64 44.8L12.62 45Z" fill="currentColor"/>
<path d="M77.05 57.12C77.18 57.26 77.36 57.48 77.42 57.56L77.64 57.85L78.07 58.44L79.16 60C80.0612 61.2111 80.848 62.5033 81.51 63.86C81.9173 64.5942 82.1692 65.4043 82.25 66.24C82.2826 66.8277 82.1323 67.4111 81.82 67.91C81.6347 68.1029 81.3932 68.2324 81.13 68.28C80.8944 68.3383 80.6527 68.3685 80.41 68.37C79.741 68.42 79.0683 68.3796 78.41 68.25C77.4368 67.9974 76.4868 67.6629 75.57 67.25C74.8149 66.9135 74.0402 66.623 73.25 66.38C72.793 66.2646 72.3286 66.1811 71.86 66.13C70.8427 65.9829 69.8063 66.0372 68.81 66.29C68.55 66.37 68.08 66.09 67.95 65.38C67.8963 64.9384 67.9913 64.4915 68.22 64.11C68.4936 63.6491 68.9173 63.296 69.42 63.11C69.8538 62.9648 70.2986 62.8544 70.75 62.78C71.1642 62.6949 71.5883 62.668 72.01 62.7C72.4047 62.709 72.7985 62.739 73.19 62.79L73.75 62.87H74.03C74.1 62.87 74.03 62.87 74.09 62.87C74.3374 63.1759 74.6391 63.4335 74.98 63.63C75.38 63.88 75.75 64.1 75.98 64.02C75.98 63.77 75.79 63.51 75.75 63.31C75.6584 63.0473 75.5516 62.7902 75.43 62.54C75.3564 62.3784 75.2729 62.2214 75.18 62.07L75.19 62L75 61.73L74.6 61.2L74.11 60.57L73.85 60.2C73.6744 59.9616 73.484 59.7345 73.28 59.52C73.1589 59.3841 73.0249 59.2602 72.88 59.15C72.8141 59.0898 72.7355 59.0454 72.65 59.02C72.55 59.02 72.54 59.12 72.51 59.18C72.3574 59.4977 72.2464 59.8338 72.18 60.18C72.1058 60.4019 72.0489 60.6293 72.01 60.86C71.9958 60.9545 71.9758 61.048 71.95 61.14C71.95 61.14 71.95 61.22 71.95 61.29L71.88 61.54C71.79 61.87 71.69 62.2 71.57 62.54C71.3459 63.2367 71.0475 63.9072 70.68 64.54C70.5303 64.8204 70.3527 65.0851 70.15 65.33C69.8905 65.6753 69.546 65.9475 69.15 66.12C68.8769 66.1878 68.5884 66.1522 68.34 66.02C68.2196 65.9714 68.1027 65.9146 67.99 65.85C67.9092 65.7812 67.8482 65.6921 67.813 65.592C67.7779 65.4919 67.7699 65.3842 67.79 65.28C67.8096 64.9666 67.9094 64.6636 68.08 64.4C68.583 63.6155 68.9452 62.7491 69.15 61.84C69.15 61.61 69.15 61.36 69.15 61.12C69.1856 60.7425 69.2491 60.3681 69.34 60C69.41 59.41 69.43 58.78 69.51 58.12L69.62 57.12L69.73 56C69.8649 55.7449 70.0293 55.5066 70.22 55.29C70.3174 55.1498 70.4279 55.0192 70.55 54.9L70.88 54.68C71.0617 54.5391 71.2742 54.4432 71.5 54.4C71.6017 54.3675 71.7052 54.3408 71.81 54.32C71.95 54.32 72.16 54.32 72.31 54.26C72.6263 54.2427 72.9428 54.2903 73.24 54.4C73.5893 54.4845 73.9257 54.6157 74.24 54.79C74.56 55 74.88 55.2 75.24 55.4C75.9992 55.8187 76.6768 56.3708 77.24 57.03L77.05 57.12Z" fill="currentColor"/>
<path d="M56.68 33.53C56.68 33.53 55 39.16 55.89 41.73C56.78 44.3 51.45 43.21 51.45 43.21V30.12L56.68 33.53Z" fill="currentColor"/>
<path d="M54.7 34.51L54.63 34.57C54.63 34.63 54.63 34.51 54.55 34.87L54.35 36.44C54.23 37.49 54.13 38.55 54.06 39.61V40C54.0797 40.099 54.0797 40.201 54.06 40.3C53.9713 40.5743 53.9307 40.8619 53.94 41.15C54.16 41.31 54.43 41.21 54.77 41.15C55.3556 40.9728 55.9272 40.7522 56.48 40.49C57.65 39.99 58.79 39.4 59.98 38.87C60.7482 38.4824 61.5609 38.1902 62.4 38C63.3057 37.7706 64.2543 37.7706 65.16 38C65.77 38.21 65.49 38.77 65.06 39.38C64.6743 40.0755 64.1542 40.6873 63.53 41.18C63.24 41.33 62.94 41.5 62.64 41.68C62.5 41.77 62.34 41.86 62.19 41.97L61.72 42.21L59.72 43.28C59.06 43.65 58.37 44.03 57.66 44.4L56.75 44.89C56.4298 45.1141 56.0958 45.3179 55.75 45.5C55.1147 45.8367 54.4439 46.1017 53.75 46.29C53.1709 46.4493 52.5697 46.5134 51.97 46.48H51.58L51.23 46.39C50.9612 46.3293 50.6971 46.2491 50.44 46.15C50.2295 45.9128 50.0388 45.6586 49.87 45.39C49.6665 45.1176 49.5172 44.8087 49.43 44.48C49.2507 43.6663 49.1801 42.8323 49.22 42V39.94V39.46L49.32 37.78C49.4 36.66 49.5 35.54 49.63 34.42C49.6775 33.4066 49.8317 32.4011 50.09 31.42C50.2681 30.6041 50.6081 29.8321 51.09 29.15C51.1747 29.0268 51.2795 28.9186 51.4 28.83C51.55 28.71 51.66 28.77 51.77 28.78C51.88 28.79 52.21 28.84 52.48 28.92C52.7595 28.9726 53.0339 29.0495 53.3 29.15C53.61 29.3 53.92 29.4 54.24 29.59L55.24 30.39L56.17 31.11L56.61 31.47L57.01 31.76L57.62 32.2C58.8567 33.0862 60.2007 33.812 61.62 34.36L62.52 34.67C62.9271 34.7875 63.3099 34.9772 63.65 35.23C63.8561 35.4458 63.995 35.7168 64.05 36.01C64.05 36.16 64.13 36.31 64.15 36.45C64.17 36.59 64.04 36.85 63.75 37C63.3626 37.19 62.9241 37.2497 62.5 37.17C60.9732 36.8997 59.4854 36.443 58.07 35.81C57.34 35.55 56.62 35.27 55.92 34.97L55.39 34.75C55.26 34.69 54.95 34.57 55.04 34.57C55.04 34.57 54.93 34.36 54.85 34.49L54.7 34.51Z" fill="currentColor"/>
<path d="M73.63 16.76C73.51 16.84 75.28 24.88 72.97 26.76C72.44 27.19 75.43 29.76 76.05 27.91C76.67 26.06 76.15 15.46 76.15 15.46L73.63 16.76Z" fill="currentColor"/>
<path d="M79.15 19.83V20.47C79.1617 20.6465 79.1617 20.8235 79.15 21V21.7L79 23.11L78.94 23.8L78.88 25C78.88 25.8 78.77 26.57 78.69 27.32C78.59 28.4 78.53 29.59 77.98 30.07C77.7 30.43 77.49 30.73 77.2 31.07C76.9283 31.1731 76.6406 31.2273 76.35 31.23C76.1017 31.2492 75.852 31.2289 75.61 31.17C74.9962 31.0418 74.4081 30.812 73.87 30.49C73.1504 30.0648 72.4797 29.5618 71.87 28.99C71.56 28.72 71.24 28.47 70.95 28.19C70.8108 28.0549 70.6639 27.928 70.51 27.81L70.22 27.58C69.4736 27.0107 68.6346 26.5744 67.74 26.29C66.62 25.94 65.56 25.72 64.38 25.39C64.01 25.28 63.95 24.69 64.26 24C64.4354 23.59 64.7101 23.23 65.0592 22.9524C65.4083 22.6749 65.8209 22.4885 66.26 22.41C66.673 22.385 67.087 22.385 67.5 22.41C67.9093 22.4104 68.3165 22.4676 68.71 22.58C69.4824 22.7657 70.2358 23.0235 70.96 23.35C71.31 23.51 71.65 23.69 71.96 23.87L72.45 24.16C72.57 24.23 72.45 24.23 72.52 24.24C72.5799 24.4554 72.6708 24.6609 72.79 24.85C72.9008 25.0421 73.0427 25.2145 73.21 25.36C73.36 25.48 73.52 25.63 73.67 25.55C73.82 25.47 73.67 25.13 73.77 24.96C73.87 24.79 73.91 24.43 73.98 24.09C74.0522 23.7301 74.1023 23.3661 74.13 23L74.2 21.67V21V20.59C74.2153 20.2902 74.2153 19.9898 74.2 19.69C74.2006 19.445 74.1771 19.2005 74.13 18.96C74.1237 18.9008 74.0992 18.8449 74.06 18.8C74.06 18.75 73.96 18.8 73.92 18.8C73.8228 18.8386 73.7292 18.8854 73.64 18.94C73.2319 19.1653 72.8467 19.4299 72.49 19.73C72.3431 19.8489 72.2029 19.9757 72.07 20.11C72.01 20.18 71.94 20.21 71.88 20.31L71.48 20.61C70.9375 21.0386 70.3735 21.4391 69.79 21.81C69.5199 21.9778 69.2393 22.1281 68.95 22.26C68.5636 22.455 68.1316 22.5414 67.7 22.51C67.4108 22.4167 67.1655 22.2211 67.01 21.96C66.9295 21.8446 66.856 21.7244 66.79 21.6C66.7516 21.4908 66.7397 21.3739 66.7553 21.2592C66.771 21.1444 66.8137 21.035 66.88 20.94C67.0351 20.6708 67.2508 20.4414 67.51 20.27C67.9392 19.9936 68.3501 19.6896 68.74 19.36C69.1973 19.0384 69.6196 18.6697 70 18.26C70.1 18.14 70.15 18.06 70.31 17.89C70.47 17.72 70.72 17.45 70.96 17.21L71.65 16.46L72.43 15.46C73.43 14.29 74.79 13.63 75.43 13.78C75.681 13.7762 75.9309 13.8134 76.17 13.89C76.3666 13.9353 76.5531 14.0167 76.72 14.13C76.9668 14.2544 77.1929 14.4163 77.39 14.61C77.607 14.8263 77.8014 15.0642 77.97 15.32C78.2793 15.9701 78.5497 16.6379 78.78 17.32C78.91 17.67 79.02 18.08 79.14 18.47C79.26 18.86 79.21 19.34 79.24 19.78L79.15 19.83Z" fill="currentColor"/>
<path d="M83.08 78.66L82.66 79.66C82.6018 79.7046 82.5482 79.7548 82.5 79.81C82.3537 79.9732 82.2293 80.1547 82.13 80.35C82.04 80.52 82.13 80.56 82.02 80.76C81.9665 80.8588 81.9229 80.9626 81.89 81.07C81.8886 81.0985 81.8954 81.1269 81.9096 81.1517C81.9238 81.1765 81.9447 81.1967 81.97 81.21C82.0485 81.2317 82.1315 81.2317 82.21 81.21C82.41 81.21 82.73 81.08 83.15 80.97L84.06 80.68C84.5232 80.5376 84.9939 80.4207 85.47 80.33C86.7308 80.0163 88.0645 80.214 89.18 80.88C89.52 81.11 89.27 81.59 88.84 82.08C88.4515 82.5891 87.9611 83.0114 87.4 83.32C86.58 83.59 85.86 83.8 85.04 84.13L84.89 84.2H84.81L84.62 84.29L83.88 84.76L82.33 85.76C81.5929 86.3496 80.6619 86.6421 79.72 86.58L78.84 86.42C78.591 86.3963 78.3438 86.3562 78.1 86.3C77.949 86.2594 77.8018 86.2058 77.66 86.14C77.58 86.09 77.44 86.04 77.4 85.96C77.3508 85.8912 77.3168 85.8129 77.3 85.73C77.21 85.41 77.13 85.09 77.06 84.73C76.9473 84.2957 76.9268 83.8427 77 83.4C77.0998 82.8137 77.23 82.2329 77.39 81.66C77.72 80.5 78.1 79.26 78.46 78.26C78.65 77.77 78.76 77.47 79.07 76.72C79.2149 76.4168 79.3785 76.1229 79.56 75.84C79.6758 75.5449 79.8234 75.2633 80 75C80.2353 74.6427 80.5031 74.308 80.8 74C80.8721 73.9258 80.9567 73.8648 81.05 73.82C81.1301 73.748 81.2324 73.7056 81.34 73.7C81.4905 73.7379 81.6377 73.7881 81.78 73.85C82.6603 74.1238 83.4352 74.6614 84 75.39C84.29 75.74 84.58 76.05 84.86 76.39L85.07 76.62C85.1231 76.6987 85.187 76.7694 85.26 76.83L85.55 77.09C85.9396 77.3976 86.3544 77.6719 86.79 77.91L87.36 78.19C87.6319 78.3042 87.8695 78.4868 88.05 78.72C88.1638 78.9417 88.2057 79.1934 88.17 79.44C88.17 79.58 88.17 79.71 88.17 79.83C88.1511 79.9319 88.1048 80.0267 88.0361 80.1042C87.9674 80.1817 87.8789 80.239 87.78 80.27C87.4961 80.3928 87.1794 80.4175 86.88 80.34C85.7932 80.0358 84.7608 79.5634 83.82 78.94L83.46 78.73C83.46 78.73 83.39 78.61 83.31 78.67L83.08 78.66Z" fill="currentColor"/>
<path d="M42 55.19C42 55.19 41.9 59.68 42 61.47C42.1 63.26 38.64 63.47 38.64 63.47L38.7 52.47L42 55.19Z" fill="currentColor"/>
<path d="M41.05 55.76C40.97 55.76 40.89 55.84 40.81 56C40.7 56.88 40.61 57.83 40.54 58.75V59.07C40.5336 59.1231 40.5336 59.1769 40.54 59.23C40.5545 59.3161 40.5545 59.404 40.54 59.49C40.4505 59.8169 40.3935 60.1519 40.37 60.49C40.44 60.64 40.57 60.58 40.66 60.57L40.98 60.45L41.84 60.03C42.839 59.4537 43.8707 58.9362 44.93 58.48C46.3502 57.8218 47.9548 57.6769 49.47 58.07C49.94 58.22 49.79 58.72 49.4 59.25C49.012 59.8477 48.4876 60.3446 47.87 60.7C46.7993 61.1749 45.7575 61.7125 44.75 62.31L43.96 62.81C43.7259 62.9545 43.5021 63.1148 43.29 63.29C43.0281 63.5239 42.7544 63.7441 42.47 63.95C42.19 64.15 41.91 64.37 41.63 64.59C41.3658 64.7825 41.0885 64.9563 40.8 65.11C40.367 65.3331 39.8871 65.4497 39.4 65.45C39.1075 65.4813 38.8125 65.4813 38.52 65.45C38.1877 65.4028 37.8662 65.2979 37.57 65.14L37.12 64.34C36.9321 64.0548 36.7841 63.7453 36.68 63.42C36.5879 62.9981 36.5244 62.5705 36.49 62.14C36.4357 61.6787 36.4124 61.2144 36.42 60.75V59V58.63L36.52 57.16L36.65 55.58C36.72 54.83 36.78 54.08 36.89 53.38C36.9864 52.6176 37.2202 51.879 37.58 51.2C37.7464 50.9281 37.952 50.6821 38.19 50.47C38.37 50.34 38.5 50.47 38.63 50.47L39.03 50.54L39.7 50.72L40.47 51.12C40.5387 51.1528 40.6055 51.1896 40.67 51.23L40.87 51.42L41.28 51.79C41.55 52.04 41.81 52.28 42.05 52.52L43.42 53.83C43.74 54.14 44.07 54.45 44.42 54.74C45.4007 55.6219 46.4854 56.3809 47.65 57L48.39 57.36C49.3 57.77 49.48 58.01 49.6 58.58C49.6 58.71 49.67 58.84 49.69 58.96C49.71 59.08 49.6 59.3 49.34 59.41C49.1769 59.477 49.0052 59.5208 48.83 59.54C48.6181 59.558 48.4047 59.5377 48.2 59.48C46.8847 59.101 45.6266 58.546 44.46 57.83C43.8533 57.5167 43.2633 57.1833 42.69 56.83L41.84 56.33C41.57 56.17 41.17 55.94 41.32 55.97C41.3048 55.9371 41.2845 55.9067 41.26 55.88H41.2L41.05 55.76Z" fill="currentColor"/>
<path d="M39.51 45.67C34.73 43.57 29.78 35.06 29.69 35.13C26.23 38.13 24.12 50.3 24.31 50.24C25.44 49.8 28.62 48.62 31.69 47.7C35.71 46.5 40 45.89 39.51 45.67Z" fill="currentColor"/>
<path d="M85.82 41.26C82.19 39.67 78.45 33.26 78.38 33.26C75.75 35.52 74.16 44.75 74.3 44.7C76.1831 43.8331 78.1089 43.0622 80.07 42.39C83.11 41.5 86.19 41.43 85.82 41.26Z" fill="currentColor"/>
<path d="M38.34 21.19C42.34 19.04 45.98 11.34 46.07 11.4C49.27 13.73 51.94 24.09 51.78 24.05C50.78 23.75 47.95 22.96 45.23 22.38C41.68 21.63 37.93 21.41 38.34 21.19Z" fill="currentColor"/>
<path d="M66.52 78.33C63.27 76.58 60.28 70.33 60.21 70.33C57.6 72.23 55.42 80.68 55.55 80.65C56.38 80.41 58.68 79.76 60.9 79.29C63.79 78.69 66.85 78.51 66.52 78.33Z" fill="currentColor"/>
<path d="M23.92 74.09C27.55 72.09 30.92 65.09 30.92 65.17C33.84 67.3 36.28 76.74 36.13 76.7C35.21 76.43 32.64 75.7 30.13 75.18C27 74.5 23.55 74.29 23.92 74.09Z" fill="currentColor"/>
</svg>
