<svg width="96" height="96" viewBox="0 0 96 96" fill="none" xmlns="http://www.w3.org/2000/svg">
<path d="M74.83 26.17C73.91 26.29 71.83 26.03 72.7 20.32C72.94 18.78 73.86 15.39 72.88 13.93C70.88 10.99 66.21 19.15 65.45 20.4C63.54 23.51 61.17 26.82 57.09 26.56C56.2558 26.441 55.4576 26.1413 54.7512 25.6819C54.0448 25.2224 53.4471 24.6143 53 23.9C52.23 22.67 52.07 21.19 50.34 20.9C45.58 20.1 46.25 28.9 49.46 30.28C53.6 32.12 57.11 32.88 57.62 38.18C58.07 42.92 55.92 47.83 57.62 52.46C59.48 57.46 63.62 55.71 66.23 52.31C72.23 44.47 69.88 42.13 78.17 45.41C86.46 48.69 91.09 46.25 85.1 40.52C79.11 34.79 76.65 35.58 79.36 30.87C82.07 26.16 80.41 25.51 74.83 26.17Z" fill="currentColor"/>
<path d="M19.8 62.44C19.91 61.08 18.69 60.02 17.73 59.03C15.36 56.57 14.13 52.82 15.28 49.6C16.43 46.38 20.28 44.18 23.48 45.42C26.33 46.53 28.06 49.88 31.08 50.42C33.13 50.75 35.14 49.63 36.65 48.2C38.16 46.77 39.32 45.03 40.88 43.67C42.44 42.31 44.56 41.32 46.55 41.87C48.81 42.5 50.18 44.98 50.17 47.33C50.0051 49.6857 49.1687 51.9448 47.76 53.84C46.3555 55.7062 45.0983 57.6788 44 59.74C43.4561 60.7825 43.1465 61.9312 43.093 63.1058C43.0394 64.2803 43.2432 65.4524 43.69 66.54C44.8 68.79 47.27 70.09 48.48 72.29C49.0831 73.5104 49.3099 74.8825 49.1319 76.232C48.9539 77.5816 48.3789 78.8478 47.48 79.87C46.563 80.8756 45.4234 81.6525 44.1523 82.1387C42.8812 82.6249 41.514 82.8069 40.16 82.67C37.4456 82.3558 34.9197 81.1246 33 79.18C32 78.26 31.22 77.18 30.2 76.37C29.7115 75.9191 29.138 75.57 28.513 75.3434C27.888 75.1167 27.224 75.017 26.56 75.05C24.92 75.24 23.67 76.53 22.39 77.57C20.7061 79.0006 18.6618 79.9414 16.48 80.29C15.392 80.4544 14.2817 80.3908 13.2195 80.1034C12.1574 79.8159 11.1666 79.3107 10.31 78.62C4.85002 73.94 10.99 67.39 15.83 65.56C16.6777 65.2995 17.5009 64.9648 18.29 64.56C18.6905 64.35 19.0358 64.0487 19.2982 63.6804C19.5605 63.312 19.7324 62.8871 19.8 62.44Z" fill="currentColor"/>
</svg>
