<svg width="96" height="96" viewBox="0 0 96 96" fill="none" xmlns="http://www.w3.org/2000/svg">
<path d="M72.18 45.52C71.0342 39.5231 69.4874 33.6098 67.55 27.82C67.1994 26.8227 66.7887 25.8476 66.32 24.9L66 24.33L65.89 24.15C65.8259 24.029 65.7189 23.9363 65.59 23.89L65.41 23.82L64.75 23.61C64.32 23.47 63.85 23.37 63.39 23.24C62.48 22.99 61.54 22.79 60.6 22.6C58.71 22.21 56.78 21.9 54.84 21.66C51 21.15 47 21 43.06 20.82C39.5477 20.7505 36.035 20.9377 32.55 21.38C28.1 21.92 23.75 22.88 19.36 23.55C17.99 23.75 17.81 22.68 18.67 21.3C19.9584 19.4037 21.9158 18.0642 24.15 17.55C28.8287 16.4522 33.5927 15.7564 38.39 15.47C39.59 15.39 40.78 15.33 41.98 15.32C43.18 15.31 44.38 15.32 45.58 15.32C46.78 15.32 47.98 15.43 49.17 15.55C50.36 15.67 51.57 15.77 52.77 15.94C55.63 16.31 58.55 16.64 61.51 17.09C62.99 17.3 64.51 17.61 65.98 17.93L67.18 18.25L68.06 18.49C68.34 18.58 68.6 18.71 68.88 18.82C69.8893 19.4478 70.687 20.364 71.17 21.45C71.938 22.975 72.6061 24.5483 73.17 26.16C73.73 27.7 74.23 29.23 74.71 30.76C75.71 33.83 76.49 36.92 77.26 40.03C78.2 43.85 78.97 47.71 79.57 51.64C80.0874 54.6878 80.2884 57.7809 80.17 60.87C80.1173 61.7719 79.9458 62.6629 79.66 63.52C79.5604 63.7841 79.4435 64.0413 79.31 64.29C79.24 64.42 79.14 64.56 79.05 64.7L78.98 64.8V64.87L79 65C78.9547 65.2118 78.8911 65.4192 78.81 65.62C78.7505 65.7301 78.6801 65.8339 78.6 65.93L78.3 66.17C77.8806 66.4564 77.4227 66.682 76.94 66.84C76.4836 67.0069 76.0157 67.1406 75.54 67.24L74.87 67.41L74.31 67.52L73.2 67.74C68.65 68.53 64.27 69.38 59.82 70.06C58.82 70.22 57.88 70.34 56.89 70.43C53.2 70.7 51.98 70.43 51.07 69.43C50.8479 69.2238 50.647 68.996 50.47 68.75C50.03 67.97 51.47 67.07 54.07 66.3L57 65.45C58 65.16 59 64.89 60 64.69L66 63.37C68 62.95 70 62.51 72 62.07C72.48 61.95 72.94 61.83 73.42 61.74H73.59H73.66H73.81H73.96H74.03C74.03 61.74 74.09 61.59 74.13 61.51V61.43C77.58 64.03 75.13 62.14 75.85 62.72L75.68 62.59C75.5691 62.5138 75.452 62.4469 75.33 62.39C75.17 62.29 75.02 62.21 74.86 62.13L74.05 61.8H73.94C73.94 61.8 73.94 61.71 73.94 61.62C73.9819 61.3954 74.0086 61.1682 74.02 60.94C74.0554 60.3172 74.0554 59.6928 74.02 59.07C73.96 57.71 73.8 56.25 73.59 54.78C73.18 51.84 72.59 48.78 71.88 45.84L72.18 45.52Z" fill="currentColor"/>
<path d="M77.37 43.79C76.57 39.65 75.65 35.51 74.57 31.44C74.02 29.44 73.44 27.39 72.78 25.44C72.45 24.44 72.09 23.53 71.72 22.7L71.56 22.34L71.48 22.19C71.4599 22.1373 71.4243 22.0919 71.3779 22.0598C71.3315 22.0277 71.2765 22.0103 71.22 22.01C71.22 22.01 71.16 22.01 71.14 22.01L71 22L70.26 21.84C69.77 21.72 69.26 21.67 68.71 21.58C67.6767 21.4067 66.6267 21.2667 65.56 21.16C61.76 20.74 57.87 20.68 54 20.59C47.161 20.3994 40.3168 20.6499 33.51 21.34C31.81 21.53 30.11 21.7 28.44 21.99C27.6 22.13 26.76 22.24 25.93 22.4L23.44 22.91C22.61 23.06 21.81 23.29 21 23.51C20.19 23.73 19.36 23.9 18.59 24.2L16.23 25C15.68 25.22 15.32 25.41 14.84 25.63C14.7411 25.6645 14.647 25.7115 14.56 25.77C14.5399 25.8589 14.5399 25.9511 14.56 26.04C14.5735 26.2212 14.5969 26.4014 14.63 26.58L14.73 27.19L14.96 28.3C15.27 29.78 15.63 31.3 15.96 32.77L18.23 41.71C20.23 49.34 22.32 57 23.12 64.95C23.33 67.45 22.31 67.21 21.03 65.33C19.1383 62.341 17.753 59.0602 16.93 55.62C15 47.87 12.81 40.2 10.84 32.34L10.13 29.34L9.76003 27.59C9.53802 26.6633 9.43055 25.7129 9.44003 24.76C9.46326 24.3339 9.55791 23.9148 9.72003 23.52C9.77561 23.3289 9.87103 23.1516 10 23L10.53 22.67L12.64 21.34C13.7007 20.6161 14.8682 20.0627 16.1 19.7C16.61 19.51 17.1 19.33 17.64 19.17L19.19 18.76C20.19 18.5 21.25 18.2 22.28 18.03C23.31 17.86 24.34 17.62 25.37 17.44L28.5 17C38.4752 15.6703 48.5399 15.1319 58.6 15.39C59.78 15.39 60.95 15.49 62.13 15.58C63.31 15.67 64.49 15.73 65.68 15.87C66.87 16.01 68.04 16.11 69.24 16.3C69.83 16.39 70.42 16.45 71.03 16.57L73.24 17C73.52 17.11 73.81 17.2 74.1 17.3C74.3772 17.4347 74.6306 17.6137 74.85 17.83C75.3039 18.2642 75.6914 18.7629 76 19.31C76.15 19.57 76.32 19.89 76.42 20.1L76.7 20.7C76.88 21.09 77.04 21.48 77.2 21.87C77.81 23.41 78.32 24.94 78.8 26.47C79.74 29.52 80.55 32.58 81.3 35.66C82.9237 42.2588 84.1162 48.9563 84.87 55.71C85.1774 58.3348 85.2677 60.9804 85.14 63.62C85.14 63.97 85.08 64.31 85.04 64.67C85 65.03 84.9 65.54 84.81 65.97C84.633 66.8531 84.2568 67.6842 83.71 68.4C83.0304 68.9761 82.1879 69.3256 81.3 69.4C81.08 69.4 80.85 69.48 80.62 69.5L80 69.57L79 69.66C73.85 70.02 68.84 70.24 63.85 70.73C56.218 71.4417 48.6606 72.8033 41.26 74.8C39.64 75.25 38.07 75.69 36.47 76.18C33.47 77.05 31.54 77.69 30.13 78.04C29.1133 78.348 28.0408 78.4266 26.99 78.27C26.6152 78.2287 26.2441 78.1585 25.88 78.06C25.44 77.85 25.73 77.33 26.67 76.54C28.1169 75.4106 29.695 74.4604 31.37 73.71L33.82 72.6L36.32 71.6C38.0059 70.9269 39.7248 70.3395 41.47 69.84C44.96 68.84 48.54 67.97 52.15 67.27C55.76 66.57 59.44 66.04 63.15 65.59C66.86 65.14 70.53 64.9 74.15 64.59L78.15 64.29L79.1 64.2H79.51V63.98C79.51 63.72 79.53 63.45 79.57 63.17C79.6394 61.9543 79.6394 60.7357 79.57 59.52C79.1316 54.2574 78.3465 49.0294 77.22 43.87L77.37 43.79Z" fill="currentColor"/>
</svg>
