<svg width="96" height="96" viewBox="0 0 96 96" fill="none" xmlns="http://www.w3.org/2000/svg">
<path d="M76.26 71.55C72.3052 76.0072 67.3592 79.4735 61.82 81.67C59.1252 82.8038 56.3155 83.642 53.44 84.17C50.5634 84.6821 47.6381 84.8666 44.72 84.72C40.4427 84.5981 36.2236 83.6966 32.27 82.06C25.2799 79.0381 19.6431 73.5543 16.43 66.65C14.2225 61.7658 13.1927 56.4315 13.4237 51.0766C13.6548 45.7217 15.14 40.4959 17.76 35.82C19.3837 32.924 21.5339 30.3567 24.1 28.25C24.9132 27.5625 25.7646 26.9215 26.65 26.33C27.55 25.75 28.45 25.24 29.37 24.75C31.2172 23.7727 33.1483 22.9628 35.14 22.33C36.158 22.0125 37.193 21.7521 38.24 21.55C39.3287 21.3855 40.4291 21.3119 41.53 21.33C42.685 21.3475 43.8322 21.5225 44.94 21.85C46.0921 22.2454 47.1387 22.8987 48 23.76C48.4097 24.1283 48.7223 24.592 48.91 25.11C49.02 25.44 48.99 25.64 48.85 25.73C48.71 25.82 47.85 25.61 46.78 25.5C44.47 25.31 41.78 26.55 38.06 27.63C36.3446 28.0932 34.6718 28.7021 33.06 29.45C31.4503 30.157 29.9215 31.0354 28.5 32.07C25.7298 34.1258 23.4487 36.7689 21.82 39.81C18.4281 46.311 17.5556 53.8353 19.37 60.94C19.9091 63.1086 20.7614 65.1871 21.9 67.11C23.102 69.0281 24.5511 70.7798 26.21 72.32C29.6198 75.4077 33.7433 77.6 38.21 78.7C47.99 81.36 58.98 78.57 67.05 72.37C72.0757 68.5695 75.7237 63.2326 77.44 57.17C78.7118 52.5523 78.9528 47.7114 78.1457 42.9902C77.3387 38.269 75.5035 33.783 72.77 29.85C68.5247 23.9593 62.2968 19.7979 55.23 18.13L53 17.71C52.24 17.56 51.46 17.54 50.69 17.43C44.91 16.78 43 16.59 41.47 15.13C41.1129 14.8429 40.7786 14.5286 40.47 14.19C40.08 13.65 40.47 13.02 41.62 12.37C43.3604 11.4956 45.2571 10.9755 47.2 10.84C55.1492 10.2299 63.0626 12.4081 69.58 17C76.2613 21.9609 81.1134 28.993 83.38 37C84.2505 39.9274 84.7642 42.9493 84.91 46C84.9601 46.7658 84.9601 47.5341 84.91 48.3C84.91 49.06 84.91 49.83 84.84 50.59C84.7266 52.124 84.5229 53.6499 84.23 55.16C83.9396 56.6714 83.559 58.1641 83.09 59.63C82.5957 61.09 82.0146 62.5192 81.35 63.91C80.0332 66.6845 78.3517 69.2708 76.35 71.6L76.26 71.55Z" fill="currentColor"/>
</svg>
