<svg width="96" height="96" viewBox="0 0 96 96" fill="none" xmlns="http://www.w3.org/2000/svg">
<path d="M71.7799 53.28C72.0776 51.1368 72.1513 48.9685 71.9999 46.81C71.921 45.7594 71.7807 44.7143 71.5799 43.68C71.3936 42.6244 71.1261 41.5846 70.7799 40.57C70.6599 40.2034 70.5299 39.8334 70.3899 39.46C70.2299 39.11 70.0299 38.77 69.8499 38.46L69.3199 37.46C69.1399 37.12 68.91 36.81 68.73 36.46C67.3957 34.0493 65.5531 31.9577 63.33 30.33C61.0023 28.7458 58.3055 27.7883 55.4999 27.55C54.8633 27.4702 54.2213 27.4401 53.58 27.46L51.58 27.59C51.242 27.602 50.9065 27.6523 50.58 27.74L49.58 27.95C48.95 28.12 48.2899 28.2 47.6699 28.43L45.2799 29.31C44.8779 29.4509 44.4868 29.6214 44.1099 29.82L42.9499 30.38C41.3499 31.04 39.8699 31.96 38.2699 32.71C37.2699 33.17 37.0099 32.59 37.3999 31.48C37.6643 30.768 38.0243 30.0951 38.4699 29.48C39.0226 28.6339 39.7486 27.9147 40.5999 27.37L43.0699 25.8L45.7499 24.51C46.6623 24.0817 47.609 23.7304 48.58 23.46L50.1799 23C50.6699 22.88 51.1799 22.81 51.6999 22.72C55.8909 21.9729 60.2111 22.6192 63.9999 24.56C68.5811 26.8364 72.4282 30.3576 75.0999 34.72L76.0999 36.53L76.91 38.42L77.2999 39.37L77.6099 40.37L78.1999 42.37C78.797 44.9933 79.0657 47.6805 78.9999 50.37C78.9309 53.62 78.488 56.8513 77.6799 60C76.3981 64.8223 74.0003 69.2755 70.6799 73C68.103 75.989 64.8398 78.3086 61.1699 79.76C60.7599 79.91 60.3499 80.03 59.9299 80.14C59.5167 80.2745 59.0914 80.3682 58.6599 80.42C57.5313 80.6506 56.3649 80.6198 55.2499 80.33C54.5877 80.0593 54.052 79.5486 53.7499 78.9C53.5839 78.6268 53.4433 78.339 53.33 78.04C53.0599 77.12 54.2299 76.17 56.0299 75.4C56.7099 75.16 57.3399 74.8 57.9799 74.51L58.8899 73.98C59.1899 73.83 59.4899 73.68 59.7799 73.51C60.9279 72.9081 62.0075 72.1839 62.9999 71.35C65.0123 69.6894 66.6803 67.6511 67.91 65.35C68.8566 63.5149 69.6332 61.5969 70.2299 59.62C70.8883 57.5712 71.334 55.4601 71.5599 53.32L71.7799 53.28Z" fill="currentColor"/>
<path d="M73.26 57.79C75.2927 50.4035 75.0874 42.5798 72.67 35.31C72.43 34.65 72.15 34.01 71.88 33.37L71.46 32.37L70.96 31.46C70.62 30.86 70.32 30.23 69.96 29.64C69.6 29.05 69.21 28.49 68.86 27.9C68.563 27.3831 68.2288 26.8884 67.86 26.42C67.49 25.95 67.14 25.42 66.75 24.99L65.5 23.69L64.88 23.04L64.18 22.47L62.79 21.33C62.3 21 61.79 20.7 61.27 20.38C60.2232 19.7364 59.1263 19.1779 57.99 18.71C57.4238 18.4525 56.8387 18.2385 56.24 18.07L54.45 17.49L52.62 17.12C52.0084 16.9772 51.3864 16.8836 50.76 16.84L48.87 16.68C48.2406 16.64 47.6093 16.64 46.98 16.68C46.3423 16.6715 45.7047 16.6982 45.07 16.76L43.17 17.01C38.5968 17.7663 34.2605 19.57 30.5 22.28C28.1012 24.0168 25.8684 25.9718 23.83 28.12C21.7344 30.255 19.8149 32.5558 18.09 35C16.98 36.52 16.54 36.06 16.68 34.26C16.7672 33.0294 17.016 31.8157 17.42 30.65C17.6741 29.8689 17.9678 29.1013 18.3 28.35C18.7194 27.5415 19.1834 26.757 19.69 26C20.6631 24.6041 21.7718 23.3078 23 22.13L24.85 20.37C25.46 19.77 26.17 19.29 26.85 18.74C28.1727 17.6802 29.5585 16.7017 31 15.81C31.75 15.39 32.52 15 33.29 14.59C33.68 14.4 34.05 14.18 34.45 14.01L35.66 13.51C42.1984 10.6974 49.4927 10.1655 56.37 12C57.37 12.32 58.37 12.6 59.37 12.94L62.37 14.14C64.3547 15.0324 66.2415 16.1282 68 17.41C71.5014 19.9926 74.4467 23.2542 76.66 27C78.9917 31.0189 80.6788 35.3785 81.66 39.92C82.6472 44.4153 82.9839 49.029 82.66 53.62C82.4427 56.4731 81.9402 59.2971 81.16 62.05C79.2255 69.2456 74.6285 75.437 68.3 79.37C66.4483 80.5634 64.4819 81.5685 62.43 82.37C60.3818 83.1377 58.2658 83.7102 56.11 84.08C52.7759 84.6642 49.3772 84.7853 46.01 84.44C42.6381 84.0743 39.3314 83.2535 36.18 82C34.7788 81.4863 33.4183 80.8679 32.11 80.15C30.3319 79.2815 28.7937 77.9906 27.63 76.39C27.3105 75.86 27.122 75.2615 27.0803 74.6441C27.0386 74.0266 27.1447 73.4082 27.39 72.84C27.5366 72.2255 27.7409 71.6262 28 71.05C28.2619 70.6217 28.6389 70.2755 29.0879 70.0509C29.537 69.8264 30.0401 69.7325 30.54 69.78C31.933 69.8936 33.2845 70.3099 34.5 71C38.643 73.2882 43.1901 74.7519 47.89 75.31C52.3562 75.7726 56.8624 74.9649 60.89 72.98C63.8566 71.5058 66.4592 69.3917 68.51 66.79C69.553 65.4912 70.4736 64.0986 71.26 62.63C71.4601 62.2599 71.6403 61.8793 71.8 61.49L72.06 60.92L72.28 60.29C72.5725 59.4591 72.813 58.6108 73 57.75L73.26 57.79Z" fill="currentColor"/>
</svg>
