<svg width="96" height="96" viewBox="0 0 96 96" fill="none" xmlns="http://www.w3.org/2000/svg">
<path d="M47.81 44.6C45.04 47.72 42.37 50.98 39.81 54.35C38.81 55.56 38.06 56.89 37.09 58.1C33.71 62.4 30.41 66.81 27.34 71.37C25.93 73.37 24.67 75.48 23.43 77.56C22.63 78.89 21.91 80.28 21.03 81.56C20.15 82.84 19.15 84.09 18.12 85.3C17.46 86.05 17.17 85.72 17.12 84.72C16.9961 83.2064 17.1417 81.6828 17.55 80.22C17.68 79.84 17.79 79.44 17.94 79.07L18.4 78L19.4 75.82C20.08 74.37 20.77 72.93 21.5 71.5C22.943 68.6237 24.6151 65.8681 26.5 63.26C28.76 60.11 30.5 56.48 32.7 53.14C33.87 51.29 35.14 49.51 36.46 47.76C37.78 46.01 39.11 44.27 40.46 42.56C42.1534 40.4533 43.8967 38.38 45.69 36.34C48.38 33.24 51.3 30.34 54.21 27.42C56.4317 25.0801 58.7891 22.873 61.27 20.81C61.8116 20.3251 62.4132 19.9117 63.06 19.58C65.57 18.43 66.67 18.65 67.75 19.73C68.0071 19.9599 68.2446 20.2107 68.46 20.48C69.09 21.37 68.55 22.66 67.38 24.02C66.95 24.55 66.53 25.02 66.12 25.58C65.7037 26.0843 65.2526 26.5588 64.77 27C63.86 27.94 62.94 28.84 62.03 29.81C61.12 30.78 60.25 31.81 59.25 32.68L57.8 34.08L56.35 35.54C53.49 38.43 50.63 41.48 47.96 44.72L47.81 44.6Z" fill="currentColor"/>
<path d="M75 21.49C75.1125 19.3854 74.7715 17.2813 74 15.32C73.7239 14.6893 73.2683 14.1537 72.69 13.78C72.53 13.78 72.42 13.64 72.22 13.57L71.49 13.39C70.9553 13.2859 70.414 13.2191 69.87 13.19C68.1224 13.1695 66.3771 13.3236 64.66 13.65C61.4109 14.1862 58.2129 14.9957 55.1 16.07C51.917 17.1452 48.7927 18.3869 45.74 19.79C43.03 21.06 40.35 22.44 37.74 23.87C36.07 24.8 34.42 25.77 32.74 26.76C31.06 27.75 29.45 28.76 27.93 29.83C27.02 30.52 26.93 30.27 27.43 29.3C28.3734 27.7837 29.5592 26.4324 30.94 25.3C34.0522 22.7866 37.3149 20.4656 40.71 18.35C44.2299 16.3626 47.8935 14.6412 51.67 13.2C53.93 12.34 56.22 11.42 58.59 10.59C60.9853 9.70398 63.4552 9.03463 65.97 8.59C67.4176 8.35033 68.8828 8.23325 70.35 8.24C72.0183 8.23599 73.6694 8.57643 75.2 9.24C75.61 9.48 76.03 9.7 76.4 9.97C76.77 10.24 77.1 10.57 77.4 10.88C77.7 11.19 77.96 11.56 78.23 11.88C78.4703 12.2238 78.6906 12.581 78.89 12.95C79.6215 14.3239 80.1407 15.8006 80.43 17.33C81.0403 20.7657 81.1615 24.2704 80.79 27.74C80.2711 32.7955 79.3956 37.808 78.17 42.74C77.4099 46.5816 76.435 50.3775 75.25 54.11C74.97 54.94 74.72 55.77 74.35 56.6C73.9261 57.7421 73.2413 58.7694 72.35 59.6C72.027 59.8465 71.6493 60.0115 71.2489 60.0811C70.8486 60.1508 70.4374 60.1229 70.05 60C69.6558 59.9227 69.2705 59.8054 68.9 59.65C68.6193 59.4982 68.3809 59.2788 68.2063 59.0116C68.0317 58.7445 67.9264 58.438 67.9 58.12C67.8234 57.2839 67.9291 56.4412 68.21 55.65C69.12 52.65 69.91 49.44 70.69 46.18C71.47 42.92 72.41 39.61 73.09 36.27C74.2488 31.4318 74.8394 26.475 74.85 21.5L75 21.49Z" fill="currentColor"/>
</svg>
