<svg width="96" height="96" viewBox="0 0 96 96" fill="none" xmlns="http://www.w3.org/2000/svg">
<path d="M30.35 58.74C31.26 61.18 32.12 63.65 32.94 66.13C33.23 67.04 33.67 67.9 33.94 68.83C34.41 70.45 34.81 72.1 35.18 73.75C35.55 75.4 35.79 77.1 36.02 78.75C36.24 80.23 36.51 81.75 36.75 83.19C37.105 85.0936 37.105 87.0464 36.75 88.95C36.62 89.55 35.92 89.45 35.15 88.95C34.2631 88.434 33.5893 87.6184 33.25 86.65C33.07 85.77 32.8 84.9 32.61 84.02L32.08 81.38C31.73 79.61 31.36 77.83 31.08 76C30.6419 73.7663 29.9716 71.5844 29.08 69.49C28.25 67.12 27.36 64.74 26.4 62.38C25.81 60.92 25.21 59.46 24.57 58.02C23.57 55.83 22.67 53.6 21.57 51.44C21.16 50.59 20.63 49.8 20.2 48.95C19.7504 48.1002 19.3498 47.2255 19 46.33C18.8044 45.9071 18.6665 45.4597 18.59 45C18.59 44.77 18.59 44.56 18.54 44.37C18.49 44.18 18.54 43.97 18.54 43.8C18.5649 43.4923 18.6608 43.1945 18.82 42.93C18.9673 42.7198 19.1576 42.5434 19.3782 42.4123C19.5989 42.2813 19.845 42.1987 20.1 42.17C20.3098 42.1221 20.525 42.1019 20.74 42.11C21.0719 42.1917 21.3758 42.3609 21.62 42.6L22.14 42.98C22.3112 43.1078 22.4599 43.2633 22.58 43.44C23.43 44.44 24.26 45.77 25.19 47.09C26.12 48.41 26.65 50.01 27.38 51.55C28.38 53.86 29.38 56.28 30.38 58.69L30.35 58.74Z" fill="currentColor"/>
<path d="M24.19 41.21C24.02 41.42 23.76 41.1 23.5 40.5C23.4044 40.2094 23.3538 39.9059 23.35 39.6C23.4009 39.4159 23.4644 39.2355 23.54 39.06C23.54 39 24.39 38.3 24.64 37.99C24.8748 37.7341 25.1523 37.521 25.46 37.36C26.05 37.02 26.62 36.62 27.21 36.25C27.3411 36.1652 27.4939 36.12 27.65 36.12C28.1889 36.1018 28.702 35.8845 29.09 35.51C29.16 35.45 29.25 35.43 29.26 35.24C29.27 35.05 30.47 34.12 30.68 34.14C31.21 34.21 31.68 34.14 32.2 34.14C32.28 34.14 32.31 34.06 32.46 34.23C32.81 34.65 32.9 34.51 33.04 34.48C33.2607 34.4312 33.4893 34.4312 33.71 34.48C33.9067 34.5926 34.0854 34.7342 34.24 34.9C34.4564 35.2046 34.6219 35.5424 34.73 35.9C34.8126 36.2033 34.9517 36.4883 35.14 36.74L35.29 37.04C35.2291 37.7333 35.0463 38.4103 34.75 39.04C34.75 39.13 33.23 40.04 33.08 40.14C32.93 40.24 32.85 40.14 32.72 40.14C32.59 40.14 31.46 40.87 31.39 40.86C31.09 40.86 30.87 41.11 30.44 40.86C30.36 40.8 30.31 40.86 30.26 40.86C29.7629 41.0051 29.2478 41.0792 28.73 41.08C28.4768 41.1258 28.2264 41.1859 27.98 41.26C27.927 41.2686 27.873 41.2686 27.82 41.26C27.75 41.26 27.68 41.26 27.63 41.26C27.0184 41.353 26.4138 41.4866 25.82 41.66C25.68 41.71 24.92 41.52 24.76 41.59C24.6 41.66 24.25 41.12 24.19 41.21Z" fill="currentColor"/>
<path d="M21.08 36.88C21.16 37.12 20.75 37.17 20.08 37.07C19.7896 37.0025 19.5147 36.8803 19.27 36.71C19.1481 36.5562 19.0346 36.396 18.93 36.23C18.93 36.15 18.83 34.95 18.74 34.51C18.6749 34.1261 18.6749 33.7339 18.74 33.35C18.8006 32.593 18.9142 31.8411 19.08 31.1C19.119 30.9322 19.2058 30.7794 19.33 30.66C19.718 30.2195 19.953 29.6652 20 29.08C20.0206 29.0256 20.025 28.9664 20.0125 28.9096C20.0001 28.8528 19.9714 28.8008 19.93 28.76C19.8463 28.1176 19.9615 27.465 20.26 26.89C20.7048 26.542 21.1258 26.1645 21.52 25.76C21.58 25.71 21.52 25.62 21.75 25.62C22.22 25.62 22.19 25.45 22.28 25.32C22.4323 25.1265 22.623 24.9665 22.84 24.85C23.0264 24.7921 23.2169 24.7486 23.41 24.72C23.6661 24.7118 23.9202 24.7667 24.15 24.88C24.29 25.02 24.56 25 24.78 25.04L25.02 25.1C25.2354 25.3838 25.4325 25.6811 25.61 25.99C25.7438 26.1815 25.8514 26.39 25.93 26.61C25.9831 26.7095 26.017 26.818 26.03 26.93C26.03 26.93 25.91 28.82 25.89 29.08C25.87 29.34 25.75 29.26 25.65 29.34C25.55 29.42 25.39 30.84 25.35 30.89C25.19 31.15 25.22 31.48 24.75 31.63C24.7175 31.639 24.6889 31.6587 24.6689 31.6859C24.649 31.7131 24.6388 31.7463 24.64 31.78C24.4507 32.2714 24.1914 32.7329 23.87 33.15C23.73 33.38 23.67 33.64 23.53 33.87C23.53 33.87 23.43 33.93 23.39 33.97C23.3287 34.0025 23.2743 34.0466 23.23 34.1C22.8931 34.636 22.5924 35.1939 22.33 35.77C22.28 35.9 21.64 36.4 21.61 36.57C21.58 36.74 21.05 36.77 21.08 36.88Z" fill="currentColor"/>
<path d="M15.24 35.63C15.48 35.63 15.24 36.03 14.77 36.55C14.5432 36.7845 14.2798 36.9804 13.99 37.13C13.7737 37.1487 13.5563 37.1487 13.34 37.13C13.22 37.13 12.12 36.52 11.68 36.35C11.3138 36.2173 10.9988 35.9723 10.78 35.65L9.39999 34.05C9.29997 33.9193 9.23771 33.7637 9.21999 33.6C9.16085 33.0538 8.89196 32.5519 8.46999 32.2C8.39999 32.14 8.36999 32.05 8.17999 32.07C7.98999 32.09 7.11999 30.91 7.17999 30.7C7.23999 30.49 7.17999 30.18 7.17999 29.9V29.09C7.17999 29.02 7.09999 28.99 7.22999 28.83C7.52999 28.46 7.38999 28.39 7.37999 28.24C7.31443 28.0181 7.31443 27.782 7.37999 27.56C7.44758 27.3683 7.52776 27.1812 7.61999 27C7.73634 26.8168 7.90298 26.671 8.09999 26.58C8.26999 26.58 8.38999 26.35 8.51999 26.22L8.66999 26.09C8.78945 26.074 8.91053 26.074 9.02999 26.09C9.27269 26.0651 9.5173 26.0651 9.75999 26.09C10.1006 26.1062 10.4372 26.1702 10.76 26.28L11.6 26.87C12.03 27.16 12.33 27.54 12.44 27.59C12.55 27.64 12.5 27.81 12.5 27.93C12.5 28.05 13.59 28.93 13.57 29.01C13.66 29.3 13.92 29.46 13.71 29.92C13.6888 29.9452 13.6772 29.9771 13.6772 30.01C13.6772 30.0429 13.6888 30.0748 13.71 30.1C13.9424 30.5351 14.1044 31.0043 14.19 31.49C14.2777 31.7205 14.3883 31.9416 14.52 32.15C14.52 32.15 14.52 32.26 14.52 32.31C14.5051 32.3725 14.5051 32.4376 14.52 32.5C14.6621 32.7492 14.7826 33.0102 14.88 33.28C14.9865 33.543 15.1135 33.7971 15.26 34.04C15.32 34.14 15.26 34.94 15.33 35.04C15.4 35.14 15.13 35.62 15.24 35.63Z" fill="currentColor"/>
<path d="M14 40.74C14.21 40.55 14.43 40.96 14.53 41.68C14.5506 42.015 14.527 42.3512 14.46 42.68L14.2 43.23C14.2 43.29 13.27 43.87 12.97 44.15C12.7031 44.3782 12.3939 44.5515 12.06 44.66C11.41 44.79 10.76 44.97 10.06 45.12C9.90988 45.1645 9.75011 45.1645 9.6 45.12C9.08476 44.9658 8.53133 45.0013 8.04 45.22C7.95 45.22 7.86 45.22 7.81 45.41C7.75999 45.6 6.34 46 6.13 45.93C5.63 45.73 5.13 45.68 4.66 45.51C4.59 45.51 4.53 45.51 4.44 45.38C4.22 44.99 4.09 45.08 3.95 45.07C3.72954 45.0658 3.51207 45.0182 3.31 44.93C3.2 44.88 3.06 44.66 2.93 44.49C2.81459 44.2182 2.75671 43.9253 2.76 43.63C2.76343 43.3732 2.71585 43.1183 2.62 42.88C2.62 42.79 2.62 42.68 2.62 42.61C2.86967 42.059 3.20742 41.5524 3.62 41.11C3.62 41.11 5.23 40.47 5.4 40.37C5.57 40.27 5.61 40.37 5.72 40.44C5.82999 40.51 7.04 39.92 7.1 39.92C7.38 39.92 7.64 39.74 7.97 40.06C8.04 40.12 8.08999 40.06 8.14999 40.06C8.63336 39.9798 9.12663 39.9798 9.60999 40.06C9.85824 40.0448 10.1053 40.0148 10.35 39.97C10.35 39.97 10.45 39.97 10.5 40.03C10.55 40.09 10.62 40.09 10.67 40.08C11.25 39.94 11.88 40.08 12.47 40.01C12.61 40.01 13.33 40.39 13.47 40.34C13.61 40.29 13.93 40.83 14 40.74Z" fill="currentColor"/>
<path d="M15.21 46.2C15.1 45.94 15.54 46.03 16.3 46.31C16.6557 46.4577 16.9917 46.6492 17.3 46.88C17.4333 47.053 17.5568 47.2333 17.67 47.42C17.72 47.52 17.67 48.58 17.67 48.96C17.6841 49.3045 17.6155 49.6474 17.47 49.96C17.23 50.56 17.03 51.18 16.8 51.78C16.7401 51.915 16.6384 52.0271 16.51 52.1C16.0938 52.3854 15.8009 52.8177 15.69 53.31C15.6612 53.3529 15.6458 53.4034 15.6458 53.455C15.6458 53.5067 15.6612 53.5571 15.69 53.6C15.85 53.84 15.31 55.04 15.13 55.14C14.7 55.38 14.31 55.65 13.9 55.9C13.84 55.9 13.9 56.02 13.67 55.98C13.23 55.88 13.23 55.98 13.14 56.13C13.0013 56.2778 12.8348 56.3967 12.65 56.48C12.4611 56.5087 12.2689 56.5087 12.08 56.48C11.8 56.3832 11.5393 56.2377 11.31 56.05C11.1118 55.8862 10.8891 55.7546 10.65 55.66L10.4 55.52C10.1275 54.9985 9.93529 54.4389 9.83 53.86C9.83 53.86 9.93 53.46 10.03 53.04C10.13 52.62 10.27 52.22 10.27 52.13C10.27 52.04 10.41 52 10.51 51.95C10.61 51.9 10.87 50.71 10.9 50.67C10.93 50.63 11.06 50.18 11.51 50.15C11.6 50.15 11.61 50.09 11.63 50.04C11.8381 49.661 12.1124 49.3223 12.44 49.04C12.5753 48.8621 12.6926 48.6712 12.79 48.47C12.8304 48.4441 12.8741 48.4239 12.92 48.41C12.98 48.41 13.05 48.41 13.07 48.32C13.3919 47.903 13.67 47.454 13.9 46.98C13.9 46.86 14.57 46.56 14.6 46.42C14.63 46.28 15.25 46.31 15.21 46.2Z" fill="currentColor"/>
<path d="M49.48 45.68C48.8 48.74 48.32 51.86 47.81 54.99C47.63 56.13 47.61 57.29 47.44 58.44C47.16 60.44 46.9033 62.4734 46.67 64.54L46.08 70.69C45.92 72.52 45.89 74.35 45.88 76.17C45.88 77.34 45.95 78.5 45.88 79.68C45.81 80.86 45.57 82.03 45.33 83.21C45.16 83.94 44.84 83.83 44.33 83.21C43.6225 82.2852 43.0842 81.2424 42.74 80.13C42.67 79.84 42.58 79.54 42.53 79.24L42.46 78.34L42.32 76.55C42.24 75.35 42.18 74.14 42.15 72.94C42.0488 70.5147 42.1626 68.0852 42.49 65.68C42.88 62.79 42.79 59.75 43.06 56.78C43.2 55.15 43.39 53.51 43.61 51.89C43.83 50.27 44.12 48.64 44.42 47.02C44.78 45.02 45.22 43.02 45.67 41.02C46.37 38.02 47.27 35.02 48.2 32.13C48.8463 29.8146 49.6141 27.5348 50.5 25.3C50.6815 24.792 50.8987 24.2974 51.15 23.82C51.3517 23.4395 51.5824 23.0751 51.84 22.73C52.0474 22.5006 52.2947 22.3109 52.57 22.17C52.8154 22.0669 53.0788 22.0138 53.345 22.0138C53.6111 22.0138 53.8746 22.0669 54.12 22.17C54.3857 22.2386 54.6463 22.3254 54.9 22.43C55.7 22.82 55.9 23.91 55.51 25.17C54.18 28.8 52.84 32.55 51.71 36.56C50.89 39.56 50.13 42.56 49.57 45.68H49.48Z" fill="currentColor"/>
<path d="M57.45 25.76C57.22 25.69 57.36 25.37 57.72 24.94C57.9035 24.7586 58.1165 24.6098 58.35 24.5H58.85C58.92 24.5 59.85 24.96 60.15 25.06C60.4544 25.1708 60.7408 25.3258 61 25.52C61.51 25.89 62.07 26.23 62.62 26.58C62.7412 26.6615 62.8407 26.7714 62.91 26.9C63.154 27.3474 63.5415 27.6996 64.01 27.9C64.0526 27.9246 64.1008 27.9375 64.15 27.9375C64.1991 27.9375 64.2474 27.9246 64.29 27.9C64.55 27.8 65.7 28.5 65.77 28.68C65.95 29.13 66.21 29.5 66.4 29.94C66.4 30 66.52 30 66.4 30.18C66.23 30.6 66.4 30.63 66.46 30.74C66.5852 30.9038 66.677 31.0907 66.73 31.29C66.7186 31.4873 66.6816 31.6823 66.62 31.87C66.4842 32.1429 66.2976 32.3873 66.07 32.59C65.88 32.7 65.74 32.99 65.58 33.21C65.5282 33.287 65.4714 33.3605 65.41 33.43C64.8331 33.6199 64.2268 33.7045 63.62 33.68C63.56 33.68 62.21 32.78 62.04 32.68C61.87 32.58 61.94 32.49 61.91 32.38C61.88 32.27 60.8 31.6 60.78 31.55C60.62 31.31 60.35 31.2 60.39 30.76C60.39 30.7292 60.3816 30.699 60.3658 30.6725C60.3499 30.6461 60.3272 30.6245 60.3 30.61C59.9742 30.2559 59.6983 29.8589 59.48 29.43C59.3345 29.2374 59.1776 29.0537 59.01 28.88C59.01 28.88 59.01 28.78 59.01 28.74C59.01 28.7 59.01 28.61 58.95 28.57C58.6153 28.1003 58.2547 27.6497 57.87 27.22C57.78 27.12 57.6 26.43 57.48 26.32C57.36 26.21 57.54 25.78 57.45 25.76Z" fill="currentColor"/>
<path d="M60.37 21.8C60.17 21.93 59.98 21.66 59.84 21.17C59.7934 20.939 59.7934 20.701 59.84 20.47C59.94 20.32 60.03 20.19 60.12 20.08C60.21 19.97 61.12 19.6 61.44 19.4C61.7321 19.2214 62.0488 19.0866 62.38 19C63.03 18.8 63.68 18.55 64.33 18.32C64.4734 18.2658 64.6274 18.2452 64.78 18.26C65.3119 18.2935 65.8424 18.1756 66.31 17.92C66.39 17.92 66.48 17.87 66.54 17.72C67.015 17.3418 67.5801 17.0937 68.18 17C68.67 17.1 69.18 17.09 69.63 17.17C69.7 17.17 69.75 17.11 69.86 17.26C70.09 17.61 70.21 17.51 70.36 17.5C70.5733 17.4838 70.7876 17.511 70.99 17.58C71.1431 17.684 71.2782 17.8124 71.39 17.96C71.5266 18.2027 71.6086 18.4723 71.63 18.75C71.6513 18.9896 71.7157 19.2233 71.82 19.44C71.82 19.51 71.88 19.62 71.9 19.68C71.6541 20.2331 71.3159 20.7403 70.9 21.18C70.9 21.25 69.24 21.79 69.06 21.88C68.88 21.97 68.84 21.88 68.73 21.82C68.62 21.76 67.37 22.26 67.31 22.25C67.01 22.25 66.75 22.39 66.4 22.14C66.375 22.1228 66.3454 22.1136 66.315 22.1136C66.2847 22.1136 66.255 22.1228 66.23 22.14C65.7315 22.1951 65.2285 22.1951 64.73 22.14C64.47 22.14 64.22 22.19 63.97 22.21C63.9201 22.2145 63.8699 22.2145 63.82 22.21C63.7608 22.196 63.6992 22.196 63.64 22.21C63.05 22.28 62.42 22.21 61.83 22.32C61.69 22.32 60.99 22.12 60.83 22.15C60.67 22.18 60.45 21.74 60.37 21.8Z" fill="currentColor"/>
<path d="M53.07 16.87C53.34 16.98 53.07 17.35 52.46 17.75C52.147 17.9247 51.8101 18.0527 51.46 18.13H50.86C50.79 18.13 49.86 17.57 49.49 17.42C49.1725 17.2735 48.8844 17.0701 48.64 16.82C48.24 16.29 47.8 15.82 47.37 15.25C47.2756 15.1247 47.2168 14.9761 47.2 14.82C47.1097 14.288 46.8376 13.8037 46.43 13.45C46.36 13.39 46.33 13.31 46.16 13.33C45.99 13.35 45 12.26 45 12C45 11.46 44.81 11 44.75 10.48C44.75 10.41 44.65 10.39 44.75 10.23C45.01 9.86003 44.87 9.79003 44.82 9.65003C44.7294 9.45183 44.6784 9.2378 44.67 9.02003C44.7228 8.82914 44.8037 8.64715 44.91 8.48003C45.104 8.25918 45.3425 8.08195 45.61 7.96003C45.8418 7.853 46.0493 7.69989 46.22 7.51003L46.45 7.35003C47.0535 7.3395 47.6547 7.42732 48.23 7.61003C48.23 7.61003 49.51 8.79003 49.67 8.90003C49.83 9.01003 49.74 9.10003 49.75 9.22003C49.76 9.34003 50.75 10.22 50.81 10.22C50.93 10.48 51.21 10.63 51.07 11.07C51.07 11.16 51.07 11.19 51.13 11.23C51.4089 11.6344 51.631 12.0752 51.79 12.54C51.9019 12.7629 52.0359 12.9739 52.19 13.17C52.19 13.17 52.19 13.28 52.19 13.33C52.19 13.38 52.19 13.47 52.19 13.51C52.56 13.97 52.66 14.62 53.02 15.11C53.11 15.22 53.02 16.04 53.17 16.17C53.32 16.3 53 16.84 53.07 16.87Z" fill="currentColor"/>
<path d="M57.58 16.79C57.58 17.06 57.16 16.98 56.58 16.65C56.3554 16.4635 56.1599 16.2444 56 16C55.93 15.81 55.86 15.63 55.82 15.49C55.78 15.35 55.99 14.41 55.99 14.02C56.0143 13.6757 56.0954 13.3378 56.23 13.02C56.56 12.46 56.85 11.85 57.16 11.26C57.2332 11.1251 57.3399 11.0115 57.47 10.93C57.8951 10.6194 58.2103 10.1816 58.37 9.68001C58.37 9.60001 58.47 9.53001 58.37 9.40001C58.27 9.27001 58.9 7.93001 59.07 7.82001C59.52 7.56001 59.85 7.23001 60.27 6.95001C60.33 6.95001 60.27 6.82001 60.49 6.85001C60.88 6.92001 60.9 6.77001 61 6.66001C61.1336 6.49655 61.3007 6.36357 61.49 6.27001C61.6618 6.23706 61.8382 6.23706 62.01 6.27001C62.2595 6.33842 62.4892 6.46525 62.68 6.64001C62.79 6.80001 63.05 6.87001 63.25 6.98001L63.47 7.10001C63.6713 7.62512 63.7894 8.17846 63.82 8.74001C63.82 8.74001 63.24 10.33 63.2 10.52C63.16 10.71 63.05 10.67 62.95 10.72C62.85 10.77 62.47 12.03 62.44 12.07C62.25 12.28 62.22 12.58 61.8 12.65C61.72 12.65 61.71 12.72 61.68 12.77C61.4385 13.1841 61.1388 13.5613 60.79 13.89C60.6416 14.0865 60.5079 14.2938 60.39 14.51C60.39 14.51 60.3 14.51 60.26 14.58C60.2049 14.605 60.1543 14.6388 60.11 14.68C59.84 15.2 59.32 15.56 59.03 16.07C58.96 16.19 58.25 16.5 58.17 16.65C58.09 16.8 57.57 16.69 57.58 16.79Z" fill="currentColor"/>
<path d="M49.87 20.45C50.07 20.26 50.22 20.65 50.3 21.37C50.3228 21.7055 50.2958 22.0424 50.22 22.37C50.1335 22.5444 50.0331 22.7116 49.92 22.87C49.87 22.95 48.92 23.33 48.6 23.51C48.3085 23.662 47.9882 23.7506 47.66 23.77C47.01 23.83 46.37 23.95 45.72 24.02C45.5686 24.0375 45.4155 24.0096 45.28 23.94C44.8055 23.74 44.2785 23.7014 43.78 23.83C43.7 23.83 43.61 23.83 43.53 23.97C43.45 24.11 42.04 24.29 41.86 24.19C41.42 23.96 40.97 23.77 40.52 23.54C40.46 23.54 40.39 23.54 40.33 23.4C40.2 23.01 40.06 23.07 39.92 23.04C39.7091 22.99 39.5092 22.9019 39.33 22.78C39.2165 22.6398 39.1285 22.4807 39.07 22.31C39.0123 22.0532 39.0123 21.7868 39.07 21.53C39.1366 21.3099 39.157 21.0784 39.13 20.85V20.6C39.4579 20.1731 39.8491 19.7988 40.29 19.49L42.01 19.11C42.1 19.11 42.2 19.16 42.29 19.22C42.38 19.28 43.62 19 43.67 19C43.93 19.05 44.19 18.92 44.45 19.25C44.45 19.31 44.55 19.3 44.61 19.25C45.064 19.2401 45.5166 19.3043 45.95 19.44C46.1796 19.4599 46.4104 19.4599 46.64 19.44C46.64 19.44 46.72 19.49 46.76 19.51C46.8 19.53 46.87 19.59 46.92 19.59C47.4635 19.6616 48.0121 19.6883 48.56 19.67C48.69 19.67 49.3 20.03 49.45 19.99C49.6 19.95 49.79 20.52 49.87 20.45Z" fill="currentColor"/>
<path d="M71.2 55.24C70.04 57.15 68.93 59.12 67.9 61.13C67.52 61.86 67.28 62.65 66.9 63.39L65.9 65.39L64.9 67.32C64.21 68.62 63.55 69.93 62.9 71.32C62.36 72.5 61.98 73.75 61.55 74.96C61 76.41 60.48 78 59.82 79.47C59.61 79.94 59.25 79.84 58.88 79.32C58.3739 78.5812 58.1053 77.7056 58.11 76.81C58.271 73.2951 59.1994 69.858 60.83 66.74C61.2731 65.782 61.6637 64.8005 62 63.8C62.39 62.8 62.76 61.8 63.2 60.8C64.2 58.67 65.25 56.58 66.36 54.51C67.03 53.24 67.77 51.98 68.47 50.73C69.56 48.82 70.77 46.97 71.99 45.14C72.8437 43.6319 73.8063 42.1881 74.87 40.82C75.1259 40.514 75.4032 40.2266 75.7 39.96C76.85 38.96 77.62 39.09 78.29 39.6C78.4513 39.7095 78.605 39.8298 78.75 39.96C79.15 40.42 79.01 41.15 78.66 42.04C77.56 44.54 76.08 46.89 74.66 49.52C73.53 51.39 72.33 53.28 71.25 55.26L71.2 55.24Z" fill="currentColor"/>
<path d="M80.82 45.41C80.65 45.33 80.82 45.09 81.15 44.79C81.3216 44.6655 81.5149 44.5739 81.72 44.52C81.8564 44.5084 81.9936 44.5084 82.13 44.52C82.19 44.52 82.84 45.05 83.13 45.18C83.3572 45.3069 83.5603 45.4728 83.73 45.67C84.1 46.03 84.49 46.38 84.89 46.72C84.9697 46.8049 85.034 46.903 85.08 47.01C85.2159 47.3947 85.4857 47.7177 85.84 47.92C85.9 47.92 85.94 48.02 86.07 47.99C86.2 47.96 87.14 48.64 87.18 48.79C87.27 49.18 87.44 49.51 87.55 49.89C87.55 49.95 87.64 49.95 87.55 50.09C87.36 50.42 87.48 50.46 87.55 50.56C87.6417 50.7046 87.6966 50.8694 87.71 51.04C87.6881 51.2011 87.6373 51.357 87.56 51.5C87.4123 51.7006 87.2333 51.8761 87.03 52.02C86.85 52.08 86.71 52.3 86.55 52.45C86.4984 52.5085 86.4415 52.5621 86.38 52.61C85.897 52.6951 85.4029 52.6951 84.92 52.61C84.86 52.61 83.92 51.72 83.74 51.61C83.56 51.5 83.68 51.45 83.67 51.35C83.66 51.25 82.85 50.58 82.83 50.53C82.73 50.32 82.53 50.2 82.6 49.84C82.6 49.77 82.6 49.74 82.6 49.71C82.3587 49.3997 82.1571 49.0604 82 48.7C81.92 48.52 81.79 48.36 81.69 48.18C81.59 48 81.69 48.1 81.69 48.06C81.706 48.0147 81.706 47.9653 81.69 47.92C81.482 47.4851 81.2517 47.0612 81 46.65C80.93 46.56 80.89 45.97 80.81 45.87C80.73 45.77 80.89 45.44 80.82 45.41Z" fill="currentColor"/>
<path d="M83.46 41.12C83.28 41.22 83.17 40.95 83.12 40.49C83.1152 40.2781 83.1526 40.0673 83.23 39.87C83.3249 39.765 83.425 39.6649 83.53 39.57C83.59 39.57 84.44 39.31 84.72 39.17C84.9813 39.0593 85.2577 38.9885 85.54 38.96C86.1 38.88 86.66 38.76 87.22 38.64C87.3449 38.6102 87.4751 38.6102 87.6 38.64C88.0288 38.7458 88.48 38.7143 88.89 38.55C88.9353 38.5465 88.9788 38.5306 89.0158 38.5042C89.0528 38.4778 89.0819 38.4417 89.1 38.4C89.5254 38.142 90.0125 38.0038 90.51 38C90.91 38.15 91.3 38.2 91.71 38.34C91.76 38.34 91.82 38.34 91.88 38.45C92.04 38.8 92.15 38.72 92.28 38.74C92.4626 38.749 92.6406 38.8004 92.8 38.89C92.9171 39.0035 93.015 39.1352 93.09 39.28C93.1748 39.5171 93.2122 39.7685 93.2 40.02C93.1761 40.2359 93.2 40.4544 93.27 40.66V40.89C93.0058 41.34 92.6677 41.7423 92.27 42.08C92.27 42.14 90.83 42.4 90.67 42.46C90.51 42.52 90.49 42.41 90.4 42.36C90.31 42.31 89.2 42.58 89.15 42.56C88.91 42.56 88.67 42.56 88.41 42.34C88.41 42.28 88.31 42.34 88.26 42.34C87.8333 42.3264 87.4099 42.2592 87 42.14C86.78 42.14 86.57 42.14 86.35 42.09C86.35 42.09 86.28 42.09 86.24 42.03C86.1938 42.0015 86.1431 41.9812 86.09 41.97C85.58 41.97 85.09 41.78 84.56 41.79C84.44 41.79 83.89 41.48 83.76 41.48C83.63 41.48 83.53 41.09 83.46 41.12Z" fill="currentColor"/>
<path d="M76.71 35.13C76.92 35.27 76.62 35.54 76.05 35.81C75.7726 35.9213 75.4785 35.9855 75.18 36C75.0006 35.9685 74.8236 35.925 74.65 35.87C74.58 35.87 73.87 35.12 73.56 34.87C73.3049 34.6639 73.0853 34.4173 72.91 34.14C72.65 33.58 72.34 33.04 72.06 32.48C71.9893 32.3556 71.958 32.2126 71.97 32.07C71.9767 31.5771 71.8064 31.0981 71.49 30.72C71.49 30.65 71.43 30.57 71.27 30.56C71.11 30.55 70.39 29.45 70.4 29.27C70.4 28.79 70.34 28.38 70.33 27.94C70.33 27.87 70.25 27.85 70.33 27.72C70.59 27.42 70.47 27.35 70.43 27.24C70.3733 27.0689 70.343 26.8902 70.34 26.71C70.3937 26.5498 70.4641 26.3956 70.55 26.25C70.7093 26.0476 70.9063 25.8778 71.13 25.75C71.32 25.75 71.48 25.49 71.65 25.34L71.84 25.18C72.4332 25.224 73.0114 25.3873 73.54 25.66L73.74 25.88C73.8885 26.0259 74.0256 26.1831 74.15 26.35C74.44 26.71 74.73 27.08 74.8 27.15C74.87 27.22 74.8 27.35 74.8 27.47C74.8 27.59 75.64 28.57 75.65 28.62C75.72 28.89 75.95 29.08 75.77 29.46C75.77 29.54 75.77 29.58 75.77 29.63C75.9704 30.0539 76.1053 30.5057 76.17 30.97C76.2419 31.1923 76.3288 31.4095 76.43 31.62C76.43 31.62 76.43 31.72 76.43 31.77C76.4101 31.825 76.4101 31.8851 76.43 31.94C76.68 32.44 76.66 33.05 76.9 33.57C76.96 33.69 76.78 34.41 76.9 34.57C77.02 34.73 76.62 35.08 76.71 35.13Z" fill="currentColor"/>
<path d="M81.48 35.6C81.48 35.87 81.02 35.73 80.48 35.33C80.2642 35.1253 80.0849 34.8852 79.95 34.62C79.95 34.42 79.88 34.23 79.86 34.07C79.84 33.91 80.25 32.99 80.33 32.58C80.4178 32.2255 80.5631 31.8877 80.76 31.58C81.2 31.03 81.61 30.45 82.04 29.88C82.1374 29.7517 82.2643 29.6488 82.41 29.58C82.9038 29.3132 83.3074 28.9061 83.57 28.41C83.57 28.33 83.69 28.27 83.64 28.12C83.59 27.97 84.45 26.68 84.64 26.59C85.14 26.37 85.53 26.07 86.01 25.84C86.08 25.84 86.09 25.72 86.25 25.77C86.64 25.89 86.68 25.77 86.8 25.64C86.9683 25.4938 87.1613 25.3787 87.37 25.3C87.5452 25.2679 87.7248 25.2679 87.9 25.3C88.1384 25.405 88.3477 25.5663 88.51 25.77C88.58 25.95 88.84 26.06 89.02 26.19L89.21 26.34C89.3051 26.9161 89.3051 27.5039 89.21 28.08C89.21 28.08 88.33 29.65 88.21 29.84C88.09 30.03 88.04 29.97 87.93 30.02C87.82 30.07 87.2 31.3 87.15 31.33C86.93 31.53 86.84 31.83 86.4 31.85C86.32 31.85 86.29 31.91 86.26 31.96C85.934 32.3429 85.5572 32.6794 85.14 32.96C84.9563 33.1438 84.7827 33.3374 84.62 33.54C84.62 33.54 84.53 33.54 84.48 33.6C84.43 33.66 84.35 33.6 84.31 33.69C83.94 34.18 83.31 34.48 82.96 34.97C82.86 35.08 82.08 35.31 81.96 35.45C81.84 35.59 81.49 35.49 81.48 35.6Z" fill="currentColor"/>
<path d="M73.08 38.22C73.28 38.07 73.32 38.46 73.27 39.22C73.2339 39.5614 73.1567 39.8972 73.04 40.22C72.9286 40.3795 72.8049 40.5299 72.67 40.67C72.6 40.74 71.67 40.96 71.36 41.08C71.0803 41.1746 70.7822 41.202 70.49 41.16L68.77 41C68.6398 40.9832 68.5178 40.9275 68.42 40.84C68.0731 40.5538 67.6283 40.4139 67.18 40.45C67.1356 40.4395 67.089 40.4425 67.0463 40.4585C67.0036 40.4745 66.9665 40.5029 66.94 40.54C66.78 40.74 65.61 40.54 65.49 40.45C65.17 40.15 64.84 39.89 64.49 39.6C64.49 39.6 64.37 39.6 64.36 39.43C64.36 39.03 64.21 39.07 64.1 39.01C63.9386 38.9347 63.7954 38.8256 63.68 38.69C63.6147 38.5333 63.571 38.3685 63.55 38.2C63.5598 37.9352 63.6174 37.6743 63.72 37.43C63.8095 37.2204 63.8635 36.9974 63.88 36.77V36.52C64.2587 36.1543 64.6902 35.8476 65.16 35.61H65.9C66.28 35.61 66.66 35.61 66.74 35.61C66.82 35.61 66.89 35.7 66.95 35.77C67.01 35.84 68.1 35.77 68.14 35.77C68.35 35.86 68.6 35.77 68.74 36.15C68.74 36.23 68.82 36.22 68.86 36.22C69.2455 36.2992 69.6143 36.4447 69.95 36.65C70.1323 36.7276 70.3239 36.7814 70.52 36.81C70.52 36.81 70.58 36.88 70.61 36.91C70.64 36.94 70.68 37 70.72 37.01C71.1555 37.1788 71.6082 37.2996 72.07 37.37C72.18 37.37 72.6 37.84 72.73 37.83C72.86 37.82 73 38.29 73.08 38.22Z" fill="currentColor"/>
</svg>
