<svg width="96" height="96" viewBox="0 0 96 96" fill="none" xmlns="http://www.w3.org/2000/svg">
<path d="M49 66.53C49.25 65.4 49.52 64.24 49.86 63.04C50.2176 61.7283 50.7277 60.463 51.38 59.27C51.7819 58.5351 52.287 57.8616 52.88 57.27C53.2198 56.9421 53.5955 56.6537 54 56.41C54.352 56.1897 54.7236 56.0023 55.11 55.85C56.4191 55.3034 57.806 54.966 59.22 54.85C61.0259 54.6835 62.8451 54.7305 64.64 54.99C66.13 55.21 67.55 55.47 68.91 55.64C69.6 55.74 70.25 55.8 70.91 55.83C71.72 55.83 72.54 55.92 73.25 56C74.71 56.15 76.1 56.3 77.45 56.32C78.6575 56.4205 79.872 56.2426 81 55.8C81.2868 55.6671 81.5096 55.4263 81.62 55.13C81.6725 54.9584 81.6961 54.7793 81.69 54.6C81.69 54.36 81.69 54.12 81.61 53.87C81.3237 52.8251 80.7686 51.8735 80 51.11C78.9065 50.0044 77.7149 49.0002 76.44 48.11C75.17 47.11 73.85 46.11 72.55 45.11C71.75 44.42 72.04 44.25 73 44.34C74.5561 44.4354 76.0878 44.7728 77.54 45.34C77.94 45.51 78.36 45.69 78.75 45.9C79.14 46.11 79.52 46.38 79.9 46.63C80.6882 47.1426 81.434 47.7178 82.13 48.35C82.8924 49.0465 83.5643 49.836 84.13 50.7C84.775 51.6975 85.1947 52.8237 85.36 54C85.4787 54.7229 85.4411 55.4628 85.25 56.17C85.024 56.9788 84.5935 57.7158 84 58.31C83.0384 59.1848 81.8495 59.7705 80.57 60C78.6968 60.3457 76.7828 60.4131 74.89 60.2C73.89 60.11 72.8 60.02 71.89 60H71.24H70.37C69.8 60 69.24 60 68.69 60C66.5 59.92 64.44 59.73 62.5 59.66C60.39 59.6 58.37 59.58 56.85 60.3L56.7 60.36H56.62C56.5626 60.3823 56.5088 60.4126 56.46 60.45C56.3314 60.5352 56.2138 60.636 56.11 60.75C55.8325 61.048 55.6 61.3848 55.42 61.75C54.9596 62.6531 54.5943 63.6015 54.33 64.58C53.59 67.13 53.12 69.93 52.33 72.74C52.0498 73.8447 51.6991 74.9302 51.28 75.99C50.8202 77.1668 50.1415 78.2459 49.28 79.17C48.3019 80.2374 46.9537 80.8918 45.51 81C44.0709 81.0944 42.6473 80.6567 41.51 79.77C40.0139 78.5339 38.8575 76.937 38.15 75.13C37.4761 73.4793 37.019 71.7482 36.79 69.98C36.79 69.6 36.68 69.22 36.63 68.84C36.58 68.46 36.56 68.08 36.55 67.7C36.5343 67.0979 36.5711 66.4957 36.66 65.9C36.7577 65.4825 36.9232 65.0839 37.15 64.72C37.4502 64.1938 37.9135 63.7796 38.47 63.54C38.6874 63.4176 38.9149 63.3139 39.15 63.23C39.84 63.06 40.41 64.23 41.06 66.09C41.25 67.46 41.51 68.78 41.78 70.09C42.0936 71.287 42.5016 72.4574 43 73.59C43.315 74.4584 43.8408 75.2349 44.53 75.85C44.6653 75.9777 44.8361 76.0614 45.02 76.09C45.0339 76.083 45.0493 76.0793 45.065 76.0793C45.0806 76.0793 45.096 76.083 45.11 76.09C45.11 76.09 45.19 76.09 45.23 76.09C45.27 76.09 45.39 76.09 45.46 76.09C45.5809 76.05 45.6954 75.9928 45.8 75.92C46.0076 75.7391 46.1893 75.5305 46.34 75.3C46.8133 74.572 47.1898 73.7853 47.46 72.96C48.0506 70.8544 48.5247 68.7178 48.88 66.56L49 66.53Z" fill="currentColor"/>
<path d="M58.32 61.52C58.21 61.52 58.04 61.52 57.73 61.92C57.3529 62.4134 57.0497 62.9591 56.83 63.54C56.3136 65.1482 55.9356 66.7975 55.7 68.47C55.39 70.26 55.1 72.15 54.7 74.1C54.4886 75.1211 54.1978 76.1242 53.83 77.1C53.4314 78.1843 52.9255 79.2262 52.32 80.21C51.5887 81.3696 50.6167 82.3586 49.47 83.11C49.1573 83.3205 48.8219 83.4949 48.47 83.63L47.86 83.89C47.6602 83.9561 47.4565 84.0096 47.25 84.05C46.4314 84.2451 45.5785 84.2451 44.76 84.05C44.3437 83.9839 43.9373 83.8663 43.55 83.7C43.3522 83.6316 43.1613 83.5445 42.98 83.44L42.52 83.16C41.9398 82.8103 41.3999 82.3978 40.91 81.93C40.4735 81.4824 40.0692 81.0045 39.7 80.5C39.3659 80.0173 39.0587 79.5166 38.78 79C37.043 75.24 36.1619 71.1416 36.2 67C36.1248 64.1704 36.2618 61.3391 36.61 58.53C36.6612 58.2961 36.6612 58.0539 36.61 57.82C36.5896 57.7456 36.5519 57.6771 36.5 57.62C36.5 57.54 36.39 57.5 36.33 57.45C36.1336 57.3514 35.9193 57.2936 35.7 57.28C35.1823 57.2192 34.6612 57.1924 34.14 57.2C31.8652 57.3271 29.6007 57.5977 27.36 58.01C25.01 58.41 22.6 58.82 20.07 59.01C17.3551 59.3293 14.6034 59.0633 12 58.23C10.4491 57.6872 9.09264 56.6994 8.09998 55.39C7.85188 55.0782 7.63422 54.7433 7.44998 54.39C7.22948 54.0227 7.05484 53.6298 6.92998 53.22C6.84437 53.0139 6.78069 52.7994 6.73998 52.58C6.65869 52.3533 6.6017 52.1187 6.56998 51.88C6.49227 51.3906 6.47547 50.8935 6.51998 50.4C6.58036 49.9174 6.68753 49.4418 6.83998 48.98C6.99247 48.5498 7.19735 48.1401 7.44998 47.76C7.88274 47.0746 8.40389 46.4492 8.99998 45.9C10.0407 44.984 11.1892 44.1982 12.42 43.56C14.6631 42.3858 17.0055 41.412 19.42 40.65C21.75 39.88 24.07 39.23 26.36 38.57L29.73 37.57C30.28 37.41 30.83 37.25 31.33 37.08C31.5329 37.0302 31.728 36.9528 31.91 36.85C32.0441 36.8029 32.1718 36.7391 32.29 36.66C32.4877 36.5032 32.6341 36.291 32.7107 36.0505C32.7873 35.8101 32.7905 35.5523 32.72 35.31C32.6608 35.0644 32.5664 34.8287 32.44 34.61C32.2253 34.2346 31.9813 33.8768 31.71 33.54C30.4156 31.9984 28.9756 30.5852 27.41 29.32C25.82 27.95 24.16 26.61 22.55 25.12C21.7077 24.3472 20.9254 23.5115 20.21 22.62C19.7778 22.1253 19.4053 21.5816 19.1 21C18.9149 20.6416 18.7739 20.2622 18.68 19.87C18.5723 19.4826 18.5184 19.0821 18.52 18.68C18.5703 17.6434 18.9805 16.6567 19.68 15.89C20.283 15.2146 21.0181 14.67 21.84 14.29C23.3039 13.6379 24.8874 13.2974 26.49 13.29C29.4449 13.2842 32.3715 13.8654 35.1 15C36.4419 15.5242 37.7451 16.1424 39 16.85C40.2155 17.6022 41.3751 18.441 42.47 19.36C44.6643 21.1668 46.5345 23.3345 48 25.77C48.89 27.29 49 28.08 48.8 28.15C48.6 28.22 47.89 27.64 46.8 26.73C45.277 25.5461 43.6731 24.4701 42 23.51C41 22.92 39.89 22.35 38.71 21.79C38.12 21.51 37.52 21.22 36.88 20.98C36.24 20.74 35.65 20.38 35.01 20.1C32.8033 19.054 30.4311 18.4008 28 18.17C26.9665 18.0661 25.923 18.1303 24.91 18.36C24.5104 18.4548 24.1265 18.6063 23.77 18.81C23.625 18.892 23.4848 18.9822 23.35 19.08L23.23 19.15C23.23 19.15 23.15 19.01 23.4 19.51C24.0898 20.4395 24.8965 21.2764 25.8 22C27.74 23.7 29.96 25.35 32.16 27.25C33.3497 28.2531 34.4505 29.3572 35.45 30.55C35.7331 30.8881 35.9969 31.242 36.24 31.61L36.43 31.9C36.5064 32.0108 36.5733 32.1279 36.63 32.25L37.08 33.14C37.6291 34.3228 37.8369 35.6354 37.68 36.93C37.5328 38.1923 36.9658 39.3686 36.07 40.27C35.9667 40.3899 35.8529 40.5004 35.73 40.6L35.34 40.88L34.54 41.43L33.75 41.84L33.2 42.1C32.48 42.44 31.8 42.73 31.11 43L29.11 43.65C26.42 44.48 23.8 45.23 21.27 46.09C18.8234 46.8033 16.4443 47.7302 14.16 48.86C13.5935 49.1621 13.0548 49.5134 12.55 49.91C12.2298 50.2002 11.9322 50.5144 11.66 50.85C11.5685 50.9474 11.4974 51.0623 11.451 51.1876C11.4047 51.313 11.3839 51.4464 11.39 51.58C11.4291 51.6736 11.4592 51.7707 11.48 51.87L11.66 52.2C11.7743 52.4199 11.9153 52.6248 12.08 52.81C12.9249 53.634 14.0254 54.1455 15.2 54.26C16.7021 54.4602 18.2224 54.4837 19.73 54.33C22.94 54.03 26.26 53.33 29.73 52.77C31.5491 52.4182 33.3972 52.2374 35.25 52.23C36.5019 52.227 37.7398 52.493 38.88 53.01C39.5102 53.3159 40.0691 53.7509 40.5204 54.2866C40.9718 54.8224 41.3055 55.447 41.5 56.12C41.58 56.49 41.65 56.88 41.7 57.26C41.725 57.6229 41.725 57.9871 41.7 58.35V58.89V59.25L41.64 59.92L41.37 62.62L41.2 65.31C41.2 66.2 41.2 67.08 41.2 67.97C41.2 68.86 41.3 69.72 41.35 70.6C41.4 71.48 41.55 72.33 41.76 73.14C42.0232 74.7215 42.6421 76.2225 43.57 77.53C43.77 77.84 44.04 78.04 44.25 78.32C44.4828 78.5228 44.7338 78.7035 45 78.86C45.1766 78.9908 45.377 79.0859 45.59 79.14C45.7706 79.1849 45.9594 79.1849 46.14 79.14C46.2243 79.1288 46.3058 79.1017 46.38 79.06C46.5082 79.0208 46.6272 78.9562 46.73 78.87C46.9698 78.7121 47.1883 78.5238 47.38 78.31C47.8412 77.775 48.2096 77.1666 48.47 76.51C48.7941 75.7528 49.055 74.9702 49.25 74.17C49.49 73.35 49.69 72.48 49.88 71.6L50.97 66.1C51.2065 64.9024 51.5035 63.7175 51.86 62.55C52.2173 61.2378 52.7774 59.9894 53.52 58.85C53.7375 58.5299 53.9817 58.2288 54.25 57.95C54.5291 57.6435 54.841 57.3686 55.18 57.13C55.5298 56.8779 55.9052 56.6634 56.3 56.49C56.6969 56.3366 57.1047 56.2129 57.52 56.12C57.8798 56.0527 58.2442 56.0126 58.61 56H59.19H59.7L61.41 56.17C65.96 56.58 70.52 56.93 75.02 56.98C76.6894 57.0147 78.3594 56.9445 80.02 56.77C80.6222 56.751 81.223 56.701 81.82 56.62C82.2867 56.5621 82.7459 56.4549 83.19 56.3C83.4191 56.2367 83.6296 56.1191 83.8037 55.9572C83.9777 55.7953 84.1102 55.5939 84.19 55.37C84.2153 55.1351 84.1939 54.8976 84.1269 54.671C84.06 54.4445 83.9489 54.2334 83.8 54.05C83.5637 53.6779 83.2961 53.3266 83 53C82.5554 52.5435 82.0882 52.1096 81.6 51.7C78.8908 49.6207 76.0699 47.6911 73.15 45.92C72.3877 45.3926 71.6565 44.8217 70.96 44.21C70.5692 43.8968 70.1953 43.563 69.84 43.21C69.4062 42.7818 69.0144 42.313 68.67 41.81C67.9549 40.803 67.6379 39.5669 67.78 38.34C67.85 38.04 67.9 37.74 67.98 37.45L68.33 36.6C68.6152 36.0758 68.95 35.5802 69.33 35.12C69.5812 34.7975 69.8588 34.4965 70.16 34.22C70.44 33.93 70.73 33.7 71.01 33.45L71.78 32.8C72.01 32.61 72.23 32.39 72.46 32.19C73.3672 31.3311 74.2158 30.4124 75 29.44C76.5592 27.4851 77.9005 25.3659 79 23.12C79.26 22.57 79.5 22.02 79.71 21.47L79.99 20.68C80.04 20.5 80.11 20.28 80.13 20.15C80.3212 19.5892 80.3212 18.9808 80.13 18.42C79.998 18.1657 79.7826 17.9645 79.52 17.85C79.2563 17.7433 78.9744 17.6889 78.69 17.69C78.4183 17.7081 78.1497 17.7584 77.89 17.84C77.76 17.84 77.64 17.94 77.52 17.99L77.31 18.07L76.93 18.26C75.1 19.1 73.21 20.37 71.1 21.47C69.4055 22.4107 67.6594 23.2554 65.87 24C65.1716 24.256 64.4607 24.4763 63.74 24.66C63.07 24.81 62.47 24.92 61.92 25.01C60.3363 25.3268 58.6925 25.116 57.24 24.41C56.7679 24.2004 56.3188 23.9424 55.9 23.64C55.45 23.19 56.13 22.69 57.47 21.98C58.81 21.27 60.8 20.14 63.33 18.5C65.26 17.38 67.16 16.08 69.19 14.73C70.19 14.04 71.28 13.41 72.46 12.73L73.36 12.25L74.36 11.8L74.86 11.57L75.65 11.32C76.18 11.17 76.71 10.95 77.25 10.85L78.89 10.62C79.43 10.62 79.97 10.62 80.51 10.67C81.0414 10.7163 81.5671 10.8134 82.08 10.96C82.5812 11.1227 83.0692 11.3233 83.54 11.56C84.4811 12.0465 85.2995 12.7403 85.9334 13.5891C86.5674 14.4379 87.0005 15.4195 87.2 16.46C87.4059 17.5571 87.4059 18.6829 87.2 19.78C87.1185 20.3574 86.9982 20.9287 86.84 21.49C86.71 22.08 86.5 22.49 86.34 23.04C85.8126 24.4245 85.1703 25.7625 84.42 27.04C83.0178 29.4229 81.3867 31.6634 79.55 33.73C78.6107 34.789 77.6089 35.7908 76.55 36.73C76.26 36.98 75.98 37.22 75.68 37.46L74.89 38.08L74.35 38.5L73.93 38.89C73.8867 38.9613 73.8287 39.0227 73.76 39.07L74.11 39.42C74.9805 40.0275 75.889 40.5786 76.83 41.07L80.08 43C81.8342 44.025 83.5302 45.1468 85.16 46.36L85.8 46.87L86.12 47.12L86.5 47.45L87.27 48.13L88.27 49.13C88.94 49.79 89.44 50.53 90.03 51.23L90.7 52.35C90.8214 52.5243 90.9284 52.7083 91.02 52.9L91.22 53.46C91.8453 54.8689 91.9412 56.4561 91.49 57.93C91.0167 59.404 90.0396 60.6644 88.73 61.49C87.2774 62.4084 85.6495 63.0146 83.95 63.27C83.5 63.36 83.06 63.45 82.63 63.5L81.98 63.58L81.42 63.64C80.8997 63.7097 80.374 63.7298 79.85 63.7C78.85 63.7 77.85 63.55 76.85 63.51C75.85 63.47 74.85 63.42 73.85 63.36C71.91 63.23 69.99 63.04 68.09 62.84C66.19 62.64 64.29 62.4 62.41 62.15L59.59 61.77L58.93 61.68C58.8436 61.6897 58.7564 61.6897 58.67 61.68H58.4L58.32 61.52Z" fill="currentColor"/>
<path d="M59.79 37.92C60.47 38.92 60.24 40.25 60.24 41.36C59.9843 42.4568 59.4504 43.4693 58.69 44.3C58.3169 44.6926 57.8891 45.0294 57.42 45.3L56.85 45.54C55.2537 45.9479 53.5761 45.9099 52 45.43C50.6195 45.0729 49.3082 44.4883 48.12 43.7C47.0266 43.1114 46.127 42.2188 45.53 41.13C45.3089 40.6556 45.2158 40.1315 45.26 39.61C45.3113 39.0921 45.509 38.5996 45.83 38.19C46.3352 37.5601 47.0411 37.1224 47.83 36.95C48.28 36.83 48.43 37.37 48.44 38.04C48.4355 38.6482 48.3988 39.2557 48.33 39.86C48.33 39.86 48.33 39.86 48.33 39.94C48.2272 39.893 48.12 39.8561 48.01 39.83C48.0527 39.8402 48.0972 39.8402 48.14 39.83C48.2341 39.8201 48.3257 39.793 48.41 39.75L48.52 39.7H48.58L48.73 39.79C48.87 39.84 48.93 40.01 49.1 40.14C49.4583 40.4706 49.8429 40.7716 50.25 41.04L50.93 41.48L51.3 41.69C51.39 41.76 51.37 41.78 51.42 41.82C51.5943 42.0113 51.8326 42.1323 52.09 42.16C52.3391 42.1902 52.5909 42.1902 52.84 42.16H53C53.3855 42.1369 53.7472 41.9659 54.0099 41.6828C54.2725 41.3997 54.4158 41.0261 54.41 40.64C54.4088 40.3879 54.3496 40.1395 54.2369 39.9141C54.1241 39.6886 53.9609 39.4922 53.76 39.34C53.4074 39.0839 52.9903 38.9313 52.5556 38.8995C52.121 38.8677 51.6861 38.9579 51.3 39.16C50.4997 39.7163 49.7883 40.3906 49.19 41.16C49.0551 41.3519 48.901 41.5295 48.73 41.69C48.5821 41.8055 48.421 41.9028 48.25 41.98C48.0857 42.0203 47.9142 42.0203 47.75 41.98C47.3168 41.8748 46.9089 41.6844 46.55 41.42C46.32 41.27 46.09 41.14 45.88 40.99C45.5342 40.7494 45.2831 40.3958 45.17 39.99C45.0347 39.5467 45.0347 39.0732 45.17 38.63C45.7324 37.3258 46.6508 36.2064 47.82 35.4C47.96 35.29 48.12 35.19 48.27 35.09L48.95 34.68C49.47 34.46 49.95 34.23 50.53 34.04C51.564 33.8126 52.6214 33.7085 53.68 33.73C54.04 33.73 54.41 33.78 54.76 33.85L55.76 34.11C56.3773 34.3662 56.9814 34.6533 57.57 34.97C58.6137 35.6889 59.4155 36.7069 59.87 37.89L59.79 37.92Z" fill="currentColor"/>
</svg>
