<svg width="96" height="96" viewBox="0 0 96 96" fill="none" xmlns="http://www.w3.org/2000/svg">
<path d="M36.73 67.71C34.09 67.53 31.43 67.39 28.73 67.32C27.73 67.32 26.79 67.43 25.82 67.39C22.39 67.26 18.95 67.18 15.5 66.99C13.97 66.93 12.44 66.99 10.92 67.06C8.9609 67.2578 6.98441 67.2007 5.04 66.89C4.42 66.77 4.51 66.2 5.04 65.56C5.67051 64.7581 6.54431 64.1826 7.53 63.92C11.4159 63.1512 15.3688 62.7726 19.33 62.79C21.7718 62.797 24.2121 62.6702 26.64 62.41C29.33 62.29 32.03 62.24 34.73 62.21H39.73C42.25 62.21 44.79 62.26 47.3 62.21C48.3 62.21 49.3 62.09 50.24 61.98C51.18 61.87 52.24 61.74 53.24 61.69C53.68 61.69 54.12 61.58 54.56 61.58C54.7547 61.5831 54.9488 61.6031 55.14 61.64C55.2999 61.6874 55.4568 61.7441 55.61 61.81C55.8736 61.9095 56.1029 62.0831 56.27 62.31C56.5518 62.8327 56.7221 63.4081 56.77 64C56.77 64.29 56.86 64.57 56.86 64.82C56.8299 65.2787 56.6428 65.7131 56.33 66.05C56.15 66.27 55.94 66.52 55.69 66.78C55.4795 67.0091 55.2094 67.1753 54.91 67.26C53.2712 67.6697 51.5969 67.9208 49.91 68.01C48.21 68.08 46.45 68.21 44.7 68.11C42.08 68.04 39.42 67.87 36.75 67.81L36.73 67.71Z" fill="currentColor"/>
<path d="M51.08 39.15C47.8 38.96 44.5 38.8 41.2 38.72C39.99 38.72 38.8 38.85 37.59 38.81C33.33 38.67 29.07 38.59 24.79 38.38C22.89 38.32 21 38.38 19.12 38.48C16.6918 38.7262 14.2421 38.6624 11.83 38.29C11.07 38.15 11.18 37.48 11.83 36.73C12.6244 35.7657 13.7077 35.0821 14.92 34.78C17.32 34.37 19.75 34.03 22.18 33.78C24.6273 33.4727 27.0946 33.3557 29.56 33.43C32.56 33.61 35.56 33.09 38.64 32.95C41.97 32.8 45.32 32.73 48.64 32.69H54.83C57.96 32.69 61.1 32.75 64.22 32.69C65.43 32.69 66.64 32.56 67.86 32.42L69.68 32.21L71.54 32C72.08 32 72.62 31.87 73.17 31.88C73.4113 31.8865 73.6519 31.9099 73.89 31.95C74.088 32.0063 74.2819 32.0764 74.47 32.16C74.7909 32.2804 75.0739 32.484 75.29 32.75C75.6507 33.3819 75.8691 34.0849 75.93 34.81C75.93 35.16 76.05 35.49 76.05 35.81C76.0197 36.357 75.7882 36.8734 75.4 37.26C75.1552 37.5633 74.8949 37.8537 74.62 38.13C74.4947 38.2813 74.3329 38.3983 74.15 38.47C73.9886 38.552 73.8215 38.6222 73.65 38.68C71.6054 39.1643 69.5193 39.4523 67.42 39.54C65.31 39.63 63.13 39.78 60.95 39.66C57.7 39.59 54.4 39.38 51.09 39.33L51.08 39.15Z" fill="currentColor"/>
<path d="M44.49 54.55C44.49 58.35 45.62 72.21 46.94 72.96C48.26 73.71 69.44 69.49 69.2 69C67.82 66.44 44.49 53.34 44.49 54.55Z" fill="currentColor"/>
<path d="M60.71 23C60.71 27.71 62.11 44.9 63.71 45.83C65.31 46.76 91.65 41.57 91.35 41C89.64 37.78 60.71 21.53 60.71 23Z" fill="currentColor"/>
</svg>
