<svg width="96" height="96" viewBox="0 0 96 96" fill="none" xmlns="http://www.w3.org/2000/svg">
<path d="M64.17 34.62C54.61 36.17 48.88 25.32 48.88 25.32L51.56 21.8C52.803 25.0354 55.063 27.7796 58 29.62C62.61 32.24 64.78 31.48 64.78 31.48L64.17 34.62Z" fill="currentColor"/>
<path d="M26 69.17C26.17 68.38 27.56 67.41 28.18 67.03C29.2821 66.4913 30.5159 66.2813 31.7341 66.4249C32.9523 66.5686 34.1034 67.0598 35.05 67.84C41.22 73.36 28.84 74.71 31.63 79.84C32.32 81.12 26.58 86.24 26.58 86.24C26.58 86.24 24.31 75.6 25.28 71.79C26.25 67.98 26 69.16 26 69.17Z" fill="currentColor"/>
<path d="M65.89 24.36C66.5171 22.9063 67.0482 21.4131 67.48 19.89C67.8765 18.5186 68.0751 17.0976 68.07 15.67C68.07 15.34 68 15.09 67.99 14.8C67.9362 14.5653 67.8661 14.3348 67.78 14.11C67.7154 13.9257 67.6208 13.7534 67.5 13.6C67.3743 13.4129 67.2228 13.2446 67.05 13.1C66.6904 12.7919 66.2611 12.5763 65.7993 12.4717C65.3375 12.3671 64.8572 12.3769 64.4 12.5C62.69 12.84 60.79 14.21 59.02 15.64C55.7802 18.3944 52.8708 21.5152 50.35 24.94C47.8548 28.4319 45.771 32.2002 44.14 36.17C42.6331 39.7513 41.3572 43.4255 40.32 47.17C39.62 49.55 39.12 51.99 38.47 54.4L36.47 61.59C36.08 63.06 35.47 62.83 34.95 61.39C34.2015 59.1373 33.9457 56.7501 34.2 54.39C35.9 44.1 38.9 33.85 44.97 24.73C46.88 22 48.82 19.47 51 17C53.1203 14.3468 55.5893 11.9921 58.34 9.99998C60.0339 8.81939 61.9658 8.02409 64 7.66998C65.203 7.51212 66.4261 7.62486 67.58 7.99998C68.7085 8.36892 69.7355 8.99545 70.58 9.82998C71.0167 10.2674 71.4056 10.7501 71.74 11.27C72.0427 11.7812 72.2876 12.3245 72.47 12.89L72.71 13.71L72.83 14.51C72.9022 15.0301 72.9356 15.5549 72.93 16.08C72.8931 18.0017 72.5936 19.9094 72.04 21.75C70.7476 26.0044 68.9125 30.0745 66.58 33.86C63.16 39.57 58.92 44.63 54.78 49.61C51.53 53.47 48.37 57.27 44.97 60.92C44.23 61.72 43.52 62.53 42.73 63.31C41.6882 64.3208 40.5456 65.2222 39.32 66C38.6881 66.3607 37.985 66.5791 37.26 66.64C37.0105 66.6626 36.7595 66.6626 36.51 66.64C36.2 66.64 36.27 66.21 36.61 65.5C37.0973 64.4301 37.7118 63.4229 38.44 62.5C39.14 61.63 39.75 60.69 40.49 59.86L42.65 57.29L47 52.16C49.89 48.64 52.77 45.06 55.47 41.37C57.47 38.65 59.35 35.82 61.15 33.01C62.9615 30.2644 64.5116 27.355 65.78 24.32L65.89 24.36Z" fill="currentColor"/>
<path d="M22.63 80C22.63 79.85 22.63 79.64 22.52 79.55V79.28L22.45 78.74L22.34 77.64C22.28 76.91 22.23 76.17 22.21 75.43C22.161 73.8856 22.2446 72.34 22.46 70.81C22.5648 69.5725 22.8477 68.3566 23.3 67.2C23.8272 66.0718 24.5635 65.0538 25.47 64.2C25.9303 63.7404 26.444 63.3375 27 63C27.5047 62.734 28.0258 62.5002 28.56 62.3C30.7258 61.4295 33.1442 61.4295 35.31 62.3C37.1484 63.0408 38.7251 64.3112 39.84 65.95C40.5358 66.9415 40.9787 68.0881 41.13 69.29C41.13 69.58 41.13 69.88 41.13 70.17C41.1081 70.455 41.0714 70.7387 41.02 71.02C40.942 71.5763 40.7942 72.1206 40.58 72.64C40.33 73.29 39.96 73.11 39.41 72.55C39.13 72.27 38.83 71.9 38.46 71.55C38.0884 71.1904 37.7378 70.8098 37.41 70.41C37.0372 69.8344 36.6192 69.2893 36.16 68.78C35.737 68.4146 35.2618 68.1146 34.75 67.89C34.2585 67.7315 33.7528 67.621 33.24 67.56C33.1104 67.5749 32.9796 67.5749 32.85 67.56C32.7148 67.5069 32.5738 67.47 32.43 67.45C32.1248 67.3802 31.813 67.3434 31.5 67.34C31.298 67.3257 31.0951 67.346 30.9 67.4C30.6911 67.4246 30.488 67.4855 30.3 67.58C30.13 67.67 29.85 67.77 29.76 67.84C29.6321 67.9183 29.5145 68.0123 29.41 68.12C28.8954 68.7392 28.4988 69.4476 28.24 70.21C27.4312 72.5553 27.0683 75.0312 27.17 77.51V78.73V79.48C27.17 79.91 27.24 80.36 27.31 80.82L27.46 81.74L27.55 82.23V82.29L27.62 82.22L27.75 82.07L29.39 80.29L30.13 79.45L31.18 78.32C31.9473 77.464 32.7982 76.6868 33.72 76C34.1218 75.6955 34.5502 75.4277 35 75.2C35.7278 74.7956 36.5815 74.6813 37.39 74.88C37.6598 74.9641 37.8952 75.1332 38.061 75.3621C38.2268 75.591 38.3142 75.8674 38.31 76.15C38.3504 76.4184 38.3504 76.6915 38.31 76.96C38.1756 77.3263 37.9756 77.6651 37.72 77.96C37.5685 78.2252 37.3643 78.4566 37.12 78.64C35.9528 79.4348 34.8585 80.3316 33.85 81.32L32.95 82.18L32.72 82.4C32.64 82.47 32.6 82.53 32.38 82.72L31.38 83.72C30.75 84.39 30.12 85.02 29.5 85.72L27.67 88L25.47 90.58C25.06 88.87 24.64 87.15 24.22 85.44C23.3429 83.7378 22.7645 81.8978 22.51 80H22.63Z" fill="currentColor"/>
<path d="M58 31.4C56.9348 30.7713 55.9305 30.0448 55 29.23C54.68 28.92 54.3 28.7 54 28.38C52.9806 27.2128 52.1383 25.9021 51.5 24.49C51.36 24.18 51.24 23.87 51.09 23.57C50.9182 23.2851 50.7838 22.9792 50.69 22.66C50.5567 22.2532 50.4466 21.8392 50.36 21.42C50.3151 20.9894 50.3353 20.5545 50.42 20.13C50.48 19.86 50.97 19.85 51.54 19.97C52.0855 20.0292 52.5991 20.2564 53.01 20.62C53.7798 21.699 54.3801 22.8895 54.79 24.15C55.2012 24.8996 55.7923 25.5353 56.51 26C57.2298 26.6291 58.0103 27.1851 58.84 27.66C59.3582 27.9574 59.9 28.2116 60.46 28.42C61.3077 28.7388 62.1968 28.9342 63.1 29C63.7861 28.9959 64.4651 28.8601 65.1 28.6C65.2341 28.5502 65.3773 28.5297 65.52 28.54C66.03 28.54 66.26 28.79 66.59 29.54C66.66 29.71 66.75 29.88 66.81 30.05C66.9227 30.3179 66.9486 30.6145 66.8841 30.8979C66.8195 31.1813 66.6677 31.4373 66.45 31.63C65.8107 32.2787 64.9659 32.6852 64.06 32.78C63.1998 32.9299 62.3202 32.9299 61.46 32.78C60.2294 32.4861 59.0426 32.0323 57.93 31.43L58 31.4Z" fill="currentColor"/>
</svg>
