<svg width="96" height="96" viewBox="0 0 96 96" fill="none" xmlns="http://www.w3.org/2000/svg">
<path d="M19.64 75.93C19.64 75.93 15 72.26 19 68.36C19.5248 67.7922 20.1693 67.3484 20.8869 67.0606C21.6045 66.7728 22.3771 66.6483 23.1488 66.6962C23.9204 66.7441 24.6717 66.9631 25.3482 67.3374C26.0248 67.7116 26.6095 68.2317 27.06 68.86C27.84 70.04 28.64 72.71 26.83 74.36C25.8221 75.1368 24.6545 75.6805 23.4112 75.9519C22.168 76.2234 20.88 76.2159 19.64 75.93Z" fill="currentColor"/>
<path d="M21.0001 54.28C18.5901 52.59 16.8601 46.45 25.1901 45.12C25.1901 45.12 27.6201 44.71 28.2901 48.72C28.9601 52.73 27.0001 52.89 25.0001 53.92C23.0001 54.95 21.7801 54.86 21.0001 54.28Z" fill="currentColor"/>
<path d="M17.07 32.48C16.3449 31.9658 15.8383 31.1988 15.65 30.33C15.5552 28.9841 15.9342 27.6474 16.7214 26.5516C17.5085 25.4557 18.6543 24.6698 19.96 24.33C25.14 22.99 27.55 25.62 28.27 27.89C28.99 30.16 28 32.35 25 33.38C22.37 34.27 19.56 34.51 17.07 32.48Z" fill="currentColor"/>
<path d="M64.43 30.37C62.31 30.19 60.1667 30.0667 58 30C57.22 30 56.44 30.15 55.65 30.08C52.87 29.87 50.05 29.63 47.24 29.54C45.9936 29.5216 44.7474 29.5884 43.51 29.74C41.9018 30.0501 40.2416 29.9539 38.68 29.46C38.17 29.27 38.25 28.32 38.68 27.29C39.11 26.26 39.78 25.09 40.68 24.82L41.84 24.5C42.2228 24.4213 42.6103 24.3678 43 24.34C43.79 24.27 44.58 24.22 45.38 24.19C47.0028 24.1276 48.6279 24.1945 50.24 24.39C52.24 24.64 54.24 24.17 56.24 24.1C58.44 24.1 60.66 24.1 62.88 24.2L66.98 24.37C69.06 24.45 71.14 24.65 73.23 24.71C74.8942 24.5951 76.5636 24.5751 78.23 24.65C78.6184 24.6664 79.0056 24.7031 79.39 24.76C79.6736 24.7964 79.9464 24.8918 80.191 25.0399C80.4355 25.188 80.6464 25.3856 80.81 25.62C81.0407 26.149 81.0621 26.7458 80.87 27.29C80.8 27.63 80.73 27.97 80.63 28.29C80.4822 28.7597 80.2232 29.1868 79.875 29.535C79.5268 29.8832 79.0997 30.1422 78.63 30.29C77.3793 30.5763 76.1092 30.7702 74.83 30.87C74.21 30.87 73.51 30.87 72.83 30.87C72.15 30.87 71.49 30.8 70.83 30.79L67.71 30.63C66.71 30.56 65.6 30.52 64.54 30.5L64.43 30.37Z" fill="currentColor"/>
<path d="M62.3401 50.83C60.2701 50.66 58.1601 50.53 56.0501 50.46C55.2901 50.46 54.5301 50.61 53.7501 50.54C51.0201 50.33 48.2601 50.09 45.5101 50C44.2872 49.983 43.0646 50.0465 41.8501 50.19C40.2722 50.5052 38.6398 50.4088 37.1101 49.91C36.6101 49.72 36.6901 48.77 37.1101 47.74C37.5301 46.71 38.1901 45.54 39.0401 45.27L40.1401 45C40.5199 44.9282 40.9041 44.8814 41.2901 44.86C42.0601 44.78 42.8301 44.74 43.6201 44.71C45.2095 44.6428 46.8018 44.7098 48.3801 44.91C50.3101 45.16 52.2701 44.69 54.2301 44.61C56.3901 44.61 58.5701 44.61 60.7401 44.71L64.7401 44.88C66.7401 44.96 68.82 45.16 70.8801 45.23C72.522 45.1344 74.1681 45.1344 75.8101 45.23C76.1917 45.2469 76.5722 45.2836 76.9501 45.34C78.3801 45.73 78.73 46.34 78.3801 47.86C78.3 48.2 78.2401 48.54 78.1301 48.86C77.983 49.3301 77.7242 49.7576 77.3759 50.1059C77.0276 50.4542 76.6001 50.713 76.1301 50.86C74.9055 51.144 73.6624 51.3412 72.4101 51.45C71.8001 51.45 71.1301 51.45 70.4801 51.45C69.8301 51.45 69.1701 51.38 68.4801 51.37L65.4801 51.21C64.4801 51.14 63.4201 51.1 62.3701 51.08L62.3401 50.83Z" fill="currentColor"/>
<path d="M64.11 73.31C61.82 73.14 59.49 73 57.11 72.93C56.26 72.93 55.42 73.08 54.57 73.01C51.57 72.79 48.57 72.56 45.49 72.46C44.1539 72.4471 42.8182 72.5139 41.49 72.66L40.21 72.82C39.77 72.82 39.34 72.82 38.9 72.82C38.0069 72.808 37.1205 72.6631 36.27 72.39C35.73 72.2 35.81 71.25 36.27 70.22C36.6282 69.1434 37.3974 68.252 38.41 67.74L39.66 67.42C40.1034 67.3458 40.5509 67.299 41 67.28C41.86 67.2 42.71 67.16 43.58 67.13C45.3323 67.0592 47.0874 67.1227 48.83 67.32C50.96 67.57 53.12 67.1 55.28 67.03C57.66 67.03 60.05 67.03 62.44 67.14L66.86 67.3C69.1 67.38 71.34 67.58 73.59 67.62C75.34 67.62 77.11 67.34 78.97 67.54C79.38 67.54 79.8 67.54 80.21 67.65L80.73 67.78C80.8856 67.8413 81.0361 67.9149 81.18 68C81.4121 68.1246 81.611 68.3029 81.76 68.52C81.8929 68.779 81.9728 69.0618 81.9951 69.3519C82.0175 69.6421 81.9817 69.9338 81.89 70.21C81.8338 70.5477 81.757 70.8817 81.66 71.21C81.5085 71.6925 81.2374 72.1289 80.872 72.4786C80.5066 72.8282 80.0587 73.0799 79.57 73.21C79.28 73.21 78.91 73.34 78.57 73.4C78.23 73.46 77.89 73.52 77.57 73.56C76.8707 73.6953 76.1619 73.7756 75.45 73.8C74.77 73.8 74 73.8 73.28 73.8L71 73.74L67.61 73.58C66.47 73.52 65.31 73.48 64.15 73.46L64.11 73.31Z" fill="currentColor"/>
<path d="M21.82 36.1C20.3531 36.0882 18.9037 35.7791 17.5596 35.1913C16.2155 34.6034 15.0046 33.7491 14 32.68C13.189 31.881 12.5552 30.9202 12.14 29.86C11.5691 28.0383 11.6397 26.076 12.34 24.3C12.9303 22.7948 13.8643 21.4484 15.0676 20.3684C16.2709 19.2884 17.71 18.5048 19.27 18.08C20.2737 17.8501 21.3164 17.8501 22.32 18.08C23.2802 18.3062 24.1383 18.8442 24.76 19.61C25.14 20.08 24.34 20.87 23.4 21.61C22.7234 22.2157 21.9703 22.7301 21.16 23.14C20.8734 23.1291 20.5876 23.1767 20.32 23.28C20.0274 23.3454 19.7399 23.4323 19.46 23.54C18.6489 23.9184 17.9291 24.4676 17.35 25.15C16.9735 25.6072 16.7809 26.1884 16.81 26.78C16.8339 27.2942 16.9814 27.795 17.24 28.24C17.5376 28.7985 17.9709 29.2731 18.5 29.62C19.0994 30.0369 19.7815 30.32 20.5 30.45C21.4581 30.6414 22.4491 30.5863 23.38 30.29C24.0832 30.1291 24.7369 29.8003 25.2854 29.3319C25.834 28.8635 26.261 28.2693 26.53 27.6C26.87 26.6 26.27 25.98 25.6 25.42C25.4386 25.3038 25.288 25.1733 25.15 25.03C25.0302 24.9104 24.9377 24.7662 24.879 24.6074C24.8203 24.4485 24.7967 24.2788 24.81 24.11C24.9283 23.5885 25.1132 23.0844 25.36 22.61C25.49 22.33 25.6 22.04 25.73 21.79C25.9402 21.3648 26.2946 21.0281 26.73 20.84C26.9895 20.7056 27.2753 20.6297 27.5673 20.6176C27.8592 20.6055 28.1503 20.6575 28.42 20.77C28.8668 20.9607 29.2952 21.1916 29.7 21.46C29.9 21.61 30.11 21.76 30.32 21.93C30.5152 22.1123 30.6957 22.3095 30.86 22.52C31.4478 23.2655 31.8799 24.1213 32.1307 25.0369C32.3815 25.9525 32.4459 26.9091 32.32 27.85C32.2445 28.4823 32.083 29.1014 31.84 29.69C31.4381 30.753 30.8488 31.7352 30.1 32.59C29.0456 33.729 27.7683 34.639 26.3473 35.2635C24.9263 35.888 23.3921 36.2136 21.84 36.22L21.82 36.1Z" fill="currentColor"/>
<path d="M23.34 57.29C20.6053 57.5146 17.8867 56.6965 15.73 55C15.33 54.71 14.96 54.4 14.58 54.08C14.1963 53.7361 13.86 53.3426 13.58 52.91C12.6059 51.3654 12.1895 49.534 12.4 47.72C12.5033 46.8623 12.7572 46.0295 13.15 45.26C13.5393 44.5375 14.0424 43.8825 14.64 43.32C15.611 42.3885 16.7516 41.6518 18 41.15C19.4639 40.4066 21.1581 40.2562 22.73 40.73C23.22 40.92 23 41.73 22.6 42.49C22.2 43.25 21.7 44.2 21.18 44.43C20.3181 44.759 19.5296 45.2552 18.86 45.89C18.6148 46.1348 18.3938 46.4027 18.2 46.69C18.02 46.96 17.84 47.22 17.61 47.52C17.4868 47.7056 17.4122 47.9191 17.393 48.141C17.3738 48.3629 17.4106 48.5861 17.5 48.79C17.6877 49.238 17.9554 49.648 18.29 50C19.1106 51.0139 20.2948 51.667 21.59 51.82C22.4526 51.9278 23.3284 51.8213 24.14 51.51C24.737 51.2853 25.284 50.9456 25.75 50.51C25.9388 50.3287 26.0864 50.109 26.183 49.8658C26.2796 49.6226 26.323 49.3614 26.31 49.1C26.2684 48.6297 26.0913 48.1816 25.8 47.81C25.4896 47.3923 25.1341 47.01 24.74 46.67C24.58 46.51 24.35 46.4 24.2 46.24C23.61 45.63 23.73 45.17 24.48 43.97C24.66 43.7 24.81 43.41 24.99 43.15C25.2395 42.7074 25.6482 42.3763 26.1329 42.224C26.6177 42.0717 27.1422 42.1096 27.6 42.33C28.3295 42.7042 28.9864 43.2054 29.54 43.81C30.1424 44.4559 30.6356 45.1956 31 46C31.4466 46.9765 31.6817 48.0363 31.69 49.11C31.7118 50.3626 31.4086 51.5995 30.81 52.7C30.593 53.1039 30.3421 53.4886 30.06 53.85C29.78 54.19 29.48 54.48 29.18 54.78C28.6258 55.2734 28.0227 55.709 27.38 56.08C26.1244 56.7793 24.7461 57.2308 23.32 57.41L23.34 57.29Z" fill="currentColor"/>
<path d="M26.47 76.87C25.153 77.5061 23.7284 77.8894 22.27 78C20.8377 78.134 19.393 78.019 18 77.66C16.8823 77.4143 15.827 76.9411 14.9 76.27C14.0486 75.5907 13.3644 74.7252 12.9 73.74C12.4503 72.8036 12.2146 71.7788 12.21 70.74C12.194 69.7979 12.329 68.8594 12.61 67.96C12.8772 67.0503 13.3301 66.2059 13.94 65.48C14.9367 64.2435 16.1975 63.2458 17.63 62.56C18.4741 62.1442 19.3681 61.8383 20.29 61.65C21.2082 61.5606 22.1347 61.6803 23 62C23.54 62.21 23.43 62.92 23 63.8C22.6213 64.7295 22.0833 65.5857 21.41 66.33C20.85 66.61 20.3 66.78 19.87 67.06C19.4847 67.2868 19.1229 67.5515 18.79 67.85C18.5276 68.0943 18.2959 68.3697 18.1 68.67C18.04 68.74 18.01 68.83 17.95 68.91C17.8662 68.9873 17.7923 69.0746 17.73 69.17C17.5777 69.3779 17.4438 69.5988 17.33 69.83C17.2052 70.0672 17.1334 70.3286 17.1196 70.5962C17.1058 70.8638 17.1503 71.1313 17.25 71.38C17.4901 71.843 17.8535 72.2306 18.3 72.5C18.9477 72.9191 19.6835 73.1826 20.45 73.27C21.3043 73.3735 22.1705 73.309 23 73.08C24.0173 72.8243 24.9402 72.283 25.66 71.52C26.1821 70.977 26.5633 70.3144 26.77 69.59C26.943 68.8078 26.8588 67.9906 26.53 67.26C26.2744 66.7337 25.8955 66.277 25.4254 65.9288C24.9552 65.5806 24.4079 65.3511 23.83 65.26C23.62 65.26 23.43 65.26 23.27 65.26C23.1414 65.2988 23.0035 65.2932 22.8784 65.2442C22.7533 65.1953 22.6482 65.1058 22.58 64.99C22.3163 64.6731 22.0693 64.3427 21.84 64L21.41 63.42C21.3015 63.2602 21.2354 63.0753 21.2179 62.8829C21.2004 62.6905 21.2321 62.4968 21.31 62.32C21.4122 62.0558 21.5502 61.8068 21.72 61.58C21.9596 61.3154 22.2623 61.1158 22.6 61C23.7155 60.7289 24.887 60.8021 25.96 61.21C26.981 61.5946 27.901 62.2067 28.65 63C29.3786 63.7551 29.9587 64.6405 30.36 65.61C30.56 66.09 30.77 66.61 30.95 67.09C31.1177 67.6269 31.2283 68.1799 31.28 68.74C31.3304 69.1752 31.3304 69.6148 31.28 70.05C31.2632 70.51 31.1927 70.9664 31.07 71.41C30.8667 72.2488 30.529 73.0491 30.07 73.78C29.168 75.124 27.9532 76.229 26.53 77L26.47 76.87Z" fill="currentColor"/>
</svg>
