<svg width="96" height="96" viewBox="0 0 96 96" fill="none" xmlns="http://www.w3.org/2000/svg">
<path d="M64.07 81C63.9335 81.247 63.7617 81.4727 63.56 81.67C63.351 81.8745 63.1026 82.0344 62.83 82.14C62.5867 82.2332 62.3302 82.2873 62.07 82.3C61.79 82.3 61.51 82.3 61.24 82.3C60.81 82.17 60.39 82.05 59.96 81.9L58.66 81.27C58.24 81.09 57.78 80.78 57.45 80.6C57.12 80.42 56.97 80.31 56.74 80.15C56.13 79.76 55.49 79.44 54.92 79C54.35 78.56 53.92 78.23 53.45 77.81L52.1 76.49C51.67 76.02 51.23 75.57 50.82 75.1C50.41 74.63 49.98 74.17 49.59 73.68C48.87 72.84 48.16 71.99 47.52 71.08C46.6285 69.9166 46.0656 68.5352 45.89 67.08C45.83 66.64 46.14 66.64 46.59 66.87C47.1565 67.1915 47.6583 67.6153 48.07 68.12C49.4606 70.3224 51.1729 72.3044 53.15 74C53.7649 74.5481 54.4352 75.0307 55.15 75.44C55.51 75.65 55.85 75.88 56.2 76.1L57.2 76.75C57.79 77.11 58.47 77.52 58.98 77.81C59.2397 77.9867 59.5103 78.147 59.79 78.29C59.9584 78.3963 60.1448 78.4709 60.34 78.51C60.4064 78.5302 60.478 78.5251 60.5408 78.4955C60.6036 78.4659 60.6532 78.4141 60.68 78.35C60.7252 78.2309 60.7554 78.1066 60.77 77.98C60.7789 77.702 60.7588 77.4238 60.71 77.15C60.71 76.88 60.43 75.85 60.21 75.04C59.99 74.23 59.72 73.36 59.44 72.53C58.9046 71.2489 58.4373 69.9404 58.04 68.61C57.9411 68.3059 57.8642 67.9951 57.81 67.68C57.7157 67.2248 57.7829 66.751 58 66.34C58.0877 66.1907 58.2062 66.0617 58.3475 65.9617C58.4889 65.8617 58.65 65.7929 58.82 65.76C58.9865 65.7038 59.1569 65.6604 59.33 65.63C59.9 65.63 60.33 66 60.75 66.63C61.28 67.63 61.75 68.63 62.33 69.72C62.91 70.81 63.13 72.02 63.51 73.24L63.89 74.63L64.07 75.35L64.29 76.35C64.71 78.18 64.78 79.94 64.14 81.04L64.07 81Z" fill="currentColor"/>
<path d="M21.62 37.08C22.9569 38.799 24.3891 40.4415 25.91 42L28.25 44.37L29.09 45.21C29.4386 45.5442 29.7442 45.9204 30 46.33C30.1169 46.4949 30.1986 46.6821 30.2399 46.88C30.2812 47.0779 30.2812 47.2821 30.24 47.48L29.69 48.58L28.82 49.46L28.27 50.05C27.96 50.37 27.66 50.7 27.36 51.05C26.09 52.48 24.96 54.05 23.83 55.59C21.8262 58.3236 20.0725 61.232 18.59 64.28C18.22 65.04 17.88 65.81 17.59 66.59C17.3 67.37 17.13 67.77 17.02 68.14C16.8759 68.5086 16.831 68.9086 16.89 69.3C16.98 69.53 17.23 69.43 17.37 69.3L17.84 68.97L20.84 66.85C22.13 65.97 23.44 65.12 24.77 64.32C26.4927 63.2803 28.2872 62.3647 30.14 61.58L31.57 61.04C32.05 60.87 32.57 60.74 33.03 60.6C33.5241 60.4496 34.0344 60.3589 34.55 60.33C35.0607 60.2646 35.5752 60.2345 36.09 60.24C37.37 60.24 37.18 60.5 36.24 61.09C36.01 61.25 35.73 61.41 35.42 61.62L34.42 62.35C33.5878 62.8779 32.7189 63.3458 31.82 63.75C30.0714 64.5532 28.3748 65.465 26.74 66.48C25.06 67.4933 23.41 68.55 21.79 69.65C20.89 70.26 20.49 70.55 18.59 71.96C18.2 72.24 17.82 72.45 17.44 72.7L17.15 72.89C17.0781 72.9503 16.9921 72.9916 16.9 73.01L16.44 73.12C16.1832 73.1773 15.9169 73.1773 15.66 73.12C15.3863 73.0945 15.1208 73.0128 14.88 72.88C14.6218 72.7162 14.3999 72.5013 14.2279 72.2485C14.056 71.9957 13.9375 71.7103 13.88 71.41C13.8056 71.0822 13.7753 70.7459 13.79 70.41C13.79 70.21 13.79 70.04 13.79 69.83L13.89 69.21C14.0453 68.3697 14.2694 67.5436 14.56 66.74C14.7 66.3 14.78 66.15 14.88 65.88C14.98 65.61 15.09 65.39 15.19 65.15C17.2413 60.5054 19.8217 56.113 22.88 52.06C23.56 51.2 24.25 50.35 24.97 49.53C25.33 49.12 25.69 48.7 26.06 48.31L26.6 47.73L26.81 47.53L26.99 47.36L27.07 47.28C27.07 47.28 27.07 47.21 27.07 47.18C27.07 47.15 26.86 46.94 26.75 46.82L25.19 45.27C24.01 44.1 22.84 42.89 21.72 41.64C19.3869 39.1155 17.3719 36.3146 15.72 33.3C15.0883 32.1316 14.5596 30.9103 14.14 29.65C14.03 29.33 13.95 29 13.86 28.65C13.7539 28.2214 13.6704 27.7874 13.61 27.35C13.5505 26.9125 13.5205 26.4715 13.52 26.03C13.5297 25.62 13.5766 25.2116 13.66 24.81C13.6948 24.4491 13.8012 24.0988 13.9729 23.7794C14.1446 23.4601 14.3782 23.1781 14.66 22.95C15.3736 22.9622 16.0683 23.181 16.66 23.58C17.38 24.01 18.12 24.58 18.85 25.1L20.38 26.2C23.463 28.403 26.8004 30.2262 30.32 31.63C31.08 31.92 31.83 32.15 32.6 32.39C34.02 32.83 34.96 33.01 35.6 33.26C36.1186 33.4446 36.5898 33.7417 36.98 34.13C37.1446 34.2608 37.2985 34.4046 37.44 34.56C37.61 34.79 37.38 35.03 36.76 35.28C35.8366 35.618 34.8459 35.7311 33.87 35.61C31.9925 35.4197 30.1454 34.9999 28.37 34.36C26.5786 33.7321 24.8481 32.9421 23.2 32C21.58 31.06 20.01 30 18.49 29L17.36 28.2L16.85 27.83V27.96C16.92 28.24 16.99 28.52 17.08 28.81C17.2607 29.3904 17.471 29.9611 17.71 30.52C18.7602 32.8641 20.1044 35.0651 21.71 37.07L21.62 37.08Z" fill="currentColor"/>
<path d="M61.94 16.66C61.9779 16.5937 62.0081 16.5232 62.03 16.45C62.0621 16.3912 62.0825 16.3266 62.09 16.26C62.1049 16.2342 62.1128 16.2049 62.1128 16.175C62.1128 16.1452 62.1049 16.1159 62.09 16.09C62.0087 16.042 61.9131 16.0243 61.82 16.04C61.6948 16.0517 61.5709 16.0751 61.45 16.11H61.35L60.92 16.32L60 16.8C59 17.35 58 18.06 57 18.68C53.4201 20.8828 50.07 23.439 47 26.31C45.6528 27.596 44.4213 28.9981 43.32 30.5C41.87 32.37 40.65 34.37 39.32 36.29C38.9 36.89 38.32 36.55 37.95 35.65C37.7269 35.048 37.6286 34.4067 37.6613 33.7655C37.6939 33.1242 37.8568 32.4963 38.14 31.92C38.7381 30.7445 39.4059 29.6058 40.14 28.51C40.8944 27.458 41.7161 26.4559 42.6 25.51C44.3279 23.5849 46.2366 21.8302 48.3 20.27C50.77 18.41 53.11 16.22 55.74 14.44C56.47 13.95 57.21 13.44 57.97 13.03C58.35 12.81 58.73 12.59 59.13 12.38C59.72 12.06 60.33 11.73 60.94 11.47C62.011 10.9623 63.1849 10.7091 64.37 10.73C64.8995 10.7443 65.4107 10.9264 65.83 11.25C66.0259 11.4237 66.1624 11.6546 66.22 11.91L66.49 12.63C66.5574 12.7867 66.6044 12.9514 66.63 13.12V14.12C66.6741 14.4686 66.6741 14.8214 66.63 15.17C66.5 15.88 66.44 16.59 66.25 17.3C66.06 18.01 65.91 18.43 65.74 18.95L65.22 20.37C64.07 23.37 62.67 26.21 61.67 29.12C60.9398 31.3073 60.4929 33.5791 60.34 35.88C60.34 36.36 60.34 36.88 60.34 37.31C60.29 39.05 60.15 39.51 58.93 40.07C58.66 40.19 58.39 40.35 58.12 40.45C57.21 40.79 56.31 40.02 56.02 38.33C55.7177 35.9009 55.9047 33.4358 56.57 31.08C57.1704 28.8105 57.9357 26.588 58.86 24.43C59.5267 22.8967 60.17 21.3667 60.79 19.84C61.12 19.08 61.33 18.35 61.6 17.61L61.75 17.08L61.82 16.81V16.74L61.94 16.66Z" fill="currentColor"/>
<path d="M9.99999 25.69C9.79456 24.7436 9.68733 23.7785 9.67999 22.81C9.69816 22.4115 9.73822 22.0142 9.79999 21.62C9.88999 21.27 9.96999 20.92 10.07 20.57C10.3053 20.0435 10.6456 19.5705 11.07 19.18C11.3078 18.9695 11.5923 18.8187 11.9 18.74C12.1416 18.6748 12.3899 18.6379 12.64 18.63C13.1875 18.6184 13.7336 18.6892 14.26 18.84C14.9786 19.0695 15.6695 19.378 16.32 19.76L16.98 20.19L17.64 20.67L18.97 21.67L20.28 22.67C20.49 22.84 20.71 23 20.92 23.18L21.28 23.48C24.4278 26.29 27.8481 28.779 31.49 30.91C33.1026 31.7809 34.8152 32.4525 36.59 32.91C38.8054 33.5454 41.081 33.9476 43.38 34.11C44.11 34.16 44.12 34.7 43.54 35.39C42.6415 36.347 41.4104 36.9232 40.1 37C38.7288 37.0473 37.3563 36.9669 36 36.76C34.6687 36.4914 33.3662 36.0962 32.11 35.58C29.6587 34.5824 27.3382 33.2895 25.2 31.73C23.94 30.81 22.62 29.95 21.3 29.09L19.3 27.79L18.3 27.12L18.05 26.93L17.9 26.81C17.54 26.49 17.12 26.11 16.63 25.72C16.3819 25.4998 16.0978 25.3239 15.79 25.2C15.59 25.14 15.53 25.31 15.49 25.42C15.4375 25.5433 15.4103 25.676 15.41 25.81C15.3852 26.0059 15.3852 26.2041 15.41 26.4C15.4578 26.8501 15.5448 27.2951 15.67 27.73C15.74 27.96 15.82 28.2 15.9 28.45L16.14 29.05L16.43 29.74C17.6311 32.5601 19.1331 35.2423 20.91 37.74C22.3222 39.5738 23.962 41.2203 25.79 42.64L27 43.5C28.24 44.79 28.44 45.39 28.11 46.63C28.03 46.92 27.99 47.21 27.9 47.47C27.8204 47.6799 27.6854 47.8642 27.5092 48.0033C27.3331 48.1424 27.1226 48.2312 26.9 48.26C26.2166 48.3399 25.5244 48.2291 24.9 47.94C23.7291 47.4957 22.6508 46.8379 21.72 46C20.793 45.2246 19.924 44.3823 19.12 43.48C17.5275 41.6651 16.1111 39.703 14.89 37.62C13.9745 36.0743 13.1466 34.4785 12.41 32.84C12.22 32.43 12.04 32.02 11.86 31.6L11.6 31L11.29 30.22C10.7099 28.7422 10.2353 27.225 9.86999 25.68L9.99999 25.69Z" fill="currentColor"/>
<path d="M58.49 71.48C57.23 68.48 56.04 65.57 54.88 62.3C54.6354 61.6219 54.4284 60.9309 54.26 60.23C54.0776 59.5777 53.9702 58.9067 53.94 58.23C53.9044 57.6289 53.9755 57.0263 54.15 56.45C54.2271 56.1772 54.3451 55.9175 54.5 55.68C54.5 55.68 54.5 55.55 54.64 55.52C54.6739 55.4507 54.7177 55.3867 54.77 55.33C54.8633 55.2261 54.9672 55.1323 55.08 55.05C56.1268 54.376 57.3711 54.0764 58.61 54.2C59.3 54.2 60.06 54.2 60.7 54.28L62.04 54.37C64.34 54.53 66.59 54.51 68.81 54.51C71.3309 54.5512 73.8488 54.3198 76.32 53.82C76.91 53.69 77.5 53.53 78.07 53.35L78.91 53.05L79.51 52.8C80.0073 52.591 80.4642 52.2966 80.86 51.93C81.0954 51.7322 81.2949 51.4955 81.45 51.23C81.45 51.07 81.26 51.03 81.14 50.98C81.0102 50.9316 80.8763 50.8948 80.74 50.87C80.47 50.8 80.18 50.75 79.88 50.7L78.82 50.53C75.21 50.02 71.52 49.53 67.92 48.65C65.5892 48.052 63.3245 47.2211 61.16 46.17C58.96 45.1054 56.987 43.6248 55.35 41.81C54.35 40.62 54.96 40.45 56.23 40.81C57.5 41.17 59.59 41.89 61.87 42.81C63.8264 43.5893 65.8521 44.1819 67.92 44.58C70.01 45.01 72.11 45.48 74.27 45.79C75.35 45.96 76.43 46.1 77.53 46.25L79.19 46.46L80.54 46.62C81.08 46.62 81.62 46.73 82.15 46.8C83.1376 46.9026 84.1124 47.1036 85.06 47.4C85.7052 47.6205 86.2811 48.0068 86.73 48.52C86.9199 48.7181 87.0784 48.944 87.2 49.19C87.3671 49.495 87.4336 49.845 87.39 50.19C87.341 50.8829 87.0985 51.5482 86.69 52.11C86.31 52.63 85.86 53.11 85.41 53.64C84.5832 54.4606 83.6637 55.1822 82.67 55.79L81.88 56.25C81.7477 56.3312 81.6108 56.4047 81.47 56.47L81.11 56.65C80.74 56.82 80.36 56.98 79.98 57.13C78.4947 57.7075 76.9623 58.1558 75.4 58.47C72.3865 59.0593 69.3204 59.3374 66.25 59.3C64.6 59.3 62.97 59.22 61.36 59.15C60.89 59.15 60.71 59.15 60.59 59.15H60.14H59.67C59.53 59.15 59.31 59.15 59.24 59.29C59.1716 59.5861 59.1716 59.8939 59.24 60.19L59.35 60.66L59.41 60.9L59.57 61.42C60.04 62.88 60.57 64.35 61.21 65.81C62.71 69.41 64.35 72.99 65.96 76.61C66.71 78.37 67.87 80.71 68.04 82.35C68.074 82.7326 68.074 83.1174 68.04 83.5C68.0442 83.6859 68.01 83.8708 67.9394 84.0428C67.8689 84.2149 67.7635 84.3706 67.63 84.5C66.8894 84.9348 66.0377 85.1434 65.18 85.1C63.1759 84.9664 61.2213 84.4182 59.44 83.49C58.018 82.8052 56.6447 82.0233 55.33 81.15C51.2066 78.5845 47.6396 75.2181 44.84 71.25C44.2145 70.3388 43.6628 69.379 43.19 68.38C42.5902 67.0072 42.3066 65.5172 42.36 64.02C42.3682 63.6248 42.4619 63.2361 42.6345 62.8805C42.8071 62.525 43.0546 62.2109 43.36 61.96C43.5886 61.7305 43.8437 61.5291 44.12 61.36C45.01 60.96 45.79 62.36 46.89 64.56C47.13 64.96 47.33 65.36 47.57 65.74L47.94 66.32C48.04 66.52 48.16 66.71 48.28 66.9C48.7356 67.6851 49.2364 68.4431 49.78 69.17C50.9025 70.6696 52.1576 72.0652 53.53 73.34C54.9286 74.6585 56.4337 75.8593 58.03 76.93C58.83 77.45 59.65 77.93 60.48 78.42C60.69 78.54 60.9 78.64 61.11 78.75L61.41 78.9C61.41 78.9 61.47 78.97 61.49 78.9C61.49 78.9 61.49 78.9 61.49 78.81L61.26 78.27L60.26 76.08L58.26 71.66L58.49 71.48Z" fill="currentColor"/>
<path d="M15.71 68.58C15.4181 68.9043 15.1968 69.2857 15.06 69.7C15.06 69.8 15 69.97 15.06 70.02C15.12 70.07 15.28 70.02 15.43 69.92C15.5304 69.8589 15.6272 69.7922 15.72 69.72C15.8569 69.5888 16.0118 69.4777 16.18 69.39C16.11 69.49 17.5 68.58 18.4 68.02C19.3 67.46 20.4 66.79 21.4 66.22C23.4 65.04 25.51 64.01 27.6 62.97C29.49 62.1 31.35 61.15 33.3 60.36C33.93 60.11 34.55 59.86 35.2 59.66C35.85 59.46 36.52 59.29 37.2 59.12C37.8851 58.9977 38.576 58.911 39.27 58.86C39.4464 58.8451 39.6237 58.8451 39.8 58.86L40.34 58.99L41.4 59.28C42.26 59.56 42.07 59.89 41.4 60.57C41.07 60.92 40.62 61.38 40.16 61.88C39.7091 62.3498 39.144 62.6943 38.52 62.88C37.41 63.28 36.31 63.71 35.19 64.22C34.07 64.73 32.93 65.2201 31.78 65.6601C29.5 66.6601 27.21 67.8601 24.87 69.01C24.18 69.3701 23.48 69.73 22.79 70.14C22.1 70.55 21.45 70.99 20.79 71.43L18.69 72.9L15.38 75.31L14.26 76.1201L13.86 76.3701C13.75 76.3701 13.64 76.45 13.53 76.49L12.88 76.74C12.6809 76.8247 12.4773 76.8981 12.27 76.96L11.78 77.04C11.4913 77.1059 11.1961 77.1394 10.9 77.14C10.7085 77.1355 10.5204 77.0876 10.35 77C10.142 76.8851 9.96913 76.7157 9.85 76.51C9.47938 75.7746 9.32014 74.9507 9.39 74.13C9.46113 73.0652 9.66607 72.0136 10 71C10.25 70.24 10.53 69.4601 10.86 68.6901L11.81 66.5C12.3 65.5 12.81 64.5 13.34 63.5C14.9639 60.5126 16.7534 57.6181 18.7 54.83L20.85 51.55C21.5357 50.4316 22.294 49.3593 23.12 48.34C23.49 47.9 23.83 47.44 24.24 47.02C24.7463 46.4196 25.3869 45.9468 26.11 45.64C26.6376 45.5188 27.1906 45.5787 27.68 45.81C27.9135 45.8859 28.1408 45.9795 28.36 46.09C28.68 46.28 28.78 46.64 28.77 47.15C28.7645 47.802 28.585 48.4407 28.25 49L26.54 51.94C25.98 52.94 25.29 53.81 24.66 54.75C23.38 56.62 22.09 58.52 20.84 60.45C19.8733 61.8567 18.9367 63.29 18.03 64.75C17.58 65.48 17.15 66.22 16.73 66.96L16.12 68.09L15.85 68.6L15.71 68.58Z" fill="currentColor"/>
</svg>
