<svg width="96" height="96" viewBox="0 0 96 96" fill="none" xmlns="http://www.w3.org/2000/svg">
<path d="M23.52 65.16C23.1186 65.9888 22.839 66.8713 22.69 67.78C22.47 69.04 22.39 70.43 22.21 71.99C22.1507 72.6246 22.0573 73.2555 21.93 73.88C21.93 74.05 21.84 74.23 21.77 74.44C21.698 74.659 21.6111 74.8728 21.51 75.08C21.386 75.3353 21.2351 75.5767 21.06 75.8C20.7485 76.1743 20.3588 76.4757 19.9182 76.6831C19.4776 76.8904 18.9969 76.9986 18.51 77C17.9089 76.997 17.3205 76.8274 16.81 76.51C16.1454 76.0516 15.6251 75.4134 15.31 74.67C14.9146 73.7415 14.652 72.7618 14.53 71.76L14.44 71.09C14.44 71 14.44 70.84 14.44 70.8V70.16C14.44 69.8 14.44 69.38 14.44 68.94C14.4497 68.7468 14.4497 68.5532 14.44 68.36C14.44 67.88 13.97 67.51 13.63 67.81C13.3257 68.1051 13.096 68.4685 12.96 68.87C12.7961 69.3402 12.6657 69.8214 12.57 70.31L12.49 70.61V70.77L12.36 71.12C12.2 71.55 12.03 71.98 11.87 72.42C11.77 72.66 11.54 72.69 11.21 72.74C10.9909 72.7591 10.7703 72.7324 10.562 72.6619C10.3537 72.5913 10.1624 72.4783 10 72.33C9.56429 71.9299 9.22275 71.438 9 70.89C8.84266 70.6098 8.72169 70.3108 8.64 70C8.62933 69.4334 8.67624 68.8671 8.78 68.31C8.93013 67.4777 9.13389 66.656 9.39 65.85C9.62464 65.1384 9.9615 64.4647 10.39 63.85C10.7112 63.3506 11.098 62.8966 11.54 62.5C11.8939 62.195 12.2875 61.9393 12.71 61.74C13.1185 61.5587 13.5546 61.4472 14 61.41C14.5251 61.362 15.0543 61.4303 15.55 61.61C15.7876 61.7072 16.0182 61.8208 16.24 61.95C16.3941 62.0642 16.541 62.1878 16.68 62.32C16.9482 62.6046 17.1862 62.9163 17.39 63.25C17.5499 63.5734 17.6869 63.9075 17.8 64.25C17.9296 64.7068 18.0101 65.1761 18.04 65.65C18.14 66.65 18.14 67.8 18.18 68.8V69.67L18.23 70.38C18.23 70.68 18.28 70.97 18.32 71.26C18.3883 71.7795 18.5158 72.2895 18.7 72.78C18.7441 72.9173 18.8117 73.0459 18.9 73.16C18.96 73.16 18.8 73.24 18.71 73.35L18.57 73.53L18.49 73.63C18.468 73.669 18.448 73.709 18.43 73.75V73.58V73.46C18.43 73.4 18.54 73.98 18.48 73.73C18.48 73.65 18.48 73.73 18.37 73.6L18.25 73.49H18.19L18.08 73.41C17.9944 73.3338 17.8963 73.2729 17.79 73.23C17.7946 73.1801 17.7946 73.1299 17.79 73.08C17.9344 72.5335 18.0248 71.9742 18.06 71.41L18.22 69.29C18.292 67.7175 18.5539 66.1596 19 64.65C19.402 63.4992 20.1449 62.4981 21.13 61.78C21.6592 61.4271 22.2546 61.1856 22.88 61.07C23.5146 60.9202 24.1754 60.9202 24.81 61.07C25.7105 61.3069 26.521 61.8044 27.14 62.5C27.6647 63.0782 28.1149 63.7198 28.48 64.41C29.1389 65.6631 29.72 66.9555 30.22 68.28C31.003 70.1958 31.8876 72.0685 32.87 73.89C33.07 74.28 33.32 74.63 33.51 74.98C33.85 75.65 34.02 76.05 33.92 76.41C33.7093 76.8939 33.411 77.3346 33.04 77.71C32.84 77.95 32.67 78.23 32.48 78.48C32.3267 78.6911 32.1164 78.8541 31.8737 78.9497C31.631 79.0454 31.3661 79.0698 31.11 79.02C30.7764 78.9696 30.4562 78.8535 30.1678 78.6784C29.8794 78.5033 29.6286 78.2727 29.43 78C28.3148 76.3125 27.4555 74.4692 26.88 72.53C26.29 70.73 25.82 68.93 25.24 67.37C25.0418 66.8446 24.8148 66.3305 24.56 65.83C24.4016 65.5353 24.214 65.2572 24 65C23.92 64.92 24 64.87 23.87 65C23.74 65.13 23.68 65.16 23.6 65.3L23.52 65.16Z" fill="currentColor"/>
<path d="M70.46 46L72.69 44.46L74.85 42.83C75.59 42.31 76.26 41.73 76.96 41.16C77.66 40.59 78.34 40.02 78.96 39.42C80.236 38.3042 81.423 37.0906 82.51 35.79C83.461 34.6781 84.1846 33.3904 84.64 32C84.8839 31.1477 84.9216 30.2497 84.75 29.38C84.534 28.5162 84.1425 27.706 83.6 27C82.346 25.4574 80.7779 24.1995 79 23.31C76.9887 22.2682 74.8649 21.4597 72.67 20.9C68.0514 19.7477 63.3101 19.16 58.55 19.15C54.2578 19.1565 49.9699 19.4236 45.71 19.95C40.25 20.6 34.78 21.5 29.36 22.62C27.67 22.94 27.85 22.72 29.2 22.1C29.87 21.79 30.84 21.38 32.02 20.9C33.2 20.42 34.6 19.9 36.14 19.45L40.26 18.25C41.64 17.89 43.03 17.51 44.43 17.17C47.2506 16.4637 50.113 15.936 53 15.59C58.8263 14.7948 64.7337 14.7948 70.56 15.59C74.2401 16.0824 77.8529 16.9881 81.33 18.29C83.2182 19.0375 84.9791 20.0731 86.55 21.36C88.3029 22.7747 89.6459 24.6321 90.44 26.74C91.263 29.1385 91.305 31.7361 90.56 34.16C89.8822 36.3363 88.8111 38.3699 87.4 40.16C84.8164 43.2817 81.9028 46.1148 78.71 48.61C74.8923 51.6168 70.8393 54.3122 66.59 56.67C60.1748 60.2023 53.4081 63.0544 46.4 65.18C45.07 65.68 43.71 66.02 42.4 66.44C41.09 66.86 39.73 67.31 38.4 67.65C35.69 68.29 32.99 69.13 30.19 69.52C28.97 69.73 27.78 70 26.53 70.17C25.559 70.3004 24.5772 70.3305 23.6 70.26C22.9229 70.2418 22.2509 70.1376 21.6 69.95C21.1238 69.8231 20.6807 69.5947 20.301 69.2806C19.9213 68.9664 19.6139 68.574 19.4 68.13C19.1513 67.7289 18.9372 67.3074 18.76 66.87C18.34 65.45 20.14 64.17 23.27 63.53C25.6 63.14 27.92 62.53 30.27 62.12C31.45 61.93 32.61 61.62 33.78 61.33L37.29 60.52C41.9977 59.3139 46.6293 57.8279 51.16 56.07C57.9413 53.4532 64.384 50.0321 70.35 45.88L70.46 46Z" fill="currentColor"/>
<path d="M24.6 81C20.7559 80.2695 16.9868 79.1883 13.34 77.77C11.8933 77.2513 10.5056 76.5809 9.2 75.77C7.7531 74.8625 6.60269 73.5522 5.89 72C5.50492 71.0495 5.39742 70.0092 5.58 69C5.75384 68.0823 6.12957 67.2147 6.68 66.46C7.09351 65.915 7.53407 65.391 8 64.89C8.43 64.42 8.9 63.98 9.34 63.53C10.28 62.66 11.22 61.82 12.21 61.07C13.94 59.69 15.71 58.45 17.34 57.16C19.45 55.5 21.26 53.74 23.34 52.16C23.98 51.67 24.7 52.37 24.98 53.58C25.1513 54.3199 25.1388 55.0904 24.9435 55.8243C24.7483 56.5582 24.3763 57.2331 23.86 57.79C21.8193 59.7502 19.6549 61.5773 17.38 63.26C15.2887 64.7567 13.2854 66.3728 11.38 68.1C10.9521 68.4585 10.5812 68.88 10.28 69.35C10.2161 69.4683 10.1827 69.6006 10.1827 69.735C10.1827 69.8694 10.2161 70.0017 10.28 70.12C10.5017 70.5257 10.8214 70.8695 11.21 71.12C11.7727 71.5307 12.3719 71.8888 13 72.19C16.1835 73.6984 19.5428 74.8036 23 75.48C24.09 75.71 25.2 75.92 26.3 76.11L27.97 76.37L29.02 76.52C29.47 76.52 29.95 76.63 30.44 76.64C30.76 76.72 30.81 76.4 30.81 76.19C30.8296 75.9571 30.8296 75.7229 30.81 75.49C30.7419 74.9874 30.6417 74.4898 30.51 74C30.29 73.19 30.04 72.37 29.77 71.56C28.93 69.05 27.77 66.69 26.67 64.26C26.43 63.72 26.15 63.26 25.94 62.66C25.15 60.61 25.25 59.79 26.42 58.92C26.6711 58.709 26.9386 58.5184 27.22 58.35C28.22 57.86 29.22 58.35 30.06 59.78C31.31 61.8986 32.4062 64.1043 33.34 66.38C33.82 67.54 34.29 68.73 34.69 69.96C34.89 70.57 35.08 71.2 35.26 71.84L35.55 72.89C35.7 73.49 35.86 74.09 35.97 74.7C36.35 76.5 36.5 78.32 35.88 79.53L35.67 80C35.5864 80.1549 35.4894 80.3021 35.38 80.44L35.29 80.54V80.6C35.29 80.55 35.39 80.7 35.17 80.5L34.98 80.66L34.63 80.95C34.405 81.1822 34.1453 81.3779 33.86 81.53C33.4939 81.6641 33.1095 81.7417 32.72 81.76C31.828 81.8292 30.932 81.8292 30.04 81.76L28.66 81.62L27.57 81.49C26.57 81.36 25.63 81.21 24.67 81.05L24.6 81Z" fill="currentColor"/>
</svg>
