<svg width="96" height="96" viewBox="0 0 96 96" fill="none" xmlns="http://www.w3.org/2000/svg">
<path d="M28.75 27.43C21.23 30.33 15.12 65 21.64 71.58C30.09 80.12 71.36 72.86 71.36 72.86C71.36 72.86 74.91 77.55 68.89 78.69C62.87 79.83 16.19 82.46 13.8 75.31C11.41 68.16 13.25 40.21 16.93 32.51C20.61 24.81 28.75 27.43 28.75 27.43Z" fill="currentColor"/>
<path d="M30.55 81.61C28.05 81.45 25.55 81.26 23.05 81.01C21.79 80.89 20.53 80.72 19.23 80.57C18.59 80.49 17.93 80.39 17.23 80.26L16.69 80.15C16.4167 80.0975 16.1463 80.0307 15.88 79.95C15.3439 79.7951 14.8347 79.559 14.37 79.25L13.53 78.44C13.29 78.14 13.08 77.8 12.86 77.44C12.6501 77.1553 12.4817 76.8421 12.36 76.51C12.2394 76.2423 12.1326 75.9686 12.04 75.69C11.7291 74.7097 11.4951 73.7067 11.34 72.69C11.0631 70.8555 10.9061 69.0049 10.87 67.15C10.77 63.96 10.75 60.82 10.96 57.7C11.32 52.65 11.96 47.7 12.72 42.7C13.12 40.21 13.57 37.7 14.11 35.25C14.38 34.01 14.67 32.77 15.02 31.51C15.19 30.88 15.4 30.25 15.61 29.6C15.7523 29.187 15.9192 28.7829 16.11 28.39C16.3183 27.9634 16.5625 27.5552 16.84 27.17C17.32 26.6938 17.8962 26.3256 18.53 26.09C18.8551 25.9591 19.1893 25.8522 19.53 25.77C19.78 25.69 20.02 25.63 20.25 25.58C22.6978 25.0701 25.1714 24.6928 27.66 24.45C30.1 24.19 32.52 23.99 34.94 23.85C38.04 23.66 41.17 23.51 44.32 23.61C47.6234 23.5917 50.895 24.2555 53.93 25.56C54.3418 25.764 54.6882 26.0792 54.93 26.47C55.0103 26.5709 55.054 26.696 55.054 26.825C55.054 26.954 55.0103 27.0791 54.93 27.18C54.3236 27.5968 53.6456 27.8985 52.93 28.07C51.8351 28.4621 50.7202 28.7959 49.59 29.07C48.8853 29.2461 48.1707 29.3797 47.45 29.47C46.6575 29.5208 45.8625 29.5208 45.07 29.47C40.6747 29.2753 36.2723 29.3054 31.88 29.56C29.67 29.69 27.46 29.85 25.31 30.09C24.23 30.21 23.16 30.36 22.17 30.54L21.46 30.68L21.13 30.75H21C20.9375 30.7355 20.8725 30.7355 20.81 30.75C20.7716 30.7817 20.7379 30.8187 20.71 30.86C20.71 30.86 20.71 30.86 20.71 30.93L20.61 31.15L20.42 31.67C20.17 32.37 19.94 33.14 19.71 33.92C19.27 35.48 18.86 37.1 18.48 38.73C16.9322 46.1601 16.0487 53.7132 15.84 61.3C15.73 63.93 15.7 66.56 15.84 69.12C15.9038 70.3623 16.0541 71.5986 16.29 72.82C16.3379 73.1009 16.4047 73.3782 16.49 73.65C16.5506 73.9058 16.6308 74.1565 16.73 74.4C16.7808 74.5614 16.8514 74.7159 16.94 74.86C17.0149 74.9757 17.1021 75.083 17.2 75.18C17.3344 75.2571 17.4792 75.3143 17.63 75.35L18.03 75.44L18.55 75.54C19.26 75.67 20 75.77 20.75 75.87C22.25 76.03 23.75 76.15 25.31 76.25C30.47 76.59 35.67 76.76 40.86 76.8C48.7026 76.9745 56.5487 76.7007 64.36 75.98C65.7039 75.8296 67.039 75.6093 68.36 75.32L68.84 75.21L69.15 75.12L69.66 74.95C69.8234 74.884 69.9807 74.8036 70.13 74.71C70.2104 74.672 70.2789 74.6128 70.3282 74.5388C70.3776 74.4648 70.4058 74.3788 70.41 74.29C70.4491 73.8709 70.4491 73.4491 70.41 73.03C70.41 72.27 70.27 71.48 70.2 70.7L69.63 65.93C69.46 64.62 69.24 63.34 69.1 62.01C68.8291 60.2526 68.7921 58.4671 68.99 56.7C69.0648 56.2097 69.2358 55.7391 69.4932 55.3151C69.7507 54.8912 70.0894 54.5224 70.49 54.23C70.8158 53.9489 71.1712 53.7042 71.55 53.5C72.15 53.28 72.7 53.66 73.19 54.5C73.8479 55.7464 74.2748 57.1016 74.45 58.5C74.9 61.2 75.31 63.95 75.65 66.77C75.81 68.18 75.96 69.6 76.06 71.07L76.14 72.18V72.76V73.05C76.1506 73.1998 76.1506 73.3502 76.14 73.5L76.06 75.5C75.9342 76.1349 75.7739 76.7625 75.58 77.38L75.35 77.78C75.22 77.87 75.17 78.03 75.06 78.14C74.95 78.25 74.89 78.4 74.79 78.52L74.45 78.83C73.9636 79.2483 73.4133 79.586 72.82 79.83C72.5189 79.969 72.2081 80.086 71.89 80.18C71.57 80.29 71.24 80.38 70.89 80.46C70.54 80.54 70.18 80.64 69.96 80.68L69.37 80.79C67.84 81.08 66.37 81.26 64.93 81.41C62.03 81.7 59.18 81.85 56.32 81.95C47.72 82.22 39.15 81.95 30.56 81.58L30.55 81.61Z" fill="currentColor"/>
<path d="M71.58 32.17C69.73 33.85 67.88 35.55 66.07 37.28C65.74 37.6 65.44 37.95 65.14 38.28C64.8256 38.6317 64.4917 38.9656 64.14 39.28C61.65 41.38 59.14 43.47 56.73 45.64C55.66 46.64 54.68 47.64 53.73 48.71C52.487 50.0737 51.0987 51.2976 49.59 52.36C49.1 52.67 48.73 52.22 48.59 51.42C48.3779 50.419 48.5229 49.3753 49 48.47L50.55 46.11C51.09 45.35 51.72 44.67 52.32 43.97C53.5678 42.5538 54.9038 41.2178 56.32 39.97C57.9472 38.3536 59.4639 36.6297 60.86 34.81C62.6 32.99 64.43 31.22 66.23 29.44L69.58 26.15C71.24 24.46 73.02 22.87 74.58 21.15C75.1875 20.4692 75.7519 19.7511 76.27 19C76.83 18.28 77.4 17.56 77.98 16.87C78.2034 16.5335 78.4844 16.239 78.81 16C80.06 15.15 80.71 15.15 81.71 15.74C81.9372 15.8574 82.1576 15.9876 82.37 16.13C83.02 16.62 83.1 17.58 82.72 18.73C81.62 22.19 79.26 24.5 77 27C75.31 28.82 73.44 30.5 71.68 32.29L71.58 32.17Z" fill="currentColor"/>
<path d="M80.42 19.46V19.11C80.42 19.06 80.42 19.04 80.42 19C80.42 18.96 80.42 18.93 80.42 18.88C80.4273 18.7835 80.4273 18.6865 80.42 18.59C80.42 18.37 80.16 18.38 79.94 18.34H80L79.77 18.41L79.3 18.57C78.9729 18.6981 78.6391 18.8082 78.3 18.9C75.97 19.37 73.51 19.8 71.13 20.44C70.0755 20.7402 69.0403 21.1042 68.03 21.53C66.814 22.2055 65.4917 22.6688 64.12 22.9C63.69 22.9 63.27 21.97 63.19 20.9C63.11 19.83 63.37 18.53 64.13 18.15C65.4468 17.4735 66.8103 16.892 68.21 16.41C69.6467 15.9912 71.12 15.7099 72.61 15.57C73.5185 15.4601 74.4154 15.2693 75.29 15L76.62 14.62C77.08 14.53 77.54 14.46 78.01 14.4L78.79 14.32H79.21C79.4059 14.3451 79.6041 14.3451 79.8 14.32C80.182 14.2752 80.568 14.2752 80.95 14.32C81.3086 14.3189 81.6666 14.349 82.02 14.41C82.3667 14.4639 82.7036 14.5684 83.02 14.72C83.1795 14.7895 83.315 14.9043 83.41 15.05C83.5155 15.1767 83.6124 15.3103 83.7 15.45C84.0206 16.0744 84.224 16.7523 84.3 17.45C84.37 17.92 84.43 18.36 84.46 18.78V19.71L84.53 21.56C84.59 23.41 84.53 25.26 84.6 27.1C84.66 28.52 84.97 29.93 85.12 31.38C85.1921 31.7094 85.1921 32.0506 85.12 32.38C85.0711 32.8397 84.8746 33.2713 84.56 33.61C84.2046 33.8544 83.7903 33.9995 83.36 34.03C83.1451 34.0696 82.9281 34.0963 82.71 34.11C82.3433 34.1199 81.9863 33.9914 81.71 33.75C81.3492 33.5018 81.0679 33.1545 80.9 32.75L80.5 31.82C80.4065 31.5209 80.3461 31.2123 80.32 30.9C80.24 30.29 80.19 29.67 80.16 29.05C80.1 27.8 80.16 26.53 80.16 25.25C80.16 23.36 80.29 21.44 80.24 19.6L80.42 19.46Z" fill="currentColor"/>
</svg>
