<svg width="96" height="96" viewBox="0 0 96 96" fill="none" xmlns="http://www.w3.org/2000/svg">
<path d="M18.09 27C17.9383 27.2549 17.8524 27.5436 17.84 27.84C17.8173 27.9813 17.8251 28.1259 17.8631 28.2639C17.901 28.4019 17.9682 28.5301 18.06 28.64C18.833 29.548 19.8902 30.1682 21.06 30.4C21.9517 30.551 22.8653 30.5101 23.74 30.28C24.5509 30.1286 25.3209 29.8084 26 29.34C26.7264 28.8262 27.3319 28.16 27.7741 27.3879C28.2162 26.6159 28.4845 25.7565 28.56 24.87C28.6243 23.9294 28.4774 22.9864 28.13 22.11C27.3762 20.4309 26.1132 19.0315 24.52 18.11C23.4656 17.4957 22.3451 17.0025 21.18 16.64C20.53 16.41 19.97 16.18 19.42 16.02C18.9765 15.8676 18.5084 15.7998 18.04 15.82C17.9379 15.8372 17.8331 15.8269 17.7363 15.7899C17.6396 15.753 17.5546 15.6909 17.49 15.61C17.3871 15.4635 17.3319 15.2889 17.3319 15.11C17.3319 14.931 17.3871 14.7564 17.49 14.61C17.9093 14.0394 18.5326 13.6525 19.23 13.53C20.0226 13.3449 20.8473 13.3449 21.64 13.53C22.23 13.67 23.01 13.86 23.71 14.1C24.4332 14.3391 25.1384 14.6298 25.82 14.97C27.2466 15.669 28.5368 16.6172 29.63 17.77C30.8065 19.0065 31.6735 20.504 32.16 22.14C32.655 23.8312 32.655 25.6288 32.16 27.32C31.587 29.3217 30.485 31.1318 28.97 32.56C27.4346 34.0475 25.4529 34.9891 23.33 35.24C23.05 35.24 22.76 35.3 22.47 35.31H21.61C21.0407 35.2928 20.4746 35.2191 19.92 35.09C18.8216 34.8467 17.7664 34.4388 16.79 33.88C15.7363 33.2973 14.8165 32.5002 14.09 31.54C13.2857 30.4664 12.8507 29.1614 12.85 27.82C12.8899 26.2541 13.4813 24.7525 14.52 23.58C15.5066 22.4525 16.8335 21.6767 18.3 21.37C19.4198 21.1429 20.581 21.2365 21.65 21.64C22.6854 22.0431 23.5986 22.7081 24.3 23.57C25.5075 25.1498 26.2426 27.0395 26.42 29.02C26.6189 30.5334 26.5273 32.0709 26.15 33.55C25.7475 35.1269 24.8882 36.5497 23.68 37.64C23.1934 38.1472 22.6256 38.5696 22 38.89C21.2473 39.3129 20.403 39.5463 19.54 39.57C19.2818 39.5673 19.0268 39.5129 18.79 39.41C18.5638 39.2762 18.3526 39.1186 18.16 38.94C17.9927 38.8121 17.8324 38.6752 17.68 38.53C17.33 38.2 17.82 36.95 18.9 36.01C19.2638 35.6471 19.5982 35.2559 19.9 34.84C20.19 34.45 20.49 34.14 20.69 33.84C20.8887 33.5267 21.0498 33.191 21.17 32.84C21.2975 32.5127 21.4076 32.1789 21.5 31.84C21.5874 31.4716 21.6476 31.0972 21.68 30.72C21.7146 30.3274 21.7146 29.9325 21.68 29.54C21.6201 28.7457 21.4239 27.9677 21.1 27.24C20.9406 26.8631 20.7058 26.5228 20.41 26.24C20.204 26.0837 19.9476 26.009 19.69 26.03C19.3761 26.0528 19.0736 26.157 18.8123 26.3323C18.551 26.5077 18.34 26.7481 18.2 27.03L18.09 27Z" fill="currentColor"/>
<path d="M36.78 67.49C35.8769 68.2694 35.3047 69.3636 35.18 70.55C35.1693 70.7405 35.2046 70.9309 35.2829 71.1049C35.3612 71.2789 35.4803 71.4316 35.63 71.55L35.75 71.68L35.93 71.79L36.3 72.04C36.61 72.14 36.96 72.35 37.23 72.42C37.5669 72.5223 37.923 72.5448 38.2701 72.4858C38.6172 72.4268 38.9458 72.2879 39.23 72.08C39.96 71.5457 40.536 70.8282 40.9 70C41.3492 69.0611 41.6011 68.0401 41.64 67C41.7341 64.7158 41.1003 62.4607 39.83 60.56C38.6144 58.805 37.0136 57.3513 35.15 56.31C32.7628 54.8678 30.029 54.1005 27.24 54.09C26.38 54.09 26.39 53.87 27.12 53.41C28.3699 52.7009 29.8114 52.4035 31.24 52.56C34.511 52.9351 37.6202 54.1857 40.24 56.18C41.6243 57.2173 42.7928 58.5149 43.68 60C44.5918 61.5085 45.203 63.1792 45.48 64.92C45.8215 67.1092 45.6012 69.3492 44.84 71.43C44.4429 72.5108 43.8794 73.523 43.17 74.43C42.355 75.4863 41.2552 76.2878 40 76.74C38.6049 77.187 37.102 77.166 35.72 76.68C34.4378 76.2747 33.2694 75.5723 32.31 74.63C31.2693 73.5546 30.6729 72.1261 30.64 70.63C30.6281 69.2999 30.9734 67.991 31.64 66.84C32.3728 65.5516 33.3634 64.4282 34.55 63.54C35.7362 62.6474 37.1003 62.0199 38.55 61.7C40.7041 61.2408 42.9489 61.4899 44.95 62.41C46.8952 63.2857 48.57 64.667 49.8 66.41C51.7295 69.0462 52.7603 72.2331 52.74 75.5C52.7806 76.1956 52.7404 76.8936 52.62 77.58C52.08 80.09 51.48 80.73 50.29 80.93C50.0373 80.9943 49.7798 81.0378 49.52 81.06C48.74 81.06 48.25 79.92 48.24 78.27C48.24 77.66 48.24 77.05 48.14 76.46C48.04 75.87 48.14 75.31 48.07 74.75C48.0197 73.6939 47.8486 72.6471 47.56 71.63C47.0136 69.729 45.8488 68.0645 44.25 66.9C43.6723 66.5006 43.0341 66.1967 42.36 66C41.7068 65.8356 41.0303 65.7849 40.36 65.85C39.0179 65.9858 37.7707 66.6041 36.85 67.59L36.78 67.49Z" fill="currentColor"/>
<path d="M64.57 38.8C64.918 38.0016 65.4564 37.3007 66.138 36.7585C66.8196 36.2163 67.6237 35.8495 68.48 35.69C69.3186 35.5245 70.1814 35.5245 71.02 35.69C71.6764 35.8227 72.3143 36.0342 72.92 36.32C73.988 36.8223 74.9781 37.4756 75.86 38.26C76.7379 39.0148 77.5084 39.8862 78.15 40.85C79.2249 42.3258 79.8406 44.0859 79.92 45.91C79.9351 47.6328 79.3319 49.304 78.22 50.62C77.2555 51.7478 76.0625 52.6578 74.72 53.29C72.2523 54.5522 69.4832 55.106 66.72 54.89C64.3222 54.7227 62.008 53.941 60 52.62C57.4874 51.0108 55.5482 48.6481 54.46 45.87C54.11 45.03 54.76 44.87 55.72 45.15C56.9226 45.5694 58.016 46.2528 58.92 47.15C60.5 48.8673 62.5414 50.0929 64.8 50.68C65.8813 50.9716 67.0013 51.093 68.12 51.04C69.2895 51.006 70.448 50.8039 71.56 50.44C72.9079 50.039 74.1056 49.2452 75 48.16C75.3428 47.7182 75.5707 47.1983 75.6632 46.6468C75.7557 46.0953 75.7099 45.5295 75.53 45C75.0757 43.5525 74.1936 42.2764 73 41.34C72.398 40.833 71.724 40.4185 71 40.11C70.7027 39.9907 70.3946 39.9003 70.08 39.84C69.8724 39.7951 69.6576 39.7951 69.45 39.84C69.1759 39.8901 68.9272 40.0325 68.7453 40.2435C68.5633 40.4546 68.4591 40.7215 68.45 41C68.4398 41.3236 68.5171 41.6439 68.6738 41.9273C68.8304 42.2106 69.0605 42.4465 69.34 42.61C71.47 44.21 75.25 43.45 77.44 41.41C78.2534 40.6917 78.8419 39.7536 79.1346 38.7086C79.4274 37.6637 79.4118 36.5564 79.09 35.52C78.96 35.08 78.73 34.69 78.6 34.24C78.3331 33.6408 78.1481 33.0085 78.05 32.36C78.115 31.8307 78.2706 31.3165 78.51 30.84C78.63 30.62 78.71 30.37 78.82 30.19C78.93 30.01 79.37 29.81 79.93 29.94C80.7251 30.0839 81.4382 30.5188 81.93 31.16C82.1723 31.4454 82.3961 31.746 82.6 32.06C82.8196 32.3811 83.02 32.715 83.2 33.06C83.5752 33.7951 83.8445 34.5795 84 35.39C84.3091 37.1159 84.1396 38.8936 83.51 40.53C82.8597 42.1147 81.8727 43.5391 80.6174 44.7046C79.3621 45.8701 77.8685 46.7489 76.24 47.28C75.031 47.706 73.7616 47.9356 72.48 47.96C71.1047 47.983 69.7406 47.7101 68.48 47.16C67.7952 46.8588 67.153 46.4687 66.57 46C65.8736 45.4555 65.2952 44.775 64.87 44C64.4139 43.2017 64.1413 42.3119 64.0722 41.3951C64.003 40.4783 64.1389 39.5577 64.47 38.7L64.57 38.8Z" fill="currentColor"/>
</svg>
