<svg width="96" height="96" viewBox="0 0 96 96" fill="none" xmlns="http://www.w3.org/2000/svg">
<path d="M64.41 48.64C65.26 46.58 66.14 44.53 67.03 42.48L68.37 39.48L68.8 38.48C68.86 38.36 68.8 38.26 68.73 38.1C68.4344 37.5229 68.0534 36.9936 67.6 36.53C67.13 36 66.6 35.53 66.05 34.95C64.02 33.0506 61.8867 31.2645 59.66 29.6C57.41 27.88 55.12 26.19 52.83 24.49L46.69 20C44.0205 18.1503 41.5055 16.0868 39.17 13.83C38.46 13.11 38.91 12.83 39.92 12.89C41.3847 13.0972 42.7813 13.6415 44 14.48C46.67 16.36 49.39 18.13 52.08 20C54.77 21.87 57.42 23.81 60.08 25.85C61.65 27.08 63.32 28.25 64.99 29.47C66.735 30.6863 68.3742 32.0478 69.89 33.54C70.3269 34.0034 70.7375 34.4908 71.12 35C71.32 35.25 71.5 35.53 71.69 35.8L71.94 36.25C72.0565 36.4328 72.1537 36.6272 72.23 36.83L72.49 37.46L72.68 38.11C72.68 38.22 72.78 38.33 72.74 38.44L72.64 38.76L72.46 39.4C72.39 39.6 72.31 39.84 72.25 40L72.09 40.4L71.77 41.19C70.93 43.26 70.11 45.31 69.32 47.38C68.32 49.93 67.38 52.5 66.48 55.08C65.09 58.98 63.74 62.92 62.6 66.88C61.72 69.96 61.14 73.07 60.43 76.16C60.28 76.84 60.18 77.53 60 78.16C59.34 80.68 58.77 81.37 57.26 81.49C56.9292 81.5408 56.5947 81.5642 56.26 81.56C55.14 81.48 54.59 80.21 54.86 78.29C55.2901 75.3987 55.8979 72.5366 56.68 69.72C57.5 66.87 58.5 64.04 59.53 61.2C61.1 57.01 62.69 52.8 64.34 48.6L64.41 48.64Z" fill="currentColor"/>
<path d="M64.2 25.36C66.02 26.82 67.83 28.31 69.63 29.83L72.32 32.15L73.65 33.35L73.99 33.65L74.51 34.14L75.59 35.14L76.46 36.39C76.6758 36.8568 76.7851 37.3658 76.78 37.88C76.747 38.9364 76.5824 39.9844 76.29 41C75.97 42.27 75.6 43.45 75.23 44.63C74.48 46.97 73.69 49.27 72.87 51.55C71.68 54.81 70.6 58.1 69.33 61.32C67.8433 65.04 66.3167 68.7367 64.75 72.41L62.37 77.92L59.37 84.75C59.2218 85.0707 59.0263 85.3674 58.79 85.63L58.48 86.02L58.33 86.22L58.18 86.34L57.58 86.83C57.5234 86.8815 57.4571 86.9213 57.385 86.947C57.3129 86.9727 57.2365 86.984 57.16 86.98C57.0104 86.9958 56.8596 86.9958 56.71 86.98C56.0978 86.8298 55.5183 86.5688 55 86.21C54.382 85.7675 53.8093 85.2651 53.29 84.71C52.73 84.13 52.17 83.51 51.66 82.92L51 82.19L50.49 81.59C49.81 80.78 49.14 79.99 48.49 79.17C45.1 74.97 41.64 70.85 38.09 66.91C35.77 64.41 33.54 61.84 31.21 59.39C30.05 58.16 28.85 56.97 27.63 55.83C26.4813 54.6667 25.1671 53.6794 23.73 52.9C22.85 52.48 22.46 52.45 22.48 52.27C22.5 52.09 23 51.89 24 52C25.3435 52.1645 26.6528 52.5391 27.88 53.11C29.613 53.8424 31.2433 54.7971 32.73 55.95C34.0633 57.01 35.3967 58.0967 36.73 59.21L38.66 60.9C39.3 61.46 39.87 62.09 40.46 62.69C42.82 65.12 45.1 67.61 47.33 70.12C49.56 72.63 51.78 75.12 53.9 77.68L54.69 78.68L55.09 79.14C55.1195 79.1816 55.1462 79.225 55.17 79.27C55.23 79.38 55.29 79.49 55.38 79.63C55.47 79.77 55.57 79.95 55.73 80.02C55.89 80.09 55.89 79.84 56 79.72L56.24 79.38C56.4279 79.0561 56.5982 78.7223 56.75 78.38L57.39 76.93L58.64 73.99C59.46 71.99 60.25 69.99 61.01 67.99C62.55 63.99 64.01 59.88 65.47 55.85C66.65 52.55 67.79 49.2667 68.89 46C69.43 44.38 69.96 42.75 70.43 41.15L70.76 40L70.95 39.29C70.992 39.116 71.0188 38.9387 71.03 38.76C71.0357 38.7166 71.0282 38.6724 71.0086 38.6332C70.989 38.594 70.9582 38.5616 70.92 38.54L70.73 38.35C70.47 38.06 69.27 37 68.38 36.21C67.49 35.42 66.46 34.56 65.47 33.75C61 30.05 56.39 26.48 51.75 23L46.07 18.68L43.24 16.51L41.33 15L40.65 14.45L40.31 14.16C40.21 14.1 40.08 13.88 39.96 14.03C39.6751 14.5354 39.4599 15.077 39.32 15.64L39.08 16.48L38.8 17.48L38 20.4C36.34 27 35 33.64 32.84 40.25C32.35 41.7 31.84 43.15 31.23 44.6C30.4445 46.6641 29.1838 48.514 27.55 50C27.0791 50.4135 26.5107 50.7002 25.8984 50.8331C25.2861 50.9661 24.6499 50.9409 24.05 50.76C23.6399 50.6527 23.2623 50.4467 22.95 50.16C22.63 49.72 22.95 49.23 23.23 48.48C23.6476 47.2928 24.1558 46.1394 24.75 45.03C25.9275 42.439 26.9135 39.7652 27.7 37.03C28.56 34.18 29.35 31.24 30.13 28.25C30.91 25.26 31.67 22.19 32.45 19.14L33.05 16.81L33.35 15.64L34 13.49C34.3619 12.0271 34.8921 10.6109 35.58 9.27002C35.8691 8.7823 36.2454 8.35182 36.69 8.00002C37.092 7.67587 37.5542 7.43456 38.05 7.29002C38.6295 7.25562 39.2105 7.25562 39.79 7.29002C40.28 7.11002 41.13 7.73002 41.88 8.12002L44.4 10.12L46.4 11.69L49 13.55L54.09 17.41C57.4967 19.99 60.9033 22.6 64.31 25.24L64.2 25.36Z" fill="currentColor"/>
</svg>
