<svg width="96" height="96" viewBox="0 0 96 96" fill="none" xmlns="http://www.w3.org/2000/svg">
<path d="M53.15 64.71C54.0451 64.5068 54.8431 64.0019 55.41 63.28C56.1047 62.3082 56.5541 61.1829 56.72 60C57.1384 56.9098 57.0844 53.774 56.56 50.7C56.22 48.31 55.56 45.94 55.1 43.51L53.74 37C53.51 35.89 53.3 34.77 53.12 33.6C53 33 53 32.41 52.88 31.8C52.76 31.19 52.79 30.52 52.8 29.92C52.7331 27.3819 53.1857 24.8569 54.13 22.5C54.6591 21.2841 55.3633 20.1521 56.22 19.14C57.0814 18.1477 58.0939 17.2972 59.22 16.62C61.1589 15.4933 63.3049 14.7689 65.53 14.49C67.6404 14.2047 69.7796 14.2047 71.89 14.49C77.2295 15.0486 82.2813 17.1863 86.4 20.63C87.64 21.77 86.75 22.4 85.1 22.49C82.8726 22.5821 80.6485 22.2425 78.55 21.49C74.3991 19.8178 69.8832 19.2594 65.45 19.87C63.579 20.1329 61.8338 20.9636 60.45 22.25C59.8122 22.9036 59.2853 23.6568 58.89 24.48C58.4831 25.4181 58.191 26.4019 58.02 27.41C57.8081 28.7332 57.7812 30.0794 57.94 31.41C58.1568 32.8917 58.4539 34.3605 58.83 35.81C59.59 38.81 60.48 41.92 61.17 45.07C61.9905 48.5955 62.5025 52.1857 62.7 55.8C62.7968 57.7208 62.676 59.6464 62.34 61.54C61.9918 63.6487 61.126 65.6382 59.82 67.33C58.0486 69.4184 55.5427 70.7465 52.82 71.04C50.4058 71.3019 47.9637 71.0913 45.63 70.42C42.26 69.54 39.27 68.19 36.3 67.19C34.9006 66.6796 33.4627 66.2817 32 66C30.5911 65.7901 29.1589 65.7901 27.75 66C25.5878 66.3334 23.5447 67.207 21.81 68.54C20.0688 69.8989 18.5329 71.5021 17.25 73.3L16.41 74.53C16.15 74.95 15.89 75.38 15.6 75.79C13.6 78.98 12.65 79.9 10.7 79.79C10.2641 79.8256 9.82594 79.8256 9.39 79.79C8 79.45 7.77 77.43 9.05 74.5C10.0297 72.2433 11.2644 70.106 12.73 68.13C14.3563 65.9669 16.3459 64.1025 18.61 62.62C21.0687 61.0461 23.8387 60.0227 26.73 59.62C27.46 59.53 28.18 59.48 28.91 59.42C29.64 59.36 30.44 59.42 31.18 59.47C32.5847 59.5965 33.9762 59.8407 35.34 60.2C39.22 61.2 42.43 62.69 45.45 63.72C48.47 64.75 51.1 65.24 53.1 64.62L53.15 64.71Z" fill="currentColor"/>
</svg>
