<svg width="96" height="96" viewBox="0 0 96 96" fill="none" xmlns="http://www.w3.org/2000/svg">
<path d="M18.72 31.15C18.2577 34.2197 18.4347 37.3519 19.24 40.35C19.6304 41.8506 20.1872 43.303 20.9 44.68C21.6336 46.0461 22.5156 47.3272 23.53 48.5C25.0712 50.1596 26.888 51.54 28.9 52.58L30.25 53.25C30.7 53.47 31.18 53.62 31.65 53.83C32.1169 54.0235 32.5943 54.1904 33.08 54.33C33.5615 54.4957 34.0523 54.6326 34.55 54.74C37.6316 55.4515 40.8289 55.5022 43.9314 54.8885C47.034 54.2749 49.9713 53.011 52.55 51.18C55.6651 48.948 58.1129 45.9091 59.63 42.39C60.5777 40.1743 61.0969 37.799 61.16 35.39V33.6C61.0649 33.004 61.0048 32.403 60.98 31.8C60.859 30.5743 60.6246 29.3625 60.28 28.18C59.88 26.68 60.28 26.63 61.41 27.66C61.69 27.92 62.02 28.25 62.41 28.66C62.7682 29.1292 63.1019 29.6165 63.41 30.12C63.8383 30.7059 64.1755 31.3532 64.41 32.04C64.52 32.4 64.63 32.78 64.72 33.17C64.7875 33.5706 64.8343 33.9745 64.86 34.38C65.208 40.3533 63.1971 46.2244 59.26 50.73C57.3604 52.9768 55.0953 54.887 52.56 56.38C50.0144 57.8484 47.233 58.8634 44.34 59.38C40.8503 60.0723 37.2665 60.1501 33.75 59.61C30.1426 59.1036 26.7115 57.7311 23.75 55.61C22.9425 55.026 22.1649 54.4019 21.42 53.74C21.06 53.4 20.72 53.04 20.42 52.74C20.0634 52.3952 19.7293 52.0278 19.42 51.64C18.0735 50.1353 16.9243 48.4652 16 46.67C14.2448 43.1685 13.3014 39.3163 13.24 35.4C13.1224 30.5977 14.397 25.864 16.91 21.77C18.8584 18.7841 21.3764 16.2117 24.32 14.2C27.211 12.1621 30.4667 10.6989 33.91 9.89C39.3051 8.54835 44.993 9.03729 50.08 11.28C50.6533 11.52 51.2033 11.78 51.73 12.06C52.2805 12.3223 52.8118 12.6231 53.32 12.96C53.8 13.28 54.25 13.55 54.61 13.85C54.97 14.15 55.28 14.46 55.61 14.74C56.0682 15.203 56.4771 15.7124 56.83 16.26C57.3155 16.9556 57.5126 17.8122 57.38 18.65C57.3512 18.9882 57.2909 19.323 57.2 19.65C56.79 20.58 55.09 19.83 52.59 18.44C52.12 18.19 51.64 17.96 51.2 17.68L49.8 16.9L48.41 16.22L47 15.63C45.1142 14.8989 43.1347 14.4377 41.12 14.26C37.0139 13.9247 32.8998 14.8045 29.29 16.79C27.9091 17.53 26.6088 18.4114 25.41 19.42C24.2398 20.4462 23.1807 21.5925 22.25 22.84C21.3301 24.0415 20.5735 25.3596 20 26.76C19.422 28.175 19.0223 29.6563 18.81 31.17L18.72 31.15Z" fill="currentColor"/>
<path d="M14 67.47C13.62 68.13 13.28 68.81 13 69.47C12.72 70.13 12.37 70.86 12.09 71.57C11.88 72.09 11.79 72.63 11.61 73.16C10.9351 75.0192 10.3675 76.9157 9.91001 78.84C9.75745 79.702 9.67385 80.5747 9.66001 81.45V83.12C9.69517 83.6828 9.69517 84.2472 9.66001 84.81C9.66001 85.17 9.34001 85.19 8.96001 84.96C8.43071 84.6263 8.02645 84.1271 7.81001 83.54C7.44985 82.3384 7.22183 81.1011 7.13001 79.85C7.08012 79.2277 7.08012 78.6023 7.13001 77.98C7.14323 77.3571 7.23735 76.7386 7.41001 76.14C7.60987 75.4392 7.75365 74.7236 7.84001 74C7.98001 73.27 8.09001 72.52 8.26001 71.78C8.43001 71.04 8.71001 70.2 8.95001 69.41L9.78001 67.09C10.17 66.16 10.53 65.22 10.95 64.3C11.25 63.6 11.57 62.91 11.95 62.22C12.33 61.53 12.62 60.84 12.95 60.16C13.5 59.1 13.88 57.96 14.54 56.86C14.6666 56.5955 14.8244 56.3471 15.01 56.12C15.1595 55.9336 15.3307 55.7658 15.52 55.62C15.6838 55.5086 15.8729 55.4398 16.07 55.42C16.2748 55.4153 16.478 55.458 16.6636 55.5447C16.8492 55.6314 17.0122 55.7599 17.14 55.92C17.3247 56.0747 17.4953 56.2453 17.65 56.43C18.054 56.9579 18.2466 57.6176 18.19 58.28C17.98 59.14 17.71 59.99 17.41 60.91L16.92 62.27C16.75 62.73 16.44 63.11 16.23 63.56C15.52 64.85 14.74 66.15 14.1 67.56L14 67.47Z" fill="currentColor"/>
<path d="M12.82 56.52L14.08 55.52C14.5963 55.1089 15.1524 54.7504 15.74 54.45C16.2426 54.1705 16.8051 54.0161 17.38 54C17.9495 54.0265 18.4913 54.2531 18.91 54.64C19.2361 54.9123 19.5434 55.2063 19.83 55.52C20.1261 55.874 20.3873 56.2557 20.61 56.66C20.8131 56.9786 20.9904 57.313 21.14 57.66C21.23 57.9 21.31 58.15 21.39 58.39C21.55 58.87 21.69 59.39 21.84 59.83L22.65 62.66C22.901 63.4789 23.205 64.2806 23.56 65.06C23.9362 66.1036 24.1422 67.201 24.17 68.31C24.17 68.68 23.72 68.79 23.12 68.71C22.43 68.6828 21.7672 68.4338 21.23 68C20.87 67.55 20.51 67.11 20.17 66.66C19.9126 66.1812 19.7017 65.679 19.54 65.16C19.1635 64.1291 18.8595 63.0732 18.63 62C18.4888 61.3665 18.2563 60.7568 17.94 60.19L17.71 59.76L17.59 59.56C17.59 59.48 17.59 59.5 17.54 59.46C17.49 59.42 17.44 59.26 17.4 59.15C17.36 59.04 17.29 58.89 17.21 58.76C17.1723 58.6935 17.1251 58.6329 17.07 58.58C17.01 58.52 16.94 58.58 16.87 58.58C16.5877 58.6628 16.3209 58.7911 16.08 58.96L16 59L15.76 59.19L15.24 59.61C14.89 59.89 14.55 60.18 14.24 60.49C13.202 61.3963 12.2234 62.3683 11.31 63.4C10.667 64.2494 10.0823 65.1415 9.56 66.07C9.43 66.27 9.34 66.48 9.2 66.67C8.68 67.36 8.31 67.41 7.44 66.94C7.25 66.83 7.04 66.73 6.85 66.61C6.55628 66.4436 6.3309 66.1786 6.21377 65.862C6.09664 65.5454 6.0953 65.1975 6.21 64.88C6.99457 62.9931 8.1162 61.265 9.52 59.78C10.559 58.6175 11.6607 57.5126 12.82 56.47V56.52Z" fill="currentColor"/>
<path d="M79.08 27.59C77.8985 26.9923 76.6753 26.481 75.42 26.06C74.96 25.89 74.42 25.88 74.01 25.73C73.19 25.45 72.35 25.27 71.5 25.05L70.23 24.8C69.8034 24.6803 69.369 24.5901 68.93 24.53C68.1662 24.4106 67.3921 24.3704 66.62 24.41C65.6217 24.4823 64.6201 24.4989 63.62 24.46C63.3 24.46 63.28 24.14 63.48 23.76C63.7463 23.2615 64.1725 22.8671 64.69 22.64C65.2038 22.4532 65.728 22.2962 66.26 22.17C66.7924 22.0255 67.3335 21.9153 67.88 21.84C68.9599 21.6301 70.0701 21.6301 71.15 21.84C72.43 22.13 73.8 22.07 75.15 22.31C76.5893 22.5744 78.0091 22.9352 79.4 23.39C80.25 23.68 81.1 23.97 81.93 24.31C83.21 24.79 84.43 25.41 85.68 25.96C86.63 26.43 87.68 26.75 88.68 27.3C88.9071 27.4249 89.1274 27.5617 89.34 27.71C89.5004 27.8087 89.6372 27.9413 89.7408 28.0985C89.8445 28.2557 89.9125 28.4337 89.94 28.62C89.9 29.0008 89.7264 29.355 89.45 29.62C89.3042 29.8123 89.1473 29.996 88.98 30.17C88.7501 30.4087 88.4707 30.5942 88.1615 30.7134C87.8522 30.8326 87.5206 30.8826 87.19 30.86C86.78 30.78 86.4 30.69 86.02 30.6C85.64 30.51 85.25 30.4 84.84 30.29C84.43 30.18 84 30.1 83.62 30C83.2383 29.8375 82.8675 29.6504 82.51 29.44C81.4 28.86 80.27 28.21 79.05 27.71L79.08 27.59Z" fill="currentColor"/>
<path d="M88.84 25.63L89.38 26.24C89.59 26.47 89.79 26.72 89.99 26.96C90.3812 27.4153 90.7169 27.9154 90.99 28.45C91.2148 28.9109 91.3311 29.4172 91.33 29.93C91.3146 30.4475 91.1242 30.9446 90.79 31.34C90.58 31.64 90.29 31.92 90.04 32.21C89.7261 32.5139 89.377 32.7791 89 33C88.6763 33.1913 88.3425 33.3649 88 33.52L87.53 33.75L87.19 33.87L85.87 34.3L83.27 35.1C82.5239 35.3506 81.7956 35.6513 81.09 36C80.1328 36.3766 79.1181 36.5863 78.09 36.62C77.75 36.62 77.62 36.17 77.66 35.57C77.6757 34.8971 77.9031 34.2462 78.31 33.71C78.71 33.35 79.1 32.99 79.5 32.71C79.9417 32.4209 80.4147 32.1827 80.91 32C81.841 31.6359 82.7968 31.3385 83.77 31.11C84.3523 30.9715 84.9092 30.742 85.42 30.43L85.9 30.16C85.9924 30.1022 86.0894 30.052 86.19 30.01C86.3139 29.9581 86.4342 29.898 86.55 29.83C86.68 29.76 86.8 29.64 86.75 29.51C86.6785 29.2555 86.5635 29.0153 86.41 28.8L86.24 28.56L85.87 28.11C85.6 27.8 85.33 27.49 85.04 27.2C84.1855 26.2637 83.2666 25.3882 82.29 24.58C81.4882 24.0156 80.6459 23.5109 79.77 23.07C79.5781 22.9765 79.3911 22.873 79.21 22.76C78.55 22.31 78.51 21.96 78.97 21.09C79.07 20.89 79.17 20.69 79.29 20.5C79.4391 20.2067 79.6842 19.9733 79.9844 19.8387C80.2846 19.7041 80.6218 19.6763 80.94 19.76C82.7194 20.3834 84.3601 21.3481 85.77 22.6C86.86 23.5 87.87 24.5 88.91 25.55L88.84 25.63Z" fill="currentColor"/>
<path d="M40.58 27.7C40.5 27.44 40.32 27.49 40.17 27.61C40.0716 27.6992 39.9843 27.7999 39.91 27.91L39.83 28.03L39.52 28.57L38.93 29.57C38.37 30.57 37.93 31.67 37.37 32.72L35.88 35.52L34.35 38.3C33.8419 39.2861 33.2811 40.2442 32.67 41.17L32.42 41.52C32.3106 41.6781 32.1903 41.8285 32.06 41.97L31.67 42.43L31.24 42.84C30.6939 43.3336 29.9754 43.5922 29.24 43.56C28.9265 43.4911 28.6238 43.3801 28.34 43.23C28.0816 43.0481 27.858 42.8212 27.68 42.56C27.2884 41.993 27.0475 41.3357 26.98 40.65L26.9 40.12C26.8951 40.0768 26.8951 40.0332 26.9 39.99C26.9 39.94 26.9 39.91 26.9 39.87V39.68C26.9 39.43 26.9 39.18 26.9 38.94C26.9 38.45 26.9 37.94 26.9 37.49C26.9987 35.0497 27.4813 32.6401 28.33 30.35C28.69 29.61 28.92 29.89 29.05 30.56C29.2771 31.6071 29.3512 32.6816 29.27 33.75C29.17 34.92 29.12 36.09 29.13 37.24C29.13 37.81 29.13 38.37 29.23 38.91C29.23 39.16 29.34 39.5 29.37 39.64C29.37 39.7 29.37 39.91 29.56 39.87H29.67C29.7022 39.8539 29.7298 39.8298 29.75 39.8C29.83 39.7 29.9 39.61 29.98 39.49C30.27 39.07 30.57 38.58 30.86 38.09C31.15 37.6 31.49 36.87 31.86 36.09C32.23 35.31 32.49 34.77 32.78 34.09C33.38 32.73 33.93 31.33 34.55 29.96C34.9 29.21 35.25 28.45 35.62 27.7L36.19 26.57L36.32 26.32L36.52 25.87L36.95 24.97C37.4398 23.8592 38.0827 22.8224 38.86 21.89C39.4578 21.1768 40.2102 20.6092 41.06 20.23C41.5842 20.0107 42.1599 19.9449 42.72 20.04C43.0139 20.1206 43.2868 20.2639 43.52 20.46C43.7095 20.6499 43.8803 20.8575 44.03 21.08C44.3175 21.564 44.5363 22.0857 44.68 22.63C44.8484 23.2717 44.9556 23.928 45 24.59C45.0941 25.6706 45.1275 26.7556 45.1 27.84L45 30.31C45 31.83 44.95 33.31 45 34.84C45.1907 37.0598 45.5926 39.2564 46.2 41.4C46.31 41.84 46.5 42.21 46.62 42.57C46.67 42.73 46.73 42.86 46.76 42.99C46.7975 43.0729 46.8244 43.1603 46.84 43.25C46.84 43.25 46.84 43.41 46.84 43.47C46.7911 43.5272 46.7506 43.5912 46.72 43.66C46.5973 43.8257 46.513 44.0167 46.4732 44.2191C46.4334 44.4214 46.4392 44.6301 46.49 44.83C46.5494 45.0712 46.6331 45.3057 46.74 45.53C46.88 45.89 46.8 46.28 46.11 46.59C45.6463 46.725 45.1537 46.725 44.69 46.59C44.1145 46.4135 43.5898 46.1014 43.16 45.68C42.2774 44.5836 41.5999 43.337 41.16 42C40.95 41.41 40.77 40.82 40.61 40.24C40.481 39.6633 40.3908 39.0787 40.34 38.49C40.1243 36.2099 40.0775 33.917 40.2 31.63C40.4 26.86 40.49 28.63 40.49 27.95L40.58 27.7Z" fill="currentColor"/>
</svg>
