<svg width="96" height="96" viewBox="0 0 96 96" fill="none" xmlns="http://www.w3.org/2000/svg">
<path d="M40.48 44.33C37.2321 47.0038 34.1403 49.8618 31.22 52.89C30.13 53.99 29.28 55.28 28.22 56.4L26.83 57.9L25.5 59.45L22.85 62.57L20.34 65.82L19.1 67.46L17.94 69.16C17.26 70.16 16.61 71.16 15.94 72.24C15.61 72.76 15.35 73.3 15.06 73.84L14.2 75.44C12.7 78.15 11.59 81.05 9.71001 83.6C9.13001 84.4 8.19001 83.85 7.53001 82.6C7.1294 81.8624 6.88533 81.0501 6.81306 80.2138C6.74079 79.3776 6.84188 78.5354 7.11001 77.74C9.47661 71.5403 12.8857 65.7908 17.19 60.74C18.42 59.18 19.68 57.61 20.84 55.95C22 54.29 23.24 52.67 24.53 51.11C27.389 47.7079 30.4301 44.4631 33.64 41.39C34.64 40.39 35.64 39.54 36.64 38.62L38.16 37.24L39.81 36C40.6 35.34 41.39 34.66 42.19 34L44.68 32.12C46.3 30.83 48.06 29.71 49.68 28.44C50.99 27.51 52.26 26.55 53.52 25.53C54.78 24.51 56.11 23.59 57.52 22.73C58.15 22.35 58.73 21.92 59.39 21.58C59.69 21.42 59.97 21.29 60.23 21.17C60.4809 21.0898 60.7387 21.0329 61 21C61.4163 20.921 61.8437 20.921 62.26 21C62.6366 21.0928 62.9903 21.2612 63.2998 21.495C63.6092 21.7288 63.8679 22.0231 64.06 22.36C64.323 22.6985 64.5603 23.0562 64.77 23.43C65.4 24.69 64.77 26.18 63.46 27.28C59.32 30.39 54.8 33.34 50.34 36.67L47.88 38.57L46.63 39.5L45.42 40.5L42.95 42.5C42.15 43.17 41.36 43.87 40.57 44.56L40.48 44.33Z" fill="currentColor"/>
<path d="M58.92 23.1L59.42 24.28C59.73 24.94 59.99 25.62 60.27 26.28C60.5568 26.8697 60.7749 27.4905 60.92 28.13C61.1243 28.6699 61.2718 29.2296 61.36 29.8C61.42 30.31 61.61 30.8 61.65 31.29C61.7189 31.72 61.7557 32.1545 61.76 32.59V33.76C61.68 34.1 61.59 34.44 61.48 34.76L61.4 35C61.28 35.18 61.2 35.47 61.06 35.72C60.92 35.97 60.77 36.25 60.6 36.52C60.1499 36.9419 59.6285 37.2805 59.06 37.52C58.0978 37.6791 57.1103 37.495 56.27 37C55.7789 36.7167 55.3196 36.3814 54.9 36C54.67 35.82 54.43 35.57 54.19 35.36L53.46 34.55C52.4382 33.3299 51.5121 32.0327 50.69 30.67C49.74 29.09 49.41 28.43 48.91 27.48C48.41 26.53 48.13 25.83 47.72 25.05C47.31 24.27 46.88 23.55 46.43 22.87C46.1485 22.4519 45.8377 22.0542 45.5 21.68C45.2593 21.4502 45.0322 21.2064 44.82 20.95V20.83C44.809 20.7874 44.809 20.7426 44.82 20.7C44.8357 20.641 44.8357 20.579 44.82 20.52V20.46C44.98 21.36 44.82 20.71 44.9 20.91C44.9 20.91 44.9 20.91 44.9 20.86V20.78C44.96 20.84 44.9 20.78 44.79 20.88C44.5356 21.2354 44.3709 21.6471 44.31 22.08C44.18 22.71 43.8 22.73 43.24 22.13C42.8505 21.7037 42.5873 21.1774 42.48 20.61C42.3816 20.1058 42.4482 19.5833 42.67 19.12C42.8617 18.7367 43.1441 18.4061 43.4926 18.1569C43.8412 17.9077 44.2454 17.7474 44.67 17.69C44.9163 17.6699 45.1638 17.6699 45.41 17.69C45.6028 17.7103 45.7935 17.7471 45.98 17.8C46.1562 17.8476 46.3298 17.9043 46.5 17.97L46.87 18.15C47.288 18.3313 47.6706 18.5853 48 18.9C48.4865 19.4093 48.9344 19.9542 49.34 20.53C50.0407 21.5518 50.6753 22.6173 51.24 23.72L52 25.26C52.07 25.42 52.21 25.67 52.35 25.92L52.75 26.64L53 27L53.1 27.18C53.1 27.23 53.1 27.18 53.1 27.24V27.41C53.128 27.5835 53.1715 27.7542 53.23 27.92C53.3829 28.4129 53.6462 28.8643 54 29.24C54.1614 29.4082 54.3509 29.547 54.56 29.65C54.6619 29.7088 54.7774 29.7398 54.895 29.7398C55.0126 29.7398 55.1282 29.7088 55.23 29.65C55.388 29.5575 55.5083 29.4123 55.57 29.24C55.5884 28.3629 55.3927 27.4945 55 26.71L54.89 26.4C54.89 26.34 54.89 26.33 54.81 26.21L54.66 25.89L54.05 24.53C53.6219 23.5569 53.2643 22.5544 52.98 21.53C52.7271 20.6367 52.6356 19.7054 52.71 18.78C52.7638 18.2341 52.9056 17.7005 53.13 17.2C53.2548 16.9189 53.4125 16.6537 53.6 16.41C53.8564 16.0543 54.201 15.7717 54.6 15.59C55.0793 15.3613 55.6209 15.298 56.14 15.41C56.3397 15.4567 56.534 15.5237 56.72 15.61C56.8708 15.6822 57.0177 15.7623 57.16 15.85C57.5619 16.1424 57.9308 16.4777 58.26 16.85C58.83 17.48 59.26 18.1 59.71 18.64C61.15 20.35 62.71 22.01 64.18 23.48C64.5006 23.7942 64.8012 24.1282 65.08 24.48C65.5011 24.9457 65.8393 25.4801 66.08 26.06C66.1756 26.4982 66.1756 26.9518 66.08 27.39C66.08 27.59 66.02 27.8 65.96 27.96C65.9 28.12 65.6 28.34 65.13 28.37C64.4607 28.4489 63.7833 28.3197 63.19 28C62.69 27.75 62.19 27.48 61.7 27.19L61 26.75C60.7759 26.5868 60.5621 26.4098 60.36 26.22C59.51 25.5 58.74 24.74 58 24L55.9 21.74C55.5 21.29 55.19 20.93 54.9 20.63C54.76 20.49 54.63 20.36 54.53 20.28C54.4977 20.2409 54.4566 20.2101 54.41 20.19C54.41 20.19 54.41 20.19 54.41 20.14L54.65 19.84C54.87 19.53 55.08 19.16 55.21 18.98C55.28 18.8617 55.3402 18.738 55.39 18.61L55.46 18.42C55.4838 18.3855 55.5039 18.3486 55.52 18.31C55.5541 18.2301 55.5777 18.146 55.59 18.06V17.9C55.59 17.84 55.59 17.71 55.59 17.8C55.6191 17.859 55.6526 17.9159 55.69 17.97C55.79 18.1 55.87 18.11 56.1 18.34C56.2965 18.5113 56.5194 18.6498 56.76 18.75C57.0751 18.9592 57.41 19.1368 57.76 19.28H57.82L57.19 19H57.26C57.3505 19.0359 57.4443 19.0627 57.54 19.08L57.9 19.15C57.8823 19.2794 57.8823 19.4106 57.9 19.54C58.0869 20.7429 58.458 21.9099 59 23L58.92 23.1Z" fill="currentColor"/>
<path d="M41.69 17.83L43.19 17.26L43.9 17L44.3 16.85L45.93 16.3C47.02 15.94 48.11 15.59 49.22 15.3C51.42 14.62 53.64 14 55.9 13.45C57.54 13.04 59.16 12.51 60.84 12.22C61.59 12.11 62.33 11.97 63.09 11.89C63.85 11.81 64.6 11.75 65.36 11.73C66.88 11.64 68.36 11.62 69.95 11.73C70.77 11.7459 71.5883 11.8127 72.4 11.93C72.6296 11.9613 72.8568 12.0081 73.08 12.07C73.33 12.13 73.54 12.17 73.8 12.25L74.61 12.53C74.8646 12.6406 75.1118 12.7675 75.35 12.91C75.8195 13.1801 76.2473 13.517 76.62 13.91C76.7786 14.1336 76.9222 14.3675 77.05 14.61C77.1672 14.855 77.2642 15.1092 77.34 15.37C77.5982 16.4447 77.5982 17.5653 77.34 18.64C76.9 20 76.44 21.26 76 22.48C75.56 23.7 75.1 24.86 74.71 26.03C73.7889 28.9677 73.1198 31.9786 72.71 35.03C72.58 35.97 71.91 35.97 71.08 35.13C70.5589 34.5855 70.145 33.9477 69.86 33.25C69.4572 32.3575 69.3018 31.3731 69.41 30.4C69.8802 26.9484 70.7252 23.5584 71.93 20.29C72.17 19.54 72.4 18.81 72.56 18.16L72.66 17.7C72.66 17.64 72.66 17.7 72.66 17.63C72.6946 17.5846 72.7216 17.534 72.74 17.48C72.7645 17.4137 72.7718 17.3422 72.7613 17.2723C72.7509 17.2024 72.7229 17.1362 72.68 17.08C72.61 17.01 72.61 16.96 72.45 16.9L72.12 16.8L71.66 16.74C71.2424 16.6848 70.8212 16.6614 70.4 16.67L69 16.77C68 16.86 67.09 16.98 66.13 17.16C64.22 17.55 62.3 17.95 60.37 18.38C56.0763 19.3498 51.8452 20.5787 47.7 22.06L46 22.68L45 23L44 23.36C43.8228 23.4162 43.6492 23.483 43.48 23.56C43.39 23.73 43.54 23.89 43.62 24.03C43.9424 24.45 44.3041 24.8384 44.7 25.19L45.33 25.75L45.66 26.03L46.25 26.49C47.8572 27.7519 49.5331 28.9237 51.27 30C53.972 31.5897 56.8139 32.9286 59.76 34C60.4 34.25 61.04 34.42 61.66 34.66C63.97 35.51 64.48 35.94 64.66 37.52C64.7257 37.8739 64.7724 38.2311 64.8 38.59C64.8244 38.8924 64.7485 39.1943 64.584 39.4492C64.4195 39.7041 64.1756 39.8977 63.89 40C63.0577 40.2978 62.1546 40.3361 61.3 40.11C55.11 38.73 49.81 35.4 44.62 31.84L43.2 30.84L42.49 30.3C42.2722 30.1379 42.0414 29.9941 41.8 29.87C41.55 29.72 41.3 29.58 41.05 29.41C40.0284 28.7902 39.0616 28.0843 38.16 27.3L37.54 26.71C37.38 26.5 37.21 26.3 37.07 26.1C36.7991 25.7268 36.571 25.3242 36.39 24.9C36.0827 24.2059 35.9489 23.4474 36 22.69C36.0092 22.5051 36.0326 22.3212 36.07 22.14C36.1058 21.9367 36.1559 21.7362 36.22 21.54L36.87 20.66L37.53 19.79L37.69 19.57C37.76 19.5 37.77 19.42 37.92 19.37L38.66 19.04C39.66 18.6 40.6 18.14 41.6 17.71L41.69 17.83Z" fill="currentColor"/>
<path d="M69.6 64.78C69.2329 65.2555 68.7904 65.6676 68.29 66C67.8606 66.2752 67.4009 66.5 66.92 66.67C66.522 66.7994 66.1082 66.8734 65.69 66.89C65.3554 66.8835 65.0214 66.8568 64.69 66.81C64.1674 66.8123 63.6466 66.7485 63.14 66.62C62.1058 66.276 61.2065 65.6147 60.57 64.73C59.9994 63.9396 59.7299 62.9715 59.81 62C59.8726 61.3166 60.0239 60.6443 60.26 60C60.3553 59.5986 60.5556 59.2297 60.8402 58.931C61.1248 58.6323 61.4836 58.4145 61.88 58.3C62.15 58.25 62.55 58.87 62.96 59.54C63.37 60.21 63.88 60.92 63.96 61.07C63.9936 61.1874 64.0515 61.2964 64.13 61.39C64.13 61.39 64.21 61.45 64.22 61.47C64.23 61.49 64.36 61.47 64.22 61.47C63.9811 61.444 63.7399 61.493 63.53 61.61C63.582 61.5386 63.6257 61.4614 63.66 61.38C63.73 61.27 63.75 61.04 63.77 61.06C63.79 61.08 63.77 61.06 63.85 61.06C63.93 61.06 64.19 61.06 64.26 61.06C64.33 61.06 64.41 61.13 64.39 61.15C64.4244 61.2396 64.4716 61.3238 64.53 61.4C64.5859 61.4656 64.6361 61.5358 64.68 61.61C64.68 61.61 64.85 61.77 64.84 61.77H64.9C64.8672 61.7619 64.8329 61.7619 64.8 61.77C64.8 61.77 64.66 61.77 64.61 61.77L64.7 61.72C64.7466 61.6557 64.7837 61.5849 64.81 61.51C64.8367 61.3186 64.7863 61.1244 64.67 60.97C64.47 60.7 64.04 60.75 63.77 60.7C63.7 60.7 63.63 60.7 63.57 60.7C63.35 60.61 63.31 60.32 63.29 59.33V58.66C63.2289 58.344 63.2639 58.017 63.3904 57.7211C63.517 57.4252 63.7293 57.174 64 57C64.9556 56.6413 66.0012 56.5993 66.9826 56.8802C67.9639 57.1611 68.8289 57.75 69.45 58.56C69.7576 58.9156 70.0134 59.3129 70.21 59.74C70.4391 60.2249 70.5974 60.7401 70.68 61.27C70.7353 61.5674 70.7353 61.8725 70.68 62.17C70.6551 62.4809 70.6015 62.7889 70.52 63.09C70.3546 63.7335 70.0771 64.3429 69.7 64.89L69.6 64.78Z" fill="currentColor"/>
<path d="M17 21.2C16.4092 21.1578 15.8305 21.0123 15.29 20.77C14.8274 20.5723 14.3935 20.3133 14 20C13.6885 19.7401 13.4158 19.437 13.19 19.1C13.0102 18.8127 12.853 18.5118 12.72 18.2C12.4498 17.7721 12.2347 17.3118 12.08 16.83C11.8395 15.8024 11.9269 14.7253 12.33 13.75C12.7042 12.8712 13.3872 12.1598 14.25 11.75C14.842 11.4497 15.4707 11.2278 16.12 11.09C16.4925 10.9616 16.8929 10.9365 17.2785 11.0175C17.6642 11.0985 18.0206 11.2826 18.31 11.55C18.49 11.75 18.17 12.42 17.83 13.12C17.49 13.82 17.18 14.64 17.12 14.78C17.051 14.8706 17.0063 14.9773 16.99 15.09C16.9792 15.1259 16.9792 15.1641 16.99 15.2C17.0047 15.1344 17.0081 15.0667 17 15C16.9041 14.7959 16.7419 14.6303 16.54 14.53C16.47 14.53 16.54 14.53 16.79 14.53C16.9425 14.5001 17.0929 14.4601 17.24 14.41C17.31 14.41 17.24 14.41 17.32 14.41C17.4 14.41 17.48 14.66 17.48 14.71C17.48 14.76 17.48 14.71 17.48 14.77V14.82L17.41 14.9C17.3039 15.0699 17.2167 15.251 17.15 15.44C17.141 15.5064 17.141 15.5736 17.15 15.64C17.1447 15.6509 17.1419 15.6629 17.1419 15.675C17.1419 15.6871 17.1447 15.6991 17.15 15.71C17.1557 15.6803 17.1557 15.6497 17.15 15.62C17.1327 15.561 17.1093 15.504 17.08 15.45V15.39V15.34L17.16 15.4C17.2296 15.4106 17.3004 15.4106 17.37 15.4C17.4511 15.37 17.525 15.3233 17.587 15.2631C17.649 15.2028 17.6977 15.1302 17.73 15.05C17.84 14.78 17.57 14.48 17.48 14.26C17.48 14.26 17.38 14.17 17.38 14.11C17.38 13.9 17.58 13.71 18.38 13.17L18.93 12.8C19.1692 12.5945 19.4631 12.4634 19.7757 12.4225C20.0883 12.3816 20.4061 12.4329 20.69 12.57C21.4906 13.1502 22.0793 13.9764 22.3664 14.9226C22.6535 15.8687 22.6231 16.8827 22.28 17.81C22.1507 18.2486 21.9587 18.6663 21.71 19.05C21.437 19.4936 21.1 19.8946 20.71 20.24C20.5002 20.446 20.2522 20.609 19.98 20.72C19.7071 20.8606 19.4228 20.9777 19.13 21.07C18.5062 21.266 17.8535 21.3539 17.2 21.33L17 21.2Z" fill="currentColor"/>
<path d="M90.5 45.28C89.9935 46.0896 89.3096 46.7735 88.5 47.28C88.1132 47.5292 87.7049 47.7434 87.28 47.92C86.8401 48.0907 86.3846 48.2179 85.92 48.3C85.59 48.37 85.27 48.39 84.92 48.44C84.5899 48.5052 84.2501 48.5052 83.92 48.44C83.3872 48.3589 82.8708 48.1935 82.39 47.95C81.9621 47.6891 81.5603 47.3877 81.19 47.05C80.5007 46.4215 79.9226 45.6811 79.48 44.86C79.0438 44.1051 78.7871 43.26 78.73 42.39C78.743 42.0815 78.7764 41.7741 78.83 41.47C78.9295 41.1736 79.0602 40.8887 79.22 40.62C79.4099 40.3999 79.6209 40.1989 79.85 40.02C80.081 39.8996 80.3263 39.8089 80.58 39.75C80.91 39.68 81.08 40.16 81.27 40.75C81.37 41.04 81.49 41.36 81.6 41.62C81.68 41.8176 81.807 41.9926 81.97 42.13C81.91 42.13 81.97 42.13 81.9 42.13H81.98H82.14H82.22H82.38C82.4759 42.1185 82.57 42.095 82.66 42.06C82.66 42.06 82.8 42.06 82.83 42.06C82.86 42.06 83.12 42.42 83.34 42.8C83.4228 42.8883 83.5274 42.9533 83.6432 42.9884C83.7591 43.0235 83.8821 43.0275 84 43C84.1868 43.027 84.3709 43.0705 84.55 43.13C84.7213 43.2008 84.9046 43.2382 85.09 43.24C85.3504 43.2121 85.6006 43.123 85.82 42.98C86.11 42.81 86.24 42.72 86.3 42.59C86.36 42.46 86.3 41.83 85.74 41.59C85.5166 41.5348 85.2832 41.5332 85.059 41.5853C84.8348 41.6374 84.6262 41.7418 84.45 41.89C84.37 41.89 84.3 42.05 84.23 42.07C83.97 42.17 83.79 41.9 83.23 40.78L82.82 40.03C82.5755 39.7091 82.4473 39.3146 82.4564 38.9112C82.4655 38.5079 82.6113 38.1196 82.87 37.81C83.7889 37.0723 84.9555 36.7144 86.13 36.81C87.4689 36.9199 88.7277 37.4927 89.69 38.43C90.5859 39.263 91.1773 40.3719 91.37 41.58C91.5752 42.8516 91.335 44.1551 90.69 45.27L90.5 45.28Z" fill="currentColor"/>
</svg>
