<svg width="96" height="96" viewBox="0 0 96 96" fill="none" xmlns="http://www.w3.org/2000/svg">
<path d="M38.85 61.25C38.312 62.5107 38.0922 63.8844 38.21 65.25C38.3918 66.7083 38.9012 68.1065 39.7 69.34C40.3714 70.3048 41.1423 71.1963 42 72C45.1394 75.1996 48.8769 77.7513 53 79.51C54.861 80.327 56.7837 80.9958 58.75 81.51C60 81.85 61.29 82.04 62.54 82.33C63.79 82.62 65.06 83.01 66.34 83.33C67.14 83.51 67.06 83.83 66.34 84.33C65.8574 84.6351 65.3447 84.8898 64.81 85.09C64.0967 85.3876 63.3406 85.5699 62.57 85.63C62.21 85.63 61.84 85.63 61.48 85.63L60.41 85.51C59.7 85.44 59 85.3 58.29 85.19C56.8862 84.9324 55.4975 84.5985 54.13 84.19C51.4119 83.2735 48.8134 82.0347 46.39 80.5C43.52 78.62 40.34 76.84 37.86 74.06C36.4598 72.5215 35.3426 70.7475 34.56 68.82C33.7655 66.7999 33.5238 64.6045 33.86 62.46L34.03 61.46L34.32 60.53C34.4966 59.8993 34.724 59.284 35 58.69C35.5863 57.4735 36.4129 56.3883 37.43 55.5C38.9177 54.2218 40.6908 53.3198 42.6 52.87C44.4294 52.4109 46.3277 52.2923 48.2 52.52C51.0481 52.7732 53.8162 53.5961 56.34 54.94C56.9061 55.206 57.4481 55.5206 57.96 55.88C59.85 57.26 59.96 58.24 59.67 59.23C59.6149 59.4577 59.5448 59.6816 59.46 59.9C59.29 60.21 58.95 60.33 58.46 60.32C57.8195 60.3151 57.1904 60.1501 56.63 59.84C56.14 59.59 55.58 59.44 55.12 59.17C54.6514 58.9132 54.1671 58.6861 53.67 58.49C53.1956 58.2643 52.7081 58.0672 52.21 57.9C51.71 57.75 51.21 57.52 50.74 57.42C48.8367 56.8574 46.834 56.7141 44.87 57C43.5387 57.1927 42.2676 57.6813 41.15 58.43C41.02 58.53 40.87 58.61 40.76 58.71L40.42 59.02C40.2001 59.2144 40.0022 59.4323 39.83 59.67C39.6583 59.8908 39.5045 60.1248 39.37 60.37C39.23 60.64 39.11 61.01 38.97 61.32L38.85 61.25Z" fill="currentColor"/>
<path d="M37.3 52.26C38.4259 51.493 39.6785 50.931 41 50.6C42.2655 50.2923 43.5702 50.1776 44.87 50.26C47.1789 50.4311 49.4416 50.9959 51.56 51.93C53.5049 52.7766 55.3777 53.7799 57.16 54.93L58.39 55.73L58.67 55.94L59.24 56.4C59.376 56.5162 59.5197 56.6231 59.67 56.72C59.81 56.8 59.96 56.97 60.09 56.91C60.09 56.54 59.99 56.22 59.96 55.91C59.93 55.6 59.87 55.34 59.82 55C59.82 55 59.62 54.15 59.51 53.54C59.4 52.93 59.24 52.22 59.15 51.54C59.06 50.86 59 50.08 59 49.37C59 48.99 59 48.61 59 48.23C58.9963 47.8415 59.0264 47.4533 59.09 47.07C59.2654 45.4063 59.8721 43.8173 60.85 42.46C61.11 42.13 61.37 41.78 61.65 41.46L62.57 40.64C62.8787 40.3704 63.2137 40.1325 63.57 39.93C63.92 39.73 64.25 39.51 64.57 39.32C66.1248 38.5767 67.8593 38.2922 69.57 38.5C71.1552 38.7368 72.6624 39.3431 73.97 40.27C75.1699 41.0998 76.2327 42.112 77.12 43.27C78.6862 45.2077 79.895 47.4087 80.69 49.77C81.4034 52.0698 81.8102 54.4537 81.9 56.86C81.7913 62.772 80.4921 68.6014 78.08 74C77.39 75.65 76.79 75.21 76.45 73.55C76.0424 71.0068 75.9785 68.4203 76.26 65.86C76.603 63.2073 76.6666 60.526 76.45 57.86C76.38 57.22 76.32 56.59 76.28 55.96C76.24 55.33 76.15 54.71 76.04 54.1L75.87 53.19L75.64 52.3C75.5788 52.0215 75.4986 51.7475 75.4 51.48C75.3255 51.2123 75.2285 50.9514 75.11 50.7C74.2441 48.5894 72.9026 46.7072 71.19 45.2C70.5384 44.5858 69.7448 44.1426 68.88 43.91C68.0918 43.7468 67.2714 43.8635 66.56 44.24C66.0493 44.4631 65.5897 44.7886 65.2096 45.1962C64.8295 45.6038 64.537 46.085 64.35 46.61C63.9654 47.9609 63.9139 49.3849 64.2 50.76C64.31 51.55 64.5 52.37 64.7 53.2L65.7 57.27C65.84 57.96 66.04 58.7 66.14 59.36C66.24 60.02 66.35 60.67 66.38 61.25C66.3864 61.7707 66.3663 62.2913 66.32 62.81C66.2379 63.1834 66.131 63.5508 66 63.91L65.71 64.41C65.65 64.5 65.65 64.58 65.54 64.67C65.4396 64.7307 65.3268 64.7683 65.21 64.78C64.8514 64.8246 64.4886 64.8246 64.13 64.78C63.0031 64.6334 61.9289 64.2147 61 63.56C59.66 62.66 58.31 61.62 57 60.75L56 60.11L55.31 59.67L54.11 58.93C52.517 57.9765 50.844 57.1634 49.11 56.5C47.5203 55.8576 45.8245 55.5184 44.11 55.5C43.1659 55.5071 42.2334 55.708 41.37 56.09C40.9413 56.2764 40.5353 56.5113 40.16 56.79L38.92 57.79C37.3487 59.1362 36.2747 60.9708 35.87 63C35.29 65.92 36.39 69.22 38.44 71.88C40.5564 74.6039 43.2335 76.8411 46.29 78.44C51.05 81 56.4 82 61.76 82.58C62.94 82.7 64.11 82.73 65.31 82.82C69.76 83.13 71.19 83.51 72.16 84.82C72.4028 85.1038 72.6203 85.4083 72.81 85.73C73.25 86.73 71.36 87.62 67.87 87.88C62.4831 88.2026 57.0795 87.6488 51.87 86.24C46.1906 84.786 40.9566 81.956 36.63 78C34.9271 76.3931 33.4713 74.5431 32.31 72.51C31.0449 70.2934 30.3026 67.8171 30.14 65.27C30.0286 62.5618 30.7247 59.8816 32.14 57.57C32.7935 56.4801 33.5757 55.4729 34.47 54.57L35.11 53.91L35.8 53.33C36.29 52.95 36.66 52.59 37.24 52.19L37.3 52.26Z" fill="currentColor"/>
<path d="M42.33 30.76C42.68 30.76 42.55 31.21 42.24 32.07C42.0723 32.4473 41.8309 32.7873 41.53 33.07C41.2654 33.1683 40.9902 33.2354 40.71 33.27C39.8695 32.9984 39.0505 32.6642 38.26 32.27C37.7479 32.0314 37.2783 31.7105 36.87 31.32C36.05 30.59 35.24 29.92 34.46 29.32C34.2892 29.175 34.1526 28.994 34.06 28.79C33.7158 28.1237 33.1649 27.5869 32.49 27.26C32.4367 27.2153 32.3722 27.186 32.3034 27.1754C32.2346 27.1648 32.1643 27.1733 32.1 27.2C31.3698 27.0127 30.688 26.6718 30.1 26.2C29.79 25.59 29.3 25.34 28.94 24.68C28.88 24.6 28.78 24.63 28.79 24.38C28.79 23.82 28.6 23.81 28.44 23.69C28.19 23.5297 27.9615 23.3382 27.76 23.12C27.6485 22.9106 27.5613 22.6892 27.5 22.46C27.4742 22.1426 27.5365 21.8243 27.68 21.54C27.86 21.37 27.83 21.03 27.87 20.75C27.87 20.66 27.87 20.54 27.93 20.47C28.2937 20.2263 28.6913 20.0376 29.11 19.91C29.5559 19.7183 30.0276 19.5936 30.51 19.54L31.04 19.59C31.2181 19.6005 31.3953 19.6239 31.57 19.66C31.7643 19.7097 31.9547 19.7732 32.14 19.85C32.94 20.1 33.69 20.49 33.87 20.54C34.05 20.59 34.14 20.79 34.24 20.96C34.34 21.13 34.82 21.29 35.37 21.59C35.7411 21.7985 36.1016 22.0254 36.45 22.27C36.78 22.63 37.24 22.84 37.3 23.48C37.3 23.6 37.39 23.65 37.46 23.71C38.0292 24.2594 38.5234 24.8814 38.93 25.56C39.1643 25.8661 39.4182 26.1567 39.69 26.43C39.69 26.48 39.69 26.57 39.76 26.64C39.7793 26.7283 39.8131 26.8127 39.86 26.89C40.3715 27.5799 40.9402 28.2255 41.56 28.82C41.71 28.93 42.03 29.89 42.22 29.97C42.41 30.05 42.19 30.78 42.33 30.76Z" fill="currentColor"/>
<path d="M34.57 44.19C34.95 44.19 34.9 44.73 34.57 45.5C34.3902 45.838 34.1374 46.1318 33.83 46.36C33.5766 46.4255 33.3195 46.4756 33.06 46.51C32.93 46.51 31.33 45.92 30.77 45.83C30.2546 45.7159 29.7545 45.5413 29.28 45.31C28.3429 44.9051 27.3769 44.5709 26.39 44.31C26.1665 44.2577 25.9579 44.1551 25.78 44.01C25.1354 43.5486 24.3627 43.3004 23.57 43.3C23.44 43.3 23.31 43.3 23.15 43.41C22.7253 43.5353 22.2788 43.5694 21.84 43.51C21.3916 43.5083 20.9475 43.4235 20.53 43.26C19.8945 42.8677 19.2251 42.5331 18.53 42.26C18.43 42.26 18.32 42.26 18.24 42.06C18.04 41.56 17.81 41.63 17.58 41.59C17.2526 41.5354 16.9356 41.4309 16.64 41.28C16.48 41.2 16.33 40.92 16.17 40.7C16.0756 40.3734 16.0756 40.0266 16.17 39.7C16.31 39.47 16.17 39.13 16.17 38.83C16.17 38.73 16.17 38.6 16.17 38.52C16.8238 37.9189 17.5787 37.4381 18.4 37.1H18.9C19.19 37.1 19.58 37.04 19.98 37.01C20.78 36.93 21.63 36.91 21.81 36.88C21.99 36.85 22.16 36.98 22.33 37.07L23.64 37.18C24.28 37.25 24.92 37.34 24.97 37.35C25.44 37.55 25.97 37.56 26.36 38.11C26.43 38.23 26.53 38.24 26.63 38.27C27.4672 38.5544 28.2588 38.9586 28.98 39.47C29.36 39.72 29.79 39.85 30.17 40.08C30.24 40.08 30.28 40.21 30.34 40.27C30.4065 40.3533 30.4838 40.4273 30.57 40.49C31.5 40.97 32.27 41.7 33.17 42.18C33.39 42.3 34.05 43.3 34.27 43.43C34.49 43.56 34.41 44.18 34.57 44.19Z" fill="currentColor"/>
<path d="M62.41 30.11C62.7 30.34 62.41 30.73 61.84 31.25C61.5701 31.4651 61.2436 31.5971 60.9 31.63C60.6395 31.5282 60.3912 31.3974 60.16 31.24C59.5085 30.3937 58.9581 29.4741 58.52 28.5C58.1846 27.8177 57.9649 27.0844 57.87 26.33C57.6607 24.8397 57.5904 23.3333 57.66 21.83C57.659 21.4834 57.7377 21.1413 57.89 20.83C58.3203 19.8202 58.6551 18.7723 58.89 17.7C58.93 17.6103 58.9507 17.5132 58.9507 17.415C58.9507 17.3168 58.93 17.2197 58.89 17.13C58.65 16.73 59.74 13.99 60.04 13.72C60.73 13.01 61.44 12.34 62.14 11.72C62.24 11.63 62.25 11.47 62.5 11.48C62.6776 11.4843 62.8538 11.4478 63.0151 11.3732C63.1763 11.2987 63.3183 11.1881 63.43 11.05C63.7414 10.7839 64.0761 10.5463 64.43 10.34C64.6663 10.2415 64.9155 10.1775 65.17 10.15C65.4 10.1 65.77 10.44 65.8 10.52C65.85 10.75 66.14 10.77 66.32 10.87C66.3911 10.9021 66.4582 10.9423 66.52 10.99C66.57 10.99 66.6 11.66 66.71 12.36C66.82 13.06 67.06 13.81 66.95 13.88C66.84 13.95 66.11 16.74 66.06 17.04C66.01 17.34 65.86 17.32 65.72 17.44C65.58 17.56 65.21 19.72 65.19 19.79C64.97 20.2 65.04 20.68 64.48 20.98C64.4383 21.0073 64.4038 21.0443 64.3794 21.0879C64.355 21.1314 64.3415 21.1801 64.34 21.23C64.2893 21.6132 64.1743 21.985 64 22.33C63.82 22.68 63.67 23.04 63.5 23.4C63.3738 23.7712 63.2802 24.1526 63.22 24.54C63.22 24.61 63.13 24.68 63.09 24.75C63.0411 24.8252 63.0103 24.9108 63 25C62.7885 25.9004 62.7244 26.8291 62.81 27.75C62.798 28.003 62.7612 28.2542 62.7 28.5C62.6611 28.7585 62.6611 29.0215 62.7 29.28C62.6728 29.4317 62.6186 29.5774 62.54 29.71C62.41 29.89 62.35 30.06 62.41 30.11Z" fill="currentColor"/>
</svg>
