<svg width="96" height="96" viewBox="0 0 96 96" fill="none" xmlns="http://www.w3.org/2000/svg">
<path d="M68.17 53.34C63.26 52.62 58.17 52.23 53.05 51.7C50.48 51.44 47.89 51.13 45.29 50.7C43.96 50.51 42.74 50.26 41.29 50.01L38.64 49.47C38.1542 49.3717 37.6763 49.238 37.21 49.07L35.7 48.59C35.0046 48.4107 34.3332 48.1489 33.7 47.81C33.2101 47.5296 32.7538 47.1941 32.34 46.81C31.9756 46.4234 31.6752 45.9812 31.45 45.5C31.2054 44.9441 31.129 44.3288 31.23 43.73C31.4485 42.5998 32.0794 41.5911 33 40.9C33.2198 40.671 33.4609 40.4633 33.72 40.28L34.66 39.73C34.98 39.55 35.27 39.35 35.61 39.19L36.71 38.74L37.71 38.34C38.03 38.22 38.36 38.15 38.71 38.05L39.71 37.76L40.19 37.62L40.52 37.55C41.4 37.36 42.27 37.21 43.13 37.08C44.85 36.83 46.53 36.67 48.18 36.52C51.2999 36.3328 54.398 35.8778 57.44 35.16C57.78 35.0794 58.1141 34.9758 58.44 34.85C58.6104 34.7936 58.7746 34.7199 58.93 34.63C59.0657 34.5471 59.1782 34.4312 59.2569 34.293C59.3356 34.1549 59.3779 33.999 59.38 33.84C59.3681 33.4819 59.2535 33.1348 59.05 32.84C58.7175 32.2901 58.2989 31.7971 57.81 31.38C56.6418 30.4011 55.3631 29.562 54 28.88C52.57 28.12 51.17 27.43 49.69 26.82C44.3231 24.7932 38.7106 23.4885 33 22.94C29.3492 22.5064 25.6765 22.2827 22 22.27C20.17 22.27 18.33 22.27 16.49 22.37C14.65 22.47 12.78 22.54 11.04 22.77C9.95001 22.9 9.47001 22.94 9.42001 22.77C9.37001 22.6 9.82001 22.14 10.75 21.63C12.0176 20.9888 13.3618 20.5116 14.75 20.21C16.6725 19.7168 18.6384 19.412 20.62 19.3C24.5017 19.08 28.3937 19.1201 32.27 19.42C36.1629 19.7011 40.034 20.2289 43.86 21C47.7768 21.8024 51.5815 23.0784 55.19 24.8C57.1329 25.663 58.9549 26.7757 60.61 28.11C61.0766 28.4981 61.5083 28.9264 61.9 29.39C62.1157 29.6306 62.3161 29.8844 62.5 30.15L62.78 30.57C62.87 30.72 62.97 30.92 63.06 31.09C63.4619 31.8172 63.7133 32.6178 63.7992 33.4442C63.8851 34.2705 63.8037 35.1057 63.56 35.9C63.2026 36.8151 62.5835 37.6046 61.78 38.17C61.3863 38.4561 60.964 38.7007 60.52 38.9C60.1941 39.06 59.8603 39.2035 59.52 39.33C58.91 39.55 58.3 39.73 57.69 39.93C57.08 40.13 56.46 40.27 55.85 40.4C53.4 40.91 50.99 41.16 48.66 41.4C46.4207 41.6338 44.197 41.9977 42 42.49C41.34 42.64 41.25 42.68 41 42.75L40.43 42.94C40.082 43.0835 39.7474 43.2576 39.43 43.46C39.26 43.58 39.05 43.75 39.06 43.98C39.07 44.21 39.28 44.34 39.45 44.44C39.8432 44.6276 40.2556 44.7717 40.68 44.87H40.85H40.93L41 45L41.62 45.14C42.04 45.24 42.39 45.34 43.09 45.45C44.32 45.68 45.56 45.88 46.81 46.06C51.81 46.76 56.93 47.12 62.09 47.61C65.27 47.91 68.47 48.27 71.66 48.8L74.06 49.23L76.44 49.74L77.55 49.97L78.88 50.23C80.04 50.47 81.17 50.75 82.24 51.08C83.2944 51.3887 84.3032 51.8359 85.24 52.41C86.0381 52.8717 86.7217 53.5075 87.24 54.27C87.5268 54.7532 87.6691 55.3085 87.65 55.87C87.6149 56.4276 87.3848 56.955 87 57.36C86.2265 58.1172 85.2838 58.6793 84.25 59C82.9804 59.4423 81.6758 59.7768 80.35 60L78.28 60.4L76.81 60.65C74.81 60.99 72.92 61.3 71.02 61.65C69.1281 62.0034 67.2556 62.454 65.41 63L64.86 63.18L64.46 63.32C64.2 63.42 63.94 63.52 63.69 63.64C63.2069 63.8443 62.7787 64.1594 62.44 64.56C62.3372 64.7065 62.282 64.8811 62.282 65.06C62.282 65.239 62.3372 65.4136 62.44 65.56C62.6523 65.8507 62.939 66.0787 63.27 66.22C63.8881 66.5074 64.5399 66.7157 65.21 66.84C67.72 67.48 70.28 68.16 72.85 68.75L77.52 69.8C83.37 71.2 85.15 72.11 86 73.9C86.228 74.2829 86.4157 74.6884 86.56 75.11C86.8 76.39 84.2 76.68 79.85 75.91C75.92 75.19 71.91 74.37 67.85 73.34L64.85 72.53L64.12 72.34L63.73 72.23L63.07 72C62.66 71.88 62.16 71.7 61.7 71.54C61.24 71.38 60.78 71.19 60.33 71C58.7276 70.3607 57.3403 69.2785 56.33 67.88C55.9328 67.2162 55.6775 66.4774 55.58 65.71L55.53 65.1L55.61 64.49V64.34C55.55 64.34 55.61 64.24 55.61 64.19L55.68 63.91C55.68 63.72 55.76 63.52 55.81 63.35L56.51 62.08C56.6335 61.8618 56.7885 61.663 56.97 61.49C57.1306 61.2857 57.3079 61.0951 57.5 60.92C58.4022 60.1546 59.4132 59.5277 60.5 59.06C61.0961 58.789 61.7071 58.552 62.33 58.35L63.33 58.02L63.94 57.85C64.66 57.64 65.36 57.47 66.06 57.3C67.46 56.97 68.88 56.71 70.19 56.47C71.5 56.23 72.92 55.99 74.26 55.77L77.37 55.25C77.37 55.25 77.46 55.25 77.48 55.25C77.4836 55.2422 77.4855 55.2336 77.4855 55.225C77.4855 55.2164 77.4836 55.2079 77.48 55.2L76.55 55L74.36 54.53C73.68 54.39 73.01 54.24 72.36 54.12C70.99 53.86 69.6 53.65 68.21 53.46L68.17 53.34Z" fill="currentColor"/>
</svg>
