<svg width="96" height="96" viewBox="0 0 96 96" fill="none" xmlns="http://www.w3.org/2000/svg">
<path d="M66.28 80.38C66.48 80.78 66.02 81.1 65.28 81.47C64.9297 81.5881 64.5503 81.5881 64.2 81.47C63.9735 81.2264 63.7662 80.9656 63.58 80.69C63.3712 80.1662 63.2463 79.6127 63.21 79.05C63.21 78.63 63.13 78.18 63.11 77.78C63.09 77.38 63.11 77.01 63.11 76.78C63.1356 75.8308 63.3145 74.892 63.64 74C64.327 72.2027 65.2774 70.5176 66.46 69C66.7427 68.6564 67.0806 68.3623 67.46 68.13L71.08 65.6C71.3091 65.4834 71.5026 65.3072 71.64 65.09C72.275 64.5507 73.0085 64.1398 73.8 63.88C74.34 63.69 74.9 63.52 75.35 63.39C75.6793 63.3211 76.0138 63.2809 76.35 63.27C77.0193 63.2902 77.6869 63.3469 78.35 63.44C78.9932 63.5085 79.6312 63.6187 80.26 63.77C80.43 63.82 80.63 63.77 80.77 63.99C81.11 64.53 81.48 64.47 81.85 64.54C82.3593 64.6706 82.8451 64.8797 83.29 65.16C83.5247 65.3702 83.7151 65.6252 83.85 65.91C84.01 66.16 83.69 66.86 83.61 66.91C83.34 67.1 83.42 67.48 83.35 67.79C83.3305 67.8983 83.3037 68.0052 83.27 68.11C82.8308 68.3618 82.3645 68.563 81.88 68.71C81.4225 68.904 80.9552 69.0742 80.48 69.22H79.95C79.5779 69.2475 79.2074 69.2942 78.84 69.36L78.24 69.46L77.71 69.62L77.07 69.82C76.8895 69.8653 76.7006 69.8653 76.52 69.82C76.1111 69.9558 75.7187 70.1369 75.35 70.36C74.9748 70.567 74.611 70.794 74.26 71.04C73.8369 71.3335 73.3434 71.5095 72.83 71.55C72.7771 71.5499 72.7249 71.5626 72.6779 71.587C72.6309 71.6114 72.5905 71.6467 72.56 71.69L71.49 72.47L70.93 72.85L70.41 73.3C70.2327 73.449 70.0717 73.6167 69.93 73.8L69.53 74.37C69.4602 74.428 69.3868 74.4815 69.31 74.53C69.2109 74.5829 69.1227 74.6542 69.05 74.74C68.4019 75.6448 67.9272 76.662 67.65 77.74C67.5357 78.0225 67.3951 78.2937 67.23 78.55C67.0996 78.838 67.0023 79.14 66.94 79.45C66.94 79.54 66.78 79.7 66.61 79.88C66.44 80.06 66.25 80.3 66.28 80.38Z" fill="currentColor"/>
<path d="M44.8 74.45C44.8622 74.9012 44.8156 75.3608 44.6643 75.7904C44.513 76.2201 44.2612 76.6073 43.93 76.92C43.72 77.17 43.02 77.24 42.93 76.92C42.66 76.4 42.37 75.92 42.13 75.31C42.0095 74.9562 41.9257 74.591 41.88 74.22C41.7033 73.4885 41.5698 72.7472 41.48 72C41.3974 71.1426 41.364 70.2812 41.38 69.42V68.29L41.44 67.39C41.5543 65.4751 41.9277 63.5846 42.55 61.77C43.8147 58.0657 45.6538 54.5832 48 51.45C48.5094 50.7492 49.1002 50.1114 49.76 49.55C52.08 47.68 54.29 45.8 56.64 44.02C57.0612 43.7483 57.4359 43.4106 57.75 43.02C58.1544 42.6278 58.6042 42.2853 59.09 42C59.9706 41.4332 60.882 40.9157 61.82 40.45C62.7797 39.9709 63.7645 39.5436 64.77 39.17C65.3718 38.95 65.9862 38.7663 66.61 38.62C69.2504 38.162 71.9361 38.021 74.61 38.2C75.0079 38.1806 75.4031 38.2742 75.75 38.47C76.4546 38.9465 77.2798 39.2134 78.13 39.24C78.6842 39.3603 79.229 39.5207 79.76 39.72C80.28 39.95 80.76 40.23 81.29 40.5C81.76 40.8516 82.1834 41.2616 82.55 41.72C82.9 42.09 82.39 42.63 82.22 42.65C81.71 42.71 81.93 43.16 81.85 43.44C81.83 43.5422 81.7928 43.6403 81.74 43.73C80.7681 43.7982 79.8002 43.915 78.84 44.08C77.43 44.36 76.1 44.69 75.84 44.73C74.5777 44.8554 73.3227 45.0457 72.08 45.3C70.6439 45.6365 69.2439 46.1121 67.9 46.72C67.4808 46.8737 67.0441 46.9744 66.6 47.02C65.6192 47.451 64.676 47.9628 63.78 48.55C62.45 49.36 61.21 50.32 61.11 50.38C60.5789 50.7068 60.0649 51.0606 59.57 51.44C59.047 51.8084 58.4747 52.1013 57.87 52.31C57.6329 52.4083 57.421 52.5587 57.25 52.75C56.46 53.5 55.66 54.22 54.86 54.96C54.0282 55.6683 53.2338 56.4193 52.48 57.21C52.0915 57.6135 51.737 58.0483 51.42 58.51C51.09 58.95 50.77 59.41 50.42 59.88C50.2879 60.0372 50.1477 60.1874 50 60.33C49.8068 60.5037 49.6416 60.706 49.51 60.93C48.0673 63.1684 47.0188 65.6375 46.41 68.23C45.939 69.5833 45.604 70.9802 45.41 72.4C45.1383 73.0611 44.9339 73.7479 44.8 74.45Z" fill="currentColor"/>
<path d="M14 66.9C14.0404 67.2722 14.0404 67.6477 14 68.02C13.9671 68.3592 13.9001 68.6942 13.8 69.02C13.5641 69.7062 13.227 70.3533 12.8 70.94C12.52 71.33 11.64 71.34 11.48 70.87C11.19 69.97 10.89 69.04 10.65 68.08C10.5669 67.4668 10.5235 66.8488 10.52 66.23C10.52 65.73 10.52 65.14 10.44 64.51C10.36 63.88 10.44 63.19 10.49 62.51C10.5755 59.9632 10.8496 57.4263 11.31 54.92C11.8573 51.8032 12.8262 48.7755 14.19 45.92C17.003 40.2146 20.6459 34.9575 25 30.32C25.9671 29.2962 27.0101 28.3468 28.12 27.48C31.95 24.55 35.75 21.68 39.76 19.01C40.4787 18.6349 41.1362 18.1527 41.71 17.58C42.4142 16.9724 43.182 16.4427 44 16C44.64 15.66 45.33 15.22 46.12 14.85L48.59 13.73C51.1656 12.6243 53.8457 11.78 56.59 11.21C60.8897 10.5407 65.2538 10.3863 69.59 10.75C70.2152 10.7152 70.8396 10.8318 71.41 11.09C72.5933 11.7512 73.9008 12.1599 75.25 12.29C76.14 12.53 77.02 12.76 77.89 13.04C78.76 13.32 79.59 13.73 80.42 14.1C81.1974 14.5896 81.9214 15.1594 82.58 15.8C83.2 16.33 82.43 17 82.15 17.01C81.33 17.01 81.74 17.63 81.65 18.01C81.6309 18.1468 81.5795 18.277 81.5 18.39C80.9836 18.3998 80.4675 18.3562 79.96 18.26L79.25 18.16H78.43L76.67 18.09L74.88 18.18C74.341 18.1932 73.8032 18.24 73.27 18.32C72.6307 18.4208 71.9864 18.4876 71.34 18.52C71.28 18.52 70.44 18.62 69.2 18.62C67.6606 18.7021 66.1276 18.8791 64.61 19.15C62.0491 19.5871 59.5372 20.2737 57.11 21.2C56.3708 21.4446 55.6111 21.622 54.84 21.73C54.75 21.73 54.08 22.04 53.13 22.45C52.18 22.86 50.97 23.51 49.75 24.11C47.32 25.36 45.01 26.82 44.82 26.91C43.82 27.41 42.95 28.03 42 28.57C41.0603 29.1641 40.0532 29.6441 39 30C38.5962 30.1876 38.2222 30.4335 37.89 30.73C34.8531 33.0172 31.9453 35.471 29.18 38.08C28.51 38.78 27.86 39.51 27.18 40.24L25.38 42.52C25.15 42.79 24.89 43.03 24.65 43.29C24.3449 43.607 24.0577 43.9408 23.79 44.29C22.4567 46.19 21.2433 48.14 20.15 50.14C19.57 51.14 19.07 52.14 18.54 53.19C18.01 54.24 17.65 55.31 17.29 56.39C17.1439 56.8402 16.9702 57.2811 16.77 57.71C16.52 58.31 16.19 59.02 15.96 59.76C15.73 60.5 15.44 61.24 15.25 61.88C15.06 62.52 15 63.09 15 63.4C14.8327 63.9973 14.6324 64.5849 14.4 65.16C14.1881 65.7191 14.0535 66.3045 14 66.9Z" fill="currentColor"/>
</svg>
