<svg width="96" height="96" viewBox="0 0 96 96" fill="none" xmlns="http://www.w3.org/2000/svg">
<path d="M16.54 65C20.0899 63.9308 23.4777 62.3833 26.61 60.4L36.93 54.1C39.41 52.57 41.93 50.85 44.3 49.39C45.3 48.74 46.48 47.95 47.64 47.23C48.8419 46.4887 50.0875 45.8208 51.37 45.23C52.0367 44.9166 52.7267 44.6266 53.44 44.36C54.36 44.0118 55.3159 43.767 56.29 43.63C57.2908 43.4738 58.3133 43.5318 59.29 43.8L60 44C60.2358 44.0723 60.4562 44.1875 60.65 44.34C61.03 44.6231 61.3669 44.96 61.65 45.34C61.9484 45.6857 62.176 46.0866 62.32 46.52C62.4149 46.9537 62.4651 47.396 62.47 47.84C62.3973 48.7998 62.1605 49.7401 61.77 50.62C61.57 51.08 61.38 51.56 61.16 51.99L60.85 52.6L60.62 53.04L59.69 54.74L59.07 55.85C58.9266 56.1 58.8029 56.3608 58.7 56.63C58.5629 56.8984 58.5273 57.2074 58.6 57.5C58.6792 57.6202 58.7906 57.7157 58.9214 57.7758C59.0522 57.8359 59.1972 57.8581 59.34 57.84C59.6092 57.8313 59.877 57.7978 60.14 57.74L60.54 57.64L61.11 57.46L61.69 57.28L62.45 57.01C62.97 56.82 63.45 56.63 64 56.41C66.07 55.56 68.11 54.55 70.14 53.53C72.7605 52.1148 75.4543 50.8397 78.21 49.71C81.0493 48.5231 84.0756 47.846 87.15 47.71C89.15 47.71 88.78 48.41 87.35 49.3L86.1 50.05C85.62 50.32 85.1 50.6 84.53 50.94C83.4 51.55 82.12 52.31 80.67 52.94L78.74 53.94C78.1 54.28 77.47 54.61 76.81 54.94C75.51 55.6 74.22 56.29 72.89 57C70.1858 58.4859 67.4015 59.8212 64.55 61L63.43 61.44C63.28 61.5 62.92 61.61 62.67 61.69L61.9 62L61.07 62.26L60.66 62.39L60.14 62.49C59.4868 62.6639 58.8157 62.7612 58.14 62.78C57.5413 62.8232 56.9397 62.7657 56.36 62.61C55.8517 62.4416 55.3727 62.1954 54.94 61.88C54.718 61.7002 54.5075 61.5064 54.31 61.3C54.1377 61.0711 53.9871 60.8267 53.86 60.57C53.6144 60.0854 53.4778 59.5529 53.46 59.01C53.4404 57.7572 53.7252 56.5184 54.29 55.4C54.55 54.79 54.93 54.1 55.2 53.59L55.86 52.46L57 50.54C57.1255 50.3762 57.2424 50.206 57.35 50.03C57.4342 49.9129 57.4921 49.779 57.5197 49.6375C57.5474 49.496 57.544 49.3501 57.51 49.21C57.3265 49.046 57.0994 48.9389 56.8562 48.9016C56.613 48.8643 56.3642 48.8985 56.14 49L55.92 49.07C55.7665 49.1248 55.6163 49.1882 55.47 49.26C55.16 49.39 54.85 49.54 54.53 49.7C53.91 50.03 53.27 50.4 52.64 50.8C51.39 51.61 50.11 52.46 48.81 53.4L47.81 54.11L46.74 54.81L44.74 56.11L34.32 62.57L29.12 65.79C27.33 66.85 25.49 67.89 23.55 68.79C21.1169 69.9829 18.5334 70.8407 15.87 71.34C14.4554 71.5966 13.0153 71.6839 11.58 71.6C10.6942 71.5344 9.82385 71.332 9 71C8.14696 70.6399 7.39009 70.0851 6.79 69.38C6.35076 68.8415 6.01202 68.2284 5.79 67.57C5.57059 66.9235 5.43613 66.2512 5.39 65.57C5.3353 64.442 5.43284 63.3119 5.68 62.21C6.14661 60.2263 6.81683 58.296 7.68 56.45C9.28351 52.8822 11.2257 49.4766 13.48 46.28C15.22 43.82 17.07 41.49 18.99 39.28C19.99 38.17 20.93 37.06 21.93 35.99C22.93 34.92 23.93 33.9 25.03 32.88C26.13 31.86 26.84 31.09 27.8 30.24C31.35 27.05 32.73 26.36 34.31 26.55C34.6638 26.5617 35.0155 26.6086 35.36 26.69C35.84 26.86 35.85 27.42 35.47 28.28C34.8633 29.5069 34.0855 30.6416 33.16 31.65L22.91 43.42C19.5748 47.2344 16.7448 51.4625 14.49 56C13.6799 57.6491 12.9784 59.3494 12.39 61.09C12.1275 61.8601 11.9236 62.6491 11.78 63.45C11.6663 64.016 11.616 64.5929 11.63 65.17C11.63 65.23 11.63 65.17 11.63 65.26H11.69C11.69 65.26 11.69 65.26 11.75 65.26H11.94C12.6399 65.322 13.3447 65.3019 14.04 65.2C14.8576 65.0964 15.6665 64.9326 16.46 64.71L16.54 65Z" fill="currentColor"/>
</svg>
