<svg width="96" height="96" viewBox="0 0 96 96" fill="none" xmlns="http://www.w3.org/2000/svg">
<path d="M64.18 16.92C64.4695 16.8709 64.7665 16.8896 65.0476 16.9746C65.3287 17.0596 65.5862 17.2087 65.8 17.41C66.2909 17.8622 66.6679 18.4242 66.9 19.05C67.08 19.49 66.76 20.63 66.41 20.74C65.74 20.96 65.08 21.18 64.41 21.32C64.32 21.32 63.87 21.37 63.24 21.4L62.16 21.46L60.91 21.61C60.04 21.69 59.14 21.92 58.34 22.07C57.54 22.22 56.85 22.49 56.39 22.62C54.6 23.24 52.88 23.81 51.11 24.32C50.21 24.55 49.35 24.93 48.47 25.24C47.59 25.55 46.78 26 46 26.42C44.3227 27.2717 42.7116 28.2478 41.18 29.34C40.51 29.84 39.78 30.25 39.05 30.69C36.5352 32.1829 34.3672 34.1941 32.69 36.59C32.3391 36.9361 32.09 37.3719 31.97 37.85C31.91 38.27 30.68 40.02 29.67 41.91C28.66 43.8 27.76 45.79 27.51 46.23C26.2328 48.4365 25.3179 50.8336 24.8 53.33C24.7 53.69 24.8 54.08 24.52 54.4C24.2456 54.7367 24.0661 55.1406 24 55.57C24 55.97 24 56.38 23.93 56.78C23.8 57.92 23.88 59.04 23.72 60.23C23.6357 60.8366 23.5155 61.4376 23.36 62.03C23.3424 62.1183 23.3013 62.2003 23.241 62.2672C23.1807 62.3341 23.1035 62.3835 23.0174 62.4101C22.9314 62.4368 22.8397 62.4397 22.7522 62.4185C22.6646 62.3974 22.5844 62.353 22.52 62.29C22.21 61.8 22.01 62.29 21.77 62.41C21.6858 62.4517 21.5939 62.4755 21.5 62.48C21.2715 62.1383 21.0676 61.7807 20.89 61.41C20.443 60.6102 20.065 59.7739 19.76 58.91C19.416 57.9992 19.1189 57.0713 18.87 56.13C18.7292 55.5834 18.6454 55.0238 18.62 54.46C18.62 54.41 18.55 53.67 18.62 52.57C18.62 52.02 18.67 51.38 18.7 50.68C18.73 49.98 18.86 49.26 18.94 48.52C19.2591 46.2755 19.7505 44.059 20.41 41.89C20.6073 41.2451 20.9153 40.6394 21.32 40.1C21.32 40.03 21.58 39.45 21.91 38.61C22.24 37.77 22.71 36.71 23.27 35.69L24 34.15L24.78 32.84C25.0432 32.3636 25.3336 31.9028 25.65 31.46C26.24 30.74 26.75 29.95 27.41 29.28C28.0193 28.5612 28.759 27.9641 29.59 27.52C29.908 27.3201 30.1917 27.0702 30.43 26.78C32.6952 24.553 35.264 22.6575 38.06 21.15L40.15 19.94C40.84 19.52 41.56 19.15 42.29 18.8C42.5629 18.6891 42.8436 18.5988 43.13 18.53C43.4896 18.4411 43.8435 18.3309 44.19 18.2C47.7306 16.7082 51.47 15.7413 55.29 15.33C56.2928 15.314 57.2954 15.3708 58.29 15.5L60.12 15.73C60.5336 15.8029 60.9509 15.853 61.37 15.88C61.8688 15.9851 62.3502 16.1601 62.8 16.4C63.2196 16.6659 63.6893 16.8429 64.18 16.92Z" fill="currentColor"/>
<path d="M71.83 39.32C72.62 38.89 73.42 39.32 74.14 40.32C74.2636 40.5606 74.337 40.8239 74.3559 41.0937C74.3748 41.3636 74.3388 41.6345 74.25 41.89C73.8824 42.2487 73.4915 42.5827 73.08 42.89C72.96 42.99 71.87 43.28 70.71 43.77C69.686 44.202 68.6847 44.686 67.71 45.22C66.59 45.97 65.38 46.44 64.3 47.15C63.1747 47.8047 62.0894 48.526 61.05 49.31C60.5373 49.7063 60.0466 50.1303 59.58 50.58C59.0823 51.0119 58.6238 51.4871 58.21 52C57.8213 52.4363 57.3891 52.8317 56.92 53.18C56.1824 53.8602 55.5126 54.6104 54.92 55.42C54.3569 56.273 53.862 57.1691 53.44 58.1C53.2738 58.4079 53.1814 58.7502 53.17 59.1C53.1112 59.4942 52.9967 59.878 52.83 60.24C52.66 60.82 52.43 61.56 52.18 62.24C51.93 62.92 51.76 63.73 51.57 64.33C51.462 64.7511 51.3284 65.1652 51.17 65.57C50.84 66.42 50.56 67.3 50.17 68.17C49.78 69.04 49.65 69.97 49.39 70.88C49.3 71.15 49.39 71.43 49.15 71.67C48.7774 72.1665 48.5963 72.7808 48.64 73.4C48.53 74.21 48.4 75.04 48.24 75.87C48.1213 76.3005 47.9708 76.7217 47.79 77.13C47.64 77.52 47.15 77.36 47.08 77.24C46.89 76.87 46.67 77.24 46.46 77.24C46.3873 77.254 46.3127 77.254 46.24 77.24C46.18 77.24 45.75 76.01 45.24 74.68C44.9813 74.0624 44.7902 73.4187 44.67 72.76C44.572 72.3852 44.4985 72.0044 44.45 71.62C44.45 71.55 44.38 69.62 44.37 67.56C44.4336 66.0106 44.6007 64.4671 44.87 62.94C44.976 62.4854 45.1372 62.0455 45.35 61.63C45.35 61.63 45.43 61.16 45.6 60.56L46.21 58.4C46.4089 57.6723 46.6527 56.9576 46.94 56.26C47.17 55.67 47.33 55.26 47.36 55.2C47.6368 54.6014 47.9438 54.0173 48.28 53.45C48.6059 52.9098 49.0103 52.4211 49.48 52C49.6679 51.814 49.8324 51.6058 49.97 51.38C50.5722 50.4263 51.2511 49.5233 52 48.68C52.81 47.88 53.57 47.04 54.44 46.32C55.31 45.6 56.12 44.74 57.06 44.07C57.2439 43.9647 57.4343 43.8712 57.63 43.79C57.8725 43.6848 58.1065 43.5611 58.33 43.42C59.4241 42.6172 60.609 41.9459 61.86 41.42L62.76 40.97L63.7 40.61C64.32 40.36 64.94 40.1 65.55 39.82C65.8082 39.7165 66.0762 39.6395 66.35 39.59L67.61 39.42C68.3244 39.3562 69.033 39.2392 69.73 39.07C70.13 38.92 71.53 39.51 71.83 39.32Z" fill="currentColor"/>
</svg>
