<svg width="96" height="96" viewBox="0 0 96 96" fill="none" xmlns="http://www.w3.org/2000/svg">
<path d="M28.37 56.47C27.3197 55.9842 26.3461 55.3475 25.48 54.58C24.5581 53.7672 23.804 52.7821 23.26 51.68C22.7344 50.6229 22.396 49.4827 22.26 48.31C22.0903 47.1578 22.1106 45.9856 22.32 44.84C22.7479 42.5663 23.8529 40.4749 25.49 38.84C26.9158 37.4107 28.5638 36.2219 30.37 35.32C33.715 33.6747 37.3051 32.5838 41 32.09C41.91 31.97 42.84 31.87 43.79 31.82C44.74 31.77 45.69 31.82 46.63 31.82C48.4798 31.9358 50.3182 32.1898 52.13 32.58C57.3337 33.6931 62.2846 35.7651 66.73 38.69C68.6712 40.0172 70.4916 41.513 72.17 43.16C72.58 43.59 73.01 43.99 73.4 44.44L74.57 45.8L75.67 47.34C76.02 47.87 76.29 48.45 76.6 49C77.7295 51.2853 78.3147 53.8009 78.31 56.35C78.2965 58.8346 77.7688 61.2894 76.76 63.56C75.7891 65.7792 74.4351 67.8102 72.76 69.56C71.9105 70.4498 70.9873 71.266 70 72C69.51 72.35 69 72.7 68.52 73C67.9824 73.3251 67.4246 73.6157 66.85 73.87C64.5949 74.9051 62.13 75.4015 59.65 75.32C58.2506 75.2683 56.8903 74.8437 55.71 74.09C54.4599 73.2338 53.5724 71.9437 53.22 70.47C52.9365 69.2383 52.9918 67.9528 53.38 66.75C53.7191 65.6726 54.2036 64.6465 54.82 63.7C55.9893 61.8825 57.4764 60.2904 59.21 59C62.6264 56.3823 66.8491 55.0384 71.15 55.2C73.8933 55.2891 76.5833 55.9812 79.0289 57.2274C81.4745 58.4735 83.6156 60.2429 85.3 62.41C85.7211 62.9458 86.099 63.5143 86.43 64.11C86.7821 64.6941 87.0993 65.2985 87.38 65.92C87.9434 67.1647 88.3208 68.4855 88.5 69.84C88.7997 72.4391 88.6303 75.0708 88 77.61C87.66 79.15 87.38 79.78 87.24 79.71C87.1 79.64 87.04 78.86 86.9 77.54C86.7158 75.7707 86.3642 74.0229 85.85 72.32C85.518 71.2853 85.0964 70.2815 84.59 69.32C84.0734 68.2837 83.4536 67.302 82.74 66.39C82.442 65.9588 82.1074 65.554 81.74 65.18C81.5748 64.9733 81.3907 64.7825 81.19 64.61C81.0958 64.516 80.9919 64.4322 80.88 64.36L80.6 64.08C80.2223 63.7168 79.8179 63.3825 79.39 63.08C78.9767 62.7544 78.5349 62.4666 78.07 62.22C76.2512 61.1909 74.2454 60.5348 72.17 60.29C70.1181 59.9802 68.0229 60.1338 66.0382 60.7394C64.0534 61.3451 62.2294 62.3874 60.7 63.79C59.9509 64.5066 59.2804 65.3011 58.7 66.16C58.1948 66.8657 57.8251 67.6592 57.61 68.5C57.4777 69.0069 57.5495 69.5455 57.81 70C57.9856 70.2312 58.2065 70.4241 58.4593 70.5669C58.7121 70.7096 58.9914 70.7991 59.28 70.83C61.2906 71.0713 63.3288 70.753 65.17 69.91C65.42 69.81 65.64 69.69 65.88 69.58C66.1039 69.4698 66.3209 69.3462 66.53 69.21C66.98 68.88 67.47 68.6 67.9 68.21C68.7722 67.5522 69.5793 66.8121 70.31 66C71.1886 64.978 71.9345 63.849 72.53 62.64C73.1048 61.4283 73.5086 60.1427 73.73 58.82C74.0514 56.8568 73.904 54.8454 73.3 52.95C73.2 52.64 73.05 52.35 72.93 52.04C72.8153 51.7304 72.6713 51.4324 72.5 51.15C71.0236 48.7365 69.0909 46.634 66.81 44.96C64.4652 43.1685 61.9419 41.6236 59.28 40.35C53.42 37.53 46.91 36 40.65 37.2C37.5002 37.6766 34.4558 38.6914 31.65 40.2C30.3542 40.9121 29.2041 41.862 28.26 43C27.4242 44.0355 26.9563 45.3195 26.93 46.65C26.894 47.4562 27.0296 48.2609 27.3278 49.0108C27.6261 49.7607 28.0801 50.4387 28.66 51C30.0437 52.1245 31.7261 52.8197 33.5 53C37.4516 53.4937 41.4636 53.0939 45.24 51.83C48.0843 50.7969 50.7447 49.3148 53.12 47.44C55.4995 45.6757 57.4229 43.3683 58.73 40.71C59.3182 39.45 59.6347 38.0803 59.6588 36.6899C59.6829 35.2995 59.4142 33.9197 58.87 32.64C57.6546 29.9679 55.8125 27.6284 53.5 25.82C49.8385 22.9279 45.5841 20.8793 41.04 19.82C39.9197 19.5273 38.7848 19.2936 37.64 19.12C36.5 18.93 35.34 18.85 34.19 18.72C31.8863 18.5898 29.5759 18.64 27.28 18.87L25.77 19C25.28 19 24.77 19.18 24.3 19.27L22.82 19.55L21.35 19.93L20 20.26C19.59 20.38 19.21 20.52 18.83 20.64C18.09 20.88 17.38 21.02 16.77 21.26C15.56 21.72 14.52 21.98 13.71 22.26C12.4782 22.7221 11.1637 22.923 9.85002 22.85C9.36488 22.8433 8.88063 22.8065 8.40002 22.74C7.79002 22.57 8.05002 21.88 9.07002 20.63C9.35482 20.2741 9.66568 19.9398 10 19.63C10.39 19.32 10.83 18.98 11.32 18.63C12.4755 17.8121 13.708 17.1087 15 16.53C19.3331 14.5183 24.0099 13.3508 28.78 13.09C33.6688 12.7623 38.5779 13.2626 43.3 14.57C48.2191 15.8923 52.8028 18.2404 56.75 21.46C58.8209 23.1607 60.6244 25.1631 62.1 27.4C62.8712 28.6106 63.5083 29.9015 64 31.25C64.5011 32.6816 64.8006 34.1759 64.89 35.69C64.9893 37.9521 64.5792 40.2076 63.69 42.29C62.8524 44.2069 61.726 45.9842 60.35 47.56C57.7587 50.4513 54.644 52.8263 51.17 54.56C50.33 55 49.46 55.4 48.58 55.77C47.6617 56.1615 46.7198 56.4954 45.76 56.77C43.9247 57.2648 42.0567 57.6291 40.17 57.86C38.2564 58.0994 36.324 58.1529 34.4 58.02C32.3061 57.8973 30.2491 57.4135 28.32 56.59L28.37 56.47Z" fill="currentColor"/>
</svg>
