<svg width="96" height="96" viewBox="0 0 96 96" fill="none" xmlns="http://www.w3.org/2000/svg">
<path d="M66.56 58.58C63.43 62.86 60.17 67.04 56.66 71.06C53.1292 75.2399 49.0991 78.9711 44.66 82.17L43.38 83L42 83.83C41.5155 84.1077 41.0108 84.3484 40.49 84.55C39.9637 84.8045 39.4146 85.0087 38.85 85.16C38.2656 85.358 37.6625 85.4954 37.05 85.57C36.4144 85.6632 35.7722 85.7034 35.13 85.69C33.9947 85.6365 32.8684 85.4622 31.77 85.17C28.1909 84.1937 24.8377 82.5257 21.9 80.26C20.3891 79.117 19.0431 77.771 17.9 76.26C16.6482 74.634 15.8169 72.7242 15.48 70.7C15.3093 69.6435 15.3093 68.5665 15.48 67.51C15.5739 66.9999 15.6974 66.4957 15.85 66L16.3 64.73C16.903 63.0734 17.618 61.4596 18.44 59.9C20.0636 56.8366 21.9685 53.9308 24.13 51.22C26.044 48.8034 28.1474 46.5429 30.42 44.46C31.5813 43.3947 32.8105 42.4059 34.1 41.5C34.43 41.27 34.75 41.04 35.1 40.83L36.1 40.21L36.62 39.9L37.22 39.61C37.6244 39.4143 38.0421 39.2472 38.47 39.11C40.6569 38.39 43.0011 38.293 45.24 38.83C47.4345 39.3113 49.488 40.2936 51.24 41.7C53.0087 43.1814 54.2909 45.1604 54.92 47.38C55.2628 48.5235 55.3583 49.7268 55.2 50.91C55.0465 52.0722 54.6366 53.1857 54 54.17C53.8287 54.4184 53.6417 54.6556 53.44 54.88C53.2904 55.0249 53.1223 55.1493 52.94 55.25C52.65 55.42 52.44 55.41 52.3 55.25C52 55 52.07 54.2 52 53.16C51.9921 51.9834 51.6785 50.829 51.09 49.81C50.7624 49.2649 50.3621 48.767 49.9 48.33C49.3442 47.8669 48.7597 47.4394 48.15 47.05C47.8645 46.8831 47.5935 46.6925 47.34 46.48C47.0688 46.2847 46.7848 46.1076 46.49 45.95C45.9051 45.6223 45.2886 45.3543 44.65 45.15C43.4667 44.7965 42.2183 44.7178 41 44.92C40.4328 45.0099 39.8809 45.1782 39.36 45.42L38.32 46C37.97 46.19 37.62 46.43 37.32 46.64C35.8656 47.5602 34.4908 48.6005 33.21 49.75C30.5129 52.1574 28.0731 54.8385 25.93 57.75C23.7328 60.58 21.9234 63.6909 20.55 67C20.4571 67.2164 20.3835 67.4407 20.33 67.67C20.2648 67.855 20.2179 68.0459 20.19 68.24C20.1521 68.4347 20.1287 68.6319 20.12 68.83C20.1001 69.0262 20.1001 69.2239 20.12 69.42C20.1824 70.2666 20.4208 71.0909 20.82 71.84C21.8205 73.5855 23.2055 75.08 24.87 76.21C26.6232 77.4671 28.5412 78.4766 30.57 79.21C31.5464 79.5659 32.5496 79.8435 33.57 80.04C34.0462 80.1271 34.527 80.1872 35.01 80.22C35.425 80.2356 35.8405 80.2088 36.25 80.14C36.5055 80.1302 36.7582 80.083 37 80L37.72 79.8C38.21 79.56 38.72 79.39 39.2 79.13C39.68 78.87 40.2 78.59 40.69 78.26C41.18 77.93 41.69 77.6 42.16 77.26C44.1406 75.7623 46.0028 74.114 47.73 72.33C51.2774 68.6523 54.5653 64.7329 57.57 60.6C61.3324 55.4896 64.8142 50.1784 68 44.69C69.83 41.54 71.59 38.33 73.16 35.08C73.94 33.45 74.67 31.8 75.29 30.17C75.5892 29.3809 75.8462 28.5764 76.06 27.76L76.19 27.22C76.2579 26.8263 76.2579 26.4238 76.19 26.03C76.1421 25.9497 76.1083 25.8618 76.09 25.77L76 25.43C75.9249 25.188 75.8347 24.9508 75.73 24.72C75.524 24.2614 75.2937 23.8141 75.04 23.38C74.5313 22.5242 73.9311 21.7262 73.25 21C70.9723 18.6184 68.0556 16.9447 64.85 16.18C64.4874 16.0974 64.12 16.0372 63.75 16L63.23 15.95H62.78C62.2901 15.9848 61.8162 16.1393 61.4 16.4C60.1079 17.2863 58.9262 18.3236 57.88 19.49C56.8 20.61 55.76 21.84 54.59 23.03C53.1078 24.6843 51.3973 26.1188 49.51 27.29C48.4625 27.8906 47.2278 28.0762 46.05 27.81C45.5636 27.7426 45.0847 27.6287 44.62 27.47C43.97 27.15 43.94 26.37 44.4 25.25C45.1062 23.6817 46.0544 22.234 47.21 20.96C49.21 18.67 51.02 16.32 53.29 13.85C54.5754 12.3618 56.0672 11.0653 57.72 10C58.2732 9.67121 58.8517 9.38698 59.45 9.15003C60.1445 8.8909 60.8655 8.70979 61.6 8.61003C62.854 8.45627 64.1236 8.48321 65.37 8.69003C69.3799 9.37551 73.1254 11.1462 76.2 13.81C77.7687 15.1444 79.157 16.6773 80.33 18.37C80.9271 19.2566 81.4521 20.1896 81.9 21.16C82.1439 21.6464 82.3577 22.1474 82.54 22.66L82.79 23.43L82.95 23.91C83.0177 24.0873 83.0647 24.2719 83.09 24.46C83.19 24.98 83.24 25.51 83.29 26.04C83.34 26.57 83.23 27.12 83.21 27.66C83.1878 28.1129 83.1174 28.5621 83 29C82.91 29.35 82.83 29.75 82.72 30C81.8253 32.7543 80.7049 35.4301 79.37 38C78.14 40.46 76.83 42.82 75.47 45.13C72.75 49.78 69.8 54.24 66.73 58.62L66.56 58.58Z" fill="currentColor"/>
</svg>
