<svg width="96" height="96" viewBox="0 0 96 96" fill="none" xmlns="http://www.w3.org/2000/svg">
<path d="M19.69 59.65C18.89 59.38 18.56 58.65 18.36 57.73C18.3 57.42 18.65 56.81 18.92 56.82C19.43 56.82 19.98 56.91 20.48 57C20.79 57.07 25.09 58.89 26.57 59.45C27.9863 60.0087 29.3687 60.6497 30.71 61.37L38.71 65.92C39.3006 66.2592 39.8595 66.6508 40.38 67.09C42.178 68.5753 44.1329 69.8596 46.21 70.92C46.5387 71.1461 46.9151 71.2933 47.31 71.35C48.02 71.35 53.31 74.77 53.94 75.35C55.41 76.79 56.94 78.09 58.51 79.46C58.73 79.65 59.04 79.74 59.11 80.12C59.29 80.98 59.86 81.24 60.36 81.63C61.0594 82.1677 61.7272 82.7453 62.36 83.36C62.6293 83.7527 62.8446 84.1799 63 84.63C63.2 85.04 62.58 85.63 62.41 85.63C61.94 85.63 62 86.16 61.85 86.48C61.8033 86.5957 61.7392 86.7036 61.66 86.8C59.6996 86.4994 57.7667 86.0412 55.88 85.43C55.88 85.43 55.41 85.21 54.78 84.85L52.5 83.59C50.78 82.59 48.99 81.65 48.61 81.47C48.2321 81.2437 47.8943 80.9565 47.61 80.62C47.46 80.46 42.27 77.71 42.12 77.52C41.0591 76.8942 40.1205 76.081 39.35 75.12C39.2001 74.9241 39.0089 74.7637 38.79 74.65C37.04 73.51 35.45 72.15 33.79 70.86C33 70.2 32.06 69.64 31.2 69C31.0478 68.8728 30.9072 68.7322 30.78 68.58C30.6148 68.401 30.4341 68.2371 30.24 68.09C28.13 66.72 26.24 65.03 24.11 63.68C23.63 63.36 21.62 61.39 21.04 61.07C20.73 60.9 20 59.75 19.69 59.65Z" fill="currentColor"/>
<path d="M14.39 34.63C13.9268 34.4156 13.5274 34.0844 13.2311 33.6688C12.9348 33.2533 12.7517 32.7678 12.7 32.26C12.63 31.91 13.06 31.26 13.38 31.35C13.99 31.48 14.6 31.6 15.2 31.77C15.55 31.89 20.75 34.43 22.56 35.21C24.2991 35.9837 25.9979 36.8448 27.65 37.79C30.97 39.79 34.26 41.79 37.56 43.72C38.2927 44.1652 38.9943 44.6597 39.66 45.2C41.968 47.0203 44.4231 48.6459 47 50.06C47.4036 50.347 47.8585 50.5541 48.34 50.67C49.18 50.8 55.97 54.95 56.76 55.67C58.71 57.37 60.71 58.99 62.69 60.67C62.98 60.9 63.35 61.04 63.49 61.44C63.82 62.36 64.49 62.7 65.18 63.17C66.0823 63.8092 66.9439 64.5039 67.76 65.25C68.1617 65.6899 68.4984 66.1849 68.76 66.72C69.03 67.18 68.33 67.8 68.13 67.78C67.57 67.78 67.68 68.33 67.51 68.66C67.4666 68.7855 67.3986 68.9011 67.31 69C64.9613 68.4042 62.664 67.6217 60.44 66.66L51.44 61.48C50.9674 61.1901 50.5367 60.8368 50.16 60.43C49.96 60.26 43.59 56.56 43.35 56.43C42.0235 55.6553 40.809 54.7032 39.74 53.6C39.5315 53.3719 39.2843 53.1823 39.01 53.04C36.79 51.65 34.71 50.04 32.59 48.49C31.51 47.69 30.36 47 29.25 46.25C29.0572 46.1012 28.8736 45.9409 28.7 45.77C28.4771 45.5573 28.2399 45.3602 27.99 45.18C25.3 43.5 22.86 41.42 20.18 39.74C19.57 39.34 16.96 36.95 16.23 36.52C15.74 36.15 14.79 34.78 14.39 34.63Z" fill="currentColor"/>
<path d="M21.12 13.55C20.5952 13.2911 20.1675 12.8704 19.9 12.35C19.6018 11.8041 19.4245 11.2005 19.38 10.58C19.38 10.18 19.99 9.58001 20.32 9.68001L21.32 9.87001L22.38 10.09C22.49 10.09 22.92 10.3 23.59 10.57C24.26 10.84 25.07 11.3 25.95 11.74C27.73 12.61 29.72 13.58 30.75 14.04C32.75 14.95 34.63 16.04 36.51 17.04L47.85 23.83C48.6882 24.3371 49.4901 24.9018 50.25 25.52C52.8972 27.5954 55.7137 29.4452 58.67 31.05C59.1372 31.3716 59.659 31.6054 60.21 31.74C61.21 31.87 68.89 36.74 69.8 37.48C72.05 39.4 74.37 41.22 76.66 43.1C76.99 43.36 77.41 43.53 77.59 43.96C78.0407 44.795 78.7395 45.4694 79.59 45.89C80.6333 46.6092 81.6349 47.3872 82.59 48.22C83.0448 48.7028 83.4378 49.2402 83.76 49.82C84.1 50.33 83.36 50.95 83.14 50.93C82.51 50.87 82.67 51.49 82.51 51.84C82.4666 51.9655 82.3986 52.0811 82.31 52.18C79.6352 51.4709 77.0124 50.5788 74.46 49.51L63.89 43.81C63.3439 43.4909 62.84 43.1045 62.39 42.66C62.15 42.47 54.71 38.43 54.46 38.2C53.03 37.2 51.46 36.43 50.27 35.01C50.0221 34.7587 49.735 34.5493 49.42 34.39C46.85 32.82 44.42 31.01 41.99 29.25C40.74 28.35 39.41 27.58 38.13 26.73C37.9052 26.5604 37.6915 26.3767 37.49 26.18C37.2328 25.9376 36.9588 25.7137 36.67 25.51C33.58 23.59 30.74 21.27 27.67 19.38C26.96 18.93 23.96 16.18 23.12 15.68C22.62 15.38 21.55 13.78 21.12 13.55Z" fill="currentColor"/>
</svg>
