<svg width="96" height="96" viewBox="0 0 96 96" fill="none" xmlns="http://www.w3.org/2000/svg">
<path d="M60.4 36.52L60.45 34.38V33.31V32.65C60.5237 32.4109 60.5805 32.167 60.62 31.92C60.7445 31.1287 60.8213 30.3306 60.85 29.53C60.8659 29.2674 60.8389 29.0039 60.77 28.75C60.7733 28.7268 60.7733 28.7032 60.77 28.68C60.77 28.68 60.72 28.73 60.71 28.75L60.64 28.93C60.6125 29.0157 60.572 29.0966 60.52 29.17C60.29 29.52 59.88 30.08 59.08 31.17L56.64 34.3C56.07 35.08 55.39 35.77 54.75 36.5L53.75 37.58L52.75 38.58C50.3261 41.0499 47.6441 43.2526 44.75 45.15C42.8373 46.3013 40.8012 47.2339 38.68 47.93C37.6161 48.2803 36.5211 48.5281 35.41 48.67C34.2918 48.7601 33.1682 48.7601 32.05 48.67C30.66 48.53 30.87 47.85 31.86 46.87C32.11 46.62 32.4 46.35 32.73 46.07C33.06 45.79 33.41 45.44 33.79 45.12C34.17 44.8 34.57 44.46 34.99 44.12C35.4279 43.8341 35.8896 43.5865 36.37 43.38C38.087 42.5996 39.7246 41.6553 41.26 40.56C42.02 40.01 42.81 39.49 43.59 38.96C44.37 38.43 45.11 37.81 45.83 37.17C47.3204 35.8674 48.7297 34.4748 50.05 33C50.69 32.25 51.41 31.56 52.05 30.76L53 29.61L53.48 29.03L53.61 28.87L53.79 28.57L54.16 27.95C54.73 27 55.3 26.03 55.87 25.07L56.69 23.64C56.97 23.17 57.25 22.5 57.53 21.95L59.18 18.44L60 16.67L60.1 16.45V16.34L60.25 16.2L60.55 15.94L62.79 13.94L64 12.94C64.0205 12.9309 64.0426 12.9262 64.065 12.9262C64.0874 12.9262 64.1096 12.9309 64.13 12.94C64.2121 12.9555 64.2883 12.9936 64.35 13.05C64.4404 13.1223 64.524 13.2027 64.6 13.29C64.7444 13.4592 64.8748 13.6398 64.99 13.83C65.23 14.23 65.46 14.66 65.7 15.13C66.3451 16.5073 66.7283 17.9926 66.83 19.51C67.03 21.51 67.11 23.84 67.19 26.08L67.29 29.46V31.16V32.77C67.23 36.34 67.18 39.91 67.12 43.47C67.06 48.87 66.85 54.29 66.91 59.65C66.91 63.81 67.38 67.9 67.57 72.04C67.57 72.95 67.72 73.85 67.72 74.77C67.72 78.19 67.16 79.29 65.28 79.9C64.86 80.0637 64.4289 80.1973 63.99 80.3C62.54 80.51 61.47 79.1 61.15 76.65C60.2989 69.1113 59.9315 61.5257 60.05 53.94C60.05 48.19 60.12 42.42 60.15 36.66L60.4 36.52Z" fill="currentColor"/>
</svg>
