<svg width="96" height="96" viewBox="0 0 96 96" fill="none" xmlns="http://www.w3.org/2000/svg">
<path d="M67.5 58.93L70.29 58.21L71.66 57.84C71.7517 57.7995 71.8499 57.7758 71.95 57.77H72.06C72.2465 57.7575 72.431 57.724 72.61 57.67C72.6587 57.6532 72.703 57.6259 72.74 57.59C72.74 57.59 72.74 57.52 72.74 57.49L72.65 57.25L72.34 56.79L72.16 56.53L72 56.37L71.71 56.05C71.12 55.38 70.52 54.72 69.88 54.05C69.24 53.38 68.58 52.78 67.96 52.12C63.45 47.52 58.57 43.12 53.57 38.85C51.35 36.96 49.02 35.17 46.71 33.4C43.85 31 40.81 28.72 38.52 25.59C37.79 24.59 38.36 24.3 39.61 24.41C40.3905 24.4898 41.163 24.6336 41.92 24.84C42.3862 24.9631 42.8439 25.1168 43.29 25.3C43.7563 25.5132 44.2044 25.764 44.63 26.05L49.32 29.23C50.86 30.33 52.32 31.58 53.77 32.78C56.7 35.21 59.61 37.72 62.4 40.42C65.76 43.68 69.6 46.61 73 50C73.88 50.84 74.68 51.79 75.52 52.69C75.63 52.81 75.71 52.89 75.84 53.05L76.26 53.58L77.08 54.63C77.63 55.36 78.19 55.97 78.7 56.78C78.93 57.6 79.23 58.41 79.41 59.22C79.2772 59.6332 79.0354 60.0029 78.71 60.29C78.3833 60.6061 78.0169 60.8784 77.62 61.1C76.6853 61.5983 75.7039 62.0035 74.69 62.31L73.9 62.56L73.24 62.76L72.24 63.05C69.13 63.9 66.03 64.64 62.95 65.42C58.28 66.6 53.57 67.68 49.01 69.04C45.5318 70.1304 42.1108 71.3953 38.76 72.83L36.62 73.78C33.9 74.78 33.22 74.86 32.01 74.09C31.73 73.91 31.41 73.8 31.13 73.65C31.0188 73.5925 30.9222 73.5104 30.8477 73.4099C30.7732 73.3093 30.7226 73.1931 30.7 73.07C30.6525 72.7224 30.7267 72.3691 30.91 72.07C31.4266 71.2324 32.1452 70.5378 33 70.05C34.4888 69.1243 36.0506 68.3217 37.67 67.65C39.26 66.96 40.88 66.35 42.51 65.77C45.79 64.63 49.14 63.66 52.51 62.77C57.51 61.38 62.51 60.18 67.51 58.84L67.5 58.93Z" fill="currentColor"/>
<path d="M66.79 61.81L72.27 60.91L75 60.46L75.67 60.34L76.01 60.29H76.12H76.43C76.8276 60.2827 77.2232 60.2324 77.61 60.14C77.76 60.14 77.61 60 77.61 59.94L77.49 59.71C77.395 59.5425 77.2881 59.3821 77.17 59.23C77.0819 59.0944 76.9815 58.9672 76.87 58.85L75.67 57.63L72.9 54.75C66.45 48 59.64 41.31 52.67 34.88C49.57 32.03 46.32 29.31 43.1 26.64C39 23.21 34.6 20.05 30.91 16C30.24 15.26 30.22 14.65 30.68 14.3C31.3654 13.9008 32.1376 13.6743 32.93 13.64C35.5837 13.4805 38.2033 14.3027 40.29 15.95C44.59 19.38 48.86 22.85 52.99 26.52C57.12 30.19 61.11 34 65 38.05C69.62 42.88 75 47.31 79.75 52.3L81.75 54.46C82.75 55.58 83.67 56.77 84.63 57.9L86.03 59.61C86.19 60.11 86.31 60.61 86.45 61.1L86.87 62.57C86.87 62.69 86.97 62.81 86.95 62.94C86.9093 63.0737 86.8449 63.199 86.76 63.31C86.6154 63.5092 86.4512 63.6934 86.27 63.86C85.4068 64.6398 84.3826 65.2202 83.27 65.56C81.93 65.98 80.5 66.33 79.07 66.66L77.19 67.07L75.81 67.35L73.06 67.9C68.56 68.8 64.06 69.64 59.6 70.64L54.6 71.93L49.49 73C46.13 73.77 42.79 74.61 39.49 75.59C34.5037 77.1814 29.6323 79.1126 24.91 81.37C23.91 81.84 22.91 82.37 21.91 82.85C20.91 83.33 20.15 83.62 19.46 83.85C18.8462 84.0068 18.213 84.0742 17.58 84.05C16.5598 84.0322 15.5773 83.6611 14.8 83C14.3943 82.7224 14.0099 82.4149 13.65 82.08C13.3941 81.7649 13.2471 81.3755 13.2309 80.97C13.2147 80.5644 13.3301 80.1645 13.56 79.83C14.223 78.6004 15.1523 77.5345 16.28 76.71C24.79 71.37 34.66 68.3 44.5 65.71C46.34 65.25 48.17 64.8 50.01 64.38C50.94 64.19 51.85 63.94 52.79 63.8L55.61 63.47C56.55 63.35 57.5 63.26 58.43 63.13L61.21 62.62L66.74 61.62L66.79 61.81Z" fill="currentColor"/>
<path d="M16.76 54.67C17.98 52.24 19.19 49.81 20.35 47.36C20.77 46.46 21.04 45.51 21.47 44.62C22.98 41.47 24.55 38.34 25.9 35.15C26.4846 33.7306 26.9855 32.2781 27.4 30.8C27.748 28.9405 28.2841 27.1211 29 25.37C29.26 24.87 30.43 25.01 31.5 25.7C32.0755 26.0724 32.5579 26.5718 32.91 27.16C33.2612 27.6937 33.4036 28.338 33.31 28.97C32.9053 31.0364 32.3436 33.0689 31.63 35.05C30.8779 36.9859 29.9786 38.8614 28.94 40.66C27.8319 42.9169 26.8503 45.2338 26 47.6C24.91 50.13 23.75 52.6 22.59 55.13L20.44 59.74C19.38 62.07 18.18 64.36 17.23 66.74C16.48 68.57 16.05 70.5 15.4 72.35C15.24 72.75 15.13 73.17 14.94 73.56C14.22 75.01 13.67 75.32 12.45 75.15C12.1743 75.1229 11.9005 75.0795 11.63 75.02C10.75 74.79 10.32 73.87 10.43 72.65C10.53 71.74 10.63 70.83 10.77 69.92C10.91 69.01 11.22 68.18 11.49 67.31C12.03 65.58 12.66 63.86 13.33 62.15C13.83 60.8766 14.35 59.6166 14.89 58.37L16.61 54.64L16.76 54.67Z" fill="currentColor"/>
</svg>
