<svg width="96" height="96" viewBox="0 0 96 96" fill="none" xmlns="http://www.w3.org/2000/svg">
<path d="M73.37 41L74.43 42.38L75.23 43.38C75.52 43.74 75.8 44.2 76.08 44.62C76.6296 45.3934 77.0236 46.2662 77.24 47.19L77.34 47.83C77.34 48.04 77.34 48.25 77.34 48.46C77.3172 48.9057 77.2014 49.3417 77 49.74C76.5889 50.5047 75.9858 51.1491 75.25 51.61C74.3676 52.1193 73.4598 52.5832 72.53 53C72.466 53.0356 72.3991 53.0657 72.33 53.09H72.25L72.07 53.18L71.72 53.35L71.04 53.7C70.58 53.95 70.13 54.2 69.68 54.47C68.38 55.25 67.19 56.26 65.94 57.18C63.71 58.81 61.61 60.67 59.5 62.55C57.39 64.43 55.35 66.45 53.4 68.55C51.67 70.4 50.08 72.41 48.55 74.41C46.61 77.01 44.62 79.59 42.45 82.05C41.77 82.81 41.45 82.46 41.54 81.45C41.6545 79.9131 42.0906 78.4175 42.82 77.06C46.1151 71.1165 50.1913 65.6412 54.94 60.78C55.68 60.07 56.39 59.31 57.13 58.56L59.38 56.33C60.9005 54.8191 62.5065 53.3967 64.19 52.07C65.19 51.36 66.11 50.67 67.13 50.07C67.63 49.74 68.13 49.43 68.67 49.13L69.46 48.69L69.66 48.59L69.81 48.51L69.96 48.45L70.6 48.18C70.81 48.08 71.08 48 71.19 47.77C71.3 47.54 71.19 47.32 71.04 47.12C70.9245 46.9034 70.7977 46.6932 70.66 46.49L70.34 46L69.71 45.21L68.42 43.6L65.77 40.35C63.0547 37.0144 60.5242 33.5325 58.19 29.92C57.29 28.5 56.37 27.1 55.54 25.6C54.7112 24.0655 54.041 22.4505 53.54 20.78C53.315 20.0191 53.1413 19.2441 53.02 18.46C52.9575 17.8248 52.9575 17.1851 53.02 16.55C53.1031 16.0966 53.262 15.6605 53.49 15.26C53.7699 14.6774 54.2645 14.2258 54.87 14C55.0998 13.8873 55.3413 13.8001 55.59 13.74C56.33 13.63 56.81 14.82 57.59 16.41C58.3023 18.893 59.3881 21.2533 60.81 23.41C62.1441 25.8553 63.6373 28.2104 65.28 30.46C67.78 33.95 70.56 37.35 73.49 40.88L73.37 41Z" fill="currentColor"/>
<path d="M68.62 35.24C69.87 37.16 71.23 39 72.62 40.82C73.35 41.71 74.08 42.61 74.84 43.49L76 44.8L76.41 45.25L76.98 45.85L78.16 47L79.28 49.23C79.3274 50.0788 79.0918 50.9194 78.61 51.62C78.0517 52.4117 77.4004 53.1336 76.67 53.77L75.59 54.77L74.93 55.33C73.18 56.78 71.44 58.16 69.71 59.55C67.09 61.66 64.6 63.89 62.05 66.05C58.87 68.73 55.76 71.49 52.78 74.37C51.29 75.81 49.78 77.27 48.42 78.78C47.71 79.53 47.01 80.29 46.33 81.07L45.8 81.67L44.98 82.67L43.4 84.67C43.0278 85.0967 42.5928 85.4642 42.11 85.76C41.9365 85.8912 41.7444 85.9957 41.54 86.07L41.01 86.31C40.8943 86.3557 40.7657 86.3557 40.65 86.31C40.5349 86.2722 40.4242 86.2219 40.32 86.16C40.1296 86.0413 39.949 85.9076 39.78 85.76C39.3972 85.4114 39.061 85.0148 38.78 84.58C38.1472 83.4398 37.6184 82.245 37.2 81.01L36.64 79.43L36.2 78.2C34.47 73.2 32.7 68.2 30.6 63.52C29.2687 60.5001 27.7663 57.5587 26.1 54.71C24.5717 51.9188 22.6107 49.3874 20.29 47.21C19.56 46.62 19.29 46.21 19.48 45.95C19.67 45.69 20.3 45.5 21.32 45.68C22.6762 45.9767 23.952 46.5635 25.06 47.4C26.5921 48.4906 27.9249 49.837 29 51.38C32.4878 56.7907 35.413 62.544 37.73 68.55C38.93 71.48 40.03 74.44 41.03 77.39L41.22 77.93L41.32 78.21C41.32 78.29 41.32 78.21 41.32 78.28V78.41C41.3319 78.5312 41.3519 78.6515 41.38 78.77L41.44 78.99C41.44 79.07 41.53 79.16 41.56 79.1L41.82 78.91L42.1 78.69L42.19 78.62L42.31 78.49L42.47 78.31L43.12 77.6C48.9289 71.2721 55.0957 65.2822 61.59 59.66C64.09 57.52 66.59 55.44 69.13 53.37L71 51.82L72.43 50.6C72.6907 50.3961 72.9287 50.1647 73.14 49.91C73.1978 49.8493 73.2361 49.7726 73.25 49.69C73.25 49.61 73.16 49.56 73.12 49.5L72.79 49.14L70.55 46.67C69.62 45.58 68.67 44.51 67.79 43.39C64.0635 38.8086 60.9412 33.7673 58.5 28.39C57.62 26.39 56.8 24.39 56.12 22.32L55.6 20.78L55.17 19.34C55.01 18.78 54.87 18.21 54.72 17.63C54.57 17.05 54.44 16.39 54.29 15.76C54.24 15.62 54.29 15.41 54.13 15.33C53.97 15.25 53.86 15.48 53.76 15.58C53.66 15.68 53.36 16.07 53.17 16.32L52.07 17.86L51.51 18.62L50.58 19.86C48.5263 22.6117 46.2807 25.2149 43.86 27.65C41.3868 30.1504 38.5722 32.2882 35.5 34C34.1156 34.7712 32.6585 35.4043 31.15 35.89C29.9506 36.2693 28.7187 36.5371 27.47 36.69C26.6046 36.7564 25.7344 36.7127 24.88 36.56C23.8485 36.447 22.8842 35.993 22.14 35.27C21.8661 35.0268 21.6151 34.759 21.39 34.47C20.92 33.6 23.21 33.11 26.61 31.78C29.169 30.9655 31.6073 29.8119 33.86 28.35C36.2008 26.8549 38.3734 25.1115 40.34 23.15C42.4011 21.1065 44.3127 18.9175 46.06 16.6C46.56 15.94 46.75 15.7 47.88 14.15C48.8 12.9 49.7 11.57 50.63 10.36C50.86 10.05 51.09 9.78997 51.33 9.50997C51.57 9.22997 51.8 9.02997 52.03 8.82997C52.4231 8.48986 52.8646 8.21013 53.34 7.99997C53.7044 7.8668 54.084 7.77946 54.47 7.73997C54.8614 7.70797 55.2553 7.73154 55.64 7.80997L55.9 7.87997C55.9697 7.91848 56.0365 7.96193 56.1 8.00997L56.5 8.29997L57.3 8.88997L58.1 9.47997C58.24 9.47997 58.35 9.90997 58.47 10.17L58.82 11.04C59.32 13.04 59.76 15.04 60.33 16.94L60.87 18.72C61 19.17 61.17 19.61 61.32 20.06C61.61 20.95 61.92 21.83 62.32 22.7C62.72 23.57 63.01 24.45 63.38 25.3C64.8764 28.7376 66.684 32.0313 68.78 35.14L68.62 35.24Z" fill="currentColor"/>
</svg>
