<svg width="96" height="96" viewBox="0 0 96 96" fill="none" xmlns="http://www.w3.org/2000/svg">
<path d="M51.58 41C50.5015 41.331 49.3485 41.331 48.27 41C48.0275 40.93 47.8054 40.8025 47.6226 40.6285C47.4398 40.4544 47.3017 40.2388 47.22 40C46.517 37.7692 46.1069 35.4565 46 33.12C45.86 31.12 46.55 29.3 46.83 27.42C47.1 25.8 47.39 24.18 47.74 22.56C47.91 21.75 48.09 20.95 48.31 20.15C48.4922 19.3391 48.7158 18.538 48.98 17.75C49.33 16.83 49.78 15.94 50.14 15.03C50.31 14.59 50.42 14.13 50.58 13.68L50.81 13L51.14 12.37C51.22 12.23 51.14 12.03 51.43 11.97C52.08 11.82 53.66 12.47 54.73 13.26C54.97 13.45 55.39 13.71 55.38 13.78C55.17 14.44 57.28 15.92 56.98 16.51C56.47 17.66 56.72 19.09 56.71 20.39C56.6443 20.887 56.4812 21.3661 56.23 21.8C55.92 22.37 55.38 22.88 55.09 23.47C54.6674 24.5135 54.3329 25.5906 54.09 26.69C53.6462 28.5352 53.3123 30.4052 53.09 32.29C52.73 34.29 52.49 36.19 52.38 37.62C52.27 39.05 52.31 39.93 52.29 39.99C52.2223 40.1621 52.1202 40.3186 51.99 40.45C51.8312 40.6157 51.6935 40.8005 51.58 41Z" fill="currentColor"/>
<path d="M45 82.46C42 82.73 41.06 82.18 40.81 81.59C40.3332 80.5947 39.9223 79.5692 39.58 78.52C39.3994 78.0229 39.2492 77.5153 39.13 77C39.07 76.48 39.01 76 39 75.44C39.0563 73.6931 39.257 71.9538 39.6 70.24C39.7297 68.7717 39.9467 67.3125 40.25 65.87C40.55 64.44 40.84 63.02 41.25 61.62C41.55 60.81 41.9 60.02 42.15 59.2C42.2433 58.7852 42.3842 58.3825 42.57 58L42.84 57.44C42.8759 57.3407 42.9302 57.2491 43 57.17L43.28 56.93C43.41 56.83 43.47 56.69 43.72 56.63C44.6038 56.507 45.5027 56.6981 46.26 57.17C46.44 57.28 46.78 57.44 46.78 57.51C46.7 58.12 48.73 59.18 48.72 59.83C48.6887 60.4409 48.7122 61.0533 48.79 61.66C48.9 62.28 49.06 62.92 49.13 63.53C49.1568 63.9957 49.0639 64.4605 48.86 64.88C48.61 65.43 48.17 65.88 47.92 66.49C47.6302 67.474 47.4064 68.4762 47.25 69.49C46.8839 71.1411 46.6035 72.8099 46.41 74.49C46.32 75.36 46.24 76.22 46.21 77.01C46.18 77.8 45.98 78.54 45.92 79.17C45.86 79.8 45.81 80.33 45.79 80.7C45.77 81.07 45.79 81.31 45.79 81.35C45.5544 81.739 45.2903 82.11 45 82.46Z" fill="currentColor"/>
<path d="M81.57 53.56C80.81 54.36 80.32 54.98 79.98 55.38C79.7639 55.6872 79.4707 55.932 79.13 56.09C78.7425 56.2413 78.3403 56.3519 77.93 56.42L76.66 56.72C75.79 56.93 74.91 57.13 74 57.31C73.615 57.3917 73.2234 57.4385 72.83 57.45C72.44 57.45 72.04 57.45 71.64 57.4C70.84 57.4 70.03 57.27 69.21 57.27C67.81 57.27 66.38 57.27 64.92 57.27C63.4402 57.155 61.9679 56.958 60.51 56.68C59.63 56.47 58.78 56.25 57.88 56.02C57.47 55.87 57.05 55.76 56.62 55.64C56.19 55.52 55.77 55.35 55.36 55.18C55.22 55.18 55.02 55.18 54.96 54.96C54.79 54.34 55.43 52.63 56.17 51.43C56.34 51.16 56.59 50.69 56.65 50.7C57.24 50.83 58.49 48.58 59 48.7C59.5203 48.7799 60.0497 48.7799 60.57 48.7C61.12 48.61 61.67 48.46 62.19 48.42C62.6061 48.3824 63.025 48.4477 63.41 48.61C63.9 48.84 64.41 49.24 64.93 49.44C65.8668 49.6839 66.8189 49.8643 67.78 49.98C69.21 50.17 71.02 50.31 72.85 50.44C74.68 50.57 76.51 50.96 77.99 51.27C78.34 51.34 78.69 51.43 78.99 51.52C79.2765 51.5691 79.5533 51.6636 79.81 51.8C80.29 52.06 80.56 52.23 80.61 52.26C80.9825 52.652 81.305 53.0886 81.57 53.56Z" fill="currentColor"/>
<path d="M15.08 45.3299C15.125 44.5281 15.3077 43.7399 15.62 42.9999C15.7836 42.6025 16.0759 42.2716 16.45 42.0599C16.9173 41.8176 17.4151 41.6393 17.93 41.5299L19.42 41.1599C20.4098 40.9347 21.4113 40.7645 22.42 40.6499C23.2682 40.5576 24.1257 40.6014 24.96 40.7799C25.79 40.9199 26.62 41.0899 27.46 41.1899C28.9 41.3599 30.35 41.5699 31.8 41.7899C33.2463 42.0958 34.6751 42.4797 36.08 42.9399L38.58 43.8499C38.96 44.0299 39.36 44.1899 39.76 44.3399C40.16 44.4899 40.56 44.6799 40.95 44.8699C41.08 44.9299 41.27 44.8699 41.31 45.1099C41.43 45.7399 40.69 47.4099 39.87 48.5599C39.69 48.8199 39.41 49.2699 39.35 49.2499C38.76 49.0799 37.35 51.2499 36.79 51.0499C36.2531 50.9217 35.7017 50.8645 35.15 50.8799C34.57 50.8799 33.98 50.9799 33.44 50.9499C33.0068 50.9401 32.5834 50.8196 32.21 50.5999C31.72 50.3099 31.27 49.8499 30.76 49.5999C29.8661 49.2093 28.9433 48.8884 28 48.6399C26.3878 48.2248 24.7557 47.8911 23.11 47.6399C21.38 47.2599 19.68 46.8999 18.39 46.7199C17.8633 46.6684 17.3417 46.5748 16.83 46.4399C16.6028 46.3712 16.3792 46.2911 16.16 46.1999C15.83 45.9999 15.56 45.6599 15.08 45.3299Z" fill="currentColor"/>
</svg>
