<svg width="96" height="96" viewBox="0 0 96 96" fill="none" xmlns="http://www.w3.org/2000/svg">
<path d="M39.07 42.15C42.66 42.15 46.53 41.61 50.63 41.38C52.7409 41.2352 54.8591 41.2352 56.97 41.38C58.0668 41.4609 59.1584 41.6011 60.24 41.8L61.06 41.95C61.35 42.03 61.64 42.09 61.93 42.18C62.5032 42.3317 63.0674 42.5153 63.62 42.73C66.8731 43.8973 69.7415 45.9387 71.91 48.63C72.8795 49.9062 73.6204 51.3408 74.1 52.87C74.5974 54.4565 74.7341 56.134 74.5 57.78C74.3837 58.5869 74.1894 59.3806 73.92 60.15C73.6289 60.8694 73.2949 61.5706 72.92 62.25C72.1658 63.5119 71.2441 64.6657 70.18 65.68C68.1655 67.5649 65.8547 69.1055 63.34 70.24C60.942 71.3539 58.4399 72.2281 55.87 72.85C51.3834 73.9189 46.7818 74.4295 42.17 74.37C36.3442 74.3494 30.5645 73.3349 25.08 71.37C23.43 70.59 23.75 70.37 25.36 70.13C27.8954 69.8239 30.4556 69.7804 33 70C34.41 70.12 35.82 70.19 37.22 70.22C38.62 70.25 40.01 70.33 41.4 70.32C44.1561 70.3288 46.9084 70.1148 49.63 69.68C52.3186 69.2547 54.9629 68.5853 57.53 67.68C60.0444 66.8037 62.437 65.6107 64.65 64.13C65.886 63.2787 66.9653 62.2197 67.84 61C68.6557 59.9139 69.1666 58.6297 69.32 57.28C69.55 54.79 67.91 52.28 65.55 50.49C64.2458 49.4889 62.7724 48.7302 61.2 48.25C60.82 48.12 60.42 48.07 60.03 47.95C59.64 47.83 59.17 47.8 58.74 47.72C57.8516 47.5907 56.957 47.5073 56.06 47.47C52.2386 47.4226 48.4188 47.6499 44.63 48.15C42.1228 48.4211 39.6017 48.5447 37.08 48.52C35.7651 48.4855 34.4531 48.3787 33.15 48.2C31.6875 47.9715 30.2803 47.473 29 46.73C27.9154 46.1416 26.9717 45.3244 26.2344 44.3349C25.4971 43.3455 24.9838 42.2076 24.73 41C24.3288 38.645 24.8634 36.2264 26.22 34.26C26.7978 33.3974 27.4467 32.5845 28.16 31.83C28.8428 31.1085 29.5638 30.4242 30.32 29.78C31.0654 29.1468 31.8431 28.5527 32.65 28C33.05 27.72 33.45 27.43 33.86 27.17L35.1 26.43C40.2436 23.3361 46.0218 21.4488 52 20.91C53.3294 20.7846 54.6655 20.7445 56 20.79C57.0588 20.8756 58.111 21.0293 59.15 21.25C59.8387 21.4369 60.5083 21.688 61.15 22C61.604 22.2012 62.0065 22.5028 62.3269 22.8822C62.6474 23.2616 62.8775 23.7088 63 24.19C63.1333 24.5893 63.2238 25.0016 63.27 25.42C63.27 26.06 62.72 26.48 61.84 26.68C61.3199 26.7835 60.7902 26.8304 60.26 26.82C59.5744 26.8738 58.8856 26.8738 58.2 26.82C55.9168 26.7335 53.6305 26.8573 51.37 27.19C49.0896 27.5676 46.8451 28.1363 44.66 28.89C42.4927 29.6898 40.4066 30.6944 38.43 31.89C36.5016 33.0022 34.7435 34.3864 33.21 36C32.93 36.27 32.73 36.59 32.47 36.88L32.11 37.32L31.86 37.68C31.5762 38.0604 31.3597 38.4865 31.22 38.94C31.1196 39.208 31.092 39.4979 31.14 39.78C31.1707 40.0392 31.2787 40.2831 31.45 40.48C31.716 40.7909 32.0383 41.0488 32.4 41.24C32.8974 41.492 33.4301 41.6673 33.98 41.76C34.3632 41.8338 34.7506 41.8839 35.14 41.91C35.55 41.97 35.98 41.99 36.41 42.01C37.27 42.07 38.16 42.01 39.06 42.01L39.07 42.15Z" fill="currentColor"/>
<path d="M41.46 57.89C40.96 53.83 40.35 49.77 39.71 45.72C39.48 44.24 39.09 42.79 38.85 41.31C38.06 36.09 37.18 30.87 36.1 25.69C35.6 23.41 35.1 21.11 34.4 18.89C34 17.45 33.52 16.04 33.1 14.61C32.68 13.18 32.3 11.76 32.04 10.28C31.88 9.35004 32.73 9.15005 33.84 9.59005C35.2902 10.1851 36.4545 11.3171 37.09 12.75C38.29 15.65 39.35 18.57 40.25 21.54C41.092 24.5384 41.7203 27.5928 42.13 30.68C42.4046 32.5527 42.7818 34.4088 43.26 36.24C43.69 38.1 44.17 39.96 44.56 41.82C44.95 43.82 45.36 45.93 45.7 47.99L46.7 54.19L47.79 61.84C48.07 63.77 48.33 65.71 48.55 67.65C48.77 69.59 49.04 71.52 49.29 73.45C49.51 74.94 49.8 76.4501 50.05 77.9C50.3495 79.381 50.5731 80.8763 50.72 82.38C50.72 83.05 50.84 83.7 50.85 84.38C50.8829 85.3045 50.7051 86.2244 50.33 87.07C50.0498 87.6048 49.573 88.0099 49 88.2C48.7345 88.3204 48.4604 88.4206 48.18 88.5C47.29 88.68 46.51 87.65 45.99 85.96C44.3 80.96 43.84 75.59 43.06 70.14C42.5 66.14 42 62 41.34 57.92L41.46 57.89Z" fill="currentColor"/>
<path d="M56.42 37.22C56.5066 41.12 56.69 45.0234 56.97 48.93C57.06 50.35 57.36 51.75 57.46 53.17C57.63 55.68 57.9 58.17 58.1 60.7C58.3 63.23 58.53 65.7 58.88 68.22C59.1881 70.43 59.6086 72.6229 60.14 74.79C60.45 76.17 60.89 77.52 61.22 78.9C61.5408 80.2883 61.7812 81.694 61.94 83.11C62.02 84 61.22 84.11 60.17 83.67C58.7962 83.0353 57.7036 81.9178 57.1 80.53C55.2471 74.8435 54.0625 68.9605 53.57 63C53.39 61.22 53.21 59.42 52.93 57.61C52.65 55.8 52.4 54 52.2 52.2C51.79 48.2 51.52 44.2 51.3 40.2C51.21 38.97 51.19 37.73 51.14 36.5C51.09 35.27 51 34.06 51 32.83C50.93 29.1 51 25.35 51 21.63C51 20.19 51 18.76 51 17.32C51 15.88 51 14.46 51.1 13C51.1 12.37 51.15 11.74 51.22 11.1C51.58 8.71002 52.07 7.98002 53.12 7.70002C53.359 7.62356 53.6029 7.56342 53.85 7.52002C54.63 7.52002 55.1 8.52002 55.13 10.17C55.22 12.63 55.38 15.17 55.56 17.71C55.61 18.98 55.77 20.28 55.84 21.58V23.58L55.94 25.58C56.06 29.46 56.38 33.38 56.52 37.3L56.42 37.22Z" fill="currentColor"/>
</svg>
