<svg width="96" height="96" viewBox="0 0 96 96" fill="none" xmlns="http://www.w3.org/2000/svg">
<path d="M40 30.19C39.82 38.6 37.12 37.3 33.72 39.69C30.32 42.08 23.19 39.46 21.45 35.48C19.71 31.5 23.03 28.11 23.03 28.11C22.36 32.77 26.98 34.24 29.43 34.43C36.15 34.95 37.67 28.84 37.69 23.19L40 30.19Z" fill="currentColor"/>
<path d="M26.66 36.57C27.799 37.3753 29.1405 37.8461 30.5329 37.9291C31.9254 38.0122 33.3133 37.7042 34.54 37.04C35.3921 36.449 36.1109 35.6859 36.65 34.8C38.85 31.97 37.71 26.99 35.65 22.71C34.6987 20.773 33.6127 18.9051 32.4 17.12L30 13.67C29.6 13.08 29.22 12.49 28.85 11.88C28.492 11.2382 28.1844 10.5695 27.93 9.88C27.61 9.02 28.09 8.88 29.05 9.11C29.6581 9.26721 30.2532 9.47115 30.83 9.72C31.5203 10.0575 32.1358 10.5302 32.64 11.11C34.5794 13.3324 36.3827 15.67 38.04 18.11C39.7436 20.729 40.9944 23.6159 41.74 26.65C42.264 28.662 42.4498 30.7471 42.29 32.82C42.1681 33.9447 41.8747 35.0441 41.42 36.08C40.9745 37.0813 40.3886 38.014 39.68 38.85C38.1052 40.7046 35.9721 41.9992 33.6 42.54C31.3149 43.0431 28.9358 42.9117 26.72 42.16C23.9767 41.2586 21.6692 39.3648 20.25 36.85C19.2177 34.9078 18.8489 32.6813 19.2 30.51C19.5978 28.5482 20.3032 26.6616 21.29 24.92C22.63 22.34 23.91 19.82 24.85 17.45C25.02 16.94 25.2 16.45 25.32 15.95C25.38 15.73 25.46 15.53 25.52 15.36C25.55 15.2097 25.5935 15.0624 25.65 14.92C25.7354 14.7095 25.8535 14.5137 26 14.34C26.4099 13.9821 26.8854 13.707 27.4 13.53C27.72 13.39 28.03 13.18 28.34 13.04C28.5938 12.9021 28.8886 12.8596 29.171 12.9202C29.4535 12.9807 29.7049 13.1402 29.88 13.37C30.1658 13.676 30.3659 14.052 30.46 14.46C30.6066 14.9593 30.6575 15.4818 30.61 16C30.4728 17.5234 30.0842 19.0136 29.46 20.41C28.9423 21.6572 28.3513 22.8727 27.69 24.05C26.4942 26.0298 25.4609 28.1033 24.6 30.25C24.1736 31.3648 24.1534 32.5941 24.5429 33.7224C24.9324 34.8506 25.7067 35.8056 26.73 36.42L26.66 36.57Z" fill="currentColor"/>
<path d="M72.76 48.9C72.3 54.24 69.19 57.03 64.43 56.26C63.4905 56.1245 62.5905 55.7912 61.7894 55.2821C60.9883 54.773 60.3043 54.0998 59.7825 53.3068C59.2608 52.5138 58.9133 51.6192 58.7629 50.682C58.6125 49.7448 58.6626 48.7864 58.91 47.87C58.91 47.87 55.43 58.87 62.35 62.2C69.27 65.53 72.58 62.08 74.7 57C75.2999 55.6223 75.4351 54.0868 75.0851 52.6254C74.7351 51.1641 73.919 49.8564 72.76 48.9Z" fill="currentColor"/>
<path d="M73.41 63.05C71.5968 64.1355 69.5233 64.7092 67.41 64.71C66.409 64.8244 65.396 64.7771 64.41 64.57C63.3873 64.3788 62.3972 64.0421 61.47 63.57C60.0809 62.8825 58.8617 61.8955 57.9 60.68C57.0846 59.6403 56.5139 58.4304 56.23 57.14C55.9348 55.9382 55.7738 54.7073 55.75 53.47C55.7874 51.1386 56.1889 48.8274 56.94 46.62C57.5798 44.7503 58.338 42.9233 59.21 41.15C60.1782 38.8415 61.6669 36.788 63.56 35.15C64.17 34.64 64.78 35.32 65.12 36.41C65.5462 37.6112 65.5033 38.929 65 40.1C63.8513 41.977 62.8483 43.9394 62 45.97C61.239 47.9334 60.686 49.9712 60.35 52.05C60.2652 52.6637 60.2652 53.2862 60.35 53.9C60.35 54.21 60.42 54.52 60.47 54.82L60.74 55.67C60.86 56.28 61.28 56.67 61.43 57.27C61.692 57.7645 62 58.2333 62.35 58.67C63.1197 59.6898 64.2011 60.4306 65.43 60.78C66.0729 61.0083 66.748 61.1332 67.43 61.15C68.118 61.0728 68.7915 60.8977 69.43 60.63C70.9688 60.0175 72.2022 58.82 72.86 57.3C73.0936 56.7373 73.2484 56.145 73.32 55.54C73.3552 54.9252 73.325 54.3084 73.23 53.7C73.0224 52.463 72.4146 51.3283 71.5 50.47C70.6489 49.6888 69.7506 48.9608 68.81 48.29C67.7335 47.481 66.7861 46.5133 66 45.42C65.6113 44.9305 65.276 44.4008 65 43.84C64.8058 43.3936 64.6746 42.9225 64.61 42.44C64.6033 42.0961 64.6716 41.7549 64.81 41.44C65.0102 40.9456 65.3598 40.526 65.81 40.24C65.9771 40.0989 66.158 39.9749 66.35 39.87C66.92 39.58 67.7 40.31 68.85 41.15C69.3722 41.8154 69.951 42.4344 70.58 43C71.15 43.57 71.88 44 72.58 44.66C73.4823 45.3921 74.3436 46.1733 75.16 47C76.2483 48.1158 77.0958 49.4432 77.65 50.9L77.95 51.77L78.13 52.64C78.2487 53.2158 78.309 53.8021 78.31 54.39C78.294 54.9799 78.2372 55.568 78.14 56.15C78.0386 56.736 77.8847 57.3116 77.68 57.87C76.893 60.046 75.4186 61.9065 73.48 63.17L73.41 63.05Z" fill="currentColor"/>
<path d="M42.31 77.24C39.62 80.14 37.86 81 36 80.91C29.41 80.48 29.48 70.91 31.47 70.71C31.47 70.71 27.38 71.34 26.21 76.8C25.04 82.26 29.62 87.17 33.09 87.1C36.56 87.03 39.36 87.1 41.75 81.53L42.31 77.24Z" fill="currentColor"/>
<path d="M38.42 89C36.7213 89.5409 34.9227 89.6932 33.1573 89.4457C31.3918 89.1982 29.7045 88.5572 28.22 87.57C27.7184 87.2275 27.2497 86.8392 26.82 86.41C26.61 86.19 26.38 85.97 26.2 85.75L25.7 85.11C24.6336 83.7999 23.8963 82.2534 23.55 80.6C23.3073 79.0975 23.4238 77.5588 23.89 76.11C24.3131 74.8226 24.9266 73.6058 25.71 72.5C27.1448 70.5505 28.7916 68.7663 30.62 67.18C32.15 65.8 33.62 64.4 34.99 63C35.88 62.1 36.7 61.16 37.49 60.27L38.07 59.62L38.69 59.04L39.85 57.95C40.25 57.57 41.32 57.81 42.04 59C42.4458 59.7191 42.6464 60.5357 42.6199 61.361C42.5935 62.1862 42.341 62.9884 41.89 63.68C40.0681 65.6601 38.1172 67.5175 36.05 69.24C34.12 70.9 32.25 72.47 30.61 74.12C29.6999 75.0411 29.0154 76.1603 28.61 77.39C28.2894 78.4419 28.3246 79.5701 28.71 80.6C28.8097 80.9075 28.9439 81.2027 29.11 81.48C29.2656 81.7866 29.4498 82.0779 29.66 82.35C29.8408 82.6144 30.0449 82.8621 30.27 83.09C30.4886 83.3074 30.7262 83.5049 30.98 83.68C32.1354 84.3659 33.4876 84.6441 34.82 84.47C35.6754 84.3929 36.5093 84.159 37.28 83.78C38.0495 83.4388 38.7329 82.9297 39.28 82.29C39.48 82.06 39.6 81.79 39.78 81.55C39.96 81.31 40 81 40 80.68C40 80.36 40.2 80.06 40.24 79.74C40.28 79.42 40.35 79.1 40.35 78.74C40.3653 77.3212 40.1353 75.9104 39.67 74.57C39.31 73.44 38.76 72.28 38.24 71.04C37.6607 69.75 37.2442 68.3929 37 67C36.8845 66.3399 36.8376 65.6697 36.86 65C36.84 64.5228 36.9185 64.0465 37.0905 63.601C37.2626 63.1554 37.5245 62.75 37.86 62.41C38.1102 62.1888 38.4078 62.028 38.73 61.94C39.0904 61.8559 39.4601 61.819 39.83 61.83C40.163 61.808 40.497 61.808 40.83 61.83C41.71 61.95 42.72 63.18 43.18 64.35C43.4076 65.185 43.7088 65.9982 44.08 66.78C44.38 67.6 44.66 68.44 45.08 69.42C45.5 70.4 45.84 71.42 46.22 72.75C46.6799 74.1718 46.9522 75.6476 47.03 77.14C47.0313 78.4238 46.8598 79.702 46.52 80.94C46.3281 81.5578 46.1045 82.1652 45.85 82.76C45.5686 83.397 45.234 84.0091 44.85 84.59C44.4425 85.1422 43.9911 85.6606 43.5 86.14C43.041 86.6155 42.5389 87.0474 42 87.43C40.9867 88.164 39.8625 88.7312 38.67 89.11L38.42 89Z" fill="currentColor"/>
</svg>
