<svg width="96" height="96" viewBox="0 0 96 96" fill="none" xmlns="http://www.w3.org/2000/svg">
<path d="M67.32 51.26C67.3534 51.242 67.3814 51.2153 67.4009 51.1827C67.4203 51.1502 67.4306 51.1129 67.4306 51.075C67.4306 51.037 67.4203 50.9998 67.4009 50.9672C67.3814 50.9346 67.3534 50.9079 67.32 50.89C67.2578 50.8126 67.1874 50.7422 67.11 50.68H67.04L67 50.55L66.56 50.3L65.64 49.82C65.02 49.51 64.39 49.21 63.73 48.91L61.61 48L57.61 46C55.69 45 53.71 44.13 51.81 43.09C48.46 41.26 45.15 39.35 41.92 37.22C41.12 36.68 40.32 36.13 39.53 35.55C39.13 35.26 38.74 34.96 38.35 34.66L37.77 34.19L37 33.46C35.9626 32.6164 35.143 31.5362 34.61 30.31C34.3922 29.7818 34.3298 29.2024 34.43 28.64C34.5632 28.0481 34.9219 27.5315 35.43 27.2C36.3623 26.6715 37.4317 26.4346 38.5 26.52C39.1 26.52 39.75 26.61 40.36 26.68C40.64 26.68 41.01 26.76 41.23 26.81L41.86 26.93C43.55 27.26 45.19 27.63 46.86 28C48.95 28.47 51.03 28.91 53.1 29.34C55.1217 29.8456 57.1769 30.2066 59.25 30.42C60.47 30.42 60.46 30.81 59.33 31.42C57.4366 32.2209 55.3808 32.5635 53.33 32.42C51.09 32.22 48.9 31.89 46.74 31.57L43.52 31.08L41.93 30.86L40.51 30.68C40.36 30.68 40.37 30.61 40.23 30.57C40.09 30.53 39.92 30.57 39.93 30.7C39.9357 30.8382 39.9847 30.9711 40.07 31.08V31.14L40.21 31.27L40.8 31.76C41.2 32.09 41.61 32.41 42.03 32.76C46.09 35.84 51.03 38.21 55.79 40.65C58.38 41.98 61.09 43.33 63.66 44.55C64.98 45.14 66.4 45.75 67.77 46.45L70.25 47.77C71.2185 48.3038 72.0769 49.0164 72.78 49.87C73.1383 50.3161 73.4036 50.8295 73.56 51.38C73.7347 51.9434 73.7347 52.5465 73.56 53.11C73.3667 53.677 73.0543 54.1962 72.6438 54.6325C72.2333 55.0689 71.7342 55.4124 71.18 55.64C69.9862 56.0969 68.6996 56.2582 67.43 56.11L66.43 56L65.71 55.91L64.55 55.76C63.8114 55.6662 63.0617 55.7987 62.4 56.14C62.2235 56.2147 62.0763 56.345 61.9806 56.511C61.885 56.6771 61.8461 56.8698 61.87 57.06C61.9466 57.4332 62.1228 57.7788 62.38 58.06C62.6243 58.3575 62.8954 58.632 63.19 58.88C63.54 59.19 64.13 59.65 64.64 60.03C65.71 60.81 66.84 61.55 67.99 62.25C71.58 64.41 75.4 66.08 79.2 67.88C80.04 68.28 80.89 68.63 81.72 69.06C82.55 69.49 83.13 69.81 83.65 70.14C84.0779 70.4262 84.4706 70.7619 84.82 71.14C85.3218 71.6553 85.6111 72.3409 85.63 73.06C85.6597 73.3626 85.6597 73.6674 85.63 73.97C85.44 74.83 83.92 74.75 81.49 73.97C78.03 72.56 74.49 70.97 70.91 69.2C69.14 68.2999 67.36 67.34 65.59 66.28C64.71 65.76 63.83 65.2 62.95 64.61C62.5 64.32 62.06 64.01 61.62 63.69L61 63.24L60.27 62.66L59.95 62.38L59.51 62C59.22 61.76 58.97 61.5 58.71 61.24C58.2153 60.7416 57.7668 60.1993 57.37 59.62C56.6573 58.6089 56.286 57.3967 56.31 56.16C56.3871 54.9639 56.9035 53.8385 57.76 53C58.7174 52.1274 59.8803 51.5116 61.14 51.21C61.47 51.11 61.82 51.05 62.14 50.97C62.46 50.89 62.84 50.89 63.19 50.84C63.54 50.79 63.92 50.84 64.28 50.84C64.64 50.84 64.89 50.89 65.2 50.91C65.51 50.93 65.7 50.97 65.89 51L66.46 51.09L66.89 51.16C66.9258 51.1776 66.9651 51.1868 67.005 51.1868C67.0449 51.1868 67.0842 51.1776 67.12 51.16L67.32 51.26Z" fill="currentColor"/>
<path d="M43.74 49.72C43.85 49.72 44.01 49.72 44.03 49.56C44.03 49.496 44.0167 49.4327 43.9909 49.3742C43.965 49.3156 43.9273 49.2631 43.88 49.22L43.81 49.14L43.3 48.74C42.9 48.43 42.49 48.13 42.05 47.83C41.19 47.23 40.28 46.64 39.35 46.07C35.63 43.79 31.69 41.66 27.77 39.46C24.9 37.86 21.97 36.34 19.15 34.55C16.5729 32.9798 14.146 31.1755 11.9 29.16C10.5873 28.0436 9.50098 26.6857 8.7 25.16C8.19717 24.1341 8.03597 22.9741 8.24 21.85C8.46377 20.7212 9.03348 19.6902 9.87 18.9C11.1899 17.704 12.7887 16.8582 14.52 16.44C16.0368 16.0328 17.5918 15.7848 19.16 15.7C22.1311 15.537 25.1105 15.6106 28.07 15.92C30.66 16.2 33.23 16.55 35.78 16.92C38.33 17.29 40.87 17.73 43.37 18.23C46.58 18.85 49.79 19.49 52.97 20.23C54.56 20.57 56.15 20.9 57.73 21.23C59.31 21.56 60.89 21.98 62.44 22.23C63.44 22.36 63.79 22.4 63.8 22.57C63.81 22.74 63.34 23 62.44 23.21C61.2245 23.4702 59.9909 23.6374 58.75 23.71C57.98 23.71 57.15 23.81 56.28 23.8C55.41 23.79 54.5 23.71 53.56 23.61L43.65 22.42L38.73 21.85C37.1 21.61 35.48 21.4 33.85 21.2C30.61 20.79 27.38 20.54 24.19 20.29C21.1796 20.0062 18.1434 20.1918 15.19 20.84C14.8201 20.949 14.459 21.086 14.11 21.25L13.62 21.49L13.23 21.77C13.0035 21.9107 12.8066 22.0941 12.65 22.31C12.5596 22.4263 12.501 22.5642 12.48 22.71C12.4635 23.2565 12.6406 23.7913 12.98 24.22C13.4556 24.9619 14.031 25.6349 14.69 26.22C17.7681 28.732 21.0761 30.9485 24.57 32.84C28.43 35.08 32.4 37.2 36.37 39.4C38.37 40.5 40.37 41.63 42.29 42.84C43.29 43.45 44.29 44.08 45.21 44.77L45.94 45.3L46.29 45.57C46.41 45.67 46.52 45.74 46.7 45.9C47.3687 46.4407 47.9847 47.0434 48.54 47.7C49.1473 48.4268 49.5357 49.3111 49.66 50.25C49.6899 50.4824 49.6899 50.7176 49.66 50.95C49.5879 51.6494 49.2772 52.3027 48.78 52.8C48.0631 53.4428 47.1727 53.8602 46.22 54L45.48 54.13H44.7C44.4402 54.145 44.1798 54.145 43.92 54.13H43.22C40.28 53.95 37.53 53.52 34.81 53.23C34 53.13 33.2 53.06 32.41 53H31.3C31.09 53 30.87 53 30.65 53C30.1998 52.9979 29.7516 53.0619 29.32 53.19C29.0907 53.247 28.8848 53.3738 28.7307 53.553C28.5766 53.7321 28.482 53.9547 28.46 54.19C28.4477 54.3709 28.4714 54.5524 28.5298 54.7241C28.5881 54.8957 28.68 55.0541 28.8 55.19C29.0106 55.4756 29.2521 55.7372 29.52 55.97L29.93 56.32L30.14 56.49L30.5 56.75C30.98 57.11 31.5 57.45 32 57.75C34.1 59.06 36.31 60.26 38.54 61.4C41.42 62.86 44.34 64.18 47.27 65.49C50.2 66.8 53.16 68.08 56.06 69.55C57.34 70.19 58.62 70.78 59.89 71.49C61.6166 72.3667 63.1983 73.5033 64.58 74.86C64.9518 75.2142 65.2494 75.6389 65.4554 76.1094C65.6614 76.5798 65.7718 77.0865 65.78 77.6C65.8304 78.0185 65.8304 78.4415 65.78 78.86C65.44 80.08 63.28 79.52 59.89 77.93C54.89 75.46 49.56 73.12 44.27 70.37C41.62 69.02 38.93 67.63 36.27 66.15C33.4869 64.6436 30.7833 62.9947 28.17 61.21L27.44 60.7L27 60.26L26.39 59.76C26 59.41 25.54 59.1 25.2 58.76L24.2 57.65L23.41 56.47C23.19 56.07 23.07 55.66 22.89 55.26C22.7506 54.8515 22.6567 54.429 22.61 54V52.71L22.68 52.45C22.7261 52.3734 22.7567 52.2884 22.77 52.2L22.94 51.7C23.0683 51.3733 23.2256 51.0587 23.41 50.76C23.5863 50.4657 23.8016 50.1966 24.05 49.96C24.2781 49.7087 24.5368 49.487 24.82 49.3C26.1346 48.4764 27.649 48.027 29.2 48C29.63 48 30.06 48 30.48 48L31.69 48.05L33.11 48.19C34.04 48.3 34.92 48.44 35.8 48.57L40.88 49.41C41.7 49.5 42.5 49.58 43.26 49.62H43.54H43.64L43.74 49.72Z" fill="currentColor"/>
</svg>
