<svg width="96" height="96" viewBox="0 0 96 96" fill="none" xmlns="http://www.w3.org/2000/svg">
<path d="M70.25 63.25C68.5248 64.1046 66.8549 65.0665 65.25 66.13C64.68 66.54 64.16 66.99 63.61 67.41C61.6352 68.8341 59.8885 70.5504 58.43 72.5C57.8379 73.3804 57.3575 74.331 57 75.33C56.73 75.96 56.63 76.63 56.36 77.26C56.25 77.59 56.13 77.91 56.01 78.26C55.89 78.61 55.8 78.93 55.67 79.26C55.54 79.59 55.22 79.6 54.89 79.18C54.4279 78.5591 54.182 77.8039 54.19 77.03C54.2143 76.2262 54.3836 75.4335 54.69 74.69L55.13 73.58L55.67 72.51C56.4366 71.1313 57.4038 69.8743 58.54 68.78C59.87 67.48 61.15 66.08 62.61 64.91C64.2099 63.66 65.8792 62.5014 67.61 61.44C68.61 60.78 69.73 60.17 70.8 59.55C72.4 58.55 74.08 57.8 75.63 56.83C76.7785 56.0636 77.8774 55.2253 78.92 54.32L79.54 53.74C80.33 53.07 80.54 53.03 81.36 53.34C81.54 53.41 81.73 53.46 81.9 53.54C82.0398 53.5968 82.1598 53.6934 82.2452 53.8179C82.3305 53.9423 82.3774 54.0891 82.38 54.24C82.3854 54.6705 82.2443 55.0901 81.98 55.43C81.1309 56.5703 80.1203 57.5809 78.98 58.43C77.8712 59.2055 76.723 59.9231 75.54 60.58C73.83 61.58 72.05 62.42 70.34 63.36L70.25 63.25Z" fill="currentColor"/>
<path d="M79.15 28.72C78.97 28.47 78.8 28.22 78.61 27.98L78 27.31L76.73 26L75.32 24.78L74.62 24.16L73.86 23.61L72.32 22.51C71.79 22.17 71.23 21.87 70.68 21.51C69.5786 20.8601 68.4362 20.2822 67.26 19.78C62.4257 17.7886 57.2906 16.6257 52.07 16.34C48.2416 16.1728 44.4066 16.4445 40.64 17.15C33.9416 18.324 27.5501 20.8412 21.85 24.55C19.0614 26.3778 16.589 28.6475 14.53 31.27C12.5222 33.8473 11.1516 36.8626 10.53 40.07C10.0107 42.8519 10.3238 45.7252 11.43 48.33C12.5504 51.0516 14.1872 53.5306 16.25 55.63C20.3 59.7833 25.311 62.8744 30.84 64.63C31.76 64.9 32.69 65.19 33.63 65.45C34.5788 65.7031 35.5401 65.9067 36.51 66.06C38.93 66.4 38.68 66.67 36.51 67.24C34.9797 67.5983 33.4199 67.8158 31.85 67.89C29.5851 67.9063 27.3347 67.5273 25.2 66.77C23.092 66.0367 21.0566 65.1094 19.12 64C18.12 63.45 17.2 62.84 16.28 62.2C15.3676 61.5145 14.493 60.7801 13.66 60C10.1245 56.8962 7.43978 52.9414 5.86 48.51C5.06044 46.1303 4.7675 43.6097 5 41.11C5.14274 39.8974 5.37674 38.6974 5.7 37.52L5.91 36.66L6.22 35.82L6.85 34.16C8.72383 29.9183 11.6037 26.1975 15.24 23.32C19.4051 19.9684 24.0416 17.2491 29 15.25C31.472 14.2482 34.0035 13.3999 36.58 12.71L38.58 12.24L40.58 11.88C41.89 11.61 43.23 11.51 44.58 11.35C50.4074 10.8555 56.2763 11.2841 61.97 12.62C64.8192 13.3058 67.5979 14.2567 70.27 15.46C72.9767 16.6477 75.5426 18.1336 77.92 19.89C80.8421 22.1146 83.3647 24.8198 85.38 27.89C87.4536 30.9879 88.8193 34.5046 89.38 38.19C89.8462 41.0218 89.7202 43.9194 89.01 46.7C88.2295 49.4989 86.8626 52.0998 85 54.33C81.38 58.72 76.66 61.52 72.35 64.26C69.1974 66.1435 66.306 68.4331 63.75 71.07C62.5907 72.3143 61.6264 73.727 60.89 75.26C60.74 75.64 60.54 76 60.42 76.39L60.3 76.77C60.24 76.94 60.18 77.1 60.13 77.29C60.0054 77.6755 59.9314 78.0755 59.91 78.48L59.82 79.79V80.46V81.26C59.82 82.36 59.82 83.44 59.96 84.57L59.14 84.73C59.1059 84.7292 59.0721 84.7359 59.041 84.7498C59.0099 84.7636 58.9822 84.7842 58.96 84.81L58.85 84.91L58.63 85.1L58.52 85.19C58.52 85.19 58.45 85.19 58.37 85.19L58.17 85.13C57.89 85.05 57.69 84.95 57.45 84.87C56.5191 84.5244 55.6302 84.0749 54.8 83.53C54.3537 83.2051 53.9295 82.851 53.53 82.47C53.11 82.1 52.72 81.66 52.34 81.29C51.6 80.48 50.92 79.71 50.34 78.97L49.94 78.46L49.7 78.14L49.27 77.52C49 77.13 48.78 76.76 48.59 76.42C48.2678 75.8549 48.0319 75.2448 47.89 74.61C47.7948 74.091 47.7948 73.559 47.89 73.04C47.9281 72.5876 48.0051 72.1393 48.12 71.7C48.35 71.09 49.12 71.2 50.19 71.86C50.8444 72.2644 51.4515 72.7407 52 73.28C52.34 73.59 52.68 73.94 53 74.28L53.55 74.87L53.84 75.18L53.94 75.27C54.2575 75.5616 54.6143 75.8073 55 76C55.12 76 55.25 76.1 55.35 76C55.45 75.9 55.27 75.54 55.25 75.34C55.23 75.14 55.25 75.08 55.25 74.98V74.83C55.25 74.74 55.25 74.83 55.25 74.59C55.7954 72.9661 56.5555 71.4225 57.51 70C59.3063 67.3863 61.4955 65.0656 64 63.12C66.39 61.18 68.86 59.57 71.19 57.99C73.52 56.41 75.76 54.94 77.65 53.32C79.431 51.8938 80.9214 50.1386 82.04 48.15C82.5566 47.1983 82.9658 46.1921 83.26 45.15C83.5464 44.0931 83.7009 43.0049 83.72 41.91C83.7676 39.5799 83.3845 37.261 82.59 35.07C82.1955 33.9438 81.6791 32.864 81.05 31.85C80.73 31.33 80.45 30.79 80.12 30.28L79.01 28.82L79.15 28.72Z" fill="currentColor"/>
<path d="M53.7 42.34C53.836 43.1512 53.7353 43.9845 53.41 44.74C53.2863 45.0706 53.1252 45.3859 52.93 45.68C52.82 45.83 52.75 45.97 52.62 46.12C52.49 46.27 52.33 46.44 52.18 46.58C51.9556 46.8129 51.7038 47.0177 51.43 47.19C51.1574 47.3937 50.8373 47.5245 50.5 47.57C50.0323 47.6507 49.5531 47.6365 49.091 47.5282C48.6289 47.42 48.1933 47.22 47.81 46.94C47.2387 46.5324 46.75 46.02 46.37 45.43C46.0025 44.9409 45.7062 44.4022 45.49 43.83C45.4215 43.6233 45.3648 43.413 45.32 43.2C45.32 42.97 45.32 42.73 45.32 42.49C45.3502 42.2701 45.397 42.0528 45.46 41.84C45.574 41.6372 45.7396 41.4682 45.94 41.35C46.19 41.17 46.75 41.66 47.35 42.13C47.7333 42.4611 48.1786 42.7126 48.66 42.87C48.76 42.74 48.91 42.68 48.94 42.87C48.97 43.06 49.09 43.34 49.19 43.65C49.205 43.7132 49.2372 43.771 49.2831 43.8169C49.329 43.8628 49.3868 43.895 49.45 43.91C49.4404 43.9897 49.4404 44.0703 49.45 44.15C49.4415 44.1828 49.4415 44.2172 49.45 44.25C49.4457 44.2697 49.4457 44.2902 49.45 44.31L49.4 44.25C49.4 44.25 49.3 44 49.31 44C49.3051 43.9735 49.3051 43.9464 49.31 43.92L49.39 43.84L49.44 43.72C49.44 43.64 49.54 43.55 49.53 43.52C49.52 43.49 49.63 43.4 49.6 43.28C49.4967 43.1457 49.3569 43.044 49.1972 42.9872C49.0376 42.9305 48.8649 42.921 48.7 42.96C48.6345 42.9951 48.5739 43.0388 48.52 43.09C48.4921 43.1412 48.4686 43.1947 48.45 43.25C48.4369 43.2118 48.4201 43.175 48.4 43.14C48.3452 43.0478 48.2779 42.9637 48.2 42.89C48.1756 42.8348 48.1378 42.7867 48.09 42.75C48.09 42.75 47.93 42.66 47.97 42.67H48.05C48.1347 42.6962 48.2253 42.6962 48.31 42.67C48.447 42.6534 48.5814 42.6198 48.71 42.57H48.64L48.41 42.68C48.24 42.77 48.04 42.88 47.8 43.03C47.56 43.18 47.36 43.31 47.15 43.45C46.45 43.95 45.66 44.1 45.08 43.45C44.8853 43.0819 44.7567 42.6825 44.7 42.27C44.7025 41.7693 44.801 41.2737 44.99 40.81C45.1944 40.4044 45.461 40.0333 45.78 39.71C46.0418 39.448 46.3378 39.2226 46.66 39.04C47.6771 38.4717 48.8775 38.3279 50 38.64C50.8317 38.8171 51.6075 39.1947 52.26 39.74C53.0448 40.4033 53.5895 41.3064 53.81 42.31L53.7 42.34Z" fill="currentColor"/>
<path d="M36 44.53C36.2935 45.5179 36.2405 46.5763 35.85 47.53C35.4618 48.4299 34.8489 49.2151 34.07 49.81C33.5739 50.2613 32.9876 50.6021 32.35 50.81C32.0752 50.8761 31.7924 50.903 31.51 50.89C31.2141 50.8944 30.9196 50.847 30.64 50.75C30.0209 50.5855 29.4664 50.2368 29.05 49.75C28.4104 49.0287 27.9784 48.1474 27.8 47.2C27.6576 46.4622 27.6239 45.7075 27.7 44.96C27.7075 44.4555 27.846 43.9617 28.102 43.5269C28.3579 43.0921 28.7226 42.7313 29.16 42.48C29.45 42.34 29.74 42.79 30.05 43.33C30.21 43.59 30.38 43.87 30.54 44.09C30.6687 44.2514 30.7857 44.4219 30.89 44.6C31.0107 44.9526 31.1754 45.2885 31.38 45.6C31.38 45.68 31.48 45.75 31.47 45.84C31.4647 45.9266 31.4647 46.0134 31.47 46.1C31.465 46.1866 31.465 46.2734 31.47 46.36V46.61C31.4579 46.6728 31.4579 46.7372 31.47 46.8C31.4402 46.8343 31.4196 46.8756 31.41 46.92C31.3889 46.9684 31.3722 47.0186 31.36 47.07C31.51 46.58 31.36 46.94 31.43 46.83C31.43 46.83 31.51 46.83 31.59 46.83L31.8 46.76C31.9888 46.6969 32.1576 46.5851 32.2893 46.4358C32.421 46.2866 32.5109 46.1052 32.55 45.91C32.5575 45.7572 32.5299 45.6047 32.4692 45.4643C32.4085 45.3239 32.3164 45.1992 32.2 45.1C32.0145 44.9108 31.7849 44.7706 31.5318 44.6921C31.2787 44.6135 31.0101 44.5991 30.75 44.65C30.6572 44.6801 30.5744 44.7352 30.5109 44.8093C30.4474 44.8834 30.4055 44.9736 30.39 45.07V45.17H30.32L30.46 45.23C30.55 45.23 30.56 45.23 30.59 45.33C30.62 45.43 30.69 45.43 30.69 45.48C30.7093 45.5419 30.7093 45.6081 30.69 45.67C30.6167 45.7503 30.5364 45.8239 30.45 45.89C30.1548 46.0914 29.8398 46.2623 29.51 46.4L28.92 46.68C28.6099 46.8333 28.2609 46.8895 27.9183 46.8413C27.5758 46.7932 27.2558 46.6428 27 46.41C26.6337 45.9104 26.4154 45.3178 26.37 44.7C26.3367 44.2923 26.3948 43.8824 26.54 43.5C26.6653 43.1232 26.8438 42.7663 27.07 42.44C27.4893 41.8913 28.0342 41.4514 28.659 41.1573C29.2837 40.8632 29.97 40.7235 30.66 40.75C31.8249 40.7731 32.9604 41.1193 33.94 41.75C34.9133 42.3798 35.6542 43.3104 36.05 44.4L36 44.53Z" fill="currentColor"/>
<path d="M29.33 47.2C29.4062 46.9501 29.4697 46.6964 29.52 46.44C29.52 46.35 29.45 46.31 29.52 46.22C29.6279 45.8918 29.7181 45.558 29.79 45.22C29.7918 45.159 29.7781 45.0986 29.7501 45.0443C29.7221 44.9901 29.6808 44.9439 29.63 44.91C29.5 44.81 29.23 44.8 29.5 44.49C29.77 44.18 32.6 42.79 32.78 43C32.9307 43.1705 33.0188 43.3872 33.0297 43.6145C33.0406 43.8417 32.9737 44.0659 32.84 44.25C32.66 44.57 32.91 44.71 32.94 44.94C32.955 45.1898 32.955 45.4402 32.94 45.69C32.9298 45.8398 32.9298 45.9902 32.94 46.14C32.94 46.36 32.94 46.6 33.04 46.77C33.14 46.94 33.43 46.96 33.64 47.04C33.69 47.04 33.77 47.04 33.8 47.04C33.83 47.04 33.8 47.14 33.6 47.26L33.23 47.44L32.63 47.71L32.11 47.94C31.577 48.184 31.0162 48.362 30.44 48.47C29.66 48.47 29.44 48.19 29.28 47.91C29.2133 47.683 29.1963 47.4442 29.23 47.21L29.33 47.2Z" fill="currentColor"/>
<path d="M69.79 41C69.5751 41.7354 69.2071 42.417 68.71 43C68.4257 43.3365 68.0879 43.6237 67.71 43.85C67.51 43.97 67.32 44.08 67.12 44.18C66.9183 44.2584 66.711 44.3219 66.5 44.37C65.9498 44.5533 65.3663 44.6147 64.79 44.55C64.5069 44.4898 64.2293 44.4061 63.96 44.3C63.7241 44.1831 63.4969 44.0494 63.28 43.9C62.9306 43.6147 62.6271 43.2774 62.38 42.9C61.9889 42.289 61.7143 41.611 61.57 40.9C61.377 40.2897 61.3223 39.6441 61.41 39.01C61.4249 38.7936 61.4249 38.5764 61.41 38.36C61.4669 38.1561 61.5582 37.9633 61.68 37.79C61.97 37.47 62.19 37.12 62.75 37.15C63.0035 37.2045 63.2299 37.346 63.39 37.55L63.79 37.98L64.14 38.38C64.4709 38.7693 64.8586 39.1064 65.29 39.38C65.1946 39.6034 65.1177 39.8341 65.06 40.07C64.99 40.29 65.06 40.33 65.06 40.38C64.9808 40.5075 64.9202 40.6455 64.88 40.79C64.88 40.79 64.88 40.84 64.88 40.87C64.88 40.62 64.82 41.45 64.88 40.3C64.8824 40.34 64.8824 40.3801 64.88 40.42C64.8723 40.4529 64.8723 40.4871 64.88 40.52C64.88 40.52 64.95 40.45 65.02 40.41C65.1635 40.2111 65.2468 39.975 65.26 39.73C65.26 39.33 65.26 38.84 65 38.73C64.74 38.62 64.75 39.01 64.73 39.24C64.73 39.24 64.73 39.38 64.73 39.34C64.73 39.3 64.55 39.27 64.39 39.05C64.23 38.83 64.03 38.54 63.74 38.11L63.35 37.54C63.1284 37.2624 62.9848 36.9309 62.9338 36.5794C62.8828 36.2279 62.9264 35.8691 63.06 35.54C63.1718 35.3141 63.3244 35.1107 63.51 34.94C63.7287 34.7765 63.9716 34.6483 64.23 34.56C64.36 34.56 64.48 34.46 64.62 34.43C64.7832 34.4197 64.9468 34.4197 65.11 34.43C65.4421 34.3895 65.7779 34.3895 66.11 34.43C66.7449 34.5778 67.341 34.8594 67.8584 35.2561C68.3757 35.6527 68.8024 36.1552 69.11 36.73C69.9066 38.0012 70.1891 39.528 69.9 41H69.79Z" fill="currentColor"/>
</svg>
