<svg width="96" height="96" viewBox="0 0 96 96" fill="none" xmlns="http://www.w3.org/2000/svg">
<path d="M82 21.71C82 21.66 82.15 21.65 82.25 21.59C82.35 21.53 82.5 21.45 82.46 21.38C82.42 21.31 82.34 21.11 82.15 20.98C82.0698 20.9338 81.9816 20.9032 81.89 20.89H81.82H81.69C81.5099 20.8405 81.333 20.7804 81.16 20.71C78.658 19.7484 76.0917 18.9631 73.48 18.36C72.3128 18.1187 71.1298 17.9616 69.94 17.89C68.4252 17.8527 66.9178 17.6651 65.44 17.33C64.98 17.18 65.01 16.41 65.44 15.6C65.637 15.153 65.9358 14.7583 66.3126 14.4475C66.6894 14.1367 67.1337 13.9183 67.61 13.81C70.8918 13.4654 74.2089 13.8723 77.31 15C78.2584 15.3134 79.2274 15.5606 80.21 15.74L81.7 16.06L82.44 16.23C82.72 16.3 82.85 16.35 83.31 16.46C84.158 16.6955 84.9898 16.9862 85.8 17.33C86.5154 17.6088 87.1885 17.9857 87.8 18.45C88.2938 18.8434 88.7021 19.3334 89 19.89C89.1593 20.1976 89.2087 20.5504 89.14 20.89C89.04 21.17 88.88 21.42 88.76 21.68C88.6204 21.9401 88.4491 22.1819 88.25 22.4L87.96 22.77C87.8703 22.9135 87.751 23.0363 87.61 23.13C87.16 23.6 86.69 24.03 86.26 24.5C85.83 24.97 85.37 25.5 85.12 25.71C83.6686 27.0629 82.2932 28.4951 81 30C80.0813 31.2239 79.2332 32.4993 78.46 33.82C78.2779 34.0939 78.081 34.3576 77.87 34.61C77.04 35.53 76.48 35.56 75.38 35C75.13 34.88 74.87 34.77 74.64 34.63C74.2606 34.3818 73.9769 34.0121 73.8351 33.5815C73.6934 33.1509 73.7022 32.685 73.86 32.26C74.0774 31.5377 74.331 30.8268 74.62 30.13C74.97 29.5 75.36 28.89 75.77 28.29C76.6226 27.1068 77.5442 25.9748 78.53 24.9C79.26 24.09 80.03 23.31 80.8 22.54L81.39 21.96L81.54 21.83L81.62 21.76C81.6764 21.7516 81.7337 21.7516 81.79 21.76L82 21.71Z" fill="currentColor"/>
<path d="M36.31 59.85C35.9504 61.4217 35.7627 63.0277 35.75 64.64C35.7448 65.295 35.8289 65.9477 36 66.58C36.0393 66.6915 36.0727 66.805 36.1 66.92C36.1379 66.9863 36.1681 67.0568 36.19 67.13C36.27 67.29 36.48 67.5 36.61 67.71C37.0305 68.0956 37.5243 68.3927 38.0621 68.5834C38.5998 68.7741 39.1705 68.8545 39.74 68.82C41.284 68.7502 42.7963 68.3585 44.18 67.67C45.2383 67.1677 46.205 66.4917 47.04 65.67C47.4058 65.309 47.7403 64.9175 48.04 64.5C48.3599 64.0584 48.641 63.59 48.88 63.1C49.2847 62.3579 49.5171 61.5342 49.56 60.69C49.568 59.9733 49.3473 59.2727 48.93 58.69C48.397 57.9642 47.7151 57.3608 46.93 56.92C46.0505 56.4279 45.0934 56.0897 44.1 55.92C41.8979 55.5648 39.6458 55.6773 37.49 56.25C35.1842 56.8329 32.953 57.6784 30.84 58.77C26.999 60.7528 23.4684 63.2862 20.36 66.29C18.3308 68.1381 16.4515 70.1444 14.74 72.29C12.911 74.356 11.2992 76.6044 9.93 79C9.16 80.5 8.77 80.22 8.69 78.55C8.70484 75.7927 9.4206 73.0845 10.77 70.68C12.4236 68.089 14.3368 65.6732 16.48 63.47C18.6464 61.2978 21.0136 59.3357 23.55 57.61C26.0976 55.8249 28.8341 54.3258 31.71 53.14C34.697 51.8591 37.8927 51.1339 41.14 51C45.14 50.91 49.73 52 52.83 55.69C53.6207 56.6784 54.1748 57.8345 54.45 59.07C54.6998 60.2839 54.6998 61.536 54.45 62.75C54.1013 64.3816 53.4464 65.9323 52.52 67.32C52.216 67.7878 51.882 68.2354 51.52 68.66C49.9536 70.3483 48.067 71.708 45.97 72.66C43.8557 73.6559 41.5471 74.1715 39.21 74.17C37.9421 74.154 36.6866 73.9171 35.5 73.47C34.8836 73.2226 34.2966 72.9073 33.75 72.53L32.95 71.93C32.7 71.71 32.48 71.46 32.25 71.22C32.0126 70.9816 31.7952 70.724 31.6 70.45C31.4 70.14 31.2 69.83 31.03 69.53C30.7413 68.9483 30.5135 68.3384 30.35 67.71C30.0413 66.5817 29.8733 65.4195 29.85 64.25C29.8319 61.6065 30.2198 58.9758 31 56.45C31.734 53.9931 32.7017 51.6122 33.89 49.34C37.5036 42.5865 42.639 36.7663 48.89 32.34C51.2595 30.6416 53.7235 29.0791 56.27 27.66C58.8423 26.2661 61.5166 25.0693 64.27 24.08C65.47 23.6 66.67 23.23 67.91 22.85C69.5164 22.3022 71.2184 22.0912 72.91 22.23C73.4021 22.2906 73.8814 22.429 74.33 22.64C74.698 22.872 75.0342 23.151 75.33 23.47C75.6 23.74 75.93 23.97 76.1 24.19C76.62 24.83 74.96 26.5 71.9 27.6C67.2813 29.0457 62.803 30.9066 58.52 33.16C56.4194 34.319 54.3892 35.6013 52.44 37C50.492 38.4316 48.6474 39.9988 46.92 41.69C44.3891 44.2169 42.1822 47.0486 40.35 50.12C38.5309 53.1292 37.2169 56.4161 36.46 59.85H36.31Z" fill="currentColor"/>
</svg>
