<svg width="96" height="96" viewBox="0 0 96 96" fill="none" xmlns="http://www.w3.org/2000/svg">
<path d="M15.19 81C37.7 74.4 59.47 64.07 82.67 60.12C87.1 59.36 85.23 52.61 80.81 53.37C57.61 57.37 35.81 67.65 13.33 74.24C8.99998 75.5 10.85 82.26 15.19 81Z" fill="currentColor"/>
<path d="M15.5 30.77C16.1492 32.0039 17.0382 33.0959 18.1149 33.982C19.1915 34.868 20.4341 35.5303 21.77 35.93C22.4577 36.1372 23.1874 36.1632 23.8882 36.0056C24.589 35.8479 25.2372 35.5118 25.77 35.03C26.3001 34.3995 26.6683 33.6491 26.8426 32.8439C27.0169 32.0388 26.9919 31.2033 26.77 30.41C26.1774 27.8745 24.7426 25.6148 22.7 24C21.7109 23.016 20.3933 22.432 19 22.36C18.1439 22.4155 17.3356 22.7741 16.7199 23.3715C16.1042 23.9689 15.7213 24.766 15.64 25.62C15.4884 26.2595 15.5846 26.9327 15.9093 27.5041C16.2339 28.0756 16.763 28.5029 17.39 28.7C18.56 29.02 20.28 28.3 20.46 26.95C20.5176 26.7647 20.5545 26.5735 20.57 26.38C20.63 26.19 20.57 26.24 20.5 26.55L19.9 27.14C19.6108 27.3006 19.2787 27.367 18.95 27.33C18.77 27.33 18.89 27.48 18.64 27.25C18.75 27.34 19.53 27.86 19.17 27.56C19.4776 27.8211 19.7714 28.0981 20.05 28.39C20.34 28.69 20.61 29 20.87 29.32C21.37 29.93 20.63 28.96 21.06 29.57L21.32 29.93C21.49 30.18 21.62 30.49 21.8 30.73C21.98 30.97 21.68 30.28 21.75 30.6C21.82 30.92 21.91 31.16 21.96 31.44C22.05 31.97 21.96 30.96 21.96 31.75C21.96 31.96 22.09 32.23 21.96 32.06C21.96 31.9 21.96 31.88 21.96 32.01C21.96 32.14 21.96 32.12 22.05 31.78C22.2119 31.5292 22.4404 31.3284 22.71 31.2C23.07 31.02 22.36 31.2 23.1 31.11C22.67 31.11 23.48 31.22 23.18 31.11L22.74 31C22.29 30.87 22.94 31.11 22.67 31C21.4298 30.4428 20.4198 29.4751 19.81 28.26C18.34 25.4 14.02 27.93 15.5 30.79V30.77Z" fill="currentColor"/>
<path d="M51.25 21.69C51.3755 23.0978 51.0233 24.5069 50.25 25.69C50.42 25.48 50.02 25.92 50 25.96C50.15 25.69 50 25.9 50.16 25.87C50.72 25.75 50.92 25.99 51.42 26.07L51.5 26.2C51.4171 26.0791 51.3435 25.9521 51.28 25.82C51.2114 25.7025 51.1545 25.5786 51.11 25.45C51.02 25.23 51 24.96 50.89 24.75C50.78 24.54 50.89 25.25 50.89 24.97C50.95 24.4 50.89 23.81 50.89 23.24L51 22.7C51 22.88 51 22.96 51 22.7C51.07 22.32 51.14 21.94 51.24 21.56C51.3169 21.2442 51.4138 20.9336 51.53 20.63C51.39 21.04 51.64 20.32 51.53 20.63C51.53 20.53 51.67 20.44 51.71 20.34C51.59 20.71 51.63 20.5 51.47 20.61C51.2567 20.7579 51.0148 20.8592 50.7598 20.9074C50.5048 20.9557 50.2425 20.9497 49.99 20.89C49.68 20.89 49.44 20.48 49.89 21.02C50.3641 21.4806 50.999 21.7383 51.66 21.7383C52.321 21.7383 52.9559 21.4806 53.43 21.02C53.886 20.5435 54.1405 19.9095 54.1405 19.25C54.1405 18.5905 53.886 17.9565 53.43 17.48C53.001 16.8785 52.4038 16.4172 51.7136 16.1539C51.0233 15.8906 50.2706 15.8371 49.55 16C48.8972 16.2567 48.3128 16.6612 47.8426 17.1817C47.3724 17.7022 47.0293 18.3246 46.84 19C45.9362 21.2157 45.6561 23.6365 46.03 26C46.66 29.09 49.53 32.31 52.79 30.17C55.31 28.52 56.5 24.63 56.25 21.76C56.2372 21.101 55.9697 20.4725 55.5036 20.0064C55.0375 19.5403 54.409 19.2728 53.75 19.26C53.0886 19.2652 52.4557 19.5303 51.988 19.998C51.5203 20.4657 51.2552 21.0986 51.25 21.76V21.69Z" fill="currentColor"/>
</svg>
