<svg width="96" height="96" viewBox="0 0 96 96" fill="none" xmlns="http://www.w3.org/2000/svg">
<path d="M22.1 42.4C24.64 42.99 27.42 43.4 30.29 43.9C30.81 43.99 31.34 44.03 31.87 44.08C32.4 44.13 32.95 44.22 33.48 44.34C35.3915 44.7766 37.2669 45.3583 39.09 46.08C41.1096 46.9791 42.8629 48.3845 44.18 50.16C45.2975 51.5621 46.213 53.1139 46.9 54.77C47.3285 55.8098 47.6436 56.8927 47.84 58C48.0351 59.0981 48.0351 60.2219 47.84 61.32C47.71 62.01 47.08 61.88 46.35 61.38C45.4923 60.8121 44.7826 60.0475 44.28 59.15C43.562 57.5739 42.6517 56.0926 41.57 54.74C40.6389 53.5213 39.5139 52.4639 38.24 51.61C38.06 51.49 37.86 51.42 37.68 51.31C37.5 51.2 37.15 51.12 36.89 51.03C36.3384 50.8391 35.7735 50.6887 35.2 50.58L33.43 50.29C32.82 50.23 32.22 50.15 31.61 50.06C28.94 49.67 26.14 49.4 23.25 49C22.37 48.89 21.47 48.74 20.57 48.57C19.67 48.4 18.77 48.21 17.87 48.01C15.0812 47.2986 12.4102 46.187 9.94 44.71C8.99 44.11 7.94 43.61 7.06 42.93C6.6 42.61 6.06 42.3 5.65 41.93C5.24 41.56 4.79 41.19 4.37 40.8C3.97169 40.4957 3.59726 40.1614 3.25 39.8C2.14 38.32 2.18 37.57 3.49 36.37C3.77572 36.0877 4.07614 35.8207 4.39 35.57C4.85137 35.1929 5.42065 34.9723 6.01563 34.9399C6.6106 34.9076 7.20046 35.0652 7.7 35.39C10.0522 37.2523 12.5809 38.8801 15.25 40.25C17.4644 41.1728 19.7756 41.8437 22.14 42.25L22.1 42.4Z" fill="currentColor"/>
<path d="M76.1 48.91C73.27 49.02 70.66 48.97 68.1 49.2C67.17 49.26 66.33 49.58 65.43 49.68C64.53 49.78 63.88 49.95 63.09 50.08C62.3 50.21 61.57 50.47 60.8 50.66L60.3 50.79L59.86 50.92C59.5588 51.0354 59.2677 51.1759 58.99 51.34C58.3708 51.6989 57.8052 52.1433 57.31 52.66C56.4032 53.6968 55.6857 54.8849 55.19 56.17C54.8533 57.0037 54.5726 57.8589 54.35 58.73C54.1 59.61 53.86 60.48 53.62 61.37C53.45 61.92 52.83 61.91 52.12 61.37C51.6604 61.0122 51.2844 60.5584 51.0184 60.0402C50.7524 59.522 50.6028 58.952 50.58 58.37C50.5668 56.0444 51.0831 53.7464 52.09 51.65C52.652 50.5675 53.3474 49.5596 54.16 48.65C55.064 47.6688 56.1379 46.8591 57.33 46.26C57.7 46.11 58.13 45.88 58.45 45.78C58.77 45.68 59.09 45.59 59.4 45.48C60.04 45.27 60.66 44.98 61.3 44.79L63.21 44.16C63.845 43.9736 64.4892 43.8201 65.14 43.7C67.89 43.2317 70.6645 42.9212 73.45 42.77C74.26 42.7 75.09 42.66 75.87 42.56L77.06 42.43L78.2 42.23C80.4559 41.9613 82.6173 41.1667 84.51 39.91C85.2012 39.3783 85.7965 38.7323 86.27 38C86.51 37.64 86.76 37.31 86.97 36.94L87.55 35.8L88.02 34.8C88.65 33.54 89.26 33.4 90.96 33.96C91.35 34.09 91.75 34.19 92.13 34.34C92.729 34.5268 93.2301 34.9426 93.5241 35.4969C93.8181 36.0513 93.8814 36.6993 93.7 37.3C93.5811 37.7935 93.4376 38.2808 93.27 38.76C93.06 39.23 92.83 39.7 92.58 40.16C92.3369 40.6385 92.0664 41.1026 91.77 41.55C91.44 41.98 91.09 42.41 90.77 42.84C89.246 44.5567 87.3882 45.9449 85.31 46.92C82.4215 48.1927 79.323 48.9216 76.17 49.07L76.1 48.91Z" fill="currentColor"/>
</svg>
