<svg width="96" height="96" viewBox="0 0 96 96" fill="none" xmlns="http://www.w3.org/2000/svg">
<path d="M41.44 90.54C40.8331 90.555 40.2271 90.4843 39.64 90.33L38.83 90.11C38.58 90.01 38.36 89.89 38.13 89.78L37.47 89.43C37.27 89.3 37.09 89.15 36.91 89.01C36.5094 88.7234 36.1465 88.3874 35.83 88.01C35.57 87.71 35.27 87.45 35 87.16C34.7651 86.8388 34.5481 86.505 34.35 86.16C34.0919 85.5248 33.9594 84.8456 33.96 84.16C33.9793 83.8189 34.0466 83.4822 34.16 83.16C34.2844 82.8528 34.4315 82.5553 34.6 82.27C35.3806 81.1861 36.5411 80.4363 37.85 80.17C38.3178 80.0503 38.7918 79.9569 39.27 79.89C39.7115 79.8381 40.1555 79.8114 40.6 79.81C41.193 79.7554 41.7907 79.8339 42.3496 80.0397C42.9084 80.2456 43.4141 80.5737 43.83 81C44.1 81.29 43.59 81.86 42.99 82.4C42.39 82.94 41.82 83.52 41.5 83.53C40.9091 83.5137 40.3183 83.5674 39.74 83.69H39.53C39.46 83.69 39.36 83.69 39.37 83.69C39.3314 83.6588 39.2873 83.635 39.24 83.62C39.089 83.5542 38.9241 83.5267 38.76 83.54C38.6519 83.5371 38.5469 83.5761 38.4668 83.6487C38.3867 83.7214 38.3377 83.8221 38.33 83.93C38.3514 84.1205 38.4202 84.3027 38.53 84.46C38.5956 84.5686 38.6691 84.6722 38.75 84.77C38.75 84.77 38.86 84.88 38.96 84.95L39.23 85.15C39.3937 85.282 39.5756 85.3898 39.77 85.47C39.9279 85.562 40.1004 85.6262 40.28 85.66C40.6214 85.7395 40.9804 85.6821 41.28 85.5C41.3829 85.4356 41.4713 85.3506 41.5398 85.2503C41.6083 85.1501 41.6552 85.0367 41.6778 84.9175C41.7003 84.7982 41.6979 84.6755 41.6708 84.5572C41.6436 84.4389 41.5923 84.3275 41.52 84.23C41.0926 83.8829 40.5492 83.7113 40 83.75C39.8638 83.7654 39.7262 83.7654 39.59 83.75C39.11 83.52 39.11 83.04 39.38 81.64L39.56 80.64C39.6074 80.1782 39.7918 79.7411 40.0893 79.3847C40.3869 79.0284 40.7841 78.769 41.23 78.64C41.5544 78.5458 41.894 78.5152 42.23 78.55C42.5671 78.6007 42.901 78.6708 43.23 78.76C43.9508 78.9718 44.6281 79.3104 45.23 79.76C45.5523 80.0475 45.8531 80.3584 46.13 80.69C46.4483 81.0336 46.6933 81.4385 46.85 81.88C46.95 82.11 47.04 82.33 47.12 82.56C47.2 82.79 47.23 83.06 47.28 83.32C47.3771 83.8306 47.404 84.3521 47.36 84.87C47.2366 86.4666 46.4893 87.9503 45.28 89C44.2344 89.9761 42.8865 90.5653 41.46 90.67L41.44 90.54Z" fill="currentColor"/>
<path d="M61.2 18.62C61.5853 20.5959 61.7596 22.6072 61.72 24.62C61.7088 26.5565 61.5449 28.4892 61.23 30.4C60.99 31.78 60.85 33.16 60.52 34.51C59.3305 39.2009 57.7757 43.7916 55.87 48.24C55.02 50.19 54.21 52.17 53.34 54.09C52.23 56.55 51.18 59.09 49.34 61.17C48.78 61.82 48.34 61.41 48.07 60.45C47.9268 59.8672 47.8496 59.2701 47.84 58.67C47.8054 58.3175 47.8054 57.9625 47.84 57.61C47.9124 57.2667 48.0197 56.9316 48.16 56.61C50.27 51.74 51.93 46.74 54.03 41.79C55.1335 38.7104 55.9078 35.5226 56.34 32.28C57.0324 28.81 57.3674 25.2782 57.34 21.74C57.2959 20.6883 57.1688 19.6417 56.96 18.61C56.7549 17.6357 56.4185 16.6938 55.96 15.81C55.6312 15.1955 55.1775 14.6566 54.6282 14.2278C54.0788 13.799 53.4459 13.4898 52.77 13.32C52.107 13.1802 51.4197 13.2077 50.77 13.4C50.0881 13.6171 49.4512 13.9559 48.89 14.4C47.06 15.9 45.89 18.2 44.89 20.49C44.68 21.01 44.49 21.49 44.29 22.04C44.0502 22.7654 43.662 23.4329 43.15 24C42.9767 24.1721 42.7733 24.3111 42.55 24.41C42.3127 24.4858 42.068 24.5361 41.82 24.56C41.58 24.56 41.35 24.64 41.17 24.64C40.61 24.64 40.11 23.52 40.43 21.87C41.0785 19.3595 42.1251 16.9692 43.53 14.79C44.3373 13.5624 45.3173 12.4577 46.44 11.51C47.7759 10.3732 49.418 9.6565 51.16 9.44998C52.5113 9.35044 53.8671 9.57011 55.1178 10.0913C56.3685 10.6124 57.4792 11.4204 58.36 12.45C59.8391 14.2408 60.8495 16.3714 61.3 18.65L61.2 18.62Z" fill="currentColor"/>
<path d="M41 14C41.7783 12.0692 42.8253 10.258 44.11 8.61999C44.921 7.61434 45.8985 6.75522 47 6.07999C48.2949 5.27239 49.7842 4.8301 51.31 4.79999C52.7424 4.80839 54.1531 5.1508 55.43 5.79999C56.5253 6.36109 57.5354 7.07488 58.43 7.91999C58.8797 8.30028 59.2856 8.7296 59.64 9.19999C60.0101 9.64987 60.3444 10.128 60.64 10.63L61.4 12.13C61.63 12.63 61.78 13.13 61.96 13.63C62.8714 16.374 63.3274 19.2487 63.31 22.14C63.1572 26.8258 62.4558 31.4775 61.22 36C60.0729 40.3741 58.6637 44.6752 57 48.88C55.51 52.6 54 56.31 52.28 59.88C51.2077 62.2203 50.0024 64.4973 48.67 66.7C47.3342 69.0186 45.5614 71.0562 43.45 72.7C41.94 73.7 41.74 72.75 42.01 71.21C42.12 70.41 42.3 69.43 42.55 68.3C42.6686 67.7156 42.8188 67.1381 43 66.57C43.2277 65.9631 43.5019 65.3747 43.82 64.81C46.1195 60.4732 48.124 55.9864 49.82 51.38C51.53 46.73 53.3 42.08 54.82 37.32C56.6106 31.6366 57.2563 25.6546 56.72 19.72C56.4 16.66 55.42 13.88 53.72 12.28C53.4997 12.0868 53.2657 11.9097 53.02 11.75C52.7997 11.5733 52.5577 11.4254 52.3 11.31C51.9471 11.1159 51.5526 11.0096 51.15 11C50.7005 11.036 50.2705 11.199 49.91 11.47C49.3906 11.8476 48.929 12.299 48.54 12.81C47.4058 14.3641 46.4906 16.0667 45.82 17.87C45.0892 19.803 44.4814 21.7803 44 23.79C42.4741 29.9778 41.5696 36.3025 41.3 42.67C41.1568 47.5494 41.3305 52.433 41.82 57.29C41.94 58.35 42.05 59.38 42.17 60.45C42.29 61.52 42.32 62.25 42.34 62.94C42.3393 63.5175 42.2823 64.0935 42.17 64.66C42.0919 65.071 41.9466 65.4662 41.74 65.83C41.5211 66.1544 41.2624 66.45 40.97 66.71C40.71 66.94 40.48 67.24 40.26 67.4C39.61 67.92 38.06 66.4 37.32 63.4C35.54 54.4 35.56 44.91 36.46 35.4C36.82 31.86 37.33 28.32 37.95 24.74C38.5765 21.0519 39.5646 17.4345 40.9 13.94L41 14Z" fill="currentColor"/>
</svg>
