<svg width="96" height="96" viewBox="0 0 96 96" fill="none" xmlns="http://www.w3.org/2000/svg">
<path d="M52.82 80.78C53.0331 80.91 53.2127 81.088 53.3447 81.2999C53.4767 81.5117 53.5573 81.7515 53.58 82C53.6147 82.5932 53.5504 83.188 53.39 83.76C53.28 84.21 52.46 85.04 52.12 84.92C51.4659 84.7057 50.8304 84.4382 50.22 84.12C49.83 83.93 45.71 79.87 44.3 78.53C42.952 77.2147 41.6926 75.8117 40.53 74.33C38.14 71.33 35.72 68.42 33.36 65.43C32.8554 64.7471 32.4009 64.0285 32 63.28C30.5595 60.7588 28.8855 58.3784 27 56.17C26.7277 55.7636 26.3692 55.4222 25.95 55.17C25.17 54.79 20.43 48.49 19.95 47.55C18.84 45.23 17.59 43 16.45 40.69C16.28 40.36 15.98 40.1 16.04 39.69C16.0722 38.8525 15.8143 38.0295 15.31 37.36C14.7788 36.3972 14.3241 35.3941 13.95 34.36C13.8174 33.7698 13.7669 33.1641 13.8 32.56C13.8 32 14.8 31.73 14.94 31.82C15.46 32.07 15.65 31.5 15.94 31.25C16.0497 31.161 16.1708 31.087 16.3 31.03C17.2531 31.6107 18.1562 32.2696 19 33C20.0232 33.7466 20.9862 34.5725 21.88 35.47C21.88 35.47 22.25 35.98 22.78 36.69L24.73 39.28C26.18 41.19 27.73 43.17 28.06 43.56C28.384 43.9977 28.6371 44.4837 28.81 45C28.91 45.23 33.45 50.86 33.6 51.11C34.5513 52.2793 35.3108 53.5924 35.85 55C35.9492 55.2906 36.1094 55.5566 36.32 55.78C37.87 57.83 39.19 60.05 40.58 62.22C41.29 63.33 42.13 64.35 42.89 65.42C43.0119 65.6304 43.1221 65.8474 43.22 66.07C43.3414 66.3447 43.4852 66.609 43.65 66.86C45.54 69.34 47.16 72.01 49.2 74.36C49.67 74.9 51.28 77.97 51.85 78.56C52.16 78.88 52.46 80.57 52.82 80.78Z" fill="currentColor"/>
<path d="M48 52C48.1947 52.3156 48.2978 52.6792 48.2978 53.05C48.2978 53.4208 48.1947 53.7844 48 54.1C47.88 54.36 47.27 54.63 47.08 54.48C46.71 54.2 46.33 53.92 45.99 53.61C45.8 53.42 43.31 50.07 42.36 48.99C41.91 48.45 41.49 47.91 41.09 47.35C40.69 46.79 40.39 46.19 40.09 45.6L36.09 38.41C35.8001 37.8741 35.5623 37.3115 35.38 36.73C34.7144 34.7508 33.8359 32.8497 32.76 31.06C32.6372 30.7214 32.4183 30.426 32.13 30.21C31.58 29.87 29.13 24.8 28.94 24.07C28.73 23.16 28.48 22.28 28.23 21.39C27.98 20.5 27.8 19.58 27.58 18.68C27.52 18.43 27.34 18.21 27.47 17.88C27.5573 17.5891 27.5828 17.2831 27.5449 16.9818C27.507 16.6804 27.4066 16.3903 27.25 16.13C26.9721 15.3921 26.7416 14.6373 26.56 13.87C26.5178 13.4331 26.5346 12.9925 26.61 12.56C26.61 12.16 27.38 11.98 27.51 12.05C27.88 12.26 28.06 11.84 28.32 11.67C28.4113 11.6074 28.5084 11.5538 28.61 11.51C29.9929 12.6457 31.296 13.8753 32.51 15.19L34.51 18.11C35.41 19.63 36.34 21.21 36.51 21.52C36.7014 21.8709 36.8268 22.2539 36.88 22.65C36.88 22.83 39.66 27.34 39.73 27.54C40.3127 28.4866 40.656 29.5609 40.73 30.67C40.7447 30.8931 40.8133 31.1093 40.93 31.3C41.6899 33.0165 42.3575 34.7723 42.93 36.56C43.25 37.46 43.69 38.31 44.06 39.19C44.1082 39.3607 44.1449 39.5344 44.17 39.71C44.2054 39.9252 44.2624 40.1362 44.34 40.34C45.25 42.41 46.03 44.53 46.9 46.62C47.09 47.1 47.56 49.62 47.83 50.15C47.93 50.46 47.84 51.72 48 52Z" fill="currentColor"/>
<path d="M82.1 69.3C82.65 69.84 82.3 70.64 81.47 71.59C81.2 71.89 80.18 72.3 79.95 72.17C79.5066 71.9442 79.0819 71.6833 78.68 71.39C78.48 71.2 76.13 67.84 75.39 66.66C74.6859 65.5285 74.09 64.3332 73.61 63.09C72.61 60.6 71.61 58.09 70.61 55.6C70.3973 55.0408 70.2432 54.461 70.15 53.87C69.7903 51.8464 69.1823 49.8748 68.34 48C68.2546 47.6594 68.0783 47.3483 67.83 47.1C67.32 46.7 65.48 41.52 65.4 40.8C65.21 39 64.82 37.27 64.59 35.49C64.59 35.23 64.39 35 64.59 34.7C64.7164 34.4327 64.782 34.1407 64.782 33.845C64.782 33.5493 64.7164 33.2573 64.59 32.99C64.3967 32.248 64.2597 31.4926 64.18 30.73C64.1948 30.2918 64.2827 29.8592 64.44 29.45C64.55 29.06 65.44 28.94 65.52 29.02C65.89 29.25 66.16 28.86 66.52 28.71C66.6293 28.6541 66.743 28.6072 66.86 28.57C68.0927 29.7935 69.2046 31.133 70.18 32.57C70.18 32.57 70.38 32.98 70.64 33.57C70.9 34.16 71.24 34.91 71.58 35.7C72.25 37.27 72.95 38.91 73.11 39.23C73.2507 39.59 73.322 39.9735 73.32 40.36C73.32 40.55 75.42 45.21 75.47 45.36C75.9092 46.335 76.1408 47.3907 76.15 48.46C76.1485 48.6726 76.2001 48.8823 76.3 49.07C76.9123 50.765 77.4364 52.4907 77.87 54.24C78.13 55.12 78.5 55.96 78.87 56.82C78.9087 56.9875 78.9321 57.1582 78.94 57.33C78.9538 57.5409 78.9942 57.7492 79.06 57.95C79.87 59.95 80.41 62.09 81.42 64.02C81.68 64.46 81.96 66.92 82.22 67.44C82.22 67.78 81.87 69.08 82.1 69.3Z" fill="currentColor"/>
</svg>
