<svg width="96" height="96" viewBox="0 0 96 96" fill="none" xmlns="http://www.w3.org/2000/svg">
<path d="M82.52 31.27C81.64 32.98 80.71 34.16 79.36 33.81C78.58 33.59 77.77 34.02 76.97 34.11L68.89 35L64.89 35.44L60.83 35.65C58.5 35.78 56.18 36.09 53.83 36.3C49.91 36.66 45.98 37.06 42.04 37.3C40.04 37.44 38.04 37.24 35.98 37.37L32.98 37.58L29.98 37.74C27.98 37.85 25.93 37.94 23.9 37.98C21.87 38.02 19.74 37.7 17.67 37.59C16.8967 37.6236 16.1257 37.6971 15.36 37.81C15.1908 37.8383 15.0172 37.8258 14.8537 37.7736C14.6903 37.7215 14.5416 37.6311 14.42 37.51C13.6 36.62 13.34 33.95 13.82 31.51C14.2 29.63 14.68 28.35 15.38 28.33C17.02 28.33 18.66 28.27 20.31 28.2L25.25 28.08C26.59 28.08 27.92 27.68 29.25 27.64C31.34 27.59 33.45 27.72 35.55 27.8C38.64 27.88 41.73 28 44.82 27.93C48.36 27.86 51.89 27.61 55.43 27.45C56.55 27.4 57.67 27.37 58.78 27.35L64.04 27.25C65.79 27.25 67.55 27.4 69.31 27.46C72.97 27.61 76.62 27.75 80.31 27.99C80.5868 28.0005 80.8618 28.0408 81.13 28.11C82.12 28.44 82.28 28.78 82.52 31.27Z" fill="currentColor"/>
<path d="M71.77 65.24C71.13 66.68 70.3 67.72 69.17 67.42C68.4932 67.3879 67.8161 67.476 67.17 67.68C62.67 68.12 58.17 68.41 53.72 68.68C52.72 68.76 51.8 68.86 50.83 68.98C49.86 69.1 48.91 69.11 47.95 69.14C44.7 69.27 41.46 69.42 38.21 69.45C36.55 69.45 34.89 69.18 33.21 69.19C31.53 69.2 29.89 69.24 28.21 69.28H25.71C24.8811 69.3399 24.0489 69.3399 23.22 69.28C21.52 69.08 19.84 68.63 18.14 68.38C17.52 68.29 16.89 68.38 16.26 68.38C16.1181 68.3899 15.9757 68.3671 15.844 68.3134C15.7122 68.2596 15.5945 68.1764 15.5 68.07C14.86 67.3 14.7 65.2 15.16 63.27C15.51 61.79 15.94 60.75 16.53 60.73C19.25 60.66 21.98 60.45 24.7 60.38C25.8 60.38 26.91 60.15 28.01 60.2C29.74 60.26 31.46 60.5 33.19 60.62C35.72 60.8 38.25 61.01 40.79 61.06C43.7 61.12 46.6 61.01 49.51 60.98C49.97 60.98 50.43 60.98 50.89 60.98L52.26 61.09L60.86 61.85C63.86 62.08 66.86 62.28 69.76 62.46C69.9798 62.4597 70.1986 62.49 70.41 62.55C71.31 62.88 71.45 63.16 71.77 65.24Z" fill="currentColor"/>
</svg>
