<svg width="96" height="96" viewBox="0 0 96 96" fill="none" xmlns="http://www.w3.org/2000/svg">
<path d="M24.35 27.81C24.8398 27.3971 25.2066 26.8574 25.41 26.25C25.4553 26.0054 25.4854 25.7583 25.5 25.51C25.5861 25.0271 25.5861 24.5329 25.5 24.05C25.4185 23.5103 25.2602 22.985 25.03 22.49C24.8338 22.072 24.5386 21.7082 24.17 21.43C23.7479 21.1946 23.314 20.9809 22.87 20.79C22.777 20.5966 22.7286 20.3847 22.7286 20.17C22.7286 19.9553 22.777 19.7434 22.87 19.55C22.9522 19.2355 23.1451 18.9611 23.4133 18.7774C23.6815 18.5937 24.007 18.513 24.33 18.55C25.3329 18.8177 26.2276 19.3909 26.89 20.19C27.4606 20.8601 27.874 21.6494 28.1 22.5C28.4802 23.5206 28.7452 24.5805 28.89 25.66C28.9339 26.8909 28.6436 28.1108 28.05 29.19C27.6813 29.8658 27.205 30.4771 26.64 31C25.7624 31.7632 24.7065 32.2928 23.57 32.54C23.14 32.64 22.72 32.79 22.28 32.87C21.8437 32.9949 21.3936 33.0655 20.94 33.08C20.7449 33.115 20.5451 33.115 20.35 33.08C19.67 32.88 19.55 32.51 19.8 31.47C19.85 31.23 19.9 30.99 19.97 30.76C20.1346 30.1261 20.5169 29.5704 21.05 29.19L21.46 28.98C21.562 28.8983 21.6769 28.8341 21.8 28.79C21.9 28.79 22 28.73 22.1 28.7L22.35 28.6C22.68 28.52 22.89 28.42 23.14 28.38C23.5605 28.2958 23.9487 28.0948 24.26 27.8L24.35 27.81Z" fill="currentColor"/>
<path d="M46.65 28.45C46.8269 28.6729 47.0358 28.8684 47.27 29.03C47.5115 29.2181 47.7772 29.3728 48.06 29.49C48.2794 29.5587 48.5033 29.6121 48.73 29.65C49.5564 30.0271 50.4638 30.1921 51.37 30.13C51.5852 30.1176 51.7975 30.0738 52 30C52.1993 29.9613 52.3938 29.9009 52.58 29.82C52.8286 29.7421 53.0596 29.6164 53.26 29.45C53.465 29.2934 53.6497 29.112 53.81 28.91C53.93 28.79 54.01 28.83 54.05 29.02C54.0673 29.1494 54.0673 29.2806 54.05 29.41C54.0559 29.5932 53.9995 29.773 53.89 29.92C53.7 30.19 53.53 30.52 53.3 30.79C53.0997 31.0852 52.8452 31.3397 52.55 31.54C52.2616 31.7286 51.9487 31.8766 51.62 31.98C51.3001 32.1046 50.9627 32.1788 50.62 32.2C50.22 32.2 49.82 32.3 49.41 32.38C48.9996 32.4499 48.5804 32.4499 48.17 32.38C47.7137 32.3203 47.2624 32.2267 46.82 32.1C46.3807 31.9432 45.95 31.7629 45.53 31.56L44.79 31.11C44.55 30.95 44.34 30.74 44.11 30.56C43.4969 29.9389 42.9781 29.2314 42.57 28.46C42.37 28.18 42.22 27.9 42.04 27.61C41.832 27.3368 41.6605 27.0376 41.53 26.72C41.4762 26.5835 41.4327 26.4431 41.4 26.3C41.33 25.76 41.55 25.56 42.4 25.4L42.94 25.29C43.4438 25.2078 43.9602 25.3146 44.39 25.59C44.9725 26.0601 45.4639 26.6329 45.84 27.28C46.14 27.59 46.37 27.95 46.74 28.28L46.65 28.45Z" fill="currentColor"/>
<path d="M24.93 49.13C25.2723 48.6936 25.4869 48.171 25.55 47.62C25.61 47.41 25.49 47.18 25.55 46.96C25.6117 46.0578 25.5032 45.1521 25.23 44.29C25.1037 43.9323 24.9251 43.5953 24.7 43.29C24.5931 43.1303 24.4653 42.9857 24.32 42.86C24.22 42.8 24.17 42.68 23.95 42.72C23.73 42.76 23.65 42.56 23.66 42.25C23.6614 42.1475 23.6844 42.0464 23.7275 41.9534C23.7706 41.8603 23.8327 41.7774 23.91 41.71C24.0212 41.6034 24.1568 41.5258 24.3051 41.484C24.4533 41.4421 24.6095 41.4373 24.76 41.47C25.1618 41.572 25.538 41.7562 25.865 42.011C26.1921 42.2657 26.4627 42.5854 26.66 42.95C26.979 43.5064 27.2053 44.1109 27.33 44.74C27.5602 45.4798 27.7373 46.235 27.86 47C27.8837 47.9367 27.6741 48.8645 27.25 49.7C26.985 50.2028 26.6481 50.6643 26.25 51.07C25.6632 51.6468 24.988 52.1261 24.25 52.49C23.7232 52.8129 23.179 53.1067 22.62 53.37C22.49 53.42 22.37 53.5 22.24 53.54C21.74 53.66 21.55 53.54 21.39 52.92C21.39 52.79 21.31 52.65 21.28 52.51C21.2219 52.3224 21.2203 52.1218 21.2754 51.9333C21.3305 51.7448 21.4399 51.5767 21.59 51.45C22.37 50.92 23.09 50.58 23.71 50.15C24.1607 49.8722 24.5461 49.5004 24.84 49.06L24.93 49.13Z" fill="currentColor"/>
<path d="M50.7 48C51.0149 47.6685 51.2026 47.2364 51.23 46.78C51.23 46.59 51.14 46.41 51.15 46.21C51.16 46.01 51.15 45.83 51.15 45.64C51.135 45.4456 51.0947 45.254 51.03 45.07C50.9 44.66 50.74 44.24 50.57 43.82C50.4069 43.4968 50.1748 43.2135 49.89 42.99C49.7516 42.8958 49.6042 42.8154 49.45 42.75C49.4065 42.725 49.3662 42.6947 49.33 42.66C49.2654 42.6365 49.202 42.6098 49.14 42.58C48.9188 42.2027 48.8209 41.7657 48.86 41.33C48.879 40.9915 49.0011 40.667 49.21 40.4C49.3117 40.2581 49.4543 40.1505 49.6186 40.0916C49.7829 40.0327 49.9613 40.0251 50.13 40.07C51.0276 40.2354 51.8559 40.6634 52.51 41.3C53.0466 41.7652 53.4359 42.3769 53.63 43.06C53.7725 43.4727 53.9463 43.8739 54.15 44.26C54.8309 45.5708 54.9744 47.0952 54.55 48.51C54.3798 49.1079 54.1093 49.6726 53.75 50.18C53.2098 50.8632 52.5848 51.4747 51.89 52C51.4403 52.4521 50.9404 52.8514 50.4 53.19C50.2858 53.2695 50.1654 53.3397 50.04 53.4C49.55 53.59 49.3 53.4 48.98 52.81C48.9024 52.6877 48.8323 52.5608 48.77 52.43C48.6676 52.2289 48.6161 52.0057 48.62 51.78C48.6093 51.5667 48.6504 51.3539 48.74 51.16C49 50.68 49.21 50.22 49.39 49.82C49.57 49.42 49.82 49.21 49.98 48.94C50.2309 48.6343 50.4426 48.2983 50.61 47.94L50.7 48Z" fill="currentColor"/>
<path d="M26 73.12C26.2915 72.6743 26.4636 72.1613 26.5 71.63C26.5 71.41 26.5 71.18 26.5 70.95C26.5366 70.0836 26.4076 69.2181 26.12 68.4C25.9684 68.054 25.7912 67.7197 25.59 67.4C25.31 66.98 25 66.59 24.74 66.13C24.66 65.99 24.79 65.8 25.07 65.67C25.2426 65.5977 25.4279 65.5604 25.615 65.5604C25.8021 65.5604 25.9874 65.5977 26.16 65.67C26.7506 65.9779 27.2848 66.3837 27.74 66.87C28.0722 67.4398 28.2928 68.0676 28.39 68.72C28.5 69.49 28.81 70.21 28.88 71C28.9658 71.8944 28.8496 72.7966 28.54 73.64C28.3313 74.1864 28.0265 74.691 27.64 75.13C27.0566 75.7029 26.3804 76.1729 25.64 76.52C25.11 76.79 24.64 77.15 24.12 77.42C24.011 77.4909 23.8975 77.5544 23.78 77.61C23.35 77.78 23.17 77.61 22.9 77L22.72 76.55C22.6268 76.3544 22.5923 76.1361 22.6207 75.9213C22.6491 75.7065 22.7392 75.5046 22.88 75.34C23.5359 74.7949 24.2463 74.319 25 73.92C25.3808 73.7307 25.705 73.4444 25.94 73.09L26 73.12Z" fill="currentColor"/>
<path d="M49.23 65.1C50.2558 65.1555 51.2445 65.5024 52.08 66.1C52.3505 66.2444 52.6081 66.4117 52.85 66.6C53.483 67.2858 54.0273 68.0484 54.47 68.87C54.6592 69.2182 54.873 69.5524 55.11 69.87C55.4447 70.2293 55.649 70.6907 55.69 71.18C55.69 71.35 55.32 71.55 54.87 71.69C54.491 71.8603 54.0713 71.9193 53.66 71.86C53.3147 71.6733 52.9808 71.4662 52.66 71.24C52.3441 71.0484 52.0932 70.7662 51.94 70.43C51.75 70 51.16 69.84 50.87 69.68C50.5824 69.4996 50.2687 69.3647 49.94 69.28C49.8413 69.2614 49.7443 69.2346 49.65 69.2C49.5372 69.1848 49.4228 69.1848 49.31 69.2C48.8973 69.2175 48.5041 69.3805 48.2 69.66C47.9589 69.9566 47.7758 70.2958 47.66 70.66C47.6328 70.736 47.5993 70.8095 47.56 70.88C47.36 71.11 47.12 71.05 46.4 70.65L45.92 70.39C45.6821 70.2778 45.4745 70.1103 45.3144 69.9016C45.1544 69.6928 45.0466 69.4489 45 69.19C44.9563 68.6216 45.0418 68.0507 45.25 67.52C45.3443 67.2399 45.4827 66.9765 45.66 66.74C45.8627 66.5126 46.0834 66.3019 46.32 66.11C47.1673 65.4824 48.1702 65.0986 49.22 65L49.23 65.1Z" fill="currentColor"/>
<path d="M74 70.78C74.4508 70.5373 74.8407 70.1954 75.14 69.78C75.2301 69.6081 75.3103 69.4311 75.38 69.25C75.8017 68.6592 76.0667 67.9711 76.15 67.25C76.1592 66.9612 76.0672 66.6782 75.89 66.45C75.75 66.13 75.56 65.91 75.36 65.45C75.3 65.3 75.46 64.92 75.8 64.58C75.9705 64.3747 76.1937 64.2197 76.4456 64.1316C76.6976 64.0435 76.9687 64.0257 77.23 64.08C77.6332 64.2687 78.007 64.5146 78.34 64.81C78.6088 65.1429 78.8062 65.5276 78.92 65.94C79.1449 66.6766 79.1449 67.4634 78.92 68.2C78.7762 69.0046 78.5825 69.7995 78.34 70.58C77.9861 71.3873 77.4918 72.1254 76.88 72.76C76.4843 73.1354 76.0522 73.4703 75.59 73.76C74.8354 74.2161 73.9878 74.4964 73.11 74.58C72.4018 74.7147 71.6793 74.7583 70.96 74.71C70.8067 74.6887 70.6559 74.6518 70.51 74.6C70.394 74.5635 70.2944 74.4875 70.2286 74.3852C70.1629 74.2828 70.135 74.1607 70.15 74.04C70.1803 73.7225 70.2793 73.4154 70.44 73.14C70.53 72.97 70.61 72.81 70.7 72.66C70.9891 72.1995 71.3746 71.8071 71.83 71.51C72.1913 71.294 72.5871 71.1418 73 71.06C73.3128 71.0169 73.6109 70.9004 73.87 70.72L74 70.78Z" fill="currentColor"/>
<path d="M25.71 34.88C24.122 35.1002 22.5041 34.9251 21 34.37C19.5752 33.8255 18.3147 32.9232 17.34 31.75C16.6657 30.9696 16.0944 30.1059 15.64 29.18C14.9144 27.5559 14.6915 25.7518 15 24C15.3308 22.3047 16.1232 20.7336 17.29 19.46C18.2524 18.3147 19.4449 17.3846 20.79 16.73C21.7325 16.2253 22.812 16.0361 23.87 16.19C24.937 16.3617 25.8949 16.9429 26.54 17.81C26.92 18.33 26.35 18.73 25.54 19.16C25.1327 19.3803 24.7446 19.6345 24.38 19.92C24.02 20.18 23.76 20.52 23.6 20.64L23.4 20.82C23.34 20.9 23.29 20.98 23.23 20.97C23.17 20.96 22.96 21.07 22.79 21.17C22.409 21.3677 22.0502 21.6057 21.72 21.88C20.8055 22.4185 20.0123 23.1403 19.39 24C18.64 25.08 18.98 26.75 19.68 28C20.0022 28.4953 20.4199 28.9214 20.9088 29.2532C21.3978 29.585 21.948 29.8159 22.5273 29.9323C23.1066 30.0487 23.7033 30.0483 24.2824 29.9312C24.8616 29.814 25.4115 29.5824 25.9 29.25C26.452 28.739 26.8552 28.0878 27.0665 27.3658C27.2778 26.6438 27.2894 25.878 27.1 25.15C26.7647 23.8787 26.0282 22.7494 25 21.93C24.7847 21.7996 24.5776 21.6559 24.38 21.5C24.2643 21.3733 24.1789 21.2219 24.1304 21.0573C24.0819 20.8927 24.0715 20.7192 24.1 20.55C24.1433 20.3365 24.2104 20.1286 24.3 19.93C24.42 19.66 24.58 19.36 24.75 19.02L25.17 18.14C25.4159 17.6867 25.8119 17.3331 26.29 17.14C26.5575 17.0122 26.855 16.9604 27.15 16.99C27.4714 17.0044 27.7855 17.0898 28.07 17.24L28.74 17.59L29.07 17.78L29.33 18.03C29.6919 18.3552 30.0264 18.7097 30.33 19.09C30.611 19.4739 30.8681 19.8746 31.1 20.29C31.31 20.72 31.52 21.15 31.69 21.59C32.3536 23.4677 32.5593 25.4768 32.29 27.45C32.1298 29.1874 31.4893 30.846 30.44 32.24C30.12 32.6 29.79 32.95 29.44 33.24C29.0743 33.5479 28.6866 33.8286 28.28 34.08C28.0848 34.2132 27.881 34.3335 27.67 34.44L27.02 34.66C26.6049 34.8108 26.1763 34.9213 25.74 34.99L25.71 34.88Z" fill="currentColor"/>
<path d="M55.48 32C54.4041 33.2058 52.9711 34.0362 51.39 34.37C48.9245 34.7653 46.3995 34.246 44.29 32.91C42.8957 31.9012 41.8068 30.5271 41.1434 28.9391C40.48 27.3512 40.2677 25.6109 40.53 23.91C40.6373 23.1214 40.9397 22.3721 41.41 21.73C41.8575 21.1033 42.4294 20.5757 43.09 20.18C44.6282 19.3213 46.4069 18.9944 48.15 19.25C48.66 19.32 48.59 19.41 48.15 19.64C47.71 19.87 47.03 20.36 46.29 20.82C45.6768 21.171 45.1177 21.6088 44.63 22.12C44.308 22.474 44.09 22.91 44 23.38C43.9997 23.5952 43.9762 23.8098 43.93 24.02L43.84 24.44V24.87C43.798 25.4756 43.835 26.084 43.95 26.68C44.1734 27.4353 44.5571 28.1336 45.0748 28.7272C45.5925 29.3208 46.2321 29.7959 46.95 30.12C47.7133 30.5135 48.5522 30.7386 49.41 30.78C50.2233 30.8308 51.0328 30.6319 51.73 30.21C52.146 29.9465 52.5089 29.6073 52.8 29.21C53.0869 28.7638 53.2903 28.2691 53.4 27.75C53.5936 26.9291 53.5764 26.0725 53.35 25.26C53.1206 24.5011 52.6457 23.8399 52 23.38C50.9945 22.6293 49.7642 22.2416 48.51 22.28C48.2275 22.3102 47.9425 22.3102 47.66 22.28C47.4487 22.2651 47.2435 22.2025 47.0598 22.0969C46.8762 21.9912 46.719 21.8452 46.6 21.67C46.49 21.4516 46.4093 21.2196 46.36 20.98C46.3 20.68 46.26 20.33 46.22 19.98C46.18 19.63 46.13 19.35 46.11 19.08C46.1016 18.578 46.2482 18.0856 46.53 17.67C46.6669 17.4079 46.8628 17.1811 47.1023 17.0076C47.3417 16.834 47.6182 16.7185 47.91 16.67C48.3584 16.5753 48.8128 16.5118 49.27 16.48C49.7356 16.4639 50.2015 16.4974 50.66 16.58C51.6489 16.7419 52.6069 17.0556 53.5 17.51C54.5259 18.009 55.4408 18.7096 56.19 19.57C56.9191 20.5655 57.4303 21.7036 57.69 22.91C57.8739 23.7501 57.9312 24.613 57.86 25.47C57.86 25.9 57.79 26.25 57.77 26.63C57.737 27.0126 57.6836 27.3931 57.61 27.77C57.2803 29.3256 56.5767 30.7774 55.56 32H55.48Z" fill="currentColor"/>
<path d="M74.45 22.8C74.58 23.22 75.16 23.61 75.51 23.38C75.63 23.3 75.51 23.02 75.61 22.93C75.6992 22.8154 75.7571 22.6795 75.7782 22.5358C75.7992 22.3921 75.7826 22.2454 75.73 22.11C75.6615 21.905 75.5601 21.7125 75.43 21.54C75.2158 21.2624 74.9632 21.0167 74.68 20.81C73.9811 20.2521 73.1234 19.93 72.23 19.89C71.1596 19.9365 70.1325 20.3256 69.3 21C68.98 21.19 68.53 20.88 68.3 20.22C68.1984 19.8197 68.1984 19.4003 68.3 19C68.4465 18.5026 68.7611 18.0714 69.19 17.78C70.018 17.2564 70.954 16.9276 71.9275 16.8185C72.9011 16.7093 73.8867 16.8227 74.81 17.15C75.2438 17.2833 75.6626 17.4609 76.06 17.68C76.27 17.79 76.45 17.88 76.67 18.01L77.36 18.48C77.8574 18.8354 78.3018 19.2597 78.68 19.74C79.11 20.21 79.46 20.74 79.82 21.18C80.3627 22.3047 80.7818 23.4849 81.07 24.7C81.3692 25.8069 81.3449 26.9764 81 28.07C80.8331 28.6268 80.598 29.1609 80.3 29.66C79.9714 30.1391 79.5737 30.5671 79.12 30.93C78.1685 31.6621 77.0101 32.0751 75.81 32.11C74.3495 32.1832 72.8969 31.8546 71.61 31.16C70.6241 30.6382 69.7694 29.8997 69.11 29C68.5057 28.1134 68.0778 27.1186 67.85 26.07C67.4454 24.3532 67.518 22.5585 68.06 20.88C68.1861 20.4275 68.357 19.9887 68.57 19.57C68.7498 19.2118 68.9713 18.8761 69.23 18.57C69.3752 18.4192 69.5641 18.3178 69.77 18.28C70.3022 18.258 70.8285 18.3974 71.28 18.68C71.58 18.83 71.88 18.96 72.17 19.13C72.5837 19.3429 72.9295 19.6676 73.1681 20.067C73.4067 20.4665 73.5286 20.9248 73.52 21.39C73.73 21.96 74.03 22.06 74.21 22.08C74.2558 22.0879 74.3028 22.0858 74.3477 22.0737C74.3926 22.0616 74.4344 22.0399 74.47 22.01C74.4323 22.0754 74.4124 22.1495 74.4124 22.225C74.4124 22.3005 74.4323 22.3746 74.47 22.44L74.45 22.8Z" fill="currentColor"/>
<path d="M28.8 54.43C27.4713 55.486 25.8533 56.1137 24.16 56.23C22.4105 56.3624 20.6716 55.8621 19.26 54.82L18.54 54.25L17.9 53.62C17.4752 53.1912 17.1358 52.6856 16.9 52.13C16.1656 50.2852 16.1371 48.2345 16.82 46.37C17.4022 44.7889 18.3199 43.3527 19.51 42.16C20.5001 41.0979 21.6849 40.2356 23 39.62C23.957 39.2607 24.9919 39.1606 26 39.33C26.9637 39.5199 27.8345 40.0311 28.47 40.78C28.83 41.24 28.47 41.43 27.88 41.56C27.59 41.56 27.21 41.71 26.88 41.8C26.55 41.89 26.2 42.04 25.88 42.11C25.3928 42.23 24.9406 42.463 24.56 42.79C24.1022 43.0903 23.6677 43.4246 23.26 43.79C22.3535 44.6269 21.5901 45.6065 21 46.69C20.6726 47.3021 20.5566 48.0052 20.67 48.69C20.8028 49.247 21.0478 49.771 21.39 50.23C21.7077 50.7463 22.1958 51.1354 22.77 51.33C23.427 51.5267 24.1308 51.4986 24.77 51.25C25.2043 51.0725 25.609 50.8297 25.97 50.53C26.3167 50.2079 26.6014 49.8249 26.81 49.4C27.1284 48.655 27.2819 47.8499 27.26 47.04C27.248 46.1944 27.0318 45.3641 26.63 44.62C26.3306 44.1032 25.8992 43.6753 25.38 43.38C24.9519 43.1689 24.4765 43.0724 24 43.1L23.46 43.17C23.2996 43.1694 23.1412 43.1353 22.9948 43.0699C22.8484 43.0044 22.7174 42.9091 22.61 42.79C22.2932 42.4301 22.015 42.0379 21.78 41.62C21.65 41.39 21.49 41.19 21.38 40.98C21.2829 40.8038 21.2271 40.6078 21.2167 40.4069C21.2063 40.206 21.2416 40.0053 21.32 39.82C21.3997 39.5226 21.5441 39.2465 21.7429 39.0114C21.9417 38.7763 22.19 38.588 22.47 38.46C22.9701 38.1996 23.5178 38.0432 24.08 38C24.6712 37.9276 25.2707 37.9615 25.85 38.1C27.019 38.3954 28.0995 38.9682 29 39.77C30.6029 41.288 31.6252 43.3183 31.89 45.51C32.1303 47.0557 32.0554 48.634 31.67 50.15C31.2033 51.8602 30.2223 53.3857 28.86 54.52L28.8 54.43Z" fill="currentColor"/>
<path d="M56.71 50C56.3898 51.4344 55.648 52.7403 54.58 53.75C53.5073 54.7335 52.1473 55.3469 50.7 55.5L50.01 55.62H49.29C48.8131 55.6751 48.3306 55.6548 47.86 55.56C46.2437 55.1532 44.7915 54.2596 43.7 53C43.4239 52.7245 43.1791 52.4193 42.97 52.09C42.7381 51.7787 42.5404 51.4435 42.38 51.09C42.0755 50.4254 41.8635 49.7222 41.75 49L41.65 48C41.65 47.68 41.65 47.36 41.65 47.05C41.6431 46.7351 41.6665 46.4204 41.72 46.11C41.75 45.8015 41.8103 45.4967 41.9 45.2C42.0881 44.4492 42.4272 43.7445 42.8966 43.129C43.3659 42.5136 43.9557 42.0001 44.63 41.62C45.02 41.37 45.06 41.56 44.95 41.99C44.89 42.21 44.8 42.49 44.69 42.78C44.58 43.07 44.51 43.46 44.35 43.78C43.8961 44.8391 43.8219 46.0225 44.14 47.13C44.647 48.0383 45.2011 48.9195 45.8 49.77C46.1636 50.2788 46.6725 50.6657 47.26 50.88C47.8416 51.0244 48.4333 51.1247 49.03 51.18L49.54 51.25L50.06 51.2C50.3992 51.2031 50.7367 51.1525 51.06 51.05C51.6001 50.8626 52.0569 50.4909 52.35 50C52.8266 49.1649 53.0522 48.2101 53 47.25C52.9147 45.6947 52.3048 44.2142 51.27 43.05C50.9234 42.6881 50.4658 42.4523 49.97 42.38C49.793 42.3566 49.6132 42.3694 49.4413 42.4175C49.2694 42.4657 49.1091 42.5481 48.97 42.66C48.86 42.75 48.78 42.87 48.67 42.97C48.5512 43.0184 48.427 43.052 48.3 43.07C48.1297 43.0359 47.9648 42.9787 47.81 42.9C47.3996 42.7218 47.0186 42.4824 46.68 42.19C46.47 42.04 46.26 41.91 46.08 41.76C45.9278 41.6386 45.8022 41.4871 45.7111 41.3151C45.6199 41.1431 45.5651 40.9541 45.55 40.76C45.4843 40.2012 45.6113 39.6368 45.91 39.16C46.2227 38.757 46.6097 38.4176 47.05 38.16C47.554 37.9047 48.0933 37.7261 48.65 37.63C49.8339 37.4398 51.0476 37.6142 52.13 38.13C53.08 38.5832 53.9169 39.2426 54.58 40.06C55.1644 40.7706 55.6427 41.5622 56 42.41C56.5135 43.5761 56.8278 44.82 56.93 46.09C56.93 46.41 56.93 46.72 56.93 47.04C56.93 47.36 56.98 47.67 56.93 48.04C56.9315 48.7117 56.8645 49.3819 56.73 50.04L56.71 50Z" fill="currentColor"/>
<path d="M68.69 45.73C68.9845 45.9032 69.3221 45.9895 69.6636 45.9789C70.0052 45.9682 70.3368 45.8612 70.62 45.67C70.77 45.51 70.41 45.31 70.53 45.17C70.643 45.0326 70.7197 44.8691 70.7529 44.6943C70.7861 44.5195 70.7748 44.3392 70.72 44.17C70.6452 43.9648 70.5213 43.781 70.3592 43.6346C70.1971 43.4882 70.0017 43.3836 69.79 43.33C69.5121 43.2831 69.227 43.3021 68.9578 43.3854C68.6886 43.4688 68.4427 43.6142 68.24 43.81C67.9824 44.0406 67.763 44.3106 67.59 44.61C67.5462 44.6954 67.4888 44.7731 67.42 44.84C67.31 44.97 67.18 45.09 67.07 45.23C66.8244 45.4968 66.594 45.7773 66.38 46.07C66.1 46.44 65.92 46.33 65.74 45.84C65.6204 45.5161 65.5333 45.1811 65.48 44.84C65.4644 44.6036 65.4644 44.3664 65.48 44.13C65.4744 43.8172 65.5466 43.508 65.69 43.23L65.93 42.68L66.22 42.06C66.33 41.85 66.42 41.64 66.53 41.43L66.94 40.82C67.1615 40.454 67.4799 40.1564 67.86 39.96C68.18 39.76 68.52 39.45 68.86 39.21C69.4414 38.9144 70.0657 38.7119 70.71 38.61C71.2846 38.5134 71.8681 38.4799 72.45 38.51C73.5018 38.5829 74.5254 38.8832 75.45 39.39C76.2883 39.796 77.0523 40.3403 77.71 41C78.08 41.37 78.46 41.75 78.82 42.15C79.1742 42.5495 79.5079 42.9667 79.82 43.4C80.5253 44.2513 81.0157 45.2596 81.25 46.34C81.5465 47.5298 81.459 48.7829 81 49.92C80.5408 51.0587 79.7273 52.0193 78.68 52.66C77.4139 53.4426 75.9752 53.9027 74.49 54C72.1938 54.1497 69.899 53.6873 67.84 52.66C67.0551 52.2804 66.3112 51.8213 65.62 51.29L65.11 50.85L64.64 50.33C64.4863 50.1411 64.3428 49.9441 64.21 49.74C64.1343 49.6406 64.0642 49.5371 64 49.43L63.88 49.03L63.64 48.32C63.64 48.07 63.53 47.81 63.49 47.54C63.4236 47.064 63.4786 46.579 63.65 46.13C63.7109 45.7687 63.8903 45.438 64.16 45.19C64.5243 44.8045 65.013 44.5602 65.54 44.5C65.7423 44.4706 65.9477 44.4706 66.15 44.5C66.4269 44.5676 66.6817 44.7053 66.89 44.9C67.0367 45.0263 67.1737 45.1633 67.3 45.31C67.3266 45.3638 67.3662 45.4101 67.4153 45.4447C67.4644 45.4793 67.5213 45.501 67.581 45.508C67.6406 45.515 67.701 45.5069 67.7567 45.4845C67.8124 45.4622 67.8617 45.4262 67.9 45.38C67.9304 45.3502 67.9542 45.3143 67.9697 45.2747C67.9853 45.235 67.9922 45.1925 67.99 45.15C68.0322 45.2363 68.091 45.3134 68.1631 45.3769C68.2352 45.4403 68.3191 45.489 68.41 45.52L68.69 45.73Z" fill="currentColor"/>
<path d="M31.24 74.24C30.8525 75.5481 30.1324 76.7333 29.15 77.68C28.1554 78.6167 26.9129 79.2484 25.57 79.5C24.7194 79.7037 23.8423 79.7745 22.97 79.71C22.5956 79.6939 22.2237 79.6403 21.86 79.55C21.4778 79.4721 21.1005 79.372 20.73 79.25C20.35 79.09 19.97 78.93 19.6 78.75C19.23 78.57 18.86 78.24 18.53 77.96C18.2124 77.6329 17.9246 77.2782 17.67 76.9L17.37 76.3C17.2604 76.1097 17.1923 75.8984 17.17 75.68C17.0868 75.2723 17.0566 74.8555 17.08 74.44C17.083 74.0619 17.1334 73.6856 17.23 73.32C17.4821 72.1408 17.9573 71.0207 18.63 70.02C19.3957 68.7988 20.4772 67.8072 21.76 67.15C22.14 66.95 22.13 67.04 21.96 67.4L21.63 68.11C21.5208 68.4511 21.3905 68.785 21.24 69.11C20.7135 70.1994 20.4302 71.3902 20.41 72.6C20.395 73.0594 20.4523 73.5184 20.58 73.96C20.6156 74.1108 20.6728 74.2557 20.75 74.39C20.7663 74.5195 20.7663 74.6505 20.75 74.78C20.8 75.09 21.18 75.36 21.7 75.51C21.97 75.57 22.3 75.58 22.6 75.64C22.9331 75.6208 23.2669 75.6208 23.6 75.64C24.2328 75.6884 24.8666 75.5608 25.4313 75.2714C25.9961 74.982 26.4698 74.5419 26.8 74C27.2492 73.2223 27.4806 72.338 27.47 71.44C27.5019 70.7269 27.3929 70.0145 27.1493 69.3436C26.9056 68.6727 26.5321 68.0564 26.05 67.53C25.6895 67.1986 25.242 66.9766 24.76 66.89C24.3288 66.8298 23.8912 66.8298 23.46 66.89C23.27 66.89 23.09 67 22.89 67.03C22.54 67.15 22.19 66.9 21.89 66.8C21.586 66.6252 21.3206 66.3904 21.11 66.11C20.99 65.97 20.85 65.84 20.75 65.7C20.6649 65.5814 20.6096 65.4441 20.5887 65.2996C20.5678 65.1552 20.582 65.0078 20.63 64.87C20.7617 64.4282 21.0065 64.0283 21.34 63.71C21.6292 63.4007 21.9948 63.1731 22.4 63.05C22.8125 62.8821 23.2415 62.758 23.68 62.68C24.6447 62.5234 25.6338 62.6341 26.54 63C27.4605 63.3648 28.2973 63.9125 29 64.61C29.6384 65.2609 30.1775 66.0021 30.6 66.81C31.7655 69.1182 32.0293 71.7778 31.34 74.27L31.24 74.24Z" fill="currentColor"/>
<path d="M51.34 68C50.9453 67.7464 50.5029 67.5763 50.04 67.5C49.8479 67.4671 49.6512 67.4741 49.4619 67.5206C49.2727 67.567 49.095 67.6519 48.94 67.77C48.6479 68.0672 48.3989 68.4038 48.2 68.77C47.944 69.1492 47.7167 69.547 47.52 69.96C47.3621 70.286 47.2671 70.6388 47.24 71C47.1319 71.9569 47.2875 72.9252 47.69 73.8C48.0685 74.6249 48.6293 75.3532 49.33 75.93C50.2397 76.6015 51.289 77.0595 52.4 77.27C52.77 77.38 52.89 77.91 52.58 78.57C52.3876 78.971 52.0948 79.3155 51.73 79.57C51.288 79.885 50.7519 80.0402 50.21 80.01C48.252 79.8825 46.4091 79.0398 45.0318 77.6423C43.6545 76.2447 42.8389 74.3897 42.74 72.43C42.6143 71.1842 42.7023 69.9262 43 68.71C43.17 68.13 43.33 67.71 43.53 67.14C43.7596 66.6122 44.0374 66.1067 44.36 65.63C45.1478 64.4565 46.2645 63.5416 47.57 63C48.865 62.5004 50.2819 62.4097 51.63 62.74C53.419 63.2172 55.042 64.178 56.3209 65.5169C57.5998 66.8558 58.4852 68.521 58.88 70.33C59.0649 71.2676 59.0649 72.2324 58.88 73.17C58.6468 74.137 58.1876 75.0349 57.54 75.79C57.2696 76.1023 56.9754 76.3932 56.66 76.66C55.4 77.47 54.82 77.24 54.15 76.3C53.9875 76.0853 53.8372 75.8616 53.7 75.63C53.5226 75.2817 53.4377 74.8937 53.4535 74.5032C53.4693 74.1127 53.5851 73.7328 53.79 73.4C54.35 72.5 54.44 71.87 54.3 71.61C54.2206 71.4611 54.1504 71.3075 54.09 71.15C53.98 70.95 53.87 70.71 53.69 70.43C53.1282 69.4314 52.301 68.6076 51.3 68.05L51.34 68Z" fill="currentColor"/>
<path d="M79.72 74.79C78.689 75.9582 77.2662 76.7087 75.72 76.9C74.3488 77.0364 72.9663 76.7979 71.72 76.21C70.8818 75.8534 70.1108 75.3562 69.44 74.74C68.8723 74.1782 68.3874 73.5384 68 72.84C67.6097 72.1101 67.3619 71.3126 67.27 70.49C67.097 68.9461 67.4493 67.389 68.27 66.07C68.9128 64.9758 69.8207 64.061 70.91 63.41C71.6177 62.9885 72.41 62.729 73.23 62.65C74.0488 62.6032 74.8622 62.8091 75.56 63.24C75.98 63.5 75.67 63.92 75.18 64.35C74.7199 64.7743 74.2248 65.159 73.7 65.5C72.9784 65.8158 72.3662 66.3376 71.94 67C71.504 67.6334 71.2199 68.3589 71.11 69.12C70.98 70 71.81 70.89 72.72 71.53C73.2021 71.8828 73.7394 72.1531 74.31 72.33C74.79 72.4911 75.312 72.4733 75.78 72.28C76.0833 72.1436 76.3504 71.9381 76.56 71.68C76.8161 71.3953 76.9982 71.0518 77.09 70.68C77.2927 70.034 77.3541 69.3519 77.27 68.68C77.2286 68.3699 77.1444 68.067 77.02 67.78C76.8797 67.497 76.7014 67.2346 76.49 67C76.1673 66.7057 75.7687 66.5076 75.3392 66.428C74.9098 66.3485 74.4667 66.3908 74.06 66.55C73.85 66.55 73.65 66.7 73.43 66.74C72.61 66.93 72.25 66.74 71.78 65.53C71.67 65.26 71.54 64.99 71.45 64.72C71.2661 64.3166 71.2491 63.8569 71.4027 63.4411C71.5563 63.0253 71.8681 62.687 72.27 62.5C72.9777 62.2021 73.7328 62.0328 74.5 62C75.4547 61.9296 76.4129 62.0801 77.3 62.44C78.2762 62.8407 79.1383 63.4761 79.81 64.29C80.1128 64.6611 80.3807 65.0595 80.61 65.48C80.8631 65.9199 81.0676 66.3859 81.22 66.87C81.4083 67.5217 81.5224 68.1927 81.56 68.87C81.6763 70.2285 81.4849 71.5957 81 72.87C80.8551 73.2334 80.6812 73.5845 80.48 73.92C80.27 74.25 80.04 74.54 79.81 74.85L79.72 74.79Z" fill="currentColor"/>
</svg>
