<svg width="96" height="96" viewBox="0 0 96 96" fill="none" xmlns="http://www.w3.org/2000/svg">
<path d="M69.89 31.18L55.53 42.86C53.15 44.86 50.79 46.76 48.47 48.74C47.31 49.74 46.16 50.74 45.03 51.74L44.52 52.18L44.1 52.55C43.8898 52.7378 43.7018 52.9492 43.54 53.18C43.47 53.29 43.39 53.44 43.47 53.55C43.55 53.66 43.73 53.61 43.85 53.62C44.41 53.62 44.92 53.53 45.46 53.53L53.08 52.91C55.73 52.71 58.4 52.49 61.08 52.39C62.42 52.39 63.77 52.33 65.08 52.32H67.08H68.08C68.5575 52.3189 69.0348 52.3423 69.51 52.39L70.3 52.48C70.55 52.48 70.77 52.61 71.01 52.67C71.4821 52.7879 71.9642 52.8616 72.45 52.89C73.3521 52.9917 74.2471 53.1487 75.13 53.36C75.871 53.539 76.5819 53.8253 77.24 54.21C77.8521 54.5549 78.3626 55.0551 78.72 55.66C78.72 55.74 78.79 55.84 78.83 55.93C78.87 56.02 78.83 56.13 78.83 56.22C78.855 56.3958 78.855 56.5742 78.83 56.75C78.7689 57.047 78.6645 57.3334 78.52 57.6C78.2181 58.1839 77.8267 58.7171 77.36 59.18C75.9715 60.4568 74.4094 61.5308 72.72 62.37L71.36 63.11L70.29 63.67L68.52 64.57L65.17 66.4C62.06 68 59 69.65 56 71.44C55.26 71.89 54.53 72.35 53.82 72.82L52.82 73.54L52.35 73.87L52.07 74.08C51.4066 74.539 50.8393 75.1233 50.4 75.8C50.3453 75.9076 50.305 76.0219 50.28 76.14C50.28 76.28 50.39 76.38 50.51 76.42C50.7615 76.4866 51.0199 76.5235 51.28 76.53C51.81 76.53 52.28 76.53 52.79 76.53H53.87H55.55C56.68 76.53 57.82 76.53 58.97 76.53C61.3134 76.5183 63.654 76.6922 65.97 77.05C68.456 77.3298 70.8249 78.2574 72.84 79.74C74.13 80.83 74.26 81.74 73.96 81.85C73.66 81.96 72.86 81.66 71.7 81.47C69.36 81.05 65.52 81.38 60.55 81.38C58.48 81.38 56.38 81.45 54.22 81.53L51.8 81.61C50.72 81.61 49.62 81.61 48.6 81.61C47.6964 81.5837 46.8037 81.4045 45.96 81.08C45.3697 80.8404 44.8451 80.4633 44.43 79.98C44.2272 79.7466 44.0557 79.4878 43.92 79.21C43.7699 78.8922 43.6623 78.5559 43.6 78.21C43.4866 77.535 43.5663 76.8416 43.83 76.21C44.4811 74.4899 45.5745 72.9721 47 71.81C47.78 71.13 48.68 70.47 49.45 69.92L50.22 69.39L50.95 68.92C51.95 68.31 52.88 67.73 53.84 67.17C57.67 65 61.59 63 65.46 61.09C66.46 60.61 67.37 60.09 68.32 59.61C68.98 59.26 68.78 59.38 68.92 59.32L69.17 59.23C69.34 59.16 69.54 59.08 69.77 58.96C69.8917 58.9026 70.0087 58.8357 70.12 58.76C70.23 58.68 70.36 58.56 70.33 58.44C70.2864 58.3551 70.2257 58.2801 70.1517 58.2199C70.0777 58.1596 69.992 58.1154 69.9 58.09C69.5785 57.9704 69.242 57.8964 68.9 57.87H68.61H67.81L65.81 57.94C63.08 58.08 60.3 58.34 57.5 58.53C54.7 58.72 51.88 59.02 49.05 59.28L43.92 59.73C42.7879 59.8543 41.6478 59.8911 40.51 59.84C39.5056 59.8915 38.4987 59.8244 37.51 59.64C36.7637 59.4822 36.0544 59.1835 35.42 58.76C35.2805 58.6655 35.1499 58.5584 35.03 58.44C34.9438 58.3726 34.878 58.2826 34.84 58.18C34.8324 58.1573 34.8324 58.1327 34.84 58.11C34.84 58.11 34.98 58.03 34.91 58.11L34.8 57.97C34.6275 57.5915 34.5618 57.1731 34.61 56.76C34.6951 55.9717 34.9329 55.2075 35.31 54.51C35.8262 53.5584 36.4724 52.6833 37.23 51.91C38.05 51.01 38.98 50.13 39.89 49.26L41.25 47.98L42.13 47.19C43.3167 46.0633 44.5033 45 45.69 44C50.45 39.94 55.27 36 60.06 32.07C63.01 29.65 65.96 27.22 68.87 24.77C70.29 23.53 71.7267 22.2733 73.18 21L74.35 20C74.71 19.67 75.08 19.33 75.44 19L76.16 18.28C76.39 18.01 76.65 17.73 76.86 17.43C76.9693 17.2745 77.0599 17.1067 77.13 16.93C77.21 16.72 76.96 16.63 76.81 16.59C76.1069 16.4901 75.3931 16.4901 74.69 16.59C73.97 16.66 73.24 16.77 72.51 16.91L71.31 17.14L69.31 17.57C64.0632 18.8025 58.8941 20.3453 53.83 22.19C45.6649 25.2087 37.8197 29.0308 30.41 33.6C28.79 34.6 27.26 35.66 25.65 36.68L21.9 39.08C21.4245 39.3755 20.9338 39.6459 20.43 39.89C20.0222 40.1147 19.6015 40.315 19.17 40.49C18.0229 40.9952 16.7921 41.2834 15.54 41.34C15.1083 41.3871 14.6742 41.4071 14.24 41.4C13.7 41.31 13.88 40.66 14.59 39.4C15.681 37.56 17.0468 35.8974 18.64 34.47C20.2 33.15 21.83 31.88 23.5 30.67C25.17 29.46 26.92 28.34 28.7 27.25C32.2919 25.0833 35.9972 23.1105 39.8 21.34C47.5372 17.737 55.566 14.7964 63.8 12.55C65.5 12.09 67.21 11.66 68.95 11.26L70.28 10.96C71.12 10.8 71.96 10.61 72.79 10.46C74.46 10.14 76.11 9.89998 77.69 9.73998C79.0669 9.57118 80.4607 9.59811 81.83 9.81998C82.7459 9.99816 83.6022 10.404 84.32 11C84.628 11.2664 84.9033 11.5686 85.14 11.9C85.2869 12.1235 85.4173 12.3574 85.53 12.6C85.9586 13.5083 86.0542 14.5383 85.8 15.51C85.5813 16.412 85.1796 17.2595 84.62 18C83.8631 19.0327 83.02 19.9995 82.1 20.89C81.1 21.89 80.1 22.83 79.02 23.78L77.36 25.11C77.36 25.11 77.26 25.11 77.25 25.11L77.18 25.17L77.08 25.26L76.88 25.44L76.48 25.79C74.34 27.67 72.19 29.49 70.04 31.3L69.89 31.18Z" fill="currentColor"/>
</svg>
