<svg width="96" height="96" viewBox="0 0 96 96" fill="none" xmlns="http://www.w3.org/2000/svg">
<path d="M46.38 71.78C45.2668 73.2585 44.0646 74.6678 42.78 76C41.4792 77.3243 40.1037 78.5731 38.66 79.74C38.11 80.15 37.6 80.59 37.08 81.02C36.5583 81.4455 36.0142 81.8427 35.45 82.21C33.444 83.4655 31.3247 84.5301 29.12 85.39C28.05 85.87 26.92 86.18 25.83 86.57C24.74 86.96 23.62 87.24 22.49 87.47C21.36 87.7 20.49 87.95 19.49 88.12C18.49 88.29 17.49 88.54 16.49 88.67C13.9785 89.2137 11.398 89.3655 8.84001 89.12C8.04001 89.02 8.12 88.23 8.73 87.36C9.47127 86.3072 10.5572 85.5467 11.8 85.21C14.21 84.71 16.55 84.12 18.8 83.45C21.05 82.78 23.42 82.29 25.7 81.51C28.4459 80.4915 30.9864 78.9876 33.2 77.07C35.7415 75.0569 38.0432 72.7585 40.06 70.22C41.3265 68.6345 42.4825 66.9639 43.52 65.22C45.1252 62.5225 46.4809 59.684 47.57 56.74C48.2968 54.3945 48.8944 52.0109 49.36 49.6C49.49 49.06 49.56 48.52 49.72 47.99C50.34 45.99 51 45.52 52.72 45.76C53.1518 45.8096 53.5796 45.8898 54 46C54.6118 46.1716 55.1349 46.5706 55.4621 47.1153C55.7893 47.6601 55.8959 48.3093 55.76 48.93C55.1613 53.5416 53.8771 58.0378 51.95 62.27C50.4533 65.648 48.6384 68.8759 46.53 71.91L46.38 71.78Z" fill="currentColor"/>
<path d="M66.86 48.47L67.18 49.74C67.3 50.31 67.38 50.88 67.44 51.41C67.5616 52.3783 67.6084 53.3545 67.58 54.33C67.5642 55.034 67.3223 55.7142 66.89 56.27C66.8 56.39 66.6 56.46 66.49 56.64C66.3449 56.7268 66.1859 56.7877 66.02 56.82C65.7339 56.845 65.4461 56.845 65.16 56.82C64.6213 56.8032 64.0898 56.6915 63.59 56.49C62.8633 56.1508 62.1674 55.7493 61.51 55.29C61.2 55.08 60.89 54.87 60.59 54.69L59.79 54.21C59.47 54.02 59.15 53.84 58.79 53.67C58.1412 53.3229 57.4735 53.0124 56.79 52.74C55.3791 52.1844 53.9147 51.7755 52.42 51.52C51.0678 51.3069 49.6973 51.2332 48.33 51.3C46.58 51.3 44.84 51.58 43.04 51.48C42.48 51.48 42.45 50.8 42.84 50.09C43.0709 49.6537 43.3932 49.2724 43.785 48.9721C44.1767 48.6718 44.6287 48.4596 45.11 48.35C46.0666 48.1829 47.0312 48.0661 48 48C48.9772 47.9685 49.9554 47.9918 50.93 48.07C52.9157 48.2253 54.8706 48.6526 56.74 49.34C57.86 49.76 59 50.17 60.13 50.64L61 51L61.57 51.27C61.7419 51.3552 61.9059 51.4556 62.06 51.57L62.65 52C62.7587 52.0827 62.8804 52.1469 63.01 52.19C63.07 52.19 63.16 52.19 63.19 52.19C63.2241 52.1507 63.2451 52.1018 63.25 52.05C63.2935 51.5791 63.2699 51.1043 63.18 50.64L63.08 50.09L62.77 49C62.58 48.28 62.36 47.56 62.12 46.86C61.4581 44.7038 60.5381 42.6355 59.38 40.7C58.495 39.3454 57.3818 38.1544 56.09 37.18C55.83 36.99 55.55 36.86 55.3 36.71C54.9491 36.5491 54.6305 36.3254 54.36 36.05C54.1855 35.7335 54.0479 35.3979 53.95 35.05C53.89 34.87 53.81 34.7 53.76 34.53C53.71 34.36 53.76 34.01 54.14 33.75C54.3786 33.5743 54.6514 33.4507 54.9408 33.3869C55.2302 33.3232 55.5297 33.3208 55.82 33.38C57.8231 33.8296 59.6431 34.8756 61.04 36.38C61.7124 37.0415 62.3003 37.7838 62.79 38.59C63.2879 39.3674 63.7419 40.172 64.15 41C65.3326 43.3845 66.2868 45.8756 67 48.44L66.86 48.47Z" fill="currentColor"/>
<path d="M64.48 54.42V54.34V54.16V53.77C64.48 53.29 64.53 52.77 64.48 52.28C64.4632 51.2172 64.3931 50.1558 64.27 49.1C64.008 46.9182 63.5699 44.7612 62.96 42.65C62.4822 41.1713 61.8939 39.7305 61.2 38.34C60.9374 37.7865 60.6367 37.2518 60.3 36.74C60.14 36.52 59.98 36.32 59.84 36.16C59.7653 36.0643 59.6738 35.9829 59.57 35.92C59.35 35.76 59.29 35.81 58.48 35.81C57.8095 35.8151 57.1406 35.8753 56.48 35.99C53.6884 36.5025 50.9909 37.4365 48.48 38.76C46.2329 39.957 44.1121 41.3775 42.15 43C40.87 44 39.61 45.13 38.43 46.26C37.2628 47.3183 36.1513 48.4365 35.1 49.61C34.63 50.19 33.77 50.03 33.47 48.71C33.3575 47.8112 33.4414 46.8986 33.7159 46.0354C33.9904 45.1721 34.449 44.3787 35.06 43.71C36.3078 42.3437 37.644 41.061 39.06 39.87C40.4758 38.7077 41.9583 37.6292 43.5 36.64C46.6276 34.5702 50.0782 33.0359 53.71 32.1C54.27 31.98 54.82 31.82 55.4 31.71L57.17 31.42C57.75 31.31 58.39 31.32 59 31.26C59.8744 31.1464 60.7632 31.2744 61.57 31.63C62.3232 31.9855 63.0019 32.481 63.57 33.09C64.0317 33.5749 64.4531 34.0966 64.83 34.65C65.5118 35.6422 66.0978 36.6969 66.58 37.8C67.5808 40.1225 68.3642 42.5328 68.92 45C69.5162 47.4271 69.8844 49.9045 70.02 52.4C70.02 52.79 70.02 53.19 70.02 53.59V54.48V54.89C70.0237 55.9539 69.8269 57.009 69.44 58C69.2496 58.4733 68.9636 58.9022 68.6 59.26C68.2166 59.6079 67.7726 59.8824 67.29 60.07C66.2908 60.3775 65.241 60.4863 64.2 60.39C63.7965 60.351 63.3958 60.2876 63 60.2C62.62 60.11 62.34 60 62 59.9L61.52 59.75L61.11 59.59L60.3 59.26L57.26 57.9C55.3071 57.0242 53.3035 56.2662 51.26 55.63C48.2538 54.769 45.1169 54.4573 42 54.71C41.36 54.71 40.76 54.96 40.13 55C39.5 55.04 39.13 55.19 38.69 55.2C38.5035 55.2108 38.3165 55.2108 38.13 55.2C37.9709 55.1978 37.8128 55.1742 37.66 55.13C36.9737 54.8538 36.3925 54.3671 36 53.74C35.74 53.41 35.44 53.11 35.23 52.74C35.0528 52.4696 34.9583 52.1533 34.9583 51.83C34.9583 51.5067 35.0528 51.1904 35.23 50.92C35.4582 50.5464 35.7414 50.2093 36.07 49.92C36.4726 49.5437 36.9596 49.2694 37.49 49.12C40.9045 47.942 44.5628 47.6529 48.12 48.28C51.4848 48.9318 54.7562 49.9965 57.86 51.45C58.97 51.96 60.06 52.45 61.11 52.98L62.64 53.71C63.09 53.91 63.64 54.18 63.88 54.25L64.1 54.35H64.17C64.1839 54.3529 64.1982 54.3528 64.2121 54.3497C64.2259 54.3466 64.239 54.3406 64.2503 54.3321C64.2617 54.3236 64.2711 54.3127 64.2779 54.3003C64.2848 54.2879 64.2889 54.2741 64.29 54.26L64.48 54.42Z" fill="currentColor"/>
<path d="M73.85 33.57C73.9 33.89 73.4 33.96 72.69 34.01C72.3731 34.001 72.065 33.904 71.8 33.73C71.6529 33.4925 71.529 33.2413 71.43 32.98C71.3809 32.5447 71.3809 32.1053 71.43 31.67C71.51 31.03 71.68 30.35 71.75 29.99C71.898 29.3179 72.1583 28.6755 72.52 28.09C72.8556 27.4956 73.2403 26.9303 73.67 26.4C74.0832 25.8614 74.5273 25.3472 75 24.86C75.2025 24.6305 75.4513 24.4465 75.73 24.32C76.644 23.83 77.4937 23.2287 78.26 22.53C78.39 22.42 78.56 22.34 78.61 22.11C78.66 21.88 79.26 21.41 79.97 21C80.4956 20.6609 81.0685 20.4014 81.67 20.23C82.17 20.17 82.67 20.15 83.18 20.11C83.6915 20.1132 84.2024 20.1466 84.71 20.21C84.86 20.21 84.99 20.14 85.14 20.31C85.2488 20.4479 85.3921 20.5548 85.5554 20.6197C85.7186 20.6847 85.8961 20.7055 86.07 20.68C86.4926 20.7122 86.9026 20.8387 87.27 21.05C87.4742 21.1984 87.6474 21.3852 87.78 21.6C87.92 21.78 87.78 22.32 87.68 22.39C87.58 22.46 87.59 22.83 87.57 23.07C87.57 23.14 87.57 23.25 87.57 23.31C87.57 23.37 87.07 23.68 86.68 24.02C86.4267 24.2887 86.1488 24.5331 85.85 24.75C85.7311 24.7906 85.6171 24.8443 85.51 24.91C85.2679 25.0199 85.034 25.1469 84.81 25.29C84.55 25.45 84.27 25.57 84.06 25.68L83.64 25.97C83.54 26.07 83.37 26.02 83.21 25.97C82.9237 26.1433 82.6527 26.3406 82.4 26.56C82.01 26.87 81.65 27.23 81.61 27.23C81.24 27.38 81.04 27.78 80.47 27.7C80.4265 27.6976 80.3831 27.7054 80.3432 27.7228C80.3033 27.7402 80.2679 27.7666 80.24 27.8C79.6959 28.2646 79.1213 28.6923 78.52 29.08C78.2418 29.3182 77.9873 29.5828 77.76 29.87C77.76 29.92 77.63 29.93 77.57 29.97C77.4861 29.999 77.4081 30.043 77.34 30.1C77.0686 30.455 76.7711 30.7892 76.45 31.1C76.1516 31.3942 75.8988 31.7312 75.7 32.1C75.547 32.2807 75.3723 32.4419 75.18 32.58C74.9921 32.7303 74.8329 32.9132 74.71 33.12C74.57 33.27 73.81 33.42 73.85 33.57Z" fill="currentColor"/>
<path d="M60.5 21.91C60.61 22.22 60.11 22.25 59.3 22.09C58.9221 21.9918 58.5613 21.8367 58.23 21.63C58.06 21.43 57.9 21.24 57.78 21.07C57.66 20.9 57.58 19.72 57.43 19.28C57.3551 18.9037 57.3551 18.5163 57.43 18.14C57.55 17.38 57.6 16.61 57.66 15.82C57.6774 15.6409 57.7393 15.4691 57.84 15.32C58.1762 14.7799 58.3207 14.1423 58.25 13.51C58.25 13.41 58.25 13.3 58.12 13.18C57.9052 12.4863 57.9052 11.7437 58.12 11.05C58.5018 10.543 58.8557 10.0156 59.18 9.47C59.18 9.4 59.18 9.3 59.39 9.26C59.88 9.16 59.83 8.97 59.9 8.8C59.993 8.5519 60.1283 8.32182 60.3 8.12C60.4824 7.99723 60.6857 7.90909 60.9 7.86C61.2148 7.84292 61.5294 7.89763 61.82 8.02C62.01 8.17 62.34 8.14 62.62 8.18L62.91 8.23C63.3582 8.73791 63.7319 9.30693 64.02 9.92V10.25L64.09 10.96C64.09 11.5 64.21 12.06 64.23 12.18C64.25 12.3 64.12 12.4 64.04 12.51C63.96 12.62 64.04 14.2 64.04 14.26C63.93 14.59 64.04 14.95 63.58 15.26C63.49 15.26 63.5 15.39 63.49 15.45C63.4058 16.0365 63.2409 16.6086 63 17.15C62.91 17.445 62.8399 17.7456 62.79 18.05C62.79 18.1 62.71 18.15 62.67 18.2C62.6171 18.2525 62.5732 18.3133 62.54 18.38C62.4 19.11 62.01 19.77 61.93 20.53C61.93 20.71 61.17 21.35 61.14 21.53C61.11 21.71 60.46 21.8 60.5 21.91Z" fill="currentColor"/>
<path d="M40.35 30C40.41 30.34 40.04 30.53 39.49 30.6C39.2386 30.5973 38.9941 30.517 38.79 30.37C38.6777 30.1987 38.5742 30.0218 38.48 29.84C38.3894 29.1566 38.2217 28.4857 37.98 27.84C37.8034 27.4013 37.6597 26.95 37.55 26.49C37.2825 25.5767 36.9483 24.6843 36.55 23.82C36.4927 23.6185 36.4657 23.4095 36.47 23.2C36.486 22.4681 36.2765 21.7489 35.87 21.14C35.8 21.03 35.77 20.91 35.58 20.87C35.0276 20.2907 34.5899 19.6121 34.29 18.87C34.2 18.24 34.15 17.55 34.01 16.87C34.01 16.77 33.9 16.73 34.01 16.55C34.0951 16.4533 34.142 16.3288 34.142 16.2C34.142 16.0712 34.0951 15.9467 34.01 15.85C33.8828 15.5967 33.779 15.3323 33.7 15.06C33.7011 14.837 33.7314 14.6151 33.79 14.4C33.9255 14.1336 34.1381 13.9141 34.4 13.77C34.63 13.72 34.76 13.43 34.94 13.23C34.9982 13.1587 35.0618 13.0918 35.13 13.03C35.5504 13.0423 35.9659 13.1234 36.36 13.27C36.7932 13.3961 37.2095 13.574 37.6 13.8L37.95 14.15C38.15 14.36 38.44 14.63 38.7 14.92C39.0927 15.3555 39.4473 15.8239 39.76 16.32C39.88 16.45 39.86 16.66 39.87 16.84C39.88 17.02 40.17 17.39 40.47 17.91C40.677 18.2659 40.864 18.6332 41.03 19.01C41.25 19.4566 41.3066 19.9661 41.19 20.45C41.1695 20.4938 41.1588 20.5416 41.1588 20.59C41.1588 20.6384 41.1695 20.6862 41.19 20.73C41.4134 21.5099 41.5179 22.319 41.5 23.13C41.5 23.54 41.56 23.95 41.58 24.36C41.5692 24.4388 41.5491 24.516 41.52 24.59C41.5059 24.6862 41.5059 24.7838 41.52 24.88C41.52 25.88 41.37 26.82 41.35 27.79C41.35 28.02 40.88 29.05 40.84 29.3C40.8 29.55 40.33 29.89 40.35 30Z" fill="currentColor"/>
</svg>
