<svg width="96" height="96" viewBox="0 0 96 96" fill="none" xmlns="http://www.w3.org/2000/svg">
<path d="M50.15 54.4C40.27 54.4 11.58 34.86 11.58 34.86C11.58 34.86 12.67 29.73 13.02 30.64C13.26 31.27 49.34 48.54 49.34 48.54L50.15 54.4Z" fill="currentColor"/>
<path d="M77.15 70.47C81 62.68 81 40.3 77.15 34L84.9 29.83L84.72 63.83L77.15 70.47Z" fill="currentColor"/>
<path d="M15.05 59.65L15 62.54V64C14.9742 64.0886 14.9542 64.1788 14.94 64.27C14.88 64.47 15.07 64.58 15.19 64.73C15.88 65.21 16.72 65.73 17.53 66.24C18.73 66.98 20.03 67.55 21.25 68.24L27.76 72.24L31.02 74.24L34.26 76.24C36.18 77.44 38.18 78.52 40.15 79.59C41.42 80.29 42.71 80.94 43.95 81.69C45.1726 82.4963 46.3235 83.4063 47.39 84.41C48.06 85.05 47.61 85.54 46.55 85.84C45.1221 86.2242 43.6179 86.2242 42.19 85.84C39.53 84.67 36.91 83.44 34.3 82.17C31.6508 80.9183 29.0914 79.4849 26.64 77.88C23.69 75.88 20.26 74.56 17.05 72.88L14.4 71.42L13.08 70.65L11.56 69.71C10.8933 69.3034 10.2816 68.8127 9.73999 68.25C9.44999 67.99 9.37999 67.58 9.13999 67.3C9.05999 66.93 8.92999 66.57 8.87999 66.19L8.75999 65V64.43V64V62.47C8.75999 59.98 8.75999 57.47 8.75999 55.04C8.75999 51.31 9.00999 47.56 9.04999 43.85C9.04999 40.96 8.76999 38.09 8.77999 35.13C8.76343 34.462 8.7935 33.7938 8.86999 33.13C8.94823 32.6111 9.06863 32.0994 9.22999 31.6C9.3814 31.2213 9.61344 30.88 9.90999 30.6C10.4464 30.1848 11.1122 29.9724 11.79 30C12.1496 29.9757 12.5104 29.9757 12.87 30C14 30.11 14.79 31.26 15.24 32.89L15.45 34.7C15.5492 35.3083 15.5993 35.9236 15.6 36.54C15.66 37.78 15.65 39.02 15.66 40.3C15.66 42.82 15.59 45.43 15.5 48.03C15.39 51.9 15.21 55.83 15.21 59.72L15.05 59.65Z" fill="currentColor"/>
<path d="M52.74 62.36C52.55 64.03 52.41 65.72 52.35 67.43C52.35 68.05 52.48 68.66 52.43 69.29C52.19 71.51 52 73.75 52 76C51.9701 76.4962 51.9701 76.9938 52 77.49V78.98C52.1591 80.2894 52.0846 81.6166 51.78 82.9C51.65 83.32 51.09 83.25 50.44 82.9C49.7032 82.6133 49.086 82.0843 48.69 81.4C48.47 80.81 48.23 80.18 48.02 79.57C47.7808 78.96 47.6065 78.3265 47.5 77.68C47.3699 76.3732 47.3699 75.0568 47.5 73.75C47.66 72.15 47.19 70.54 47.14 68.92C47.14 67.13 47.21 65.33 47.3 63.54L47.54 60.22C47.64 58.55 47.96 56.88 48.12 55.22C48.1898 54.5558 48.2132 53.8875 48.19 53.22C48.19 52.57 48.19 51.89 48.32 51.22C48.3439 50.926 48.4078 50.6367 48.51 50.36C48.91 49.31 49.35 49.08 50.38 49.19C50.6149 49.2007 50.8487 49.2274 51.08 49.27C51.4452 49.3622 51.7769 49.5557 52.0369 49.8282C52.297 50.1006 52.4748 50.441 52.55 50.81C52.67 51.37 52.79 51.91 52.95 52.48C53.11 53.05 53.04 53.55 53.06 54.08C53.15 55.18 53.11 56.24 53.14 57.34C53.19 58.96 52.88 60.62 52.85 62.34L52.74 62.36Z" fill="currentColor"/>
<path d="M88.89 55.43L88.45 59.59L88.19 61.71L88 62.83C88 62.99 87.94 63.25 87.88 63.57C87.82 63.89 87.75 64.16 87.68 64.46L87.57 64.79L87.51 64.96C87.4 64.96 87.44 65.06 87.39 65.11C87.2926 65.325 87.1789 65.5323 87.05 65.73C86.934 65.9387 86.7816 66.125 86.6 66.28C86.4401 66.4599 86.2698 66.6301 86.09 66.79L85.54 67.25L85.27 67.47L85.08 67.6C84.84 67.77 84.59 67.96 84.35 68.12C83.12 68.95 82.01 69.82 80.79 70.55C76.52 73.07 72.21 75.4 68 77.9C67.06 78.45 66.15 79.03 65.24 79.63L62.52 81.37L59.09 83.67L55.69 85.86C55.07 86.29 54.69 85.86 54.77 84.86C55.0104 83.4767 55.695 82.2095 56.72 81.25C58.8266 79.3018 61.04 77.4723 63.35 75.77C65.71 74.18 68.13 72.68 70.62 71.3C73.5766 69.5105 76.431 67.5575 79.17 65.45C79.94 64.9 80.7 64.34 81.41 63.79L81.92 63.39L82.15 63.23C82.29 63.11 82.46 62.99 82.49 62.8C82.5166 62.7082 82.5367 62.6147 82.55 62.52L82.62 61.91C82.62 61.49 82.7 61.03 82.72 60.57C82.79 59.67 82.83 58.73 82.87 57.8C82.96 55.47 83.04 53.13 83.06 50.8C83.16 47.24 83.37 43.65 83.28 40.11C83.2 37.35 82.81 34.65 82.62 31.93C82.57 31.33 82.48 30.74 82.47 30.13C82.3658 29.3134 82.4977 28.484 82.85 27.74C83.1507 27.2193 83.6419 26.8356 84.22 26.67C84.5073 26.5474 84.801 26.4405 85.1 26.35C86.1 26.14 86.93 27.05 87.44 28.67C88.0003 31.129 88.4309 33.6158 88.73 36.12C89.01 38.65 89.14 41.23 89.25 43.81C89.32 45.73 89.36 47.66 89.37 49.59C89.38 51.52 89.15 53.47 89.04 55.41L88.89 55.43Z" fill="currentColor"/>
<path d="M61.59 14.26C63.05 15.05 64.59 15.84 66.07 16.59C66.63 16.86 67.24 17 67.8 17.28C69.8 18.28 71.71 19.37 73.66 20.47C74.5229 20.954 75.4146 21.3848 76.33 21.76C76.91 22.02 77.51 22.25 78.09 22.54C78.6717 22.839 79.191 23.2463 79.62 23.74C79.89 24.07 79.32 24.89 78.53 25.59C77.74 26.29 76.75 26.9 76.15 26.65C73.8485 25.8665 71.6675 24.7659 69.67 23.38C68.3328 22.6132 66.9182 21.9897 65.45 21.52C63.89 20.84 62.33 20.11 60.76 19.37L57.88 18C56.41 17.31 54.98 16.49 53.49 15.83C52.35 15.3 51.06 15.04 49.85 14.52C49.5704 14.4352 49.2993 14.3247 49.04 14.19C48.11 13.63 48.04 13.14 48.68 11.91C48.83 11.63 48.97 11.34 49.13 11.08C49.3336 10.6861 49.6444 10.3578 50.0266 10.1331C50.4088 9.90838 50.8468 9.79637 51.29 9.81001C52.3344 9.97746 53.3572 10.2592 54.34 10.65C54.8312 10.8334 55.312 11.0437 55.78 11.28C56.27 11.5 56.78 11.73 57.23 11.97C58.68 12.67 60.12 13.46 61.64 14.16L61.59 14.26Z" fill="currentColor"/>
<path d="M20.8 31.17C26.3 34.23 31.92 37.17 37.56 40.05C39.62 41.1 41.75 42.05 43.81 43.05L51 46.67C51.0973 46.7262 51.2076 46.7558 51.32 46.7558C51.4323 46.7558 51.5427 46.7262 51.64 46.67L51.8 46.61C51.93 46.5649 52.0569 46.5114 52.18 46.45L53.01 46.05C54.14 45.49 55.28 44.86 56.41 44.2C58.68 42.88 60.95 41.52 63.2 40.11C66.2 38.19 69.2 36.11 72.08 33.95C75.75 31.2 79.38 28.24 83.08 25.79C83.65 25.4 83.96 25.51 84.29 25.79C84.4913 26.0346 84.6317 26.3236 84.6995 26.633C84.7673 26.9425 84.7606 27.2636 84.68 27.57C84.2608 29.8206 83.0339 31.8405 81.23 33.25C77.49 36.25 73.67 39.04 69.73 41.73C65.7842 44.4868 61.662 46.9821 57.39 49.2C56.39 49.68 55.47 50.2 54.39 50.65L53.48 51.06C53.0744 51.2363 52.6566 51.3834 52.23 51.5C51.8153 51.6256 51.383 51.683 50.95 51.67C50.7336 51.6674 50.5197 51.6233 50.32 51.54L49.7 51.34L44.23 48.82C42.54 48.04 40.84 47.24 39.17 46.42C33.4233 43.5733 27.7133 40.6367 22.04 37.61C20.29 36.67 18.55 35.73 16.82 34.77L15.52 34.04L14.61 33.54L13.68 32.99L11.9 32C11.6418 31.8634 11.4192 31.6682 11.25 31.43L10.71 30.85L10.3 30.41C10.17 30.25 9.99999 30.16 9.98999 29.92C10.015 29.5023 10.1648 29.1017 10.42 28.77C10.9575 28.0078 11.6365 27.356 12.42 26.85C13.3163 26.2412 14.2442 25.6804 15.2 25.17L17.28 24L25.28 19.93C29.38 17.82 33.28 15.56 37.28 13.33C38.14 12.84 38.97 12.33 39.84 11.84C43.1 10.08 44.17 9.73002 45.42 10.2C45.7112 10.2803 45.9955 10.3839 46.27 10.51C47.05 10.95 46.12 12.51 43.84 14.16C37 19 29.35 23 21.9 27.1L19.9 28.25L18 29.32C18 29.32 18 29.32 17.89 29.32C17.78 29.32 17.89 29.37 17.89 29.41H17.96L18.22 29.55L18.74 29.84L20.83 30.97L20.8 31.17Z" fill="currentColor"/>
</svg>
