<svg width="96" height="96" viewBox="0 0 96 96" fill="none" xmlns="http://www.w3.org/2000/svg">
<path d="M43.41 23.44C41.3654 25.0268 39.8319 27.1792 39 29.63C38.7808 30.4954 38.6898 31.3882 38.73 32.28C38.7125 33.9025 39.1083 35.5027 39.88 36.93C40.6582 38.5166 41.8115 39.8896 43.24 40.93C44.5855 41.8815 46.104 42.5609 47.71 42.93C48.22 43.05 48.71 43.2 49.26 43.36C49.81 43.52 50.32 43.63 50.87 43.73C51.4159 43.8167 51.9673 43.8635 52.52 43.87C53.0795 43.905 53.6406 43.905 54.2 43.87C54.9 43.87 54.82 43.87 54.2 44.13C53.2384 44.5691 52.2327 44.9043 51.2 45.13C49.9745 45.5026 48.7089 45.7275 47.43 45.8C46.1574 45.6737 44.9029 45.4054 43.69 45C41.1383 44.1368 38.8935 42.5487 37.23 40.43C36.1982 39.1149 35.3906 37.6383 34.84 36.06C34.2512 34.4617 33.9893 32.7614 34.07 31.06C34.3927 27.4749 35.9025 24.1001 38.36 21.47L39.45 20.33C39.83 19.97 40.22 19.64 40.6 19.33C40.98 19.02 41.4 18.68 41.79 18.33C42.18 17.98 42.62 17.7 43.08 17.39C45.8478 15.6951 49.0454 14.8341 52.29 14.91C54.7355 14.8154 57.1809 15.0988 59.54 15.75C60.0672 15.8902 60.5849 16.0639 61.09 16.27C62.94 17.17 63.24 17.97 62.89 19.16C62.8233 19.4348 62.7398 19.7053 62.64 19.97C62.23 20.81 61.21 20.97 60.02 20.77C58.3246 20.3428 56.5999 20.0419 54.86 19.87C53.1899 19.7186 51.5067 19.8027 49.86 20.12C48.7257 20.3666 47.6294 20.7634 46.6 21.3C46.3384 21.4182 46.0875 21.5587 45.85 21.72L45.49 21.94L45.08 22.25L44.26 22.87L43.5 23.53L43.41 23.44Z" fill="currentColor"/>
<path d="M65.71 44.22C66.026 42.329 66.1998 40.417 66.23 38.5C66.2723 36.6286 66.1417 34.7574 65.84 32.91C65.3767 29.4099 63.8755 26.1289 61.53 23.49C59.7284 21.7197 57.5156 20.4243 55.09 19.72C54.0559 19.3449 52.9764 19.1095 51.88 19.02C50.7972 18.9374 49.7082 18.9945 48.64 19.19C46.4053 19.6263 44.2948 20.5518 42.46 21.9C40.5796 23.2754 39.0204 25.0428 37.89 27.08C36.741 29.0502 36.1596 31.2998 36.21 33.58C36.2895 35.5674 36.9889 37.48 38.21 39.05C39.5072 40.6319 41.1968 41.8456 43.11 42.57C45.6597 43.5344 48.3952 43.9071 51.11 43.66C51.79 43.58 52.46 43.48 53.11 43.37C53.76 43.26 54.46 43.09 55.11 42.87C55.7886 42.6724 56.4563 42.4387 57.11 42.17C57.4339 42.0333 57.7683 41.9229 58.11 41.84C58.4516 41.7362 58.7857 41.6093 59.11 41.46C60.83 40.83 61.11 41.34 60.31 43.17C60.0906 43.7307 59.8194 44.2697 59.5 44.78C59.3943 44.929 59.3007 45.0861 59.22 45.25L58.86 45.68C58.6129 45.9875 58.3384 46.272 58.04 46.53C56.6242 47.8177 54.9032 48.7229 53.04 49.16C49.3239 50.0781 45.428 49.9674 41.77 48.84C37.8502 47.6001 34.473 45.0557 32.2 41.63C31.1079 39.8272 30.3618 37.8365 30 35.76C29.6492 33.7321 29.6798 31.6567 30.09 29.64C30.8805 25.8244 32.8085 22.3379 35.62 19.64C38.8166 16.3995 42.8666 14.1317 47.3 13.1C49.6004 12.5969 51.9746 12.5291 54.3 12.9C55.4084 13.1051 56.5036 13.3756 57.58 13.71C58.1166 13.8612 58.6414 14.0517 59.15 14.28C59.67 14.5 60.15 14.68 60.7 14.94C62.9376 16.0644 64.9667 17.5626 66.7 19.37C68.3504 21.1954 69.7005 23.2712 70.7 25.52C71.6323 27.6965 72.3036 29.9757 72.7 32.31C73.0747 34.5774 73.262 36.8718 73.26 39.17C73.231 41.9398 72.9734 44.7025 72.49 47.43C72.28 48.7763 72.003 50.1113 71.66 51.43C71.3658 52.7842 70.9918 54.1199 70.54 55.43C69.2437 59.4428 67.3345 63.2309 64.88 66.66C64.57 67.09 64.3 67.54 63.96 67.95L62.96 69.16C62.3091 69.9919 61.6007 70.7772 60.84 71.51C60.07 72.24 59.32 72.99 58.54 73.69L56 75.65C55.3596 76.1377 54.6918 76.5884 54 77C53.3 77.43 52.63 77.88 51.92 78.29L49.74 79.37C49.0304 79.7602 48.2915 80.0945 47.53 80.37L45.24 81.22C44.86 81.36 44.49 81.53 44.1 81.64L42.9 82C41.3441 82.4526 39.7563 82.7869 38.15 83C36.7484 83.2761 35.3275 83.4433 33.9 83.5C32.57 83.5 31.46 83.5 30.54 83.5C29.7729 83.3791 29.0259 83.1537 28.32 82.83C27.3354 82.438 26.5426 81.6774 26.11 80.71C25.8883 80.3266 25.7073 79.9211 25.57 79.5C25.28 78.23 27.46 77.25 30.89 76.86C35.9097 76.6123 40.855 75.5448 45.53 73.7C50.0462 71.8053 54.0192 68.8152 57.09 65C59.4489 62.1238 61.308 58.8719 62.59 55.38C64.0142 51.7914 65.0013 48.0445 65.53 44.22H65.71Z" fill="currentColor"/>
</svg>
