<svg width="96" height="96" viewBox="0 0 96 96" fill="none" xmlns="http://www.w3.org/2000/svg">
<path d="M32 35.92C31.63 38.2 26.87 40.22 26.87 35.92C26.91 32.62 32.52 33 32 35.92Z" fill="currentColor"/>
<path d="M42.07 26.48C41.81 28.1 38.41 29.54 38.41 26.48C38.41 24.12 42.41 24.41 42.07 26.48Z" fill="currentColor"/>
<path d="M16.58 65.3C16.3 66.99 12.76 68.49 12.76 65.3C12.76 62.84 16.93 63.14 16.58 65.3Z" fill="currentColor"/>
<path d="M51.63 53.26C51.36 54.88 47.98 56.32 47.98 53.26C48 50.91 52 51.19 51.63 53.26Z" fill="currentColor"/>
<path d="M46.83 32.64C46.46 34.92 41.69 36.94 41.69 32.64C41.69 29.34 47.31 29.74 46.83 32.64Z" fill="currentColor"/>
<path d="M49.78 81.41C49.36 84 44 86.25 44 81.4C44 77.69 50.32 78.14 49.78 81.41Z" fill="currentColor"/>
<path d="M38.62 46.09C38.23 48.44 33.32 50.53 33.32 46.09C33.32 42.68 39.11 43.1 38.62 46.09Z" fill="currentColor"/>
<path d="M46.83 57.63C46.51 59.63 42.38 61.35 42.38 57.63C42.38 54.76 47.25 55.11 46.83 57.63Z" fill="currentColor"/>
<path d="M26.92 56.39C26 57.92 22 58 23.23 54.89C24.19 52.53 28.1 54.44 26.92 56.39Z" fill="currentColor"/>
<path d="M21.28 15.1C21.39 12.44 26.57 9.48002 27.16 14.41C27.61 18.18 21.13 18.48 21.28 15.1Z" fill="currentColor"/>
<path d="M78.14 29.54C78.25 27.08 83.04 24.34 83.58 28.9C84 32.39 78 32.67 78.14 29.54Z" fill="currentColor"/>
<path d="M12.4 81.15C12.49 79.09 16.5 76.8 16.95 80.62C17.3 83.54 12.28 83.77 12.4 81.15Z" fill="currentColor"/>
<path d="M66.16 51.11C66.27 48.6 71.16 45.81 71.71 50.46C72.14 54 66 54.3 66.16 51.11Z" fill="currentColor"/>
<path d="M38.83 75.93C38.92 73.76 43.14 71.35 43.62 75.37C44 78.44 38.71 78.69 38.83 75.93Z" fill="currentColor"/>
<path d="M15.92 36.25C15.3682 37.2731 14.5963 38.1611 13.66 38.85C13.39 39.05 13.06 38.85 13.2 38.45C13.48 37.75 13.75 37.03 14.1 36.34C14.8095 35.0324 15.5942 33.7669 16.45 32.55C17.5972 30.8866 18.8393 29.2906 20.17 27.77C21.7995 25.8431 23.6374 24.1025 25.65 22.58C29.8869 19.3108 34.9552 17.2946 40.28 16.76C41.5252 16.6786 42.7756 16.7593 44 17C46.2428 17.3939 48.3665 18.2933 50.21 19.63C52.0076 20.9395 53.5214 22.5996 54.66 24.51C55.04 25.13 55.35 25.8 55.76 26.37C56.175 27.0845 56.5103 27.8424 56.76 28.63C56.97 29.21 57.17 29.88 57.36 30.57C57.55 31.26 57.72 32.03 57.87 32.62C58.0855 33.6555 58.4211 34.6623 58.87 35.62C59.077 35.9784 59.3217 36.3136 59.6 36.62C59.9409 36.9979 60.3532 37.3047 60.8132 37.5227C61.2731 37.7406 61.7716 37.8655 62.28 37.89C63.91 38.16 65.57 38.45 67.23 38.84C67.7207 38.8817 68.1974 39.0247 68.63 39.26C69.5526 39.8168 70.5694 40.1998 71.63 40.39C73.0753 40.8587 74.4459 41.5322 75.7 42.39C76.3359 42.8344 76.8964 43.378 77.36 44C77.8 44.54 77.08 44.91 76.86 44.86C76.22 44.71 76.46 45.27 76.33 45.54C76.2948 45.6396 76.2404 45.7313 76.17 45.81C74.9233 45.4403 73.6493 45.1695 72.36 45C71.88 44.93 71.36 44.92 70.89 44.85L69.55 44.68C68.74 44.57 68.11 44.51 67.91 44.46C67.91 44.46 67.15 44.29 66.07 44.11C64.99 43.93 63.53 43.72 62.01 43.53L61.43 43.46L60.71 43.35C60.2106 43.2609 59.7165 43.144 59.23 43C58.2632 42.6976 57.3441 42.2599 56.5 41.7C55.4745 40.971 54.5958 40.0549 53.91 39C53.4416 38.2237 53.1038 37.3757 52.91 36.49C52.91 36.4 52.62 35.67 52.36 34.66C52.23 34.17 52.09 33.59 51.96 33.02C51.83 32.45 51.71 31.94 51.56 31.41C51.1936 30.0203 50.6667 28.6779 49.99 27.41C49.2501 26.0679 48.3392 24.8276 47.28 23.72C47.0802 23.4935 46.8393 23.3068 46.57 23.17C44.45 21.89 41.47 21.55 38.43 21.8C36.8573 21.9399 35.3028 22.2381 33.79 22.69C33.52 22.78 33.23 22.83 32.95 22.9C32.6085 22.975 32.274 23.0788 31.95 23.21C28.3495 24.6352 25.0589 26.744 22.26 29.42C21.94 29.74 20.96 30.6 20.04 31.57C19.2872 32.328 18.5793 33.1294 17.92 33.97C17.55 34.39 16.17 35.78 15.92 36.25Z" fill="currentColor"/>
<path d="M80.23 52.87C80.2562 52.7002 80.32 52.5384 80.4169 52.3965C80.5138 52.2546 80.6413 52.1362 80.79 52.05C80.88 51.98 81.09 52.05 81.11 52.15C81.13 52.25 81.11 52.62 81.19 52.8C81.27 52.98 81.06 55 81 55.72C80.9444 56.4157 80.8273 57.105 80.65 57.78C80.3298 59.1791 79.8881 60.5477 79.33 61.87C79.18 62.1489 78.9952 62.4077 78.78 62.64C78.071 63.4512 77.4321 64.321 76.87 65.24C76.7464 65.3769 76.6664 65.5475 76.64 65.73C76.3984 66.2654 76.0819 66.7637 75.7 67.21C75.3424 67.693 74.9443 68.1447 74.51 68.56L72.27 70.23C72.16 70.3 72.1 70.43 71.92 70.42C71.49 70.42 71.34 70.62 71.13 70.81C70.8181 71.0667 70.4833 71.2943 70.13 71.49C69.9146 71.5646 69.688 71.6018 69.46 71.6C69.24 71.6 68.95 71.19 68.96 71.11C68.96 70.88 68.7 70.81 68.55 70.67C68.4894 70.6245 68.4355 70.5707 68.39 70.51C68.6348 69.6823 68.9702 68.8842 69.39 68.13C69.46 68.13 71.39 65.68 71.59 65.38C71.7053 65.2326 71.8523 65.113 72.02 65.03C72.11 65.03 73.46 62.95 73.5 62.87C73.85 62.5 74.04 62.03 74.5 61.78C74.589 61.726 74.6589 61.6456 74.7 61.55C74.93 61.19 75.17 60.83 75.43 60.49C75.6731 60.1439 75.9335 59.8101 76.21 59.49C76.51 59.15 76.71 58.76 76.97 58.4C76.97 58.34 77.1 58.29 77.15 58.22C77.2247 58.1507 77.2917 58.0736 77.35 57.99C77.9864 57.0998 78.5388 56.1524 79 55.16C79.2978 54.6618 79.5682 54.1477 79.81 53.62C79.9722 53.3831 80.1128 53.1321 80.23 52.87Z" fill="currentColor"/>
<path d="M52.69 67.37C52.9982 67.5901 53.2117 67.9185 53.2878 68.2895C53.3638 68.6604 53.2967 69.0464 53.1 69.37C53 69.63 52.38 69.95 52.2 69.86C51.84 69.69 51.5 69.53 51.2 69.36C50.7224 68.9893 50.2177 68.655 49.69 68.36C48.9541 68.0058 48.1684 67.7663 47.36 67.65C46.36 67.48 45.29 67.39 44.2 67.3C41.8423 67.2326 39.4828 67.3362 37.14 67.61C36.5907 67.6502 36.0393 67.6502 35.49 67.61C33.59 67.61 31.68 67.73 29.67 67.84C29.3316 67.8246 28.9932 67.8686 28.67 67.97C27.5011 68.1182 26.316 68.0777 25.16 67.85C24.7341 67.7854 24.3132 67.6918 23.9 67.57C23.5072 67.4709 23.1199 67.3507 22.74 67.21C22.2359 67.0332 21.7556 66.7947 21.31 66.5C19.4677 65.2113 18.1284 63.3244 17.52 61.16C17.45 60.88 17.25 60.6 17.36 60.29C17.68 59.6 17.36 59.07 17.42 58.48C17.4142 57.6925 17.5015 56.907 17.68 56.14C17.8096 55.7556 17.9877 55.3893 18.21 55.05C18.38 54.73 18.94 54.93 19.01 55.05C19.2 55.37 19.47 55.12 19.71 55.05C19.7927 55.035 19.8773 55.035 19.96 55.05C20.05 55.05 20.35 56.05 20.85 56.97C21.0703 57.3932 21.3245 57.7978 21.61 58.18C21.7375 58.3793 21.8384 58.5945 21.91 58.82C22.1094 59.5024 22.4313 60.1428 22.86 60.71C23.3343 61.2974 23.9552 61.7493 24.66 62.02C24.8883 62.1502 25.1087 62.2938 25.32 62.45C25.9707 62.6462 26.6417 62.767 27.32 62.81C28.32 62.91 29.5 62.89 29.59 62.89C30.5202 62.8835 31.4486 62.974 32.36 63.16C32.5488 63.1898 32.7412 63.1898 32.93 63.16C34.57 63.07 36.26 63.08 37.93 63.06L40.58 62.96C40.7411 62.9701 40.9014 62.9902 41.06 63.02C41.27 63.02 41.47 63.08 41.67 63.08C43.8852 63.0845 46.0916 63.3599 48.24 63.9C48.4693 63.9665 48.6932 64.0501 48.91 64.15L49.91 64.68C50.2565 64.8721 50.5905 65.0858 50.91 65.32C51.1327 65.4562 51.3465 65.6065 51.55 65.77C51.7832 65.9878 51.9851 66.2368 52.15 66.51C52.2865 66.8218 52.4684 67.1116 52.69 67.37Z" fill="currentColor"/>
</svg>
