<svg width="96" height="96" viewBox="0 0 96 96" fill="none" xmlns="http://www.w3.org/2000/svg">
<path d="M81.4 13.42C82.8795 14.842 84.0653 16.5409 84.89 18.42C85.188 19.1066 85.4321 19.8154 85.62 20.54C86.154 23.0076 86.1948 25.5565 85.74 28.04C85.5726 29.1234 85.3252 30.193 85 31.24C84.6062 32.5727 83.9799 33.8253 83.15 34.94C82.89 35.29 82.76 35.13 82.75 34.71C82.7417 34.0975 82.826 33.4873 83 32.9C83.754 30.4183 84.1117 27.8332 84.06 25.24C84.0225 23.6537 83.6831 22.0892 83.06 20.63C82.4141 19.0571 81.4893 17.6139 80.33 16.37C79.5956 15.5759 78.7851 14.8557 77.91 14.22C76.5771 13.2365 75.1084 12.4516 73.55 11.89C72.339 11.5365 71.0902 11.3283 69.83 11.27C69.56 11.27 69.29 11.27 69.01 11.21C68.01 11.02 67.69 10.82 67.46 10.21C67.4029 10.0794 67.3528 9.94588 67.31 9.80997C67.21 9.36997 67.66 8.98997 68.52 8.74997C69.1746 8.58478 69.8452 8.4909 70.52 8.46997C71.191 8.47385 71.8603 8.53743 72.52 8.65997C73.8561 8.90579 75.1584 9.30858 76.4 9.85997C78.2383 10.7599 79.9252 11.9408 81.4 13.36V13.42Z" fill="currentColor"/>
<path d="M37.29 68.78C30.14 65.72 26.52 60.65 26.29 54.13C26.06 47.61 31.29 42.57 31.59 42.54H36.44L40.1 68.78H37.29Z" fill="currentColor"/>
<path d="M69.58 42.3C57.66 44.12 53.67 30.7 53.58 30.3C53.58 30.3 56.52 29.13 60.21 31.42C63.9 33.71 67.21 36.33 68.6 38.61C69.99 40.89 69.58 42.3 69.58 42.3Z" fill="currentColor"/>
<path d="M61 63.38V69.51C61 69.51 67.81 64.99 69.66 61.92C71.51 58.85 61 63.38 61 63.38Z" fill="currentColor"/>
<path d="M89.06 72.67C89.19 73.67 89.31 74.67 89.41 75.73C89.5246 76.816 89.5614 77.9088 89.52 79C89.5192 79.7356 89.3037 80.455 88.9 81.07L88.37 81.54L87.79 81.89C86.5246 82.4171 85.2165 82.8353 83.88 83.14L80.09 84.07C78.98 84.33 77.89 84.7 76.8 85C75.39 85.39 73.99 85.78 72.55 86.07C72.1 86.15 72.09 85.94 72.36 85.57C72.8037 85.0077 73.363 84.5473 74 84.22C76.6945 82.8922 79.5476 81.9143 82.49 81.31C83.3465 81.1056 84.1857 80.8348 85 80.5C85.42 80.33 85.81 80.15 86.18 79.97C86.3482 79.8854 86.5117 79.7919 86.67 79.69C86.7365 79.6607 86.7974 79.6201 86.85 79.57C86.9078 79.5093 86.9461 79.4327 86.96 79.35C86.9789 79.1705 86.9789 78.9895 86.96 78.81C86.9604 78.3458 86.937 77.8818 86.89 77.42C86.8 76.42 86.66 75.42 86.51 74.49C86.31 73.27 86.11 72.05 85.88 70.83C85.53 68.98 85.22 67.1 84.88 65.25C84.56 63.82 84.21 62.41 83.99 60.92C83.9245 60.5908 83.8943 60.2556 83.9 59.92C83.95 58.64 84.26 58.18 84.9 58.02C85.0434 57.9735 85.1906 57.94 85.34 57.92C85.81 57.92 86.11 58.4 86.34 59.16C87.1617 61.6029 87.7706 64.1122 88.16 66.66L89.16 72.66L89.06 72.67Z" fill="currentColor"/>
<path d="M10.14 56.8C10.14 58.07 10.2 59.35 10.3 60.65C10.3 61.12 10.51 61.57 10.53 62.05C10.59 62.89 10.61 63.74 10.59 64.61C10.57 65.48 10.59 66.34 10.59 67.19C10.6194 67.9412 10.6996 68.6896 10.83 69.43C11.0769 70.3692 11.1347 71.3482 11 72.31C10.93 72.61 10.34 72.64 9.69001 72.47C9.04001 72.3 8.31001 71.94 8.14001 71.47C7.48428 69.7044 7.07379 67.8571 6.92001 65.98C6.8803 65.3978 6.76603 64.8231 6.58001 64.27C6.43001 63.7 6.25001 63.13 6.14001 62.55C5.90001 61.27 5.70001 59.97 5.51001 58.65L5.20001 56.2C5.00001 54.97 5.08001 53.69 4.89001 52.47C4.81359 51.9722 4.69994 51.4808 4.55001 51C4.44001 50.53 4.32001 50.06 4.23001 49.59C4.16373 49.4008 4.14317 49.1986 4.17001 49C4.34001 48.21 4.69001 47.95 5.58001 47.77C5.78001 47.77 5.98001 47.68 6.18001 47.66C6.50532 47.6336 6.83214 47.6873 7.13196 47.8163C7.43177 47.9452 7.69545 48.1457 7.90001 48.4C9.26001 49.95 9.48001 51.52 9.90001 53.13C10.1373 54.3429 10.2678 55.5743 10.29 56.81L10.14 56.8Z" fill="currentColor"/>
<path d="M69.16 56C70.208 51.769 69.8247 47.31 68.07 43.32C67.4039 41.8593 66.5718 40.4802 65.59 39.21C63.1532 35.8024 59.6955 33.2584 55.7171 31.9461C51.7388 30.6338 47.446 30.6211 43.46 31.91C41.9529 32.4487 40.5417 33.2252 39.28 34.21C38.96 34.45 38.64 34.68 38.34 34.95C38.04 35.22 37.62 35.35 37.26 35.58C36.55 36.03 35.75 36.44 35.02 36.96C34.02 37.54 33.88 37.29 33.9 36.08C33.9155 35.2284 33.9957 34.3793 34.14 33.54C34.2549 33.0125 34.4189 32.4969 34.63 32C34.74 31.72 34.9 31.49 35.02 31.19C35.2184 30.9684 35.4323 30.7612 35.66 30.57C37.3488 29.1864 39.2589 28.0978 41.31 27.35C43.3076 26.6388 45.4013 26.2342 47.52 26.15C51.6557 25.8864 55.7893 26.6959 59.52 28.5C64.0537 30.6061 67.9137 33.9295 70.67 38.1C73.5454 42.7163 74.8829 48.1256 74.49 53.55C74.2393 56.858 73.2991 60.077 71.73 63C69.2183 67.3189 65.485 70.7983 61 73L60.38 73.35L59.7 73.68C59.24 73.88 58.78 74.07 58.33 74.24C57.42 74.58 56.51 74.86 55.6 75.12C53.7754 75.637 51.8952 75.9324 50 76C49.1511 76.0601 48.299 76.0601 47.45 76C46.259 75.9641 45.0978 75.6195 44.08 75C43.7862 74.7578 43.5446 74.4584 43.37 74.12C43.2313 73.7826 43.1501 73.4242 43.13 73.06C43.0825 72.7689 43.0558 72.4748 43.05 72.18C43.1 71.75 43.48 71.51 44.05 71.18C44.7477 70.8108 45.5314 70.6347 46.32 70.67C47.7257 70.6213 49.126 70.4709 50.51 70.22C51.22 70.09 51.93 69.95 52.63 69.78C53.33 69.61 54.04 69.52 54.72 69.34C55.4 69.16 56.08 68.99 56.72 68.8C57.02 68.69 57.33 68.59 57.6 68.48L58 68.4L58.47 68.16C59.1097 67.8582 59.7339 67.5245 60.34 67.16L61.25 66.61C61.55 66.42 61.82 66.2 62.11 66C65.5273 63.5965 67.9714 60.0492 69 56H69.16Z" fill="currentColor"/>
<path d="M74 12.76C72.0294 12.0573 69.934 11.7727 67.8474 11.9242C65.7607 12.0757 63.7284 12.66 61.88 13.64C60.5668 14.427 59.3857 15.4157 58.38 16.57C54.7 20.52 53 26.76 55.15 32.16C55.63 33.3446 56.3061 34.44 57.15 35.4C57.9746 36.3521 58.9349 37.1776 60 37.85C62.77 39.62 66.12 40.46 69.56 41.21C70.63 41.46 70.48 42.1 69.46 42.75C68.7972 43.1585 68.0704 43.4526 67.31 43.62C66.8259 43.7285 66.3346 43.802 65.84 43.84C65.2917 43.8588 64.7429 43.8287 64.2 43.75C62.1123 43.4314 60.0877 42.7868 58.2 41.84C56.2703 40.7698 54.5711 39.3289 53.2 37.6C50.4897 34.1095 49.2386 29.704 49.71 25.31C49.9342 22.7413 50.6113 20.2326 51.71 17.9C52.8009 15.5415 54.359 13.4289 56.29 11.69C58.4384 9.85162 60.9599 8.50092 63.6807 7.73095C66.4014 6.96099 69.2568 6.79008 72.05 7.22999C75.4337 7.70812 78.6257 9.08998 81.29 11.23C83.2937 12.8605 84.918 14.9079 86.05 17.23C86.357 17.7968 86.6146 18.389 86.82 19C87.03 19.6 87.28 20.19 87.44 20.79C87.7687 22.0083 88.0126 23.248 88.17 24.5C88.3941 26.4647 88.3368 28.4514 88 30.4C87.6195 32.4133 86.8703 34.339 85.79 36.08C85.548 36.4744 85.2843 36.855 85 37.22C84.7509 37.6026 84.4663 37.9608 84.15 38.29C83.8944 38.5837 83.6205 38.8609 83.33 39.12C83.05 39.33 82.78 39.52 82.54 39.68C82.1282 39.9479 81.6756 40.1471 81.2 40.27C80.8445 40.3482 80.4763 40.3485 80.1207 40.2708C79.765 40.1931 79.4305 40.0393 79.14 39.82C78.8454 39.6536 78.5675 39.4594 78.31 39.24C77.59 38.51 78.14 37.1 79.31 35.61C81.0248 33.6755 82.225 31.3404 82.8 28.82C83.0458 27.5624 83.1131 26.2764 83 25C82.9601 24.325 82.8563 23.6554 82.69 23L82.49 22L82.18 21C81.5659 19.0906 80.5025 17.3566 79.0791 15.9436C77.6556 14.5306 75.9138 13.48 74 12.88V12.76Z" fill="currentColor"/>
<path d="M28.54 55.12C28.6587 56.6176 28.9956 58.0898 29.54 59.49C29.7611 59.994 30.0289 60.4761 30.34 60.93C31.2744 62.6974 32.606 64.2241 34.23 65.39C34.6004 65.6544 34.9996 65.8759 35.42 66.05C35.8216 66.2625 36.2483 66.4238 36.69 66.53C37.26 66.67 37.83 66.82 38.4 66.93C38.9942 66.9962 39.5764 67.1443 40.13 67.37C40.49 67.52 40.43 68.17 40.05 68.8C39.8485 69.1535 39.5598 69.4493 39.2114 69.6594C38.863 69.8695 38.4666 69.9868 38.06 70C35.0778 69.8541 32.2664 68.5648 30.21 66.4C29.92 66.06 29.61 65.74 29.29 65.4C28.97 65.06 28.73 64.72 28.43 64.4C27.8297 63.7392 27.3033 63.015 26.86 62.24C26.6175 61.844 26.4068 61.4294 26.23 61C26.0251 60.5604 25.8449 60.1097 25.69 59.65C25.3947 58.7367 25.1772 57.8 25.04 56.85C24.9021 55.6955 24.8586 54.5316 24.91 53.37C25.01 52.5 25.1 51.62 25.26 50.78L25.57 49.52C25.6514 49.0986 25.7651 48.684 25.91 48.28C26.13 47.65 26.25 47 26.46 46.37C26.67 45.74 26.94 45.14 27.2 44.52C27.3141 44.25 27.4548 43.9921 27.62 43.75C28.23 42.84 28.62 42.67 29.3 42.92C29.4622 42.96 29.6197 43.017 29.77 43.09C30.0174 43.2572 30.1967 43.5075 30.2756 43.7954C30.3545 44.0834 30.3276 44.3901 30.2 44.66C29.5663 46.6221 29.075 48.6273 28.73 50.66C28.4969 52.1388 28.4633 53.6423 28.63 55.13L28.54 55.12Z" fill="currentColor"/>
<path d="M40 45.32C40.24 49.6 40.45 53.84 40.83 58.05C40.96 59.58 41.25 61.05 41.42 62.6L41.69 64.72L41.85 65.72L42 66.53C42.06 66.84 42.12 67.14 42.2 67.44C42.3011 67.8213 42.3416 68.2161 42.32 68.61C42.3086 68.7748 42.2852 68.9386 42.25 69.1C42.2307 69.268 42.1649 69.4273 42.06 69.56C41.5765 70.1528 40.9403 70.6023 40.22 70.86C39.84 71.03 39.45 71.17 39.06 71.31L38.48 71.52L38.08 71.64L36.58 72.08C34.58 72.62 32.58 73.08 30.58 73.48C28.14 73.96 25.69 74.48 23.24 74.8C20.0734 75.4134 16.816 75.3862 13.66 74.72C12.66 74.47 12.92 73.81 13.79 73.16C14.9692 72.2889 16.3415 71.716 17.79 71.49C18.53 71.41 19.28 71.26 20.02 71.19C20.76 71.12 21.52 71.02 22.27 70.91C23.77 70.7 25.27 70.45 26.78 70.16C29.78 69.59 32.78 68.9 35.78 68.16C36.19 68.05 36.63 67.92 37.01 67.8L37.42 67.71C37.5649 67.6709 37.7031 67.6102 37.83 67.53C37.8221 67.3862 37.7918 67.2445 37.74 67.11C37.7448 67.0301 37.7448 66.95 37.74 66.87L37.59 66.2L37.28 64.63C37.09 63.63 36.93 62.54 36.8 61.5C36.26 57.17 35.94 52.86 35.62 48.56L35.48 46.56L35.41 45.62V45.12C35.41 44.79 35.41 44.45 35.34 44.12C35.34 44 35.24 44.03 35.17 44.04H34.92H34.42L29 44.53C27 44.7 25 44.88 23 45.12C20 45.51 17 46.1 14 46.54C13.33 46.64 12.68 46.78 12 46.85C9.50002 47.15 8.66002 46.85 8.00002 45.75C7.83086 45.512 7.68041 45.2613 7.55002 45C7.23002 44.17 8.18002 43.32 9.98002 42.77C12.65 42.03 15.42 41.43 18.24 40.92C21.06 40.41 23.94 40.2 26.82 39.92C28.98 39.72 31.08 39.55 33.3 39.39C34.3 39.31 35.43 39.16 36.42 39.15L37.6 39.52L38.19 39.7L38.48 39.8H38.55H38.6L38.3 40.18L38.41 40.25C38.7534 40.4327 39.0872 40.633 39.41 40.85C39.6232 41.2859 39.7554 41.7569 39.8 42.24C39.87 42.75 39.92 43.24 39.97 43.8L40.1 45.26L40 45.32Z" fill="currentColor"/>
<path d="M85.31 70.19L84.2 65.19L83.63 62.63L83.35 61.33L83.28 61V60.83V60.46C83.28 60.46 83.28 60.37 83.28 60.33C83.28 60.29 83.21 60.33 83.17 60.28C83.007 60.265 82.843 60.265 82.68 60.28H82.5L82.18 60.34L81.53 60.46L80.23 60.72C79.36 60.9 78.48 61.09 77.6 61.24L68.14 62.93C66.56 63.2 64.97 63.47 63.37 63.7L62.77 63.79H62.35L61.82 63.85H61.68C61.68 63.85 61.68 63.93 61.68 63.97L61.62 64.23C61.62 64.41 61.62 64.59 61.55 64.77C61.48 64.95 61.55 65.06 61.55 65.2V65.71C61.55 66.04 61.55 66.38 61.55 66.71C61.55 67.39 61.63 68.08 61.69 68.77C61.84 70.15 62.02 71.54 62.21 72.92C62.7 76.48 63.53 80.01 63.36 83.82C63.24 85.08 62.62 84.82 61.96 83.88C60.9891 82.5457 60.3079 81.0231 59.96 79.41L58.75 74C58.3654 72.1416 58.0949 70.2614 57.94 68.37C57.94 67.9 57.87 67.37 57.85 66.91C57.83 66.45 57.85 65.91 57.85 65.4V64.55L58.01 63.25C58.09 62.38 58.29 61.54 58.44 60.71C58.44 60.64 58.5 60.65 58.55 60.64H58.71L59.03 60.59L59.68 60.49L60.96 60.3L62.71 60L65.43 59.6C69.79 58.95 74.22 57.6 78.72 56.6C79.37 56.47 80.02 56.33 80.72 56.21L81.72 56.04L82.4 56L83.19 55.89C84.1496 55.7052 85.142 55.7989 86.05 56.16C86.2531 56.2464 86.4218 56.3976 86.53 56.59C86.61 56.73 86.71 56.93 86.81 57.12C86.91 57.31 86.97 57.58 87.05 57.8C87.13 58.02 87.12 58.35 87.16 58.62L87.42 59.97L87.6 60.82L88 62.49L88.81 66C89.51 69 90.2 72 90.75 75.14C90.96 76.31 91.14 77.5 91.25 78.72C91.3125 79.3614 91.3426 80.0056 91.34 80.65C91.3614 81.4634 91.2465 82.2746 91 83.05C90.92 83.23 90.82 83.4 90.73 83.58C90.64 83.76 90.47 83.87 90.29 83.97C89.9502 84.1813 89.5836 84.3461 89.2 84.46C88.8 84.58 88.4 84.69 88 84.77L87 85C85.82 85.21 84.67 85.39 83.52 85.58C79.95 86.19 76.52 86.83 73.01 87.47C72.25 87.61 71.51 87.79 70.74 87.92C67.89 88.37 66.92 88.11 66.13 87.43C65.9404 87.2885 65.7631 87.1313 65.6 86.96C65.39 86.69 65.55 86.37 66.02 85.96C66.7025 85.4209 67.4696 84.9985 68.29 84.71C71.4268 83.6523 74.6263 82.7907 77.87 82.13C79.49 81.74 81.14 81.5 82.77 81.24L85.19 80.85L86.36 80.64L86.87 80.53V80.3C86.87 80.18 86.87 80.05 86.87 79.91C86.87 79.77 86.87 79.38 86.81 79.1C86.81 78.55 86.68 77.98 86.6 77.4C86.26 75.07 85.74 72.65 85.19 70.25L85.31 70.19Z" fill="currentColor"/>
</svg>
