<svg width="96" height="96" viewBox="0 0 96 96" fill="none" xmlns="http://www.w3.org/2000/svg">
<path d="M51.6 10.11C55.0413 8.18528 58.8815 7.08347 62.8198 6.89089C66.758 6.69832 70.6874 7.4202 74.3 9C77.8668 10.5543 81.0258 12.9124 83.53 15.89C84.1717 16.5973 84.7537 17.3566 85.27 18.16L86.08 19.34C86.35 19.73 86.54 20.17 86.77 20.58C87.19 21.42 87.68 22.24 88.03 23.1L89.03 25.73C89.8968 28.3399 90.3818 31.0614 90.47 33.81C90.5505 36.5287 90.2133 39.2436 89.47 41.86C89.1333 43.0003 88.736 44.1219 88.28 45.22C87.8036 46.3029 87.266 47.358 86.67 48.38C86.0765 49.4156 85.4255 50.4171 84.72 51.38C83.9678 52.299 83.1631 53.1738 82.31 54C81.4875 54.8382 80.6124 55.6231 79.69 56.35C78.7607 57.0739 77.7889 57.7418 76.78 58.35C74.7968 59.4745 72.6893 60.3638 70.5 61C66.0891 62.4246 61.367 62.584 56.87 61.46C54.6843 60.9072 52.5726 60.0948 50.58 59.04C48.6315 58.0473 46.7656 56.9003 45 55.61L43.43 54.42L42.19 53.42C41.9556 53.2176 41.701 53.04 41.43 52.89C41.3587 52.8656 41.2813 52.8656 41.21 52.89C41.14 52.89 41.1 52.99 41.04 53.04L40.71 53.36C39.16 54.94 37.6 56.53 36 58.1L31 63.34C27.76 66.76 24.58 70.25 21.39 73.73L16.59 78.94C15 80.68 13.28 82.3 11.59 83.94C9.50003 86.01 9.12003 85.19 10 82.66C10.6174 80.9642 11.3664 79.3192 12.24 77.74C13.4906 75.5977 14.9548 73.5875 16.61 71.74C20.0234 67.9133 23.4867 64.1367 27 60.41C28.74 58.55 30.51 56.7 32.28 54.86L34.96 52.12L36.3 50.75L38.51 48.55C38.92 48.26 39.35 47.98 39.77 47.73C39.9709 47.6466 40.1783 47.5797 40.39 47.53C40.6264 47.479 40.8684 47.4588 41.11 47.47C42.1149 47.5413 43.0758 47.9103 43.87 48.53C44.32 48.83 44.76 49.18 45.2 49.53L46.01 50.17L47.31 51.17C48.9818 52.4667 50.7616 53.6175 52.63 54.61C56.2299 56.4808 60.2887 57.2856 64.33 56.93C66.923 56.6504 69.4384 55.8764 71.74 54.65C74.0863 53.457 76.1864 51.8319 77.93 49.86C81.3978 45.8676 83.3579 40.7869 83.47 35.5C83.54 32.6564 83.0401 29.8275 82 27.18C81.4939 25.8479 80.8715 24.563 80.14 23.34L78.9 21.62C78.7065 21.3238 78.4782 21.0519 78.22 20.81L77.48 20C75.5198 17.9643 73.1271 16.3951 70.4788 15.4085C67.8305 14.4219 64.9944 14.0431 62.18 14.3C58.6387 14.6573 55.263 15.9785 52.42 18.12C51.6759 18.6361 50.9827 19.2221 50.35 19.87C50.03 20.18 49.67 20.48 49.35 20.8C49.03 21.12 48.79 21.44 48.53 21.8C47.4891 23.1328 46.7396 24.6692 46.33 26.31C45.7162 28.868 45.9047 31.5529 46.87 34C47.8696 36.5136 49.49 38.7327 51.58 40.45C53.605 42.19 56.0798 43.3234 58.72 43.72C59.9567 43.8894 61.2149 43.8057 62.4183 43.474C63.6216 43.1422 64.7449 42.5693 65.72 41.79C66.0736 41.4775 66.4075 41.1435 66.72 40.79C67.003 40.4548 67.2478 40.0893 67.45 39.7C68.0924 38.4734 68.4543 37.1195 68.5096 35.736C68.565 34.3525 68.3124 32.974 67.77 31.7C67.475 31.0505 67.0271 30.482 66.4646 30.0432C65.9021 29.6044 65.2418 29.3082 64.54 29.18C63.0096 28.8805 61.4225 29.1736 60.1 30C59.6253 30.2777 59.2241 30.6652 58.93 31.13C58.7533 31.4347 58.6537 31.778 58.64 32.13C58.6535 32.3222 58.6836 32.513 58.73 32.7C58.73 32.81 58.78 32.91 58.82 33.02L58.9 33.18C58.9107 33.2125 58.9107 33.2475 58.9 33.28C59.0126 33.4565 59.1433 33.6207 59.29 33.77C59.54 34 59.79 34.2 59.99 34.36C60.19 34.52 60.33 34.6 60.36 34.68C60.39 34.76 60.36 34.68 60.36 34.9C60.3453 35.0396 60.3453 35.1804 60.36 35.32C60.36 35.49 60.36 35.51 60.36 35.61C60.36 35.71 60.43 35.81 60.42 35.81C60.4174 35.8366 60.4174 35.8634 60.42 35.89C60 35.46 61 36.48 60.89 36.38C60.8198 36.3122 60.7427 36.2519 60.66 36.2C60.5096 36.1022 60.3486 36.0216 60.18 35.96H60.02H60.08C60.2352 35.9585 60.3896 35.9383 60.54 35.9H60.67C60.7497 35.8828 60.8269 35.8559 60.9 35.82C61.0172 35.7829 61.1283 35.729 61.23 35.66C61.289 35.6158 61.3398 35.5617 61.38 35.5C61.38 35.55 61.38 35.5 61.38 35.4C61.3944 35.3442 61.3944 35.2857 61.38 35.23C61.238 35.0062 61.0464 34.818 60.82 34.68C60.7225 34.6305 60.6385 34.5579 60.5755 34.4685C60.5125 34.3791 60.4724 34.2756 60.4585 34.1671C60.4447 34.0586 60.4577 33.9484 60.4963 33.846C60.5349 33.7437 60.598 33.6523 60.68 33.58C60.8405 33.4333 61.0271 33.318 61.23 33.24C61.6082 33.1254 62.0118 33.1254 62.39 33.24C62.8908 33.3818 63.3391 33.6668 63.68 34.06C63.8346 34.2436 63.9718 34.4411 64.09 34.65C64.1892 34.8409 64.276 35.038 64.35 35.24C64.6373 36.0931 64.6373 37.0169 64.35 37.87C64.2541 38.1646 64.1232 38.4466 63.96 38.71C63.8522 38.8699 63.7353 39.0234 63.61 39.17C63.5036 39.2965 63.3865 39.4136 63.26 39.52C62.7596 39.9916 62.1522 40.3348 61.49 40.52C61.1658 40.621 60.8294 40.6782 60.49 40.69C60.3335 40.7003 60.1765 40.7003 60.02 40.69H59.6C59.325 40.6851 59.0508 40.6584 58.78 40.61C58.5238 40.5672 58.2701 40.5104 58.02 40.44C57.0727 40.1022 56.1849 39.6162 55.39 39C54.4201 38.3683 53.6035 37.5278 53 36.54C52.8822 36.36 52.7753 36.173 52.68 35.98L52.42 35.48C52.27 35.12 52.12 34.75 51.99 34.37C51.7381 33.546 51.6001 32.6914 51.58 31.83C51.5648 30.0284 52.0871 28.2633 53.08 26.76C53.9823 25.4136 55.1577 24.2722 56.53 23.41C57.8141 22.5939 59.2276 22.0022 60.71 21.66C62.2368 21.3058 63.8133 21.2179 65.37 21.4C67.1034 21.5794 68.7715 22.1587 70.243 23.0922C71.7145 24.0258 72.9493 25.2882 73.85 26.78C74.7008 28.1613 75.3033 29.6809 75.63 31.27C76.2188 34.1732 76.0535 37.1788 75.15 40C74.6925 41.4716 74.0184 42.8669 73.15 44.14C72.91 44.47 72.67 44.8 72.41 45.14C72.15 45.48 71.85 45.79 71.56 46.08C71.0148 46.6083 70.4406 47.1057 69.84 47.57C67.3742 49.3936 64.4394 50.4759 61.38 50.69C58.515 50.8293 55.6542 50.3377 53 49.25C51.0589 48.4653 49.2378 47.4117 47.59 46.12C45.9893 44.8409 44.5518 43.3699 43.31 41.74C42.0562 40.0678 41.0461 38.2261 40.31 36.27C39.5368 34.2647 39.0944 32.1471 39 30C38.775 25.6171 40.0442 21.2876 42.6 17.72C42.911 17.2827 43.2448 16.8621 43.6 16.46L44.11 15.85L44.62 15.33L46.72 13.33C47.45 12.69 48.27 12.13 49.05 11.54C49.818 10.953 50.6381 10.4375 51.5 10L51.6 10.11Z" fill="currentColor"/>
</svg>
