<svg width="96" height="96" viewBox="0 0 96 96" fill="none" xmlns="http://www.w3.org/2000/svg">
<path d="M34.65 77.08C32.8235 75.8248 31.1665 74.3392 29.72 72.66C28.1691 70.9155 26.9886 68.8743 26.25 66.66C26.13 66.24 25.98 65.83 25.87 65.4L25.61 64.11C25.4731 63.2471 25.4396 62.3709 25.51 61.5C25.7414 58.5922 26.7008 55.7895 28.3 53.35C29.8501 51.0177 31.8572 49.0241 34.2 47.49C36.2111 46.1581 38.3644 45.0546 40.62 44.2C41.33 43.93 42.06 43.72 42.79 43.47C43.52 43.22 44.27 43.12 45 43C45.3727 42.9215 45.7502 42.8681 46.13 42.84H47.3C48.0724 42.8528 48.8394 42.9705 49.58 43.19C50.52 43.46 50.36 44.19 49.64 45.19C49.2364 45.7843 48.763 46.3282 48.23 46.81C47.9495 47.0724 47.6522 47.3162 47.34 47.54L46.86 47.84C46.6874 47.8985 46.5101 47.942 46.33 47.97C41.3097 48.7794 36.6577 51.1072 33 54.64C31.9376 55.7478 31.1588 57.0962 30.73 58.57L30.55 59.12C30.55 59.3 30.48 59.5 30.45 59.68C30.364 60.0563 30.2972 60.4368 30.25 60.82C30.168 61.5637 30.1446 62.3127 30.18 63.06C30.33 66.18 32.46 69.3 35.28 71.59C37.0305 73.0464 38.9845 74.239 41.08 75.13C44.3123 76.4851 47.7754 77.2049 51.28 77.25C53.9511 77.189 56.5936 76.6855 59.1 75.76L60.71 75.16C62.71 74.5 63.46 74.53 64.46 75.62C64.6965 75.8579 64.9202 76.1083 65.13 76.37C65.77 77.23 65.24 78.48 63.62 79.37C58.81 82.22 52.62 82.79 46.85 81.89C44.6831 81.541 42.556 80.9782 40.5 80.21C38.417 79.4066 36.4285 78.3771 34.57 77.14L34.65 77.08Z" fill="currentColor"/>
<path d="M24.6 50.1C25.7817 48.6762 27.1866 47.4537 28.76 46.48C29.4835 46.0261 30.2313 45.6121 31 45.24C31.736 44.9068 32.4906 44.6163 33.26 44.37C36.1119 43.4878 39.0368 42.862 42 42.5C44.81 42.12 47.6 41.89 50.16 41.58L54.16 41.06C55.49 40.89 56.77 40.7 58.03 40.49C61.64 39.86 65.1 38.57 66.78 36.8C66.93 36.6 67.1 36.4 67.28 36.2C67.3932 35.9757 67.5201 35.7586 67.66 35.55C67.75 35.3 67.82 35.05 67.92 34.81C68.02 34.57 68.06 34.14 68.14 33.81C68.3851 32.4442 68.3851 31.0458 68.14 29.68C67.5375 26.8237 65.9825 24.2568 63.73 22.4C61.3784 20.385 58.5233 19.0473 55.47 18.53C52.4827 17.9302 49.3807 18.3381 46.65 19.69C46.3559 19.8338 46.0719 19.9975 45.8 20.18C45.5454 20.337 45.3016 20.5107 45.07 20.7C44.6342 21.0839 44.2479 21.5206 43.92 22C43.1914 23.1144 42.6415 24.3358 42.29 25.62C41.5421 28.1423 41.6762 30.8441 42.67 33.28C43.2541 34.8113 44.1931 36.1822 45.41 37.28C46.7179 38.4358 48.17 39.4173 49.73 40.2C51.4012 41.0102 53.1373 41.6792 54.92 42.2C56.7689 42.7383 58.6491 43.1624 60.55 43.47C62.93 43.89 62.62 44.59 60.44 45.32C59.788 45.5454 59.1193 45.7192 58.44 45.84C57.5788 46.017 56.707 46.1373 55.83 46.2C53.5605 46.4432 51.2659 46.2875 49.05 45.74C47.9213 45.4478 46.8123 45.0837 45.73 44.65L44.11 44C43.56 43.71 43.05 43.35 42.52 43C40.342 41.5068 38.5329 39.5369 37.23 37.24C36.8894 36.6489 36.592 36.034 36.34 35.4C36.125 34.7433 35.9447 34.0757 35.8 33.4C35.5161 32.086 35.382 30.7442 35.4 29.4C35.4468 26.8527 35.9903 24.3391 37 22C37.5175 20.8069 38.1576 19.6708 38.91 18.61C39.3349 18.0413 39.7994 17.5033 40.3 17C40.5669 16.7226 40.8507 16.4621 41.15 16.22C41.4392 15.9705 41.7467 15.7432 42.07 15.54C44.2139 14.143 46.6309 13.2191 49.16 12.83C53.9281 12.1417 58.7903 13.0376 63 15.38C65.5114 16.717 67.7717 18.4798 69.68 20.59C71.6567 22.8088 73.079 25.4648 73.83 28.34C74.1967 29.8045 74.3715 31.3104 74.35 32.82C74.3389 33.5661 74.2821 34.3108 74.18 35.05C74.0722 35.8613 73.8915 36.6612 73.64 37.44C73.1031 39.0576 72.1996 40.5292 71 41.74C69.8849 42.8389 68.6022 43.7536 67.2 44.45C64.4587 45.7387 61.5505 46.6374 58.56 47.12C57.14 47.39 55.75 47.6 54.39 47.81L50.29 48.43C47.51 48.8 44.84 49.1 42.23 49.55C39.7135 49.928 37.2434 50.5682 34.86 51.46C33.5132 51.9096 32.2422 52.5603 31.09 53.39L30.68 53.69L30.3 54C30.0397 54.2159 29.8048 54.4608 29.6 54.73L28.93 55.58L28.6 56L28.34 56.46C27.5906 57.6518 27.09 58.9829 26.8683 60.3732C26.6467 61.7635 26.7085 63.1842 27.05 64.55C27.3255 65.6241 27.7284 66.6615 28.25 67.64C28.56 68.11 28.84 68.64 29.16 69.08L30.24 70.42C31.8247 72.1566 33.6825 73.6226 35.74 74.76C36.7923 75.3433 37.8812 75.8577 39 76.3C40.1284 76.6932 41.2767 77.027 42.44 77.3C44.7736 77.8408 47.1649 78.0927 49.56 78.05C53.134 78.0302 56.6279 76.9893 59.63 75.05C62.3751 73.2746 64.3058 70.4846 65 67.29C65.2362 65.9671 65.2362 64.6129 65 63.29C64.6339 61.5143 64.1325 59.7692 63.5 58.07C63.3457 57.5161 63.2617 56.9449 63.25 56.37C63.2863 55.8128 63.3904 55.262 63.56 54.73C63.676 54.1997 63.8298 53.6784 64.02 53.17C64.39 52.43 65.22 52.35 66.5 52.99C68.2987 54.1455 69.6959 55.8291 70.5 57.81C71.4112 59.8034 71.9371 61.9511 72.05 64.14C72.1712 66.4179 71.8311 68.6968 71.05 70.84C70.2453 72.9918 69.0635 74.983 67.56 76.72C66.0865 78.4201 64.3432 79.8661 62.4 81C58.5794 83.1504 54.2742 84.293 49.89 84.32C47.7869 84.3639 45.6843 84.2099 43.61 83.86C41.542 83.5262 39.5075 83.0109 37.53 82.32C34.5019 81.2505 31.6656 79.7007 29.13 77.73C26.4917 75.6864 24.3085 73.115 22.72 70.18C21.3321 67.8354 20.5221 65.1942 20.3569 62.4747C20.1917 59.7551 20.6761 57.0353 21.77 54.54C22.1377 53.7288 22.5483 52.9376 23 52.17L24.45 50L24.6 50.1Z" fill="currentColor"/>
</svg>
