<svg width="96" height="96" viewBox="0 0 96 96" fill="none" xmlns="http://www.w3.org/2000/svg">
<path d="M54 41.51C51.48 44.27 49 47.02 46.49 49.82C45.58 50.82 44.77 51.93 43.86 52.94L34.19 63.62C32.77 65.22 31.42 66.89 30.1 68.54C29.26 69.61 28.43 70.7 27.57 71.75L26.91 72.54L26.17 73.25C25.67 73.72 25.17 74.18 24.59 74.62C24.01 75.06 23.59 74.68 23.53 73.7C23.5152 73.0987 23.5722 72.4978 23.7 71.91C23.7723 71.5701 23.8693 71.2359 23.99 70.91L24.2 70.37C24.2998 70.2064 24.4101 70.0495 24.53 69.9C27.94 65.56 31.46 61.27 35.34 57.22C37.65 54.79 39.74 51.99 41.99 49.4C44.45 46.55 46.99 43.73 49.46 40.91L54.09 35.72C56.43 33.09 58.83 30.5 61.09 27.86L63.71 24.77C64.57 23.77 65.45 22.77 66.36 21.77C66.76 21.33 67.12 20.88 67.54 20.45C69.15 18.89 69.83 18.56 70.74 18.83C70.9501 18.8692 71.1548 18.9329 71.35 19.02C71.92 19.32 71.66 20.34 70.71 21.64L68.6 24.46L66.4 27.46L65.27 28.9C64.88 29.39 64.46 29.9 64.05 30.33L61.57 33.15C59.08 35.95 56.57 38.77 54.08 41.57L54 41.51Z" fill="currentColor"/>
<path d="M55.75 38.32C53.19 41.32 50.63 44.32 48.11 47.38C47.2 48.49 46.37 49.67 45.45 50.77C42.19 54.67 38.9 58.54 35.69 62.48C34.27 64.22 32.92 66.04 31.61 67.85C30.76 69 30 70.21 29.08 71.34C28.1749 72.4672 27.2067 73.5423 26.18 74.56C25.53 75.19 25.07 74.69 24.96 73.65C24.8391 72.2328 25.1642 70.8133 25.89 69.59C26.2617 68.9583 26.6725 68.3505 27.12 67.77L28.43 66C29.3 64.82 30.19 63.66 31.1 62.5C32.91 60.19 34.78 57.91 36.75 55.69C39.1 53 41.17 50 43.39 47.14C45.84 44 48.33 40.9 50.82 37.79L55.43 32.07C57.76 29.18 60.16 26.33 62.43 23.41C64.17 21.13 65.7 18.76 67.36 16.41C67.73 15.9 68.05 15.41 68.46 14.9C69.97 13.1 70.69 12.72 71.79 13C72.0412 13.0488 72.2885 13.1157 72.53 13.2C73.26 13.54 73.15 14.7 72.3 16.2C69.5899 20.6761 66.5832 24.9657 63.3 29.04C60.86 32.16 58.41 35.3 55.87 38.36L55.75 38.32Z" fill="currentColor"/>
<path d="M56.26 36.46C53.47 39.96 50.67 43.46 47.92 46.98C46.92 48.27 46.06 49.65 45.04 50.98L39.65 57.73C37.82 59.95 35.98 62.17 34.19 64.42C32.6 66.42 31.19 68.53 29.71 70.61C28.79 71.96 27.93 73.34 26.99 74.67C25.979 75.9581 24.8797 77.1744 23.7 78.31C22.95 79.01 22.37 78.47 22.08 77.24C21.7124 75.5691 21.8588 73.8262 22.5 72.24C25.9529 66.5165 29.8411 61.0671 34.13 55.94C36.77 52.94 39.02 49.37 41.47 46.09C44.19 42.49 46.96 38.92 49.71 35.35L54.8 28.75C57.31 25.38 60.07 22.16 62.52 18.75C64.47 16.16 66.07 13.37 68.01 10.75C68.43 10.18 68.83 9.59001 69.29 9.04001C71.1 7.17001 72.09 6.74001 73.13 7.00001C73.3712 7.02563 73.6091 7.07589 73.84 7.15001C74.5 7.44001 74.27 8.65001 73.49 10.39C71.12 15.69 67.73 20.66 64.38 25.7C61.93 29.47 59.09 32.98 56.38 36.59L56.26 36.46Z" fill="currentColor"/>
<path d="M55.43 74.72C54 75.85 52.5 77 51.06 78.14C50.53 78.56 50.06 79.05 49.55 79.47C47.68 80.94 45.8 82.41 43.99 83.94C43.18 84.61 42.47 85.4 41.72 86.12C40.843 87.0867 39.9008 87.9921 38.9 88.83C38.58 89.06 38.12 88.72 37.9 88.08C37.7652 87.709 37.7107 87.3136 37.74 86.92C37.7566 86.5133 37.8922 86.1204 38.13 85.79C39.8362 83.5415 41.9166 81.6032 44.28 80.06C45.67 79.06 46.86 77.83 48.16 76.73C49.46 75.63 51.06 74.35 52.52 73.18L55.17 71L57.17 69.36C57.86 68.83 58.56 68.3 59.23 67.75C60.23 66.89 61.23 65.94 62.23 65.07C62.46 64.88 62.65 64.67 62.91 64.49C63.2285 64.2229 63.6053 64.0345 64.01 63.94C64.1527 63.9063 64.3015 63.9088 64.4429 63.9472C64.5844 63.9856 64.714 64.0588 64.82 64.16C64.928 64.237 65.0255 64.3277 65.11 64.43C65.1655 64.5261 65.1996 64.633 65.21 64.7434C65.2203 64.8539 65.2067 64.9653 65.17 65.07C65.0958 65.3643 64.9556 65.6379 64.76 65.87C63.24 67.64 61.51 69.46 59.71 71.19C59.0602 71.834 58.3723 72.4384 57.65 73L55.49 74.76L55.43 74.72Z" fill="currentColor"/>
<path d="M59.12 69.7L54 74.43C53.38 75.01 52.85 75.68 52.23 76.25C50.02 78.25 47.78 80.25 45.6 82.31C44.6424 83.2241 43.7344 84.1888 42.88 85.2C41.7 86.42 40.76 87.86 39.04 88.59C38.52 88.84 38.13 88.32 37.91 87.46C37.7793 86.9834 37.7022 86.4937 37.68 86C37.6495 85.7309 37.6495 85.4592 37.68 85.19C37.7504 84.9585 37.8622 84.7416 38.01 84.55C38.54 83.88 39.08 83.21 39.63 82.55C40.18 81.89 40.83 81.32 41.45 80.71C42.7031 79.5056 44.0182 78.3673 45.39 77.3C47.0146 75.8822 48.554 74.3696 50 72.77L55 67.88L58.1 64.88C59.64 63.33 61.27 61.88 62.74 60.27C63.89 59.03 64.84 57.65 65.9 56.35C66.14 56.06 66.34 55.75 66.6 55.48C67.6 54.48 68.09 54.35 69.03 54.93C69.25 55.07 69.48 55.19 69.68 55.34C69.9954 55.6197 70.1926 56.0088 70.2316 56.4285C70.2706 56.8482 70.1485 57.267 69.89 57.6C68.2362 60.1993 66.3158 62.6191 64.16 64.82C62.58 66.54 60.87 68.14 59.16 69.82L59.12 69.7Z" fill="currentColor"/>
<path d="M59.88 65.89C58.04 67.82 56.16 69.73 54.28 71.64C53.6 72.34 53.02 73.12 52.28 73.81C49.86 76.26 47.43 78.7 45.1 81.23C44.1 82.37 43.1 83.53 42.1 84.68C41 86.17 39.74 87.76 38.5 89C38.12 89.38 37.65 89.18 37.43 88.44C37.185 87.424 37.3313 86.353 37.84 85.44C38.84 83.69 39.97 82 41.15 80.37C42.33 78.74 43.79 77.37 45.23 75.95C47 74.31 48.4 72.25 50 70.39C51.77 68.39 53.56 66.39 55.42 64.39L58.8 60.74C60.5 58.88 62.25 57.05 63.8 55.13C65.05 53.64 66.15 52.13 67.35 50.57C67.5886 50.2068 67.867 49.8714 68.18 49.57C69.38 48.51 69.97 48.36 70.78 48.65C70.9657 48.7044 71.1463 48.7747 71.32 48.86C71.85 49.14 71.81 49.98 71.32 51.09L70.78 52.34C70.5817 52.7354 70.3613 53.1193 70.12 53.49C69.66 54.24 69.12 54.99 68.67 55.73C67.689 57.2362 66.5924 58.6639 65.39 60C63.63 62 61.77 64 59.97 66L59.88 65.89Z" fill="currentColor"/>
</svg>
