<svg width="96" height="96" viewBox="0 0 96 96" fill="none" xmlns="http://www.w3.org/2000/svg">
<path d="M45.27 54.05C46.33 53.6 47.4 53.15 48.42 52.63C48.8 52.45 49.09 52.14 49.42 51.96L51.42 51.02C52.1 50.71 52.81 50.44 53.42 50.09C53.9867 49.7791 54.5082 49.3922 54.97 48.94C55.5006 48.3373 56.1958 47.9029 56.97 47.69C57.24 47.69 57.83 48.07 58.3 48.76C58.5517 49.0817 58.7333 49.4526 58.8332 49.8487C58.9331 50.2448 58.949 50.6574 58.88 51.06C58.76 51.31 58.64 51.53 58.52 51.75L58.34 52.09L58.09 52.35C57.7757 52.683 57.4418 52.9969 57.09 53.29C56.377 53.8684 55.5771 54.3308 54.72 54.66C53.7484 55.1276 52.8354 55.7083 52 56.39C51 57 49.88 57.55 48.81 58.1L46.81 59.1C45.81 59.63 44.81 60.1 43.87 60.7C43.2083 61.2802 42.5838 61.9014 42 62.56C41.8546 62.694 41.6973 62.8145 41.53 62.92C41.3945 62.9933 41.244 63.0344 41.09 63.04C40.92 63.0026 40.7619 62.9236 40.63 62.81C40.2775 62.5309 39.9763 62.1925 39.74 61.81C39.6 61.59 39.45 61.38 39.33 61.18C39.1156 60.819 38.9793 60.417 38.93 60C38.8601 59.5863 38.8601 59.1637 38.93 58.75C39.1038 58.3471 39.3043 57.9562 39.53 57.58C39.7683 57.2834 40.0364 57.012 40.33 56.77C40.9081 56.2912 41.531 55.8693 42.19 55.51C43.19 54.94 44.19 54.51 45.19 53.93L45.27 54.05Z" fill="currentColor"/>
<path d="M53.23 48.79C52.48 48.17 51.71 47.55 50.92 46.97C50.63 46.76 50.29 46.65 50 46.42C49 45.63 48 44.8 47 44.02C46.54 43.69 46.08 43.34 45.6 43.02C44.9199 42.7112 44.3335 42.2282 43.9 41.62C43.77 41.4 44.12 40.95 44.62 40.54C45.12 40.13 45.75 39.73 46.13 39.84C46.8105 40.0158 47.4786 40.2363 48.13 40.5C48.7588 40.8318 49.3241 41.2719 49.8 41.8C50.5059 42.3282 51.2838 42.7525 52.11 43.06C52.96 43.52 53.8 44.06 54.65 44.54L56.22 45.54C57.0027 46.0439 57.8104 46.5078 58.64 46.93C59.3 47.25 60.14 47.26 60.86 47.53C61.0301 47.568 61.1972 47.6181 61.36 47.68C61.91 48 61.88 48.4 61.18 49.52C61.02 49.77 60.87 50.03 60.7 50.27C60.3236 50.9202 59.717 51.4055 59 51.63C57.744 51.731 56.4985 51.3361 55.53 50.53C54.76 50.04 54.02 49.43 53.22 48.89L53.23 48.79Z" fill="currentColor"/>
<path d="M42.14 85.81C36.4281 85.1655 30.9616 83.1293 26.22 79.88C23.904 78.2206 21.8132 76.2677 20 74.07C18.1612 71.9123 16.5929 69.5381 15.33 67C13.5397 63.3714 12.2898 59.5004 11.62 55.51C10.3716 48.4581 11.0629 41.1995 13.62 34.51C16.2235 27.8546 20.749 22.1247 26.62 18.05C31.7889 14.4421 37.7972 12.2213 44.07 11.6C48.0674 11.1642 52.1113 11.5038 55.98 12.6C56.9449 12.8584 57.8961 13.1655 58.83 13.52L60.18 14.16C60.63 14.38 61.05 14.64 61.49 14.88L62.77 15.62C63.19 15.88 63.59 16.17 63.99 16.44L65.2 17.27C65.59 17.56 65.97 17.87 66.35 18.17C68.22 19.72 67.6 19.98 65.45 19.77C64.45 19.63 62.89 19.53 61.2 19.37C60.34 19.37 59.42 19.3 58.49 19.22C58.01 19.22 57.55 19.16 57.05 19.22C56.55 19.28 56.13 18.99 55.65 18.91C54.0051 18.5355 52.3333 18.2914 50.65 18.18L49.4 18.11C48.98 18.11 48.56 18.11 48.14 18.11C47.3073 18.065 46.4727 18.065 45.64 18.11C42.2996 18.2144 39.0018 18.8908 35.89 20.11C34.3196 20.7193 32.8013 21.455 31.35 22.31C29.898 23.1973 28.5202 24.2005 27.23 25.31C24.5821 27.5413 22.3363 30.2099 20.59 33.2C18.4306 36.9365 17.1324 41.1079 16.79 45.41C16.4929 49.8132 16.9014 54.2357 18 58.51C18.5872 60.8482 19.4289 63.1151 20.51 65.27C21.566 67.4202 22.9118 69.4155 24.51 71.2C27.7669 74.7331 31.9103 77.3297 36.51 78.72C42.3194 80.3843 48.4587 80.5289 54.34 79.14C58.8611 78.0942 63.1949 76.3607 67.19 74C69.1498 72.864 70.9834 71.5232 72.66 70C73.4723 69.2519 74.2153 68.4319 74.88 67.55L75.88 66.24C76.17 65.78 76.42 65.24 76.7 64.81C78.3139 61.8479 79.1951 58.5424 79.27 55.17C79.3341 51.8326 78.8164 48.5096 77.74 45.35C77.24 43.97 76.74 42.64 76.1 41.35C75.01 38.85 74.1 37.35 73.78 36.02C73.6359 35.4478 73.562 34.8601 73.56 34.27C73.588 33.7049 73.7062 33.1478 73.91 32.62C74.0648 32.091 74.2552 31.5732 74.48 31.07C74.9 30.33 75.73 30.24 76.93 30.81C78.6296 31.711 80.0664 33.0376 81.1 34.66C83.2643 37.7515 84.8906 41.1865 85.91 44.82C86.92 48.6429 87.225 52.6178 86.81 56.55C86.112 62.7661 83.4456 68.5963 79.2 73.19L77 75.32C76.6289 75.6865 76.2275 76.021 75.8 76.32L74.57 77.22C73.3996 78.075 72.1773 78.8565 70.91 79.56C69.66 80.22 68.43 80.92 67.14 81.56C64.5622 82.7825 61.8861 83.7861 59.14 84.56C53.6209 86.1398 47.8505 86.6489 42.14 86.06V85.81Z" fill="currentColor"/>
<path d="M60.68 56.7C59.81 57.2 58.92 57.7 58.04 58.12L57.56 58.37L57.19 58.54L56.46 58.89L53.54 60.23C51.6 61.1033 49.6433 61.9433 47.67 62.75C46.95 63.05 46.24 63.38 45.53 63.75L44.26 64.3C43.66 64.56 43.02 64.8 42.41 65.01C41.399 65.4182 40.3459 65.7133 39.27 65.89C38.4292 66.0318 37.5658 65.8534 36.85 65.39C36.38 65.22 36.29 64.8 36.07 64.39L35.55 63.16C35.3331 62.1204 35.2192 61.0619 35.21 60C35.15 57.56 35.21 56.65 35.21 55.2L35.4 51.15C35.49 48.77 35.4 46.38 35.3 44.04C35.22 42.53 35.07 41.04 34.97 39.54C34.9052 38.8052 34.8852 38.0672 34.91 37.33L35.11 35.15C35.2 34.37 35.88 34.08 37.03 34.7C37.7174 35.1018 38.3409 35.604 38.88 36.19C39.2067 36.521 39.4921 36.8904 39.73 37.29C39.9302 37.6928 40.0653 38.1248 40.13 38.57C40.5803 41.6965 40.8707 44.8439 41 48C41.1785 51.1093 41.1317 54.2274 40.86 57.33C40.77 58.11 40.7 58.16 40.67 58.54C40.6284 58.8528 40.6592 59.171 40.76 59.47C41.0688 59.4445 41.3703 59.3632 41.65 59.23L42.72 58.82C46.5 57.24 50.31 55.5 54.01 53.64L54.86 53.2L55.28 53.01L56.15 52.59C56.8083 52.2903 57.4293 51.9144 58 51.47C58.11 51.39 58.25 51.2 58.08 51.12L57.78 50.85C57.5589 50.6833 57.3485 50.503 57.15 50.31L56.22 49.66L55.74 49.32L55.48 49.14L55 48.85C53.81 48.09 52.62 47.34 51.41 46.62C50.2 45.9 48.71 45.18 47.41 44.38C46.053 43.6031 44.7378 42.7552 43.47 41.84C42.9 41.42 42.32 41.01 41.77 40.53C41.3335 40.1309 40.9503 39.6772 40.63 39.18C40.3985 38.803 40.2296 38.391 40.13 37.96C40.0763 37.6095 40.0938 37.2517 40.1815 36.9081C40.2691 36.5645 40.425 36.242 40.64 35.96C40.8106 35.6843 41.0082 35.4264 41.23 35.19C41.4377 35.0294 41.6765 34.9136 41.9312 34.8499C42.186 34.7863 42.4511 34.7761 42.71 34.82C43.4004 34.8567 44.0782 35.0194 44.71 35.3C46.89 36.3 49.23 37.44 51.71 38.55C52.3184 38.8435 52.9064 39.1776 53.47 39.55L55.22 40.61L58.76 42.84L60.02 43.64C60.62 44.03 61.18 44.44 61.71 44.86L63.33 46.11L64.73 47.38C65.1676 47.6929 65.513 48.1178 65.73 48.61L66.11 49.24C66.1805 49.4392 66.2373 49.643 66.28 49.85L66.43 50.44C66.4597 50.6791 66.4597 50.9209 66.43 51.16C66.3 51.58 66.31 51.95 66.17 52.35C65.9869 52.7641 65.7695 53.1621 65.52 53.54C65.1669 53.9775 64.7754 54.3824 64.35 54.75C64.05 54.93 63.79 55.12 63.47 55.28C63.1535 55.4316 62.8463 55.6019 62.55 55.79C62 56.16 61.43 56.51 60.84 56.85L60.68 56.7Z" fill="currentColor"/>
</svg>
