<svg width="96" height="96" viewBox="0 0 96 96" fill="none" xmlns="http://www.w3.org/2000/svg">
<path d="M18.94 69.84C19.1218 69.5746 19.2728 69.2895 19.39 68.99C19.4297 68.9831 19.4703 68.9831 19.51 68.99C19.6303 68.9529 19.7474 68.9061 19.86 68.85C20.05 68.69 19.75 68.96 19.7 69.13C19.7 69.13 19.59 69.07 19.41 69.05H19.3C19.3 69.05 19.3 69.05 19.19 69.05C18.8677 69.1192 18.5529 69.2197 18.25 69.35C16.9687 69.9163 15.6566 70.4104 14.32 70.83C13.3112 71.1211 12.2456 71.1555 11.22 70.93C10.9203 70.8396 10.6318 70.7155 10.36 70.56C9.96678 70.3212 9.6508 69.974 9.45004 69.56C9.09996 68.5867 9.12132 67.5185 9.51004 66.56C9.68692 66.1607 9.91192 65.7846 10.18 65.44C10.48 65.11 10.79 64.79 11.18 64.44C12.2001 63.5422 13.3455 62.7977 14.58 62.23C14.8848 62.0854 15.1818 61.9252 15.47 61.75C15.7 61.61 16.01 61.44 16 61.39C16.0721 61.3242 16.127 61.2418 16.16 61.15C16.1774 61.1098 16.201 61.0727 16.23 61.04L16.28 60.85L16.34 60.59H16.52C16.6023 60.5665 16.6826 60.5364 16.76 60.5C16.6885 60.5997 16.6281 60.707 16.58 60.82C16.58 60.87 16.52 60.82 16.41 60.82C15.5542 60.8469 14.7076 61.0054 13.9 61.29C12.97 61.56 12.02 61.85 11.02 62.1C10.39 62.25 10.24 61.74 10.48 60.97C10.822 59.9271 11.5332 59.0451 12.48 58.49C13 58.2124 13.5341 57.9621 14.08 57.74C14.7193 57.4726 15.3923 57.2943 16.08 57.21C16.605 57.1448 17.1376 57.1788 17.65 57.31C18.0439 57.4137 18.4164 57.5864 18.75 57.82C19.163 58.0971 19.5055 58.467 19.75 58.9C20.1116 59.5569 20.2846 60.3009 20.25 61.05C20.2373 61.2951 20.2072 61.5391 20.16 61.78C20.1169 62.0085 20.0533 62.2328 19.97 62.45C19.88 62.7 19.78 62.95 19.67 63.19C19.5485 63.4105 19.415 63.6241 19.27 63.83L19.05 64.13C19 64 19 64 19 64L18.85 64.12H18.59C18.2095 64.1907 17.835 64.291 17.47 64.42C16.81 64.63 16.47 65.14 16.56 65.56C16.64 65.77 16.92 65.75 17.11 65.71L17.66 65.55C18.0833 65.3944 18.5227 65.2871 18.97 65.23C19.05 65.23 19.06 65.23 19.42 65.23C19.78 65.23 19.92 65.29 20.17 65.33C20.433 65.3793 20.6907 65.453 20.94 65.55C21.223 65.6391 21.4922 65.767 21.74 65.93C22.0114 66.1013 22.26 66.3063 22.48 66.54C23.0616 67.2324 23.3646 68.1164 23.33 69.02C23.2935 70.1554 22.9701 71.2632 22.39 72.24C22.1133 72.7292 21.7774 73.1826 21.39 73.59C21.27 73.7 21.2 73.8 21.05 73.92C20.9 74.04 20.75 74.16 20.63 74.24C20.404 74.3826 20.1703 74.5128 19.93 74.63C19.2 74.95 18.56 75.14 17.82 75.47C17.4695 75.6162 17.1346 75.7971 16.82 76.01C16.52 76.2 16.17 76.53 16.35 76.9C16.53 77.27 16.92 77.19 17.25 77.17C17.58 77.15 17.95 77.09 18.25 77.05C18.7822 76.963 19.3235 76.9462 19.86 77H20.06L20.27 77.09C20.5624 77.2049 20.8408 77.3525 21.1 77.53C21.4574 77.7421 21.7695 78.0227 22.0183 78.3555C22.2671 78.6884 22.4478 79.0671 22.55 79.47C22.5567 79.7284 22.5032 79.9849 22.3939 80.2191C22.2846 80.4534 22.1224 80.6591 21.92 80.82C21.745 81.003 21.5543 81.1703 21.35 81.32C21.0023 81.5119 20.5939 81.5621 20.21 81.46C19.797 81.3951 19.4039 81.2378 19.06 81C18.8753 80.8482 18.6655 80.7298 18.44 80.65L18.27 80.58H18.18L17.88 80.49C17.6595 80.396 17.4181 80.3615 17.18 80.39C16.9 80.39 16.65 80.39 16.3 80.45C15.6365 80.535 14.9689 80.5851 14.3 80.6C14.0224 80.5971 13.7452 80.5771 13.47 80.54C13.25 80.54 12.99 80.46 12.82 80.41C12.5122 80.3284 12.2139 80.2144 11.93 80.07C11.7367 79.9894 11.5524 79.8889 11.38 79.77C11.1461 79.6239 10.934 79.4455 10.75 79.24C10.4877 78.935 10.3025 78.5715 10.21 78.18C10.1158 77.8554 10.0753 77.5176 10.09 77.18L10.19 76.41C10.2206 75.9379 10.3835 75.4839 10.66 75.1C10.7561 74.9178 10.8811 74.7523 11.03 74.61C11.19 74.45 11.32 74.29 11.5 74.13L12.05 73.62C12.28 73.46 12.55 73.31 12.79 73.15C13.03 72.99 13.32 72.83 13.59 72.67C13.8702 72.4986 14.1607 72.345 14.46 72.21L16.33 71.32L17.27 70.86L17.88 70.54C17.9549 70.5111 18.0318 70.4877 18.11 70.47L18.36 70.83C18.5329 71.0613 18.7199 71.2817 18.92 71.49L19.07 71.65L17.98 70.47C18.275 70.2626 18.5208 69.9929 18.7 69.68L18.94 69.84Z" fill="currentColor"/>
<path d="M23.42 66.67L23.75 68.94C23.82 69.71 23.91 70.47 23.96 71.23C23.96 71.79 24.14 72.32 24.15 72.88C24.1449 74.8446 23.9473 76.8039 23.56 78.73C23.43 79.59 23.3 80.44 23.18 81.29C23.0522 82.4181 22.6468 83.4969 22 84.43C21.77 84.72 21.25 84.43 20.75 83.96C20.2235 83.5488 19.8674 82.9577 19.75 82.3C19.8265 80.3398 20.0471 78.3878 20.41 76.46C20.5077 75.2187 20.4607 73.9704 20.27 72.74C20.21 72.05 20.16 71.36 20.06 70.68C19.96 70 19.88 69.3 19.75 68.61C19.62 67.76 19.4 66.93 19.2 66.09C18.9101 64.8236 18.5085 63.5855 18 62.39C17.4844 61.5214 16.8956 60.6984 16.24 59.93C16.11 59.75 15.95 59.6 15.83 59.41C15.41 58.71 15.53 58.35 16.34 57.66C16.53 57.51 16.7 57.34 16.9 57.2C17.1659 56.9677 17.5032 56.8331 17.8559 56.8186C18.2087 56.804 18.5559 56.9104 18.84 57.12C19.2485 57.4271 19.6361 57.7612 20 58.12C20.3375 58.5048 20.6388 58.9199 20.9 59.36C21.4369 60.2434 21.8922 61.1739 22.26 62.14C22.7945 63.5953 23.2289 65.0854 23.56 66.6L23.42 66.67Z" fill="currentColor"/>
<path d="M46.62 41.46C43.082 46.3485 38.592 50.4711 33.42 53.58C32.49 54.14 31.55 54.69 30.61 55.23C29.6655 55.7598 28.6942 56.2404 27.7 56.67C25.1251 57.774 22.471 58.6832 19.76 59.39C18.41 59.72 17.07 60.08 15.7 60.32C15.02 60.45 14.35 60.59 13.7 60.71L12.7 60.85H12.27C12.0612 60.8686 11.8541 60.9021 11.65 60.95C11.5857 61.0287 11.539 61.1204 11.5131 61.2187C11.4872 61.317 11.4827 61.4198 11.5 61.52C11.5056 61.7278 11.5257 61.935 11.56 62.14V62.31L11.63 62.62L11.79 63.3C12.15 64.84 12.63 66.41 13.07 68.01C13.51 69.61 13.75 71.27 13.99 72.93C14.3432 75.1153 14.4104 77.3373 14.19 79.54C13.9241 81.8499 13.0435 84.0462 11.64 85.9C10.64 87.03 10.09 86.19 9.80002 84.8C9.64002 84.1 9.49002 83.25 9.37002 82.38C9.20961 81.4626 9.15592 80.5297 9.21002 79.6C9.29202 77.9961 9.25525 76.3884 9.10002 74.79C8.90096 73.0863 8.61391 71.394 8.24002 69.72C8.00002 68 7.81002 66.19 7.47002 64.3L7.18002 62.46C7.09099 62.0379 7.03085 61.6103 7.00002 61.18C6.95971 60.7743 6.95971 60.3657 7.00002 59.96C7.09197 59.216 7.40954 58.5181 7.91002 57.96C8.51127 57.4636 9.23168 57.1327 10 57L11.34 56.79L12 56.7L12.36 56.65C12.85 56.65 13.36 56.54 13.8 56.46C18.735 55.6439 23.5041 54.0295 27.92 51.68C32.823 49.2391 37.1859 45.8385 40.75 41.68C42.9461 39.0827 44.8508 36.2525 46.43 33.24C47.23 31.91 47.98 30.53 48.77 29.13C49.17 28.42 49.59 27.73 50.05 26.97C50.2947 26.4762 50.6554 26.049 51.1012 25.7251C51.5471 25.4011 52.0648 25.1901 52.61 25.11H53.22C53.3765 25.1002 53.5335 25.1002 53.69 25.11C54.0265 25.13 54.3609 25.1769 54.69 25.25C55.3532 25.3859 55.9867 25.64 56.56 26C57.671 26.758 58.4951 27.8674 58.9 29.15C59.5246 31.3398 59.6171 33.6472 59.17 35.88C58.9888 36.9527 58.7349 38.0118 58.41 39.05C58.0634 40.0808 57.6389 41.0837 57.14 42.05C56.7198 42.9112 56.242 43.743 55.71 44.54C54.9931 45.6373 54.0733 46.5876 53 47.34C52.7243 47.5378 52.4093 47.6741 52.0763 47.7397C51.7433 47.8052 51.4002 47.7985 51.07 47.72C50.7982 47.6871 50.5323 47.6164 50.28 47.51C49.57 47.11 50.21 45.84 51.41 43.97C53.1219 41.1194 54.3359 37.9981 55 34.74C55.3442 33.3268 55.3716 31.855 55.08 30.43C54.9879 30.006 54.7762 29.6174 54.47 29.31C54.1515 29.0346 53.7505 28.8728 53.33 28.85C53.247 28.8395 53.163 28.8395 53.08 28.85C53.08 28.85 53.08 28.85 53.13 28.85C53.0582 28.9373 52.9946 29.031 52.94 29.13L52.72 29.46C52.59 29.75 52.49 30.01 52.37 30.31L51 34.06C50.7493 34.7236 50.4588 35.3714 50.13 36C49.79 36.63 49.43 37.25 49.07 37.87C48.33 39.1 47.56 40.32 46.72 41.5L46.62 41.46Z" fill="currentColor"/>
<path d="M54.85 89.51C52.29 89.32 49.85 88.95 47.32 88.63C46.41 88.49 45.5 88.48 44.6 88.33C41.43 87.77 38.28 87.11 35.15 86.4C33.76 86.07 32.36 85.82 30.96 85.55C30.07 85.38 29.16 85.21 28.26 84.99L27.58 84.79L27 84.42C26.5757 84.1641 26.1712 83.8766 25.79 83.56C25.31 83.16 25.57 82.86 26.22 82.56C26.54 82.38 26.97 82.16 27.41 81.94C27.65 81.83 27.91 81.71 28.17 81.61L28.56 81.47C28.6762 81.4559 28.7938 81.4559 28.91 81.47C32.29 82.13 35.91 82.52 39.41 83.56C41.5912 84.0203 43.8043 84.3144 46.03 84.44C48.47 84.7267 50.9067 84.9633 53.34 85.15L55.59 85.27H57.82C58.8845 85.2452 59.9465 85.155 61 85C61.238 84.9699 61.4725 84.9163 61.7 84.84C61.9186 84.7831 62.1326 84.7096 62.34 84.62C62.5607 84.5211 62.7745 84.4075 62.98 84.28C63.1474 84.1811 63.3077 84.0708 63.46 83.95C63.6447 83.815 63.8007 83.6448 63.9192 83.4491C64.0376 83.2534 64.1161 83.0362 64.15 82.81C64.1649 82.598 64.1118 82.3868 63.9985 82.207C63.8853 82.0271 63.7176 81.8881 63.52 81.81C63.3676 81.7548 63.2102 81.7147 63.05 81.69C62.9489 81.6581 62.8565 81.6033 62.78 81.53C62.7001 81.403 62.6394 81.2648 62.6 81.12C62.4562 80.627 62.4087 80.1109 62.46 79.6C62.46 79.32 62.46 79.05 62.46 78.8C62.4834 78.5822 62.5536 78.372 62.6658 78.1839C62.778 77.9958 62.9295 77.8341 63.11 77.71C63.3516 77.5299 63.6094 77.3726 63.88 77.24C64.04 77.18 64.18 77.04 64.38 77.06L65.03 77.18C66.4332 77.4564 67.6819 78.2485 68.53 79.4C68.9316 79.9859 69.2325 80.6348 69.42 81.32C69.5082 82.0343 69.471 82.7585 69.31 83.46C69.11 84.91 67.82 86.1 66.63 87.15C66.0884 87.5971 65.5058 87.9922 64.89 88.33L64.16 88.69C63.8705 88.8128 63.5732 88.9164 63.27 89C62.4892 89.2592 61.68 89.4237 60.86 89.49C60.5062 89.5477 60.1485 89.5778 59.79 89.58H58.79C58.1 89.58 57.46 89.58 56.79 89.58C56.12 89.58 55.47 89.58 54.79 89.52L54.85 89.51Z" fill="currentColor"/>
<path d="M73.49 69.37C73.64 69.57 73.76 69.78 73.9 69.99L74.09 70.3C74.1303 70.4298 74.1539 70.5642 74.16 70.7C74.16 71.25 74.29 71.79 74.29 72.33V73.12C74.3249 73.3788 74.3249 73.6411 74.29 73.9L74.14 74.66C74.0763 74.8803 73.9857 75.0919 73.87 75.29C73.73 75.59 73.61 75.88 73.48 76.12C73.3667 76.3798 73.2223 76.6249 73.05 76.85C72.4837 77.5838 71.7722 78.1931 70.96 78.64C70.223 79.071 69.4235 79.3848 68.59 79.57C67.8824 79.7632 67.1534 79.8674 66.42 79.88C65.9417 79.9343 65.4573 79.8905 64.9965 79.7512C64.5357 79.6119 64.1082 79.3801 63.74 79.07C63.51 78.87 63.81 78.5 64.22 78.15C64.5506 77.8147 64.9596 77.5672 65.41 77.43C65.9931 77.42 66.5719 77.3291 67.13 77.16C67.7276 77.0086 68.3127 76.8113 68.88 76.57C69.2101 76.4032 69.5028 76.1709 69.74 75.8872C69.9773 75.6035 70.1543 75.2744 70.26 74.92C70.4 74.57 70.43 74.29 70.51 74.1C70.5698 73.8478 70.5967 73.589 70.59 73.33C70.6032 73.1503 70.5627 72.9707 70.4736 72.814C70.3846 72.6574 70.2511 72.5307 70.09 72.45C69.9603 72.3962 69.8266 72.3527 69.69 72.32C69.5869 72.3115 69.4832 72.3115 69.38 72.32H69C68.44 72.32 67.85 72.22 67.22 72.14C66.1856 72.0987 65.1575 71.958 64.15 71.72C63.9164 71.6706 63.686 71.6072 63.46 71.53C63.3116 71.4263 63.1857 71.2936 63.09 71.14C63.0497 70.9521 63.0497 70.7578 63.09 70.57C63.2026 70.1173 63.3994 69.6899 63.67 69.31C63.81 69.09 63.94 68.87 64.09 68.67C64.331 68.3524 64.6214 68.0756 64.95 67.85C65.2826 67.5855 65.6335 67.3449 66 67.13C66.3047 67.0492 66.6159 66.9957 66.93 66.97C67.1498 66.9568 67.3702 66.9568 67.59 66.97C68.0058 66.9327 68.4242 66.9327 68.84 66.97C69.26 66.97 69.76 67.33 71 67.55L72.49 68.13L73.08 68.66L73.57 69.27L73.49 69.37Z" fill="currentColor"/>
<path d="M65.5 55.51C67.23 56.2 69.05 56.87 70.94 57.76C71.6934 58.0385 72.4117 58.4044 73.08 58.85C74.4677 59.7995 75.5182 61.1651 76.08 62.75C76.2643 63.4861 76.3616 64.2412 76.37 65C76.3757 65.4056 76.3422 65.8108 76.27 66.21C76.1829 66.6362 76.0418 67.0495 75.85 67.44C75.5003 68.1261 74.9847 68.7139 74.35 69.15C73.7835 69.5135 73.1623 69.7836 72.51 69.95C71.0328 70.4604 69.4147 70.3743 68 69.71C67.57 69.49 67.77 69.01 68.22 68.5C68.6849 67.9066 69.2992 67.4476 70 67.17C70.8805 67.1397 71.7312 66.8433 72.44 66.32C72.5586 66.2058 72.6418 66.0601 72.68 65.9C72.7418 65.5057 72.7418 65.1042 72.68 64.71C72.6657 64.558 72.6389 64.4075 72.6 64.26C72.573 64.1584 72.5326 64.0609 72.48 63.97C72.3597 63.7525 72.1922 63.5646 71.99 63.42C71.467 63.0281 70.9039 62.6928 70.31 62.42C68.727 61.6045 67.0818 60.9157 65.39 60.36L62 59.2C60.2821 58.5577 58.6114 57.7958 57 56.92C55.5644 56.2917 54.2192 55.4744 53 54.49C52.7215 54.2598 52.4638 54.0055 52.23 53.73C51.43 52.61 51.66 51.97 52.5 51.32C52.6909 51.1613 52.8913 51.0144 53.1 50.88C53.4299 50.7006 53.7995 50.6066 54.175 50.6066C54.5505 50.6066 54.9201 50.7006 55.25 50.88C56.14 51.39 56.88 51.88 57.75 52.27C58.62 52.66 59.53 53.12 60.56 53.52C62.08 54.11 63.71 54.81 65.49 55.38L65.5 55.51Z" fill="currentColor"/>
<path d="M65.86 23.73C66 24 65.61 24.14 64.92 24.21C64.6025 24.2013 64.2899 24.1299 64 24C63.8457 23.8537 63.702 23.6967 63.57 23.53C63.51 23.44 63.32 22.1 63.19 21.65C63.0934 21.234 63.0597 20.8059 63.09 20.38C63.09 19.53 63.09 18.69 63.03 17.87C63.0223 17.6866 63.0494 17.5033 63.11 17.33C63.3362 16.7337 63.3916 16.0861 63.27 15.46C63.27 15.35 63.27 15.25 63.14 15.15C62.9015 14.5114 62.796 13.8308 62.83 13.15C63.02 12.58 63.06 12.02 63.27 11.42C63.27 11.34 63.27 11.26 63.39 11.16C63.4913 11.1077 63.5725 11.0236 63.6213 10.9206C63.6701 10.8176 63.6837 10.7015 63.66 10.59C63.66 10.47 63.66 10.34 63.66 10.21C63.6956 10.0717 63.7459 9.93759 63.81 9.81C63.9124 9.65514 64.026 9.50807 64.15 9.37C64.2262 9.31617 64.3122 9.27788 64.4031 9.25729C64.494 9.2367 64.5881 9.23422 64.68 9.25C64.83 9.33 65 9.2 65.15 9.16C65.2063 9.15085 65.2637 9.15085 65.32 9.16C65.6092 9.34941 65.8864 9.55647 66.15 9.78C66.4115 10.0133 66.6463 10.2749 66.85 10.56L67 10.91C67.1221 11.1575 67.2225 11.4151 67.3 11.68C67.46 12.26 67.61 12.88 67.66 13C67.71 13.12 67.66 13.27 67.59 13.41C67.52 13.55 67.99 15.26 67.96 15.34C67.96 15.71 68.07 16.09 67.75 16.46C67.7338 16.4961 67.7253 16.5353 67.7253 16.575C67.7253 16.6146 67.7338 16.6538 67.75 16.69C67.7524 17.3345 67.6546 17.9755 67.46 18.59C67.39 18.9 67.39 19.23 67.34 19.54C67.34 19.6 67.28 19.66 67.26 19.71C67.2147 19.7736 67.1809 19.8447 67.16 19.92C67.09 20.67 66.81 21.4 66.8 22.14C66.8 22.32 66.33 23.07 66.34 23.27C66.35 23.47 65.8 23.62 65.86 23.73Z" fill="currentColor"/>
<path d="M74.48 38.09C74.38 38.31 74.08 38.21 73.67 37.97C73.4987 37.8426 73.3669 37.6692 73.29 37.47C73.3046 37.2983 73.3313 37.1279 73.37 36.96C73.37 36.87 74.18 35.81 74.45 35.42C74.7021 35.0465 75.005 34.7099 75.35 34.42C76.0071 33.8167 76.728 33.2869 77.5 32.84C77.6757 32.7379 77.8691 32.6701 78.07 32.64C78.744 32.5336 79.396 32.3174 80 32C80.1 32 80.22 31.93 80.29 31.78C80.9372 31.3401 81.6822 31.0654 82.46 30.98C82.79 31.04 83.1 31.03 83.46 31.11L84.4 31.33C84.49 31.33 84.58 31.33 84.67 31.45C84.88 31.77 85.05 31.71 85.23 31.74C85.4917 31.7583 85.7469 31.8297 85.98 31.95C86.1216 32.0503 86.2436 32.1757 86.34 32.32C86.45 32.44 86.34 32.86 86.34 32.91C86.34 32.96 86.34 33.24 86.34 33.42V33.6C85.9261 34.0138 85.4778 34.3918 85 34.73L84.72 34.84L84.12 35.1C83.69 35.3 83.23 35.39 83.12 35.47C83.01 35.55 82.91 35.47 82.8 35.47C82.69 35.47 81.48 36.04 81.43 36.05C81.14 36.05 80.91 36.3 80.54 36.12C80.5127 36.1042 80.4816 36.0959 80.45 36.0959C80.4184 36.0959 80.3874 36.1042 80.36 36.12C79.8841 36.3028 79.3963 36.4532 78.9 36.57C78.65 36.65 78.42 36.78 78.17 36.86C78.17 36.86 78.06 36.86 78.01 36.86C77.9443 36.8446 77.8758 36.8446 77.81 36.86C77.2068 37.0651 76.627 37.3332 76.08 37.66C75.96 37.74 75.2 37.89 75.08 38.01C74.96 38.13 74.52 38 74.48 38.09Z" fill="currentColor"/>
</svg>
