<svg width="96" height="96" viewBox="0 0 96 96" fill="none" xmlns="http://www.w3.org/2000/svg">
<path d="M38.25 37.57C36.35 40.66 34.47 43.77 32.65 46.93C31.98 48.08 31.44 49.29 30.77 50.43L27.23 56.43C26.11 58.43 25.03 60.49 23.96 62.58C23.02 64.44 22.19 66.37 21.28 68.26C20.7379 69.5041 20.1062 70.7073 19.39 71.86C18.6505 73.0088 17.8106 74.0897 16.88 75.09C16.29 75.7 15.95 75.32 15.88 74.41C15.7663 73.1415 15.9231 71.8634 16.34 70.66C16.59 70.06 16.77 69.42 17.05 68.83L17.85 67.04L19.42 63.39C20.4484 60.8501 21.6444 58.3813 23 56C23.84 54.54 24.66 53 25.4 51.56C26.14 50.12 26.89 48.56 27.68 47.07C29.42 43.83 31.21 40.62 33.03 37.41L36.43 31.51C38.18 28.51 40.02 25.63 41.71 22.67C42.37 21.52 42.97 20.35 43.56 19.17C44.15 17.99 44.73 16.82 45.42 15.7C45.72 15.21 45.97 14.7 46.29 14.21C46.68 13.5347 47.196 12.9406 47.81 12.46C48.2372 12.1876 48.7519 12.0876 49.25 12.18C49.4852 12.1935 49.7191 12.2235 49.95 12.27C50.3 12.37 50.48 12.69 50.53 13.19C50.5767 13.8421 50.4706 14.4961 50.22 15.1C49.4208 17.3636 48.4651 19.5689 47.36 21.7C46.21 23.88 45 26 43.81 28.14C42.02 31.3 40.22 34.48 38.35 37.62L38.25 37.57Z" fill="currentColor"/>
<path d="M49.16 46.27L43.85 55.06C43.21 56.13 42.68 57.26 42.03 58.33C39.76 62.19 37.37 65.93 35.03 69.69C34.03 71.35 33.09 73.11 32.12 74.79C30.9929 77.0229 29.6852 79.1601 28.21 81.18C27.72 81.8 27.1 81.35 26.73 80.39C26.2632 79.1753 26.2883 77.8265 26.8 76.63C27.33 75.47 27.88 74.32 28.44 73.17C28.73 72.6 29.01 72.02 29.31 71.46L30.31 69.81C31.61 67.6233 32.9833 65.4667 34.43 63.34C35.287 62.0532 36.0684 60.7176 36.77 59.34L37.77 57.25C38.13 56.55 38.5 55.85 38.89 55.16C40.59 52.16 42.3 49.16 44.05 46.16L47.26 40.62C48.86 37.81 50.45 34.99 51.99 32.17C52.58 31.07 53.11 29.95 53.65 28.82C54.1673 27.6819 54.7414 26.5706 55.37 25.49C55.65 25.02 55.89 24.54 56.19 24.08C57.32 22.38 57.95 22.02 59.07 22.25C59.3275 22.281 59.5818 22.3346 59.83 22.41C60.61 22.69 60.73 23.76 60.2 25.17C59.4355 27.269 58.5439 29.3194 57.53 31.31C56.53 33.31 55.39 35.31 54.29 37.31C52.67 40.31 50.93 43.31 49.29 46.31L49.16 46.27Z" fill="currentColor"/>
<path d="M64.54 49L59.84 57.35C59.26 58.35 58.84 59.45 58.2 60.45C56.1 64.03 53.7 67.33 51.57 70.82C50.57 72.36 49.78 73.97 48.98 75.56C47.9893 77.6475 46.8358 79.6537 45.53 81.56C45.1 82.15 44.53 81.8 44.21 80.95C43.7468 79.8389 43.6867 78.6008 44.04 77.45C44.44 76.32 44.83 75.19 45.29 74.09C45.75 72.99 46.29 71.94 46.86 70.89C47.9454 68.7738 49.1438 66.7175 50.45 64.73C52.01 62.32 53.23 59.65 54.6 57.12C56.12 54.34 57.6233 51.5366 59.11 48.71L61.85 43.47L66.02 35.47C67.08 33.41 67.91 31.26 68.93 29.19C69.16 28.73 69.38 28.29 69.64 27.85C70.64 26.26 71.3 25.93 72.47 26.19C72.7335 26.2335 72.9941 26.2936 73.25 26.37C74.07 26.67 74.25 27.71 73.91 29.05C73.3607 31.0535 72.6517 33.0097 71.79 34.9C70.96 36.82 70.11 38.74 69.1 40.6L64.66 49H64.54Z" fill="currentColor"/>
<path d="M67.42 63.83L64 68.77C63.58 69.37 63.27 70.03 62.85 70.62C61.38 72.74 59.85 74.85 58.55 77.04C57.9629 78.0121 57.4255 79.0134 56.94 80.04C56.4106 81.3933 55.7402 82.6871 54.94 83.9C54.66 84.26 54.1 83.9 53.68 83.3C53.4384 82.9744 53.2741 82.5981 53.1996 82.1996C53.1251 81.8011 53.1424 81.3909 53.25 81C54.3936 78.1913 55.8281 75.51 57.53 73C58.53 71.51 59.33 69.77 60.25 68.17C61.25 66.41 62.37 64.71 63.48 63.01L65.48 59.87C66.48 58.28 67.57 56.72 68.48 55.08C69.19 53.81 69.7 52.45 70.31 51.15C70.45 50.86 70.55 50.55 70.7 50.27C71.27 49.27 71.7 49.05 72.7 49.38C72.9348 49.4416 73.1652 49.5184 73.39 49.61C73.7473 49.7687 74.0303 50.0581 74.181 50.4188C74.3316 50.7796 74.3384 51.1844 74.2 51.55C73.8294 52.8343 73.3441 54.0826 72.75 55.28C72.14 56.47 71.44 57.63 70.75 58.78C69.69 60.5 68.55 62.16 67.46 63.86L67.42 63.83Z" fill="currentColor"/>
<path d="M47.17 29.35L57.26 34.52C58.48 35.14 59.76 35.65 60.97 36.29L67.39 39.71C68.39 40.28 69.56 40.87 70.61 41.48L73.76 43.37C75.6067 44.5033 77.4733 45.5333 79.36 46.46C80.56 47.06 81.81 47.54 83 48.15L86.63 50C87.38 50.39 87.14 50.83 86.27 51.17C84.9875 51.6319 83.6 51.7186 82.27 51.42C81.5585 51.2544 80.8573 51.0473 80.17 50.8C79.49 50.54 78.83 50.25 78.17 49.96C76.85 49.38 75.57 48.74 74.32 48.09C71.83 46.77 69.43 45.48 67.06 44.09C64.17 42.39 60.88 41.09 57.79 39.62L47.53 34.63C45.43 33.63 43.3233 32.65 41.21 31.69C38.01 30.22 34.81 28.69 31.54 27.49C30.27 27 29 26.61 27.7 26.22L25.77 25.67L23.87 25.05C23.31 24.86 22.75 24.71 22.19 24.49C21.4347 24.2571 20.727 23.8913 20.1 23.41C19.7344 23.0505 19.5107 22.5712 19.47 22.06C19.4222 21.8259 19.3921 21.5886 19.38 21.35C19.38 20.98 19.66 20.74 20.14 20.58C20.7874 20.3804 21.4733 20.3392 22.14 20.46C24.6377 20.7526 27.1042 21.268 29.51 22C31.92 22.76 34.33 23.65 36.72 24.6C40.26 26.02 43.78 27.54 47.21 29.21L47.17 29.35Z" fill="currentColor"/>
<path d="M37.51 38.49L47.78 43.56C49.03 44.18 50.33 44.68 51.58 45.3L64.67 51.93C66.6 52.93 68.61 53.75 70.55 54.66C73.1199 55.7068 75.6099 56.9401 78 58.35C78.73 58.83 78.34 59.44 77.38 59.82C76.0881 60.29 74.6719 60.29 73.38 59.82L69.38 58.28C68.72 58.02 68.06 57.76 67.38 57.47L65.46 56.56C62.9 55.34 60.37 54.02 57.88 52.64C54.88 51.01 51.58 49.77 48.43 48.33C44.97 46.73 41.51 45.12 38.06 43.47L34.92 42C33.86 41.53 32.79 41.07 31.71 40.63C28.43 39.29 25.11 37.95 21.76 36.85C20.46 36.43 19.14 36.08 17.83 35.76C16.52 35.44 15.2 35.15 13.9 34.76C13.33 34.61 12.76 34.49 12.19 34.33C10.09 33.7 9.51 33.27 9.27 32.18C9.20182 31.9374 9.15169 31.69 9.12 31.44C9.06 30.66 10.12 30.2 11.84 30.35C16.93 30.68 21.84 32.35 26.74 34.06C30.37 35.38 33.98 36.81 37.55 38.42L37.51 38.49Z" fill="currentColor"/>
<path d="M36 55.78C38.91 57.36 41.8 58.94 44.72 60.46C45.79 61.02 46.91 61.46 47.97 62L53.57 64.89C55.45 65.83 57.37 66.73 59.31 67.61C61.03 68.38 62.81 69.06 64.56 69.76C66.8572 70.5779 69.0492 71.6655 71.09 73C71.72 73.45 71.37 73.9 70.53 74.17C69.3976 74.5053 68.1924 74.5053 67.06 74.17L63.6 73.15L60.18 71.88C57.9 71.01 55.62 70.08 53.37 68.98C52.02 68.31 50.6 67.76 49.18 67.13C47.76 66.5 46.36 65.92 45 65.26C42 63.8 39 62.26 36.07 60.74C34.24 59.81 32.43 58.86 30.6 57.96C27.82 56.59 25 55.2 22.21 54C20.02 53.08 17.76 52.45 15.53 51.74C15.03 51.59 14.53 51.44 14.07 51.25C12.28 50.52 11.81 50.03 11.76 48.94C11.7403 48.6937 11.7403 48.4463 11.76 48.2C11.83 47.43 12.76 47.09 14.27 47.27C15.3694 47.3966 16.4611 47.5835 17.54 47.83C18.61 48.1 19.69 48.4 20.75 48.74C22.9094 49.4095 25.0209 50.2247 27.07 51.18C30.13 52.57 33.07 54.13 36.07 55.64L36 55.78Z" fill="currentColor"/>
<path d="M39.41 68.43C41.29 69.34 43.19 70.22 45.06 71.18C45.74 71.52 46.46 71.77 47.14 72.13L54.26 76C55.32 76.56 56.4 77.06 57.49 77.53C58.9016 78.0653 60.2444 78.7669 61.49 79.62C61.87 79.92 61.49 80.47 60.88 80.88C60.5363 81.1201 60.1418 81.2776 59.7272 81.34C59.3126 81.4025 58.8892 81.3682 58.49 81.24C55.6348 80.0842 52.8558 78.7482 50.17 77.24C48.4952 76.3859 46.7685 75.6378 45 75C43.08 74.2 41.19 73.32 39.28 72.47C38.1 71.95 36.93 71.47 35.74 70.93C33.94 70.18 32.15 69.38 30.32 68.76C28.9 68.27 27.42 68 26 67.64C25.68 67.56 25.36 67.51 25 67.41C23.83 67.04 23.56 66.65 23.68 65.59C23.6913 65.3485 23.718 65.108 23.76 64.87C23.8532 64.4822 24.0922 64.1452 24.4275 63.9292C24.7627 63.7131 25.1684 63.6346 25.56 63.71C26.9358 63.8524 28.2972 64.11 29.63 64.48C30.97 64.88 32.29 65.36 33.63 65.87C35.63 66.64 37.51 67.5 39.45 68.34L39.41 68.43Z" fill="currentColor"/>
<path d="M19.9 43.78C21.1 41.86 22.29 39.94 23.44 38C23.86 37.29 24.19 36.53 24.61 35.83C26.08 33.33 27.61 30.83 29.01 28.32C29.6145 27.1877 30.1554 26.0226 30.63 24.83C31.1519 23.2761 31.8216 21.7759 32.63 20.35C33.2 19.47 35.22 21.66 34.58 23.5C33.4103 26.7161 31.8983 29.7971 30.07 32.69C28.98 34.43 28.07 36.37 27.07 38.2C25.94 40.2 24.76 42.2 23.58 44.12L21.41 47.74C20.33 49.58 19.2 51.39 18.22 53.26C17.46 54.71 16.89 56.26 16.22 57.73C16.08 58.06 15.97 58.39 15.81 58.73C15.23 59.93 14.81 60.19 13.88 60.01C13.6643 59.975 13.4506 59.9283 13.24 59.87C12.55 59.65 12.29 58.87 12.57 57.93C13.5226 55.0494 14.7832 52.28 16.33 49.67C17.44 47.67 18.63 45.72 19.78 43.75L19.9 43.78Z" fill="currentColor"/>
</svg>
