<svg width="96" height="96" viewBox="0 0 96 96" fill="none" xmlns="http://www.w3.org/2000/svg">
<path d="M50.71 48.53L47.21 35.76L46.78 34.26L46.72 34L46.57 33.35L46.47 32.99C46.47 32.88 46.36 32.67 46.32 32.84L46.01 33.39C45.89 33.6 45.83 33.7 45.61 34.14L45.29 34.79L44.71 36L43.56 38.46L42.38 40.91L41.78 42.14L40.91 43.84L40 45.65L39 47.35L38.76 47.77L38.51 48.08L38 48.69C37.7036 49.0584 37.3684 49.3936 37 49.69C36.7513 49.8672 36.4868 50.0211 36.21 50.15L35.82 50.26C35.7434 50.265 35.6666 50.265 35.59 50.26H35.5C35.5 50.33 35.55 49.66 35.5 49.94H35.38C35.14 49.83 34.95 49.71 34.72 49.58C34.454 49.4629 34.2104 49.3005 34 49.1C33.4225 48.3193 33.0046 47.4324 32.77 46.49C32.42 45.39 32.11 44.25 31.77 43.12L31.07 40.51L30.55 38.51L29.55 34.45L27.55 26.35L26.81 23.55C26.6458 22.9005 26.4489 22.2597 26.22 21.63C26.22 21.55 26.15 21.47 26.1 21.39C26.05 21.31 25.97 21.39 25.94 21.48L25.7 21.9C25.56 22.19 25.41 22.49 25.27 22.8C25.13 23.11 25 23.42 24.87 23.74L24.39 24.96C23.39 27.57 22.39 30.2 21.39 32.82C20.4634 35.2334 19.56 37.66 18.68 40.1C18.23 41.32 17.77 42.53 17.29 43.75L16.54 45.57C16.21 46.2 16.06 46.65 15.46 47.66L15.12 48.1L15 48.05H14.95H14.84L14.61 48.15C14.4409 48.2257 14.2628 48.2794 14.08 48.31C13.87 48.31 13.67 48.31 13.47 48.31L11.74 48.15L8.74002 47.81C6.82002 47.55 6.74002 47.25 8.01002 46.89C8.62002 46.71 9.55002 46.5 10.71 46.25L12.62 45.86C13.07 45.79 13.07 45.75 13.12 45.7C13.1355 45.6781 13.1438 45.6519 13.1438 45.625C13.1438 45.5982 13.1355 45.572 13.12 45.55V45.49C13.12 45.49 13.12 45.49 13.12 45.29L13.31 44.5C13.4542 43.938 13.6278 43.3839 13.83 42.84L17.31 32.42C17.9 30.67 18.49 28.92 19.11 27.18L20.11 24.57L20.62 23.27C20.72 23.02 21.1 21.91 21.45 21.14L22.45 18.65C22.81 17.87 23.21 17.22 23.58 16.51C23.77 16.18 23.96 15.77 24.15 15.51L24.73 15.17L25.3 14.83C25.3739 14.77 25.465 14.735 25.56 14.73H25.79L26.27 14.65C26.4776 14.657 26.6831 14.6941 26.88 14.76C27.2444 14.9119 27.582 15.1212 27.88 15.38C28.59 15.91 29.22 17.38 29.75 18.99C30.01 19.79 30.27 20.6 30.52 21.42L30.89 22.65L31.08 23.26L31.17 23.61L31.9 26.31L33.28 31.7C34.01 34.6 34.74 37.59 35.53 40.47C35.65 40.93 35.78 41.47 35.92 41.89C35.988 42.1273 36.0681 42.361 36.16 42.59C36.16 42.79 36.34 42.59 36.39 42.5L36.58 42.18C36.82 41.77 37.03 41.35 37.25 40.93L38.9 37.61L41.05 33.2L44.21 26.59L45.13 25.47L45.58 24.93L45.94 24.7L46.66 24.21C46.66 24.15 46.88 24.21 46.93 24.21C47.0003 24.2475 47.0673 24.291 47.13 24.34C47.2626 24.4318 47.3864 24.5356 47.5 24.65C48.1445 25.2425 48.6558 25.9651 49 26.77C49.46 27.84 49.86 29.16 50.25 30.41C51.16 33.41 51.46 34.49 51.95 36.19L53.34 41C55 46.91 56.6 52.84 58.34 58.69L59 61L59.4 62.31C59.569 62.757 59.7696 63.1914 60 63.61C60 63.61 60 63.72 60.11 63.74C60.1575 63.7124 60.2012 63.6788 60.24 63.64C60.3251 63.5617 60.4052 63.4782 60.48 63.39C60.63 63.23 60.77 63.05 60.91 62.87L61.65 61.92L62.6 60.61L65.07 57C66.07 55.58 67.07 54.17 68 52.75C68.4954 51.9519 69.1014 51.228 69.8 50.6C70.0588 50.3674 70.3364 50.1567 70.63 49.97L70.83 49.84C70.89 49.78 71.04 49.84 71.11 49.84C71.2658 49.926 71.4131 50.0264 71.55 50.14C72.3207 50.8501 72.9368 51.7113 73.36 52.67C73.63 53.23 73.89 53.82 74.15 54.4L74.84 56.04L76.91 61C78.25 64.29 79.59 67.56 80.91 70.84C81.49 72.29 82.1 73.69 82.67 75.16C82.83 75.56 82.97 75.94 83.1 76.27C83.124 76.3587 83.1541 76.4455 83.19 76.53C83.2597 76.5775 83.3377 76.6115 83.42 76.63L83.85 76.73C83.85 76.73 84.35 76.82 84.65 76.88C84.95 76.94 85.26 77 85.53 77.07C86.374 77.2375 87.1741 77.578 87.88 78.07C88.1818 78.254 88.4663 78.4648 88.73 78.7C89.01 79.05 88.58 79.38 87.53 79.77C86.875 80.0016 86.2073 80.1952 85.53 80.35C85.11 80.44 84.65 80.52 84.14 80.59C83.96 80.59 83.43 80.67 83.03 80.67C82.5838 80.6994 82.1362 80.6994 81.69 80.67C81.1644 80.6014 80.6597 80.4207 80.21 80.14C79.9876 79.9879 79.8002 79.7902 79.66 79.56C79.4893 79.3411 79.3449 79.1028 79.23 78.85C78.56 77.3 77.88 75.74 77.23 74.16C76.64 72.75 76.05 71.34 75.46 69.91L72 61.27L71.12 59.11L70.65 58L70.42 57.47V57.41C70.42 57.41 70.37 57.41 70.36 57.41V57.46L69.69 58.46L68.33 60.46L66 63.7L65.1 65L64 66.52L62.78 68C62.39 68.46 61.98 68.79 61.59 69.2C61.3438 69.3769 61.0702 69.5121 60.78 69.6L60.39 69.77C60.2702 69.7793 60.1498 69.7793 60.03 69.77C59.798 69.8048 59.5621 69.8048 59.33 69.77C59.1956 69.7584 59.062 69.7383 58.93 69.71L58.59 69.61C58.0975 69.4403 57.6545 69.1518 57.3 68.77C56.7952 68.2073 56.4046 67.5518 56.15 66.84C55.82 66.03 55.52 65.17 55.24 64.3L54.48 62L53.67 59.31L50.6 48.57L50.71 48.53Z" fill="currentColor"/>
</svg>
