<svg width="96" height="96" viewBox="0 0 96 96" fill="none" xmlns="http://www.w3.org/2000/svg">
<path d="M35.63 36.19C36.1763 35.9632 36.7017 35.6888 37.2 35.37C37.38 35.25 37.44 35.05 37.62 34.92C38.3369 34.4641 39.0069 33.9382 39.62 33.35C39.8775 33.0565 40.0776 32.7173 40.21 32.35C40.4 31.89 40.44 31.35 41.01 31.08C41.18 31 41.91 31.37 42.59 31.85C43.27 32.33 43.9 32.91 43.82 33.21C43.5357 34.3144 42.8962 35.2947 42 36C41.41 36.44 41.18 37.15 40.62 37.67C40.0333 38.226 39.3898 38.7187 38.7 39.14C38.29 39.4 37.88 39.62 37.49 39.86C36.89 40.2 36.3 40.52 35.77 40.86C35.3953 41.1831 35.0597 41.5489 34.77 41.95C34.69 42.01 34.63 42.11 34.54 42.16C34.23 42.36 33.89 42.16 33.34 41.61L32.96 41.24C32.7686 41.0571 32.6174 40.8365 32.5158 40.592C32.4142 40.3476 32.3646 40.0847 32.37 39.82C32.4268 39.5096 32.5003 39.2025 32.59 38.9C32.6931 38.6437 32.8169 38.3963 32.96 38.16C33.0937 37.9325 33.2441 37.7152 33.41 37.51L33.64 37.22L33.93 37.02C34.49 36.64 35.08 36.36 35.59 36.02L35.63 36.19Z" fill="currentColor"/>
<path d="M29.67 32.47C28.5172 31.0163 27.2924 29.6212 26 28.29C25.52 27.81 24.95 27.44 24.48 26.95C22.78 25.25 20.99 23.63 19.12 22.06C18.2811 21.388 17.3955 20.7765 16.47 20.23C15.2298 19.6255 14.0651 18.877 13 18C12.69 17.68 13.05 17.12 13.7 16.69C14.0379 16.442 14.4275 16.2736 14.8396 16.1974C15.2517 16.1212 15.6758 16.1392 16.08 16.25C17.4276 16.7913 18.7372 17.4228 20 18.14C21.2814 18.8532 22.4619 19.7343 23.51 20.76C24.78 22 26.39 22.89 27.76 24.05C29.2725 25.3101 30.721 26.6451 32.1 28.05C32.94 28.94 33.78 29.81 34.59 30.72C35.85 32.06 36.96 33.53 38.21 34.86C38.68 35.39 39.21 35.86 39.74 36.35C40.27 36.84 40.74 37.35 41.21 37.89C41.435 38.1064 41.6423 38.3405 41.83 38.59C41.9064 38.6993 41.9765 38.8128 42.04 38.93C42.0751 39.048 42.1019 39.1683 42.12 39.29C42.1604 39.4913 42.1604 39.6987 42.12 39.9C41.9989 40.3246 41.7596 40.7061 41.43 41C41.2702 41.183 41.0999 41.3567 40.92 41.52C40.5804 41.7616 40.1817 41.9069 39.7662 41.9403C39.3507 41.9738 38.9339 41.8942 38.56 41.71C37.4424 41.1067 36.3901 40.3896 35.42 39.57C34.9722 39.1626 34.5637 38.7139 34.2 38.23C33.8 37.76 33.42 37.29 33.05 36.8C31.9 35.4 30.81 33.91 29.57 32.54L29.67 32.47Z" fill="currentColor"/>
<path d="M32.44 39.07C33.496 39.3082 34.5643 39.4884 35.64 39.61C36.1278 39.6686 36.6187 39.6987 37.11 39.7C37.32 39.7 37.56 39.7 37.75 39.7H38.02H38.15C38.39 39.7 38.53 39.5 38.67 39.35C38.7467 39.2826 38.8139 39.2053 38.87 39.12C38.9174 39.0614 38.9516 38.9931 38.97 38.92L39.12 38.52C39.3244 37.8673 39.4716 37.1982 39.56 36.52C39.7657 35.0427 39.8493 33.551 39.81 32.06C39.7749 30.7005 39.6547 29.3445 39.45 28C39.0607 26.2703 38.8629 24.503 38.86 22.73C38.86 22.16 39.64 22.06 40.53 22.34C41.0396 22.4767 41.516 22.7157 41.9303 23.0423C42.3446 23.3689 42.6881 23.7764 42.94 24.24C43.653 25.991 44.2346 27.7926 44.68 29.63C44.8977 30.5676 45.0051 31.5275 45 32.49C45.0322 33.4918 44.9887 34.4947 44.87 35.49C44.74 36.69 44.7 37.93 44.55 39.29C44.55 39.64 44.44 39.96 44.41 40.42C44.2979 40.8673 44.1611 41.3079 44 41.74C43.6882 42.617 43.1744 43.4084 42.5 44.05C41.7057 44.6932 40.77 45.1387 39.77 45.35C38.984 45.5138 38.1829 45.5942 37.38 45.59C36.008 45.5769 34.6397 45.4464 33.29 45.2C31.69 44.93 30.15 44.55 28.63 44.2C26.32 43.61 24.1 42.82 21.85 42.2C20.11 41.69 18.3 41.44 16.51 40.9C16.11 40.79 15.7 40.7 15.31 40.55C14.7735 40.2787 14.3438 39.8349 14.09 39.29C13.9678 38.7629 13.9955 38.2122 14.17 37.7C14.2254 37.4527 14.2955 37.2089 14.38 36.97C14.5598 36.5923 14.8682 36.2909 15.25 36.12C15.7009 35.8348 16.2173 35.6695 16.75 35.64C17.1456 35.5998 17.5444 35.5998 17.94 35.64L19.04 35.83C19.79 35.97 20.53 36.13 21.27 36.3C22.77 36.65 24.27 37.06 25.77 37.45C28 38.02 30.25 38.64 32.46 39L32.44 39.07Z" fill="currentColor"/>
<path d="M57.05 58C57.98 57.48 58.93 57 59.87 56.6C60.1887 56.3853 60.5229 56.1948 60.87 56.03C61.5 55.79 62.15 55.62 62.78 55.44L64.78 55.13C65.3289 55.0179 65.865 54.8504 66.38 54.63C66.6893 54.4308 67.0353 54.2955 67.3976 54.2319C67.76 54.1684 68.1314 54.1779 68.49 54.26C68.74 54.34 68.93 55.26 69.01 56.18C69.09 57.1 69.09 58.18 68.81 58.36C67.8682 59.12 66.7382 59.6107 65.54 59.78C64.8093 59.9335 64.1245 60.2554 63.54 60.72C62.8 61.09 62.04 61.46 61.31 61.89C60.8571 62.1497 60.4228 62.4404 60.01 62.76C59.369 63.223 58.773 63.7453 58.23 64.32C58.0602 64.5762 57.9288 64.8558 57.84 65.15C57.79 65.3 57.76 65.46 57.72 65.61C57.6655 65.7459 57.5985 65.8764 57.52 66C57.466 66.1164 57.4059 66.2299 57.34 66.34C57.02 66.7 56.64 66.65 55.62 66.19L54.94 65.88C54.6139 65.7503 54.3218 65.5477 54.0861 65.2877C53.8503 65.0277 53.6772 64.7172 53.58 64.38C53.3638 63.581 53.3638 62.739 53.58 61.94C53.8216 61.2313 54.158 60.5585 54.58 59.94C55.2953 59.1642 56.1088 58.4851 57 57.92L57.05 58Z" fill="currentColor"/>
<path d="M70.23 62.9L74.15 66.9C74.62 67.38 75.15 67.75 75.64 68.25C77.27 70 78.87 71.76 80.42 73.57C81.11 74.37 81.86 75.11 82.61 75.83C83.651 76.6817 84.549 77.6945 85.27 78.83C85.47 79.21 84.95 79.63 84.21 79.83C83.8358 79.9759 83.4342 80.0381 83.0334 80.0122C82.6326 79.9863 82.2423 79.8729 81.89 79.68C80.89 78.87 79.79 78.05 78.79 77.18C77.7631 76.33 76.828 75.3748 76 74.33C74.8723 73.1327 73.6371 72.0415 72.31 71.07L68.21 67.5C67.36 66.77 66.51 66.04 65.64 65.35C64.3455 64.2727 62.9899 63.2711 61.58 62.35C60.43 61.71 59.21 61.23 58.08 60.61C57.83 60.48 57.56 60.38 57.33 60.23L57 60C56.933 59.9114 56.8728 59.8178 56.82 59.72C56.7261 59.5523 56.6618 59.3696 56.63 59.18C56.6004 58.7409 56.6794 58.3013 56.86 57.9C56.95 57.66 57.02 57.43 57.12 57.22C57.3246 56.8597 57.626 56.5638 57.9901 56.3659C58.3541 56.1679 58.7663 56.0758 59.18 56.1C59.517 56.0837 59.8545 56.1208 60.18 56.21L61.11 56.44C61.7268 56.6117 62.3343 56.8153 62.93 57.05C64.0418 57.6329 65.0878 58.3336 66.05 59.14C67.52 60.29 68.9 61.58 70.29 62.83L70.23 62.9Z" fill="currentColor"/>
<path d="M64.61 57.49C63.5435 57.3173 62.4687 57.2005 61.39 57.14C60.87 57.14 60.39 57.14 59.92 57.14C59.71 57.14 59.47 57.14 59.28 57.2H59.01H58.88C58.64 57.2 58.52 57.42 58.39 57.58C58.3165 57.6551 58.2527 57.7391 58.2 57.83C58.156 57.8857 58.1253 57.9507 58.11 58.02L57.98 58.43C57.8204 59.0871 57.7134 59.7559 57.66 60.43C57.5351 61.914 57.5351 63.406 57.66 64.89C57.7735 66.2343 57.9705 67.5702 58.25 68.89C58.7388 70.5921 59.0406 72.3425 59.15 74.11C59.15 74.69 58.41 74.83 57.51 74.6C56.9994 74.5019 56.5138 74.3016 56.0825 74.0112C55.6512 73.7208 55.283 73.3462 55 72.91C54.1998 71.2035 53.5312 69.4384 53 67.63C52.7221 66.7097 52.5543 65.7598 52.5 64.8C52.4237 63.8015 52.4237 62.7985 52.5 61.8C52.56 60.6 52.5 59.35 52.6 57.99C52.6 57.64 52.67 57.32 52.67 56.85C52.7584 56.3875 52.8719 55.9302 53.01 55.48C53.2731 54.587 53.7424 53.7683 54.38 53.09C55.1342 52.4042 56.0382 51.9043 57.02 51.63C57.7983 51.4241 58.5959 51.3001 59.4 51.26C60.7717 51.1877 62.1472 51.2379 63.51 51.41C65.12 51.58 66.68 51.87 68.22 52.17C70.55 52.63 72.82 53.29 75.1 53.81C76.87 54.22 78.69 54.37 80.51 54.81C80.9189 54.8818 81.323 54.9787 81.72 55.1C82.2757 55.3328 82.7346 55.7494 83.02 56.28C83.1652 56.7967 83.1652 57.3433 83.02 57.86C82.9783 58.1132 82.9216 58.3636 82.85 58.61C82.6964 58.9973 82.409 59.3167 82.04 59.51C81.6032 59.8212 81.0934 60.0141 80.56 60.07C80.1696 60.1288 79.7743 60.1489 79.38 60.13L78.18 60C77.43 59.9 76.68 59.79 75.93 59.66C74.42 59.4 72.93 59.08 71.38 58.77C69.11 58.33 66.83 57.85 64.61 57.62V57.49Z" fill="currentColor"/>
<path d="M35.46 61C35.0064 60.2733 34.4694 59.6021 33.86 59C33.62 58.76 33.3 58.63 33.06 58.39C32.2548 57.496 31.3526 56.6944 30.37 56C29.9612 55.7218 29.4912 55.5468 29 55.49C28.7438 55.4692 28.4862 55.4692 28.23 55.49C27.9952 55.5002 27.7635 55.4335 27.57 55.3C27.1596 54.7338 26.9107 54.0667 26.85 53.37C26.7 52.37 27.13 51.23 27.85 51.11C28.9394 50.9245 30.0574 51.0034 31.11 51.34C32.0047 51.6179 32.8113 52.1246 33.45 52.81C34.2529 53.4562 35.1055 54.0381 36 54.55C36.8906 55.2374 37.7203 56.0002 38.48 56.83C38.96 57.36 39.41 57.93 39.84 58.51C40.4581 59.4243 41.0127 60.3798 41.5 61.37C41.9 62.11 42.57 62.75 42.99 63.51C43.0619 63.679 43.122 63.8527 43.17 64.03C43.2064 64.1744 43.2064 64.3256 43.17 64.47C43.0792 64.616 42.956 64.7392 42.81 64.83C42.4419 65.0715 42.0364 65.2506 41.61 65.36L40.93 65.57C40.5628 65.6532 40.1847 65.6769 39.81 65.64C39.4097 65.6049 39.0142 65.5278 38.63 65.41C38.27 65.19 37.9 65.01 37.63 64.81C37.4422 64.6151 37.2715 64.4043 37.12 64.18C36.8509 63.8052 36.6102 63.4108 36.4 63C36.1272 62.3557 35.7923 61.7394 35.4 61.16L35.46 61Z" fill="currentColor"/>
<path d="M29.14 64.78C27.59 65.69 26.07 66.72 24.58 67.78C24.04 68.18 23.58 68.69 23.05 69.09C21.13 70.5 19.25 72 17.39 73.54C16.5767 74.2268 15.8147 74.9721 15.11 75.77C14.256 76.8454 13.2642 77.8036 12.16 78.62C11.79 78.85 11.33 78.37 11.06 77.62C10.8916 77.2423 10.8096 76.8317 10.82 76.4182C10.8303 76.0048 10.9328 75.5988 11.12 75.23C11.9268 74.0682 12.7947 72.9499 13.72 71.88C14.6373 70.795 15.6852 69.8277 16.84 69C18.1672 67.8656 19.4355 66.664 20.64 65.4C22.07 64.11 23.59 62.9 25.13 61.72C26.13 61.02 27.06 60.31 28.06 59.64C29.54 58.64 31.15 57.7 32.69 56.71C33.8416 55.8459 35.0548 55.0672 36.32 54.38C36.61 54.24 36.88 54.05 37.18 53.94C37.4197 53.8265 37.6892 53.7915 37.95 53.84C38.1608 53.8622 38.3649 53.9268 38.55 54.03C38.9281 54.2696 39.2245 54.6183 39.4 55.03C39.52 55.25 39.65 55.46 39.74 55.67C39.8618 56.0613 39.8835 56.4768 39.8031 56.8786C39.7228 57.2805 39.5429 57.6557 39.28 57.97C39.105 58.2266 38.8964 58.4586 38.66 58.66C38.44 58.87 38.23 59.07 38.01 59.26C37.58 59.63 37.16 60.06 36.72 60.41C35.7697 61.0357 34.7884 61.6131 33.78 62.14C32.28 63 30.72 63.85 29.22 64.87L29.14 64.78Z" fill="currentColor"/>
<path d="M32 50.08C33.3684 50.0513 34.7373 50.1014 36.1 50.23C36.8281 50.2969 37.5523 50.4003 38.27 50.54C38.66 50.63 39.03 50.71 39.43 50.83L40 51C40.2539 51.0729 40.5014 51.1666 40.74 51.28C41.4767 51.5213 42.1555 51.9124 42.7337 52.4287C43.3119 52.9449 43.7771 53.5753 44.1 54.28C44.2356 54.6064 44.3525 54.9403 44.45 55.28C44.54 55.62 44.61 55.95 44.67 56.28L44.76 56.78C44.7453 56.9363 44.7453 57.0937 44.76 57.25V58C44.7173 58.9093 44.6138 59.8146 44.45 60.71C44.13 62.42 43.7 64.02 43.26 65.59C42.87 66.98 42.45 68.35 42.09 69.71C41.717 71.4881 41.0799 73.2004 40.2 74.79C39.89 75.28 39.2 75 38.55 74.33C37.7955 73.5976 37.3545 72.601 37.32 71.55C37.48 69.76 37.65 67.98 37.86 66.26C37.9653 65.4033 38.1426 64.557 38.39 63.73L39.05 61.28C39.306 60.3565 39.384 59.3927 39.28 58.44L39.2 57.9L39.14 57.63C39.0917 57.4534 39.0175 57.2849 38.92 57.13C38.7924 56.9581 38.624 56.8206 38.43 56.73C38.04 56.5503 37.6307 56.416 37.21 56.33C36.1525 56.121 35.0779 56.0105 34 56C32.5563 55.9353 31.1098 55.9654 29.67 56.09C27.4185 56.2284 25.1852 56.58 23 57.14C21.3911 57.6815 19.8428 58.3886 18.38 59.25C18.06 59.42 17.77 59.65 17.45 59.8C16.9743 59.9872 16.4493 60.0084 15.96 59.86C15.4996 59.6067 15.0922 59.2672 14.76 58.86C14.5728 58.6836 14.3958 58.4966 14.23 58.3C14.1148 58.1344 14.0349 57.9468 13.9954 57.7489C13.9558 57.5511 13.9574 57.3472 14 57.15C14.0456 56.5537 14.2843 55.9885 14.68 55.54C15.267 54.8424 15.9835 54.2651 16.79 53.84C17.5473 53.3939 18.3322 52.9964 19.14 52.65C20.7582 51.9756 22.4309 51.4404 24.14 51.05C26.7255 50.4655 29.3541 50.0909 32 49.93V50.08Z" fill="currentColor"/>
<path d="M63.4 44.83C62.3717 44.4612 61.3695 44.0235 60.4 43.52C60.004 43.3761 59.6196 43.2023 59.25 43C58.6053 42.5565 58.0292 42.0208 57.54 41.41C57.1204 40.79 56.7842 40.1176 56.54 39.41C56.34 38.82 56.14 38.28 55.98 37.75C55.7313 37.0866 55.5895 36.3879 55.56 35.68C55.56 35.46 55.76 35.4 56.09 35.47C56.4992 35.5399 56.8804 35.7235 57.19 36C57.68 36.54 58.19 37.06 58.56 37.49C58.9424 37.8592 59.2999 38.2534 59.63 38.67C59.83 38.87 59.99 39.15 60.27 39.28C60.55 39.41 60.85 39.55 61.16 39.71C61.8886 40.0739 62.6526 40.3621 63.44 40.57C63.9732 40.7213 64.5139 40.8448 65.06 40.94C65.9127 41.1458 66.7779 41.2961 67.65 41.39C68.34 41.39 69.04 41.26 69.72 41.31C69.873 41.2948 70.027 41.2948 70.18 41.31C70.7 41.62 70.83 41.99 70.83 42.74C70.83 42.91 70.83 43.08 70.83 43.24C70.7997 43.5118 70.7139 43.7745 70.578 44.0119C70.4422 44.2492 70.259 44.4562 70.04 44.62C69.7483 44.8799 69.4086 45.0803 69.04 45.21C68.73 45.35 68.41 45.47 68.09 45.58C67.4696 45.665 66.8404 45.665 66.22 45.58C65.7421 45.5402 65.2676 45.4667 64.8 45.36L63.33 44.97L63.4 44.83Z" fill="currentColor"/>
<path d="M62.13 30.44C63.54 29 65 27.59 66.47 26.19C67.01 25.68 67.47 25.08 67.99 24.59C69.9715 22.8775 72.0481 21.2783 74.21 19.8C75.21 19.18 76.07 18.44 76.99 17.8C77.58 17.37 78.14 16.9 78.76 16.49C79.3849 16.0971 80.0569 15.7846 80.76 15.56C81.21 15.43 81.54 16.1 81.63 16.97C81.7151 17.3945 81.7073 17.8323 81.6072 18.2535C81.5071 18.6747 81.317 19.0692 81.05 19.41L78 22.17L76.44 23.52C75.92 23.97 75.29 24.32 74.72 24.74C73.3644 25.8107 72.1483 27.047 71.1 28.42C69.79 29.81 68.52 31.25 67.26 32.72C66.49 33.64 65.71 34.54 64.99 35.49C63.8334 36.9032 62.7551 38.3788 61.76 39.91C61.38 40.5 61.13 41.19 60.81 41.81C60.49 42.43 60.17 43.09 59.81 43.7C59.6798 43.987 59.5294 44.2643 59.36 44.53C59.2841 44.6391 59.2006 44.7427 59.11 44.84C59 44.92 58.89 44.97 58.79 45.03C58.5936 45.1189 58.3843 45.1763 58.17 45.2C57.6803 45.2014 57.1983 45.0775 56.77 44.84C56.52 44.72 56.26 44.63 56.04 44.5C55.6625 44.2442 55.3574 43.8954 55.1542 43.4872C54.951 43.0791 54.8566 42.6254 54.88 42.17C54.8662 41.8159 54.9066 41.4618 55 41.12C55.07 40.79 55.16 40.47 55.25 40.12C55.43 39.48 55.64 38.85 55.88 38.22C56.5092 37.0743 57.253 35.9955 58.1 35C59.32 33.43 60.67 31.92 62.02 30.4L62.13 30.44Z" fill="currentColor"/>
<path d="M57.28 40.94C57.2556 41.0147 57.2556 41.0953 57.28 41.17C57.28 41.17 57.28 41.24 57.35 41.3C57.4238 41.3289 57.4943 41.3657 57.56 41.41C58.3557 41.5967 59.1737 41.6708 59.99 41.63C60.68 41.63 61.4 41.45 62.15 41.42C64.8995 41.3554 67.6361 41.0205 70.32 40.42C71.5243 40.1534 72.7074 39.7991 73.86 39.36C75.2865 38.7106 76.765 38.182 78.28 37.78C78.77 37.69 79.11 38.35 79.14 39.26C79.1765 39.7729 79.0985 40.2875 78.9117 40.7665C78.7249 41.2456 78.434 41.6771 78.06 42.03C76.6468 43.0702 75.1404 43.9774 73.56 44.74C72.7731 45.1128 71.9436 45.3882 71.09 45.56C70.2404 45.7625 69.3786 45.9094 68.51 46C66.42 46.22 64.41 47.06 62.21 47.37C61.6008 47.4595 60.9857 47.5029 60.37 47.5H59.42L58.42 47.44C58.0845 47.4206 57.7505 47.3806 57.42 47.32C57.0479 47.272 56.6801 47.1951 56.32 47.09C55.4853 46.875 54.6983 46.5053 54 46C53.5783 45.6783 53.2017 45.3017 52.88 44.88C52.5602 44.4855 52.2976 44.0479 52.1 43.58C51.8939 43.1826 51.7329 42.7633 51.62 42.33C51.4894 41.9281 51.3891 41.5169 51.32 41.1C51.0144 38.8302 51.0144 36.5298 51.32 34.26C51.45 32.56 51.4 30.87 51.61 29.17C51.6286 28.7942 51.672 28.4201 51.74 28.05C51.905 27.5253 52.2622 27.0824 52.74 26.81C53.2312 26.6406 53.7553 26.5892 54.27 26.66C54.54 26.66 54.8 26.66 55.03 26.74C55.4256 26.841 55.7771 27.0694 56.03 27.39C56.4024 27.7578 56.6655 28.2217 56.79 28.73C56.9899 29.4178 57.0678 30.1353 57.02 30.85C57.02 31.53 57.02 32.21 56.97 32.85C56.97 34.18 56.84 35.49 56.83 36.73C56.8366 37.5992 56.8933 38.4673 57 39.33C57.0857 39.8491 57.2231 40.3582 57.41 40.85L57.28 40.94Z" fill="currentColor"/>
</svg>
