<svg width="96" height="96" viewBox="0 0 96 96" fill="none" xmlns="http://www.w3.org/2000/svg">
<path d="M25.74 28.27C25.6134 28.2764 25.4866 28.2764 25.36 28.27H25.26C25.19 28.27 25.07 28.27 25.04 28.33C25.01 28.39 25.04 28.33 24.97 28.33C24.9005 28.4077 24.8493 28.5 24.82 28.6C24.6089 29.0098 24.4702 29.453 24.41 29.91C24.3997 30.1521 24.3696 30.3929 24.32 30.63C24.0543 32.4913 24.0006 34.3767 24.16 36.25C24.2214 37.1085 24.3485 37.9609 24.54 38.8C24.8278 39.854 25.0614 40.9221 25.24 42C25.24 42.34 24.93 42.46 24.44 42.33C24.1364 42.2448 23.8528 42.1002 23.6056 41.9045C23.3584 41.7088 23.1525 41.4659 23 41.19C22.4677 40.1176 22.0229 39.004 21.67 37.86C21.4948 37.2891 21.3545 36.708 21.25 36.12C21.1815 35.5126 21.1582 34.9009 21.18 34.29C21.18 32.83 20.96 31.29 21.18 29.73C21.2451 29.1826 21.3521 28.641 21.5 28.11L21.77 27.28L21.98 26.86C22.06 26.68 22.17 26.51 22.24 26.32C22.4993 25.9336 22.8408 25.6092 23.24 25.37C23.6361 25.1763 24.0621 25.0512 24.5 25C25.1171 24.9426 25.739 24.9661 26.35 25.07C26.87 25.16 27.35 25.27 27.87 25.38C29.36 25.71 30.74 26.22 32.15 26.59C33.23 26.89 34.36 26.98 35.44 27.18C35.68 27.24 35.91 27.27 36.14 27.35C36.321 27.4123 36.4952 27.4927 36.66 27.59C36.7793 27.6993 36.8746 27.832 36.94 27.98C37.0682 28.2653 37.1232 28.5781 37.1 28.89C37.11 29.0465 37.11 29.2035 37.1 29.36C37.1 29.81 36.56 30.2 35.76 30.47C35.23 30.47 34.69 30.47 34.16 30.47C33.652 30.3994 33.148 30.3026 32.65 30.18C31.65 29.94 30.65 29.64 29.73 29.34C29.02 29.12 28.33 28.9 27.65 28.71C27.31 28.61 26.98 28.53 26.65 28.45C26.32 28.37 26.02 28.38 25.74 28.37V28.27Z" fill="currentColor"/>
<path d="M70.24 69.25C70.55 69.1848 70.8376 69.0398 71.0744 68.8293C71.3111 68.6189 71.4889 68.3502 71.59 68.05C71.6531 67.7945 71.69 67.5331 71.7 67.27C71.7279 66.6993 71.7078 66.1273 71.64 65.56C71.5273 64.9061 71.3567 64.2636 71.13 63.64C71.0288 63.3491 70.9086 63.0651 70.77 62.79L70.43 61.91C70.0432 61.1357 69.864 60.2743 69.91 59.41C69.91 59.12 70.14 59.18 70.41 59.35C70.7712 59.5448 71.1071 59.7832 71.41 60.06C71.9454 60.6428 72.4495 61.2537 72.92 61.89C73.3534 62.6446 73.6894 63.451 73.92 64.29C74.04 64.82 74.23 65.36 74.36 65.94C74.425 66.2399 74.4684 66.544 74.49 66.85C74.5247 67.1624 74.5247 67.4777 74.49 67.79C74.4042 68.4951 74.1763 69.1755 73.82 69.79C73.4451 70.428 72.9155 70.9611 72.28 71.34C71.5833 71.7379 70.8215 72.0088 70.03 72.14C68.9368 72.2927 67.8337 72.3629 66.73 72.35C65.9001 72.443 65.0646 72.4764 64.23 72.45C64.05 72.45 63.87 72.45 63.69 72.45C63.03 72.29 62.87 72.03 62.89 71.3C62.89 71.13 62.89 70.97 62.89 70.8C62.917 70.551 63.0182 70.3159 63.1805 70.1251C63.3427 69.9343 63.5586 69.7967 63.8 69.73C64.16 69.64 64.51 69.54 64.86 69.47L65.37 69.35C65.5363 69.335 65.7037 69.335 65.87 69.35L67.79 69.49C68.6296 69.6002 69.4835 69.5077 70.28 69.22L70.24 69.25Z" fill="currentColor"/>
<path d="M17 31.22V30.22V28.82C16.9872 27.7661 17.0574 26.7129 17.21 25.67C17.3512 24.7419 17.6523 23.8452 18.1 23.02C18.5081 22.2511 19.1073 21.6002 19.84 21.13C20.51 20.7779 21.2452 20.5669 22 20.51C22.5013 20.4725 23.0054 20.4994 23.5 20.59C24.14 20.78 24.75 20.92 25.37 21.16C25.99 21.4 26.6 21.68 27.19 21.95L28.07 22.36L28.6 22.65L29.6 23.21C30.93 23.97 32.28 24.64 33.6 25.39C34.7614 26.0003 35.9765 26.5024 37.23 26.89C38.8302 27.2577 40.3859 27.7975 41.87 28.5C42.32 28.77 42.12 29.77 41.48 30.72C41.1915 31.2275 40.7804 31.6545 40.2843 31.9619C39.7881 32.2694 39.2228 32.4475 38.64 32.48C36.7996 32.2514 34.9849 31.8496 33.22 31.28C32.3616 30.9949 31.5202 30.661 30.7 30.28C29.8947 29.8949 29.1103 29.4677 28.35 29C27.9018 28.7169 27.4339 28.4662 26.95 28.25L26.23 27.94L26.05 27.87H25.99H25.87C25.5287 27.7653 25.1947 27.6383 24.87 27.49C24.68 27.49 24.42 27.32 24.21 27.42C24.035 27.5235 23.9036 27.6869 23.84 27.88C23.6732 28.3229 23.5721 28.7878 23.54 29.26C23.54 29.34 23.54 29.82 23.54 30.12V31.12C23.54 31.81 23.63 32.51 23.72 33.2C23.9143 35.3349 24.306 37.4473 24.89 39.51C25.1567 40.2943 25.4913 41.0538 25.89 41.78L26.89 44C27.03 44.32 27.22 44.62 27.34 45C27.77 46.23 27.54 46.76 26.34 47.59C26.06 47.79 25.79 48 25.51 48.16C25.0573 48.4394 24.5199 48.5486 23.994 48.468C23.4682 48.3873 22.9882 48.1222 22.64 47.72C21.4766 46.4807 20.4691 45.1038 19.64 43.62C18.9519 42.0512 18.4032 40.4249 18 38.76C17.4307 36.2883 17.043 33.7783 16.84 31.25L17 31.22Z" fill="currentColor"/>
<path d="M69.28 68.69C69.79 68.69 70.28 68.69 70.76 68.69H70.94C70.94 68.69 70.99 68.69 71.01 68.69H71.19C71.3346 68.7331 71.4871 68.7428 71.636 68.7186C71.785 68.6944 71.9265 68.6367 72.05 68.55C72.15 68.36 71.92 68.13 71.95 67.94V67.64C71.9587 67.5803 71.9587 67.5197 71.95 67.46L71.82 67C71.6 66.29 71.36 65.55 71.11 64.82C70.62 63.34 70.03 61.89 69.55 60.37C69.1 59.03 68.55 57.74 67.95 56.44C67.23 54.77 66.35 53.04 66.56 50.92C66.64 50.24 67.67 50.29 68.78 50.55C69.89 50.81 71.13 51.19 71.54 51.96L73.91 56.37C74.31 57.1433 74.69 57.9333 75.05 58.74C75.37 59.57 75.64 60.44 75.9 61.34C76.2254 62.4202 76.6575 63.4654 77.19 64.46C77.33 64.75 77.39 64.9 77.65 65.38C77.868 65.795 78.0617 66.2224 78.23 66.66C78.41 67.1 78.56 67.53 78.71 67.97C78.8446 68.3974 78.9416 68.8357 79 69.28C79.1273 70.1684 78.9953 71.0748 78.62 71.89C78.1637 72.6794 77.5041 73.3321 76.71 73.78C75.8859 74.2456 74.9957 74.5828 74.07 74.78C73.61 74.91 73.07 74.96 72.66 75.05L71.96 75.13C71.7868 75.1395 71.6132 75.1395 71.44 75.13C69.786 75.229 68.1265 75.1855 66.48 75C64.0541 74.6901 61.6588 74.1749 59.32 73.46C58.41 73.2 57.49 72.99 56.55 72.74C55.626 72.4521 54.7265 72.091 53.86 71.66C53.4658 71.4843 53.0849 71.2804 52.72 71.05C51.4 70.05 51.29 69.38 51.99 68.05C52.1387 67.7501 52.3057 67.4595 52.49 67.18C52.7774 66.7659 53.1791 66.4443 53.646 66.2543C54.113 66.0643 54.6251 66.0142 55.12 66.11C56.57 66.39 57.96 66.57 59.31 66.77C60.66 66.97 61.88 67.47 63.22 67.77C65.1872 68.2325 67.1993 68.4773 69.22 68.5L69.28 68.69Z" fill="currentColor"/>
<path d="M58.07 42.48C54.48 45.93 50.9 49.39 47.37 52.91C46.09 54.2 44.97 55.63 43.67 56.91L40.24 60.27L36.73 63.56C34.39 65.77 32.08 67.99 29.82 70.26C27.82 72.26 25.93 74.42 24.12 76.57C23 78 21.85 79.39 20.67 80.76C19.4109 82.065 18.0752 83.2939 16.67 84.44C15.8 85.14 15.1 84.5 14.82 83.07C14.4813 81.1552 14.7762 79.1821 15.66 77.45C20.0752 71.4108 25.0252 65.7814 30.45 60.63C32.0892 59.0486 33.6415 57.3795 35.1 55.63C36.63 53.92 38.1 52.17 39.71 50.51C43.18 46.87 46.71 43.29 50.26 39.7L56.79 33.09C60.06 29.73 63.45 26.45 66.57 22.99C69.02 20.32 71.07 17.36 73.36 14.55C73.86 13.93 74.36 13.3 74.89 12.72C77.01 10.62 78.08 10.35 79.89 11.38C80.3218 11.5889 80.7394 11.8261 81.14 12.09C82.4 13.02 82.43 14.79 81.3 16.65L79.99 18.65C79.5586 19.3407 79.0913 20.0083 78.59 20.65C77.59 21.93 76.59 23.19 75.49 24.46C73.34 26.95 71.05 29.39 68.72 31.82C65.27 35.42 61.72 38.93 58.18 42.52L58.07 42.48Z" fill="currentColor"/>
</svg>
