<svg width="96" height="96" viewBox="0 0 96 96" fill="none" xmlns="http://www.w3.org/2000/svg">
<path d="M2.46 35.87C2.32362 35.1221 2.46592 34.3502 2.86 33.7C3.26945 33.1078 3.86942 32.6737 4.56 32.47L5.26 32.33C5.48957 32.3102 5.72043 32.3102 5.95 32.33C6.63657 32.4791 7.28573 32.766 7.85813 33.1734C8.43053 33.5808 8.91426 34.1002 9.28 34.7C9.46 34.92 9.58 35.17 9.74 35.4C9.90295 35.6192 10.05 35.8498 10.18 36.09C10.6144 36.6448 10.897 37.303 11 38C11 38.22 10.51 38.35 10 38.35C9.49 38.35 8.91 38.25 8.79 37.94C8.34872 36.8879 7.80263 35.8828 7.16 34.94C6.96777 34.7121 6.72703 34.5301 6.45538 34.4073C6.18374 34.2844 5.88807 34.2239 5.59 34.23C5.33613 34.1884 5.076 34.2463 4.86369 34.3916C4.65138 34.5368 4.50322 34.7583 4.45 35.01C4.41341 35.1588 4.41631 35.3146 4.45841 35.4619C4.5005 35.6092 4.58033 35.743 4.69 35.85C4.96643 36.0166 5.27814 36.116 5.6 36.14C6.01069 36.2057 6.42463 36.2491 6.84 36.27C7.55199 36.277 8.26176 36.3507 8.96 36.49C9.12941 36.512 9.29458 36.5592 9.45 36.63C10.04 36.87 10.11 37.17 9.9 37.63C9.85273 37.7461 9.79932 37.8596 9.74 37.97C9.65127 38.1262 9.51876 38.253 9.35883 38.3347C9.1989 38.4164 9.01854 38.4496 8.84 38.43C7.84 38.3 7.05 38.25 5.76 38.15C5.16007 38.1465 4.56504 38.0417 4 37.84C3.59382 37.6603 3.2376 37.3843 2.96227 37.0357C2.68694 36.6872 2.5008 36.2768 2.42 35.84L2.46 35.87Z" fill="currentColor"/>
<path d="M4.37997 33.72C4.71339 33.4881 5.09139 33.3281 5.48997 33.25C5.62755 33.2073 5.76787 33.1739 5.90997 33.15C6.37168 33.1636 6.82653 33.2654 7.24997 33.45C7.41585 33.5106 7.58642 33.5574 7.75997 33.59C7.87128 33.5964 7.98013 33.6254 8.07985 33.6753C8.17957 33.7251 8.26808 33.7948 8.33997 33.88C8.33997 33.94 8.25997 34.2 8.10997 34.45C7.95997 34.7 7.77997 34.96 7.67997 34.97C7.3835 35.011 7.08149 34.9659 6.80997 34.84C6.64997 34.76 6.48997 34.84 6.35997 34.93L5.86997 35.08C5.76422 35.1338 5.66378 35.1974 5.56997 35.27C5.41595 35.3951 5.29563 35.5566 5.21997 35.74C5.21997 35.89 5.21997 36.07 5.21997 36.21C5.21997 36.35 5.21997 36.28 5.21997 36.31C5.21997 36.34 4.98997 36.44 4.63997 36.43H4.36997C4.12835 36.4234 3.89881 36.323 3.72997 36.15C3.5512 35.9174 3.4188 35.6526 3.33997 35.37C3.34717 35.1078 3.41567 34.851 3.53997 34.62C3.74085 34.2618 4.01314 33.9487 4.33997 33.7L4.37997 33.72Z" fill="currentColor"/>
<path d="M90.68 32.91C90.5969 32.7136 90.4532 32.549 90.27 32.44C90.1997 32.3974 90.1262 32.3606 90.05 32.33C89.764 32.2097 89.4597 32.1387 89.15 32.12C89.0174 32.1003 88.8826 32.1003 88.75 32.12C88.5915 32.1756 88.427 32.2125 88.26 32.23C88.21 32.23 88.14 32.12 88.13 31.98C88.1151 31.9099 88.1204 31.837 88.1451 31.7698C88.1699 31.7026 88.2132 31.6437 88.27 31.6C88.6466 31.3985 89.0752 31.3149 89.5 31.36C89.7529 31.3801 90.007 31.3801 90.26 31.36C90.5617 31.3666 90.8598 31.4276 91.14 31.54C91.333 31.6145 91.5148 31.7154 91.68 31.84C91.9428 32.0654 92.1484 32.3498 92.28 32.67C92.4339 32.9116 92.5424 33.1794 92.6 33.46C92.6 33.52 92.6 33.58 92.6 33.63C92.6 33.68 92.53 33.8 92.39 33.81C92.2244 33.8367 92.0556 33.8367 91.89 33.81L91.62 33.75C91.3435 33.6655 91.0757 33.555 90.82 33.42L90.6 33.25C90.54 33.25 90.43 33.25 90.45 33.25H90.58H90.66C90.6571 33.2301 90.6571 33.2099 90.66 33.19C90.66 33.13 90.66 33.06 90.66 32.99L90.68 32.91Z" fill="currentColor"/>
<path d="M72.88 72.33C73.0776 71.99 73.2417 71.6317 73.37 71.26C73.5054 70.8882 73.5993 70.5025 73.65 70.11C73.65 69.8 73.65 69.49 73.65 69.17C73.7251 67.9845 73.7251 66.7955 73.65 65.61C73.65 65.07 73.57 64.54 73.52 63.99C73.4167 63.2756 73.4783 62.547 73.7 61.86C73.79 61.64 74.09 61.75 74.38 61.97C74.6915 62.1799 74.9156 62.4965 75.01 62.86C75.15 64.1 75.28 65.43 75.31 66.86C75.31 67.71 75.55 68.57 75.6 69.47C75.6347 69.9761 75.6347 70.484 75.6 70.99C75.541 71.5139 75.427 72.03 75.26 72.53C75.0722 73.1515 74.7924 73.7413 74.43 74.28C73.848 75.134 73.0221 75.7926 72.06 76.17C71.3879 76.4862 70.6791 76.718 69.95 76.86C69.79 76.86 69.64 76.92 69.48 76.93C69.3769 76.9456 69.2717 76.9406 69.1705 76.9153C69.0693 76.8899 68.9741 76.8448 68.8904 76.7826C68.8068 76.7203 68.7362 76.642 68.683 76.5523C68.6297 76.4627 68.5947 76.3633 68.58 76.26C68.58 76.15 68.52 76.05 68.51 75.95C68.5015 75.7687 68.5474 75.5889 68.6419 75.4339C68.7363 75.2789 68.875 75.1556 69.04 75.08C70.15 74.54 71.04 74.08 71.7 73.75C72.2024 73.3938 72.5969 72.9059 72.84 72.34L72.88 72.33Z" fill="currentColor"/>
<path d="M59.7401 13C60.4131 13.3763 61.0073 13.8788 61.4901 14.48C61.9306 15.0606 62.2875 15.7002 62.5501 16.38C62.7581 16.8446 62.9254 17.3265 63.0501 17.82C63.2514 18.6763 63.3653 19.5508 63.3901 20.43C63.3901 21.32 63.3901 22.09 63.4701 22.91C63.5608 23.6173 63.708 24.3162 63.9101 25C64.1349 25.8511 64.537 26.6451 65.0901 27.33C65.2701 27.5 65.1901 27.65 64.8701 27.64C64.6232 27.6078 64.3865 27.5211 64.1773 27.3862C63.968 27.2513 63.7914 27.0716 63.6601 26.86C62.6178 25.0897 62.1204 23.0515 62.2301 21C62.207 19.8683 61.9905 18.7488 61.5901 17.69C61.2387 16.5549 60.573 15.5425 59.6701 14.77C59.1128 14.3216 58.447 14.0284 57.7401 13.92C56.6026 13.7866 55.4497 13.9307 54.3801 14.34C53.5606 14.683 52.7905 15.1336 52.0901 15.68C51.9301 15.79 51.7901 15.93 51.6401 16.04C51.0701 16.48 50.8501 16.55 50.4401 16.32C50.3426 16.2782 50.2489 16.228 50.1601 16.17C49.8701 15.98 49.9201 15.54 50.3301 15.09C51.6442 13.717 53.3534 12.7873 55.2201 12.43C56.7423 12.0648 58.3442 12.2416 59.7501 12.93L59.7401 13Z" fill="currentColor"/>
<path d="M9.39006 56.8C9.5661 57.7055 9.98032 58.5478 10.5901 59.24C10.8342 59.4941 11.0984 59.7282 11.3801 59.94C12.3738 60.7977 13.5504 61.4168 14.8201 61.75C15.3979 61.8965 15.9948 61.9539 16.5901 61.92C16.9801 61.92 17.3501 61.82 17.7301 61.8C18.1163 61.7751 18.5038 61.7751 18.8901 61.8C19.1501 61.8 19.2301 62.19 19.1101 62.64C19.0565 62.9016 18.9428 63.1471 18.7779 63.3571C18.613 63.5672 18.4015 63.7359 18.1601 63.85C16.29 64.2811 14.3274 64.0255 12.6301 63.13C11.5832 62.6387 10.5966 62.028 9.69006 61.31C8.72941 60.4473 8.00051 59.3573 7.57006 58.14C7.31122 57.3939 7.17939 56.6097 7.18006 55.82C7.20035 54.6457 7.50214 53.4935 8.06006 52.46C8.44267 51.6596 8.91937 50.9076 9.48006 50.22C9.60907 50.0727 9.74593 49.9325 9.89006 49.8C10.4501 49.32 10.7801 49.38 11.1401 49.66C11.2257 49.7159 11.306 49.7795 11.3801 49.85C11.4379 49.9106 11.4813 49.9834 11.5073 50.063C11.5333 50.1426 11.541 50.227 11.5301 50.31C11.5248 50.5255 11.4551 50.7344 11.3301 50.91C10.5626 51.9089 9.96463 53.0271 9.56006 54.22C9.30873 55.0505 9.27089 55.931 9.45006 56.78L9.39006 56.8Z" fill="currentColor"/>
<path d="M27.16 50.21C26.905 49.2084 26.5148 48.2462 26 47.35C25.4556 46.4286 24.8333 45.5554 24.14 44.74C22.73 43.02 21.14 41.38 19.55 39.6C18.3465 38.3038 17.2808 36.8862 16.37 35.37C15.5431 33.9649 14.9837 32.4189 14.72 30.81C14.65 30.01 14.53 29.21 14.52 28.41C14.5548 27.6028 14.6349 26.7982 14.76 26C15.3751 22.8321 17.1112 19.992 19.65 18C21.8543 16.2516 24.4977 15.1444 27.29 14.8C27.7303 14.7352 28.175 14.7051 28.62 14.71C29.0663 14.685 29.5137 14.685 29.96 14.71L31.3 14.85L31.96 14.93L32.61 15.11C33.05 15.22 33.47 15.36 33.9 15.5C34.3126 15.6697 34.7165 15.8599 35.11 16.07C35.5112 16.2558 35.8989 16.4697 36.27 16.71L37.27 17.5C38.14 18.18 37.76 18.38 36.77 18.29C36.27 18.29 35.67 18.1 34.93 18C34.55 18 34.16 17.91 33.77 17.83C33.57 17.83 33.37 17.73 33.16 17.7L32.52 17.61C32.14 17.56 31.78 17.44 31.41 17.36L30.27 17.26C29.5112 17.2 28.7488 17.2 27.99 17.26C26.4838 17.4361 25.0154 17.8513 23.64 18.49C20.8197 19.7052 18.592 21.9832 17.44 24.83C16.8162 26.6351 16.6647 28.5698 17 30.45C17.4043 32.3619 18.2311 34.1591 19.42 35.71C20.7952 37.527 22.2778 39.2601 23.86 40.9C25.5475 42.6225 27.0245 44.5393 28.26 46.61C29.4938 49.3286 30.1737 52.2658 30.26 55.25C30.3779 57.3731 30.625 59.487 31 61.58C31.3679 63.585 32.3213 65.4362 33.74 66.9C34.8458 67.9556 36.199 68.7165 37.6754 69.1132C39.1518 69.5098 40.7041 69.5293 42.19 69.17C42.829 69.0182 43.4544 68.8142 44.06 68.56C46.31 67.5 46.91 66.94 47.76 67.06C47.9481 67.063 48.1356 67.0831 48.32 67.12C48.58 67.2 48.56 67.49 48.32 67.95C48.1375 68.2403 47.9265 68.5117 47.69 68.76C47.3409 69.0879 46.97 69.392 46.58 69.67C45.2002 70.6094 43.6408 71.2529 42 71.56C40.2519 71.8547 38.4592 71.7369 36.7647 71.2161C35.0702 70.6952 33.5208 69.7857 32.24 68.56C30.9358 67.3046 29.9398 65.7645 29.33 64.06C28.8986 62.8692 28.5969 61.6355 28.43 60.38C28.25 59.16 28.14 57.97 28.04 56.8C27.9337 54.5707 27.6291 52.3553 27.13 50.18L27.16 50.21Z" fill="currentColor"/>
<path d="M32.32 64L32.59 64.69C32.68 64.92 32.81 65.12 32.91 65.33C33.0064 65.536 33.1201 65.7334 33.25 65.92C33.3584 66.1091 33.4858 66.2867 33.63 66.45C34.2379 67.1829 34.9647 67.8083 35.78 68.3C37.422 69.3357 39.3548 69.8128 41.29 69.66C41.6663 69.6151 42.0357 69.5244 42.39 69.39C42.8033 69.196 43.1983 68.965 43.57 68.7C44.42 68.1 45.34 67.23 46.5 66.32C47.1279 65.821 47.797 65.3761 48.5 64.99C48.8919 64.7794 49.2959 64.5924 49.71 64.43C50.15 64.29 50.59 64.18 51.03 64.06C52.6637 63.7689 54.3404 63.8269 55.95 64.23C58.04 64.74 59.78 65.41 61.21 65.58C61.7831 65.6852 62.373 65.6509 62.93 65.48C63.18 65.48 63.38 65.25 63.63 65.17C63.88 65.09 64.09 64.83 64.32 64.58L64.9 63.9C65.0329 63.7188 65.1406 63.5203 65.22 63.31C65.4244 62.6595 65.5585 61.9891 65.62 61.31C65.71 60.52 65.79 59.65 65.99 58.66C66.1954 57.5147 66.6644 56.4328 67.36 55.5C68.726 53.9241 70.5343 52.7952 72.55 52.26C74.0589 51.9214 75.5346 51.4496 76.96 50.85C78.1506 50.2381 79.1502 49.3111 79.85 48.17C80.5531 46.9716 80.929 45.6094 80.94 44.22C80.9713 42.7634 80.6695 41.3189 80.0577 39.9966C79.446 38.6744 78.5404 37.5092 77.41 36.59C75.41 34.95 72.56 34.49 69.72 34.17C66.88 33.85 63.92 33.84 61 33.79C59.12 33.79 57.22 33.73 55.3 33.61C53.2915 33.5368 51.3012 33.2006 49.38 32.61C48.8293 32.4209 48.3051 32.1621 47.82 31.84C47.5448 31.6575 47.2871 31.4499 47.05 31.22L46.53 30.65C45.8622 29.9056 45.2725 29.0947 44.77 28.23C43.77 26.53 43 24.82 42.12 23.23C41.01 21.23 41.52 21.17 43.2 22.47C44.2823 23.39 45.3139 24.3681 46.29 25.4L48.16 27.27C48.46 27.61 48.78 27.93 49.09 28.27L49.58 28.75C49.6548 28.8137 49.7352 28.8706 49.82 28.92C50.4268 29.2433 51.082 29.4662 51.76 29.58C52.619 29.7502 53.4871 29.8704 54.36 29.94C56.16 30.11 58.05 30.17 59.95 30.22C63.8801 30.2223 67.8067 30.4527 71.71 30.91C73.9034 31.1625 76.0337 31.806 78 32.81C80.0178 33.9667 81.6977 35.6311 82.8731 37.638C84.0485 39.6449 84.6783 41.9244 84.7 44.25C84.7516 46.6346 84.0519 48.975 82.7 50.94C82.2814 51.5287 81.8057 52.0746 81.28 52.57C81.01 52.81 80.75 53.06 80.48 53.29L79.59 53.89C78.4444 54.626 77.1981 55.1919 75.89 55.57C74.72 55.94 73.64 56.26 72.76 56.63C72.3429 56.7963 71.9469 57.0111 71.58 57.27C71.4 57.38 71.26 57.53 71.1 57.65C70.94 57.77 70.78 57.96 70.73 58.05C70.3037 58.7661 70.063 59.5773 70.03 60.41C69.9289 61.7035 69.7283 62.9873 69.43 64.25C69.2253 65.0446 68.8872 65.7986 68.43 66.48C68.0015 67.1 67.5051 67.6702 66.95 68.18C65.739 69.3179 64.1685 69.997 62.51 70.1C60.9775 70.1471 59.4475 69.9445 57.98 69.5C56.67 69.16 55.49 68.82 54.42 68.65C53.487 68.4532 52.5189 68.5014 51.61 68.79C50.6388 69.1982 49.7508 69.7812 48.99 70.51C47.9555 71.4639 46.8489 72.3365 45.68 73.12C44.9784 73.5597 44.2173 73.8964 43.42 74.12C42.6372 74.3398 41.8321 74.4706 41.02 74.51C37.9368 74.6157 34.9 73.7365 32.35 72C30.7735 70.9468 29.4652 69.5393 28.53 67.89C27.6512 66.3324 27.0266 64.6445 26.68 62.89C26 59.49 26 56.25 25.45 53.31C25.1211 51.1531 24.2811 49.1062 23 47.34C21.5275 45.4763 19.9552 43.6937 18.29 42C16.4491 40.2105 14.8429 38.1943 13.51 36C12.1472 33.5902 11.5836 30.8103 11.9 28.06C12.141 26.0182 12.7117 24.029 13.59 22.17C14.4655 20.2821 15.7143 18.5912 17.2611 17.199C18.8079 15.8069 20.6207 14.7425 22.59 14.07C24.541 13.3908 26.5943 13.0526 28.66 13.07C30.4729 13.0338 32.2816 13.2594 34.03 13.74C36.3987 14.3148 38.5705 15.5129 40.32 17.21C40.8521 17.7676 41.2496 18.4397 41.4818 19.1746C41.7141 19.9095 41.7751 20.6879 41.66 21.45C41.5 21.93 40.91 21.76 39.97 21.28C39.03 20.8 37.62 20.1 35.89 19.28C33.2404 18.0968 30.3271 17.6279 27.44 17.92C24.699 18.1393 22.1255 19.3268 20.18 21.27C19.2696 22.2309 18.5412 23.349 18.03 24.57C17.5049 25.8271 17.1679 27.1547 17.03 28.51C16.81 31.07 17.67 32.97 19.6 35.32C21 37 22.87 38.84 24.72 40.87C25.66 41.87 26.57 42.97 27.47 44.13C28.4656 45.4803 29.2574 46.9696 29.82 48.55C30.6833 51.3372 31.1808 54.2247 31.3 57.14C31.381 59.4395 31.7608 61.7186 32.43 63.92L32.32 64Z" fill="currentColor"/>
<path d="M77.57 71.75C77.4324 72.4081 77.1893 73.0396 76.85 73.62C76.501 74.205 76.0662 74.7342 75.56 75.19C74.6491 75.9846 73.5783 76.5746 72.42 76.92C71.683 77.1704 70.9224 77.3447 70.15 77.44C67.5923 77.6425 65.0202 77.3227 62.59 76.5C61.5228 76.1281 60.4918 75.6595 59.51 75.1C58.2007 74.4062 57.1698 73.2835 56.59 71.92C56.41 71.5 56.92 71.29 57.59 71.24C58.2785 71.1644 58.974 71.2931 59.59 71.61C60.02 71.97 60.59 72.17 60.98 72.51C61.4407 72.8247 61.9218 73.1087 62.42 73.36C63.4874 73.8777 64.6071 74.28 65.76 74.56C66.4926 74.7382 67.2509 74.7856 68 74.7C68.7347 74.5876 69.4601 74.4205 70.17 74.2C70.8439 74.0589 71.4802 73.7765 72.037 73.3714C72.5937 72.9663 73.0583 72.4478 73.4 71.85C73.7831 71.0364 73.9452 70.1362 73.87 69.24C73.7485 67.5607 73.5214 65.8907 73.19 64.24C72.8172 62.7708 72.7122 61.2464 72.88 59.74C72.9342 59.3645 73.0281 58.9958 73.16 58.64C73.2431 58.3983 73.3747 58.1761 73.5466 57.987C73.7185 57.7978 73.9273 57.6457 74.16 57.54C74.3512 57.492 74.5504 57.4842 74.7448 57.5169C74.9393 57.5496 75.1249 57.6221 75.29 57.73C75.4798 57.8213 75.6635 57.9249 75.84 58.04C76.0757 58.2641 76.2603 58.5365 76.3811 58.8385C76.5019 59.1406 76.5561 59.4651 76.54 59.79C76.54 60.26 76.54 60.58 76.54 60.97C76.54 61.36 76.61 61.76 76.67 62.2C76.8 63.1 77.01 64.2 77.25 65.34C77.7793 67.4338 77.9049 69.6092 77.62 71.75H77.57Z" fill="currentColor"/>
<path d="M58.4301 10.19C59.6129 10.2674 60.7702 10.5694 61.8401 11.08C62.9854 11.6378 63.9646 12.486 64.6801 13.54C65.1964 14.2157 65.5891 14.9775 65.84 15.79C66.46 18.49 66.1501 20.79 66.2601 22.93C66.3057 23.8211 66.4948 24.6991 66.8201 25.53C67.0142 26.0312 67.2345 26.5219 67.4801 27C67.5604 27.2788 67.6573 27.5527 67.77 27.82C67.8743 28.1084 68.0119 28.3836 68.1801 28.64C68.3601 29 68.1801 29.18 67.6801 29.28C66.854 29.439 65.999 29.3413 65.2301 29C65.0375 28.8894 64.8506 28.7693 64.67 28.64C64.5177 28.4941 64.3803 28.3333 64.2601 28.16C63.9861 27.8501 63.7417 27.5154 63.5301 27.16C63.1263 26.4669 62.8582 25.7033 62.7401 24.91C62.4991 23.5473 62.4319 22.1596 62.5401 20.78C62.5789 20.0469 62.5081 19.3122 62.3301 18.6C62.2601 18.25 62.1401 17.93 62.0501 17.6C61.9601 17.27 61.8201 17.02 61.7201 16.76C61.5479 16.1797 61.2249 15.6555 60.7839 15.2409C60.343 14.8262 59.7998 14.5361 59.2101 14.4C58.3221 14.1741 57.4008 14.1097 56.4901 14.21C55.0088 14.367 53.5845 14.8669 52.3301 15.67C51.3637 16.3506 50.472 17.1317 49.67 18C49.4943 18.2041 49.3002 18.3916 49.0901 18.56C48.9611 18.6956 48.806 18.8035 48.6341 18.8772C48.4622 18.951 48.2771 18.989 48.0901 18.989C47.903 18.989 47.7179 18.951 47.546 18.8772C47.3741 18.8035 47.219 18.6956 47.0901 18.56C46.9309 18.4548 46.7774 18.3413 46.6301 18.22C46.5191 18.12 46.4299 17.9983 46.368 17.8624C46.3061 17.7265 46.2727 17.5793 46.2701 17.43C46.2459 17.0628 46.333 16.6969 46.5201 16.38C47.1098 15.3144 47.8893 14.3655 48.8201 13.58C49.8118 12.6926 50.9184 11.9426 52.1101 11.35C54.0665 10.3769 56.2367 9.91255 58.42 10L58.4301 10.19Z" fill="currentColor"/>
<path d="M10.0001 54.33C9.85539 54.6203 9.75431 54.9303 9.70006 55.25L9.58006 55.71C9.59479 55.863 9.59479 56.017 9.58006 56.17V56.64L9.64006 57.09V57.57L9.80006 58.02C9.85905 58.253 9.9721 58.4688 10.1301 58.65C10.2901 58.84 10.4101 59.06 10.5501 59.26C11.441 60.4334 12.6575 61.3189 14.048 61.8061C15.4385 62.2933 16.9415 62.3607 18.3701 62L19.2401 61.74L20.0801 61.37C20.6601 61.17 21.1701 60.84 21.7901 60.63C22.1701 60.5 22.4901 60.93 22.5301 61.63C22.5386 62.012 22.4741 62.3922 22.3401 62.75C22.2023 63.1628 21.9269 63.5158 21.5601 63.75L20.5601 64.38C20.1924 64.5604 19.8152 64.7207 19.4301 64.86C18.6594 65.1564 17.8576 65.3644 17.0401 65.48C16.6255 65.5318 16.2074 65.5485 15.7901 65.53C15.3763 65.5368 14.9633 65.4932 14.5601 65.4C14.1501 65.32 13.7401 65.24 13.3401 65.13C12.9401 65.02 12.5601 64.84 12.1801 64.68C10.2602 63.944 8.5454 62.7573 7.18006 61.22C6.46043 60.298 5.94405 59.2341 5.66485 58.0984C5.38564 56.9626 5.34993 55.7806 5.56006 54.63C5.65903 53.9418 5.84728 53.2695 6.12006 52.63C6.31423 51.9709 6.61122 51.3465 7.00006 50.78C8.19632 49.3174 9.55505 47.9955 11.0501 46.84C11.5801 46.39 12.0501 45.9 12.5401 45.41L13.2501 44.67C13.4901 44.43 13.7601 44.22 14.0101 44.01C14.2601 43.8 14.4401 43.61 14.6701 43.44C14.8096 43.2969 14.9776 43.1846 15.1633 43.1104C15.3489 43.0362 15.5481 43.0018 15.7478 43.0093C15.9476 43.0169 16.1436 43.0662 16.3231 43.1542C16.5026 43.2421 16.6617 43.3668 16.7901 43.52C16.9701 43.67 17.1701 43.8 17.3401 43.95C17.604 44.2189 17.7631 44.5732 17.7888 44.9491C17.8145 45.325 17.705 45.6977 17.4801 46C16.8491 47.1105 16.0572 48.1215 15.1301 49C14.2501 49.81 13.3401 50.55 12.5101 51.29C11.9422 51.7839 11.4045 52.3115 10.9001 52.87C10.7988 52.9801 10.7053 53.0971 10.6201 53.22L10.4901 53.39L10.4201 53.52C10.3854 53.5599 10.3553 53.6035 10.3301 53.65L10.2501 53.89L10.0901 54.35L10.0001 54.33Z" fill="currentColor"/>
<path d="M79 16.82C79.5794 16.8239 80.1402 17.0249 80.59 17.39C80.9189 17.6763 81.1758 18.036 81.34 18.44C81.5958 19.0744 81.6584 19.7702 81.52 20.44C81.453 20.8651 81.3108 21.2748 81.1 21.65C80.3773 22.6564 79.3608 23.4145 78.19 23.82C77.74 24 77.3 24.2 76.86 24.34C76.321 24.5983 75.7273 24.7219 75.13 24.7C74.93 24.7 74.87 24.34 74.91 23.93C74.9169 23.5356 75.0701 23.1578 75.34 22.87C75.82 22.6 76.25 22.3 76.68 22.04L78.02 21.5C78.251 21.3978 78.4578 21.2478 78.6267 21.0599C78.7956 20.872 78.9228 20.6506 79 20.41C79.0712 20.2318 79.1086 20.0419 79.11 19.85C79.1174 19.7769 79.1174 19.7031 79.11 19.63C79.1155 19.607 79.1155 19.583 79.11 19.56C79.11 19.56 79.11 19.56 79.19 19.43L79.28 19.25V19.17V19.12C79.28 18.72 79.28 19.66 79.28 19.56C79.28 19.56 79.28 19.56 79.22 19.56C79.16 19.56 79.15 19.56 79.03 19.63C78.5619 20.0711 78.1819 20.5971 77.91 21.18C77.6573 21.7904 77.3207 22.3625 76.91 22.88C76.797 22.9961 76.6692 23.097 76.53 23.18C75.96 23.49 75.67 23.34 75.41 22.93L75.24 22.65C75.131 22.3256 75.131 21.9744 75.24 21.65C75.2687 21.5485 75.2887 21.4448 75.3 21.34V21.03C75.3 20.87 75.39 20.71 75.45 20.53C75.5958 20.0876 75.7661 19.6536 75.96 19.23C76.1645 18.7574 76.4301 18.3136 76.75 17.91C76.8656 17.7666 76.9927 17.6328 77.13 17.51L77.35 17.31L77.66 17.13C78.0685 16.8948 78.5289 16.7643 79 16.75V16.82Z" fill="currentColor"/>
<path d="M92 29.28C92.4438 29.4427 92.8515 29.6907 93.2 30.01C93.6258 30.3808 93.9349 30.8671 94.09 31.41C94.2539 31.9648 94.2539 32.5552 94.09 33.11C93.9605 33.5667 93.7278 33.9875 93.41 34.34C93.0638 34.753 92.6389 35.0929 92.16 35.34C90.8304 35.811 89.407 35.955 88.01 35.76C87.45 35.76 86.9 35.76 86.36 35.65C85.6351 35.6356 84.926 35.4359 84.3 35.07C84.1 34.93 84.3 34.6 84.52 34.26C84.74 33.92 85.16 33.55 85.52 33.51C86.13 33.51 86.74 33.32 87.34 33.33C87.94 33.34 88.53 33.33 89.13 33.33C89.7485 33.3342 90.3467 33.1098 90.81 32.7C90.8828 32.6472 90.9498 32.5869 91.01 32.52C91.07 32.52 91.01 32.44 91.12 32.47C91.23 32.5 91.28 32.47 91.21 32.47H91.12C91.12 32.47 91.12 32.47 91.12 32.4C91.0418 32.296 90.9382 32.2138 90.8192 32.1612C90.7001 32.1087 90.5695 32.0876 90.44 32.1C89.7084 32.1757 89.0141 32.4603 88.44 32.92C87.93 33.3 87.52 33.85 86.97 34.31C86.8547 34.4207 86.7272 34.518 86.59 34.6C86.06 34.9 85.76 34.79 85.36 34.21C85.27 34.08 85.18 33.95 85.1 33.81C84.9951 33.63 84.9317 33.4289 84.9144 33.2213C84.8971 33.0137 84.9263 32.8049 85 32.61C85.14 32.36 85.29 32.1 85.44 31.86C85.59 31.62 85.81 31.42 86.02 31.2C86.4883 30.7238 87.0082 30.3012 87.57 29.94C88.1168 29.5752 88.7174 29.2985 89.35 29.12C90.2212 28.8787 91.145 28.9066 92 29.2V29.28Z" fill="currentColor"/>
<path d="M51.11 84.67C50.2495 85.0959 49.2745 85.2326 48.33 85.06C47.8787 84.9751 47.4498 84.7981 47.07 84.54C46.7008 84.2718 46.4106 83.9091 46.23 83.49C46.14 83.23 46.03 82.99 45.95 82.74L45.9 82.55C45.9 82.46 45.9 82.41 45.9 82.34C45.9 82.27 45.9 82.07 45.9 81.93V81.57C45.9 81.27 46.02 80.99 46.08 80.7V80.49C46.1448 80.4443 46.1909 80.3769 46.21 80.3C46.28 80.17 46.33 80.06 46.39 79.96C46.6131 79.5884 46.8638 79.2341 47.14 78.9C47.6151 78.3125 48.1667 77.7912 48.78 77.35C49.2471 76.9956 49.6821 76.6007 50.08 76.17C50.35 75.95 50.59 75.7 50.81 75.49L50.99 75.33L51.26 75.26C51.4533 75.2193 51.6438 75.1659 51.83 75.1C52.09 75.03 52.3 75.1 52.56 75.54C52.7298 75.8062 52.8674 76.0915 52.97 76.39C53.025 76.5704 53.0684 76.7541 53.1 76.94C53.1 77.04 53.1 77.12 53.1 77.23C53.0804 77.2978 53.05 77.3619 53.01 77.42C52.7452 77.7992 52.451 78.157 52.13 78.49C51.8218 78.743 51.4864 78.961 51.13 79.14L49.3 80.08C49.1578 80.163 49.0267 80.2638 48.91 80.38C48.8261 80.4976 48.765 80.6299 48.73 80.77C48.7155 80.8677 48.6955 80.9646 48.67 81.06V81.27V81.34C48.6526 81.4371 48.659 81.5369 48.6886 81.6309C48.7182 81.725 48.7702 81.8105 48.84 81.88C49.0124 82.0167 49.2311 82.0812 49.45 82.06C49.6352 82.0639 49.8201 82.0437 50 82C50.202 81.9175 50.383 81.7911 50.53 81.63C51.1229 81.0574 51.5007 80.2983 51.6 79.48C51.6594 78.7733 51.6393 78.0622 51.54 77.36C51.54 77.2 51.54 77.04 51.54 76.87C51.5718 76.6279 51.691 76.4058 51.8752 76.2455C52.0594 76.0853 52.2959 75.998 52.54 76C52.6598 75.9903 52.7802 75.9903 52.9 76C53.1164 76.0131 53.3248 76.0866 53.5015 76.2121C53.6783 76.3376 53.8163 76.5101 53.9 76.71C54.0869 77.0129 54.1999 77.3554 54.23 77.71C54.2895 78.0705 54.3229 78.4348 54.33 78.8C54.3542 79.6252 54.2461 80.449 54.01 81.24C53.7633 81.8955 53.4231 82.5119 53 83.07C52.7882 83.3822 52.5471 83.6735 52.28 83.94C52.1159 84.1042 51.9386 84.2547 51.75 84.39C51.5658 84.5212 51.3719 84.6382 51.17 84.74L51.11 84.67Z" fill="currentColor"/>
</svg>
