<svg width="96" height="96" viewBox="0 0 96 96" fill="none" xmlns="http://www.w3.org/2000/svg">
<path d="M78.33 41.79C75.14 55.37 42 72.84 33.31 75.14C33.1798 75.1837 33.0411 75.1956 32.9054 75.1748C32.7697 75.1539 32.641 75.1008 32.53 75.02L29 72.12C29 72.12 55.89 59 60.61 54.46C65.33 49.92 78.05 40.77 78.05 40.77L78.33 41.79Z" fill="currentColor"/>
<path d="M28 75.83C25.7361 74.3492 23.6433 72.622 21.76 70.68C19.9028 68.692 18.3035 66.4779 17 64.09C14.4114 59.2728 13.1809 53.8425 13.44 48.38C13.5106 46.4134 13.7482 44.4564 14.15 42.53C14.5314 40.6065 15.1077 38.7268 15.87 36.92C18.5487 30.5681 22.9949 25.1189 28.68 21.22C31.5094 19.3015 34.6106 17.8184 37.88 16.82C38.71 16.62 39.52 16.35 40.36 16.21L42.89 15.76L45.43 15.57C46.28 15.49 47.13 15.57 47.97 15.57H49.1L50.22 15.69C50.96 15.78 51.71 15.82 52.45 15.94C53.9216 16.1879 55.3775 16.5218 56.81 16.94C58.2333 17.3465 59.6323 17.834 61 18.4C61.69 18.68 62.34 19.03 63 19.34C63.6874 19.6301 64.3555 19.9641 65 20.34C68.3707 22.1877 71.3683 24.6462 73.84 27.59C76.3081 30.5898 77.9613 34.1752 78.64 38C78.64 39.22 78.54 39.75 78.28 39.77C78.02 39.79 77.58 39.3 76.82 38.55L70.82 31.64C66.4836 26.5658 60.6034 23.0532 54.08 21.64C50.844 20.8664 47.5097 20.5865 44.19 20.81C42.5396 20.9493 40.9039 21.2269 39.3 21.64C37.6742 22.1011 36.0863 22.6861 34.55 23.39C30.8195 25.2192 27.5538 27.8727 25 31.15C22.3734 34.4988 20.4392 38.3366 19.31 42.44C18.0038 46.9046 17.8763 51.6315 18.94 56.16C20.0579 60.7101 22.4111 64.8628 25.74 68.16C27.8132 70.2296 30.1701 71.9939 32.74 73.4C35.3085 74.832 38.0804 75.8639 40.96 76.46C45.2703 77.4126 49.7488 77.2889 54 76.1C58.2698 74.7646 62.2518 72.6413 65.74 69.84C68.3277 67.6218 70.5248 64.9852 72.24 62.04C73.8884 59.1104 75.1044 55.9578 75.85 52.68L76.1 51.61C76.17 51.25 76.21 50.89 76.27 50.53C76.36 49.81 76.53 49.09 76.58 48.36C76.95 45.63 76.85 43.87 77.07 42.61C77.1615 42.0638 77.2953 41.5255 77.47 41C77.68 40.54 77.86 40.18 78.04 39.82C78.22 39.46 78.33 39.07 78.46 38.82C78.7 38.45 79.08 38.77 79.87 39.82C80.5773 40.8685 81.0325 42.0664 81.2 43.32C81.3001 43.875 81.3603 44.4364 81.38 45C81.569 48.4741 81.2318 51.9567 80.38 55.33C79.4599 58.7902 78.0345 62.0957 76.15 65.14C75.1541 66.6661 74.0514 68.1198 72.85 69.49C72.2598 70.1901 71.6323 70.8577 70.97 71.49L68.9 73.31L68.39 73.77L67.83 74.17L66.7 75C65.94 75.51 65.22 76.1 64.42 76.53L62 77.8C61.6 78.01 61.2 78.24 60.79 78.43L59.52 78.94L57.65 79.7C57.0199 79.9714 56.3717 80.1986 55.71 80.38C55.03 80.57 54.35 80.78 53.71 80.94L51.64 81.31C48.8894 81.7029 46.0993 81.7365 43.34 81.41C37.8949 80.696 32.665 78.8277 28 75.93V75.83Z" fill="currentColor"/>
<path d="M69.5 51.11C63.8938 55.4829 57.8871 59.3166 51.56 62.56C49.27 63.73 47 65 44.71 66C40.63 67.9 36.4867 69.6733 32.28 71.32C28.0386 72.9574 23.6963 74.3202 19.28 75.4C17.3049 75.9156 15.3015 76.3163 13.28 76.6C12.2293 76.7378 11.1687 76.7846 10.11 76.74C8.96143 76.7206 7.82867 76.4689 6.78 76C6.00891 75.6332 5.34704 75.0713 4.86 74.37C4.39169 73.6582 4.09711 72.8464 4 72C3.90317 71.2099 3.93695 70.4092 4.1 69.63C4.2701 68.9058 4.5252 68.2043 4.86 67.54C6.12705 65.0128 8.19932 62.9792 10.75 61.76C11.57 61.39 12.06 61.5 12.13 61.76C12.2 62.02 11.97 62.57 11.64 63.24C11.31 63.91 10.85 64.72 10.34 65.68C10.08 66.14 9.84 66.68 9.55 67.15L8.6 68.69C8.0933 69.415 7.77068 70.2524 7.66 71.13C7.63643 71.4672 7.67369 71.806 7.77 72.13C7.82862 72.3414 7.95512 72.5276 8.13 72.66C8.8302 73.1029 9.64145 73.3387 10.47 73.34C11.6095 73.3903 12.7512 73.3334 13.88 73.17C15.07 73.02 16.28 72.79 17.49 72.52C18.7 72.25 19.9 71.83 21.1 71.45C23.5 70.67 25.9 69.81 28.3 68.91C34.193 66.685 39.9439 64.1001 45.52 61.17C48.64 59.62 51.7 58.06 54.65 56.29C57.6 54.52 60.49 52.62 63.27 50.58C66.7024 48.0666 69.991 45.3624 73.12 42.48C75.48 40.26 77.78 38 80 35.62C81.09 34.44 82.15 33.21 83.26 31.99C84.37 30.77 85.41 29.59 86.35 28.35C87.0765 27.4181 87.7032 26.4126 88.22 25.35C88.34 25.09 88.47 24.84 88.56 24.58L88.71 24.2C88.7447 24.1083 88.7747 24.0148 88.8 23.92C88.8913 23.6215 88.9417 23.312 88.95 23C88.9475 22.8525 88.9089 22.7079 88.8374 22.5788C88.7659 22.4498 88.6637 22.3403 88.54 22.26C88.2883 22.114 88.0008 22.0412 87.71 22.05C87.3737 22.0668 87.0394 22.1103 86.71 22.18C86.1838 22.2732 85.6703 22.4276 85.18 22.64C84.2737 23.021 83.4174 23.5113 82.63 24.1C81.4606 24.7382 80.2476 25.2929 79 25.76C78.5939 25.8556 78.1768 25.8959 77.76 25.88C77.3701 25.8117 76.9857 25.7148 76.61 25.59C76.28 25.48 75.91 25.44 75.68 25.33C75.28 25.15 75.32 24.69 75.59 23.76C76.0543 22.5352 76.89 21.4863 77.98 20.76C80.0307 19.1989 82.4352 18.1683 84.98 17.76C85.7199 17.5654 86.4766 17.4415 87.24 17.39C88.3015 17.3064 89.369 17.4356 90.38 17.77C91.3508 18.1 92.2029 18.7087 92.83 19.52C93.442 20.3516 93.7715 21.3575 93.77 22.39C93.71 23.4747 93.484 24.5438 93.1 25.56C93.0364 25.768 92.9596 25.9718 92.87 26.17L92.66 26.66C92.51 26.99 92.35 27.29 92.19 27.61C91.5635 28.8036 90.8305 29.9382 90 31C88.44 33 86.74 34.78 85.25 36.45C80.4606 41.8021 75.2177 46.7304 69.58 51.18L69.5 51.11Z" fill="currentColor"/>
<path d="M37.31 42.93C36.8918 43.1884 36.4498 43.406 35.99 43.58C35.5442 43.7068 35.0896 43.8004 34.63 43.86C33.7875 43.9342 32.9385 43.8631 32.12 43.65L31.25 43.43C30.9537 43.3263 30.6662 43.1992 30.39 43.05C29.3974 42.4801 28.6259 41.5923 28.2 40.53C28.0002 40.0165 27.8952 39.471 27.89 38.92C27.89 38.65 27.89 38.39 27.98 38.14L28.18 37.4C28.4633 36.5856 28.9089 35.8371 29.49 35.2C30.1656 34.3736 31.1389 33.8457 32.2 33.73C32.52 33.73 32.53 33.98 32.4 34.36C32.2562 34.7867 32.0246 35.1784 31.72 35.51C31.4336 35.7439 31.1929 36.0286 31.01 36.35C30.8364 36.6447 30.7114 36.9655 30.64 37.3C30.5683 37.5979 30.5347 37.9037 30.54 38.21C30.56 38.4963 30.56 38.7837 30.54 39.07C30.54 39.8 31.24 40.28 32.01 40.57C32.8983 40.9486 33.8947 40.9877 34.81 40.68C35.3101 40.4585 35.7268 40.0838 36 39.61C36.2296 39.22 36.3741 38.7858 36.4241 38.336C36.4741 37.8862 36.4284 37.4309 36.29 37C36.0454 36.3359 35.6192 35.7538 35.06 35.32C34.9258 35.245 34.7986 35.158 34.68 35.06C34.4933 34.8936 34.3603 34.6755 34.298 34.4333C34.2356 34.1911 34.2468 33.9358 34.33 33.7C34.33 33.56 34.38 33.41 34.41 33.27C34.53 32.82 34.98 32.59 35.73 32.65C36.8973 32.8504 37.9582 33.4516 38.73 34.35C39.1499 34.8278 39.4879 35.3718 39.73 35.96C39.81 36.27 39.88 36.59 39.93 36.91C39.98 37.23 39.93 37.57 39.98 37.91C39.9676 38.9034 39.7245 39.8804 39.2698 40.7637C38.8151 41.6471 38.1613 42.4127 37.36 43L37.31 42.93Z" fill="currentColor"/>
</svg>
