<svg width="96" height="96" viewBox="0 0 96 96" fill="none" xmlns="http://www.w3.org/2000/svg">
<path d="M47.43 50.15C47.0097 49.6641 46.6379 49.1383 46.32 48.58C45.9769 48.0319 45.7016 47.4443 45.5 46.83C45.1065 45.681 44.9071 44.4745 44.91 43.26C44.8248 42.4823 44.8248 41.6977 44.91 40.92C45.4887 38.5857 46.5068 36.3831 47.91 34.43C48.47 33.61 48.91 32.74 49.37 31.88C49.6 31.2649 49.9604 30.7069 50.4265 30.2443C50.8925 29.7817 51.4532 29.4254 52.07 29.2C52.52 29.08 53.39 30.14 54.19 31.33C54.99 32.52 55.82 33.83 55.67 34.33L55.45 34.96L55.34 35.28L55.17 35.55C54.93 35.91 54.69 36.27 54.42 36.63C53.8686 37.38 53.2707 38.0947 52.63 38.77C51.8 39.65 51.93 40.84 51.84 41.77C51.7169 42.6506 51.8308 43.5481 52.17 44.37C52.4382 44.9459 52.8475 45.4446 53.36 45.82C54.2942 46.5805 55.4051 47.0929 56.59 47.31C57.1029 47.3795 57.624 47.3592 58.13 47.25C58.64 47.25 59.13 47.15 59.67 47.14C59.8981 47.1034 60.129 47.0867 60.36 47.09C60.4555 47.0983 60.5495 47.1184 60.64 47.15C60.7252 47.2022 60.8027 47.2661 60.87 47.34C61.0105 47.4824 61.1195 47.6528 61.19 47.84C61.3708 48.388 61.4554 48.9632 61.44 49.54C61.44 49.89 61.44 50.23 61.44 50.54C61.4356 51.0594 61.323 51.5721 61.1096 52.0456C60.8961 52.519 60.5863 52.9428 60.2 53.29C59.9459 53.5046 59.6589 53.6768 59.35 53.8C59.0696 53.9345 58.7826 54.0546 58.49 54.16C57.9068 54.3729 57.3038 54.527 56.69 54.62C55.4312 54.579 54.1864 54.3429 53 53.92C50.8213 53.198 48.8536 51.9514 47.27 50.29L47.43 50.15Z" fill="currentColor"/>
<path d="M86.42 52.76C85.3067 60.1556 81.9688 67.0372 76.85 72.49C74.3536 75.1637 71.488 77.467 68.34 79.33C65.1831 81.164 61.7682 82.5124 58.21 83.33C53.1333 84.4646 47.8958 84.6915 42.74 84C38.2159 83.3518 33.8261 81.9775 29.74 79.93C27.7211 78.8803 25.8001 77.652 24 76.26C22.119 74.9401 20.3916 73.414 18.85 71.71C15.6755 68.2964 13.4034 64.1441 12.24 59.63C11.9539 58.5127 11.7269 57.3812 11.56 56.24C11.44 55.09 11.3 53.95 11.29 52.8C11.28 51.65 11.29 50.52 11.34 49.38C11.39 48.24 11.54 47.11 11.73 46.01C12.3559 42.0726 13.4539 38.2249 15 34.55C16.5614 30.8839 18.6172 27.4487 21.11 24.34C24.2795 20.1971 28.4218 16.8997 33.17 14.74C35.5916 13.7331 38.1561 13.1122 40.77 12.9C42.0618 12.8099 43.3583 12.8099 44.65 12.9C45.926 12.9757 47.1883 13.204 48.41 13.58C49.89 14.27 50.47 14.65 50.41 14.78C49.7037 14.9936 48.9859 15.1672 48.26 15.3C46.96 15.74 45.19 16.1 43.26 16.87L41.78 17.49C41.28 17.72 40.78 17.97 40.26 18.19C39.26 18.66 38.17 19.12 37.11 19.67C36.1606 20.1435 35.2391 20.671 34.35 21.25C33.4068 21.7745 32.4983 22.359 31.63 23C29.9155 24.3005 28.3435 25.7787 26.94 27.41C24.0953 30.8083 21.8192 34.6446 20.2 38.77C18.4887 42.9044 17.4978 47.3012 17.27 51.77C17.1954 53.9429 17.3936 56.1165 17.86 58.24C17.966 58.7742 18.1029 59.3017 18.27 59.82C18.4097 60.3461 18.58 60.8637 18.78 61.37C18.9402 61.8939 19.1305 62.4081 19.35 62.91C19.55 63.42 19.79 63.91 20.04 64.41C22.6007 69.3699 26.7979 73.2915 31.92 75.51C37.1553 77.868 42.8493 79.0328 48.59 78.92C54.8196 79.0076 60.9348 77.243 66.16 73.85C71.3515 70.4001 75.4189 65.5053 77.86 59.77C79.3644 56.3009 80.111 52.5507 80.05 48.77C80.0148 45.111 78.8055 41.5599 76.6 38.64C75.7426 37.5339 74.6799 36.6035 73.47 35.9C72.2351 35.2201 70.8736 34.8014 69.47 34.67C68.021 34.5293 66.5588 34.6238 65.14 34.95L64.08 35.25C63.72 35.35 63.38 35.5 63.03 35.62C62.5358 35.8233 62.0577 36.064 61.6 36.34L60.79 36.78C60.52 36.96 60.25 37.18 59.98 37.38L58.89 38.06C58.7361 38.1618 58.5675 38.2394 58.39 38.29L57.93 38.45L57.01 38.77L56.3 38.97L55.62 39.17C55.31 39.05 55.16 38.78 54.96 38.57C54.5898 38.0791 54.2682 37.5533 54 37C53.4132 35.5992 52.9253 34.159 52.54 32.69L51.95 30.55C51.8 30.01 51.65 29.48 51.52 28.92L51.38 28.32L53.31 28.39C53.4556 28.4055 53.6017 28.3663 53.72 28.28C53.6949 28.4553 53.7264 28.634 53.81 28.79C53.81 28.92 53.94 29.06 54.03 29.25C54.12 29.44 54.23 29.58 54.35 29.79L54.55 30.08L54.65 30.22V30.3C54.5139 30.4167 54.3837 30.5402 54.26 30.67C53.907 31.0393 53.5732 31.4264 53.26 31.83C51.8781 33.6175 50.6535 35.5213 49.6 37.52C49.08 38.52 48.6 39.52 48.18 40.52C47.97 41.03 47.78 41.52 47.62 42.03C47.5333 42.2833 47.4534 42.5333 47.38 42.78L47.29 43.13V43.34C47.1657 43.8864 47.1657 44.4537 47.29 45C47.3978 45.2436 47.5588 45.4599 47.7613 45.633C47.9638 45.8061 48.2026 45.9315 48.46 46C48.7033 46.0898 48.9543 46.1568 49.21 46.2H49.39H49.47H49.64L50.37 46.31C51.37 46.43 52.37 46.48 53.51 46.55H54H54.23L54.64 46.5C54.898 46.4526 55.1584 46.4192 55.42 46.4C55.582 46.3481 55.7501 46.3178 55.92 46.31H56.37C56.51 46.31 56.68 46.31 56.74 46.14C56.7772 45.9128 56.7348 45.6796 56.62 45.48C56.4844 45.1921 56.3804 44.8904 56.31 44.58C56.2382 43.8934 56.2617 43.2002 56.38 42.52C56.38 42.1 56.27 41.44 56.38 41.08C56.49 40.72 56.64 40.62 57.03 40.63C57.272 40.6503 57.5105 40.7007 57.74 40.78C58.1769 40.9538 58.6041 41.1507 59.02 41.37C60.4442 42.2427 61.7834 43.2471 63.02 44.37C64.3019 45.6512 65.1843 47.277 65.56 49.05C65.6751 49.631 65.6751 50.229 65.56 50.81C65.4924 51.1629 65.3639 51.5013 65.18 51.81C64.9988 52.0887 64.7762 52.3382 64.52 52.55C64.0563 52.959 63.5338 53.2961 62.97 53.55C62.2395 53.9209 61.4384 54.1322 60.62 54.17C59.48 54.39 58.22 54.48 56.94 54.63C56.31 54.68 55.65 54.76 54.94 54.79L53.19 54.85C51.4178 54.9347 49.6419 54.8071 47.9 54.47L47.54 54.4L47 54.28C46.65 54.19 46.32 54.08 46 53.98C45.6597 53.8844 45.3257 53.7675 45 53.63C44.6555 53.5183 44.321 53.3778 44 53.21C42.7409 52.6242 41.6198 51.7791 40.71 50.73C39.8039 49.686 39.1837 48.425 38.91 47.07C38.6504 45.6699 38.6708 44.2322 38.97 42.84C39.1065 42.1107 39.2834 41.3896 39.5 40.68C39.68 40.1 39.8 39.68 39.97 39.26C40.29 38.38 40.63 37.54 40.97 36.73C41.6924 35.1505 42.5002 33.6116 43.39 32.12C44.27 30.65 45.2 29.23 46.25 27.81C46.79 27.09 47.34 26.39 48.01 25.62C48.4061 25.1705 48.8268 24.7432 49.27 24.34C49.7025 23.9567 50.1753 23.6214 50.68 23.34L51.05 23.15C51.2382 23.0552 51.4319 22.9718 51.63 22.9L51.99 22.77L52.54 22.63L53.12 22.54C53.4529 22.5149 53.7872 22.5149 54.12 22.54L54.62 22.59L54.87 22.64L55.22 22.72C55.6988 22.8517 56.1591 23.0432 56.59 23.29C57.0142 23.5302 57.4044 23.8262 57.75 24.17C57.9204 24.3405 58.0807 24.5208 58.23 24.71C58.3675 24.8786 58.4945 25.0556 58.61 25.24C58.7731 25.5129 58.9168 25.7969 59.04 26.09C59.1435 26.3441 59.2304 26.6046 59.3 26.87C59.3795 27.1991 59.4363 27.5332 59.47 27.87L59.28 27C59.37 27.35 59.46 27.74 59.54 28.12L59.72 28.88L59.94 28.8C60.8623 28.461 61.804 28.1772 62.76 27.95C64.6986 27.4746 66.697 27.2892 68.69 27.4C70.7481 27.5061 72.775 27.9486 74.69 28.71C76.6564 29.498 78.4576 30.6479 80 32.1C85.86 37.89 87.36 45.86 86.5 52.79L86.42 52.76Z" fill="currentColor"/>
</svg>
