<svg width="96" height="96" viewBox="0 0 96 96" fill="none" xmlns="http://www.w3.org/2000/svg">
<path d="M19.65 57.17C21.65 59.17 23.65 61.11 25.65 63.07C26.38 63.78 27.16 64.44 27.89 65.16C30.45 67.71 33 70.27 35.45 72.93L38.77 76.42C40.2523 77.8778 41.4883 79.5664 42.43 81.42C42.69 82.05 42.43 82.04 41.93 81.71C41.1641 81.2191 40.4415 80.6637 39.77 80.05C39.42 79.69 39.03 79.34 38.67 78.99L38.1 78.48L37.54 78L35.36 75.81C33.91 74.35 32.42 72.9 31 71.36C29.31 69.52 27.32 67.82 25.46 66.06L19.34 60.2C18.09 58.98 16.85 57.77 15.63 56.49C15.4 56.25 15.16 56.01 14.94 55.75C14.72 55.49 14.71 55.5 14.6 55.36C14.49 55.22 14.37 55.1 14.22 54.88C13.9127 54.5227 13.7551 54.0606 13.78 53.59C13.8175 53.3589 13.8847 53.1337 13.98 52.92C14.07 52.7 14.19 52.47 14.26 52.34C14.94 51.12 15.71 50.06 16.42 48.95C17.54 47.25 18.56 45.53 19.58 43.83C19.81 43.45 20 43.07 20.25 42.71C20.5602 42.2304 20.9115 41.7787 21.3 41.36C21.5396 41.1583 21.8243 41.0177 22.13 40.95C22.2477 40.9087 22.3679 40.8753 22.49 40.85C22.66 40.85 22.75 41 22.76 41.37C22.7662 41.8758 22.6639 42.377 22.46 42.84C21.07 46.32 18.61 49.29 16.84 52.49C16.69 52.78 16.53 53.07 16.4 53.34L16.31 53.54L16.51 53.79L16.83 54.16C17.71 55.16 18.72 56.16 19.71 57.16L19.65 57.17Z" fill="currentColor"/>
<path d="M50.61 62C50.61 62 52.92 61.85 53.28 60.54C53.64 59.23 53.28 64.46 53.28 64.46L50.61 62Z" fill="currentColor"/>
<path d="M54 51.16L47.9 51.44L45.69 51.6L41.77 51.81C40.46 51.81 39.15 51.9 37.84 51.98C36.68 52.06 35.52 52.16 34.38 52.26L29.95 52.65C29.49 52.65 29.55 52.65 29.95 52.59C30.35 52.53 31.04 52.34 31.88 52.2C34.88 51.69 37.88 51.2 40.88 50.87L46.44 50.28L52.57 49.75L56.34 49.47C58.25 49.32 60.16 49.2 62.05 49C63.52 48.86 64.94 48.6 66.39 48.4C66.71 48.4 67.02 48.3 67.39 48.27C68.58 48.15 68.97 48.27 69.27 48.68C69.3439 48.7729 69.4076 48.8734 69.46 48.98C69.61 49.33 69.15 49.66 68.28 49.85C65.6217 50.3815 62.9277 50.7157 60.22 50.85L54 51.19V51.16Z" fill="currentColor"/>
<path d="M35.72 47.77L34.43 46.14C34.27 45.94 34.09 45.76 33.94 45.56C33.43 44.82 32.94 44.07 32.45 43.31L31.79 42.31C31.4933 41.9119 31.2604 41.4699 31.1 41C31.01 40.69 31.61 40.89 31.94 41.3C32.5 42.09 33.17 42.83 33.76 43.65C34.15 44.1209 34.5639 44.5715 35 45L36.36 46.54L37.21 47.48C37.65 47.95 38.08 48.43 38.55 48.86C38.935 49.1733 39.3355 49.467 39.75 49.74C39.8438 49.7942 39.934 49.8543 40.02 49.92C40.33 50.18 40.35 50.34 40.12 50.7C40.0726 50.787 40.0191 50.8705 39.96 50.95C39.8765 51.0724 39.7505 51.1596 39.6065 51.1947C39.4625 51.2298 39.3106 51.2103 39.18 51.14C38.382 50.6772 37.6657 50.0859 37.06 49.39C36.59 48.88 36.14 48.39 35.68 47.82L35.72 47.77Z" fill="currentColor"/>
<path d="M22.59 57.23C25 60 27.5 62.69 30 65.38C30.93 66.38 32 67.25 32.88 68.25C36.13 71.77 39.31 75.37 42.47 79.02C43.84 80.66 45.29 82.26 46.69 83.89L48.05 85.48C48.45 86.07 48.84 86.64 49.19 87.28C49.9942 88.5896 50.4964 90.062 50.66 91.59C50.66 92.8 49.99 92.37 49.19 91.91C48.0615 91.4215 46.9914 90.8077 46 90.08C45.54 89.65 45.05 89.23 44.54 88.81C44.0743 88.3543 43.6337 87.8736 43.22 87.37L40.54 84.37L39.19 82.87L37.9 81.28C37.04 80.21 36.19 79.13 35.35 78.03C33.1556 75.445 30.8187 72.9846 28.35 70.66C25.77 67.96 23.19 65.23 20.65 62.44C19.07 60.75 17.52 59 16 57.1L15.58 56.52C15.41 56.28 15.24 55.99 15.07 55.72C14.7616 55.1913 14.5611 54.6067 14.48 54C14.5354 53.3736 14.6767 52.7578 14.9 52.17C15.18 51.55 15.35 51.17 15.57 50.76C16.4 49.14 17.28 47.63 18.09 46.1C18.72 44.9 19.29 43.7 19.83 42.49C20.37 41.28 20.83 40.04 21.46 38.91C21.74 38.4 21.94 37.91 22.22 37.4C22.5433 36.7322 22.9536 36.1102 23.44 35.55C23.799 35.251 24.2241 35.0419 24.68 34.94C24.89 34.94 25.11 34.8 25.29 34.77C25.47 34.74 25.81 34.95 25.98 35.45C26.1936 36.1437 26.2246 36.8808 26.07 37.59C25.83 38.86 25.53 40.12 25.2 41.35C25.041 41.9615 24.8267 42.5572 24.56 43.13C24.32 43.71 24.06 44.28 23.8 44.85C22.75 47.13 21.58 49.36 20.57 51.53L20 52.68C19.9087 52.8616 19.8286 53.0486 19.76 53.24L19.67 53.46C19.6624 53.4556 19.6538 53.4533 19.645 53.4533C19.6363 53.4533 19.6276 53.4556 19.62 53.46C19.52 53.34 19.87 53.8 20.08 54.08L20.88 55.08C21.45 55.75 22.05 56.42 22.66 57.08L22.59 57.23Z" fill="currentColor"/>
<path d="M73.32 30C74.3538 32.5998 75.584 35.117 77 37.53C78.43 39.99 80 42.37 81.73 44.84L83.49 47.37L83.79 48.16L83.93 48.56L84.01 48.75V48.85H83.85C83.8946 49.1182 83.8946 49.3918 83.85 49.66C83.774 49.9411 83.6667 50.2128 83.53 50.47C83.2262 51.0148 82.8924 51.5423 82.53 52.05L82.07 52.69L81.74 53.13C76.99 59.19 72.16 65.02 67.61 71.13C65.61 73.84 63.61 76.61 61.82 79.38C60.64 81.16 59.53 82.99 58.43 84.8C57.33 86.61 56.05 88.33 55.05 90.15C54.45 91.27 54.05 91.02 53.81 89.7C53.6129 87.6134 53.911 85.5097 54.68 83.56C56.7091 79.5697 58.9835 75.709 61.49 72C64.07 68.37 66.79 64.86 69.65 61.43C71.35 59.43 72.99 57.22 74.59 55.02L78.66 49.36C78.66 49.28 78.82 49.18 78.76 49.09L78.6 48.84C78.6 48.74 78.48 48.64 78.41 48.53L78.21 48.23L77.92 47.82L76.76 46.18C76 45.1 75.2 44 74.45 42.83C72.9094 40.5355 71.507 38.1513 70.25 35.69C69.8 34.81 69.38 33.91 68.98 33C68.77 32.55 68.59 32.09 68.4 31.63L68.19 31.12L68.08 30.78C68.0194 30.5713 67.9355 30.37 67.83 30.18C67.6194 30.1364 67.4051 30.113 67.19 30.11H66.86H65.11C63.73 30.04 62.35 30.38 60.96 30.32L56.8 30.41L52.64 30.57C51.26 30.57 49.88 30.66 48.5 30.73C44.22 30.96 40.04 31.58 35.82 32.05C34.89 32.15 33.99 32.32 33.05 32.39C32.11 32.46 31.46 32.48 30.85 32.47C30.3222 32.3922 29.8096 32.2337 29.33 32C28.6224 31.6475 28.0217 31.1124 27.59 30.45C27.3944 30.1977 27.2141 29.9339 27.05 29.66C26.86 29.23 27.11 28.82 27.71 28.3C28.5339 27.574 29.4967 27.0228 30.54 26.68C34.3744 25.9159 38.2464 25.3551 42.14 25C44.14 24.8 46.14 24.6367 48.14 24.51C50.14 24.39 52.14 24.22 54.14 24.25H58.14H60.14C60.8082 24.2351 61.4766 24.2685 62.14 24.35C62.82 24.46 63.5 24.6 64.14 24.68H66.2C66.41 24.68 67.28 24.68 67.88 24.73C68.2148 24.7342 68.5489 24.7609 68.88 24.81H69.36C69.5059 24.8413 69.6448 24.8989 69.77 24.98C70.0341 25.0891 70.27 25.2566 70.46 25.47L70.77 25.74C70.87 25.6 70.57 26.04 70.99 25.44L71.05 25.52L71.18 25.7L72.23 27.08L73.06 29L73.43 29.91L73.32 30Z" fill="currentColor"/>
<path d="M53.42 52.28C50.66 52.4 47.89 52.55 45.13 52.77C44.13 52.84 43.13 53.07 42.13 53.12C38.55 53.26 34.97 53.42 31.4 53.71C30.6 53.77 29.82 53.89 29.02 53.95L26.65 54.17C25.65 54.27 24.65 54.39 23.65 54.45H22.88L22.1 54.36C21.57 54.3 21.05 54.24 20.51 54.13C20.17 54.07 19.98 53.94 20.03 53.89C20.08 53.84 20.24 53.8 20.49 53.64C20.8356 53.4319 21.1694 53.2048 21.49 52.96L22.16 52.48C22.28 52.38 22.41 52.32 22.54 52.21L22.94 52.08C24.94 51.5 26.94 50.89 28.94 50.4C30.94 50.1 33.05 49.87 35.15 49.76C37.65 49.65 40.15 49.02 42.74 48.76C45.54 48.48 48.35 48.26 51.16 48.07L56.37 47.74C58.99 47.57 61.64 47.51 64.25 47.33C65.25 47.26 66.25 47.14 67.25 47.02L68.77 46.84C69.02 46.84 69.28 46.77 69.53 46.76H70.3C70.76 46.76 71.2 46.76 71.66 46.76C73.35 46.96 73.88 47.35 74.12 48.34C74.1897 48.5455 74.2432 48.7562 74.28 48.97C74.36 49.6 73.62 50.26 72.46 50.49C71.59 50.7 70.72 50.91 69.83 51.14C68.9524 51.3118 68.0633 51.4187 67.17 51.46C65.38 51.6 63.54 51.72 61.7 51.82C58.96 51.99 56.18 52.11 53.41 52.33L53.42 52.28Z" fill="currentColor"/>
<path d="M54.11 41.07C53.11 42.07 52.11 43.07 51.11 44.07L48 47.1C47.24 47.84 46.58 48.67 45.78 49.4L44.67 50.4C44.1078 50.9145 43.5022 51.3796 42.86 51.79C42.5358 51.9395 42.2017 52.0664 41.86 52.17C41.5256 52.2023 41.1882 52.182 40.86 52.11C40.1576 51.9 39.5184 51.5185 39 51C38.71 50.76 38.44 50.5 38.17 50.24L37.62 49.64C37.29 49.29 36.98 48.92 36.68 48.56L34.91 46.39C33.91 45.12 32.77 43.91 31.66 42.75C30.9014 42.0498 30.1992 41.2908 29.56 40.48C28.94 39.66 28.35 38.8 27.71 37.98C27.32 37.47 27.5 37.34 28.18 37.38C29.2509 37.4515 30.299 37.7228 31.27 38.18L32.01 38.59C32.2612 38.709 32.4936 38.864 32.7 39.05L33.9 40.15C34.69 40.89 35.46 41.64 36.2 42.4C37.68 43.92 39.12 45.49 40.42 47.03C40.5364 47.1418 40.6313 47.274 40.7 47.42C40.7607 47.5048 40.8276 47.585 40.9 47.66C40.9727 47.7404 41.0661 47.7992 41.17 47.83C41.27 47.83 41.35 47.75 41.44 47.69C41.5216 47.6255 41.5985 47.5554 41.67 47.48L42.12 47L43.42 45.6L49.28 39.29L51.16 37.38L53.23 35.38C53.8771 34.6999 54.6139 34.1111 55.42 33.63C55.7954 33.4559 56.198 33.3477 56.61 33.31C56.9998 33.4562 57.3591 33.6732 57.67 33.95C58.3811 34.5707 59.0493 35.2389 59.67 35.95L61.05 37.44C62.48 38.95 64.05 40.26 65.59 41.67C65.93 41.98 66.29 42.25 66.59 42.58C66.74 42.73 66.87 42.88 66.99 43.01C67.11 43.14 67.16 43.31 67.23 43.44C67.348 43.6797 67.429 43.936 67.47 44.2C67.4998 44.4283 67.4794 44.6604 67.41 44.88C67.3094 45.1392 67.1821 45.3872 67.03 45.62C66.89 45.85 66.7901 46.08 66.66 46.25C66.3101 46.76 65.02 46.95 63.94 46.25C63.5228 46.0267 63.1334 45.7548 62.78 45.44C62.41 45.15 62.05 44.84 61.7 44.53C60.99 43.91 60.31 43.26 59.64 42.59C58.97 41.92 58.31 41.23 57.64 40.59L56.64 39.54L56.25 39.11C56.25 39.11 56.25 39.11 56.25 39.05C56.25 38.99 56.25 39.05 56.18 39.05L56.01 39.24L55.65 39.61L54.2 41.15L54.11 41.07Z" fill="currentColor"/>
<path d="M36.0001 61C36.4401 60.67 36.8801 60.36 37.2901 60C37.4401 59.88 37.5201 59.7 37.6801 59.59C38.2301 59.18 38.8201 58.81 39.3401 58.39C39.558 58.1948 39.7377 57.9608 39.87 57.7C40.05 57.37 40.1101 56.95 40.5901 56.85C40.8901 56.78 43.0401 58.73 42.8101 59.14C42.3834 59.8487 41.7476 60.4077 40.9901 60.74C40.5001 60.95 40.3001 61.42 39.9901 61.74C39.6801 62.06 39.2001 62.45 38.8101 62.8C38.4201 63.15 38.3201 63.23 38.0901 63.46C37.7404 63.7766 37.4067 64.1103 37.0901 64.46C36.8701 64.75 36.79 65.15 36.55 65.46C36.5187 65.5337 36.4747 65.6014 36.42 65.66C36.19 65.87 35.9801 65.83 35.4901 65.54L35.1501 65.34C34.9923 65.2492 34.8561 65.1253 34.7508 64.9769C34.6455 64.8284 34.5736 64.6589 34.5401 64.48C34.4799 64.042 34.4799 63.5979 34.5401 63.16C34.6452 62.8131 34.786 62.478 34.96 62.16C35.17 61.64 35.66 61.35 36.03 60.97L36.0001 61Z" fill="currentColor"/>
<path d="M56.63 64.64C56.5873 64.9218 56.4923 65.1931 56.35 65.44L56.03 66.11L55.37 67.49C55.2 67.66 55.1 67.95 54.9 68.12C54.8616 68.1075 54.8247 68.0907 54.79 68.07C53.1601 67.1184 51.6437 65.9844 50.27 64.69L49.36 63.83L48.9 63.42L48.54 62.87C48.23 62.44 47.81 62.16 47.66 61.95C47.4425 61.707 47.2789 61.4208 47.18 61.11C47.12 60.89 47.54 60.45 48.09 60.11C48.64 59.77 49.38 59.43 49.73 59.6L50.17 59.82H50.23C50.23 59.82 50.23 59.82 50.23 59.91C50.2729 60.1935 50.3642 60.4675 50.5 60.72C50.5806 60.9063 50.6999 61.0734 50.85 61.21C50.96 61.31 51.02 61.29 51.16 61.43C51.1922 61.4465 51.2224 61.4666 51.25 61.49C51.33 61.49 51.45 61.67 51.53 61.68C51.5853 61.6599 51.6362 61.6293 51.68 61.59C51.7735 61.5064 51.8484 61.4042 51.9 61.29C51.9877 61.0973 52.0418 60.891 52.06 60.68C52.1572 60.2218 52.1572 59.7482 52.06 59.29C51.9745 58.9758 51.8431 58.6759 51.67 58.4C51.53 58.1 51.37 57.8 51.25 57.48C51.19 57.34 51.09 57.2 51.12 57.05C51.18 56.46 51.54 56.17 52.58 56.05C52.8119 56.0151 53.0457 55.9951 53.28 55.99C53.9288 55.9547 54.5759 56.0855 55.16 56.37L55.63 56.67C55.7496 56.7705 55.857 56.8846 55.95 57.01C56.1324 57.2465 56.2899 57.5012 56.42 57.77C56.5111 58.0409 56.5813 58.3184 56.63 58.6V58.81L56.69 59.23L56.79 60.06C56.9414 61.603 56.9414 63.157 56.79 64.7L56.63 64.64Z" fill="currentColor"/>
<path d="M33.53 19.08C33.84 19.08 33.61 19.47 33.09 20.16C32.8303 20.4688 32.5271 20.7383 32.19 20.96C31.9655 21.0305 31.7343 21.0775 31.5 21.1C30.9581 20.857 30.4306 20.5832 29.92 20.28C29.5772 20.0903 29.2776 19.8315 29.04 19.52C28.54 18.92 28.04 18.34 27.54 17.74C27.4351 17.5964 27.3603 17.4332 27.32 17.26C27.1787 16.6729 26.8776 16.1364 26.45 15.71C26.39 15.63 26.35 15.53 26.19 15.53C26.03 15.53 25.06 14.14 25.05 13.9C24.9724 13.3095 24.9257 12.7153 24.91 12.12C24.91 12.04 24.84 11.98 24.91 11.85C24.9806 11.7688 25.0258 11.6686 25.04 11.562C25.0542 11.4553 25.0368 11.3468 24.99 11.25C24.9322 11.0111 24.9053 10.7657 24.91 10.52C24.9504 10.3565 25.018 10.201 25.11 10.06C25.18 9.92998 25.58 9.82998 25.63 9.83998C25.68 9.84998 25.94 9.72998 26.1 9.65998L26.26 9.59998C26.512 9.67744 26.7564 9.77786 26.99 9.89997C27.2558 10.0034 27.5161 10.1202 27.77 10.25C27.77 10.25 28.1 10.55 28.49 10.84C28.88 11.13 29.16 11.5 29.25 11.55C29.34 11.6 29.33 11.75 29.34 11.86C29.35 11.97 30.41 12.86 30.44 12.86C30.57 13.11 30.85 13.27 30.74 13.69C30.74 13.78 30.74 13.81 30.8 13.86C31.1006 14.2567 31.3492 14.6902 31.54 15.15C31.6729 15.3654 31.8234 15.5695 31.99 15.76C31.99 15.76 31.99 15.86 31.99 15.91C31.99 15.96 31.99 16.05 32.04 16.09C32.3558 16.5975 32.7246 17.0702 33.14 17.5C33.26 17.58 33.37 18.34 33.51 18.42C33.65 18.5 33.41 19.08 33.53 19.08Z" fill="currentColor"/>
<path d="M62.2101 16.07C62.3001 16.38 61.8301 16.34 61.0301 16.07C60.6703 15.9177 60.3337 15.7157 60.0301 15.47C59.8979 15.2829 59.7809 15.0856 59.6801 14.88C59.6801 14.78 59.8101 13.57 59.8301 13.14C59.8474 12.7453 59.9426 12.3578 60.1101 12C60.4301 11.28 60.7101 10.54 61.0201 9.81999C61.0893 9.65207 61.1953 9.50175 61.3301 9.37999C61.7822 8.95671 62.1018 8.41132 62.2501 7.80999C62.2501 7.70999 62.3501 7.62999 62.2501 7.47999C62.3245 6.79895 62.5649 6.14657 62.9501 5.57999L64.2401 4.40999C64.3001 4.35999 64.2401 4.25999 64.4701 4.26999C64.576 4.293 64.6866 4.2787 64.7832 4.22949C64.8798 4.18029 64.9564 4.09921 65.0001 3.99999C65.1411 3.80044 65.3133 3.62487 65.5101 3.47999C65.681 3.40663 65.8641 3.36593 66.0501 3.35999C66.2929 3.40541 66.5201 3.51212 66.7101 3.66999C66.8201 3.83999 67.0801 3.86999 67.2901 3.95999L67.5001 4.05999C67.7128 4.63609 67.8473 5.23812 67.9001 5.84999C67.9001 5.84999 67.7901 6.33999 67.6801 6.84999C67.5701 7.35999 67.4001 7.84999 67.4001 7.97999C67.4001 8.10999 67.2501 8.15999 67.1601 8.23999C67.0701 8.31999 66.7401 9.79999 66.7101 9.84999C66.5301 10.12 66.52 10.46 66.09 10.61C66 10.61 65.9901 10.71 65.9701 10.77C65.7428 11.2716 65.4575 11.7448 65.1201 12.18C64.9827 12.4263 64.8592 12.68 64.7501 12.94C64.7501 12.99 64.6601 13.01 64.6201 13.05C64.5801 13.09 64.5001 13.13 64.4801 13.19C64.1427 13.7709 63.8485 14.3759 63.6001 15C63.6001 15.16 62.8801 15.64 62.8401 15.83C62.8001 16.02 62.1701 16 62.2101 16.07Z" fill="currentColor"/>
<path d="M52 42.18L49.84 44.34C49.58 44.61 49.36 44.92 49.1 45.18C48.17 46.12 47.22 47.05 46.32 48.01C45.92 48.44 45.55 48.9 45.19 49.36C44.7589 50.0283 44.1809 50.5892 43.5 51C43.23 51.14 43.14 50.83 43.07 50.45C42.9261 50.0595 42.9261 49.6305 43.07 49.24C43.4377 48.5896 43.8771 47.9825 44.38 47.43C44.8903 46.8389 45.431 46.2748 46 45.74C46.6358 45.0526 47.2302 44.328 47.78 43.57C48.44 42.77 49.12 41.99 49.78 41.22L51.09 39.82C51.75 39.11 52.44 38.42 53.09 37.69C53.58 37.12 53.98 36.48 54.5 35.87C54.62 35.74 54.72 35.59 54.84 35.47C54.9295 35.3856 55.0353 35.3205 55.1509 35.2786C55.2666 35.2367 55.3896 35.219 55.5123 35.2265C55.6351 35.234 55.755 35.2665 55.8647 35.3222C55.9743 35.3778 56.0715 35.4554 56.15 35.55L56.39 35.79C56.4962 35.9387 56.5522 36.1173 56.55 36.3C56.5665 36.5173 56.5358 36.7357 56.46 36.94C56.3572 37.2387 56.2013 37.5165 56 37.76C55.81 37.99 55.62 38.27 55.41 38.51C55 38.99 54.55 39.51 54.09 39.99L52.02 42.22L52 42.18Z" fill="currentColor"/>
</svg>
