<svg width="96" height="96" viewBox="0 0 96 96" fill="none" xmlns="http://www.w3.org/2000/svg">
<path d="M27 69.86C27 69.57 28.91 78.86 32.2 72.69C33.2 70.83 29.91 80.69 29.91 80.69C29.91 80.69 26.67 75.57 27 69.86Z" fill="currentColor"/>
<path d="M70.86 35.51L65.8 40.19C65.19 40.76 64.62 41.37 64 41.93L57.39 47.82C56.39 48.68 55.46 49.6 54.5 50.48C53.902 51.0713 53.2745 51.632 52.62 52.16C52.28 52.41 51.93 52.64 51.62 52.87C51.31 53.1 50.86 53.29 50.49 53.5C50.12 53.71 49.99 53.5 50.19 53.08C50.5069 52.3793 50.8885 51.7097 51.33 51.08C52.43 49.83 53.72 48.74 54.92 47.55C56.12 46.36 57.38 45.23 58.67 44.11C60.2 42.76 61.61 41.16 63.07 39.67L67.9 34.75C68.9 33.75 69.9 32.75 70.84 31.75C72.3 30.19 73.84 28.65 75.16 27.02C76.1747 25.7432 77.113 24.4075 77.97 23.02C78.16 22.72 78.33 22.41 78.53 22.12C78.87 21.6 79.13 21.28 79.47 21.12C79.8353 21.1267 80.1996 21.1602 80.56 21.22C80.77 21.22 80.99 21.22 81.17 21.22C81.35 21.22 81.68 21.42 81.82 21.84C81.8892 22.0973 81.9096 22.3652 81.88 22.63C81.8569 22.8871 81.7784 23.1361 81.65 23.36C80.1015 26.0628 78.1755 28.531 75.93 30.69C74.31 32.35 72.62 33.95 70.93 35.57L70.86 35.51Z" fill="currentColor"/>
<path d="M54.07 64.23C55.34 64.5 56.58 64.85 57.81 65.23C58.26 65.36 58.72 65.46 59.17 65.62C60.7184 66.2035 62.2196 66.9056 63.66 67.72C64.3 68.09 64.96 68.41 65.6 68.72C66.0263 68.9386 66.4314 69.1964 66.81 69.49C67.1579 69.8395 67.4542 70.2369 67.69 70.67C67.84 70.94 67.6 71.11 67.17 71.22C66.6658 71.3603 66.138 71.3943 65.62 71.32C65.4136 71.275 65.2193 71.1864 65.05 71.06L64.53 70.72L63.42 70.07L61.14 68.77C60.1562 68.287 59.1191 67.9212 58.05 67.68C56.89 67.33 55.71 67.04 54.52 66.78C53.78 66.64 53.04 66.5 52.29 66.4L50.59 66.21C50.02 66.21 49.45 66.14 48.88 66.14C48.0017 66.2007 47.1292 66.3277 46.27 66.52C46.08 66.52 45.89 66.62 45.7 66.65C44.99 66.65 44.7 66.49 44.55 65.79C44.55 65.64 44.45 65.5 44.42 65.37C44.3783 65.1185 44.4254 64.8602 44.5531 64.6395C44.6808 64.4188 44.8811 64.2493 45.12 64.16C45.9114 63.8324 46.7542 63.6463 47.61 63.61C48.4754 63.545 49.3445 63.545 50.21 63.61C51.5088 63.7049 52.801 63.8752 54.08 64.12L54.07 64.23Z" fill="currentColor"/>
<path d="M61.16 46.8L48 57.12C46.4 58.38 44.88 59.71 43.27 60.96C41.8116 61.9793 40.4702 63.1564 39.27 64.47C38.9588 64.7968 38.6246 65.1009 38.27 65.38C38.16 65.48 38.14 65.49 38.11 65.5C38.0754 65.5288 38.0451 65.5625 38.02 65.6C37.92 65.73 37.8 65.87 37.7 66.02C37.27 66.62 36.94 67.36 36.52 68.02C35.6957 69.5283 34.9773 71.092 34.37 72.7L34.13 73.31L33.85 74.09L33.12 76C32.68 77.23 32.28 78.46 31.85 79.39C31.5553 80.0324 31.1788 80.634 30.73 81.18C30.5631 81.4178 30.325 81.5964 30.05 81.69H29.89C29.89 81.82 29.89 81.69 29.89 81.76H29.81C29.7144 81.7294 29.6209 81.6927 29.53 81.65C29.3485 81.5602 29.1802 81.4458 29.03 81.31C28.87 81.18 28.74 81.05 28.6 80.93C28.4688 80.7797 28.3453 80.6228 28.23 80.46C27.9952 80.143 27.7846 79.8087 27.6 79.46C27.3746 79.0836 27.1741 78.6927 27 78.29C26.8533 77.8433 26.6933 77.3933 26.52 76.94C26.32 76.33 26.2 75.6 26 74.94L25.74 73.84C25.64 73.5 25.57 73.01 25.52 72.84L25.23 71.32C25.1067 70.8215 25.0297 70.3127 25 69.8L24.78 66.88C24.7336 66.4216 24.7169 65.9606 24.73 65.5C24.7268 65.108 24.6933 64.7169 24.63 64.33C24.63 64.12 24.63 64.02 24.63 63.89C24.6327 63.7434 24.6857 63.6022 24.78 63.49C24.9677 63.3053 25.2131 63.1907 25.4752 63.1652C25.7373 63.1397 26.0002 63.2049 26.22 63.35C27.1316 63.8411 27.9264 64.5233 28.55 65.35C29.275 66.2897 29.7715 67.3853 30 68.55C30.09 69.07 30.21 69.55 30.25 70.11V72.42C30.25 72.6 30.25 72.55 30.25 72.55C30.2294 72.5991 30.2188 72.6518 30.2188 72.705C30.2188 72.7582 30.2294 72.8109 30.25 72.86C30.31 72.99 30.35 72.99 30.48 72.86L30.59 72.71C30.59 72.71 30.59 72.71 30.64 72.59L30.7 72.4L30.94 71.64C31.28 70.64 31.64 69.64 32.06 68.64C32.31 68.03 32.57 67.42 32.85 66.81C33 66.5 33.14 66.19 33.3 65.88C33.46 65.57 33.66 65.28 33.85 64.98C34.2624 64.3444 34.7202 63.7395 35.22 63.17C35.4025 62.9911 35.5962 62.8241 35.8 62.67L36.17 62.38C36.4175 62.1765 36.6781 61.9895 36.95 61.82C37.49 61.47 38.06 61.15 38.57 60.82L40 59.41L42.85 56.86L55.39 45.78L59.26 42.36C60.56 41.24 61.86 40.12 63.15 38.98C67.06 35.54 70.98 32.08 74.69 28.48C76.12 27.07 77.48 25.62 78.81 24.15C80.14 22.68 81.42 21.15 82.72 19.7C83.28 19.03 83.88 18.43 84.5 17.82C85.3019 16.9852 86.2096 16.2591 87.2 15.66C87.5097 15.4824 87.8482 15.3605 88.2 15.3C88.5325 15.2671 88.8675 15.2671 89.2 15.3C89.47 15.3 89.76 15.3 89.95 15.3C90.48 15.35 90.44 17.09 89.1 19.19C88.62 19.99 88.1 20.73 87.58 21.5L86.79 22.65C86.52 23.03 86.21 23.37 85.92 23.73C84.64 25.1633 83.36 26.5567 82.08 27.91C80.78 29.25 79.44 30.57 78.08 31.91L74 35.77C69.84 39.55 65.6033 43.2533 61.29 46.88L61.16 46.8Z" fill="currentColor"/>
<path d="M66.41 33.56C63.0767 35.56 59.7434 37.56 56.41 39.56C55.2 40.3 54.06 41.14 52.85 41.87L40.06 49.6C38.15 50.73 36.3 51.97 34.48 53.2C32.1443 54.7934 29.7093 56.2363 27.19 57.52C26.4 57.91 26.29 57.58 26.63 56.78C27.1761 55.5486 27.9419 54.4269 28.89 53.47L30.48 52L31.28 51.25L32.14 50.59C33.2867 49.71 34.4467 48.85 35.62 48.01C36.8 47.17 37.97 46.32 39.21 45.56C40.45 44.8 41.7 44 43 43.33C46.05 41.63 48.94 39.44 51.92 37.5C55.2 35.37 58.52 33.29 61.82 31.2L67.94 27.35C71.01 25.35 74.14 23.49 77.14 21.45C79.47 19.87 81.68 18.19 83.98 16.6C84.49 16.25 84.98 15.88 85.5 15.6C87.5 14.39 88.5 14.48 89.3 15.04C89.4993 15.1558 89.6899 15.2862 89.87 15.43C90.13 15.68 90.11 16.04 89.87 16.51C89.5924 17.1313 89.1909 17.6893 88.69 18.15C87.8 19.06 86.81 19.8 85.84 20.64C84.87 21.48 83.84 22.25 82.84 23.05C80.7863 24.6557 78.6392 26.1383 76.41 27.49C73.13 29.59 69.77 31.61 66.41 33.69V33.56Z" fill="currentColor"/>
<path d="M59.54 67.81C58.2848 67.3671 57.0021 67.0063 55.7 66.73C55.22 66.61 54.7 66.66 54.24 66.56C53.39 66.37 52.53 66.3 51.65 66.17C50.7707 66.0623 49.8859 66.0056 49 66C48.2173 66.0049 47.4382 66.1057 46.68 66.3C45.7351 66.6333 44.7419 66.809 43.74 66.82C43.41 66.82 43.24 65.97 43.31 65.12C43.38 64.27 43.72 63.39 44.31 63.23C46.4988 62.6825 48.7787 62.6041 51 63C52.33 63.23 53.72 63.12 55.07 63.31C56.5511 63.5256 58.0125 63.86 59.44 64.31C60.32 64.6 61.19 64.88 62.04 65.21C63.34 65.68 64.57 66.32 65.83 66.87C66.8353 67.2473 67.8142 67.6916 68.76 68.2C68.95 68.34 69.16 68.46 69.34 68.62C69.99 69.25 70.06 69.62 69.78 70.22C69.7313 70.3501 69.6745 70.477 69.61 70.6C69.4444 70.7973 69.2232 70.9401 68.9752 71.0097C68.7272 71.0792 68.464 71.0724 68.22 70.99C67.77 70.89 67.28 70.84 66.83 70.76C66.403 70.6709 65.9895 70.5264 65.6 70.33L63.2 69.33C61.9882 68.8057 60.746 68.3549 59.48 67.98L59.54 67.81Z" fill="currentColor"/>
<path d="M81.93 37.29C81.41 38.46 80.93 39.65 80.42 40.84C79.91 42.03 79.42 43.21 78.94 44.42C78.59 45.29 78.36 46.21 78.02 47.09C76.82 50.19 75.68 53.33 74.76 56.52C74.38 58 74 59.38 73.7 60.81C73.52 61.72 73.36 62.64 73.22 63.55C73.0129 64.4275 72.8527 65.3154 72.74 66.21C72.74 66.65 72.5 66.82 72 66.35C71.3594 65.5845 70.9532 64.6505 70.83 63.66C70.7827 61.6541 70.8964 59.6477 71.17 57.66C71.5449 55.7168 72.0766 53.8073 72.76 51.95C73.57 49.71 74.03 47.3 74.76 44.95C75.57 42.42 76.42 39.95 77.44 37.44C78.05 35.93 78.7 34.44 79.34 32.92C80.34 30.64 81.42 28.4 82.45 26.16C82.87 25.29 83.22 24.4 83.6 23.51C83.9458 22.6031 84.3603 21.7238 84.84 20.88C85.06 20.51 85.23 20.12 85.49 19.76C86.43 18.43 87.05 18.2 88 18.57C88.2229 18.6402 88.4402 18.7271 88.65 18.83C89.31 19.22 89.4 20.09 89.01 21.08C88.42 22.57 88.01 24.17 87.22 25.64L85.1 30.24C84.1 32.56 82.99 34.91 82.04 37.31L81.93 37.29Z" fill="currentColor"/>
<path d="M49.45 37.21L33.85 43.61C31.95 44.39 30.12 45.3 28.22 46.08L18.22 50.2L17 50.72L16.38 51L15.89 51.22L14.8 51.64C14.05 51.95 13.21 52.3 12.33 52.71C12.13 52.8 11.94 52.89 11.76 52.99C11.6643 53.0359 11.5766 53.0966 11.5 53.17C11.56 53.17 11.67 53.17 11.76 53.17L12.91 53.25C13.71 53.3 14.53 53.35 15.27 53.43C15.51 53.43 15.75 53.48 15.98 53.52C16.05 53.52 16.06 53.52 16.19 53.52L16.59 53.61L17.38 53.79C18.4473 54.043 19.4937 54.3773 20.51 54.79C21.5792 55.2163 22.5878 55.7811 23.51 56.47C24.4808 57.2298 25.2216 58.2441 25.65 59.4C25.92 60.12 25.8 60.5 25.58 60.57C25.36 60.64 24.94 60.44 24.34 60.23C23.5826 59.9974 22.7918 59.8926 22 59.92C21.1082 59.8349 20.2271 59.6607 19.37 59.4C18.5114 59.1327 17.6362 58.9223 16.75 58.77C16.29 58.69 15.83 58.61 15.36 58.55L15 58.49L14.22 58.38C13.68 58.38 13.11 58.32 12.55 58.29L10.9 58.09L9.19 57.92L7.42 57.78L6.53 57.72C6.26031 57.7104 5.99228 57.6736 5.73 57.61C5.03086 57.4715 4.36941 57.1851 3.79 56.77C3.45539 56.5739 3.20583 56.2602 3.09 55.89C3.02298 55.6527 2.99263 55.4065 3 55.16C3.01612 55.0205 3.01612 54.8796 3 54.74C2.97974 54.6041 2.97974 54.4659 3 54.33C3.10206 53.5708 3.45388 52.8672 4 52.33C4.53625 51.7581 5.17363 51.2902 5.88 50.95L6.2 50.78L6.74 50.64C7.08 50.55 7.48 50.46 7.74 50.37L9.2 49.75L12.01 48.59L13.37 48.09L14 47.83L14.29 47.72L14.47 47.65C19.17 45.79 23.81 43.35 28.47 41.23L44.06 34.3L53.59 30C58.37 27.8 63.26 25.78 67.95 23.46C69.77 22.57 71.54 21.61 73.29 20.63L78.58 17.85C79.36 17.44 80.1 17.01 80.89 16.61C81.68 16.21 82.22 15.95 82.73 15.72C83.1718 15.5503 83.6266 15.4166 84.09 15.32C84.669 15.1856 85.271 15.1856 85.85 15.32C86.075 15.3615 86.302 15.3916 86.53 15.41C86.87 15.46 86.85 15.91 86.47 16.54C85.9141 17.3905 85.2408 18.1581 84.47 18.82C81.47 21.07 78.39 23.15 75.17 25.15C71.87 26.98 68.47 28.69 65.04 30.37C62.49 31.6 60 32.85 57.34 34L49.51 37.34L49.45 37.21Z" fill="currentColor"/>
</svg>
