<svg width="96" height="96" viewBox="0 0 96 96" fill="none" xmlns="http://www.w3.org/2000/svg">
<path d="M59.74 27.93C59.3698 30.9066 58.6997 33.8382 57.74 36.68C56.85 39.45 55.8 42.13 54.66 44.75C53.52 47.37 52.26 49.93 50.93 52.45C49.6 54.97 48.24 57.45 46.71 59.9C45.6 61.67 44.44 63.42 43.18 65.13C42.88 65.54 42.52 66.01 42.18 66.49L41.38 67.49C41.1 67.84 40.81 68.17 40.51 68.49C39.91 69.15 39.31 69.73 38.7 70.33C38.1236 70.9567 37.5162 71.5541 36.88 72.12C35.9543 72.8702 34.9233 73.4801 33.82 73.93C32.989 74.2401 32.1067 74.3894 31.22 74.37C30.8026 74.3378 30.3919 74.2469 30 74.1C29.5053 73.9166 29.0768 73.5892 28.77 73.16C28.2891 72.4278 28.0224 71.5757 28 70.7C27.88 68.98 28.62 66.47 29.84 63.85C30.43 62.54 31.11 61.22 31.84 59.93L32.27 59.19L32.64 58.59L33.37 57.41C35.3468 54.2675 37.5847 51.297 40.06 48.53C42.5316 45.8074 45.1843 43.255 48 40.89L51.71 37.81L53.56 36.29L54.49 35.53L55.49 34.75C58.111 32.7412 60.9131 30.9803 63.86 29.49C67.6221 27.5527 71.6136 26.0979 75.74 25.16C76.74 24.96 77.82 24.73 78.89 24.62C79.948 24.4516 81.0189 24.378 82.09 24.4C83.16 24.4 84.24 24.53 85.3 24.6C86.36 24.67 87.42 24.9 88.46 25.17C91.06 25.89 90.46 26.51 88.25 27.17C87.71 27.32 87.06 27.57 86.34 27.81C85.98 27.93 85.6 28.04 85.21 28.18L84 28.67C83.16 28.93 82.26 29.38 81.33 29.67C80.4 29.96 79.4 30.21 78.33 30.47C74.6208 31.3961 71.0281 32.7379 67.62 34.47C64.1629 36.0719 60.9126 38.0865 57.94 40.47C54.72 43.05 51.57 45.62 48.58 48.22C45.604 50.8173 42.8694 53.6791 40.41 56.77C39.67 57.71 38.96 58.68 38.28 59.68C37.94 60.17 37.62 60.68 37.28 61.2L36.8 61.96L36.56 62.34C36.1421 63.0354 35.8066 63.7771 35.56 64.55C35.4951 64.7477 35.4548 64.9525 35.44 65.16C35.44 65.35 35.51 65.61 35.74 65.61C36.15 65.5483 36.5364 65.3793 36.86 65.12C37.1871 64.8779 37.4948 64.6104 37.78 64.32L38.21 63.87L38.41 63.64L38.69 63.31C39.05 62.88 39.48 62.31 39.89 61.8C40.3 61.29 40.7 60.71 41.09 60.16C41.88 59.06 42.64 57.92 43.37 56.76C44.83 54.45 46.19 52.06 47.44 49.61C49.9082 44.7097 51.9168 39.5911 53.44 34.32C53.8822 32.7268 54.2394 31.1112 54.51 29.48C54.7842 27.9393 54.8582 26.3696 54.73 24.81C54.6941 24.1792 54.5272 23.5628 54.24 23C54.1554 22.8179 54.0303 22.6575 53.8744 22.531C53.7184 22.4045 53.5356 22.3152 53.34 22.27C52.0518 22.1031 50.7427 22.3114 49.57 22.87C48.51 23.28 47.43 23.82 46.35 24.35C45.27 24.88 44.23 25.56 43.2 26.26C41.1035 27.6741 39.0994 29.2205 37.2 30.89C33.4022 34.2534 29.9363 37.9738 26.85 42C22.176 48.2614 18.2557 55.0515 15.17 62.23C14.45 63.79 13.91 65.38 13.12 66.91C12.2747 69.0499 11.1481 71.0676 9.76998 72.91C9.31286 73.4115 8.81077 73.8701 8.26998 74.28C7.8676 74.6174 7.41991 74.8968 6.93998 75.11C6.56251 75.3218 6.17168 75.5089 5.76998 75.67C5.21998 75.81 4.99998 75.19 4.91998 73.87C4.91998 73.22 4.85998 72.38 4.84998 71.38C4.90372 70.2619 5.07465 69.1525 5.35998 68.07C5.86998 66.31 6.35998 64.52 6.99998 62.75C7.63998 60.98 8.36998 59.27 9.11998 57.54C10.697 54.0592 12.4698 50.6704 14.43 47.39C18.4616 40.6261 23.3041 34.3799 28.85 28.79C30.9531 26.6462 33.2236 24.6732 35.64 22.89C38.1418 21.0188 40.8214 19.3977 43.64 18.05C44.4036 17.6788 45.1922 17.3614 46 17.1C46.417 16.9699 46.841 16.863 47.27 16.78C47.7 16.68 48.11 16.58 48.58 16.51C50.6904 16.0836 52.8756 16.2146 54.92 16.89C55.0772 16.9396 55.2309 16.9997 55.38 17.07C55.5471 17.1224 55.708 17.1928 55.86 17.28C56.212 17.4471 56.5469 17.648 56.86 17.88C57.4553 18.3128 57.9727 18.8437 58.39 19.45C59.0545 20.4196 59.5013 21.5215 59.7 22.68C60.0434 24.4047 60.121 26.1718 59.93 27.92L59.74 27.93Z" fill="currentColor"/>
</svg>
