<svg width="96" height="96" viewBox="0 0 96 96" fill="none" xmlns="http://www.w3.org/2000/svg">
<path d="M32.93 47.71C32.6995 49.8438 32.6995 51.9962 32.93 54.13C33.1318 56.3325 33.5642 58.5077 34.22 60.62C34.7431 62.1238 35.3747 63.5877 36.11 65C37.322 67.5162 38.9786 69.7927 41 71.72C42.9802 73.6254 45.5603 74.7847 48.3 75C50.8279 75.1172 53.3403 74.547 55.57 73.35C58.4858 71.8177 60.9531 69.5536 62.73 66.78C63.29 65.91 63.73 66.19 63.91 67.32C64.0443 69.1147 63.51 70.8956 62.41 72.32C59.9038 75.6446 56.3127 77.9868 52.26 78.94C50.1721 79.4296 48.0098 79.5145 45.89 79.19C43.7452 78.8496 41.6989 78.0516 39.89 76.85C35.773 74.0939 32.4906 70.2616 30.4 65.77C29.2904 63.3975 28.4485 60.9089 27.89 58.35C27.3052 55.8055 27.0232 53.2007 27.05 50.59C27.0598 48.9804 27.207 47.3746 27.49 45.79C27.74 44.23 28.09 42.7 28.49 41.18C29.6989 36.5821 31.6079 32.1975 34.15 28.18C36.0543 24.9043 38.6267 22.0662 41.7 19.85C42.44 19.42 43.12 18.9 43.91 18.53C44.9357 17.9893 46.0806 17.7143 47.24 17.73C47.5901 17.7574 47.9284 17.869 48.2262 18.0553C48.5239 18.2416 48.7722 18.4971 48.95 18.8C49.1656 19.0739 49.3532 19.3687 49.51 19.68C49.606 19.9451 49.6279 20.2315 49.5732 20.5081C49.5186 20.7848 49.3896 21.0413 49.2 21.25C48.6831 21.8142 48.0616 22.2727 47.37 22.6C44.999 23.8793 42.8945 25.6002 41.17 27.67C39.3463 29.8665 37.8322 32.3025 36.67 34.91C34.8198 38.9609 33.6152 43.2765 33.1 47.7L32.93 47.71Z" fill="currentColor"/>
<path d="M31.81 42.54C31.1063 45.9387 30.8875 49.4199 31.16 52.88C31.3871 56.3831 32.1527 59.8302 33.43 63.1C34.4046 65.3799 35.7011 67.5082 37.28 69.42C38.5616 71.0619 40.1303 72.4578 41.91 73.54C43.7003 74.5892 45.6826 75.2693 47.74 75.54C51.66 76.14 55.92 74.07 59.17 70.74C60.6427 69.2429 61.9166 67.5625 62.96 65.74C64.001 63.9119 64.8681 61.9901 65.55 60C67.2814 54.765 68.1922 49.2936 68.25 43.78C68.25 42.06 68.99 42.15 69.97 43.59C71.3717 45.9636 72.0754 48.6845 72 51.44C71.78 57.65 70.59 63.92 67.18 69.64C65.5122 72.5169 63.3645 75.0873 60.83 77.24C60.1715 77.7931 59.4839 78.3105 58.77 78.79C58.0285 79.2694 57.2606 79.7068 56.47 80.1C54.8352 80.9096 53.0842 81.4596 51.28 81.73C50.73 81.73 50.19 81.89 49.63 81.9H47.96L46.38 81.79C45.86 81.79 45.33 81.65 44.81 81.58C42.696 81.2291 40.6486 80.5545 38.74 79.58C35.0175 77.6431 31.8587 74.7771 29.57 71.26C27.2058 67.5877 25.5128 63.5246 24.57 59.26C23.5994 55.1113 23.2623 50.8396 23.57 46.59C24.0107 41.4141 25.3013 36.3462 27.39 31.59C28.9214 27.9442 31.0282 24.5679 33.63 21.59C35.0021 20.0513 36.5764 18.7057 38.31 17.59C40.1406 16.4487 42.1804 15.6838 44.31 15.34C45.9663 15.0766 47.6537 15.0766 49.31 15.34C50.8966 15.586 52.45 16.0121 53.94 16.61C55.414 17.1953 56.8246 17.9291 58.15 18.8C58.83 19.2 59.44 19.71 60.09 20.18C60.74 20.65 61.32 21.18 61.87 21.78C62.42 22.38 62.87 22.78 63.32 23.31L64.02 24.12L64.64 24.99C65.7835 26.5124 66.5169 28.3029 66.77 30.19C66.837 30.7155 66.7705 31.2494 66.5764 31.7423C66.3824 32.2352 66.0672 32.6712 65.66 33.01C65.3267 33.3643 64.9543 33.6796 64.55 33.95C64.1934 34.1079 63.7964 34.1504 63.4145 34.0715C63.0325 33.9926 62.6848 33.7963 62.42 33.51C62.032 33.1571 61.6741 32.7724 61.35 32.36C61.17 32.13 60.99 31.88 60.8 31.61C60.61 31.34 60.4 31.07 60.2 30.77C59.0362 29.0123 57.6018 27.4497 55.95 26.14C54.3527 24.8558 52.5555 23.8424 50.63 23.14C46.63 21.74 44.01 22.19 40.99 24.7C38.6246 26.9113 36.7153 29.5646 35.37 32.51C33.8281 35.6836 32.7086 39.0456 32.04 42.51L31.81 42.54Z" fill="currentColor"/>
</svg>
