<svg width="96" height="96" viewBox="0 0 96 96" fill="none" xmlns="http://www.w3.org/2000/svg">
<path d="M50.35 62.07C49.9299 61.7021 49.551 61.2897 49.22 60.84C48.9286 60.4036 48.6647 59.9493 48.43 59.48C48.26 59.01 48.07 58.57 47.94 58.08C47.8171 57.5942 47.7335 57.0992 47.69 56.6C47.5849 55.8805 47.5849 55.1495 47.69 54.43C47.8372 53.825 48.0875 53.2499 48.43 52.73C48.5722 52.47 48.7361 52.2224 48.92 51.99C49.0899 51.7591 49.2735 51.5387 49.47 51.33C50.188 50.5327 50.993 49.8182 51.87 49.2C52.611 48.674 53.3936 48.2092 54.21 47.81C55.241 47.2149 56.4405 46.9792 57.62 47.14C57.99 47.21 57.91 47.72 57.62 48.26C57.4978 48.5351 57.347 48.7965 57.17 49.04C57.0288 49.2676 56.8236 49.4485 56.58 49.56C54.9682 50.2397 53.5245 51.2636 52.35 52.56C52.0386 52.9642 51.8293 53.4376 51.74 53.94C51.7159 54.1794 51.7159 54.4206 51.74 54.66C51.7306 54.7749 51.7105 54.8888 51.68 55C51.6899 55.1098 51.6899 55.2202 51.68 55.33C51.636 55.8232 51.6766 56.3204 51.8 56.8L52.08 57.56C52.1921 57.7869 52.3226 58.0043 52.47 58.21C52.8376 58.7297 53.3586 59.1213 53.96 59.33C55.0525 59.7364 56.236 59.8333 57.38 59.61C58.3334 59.3384 59.2552 58.9663 60.13 58.5C60.34 58.41 60.52 58.29 60.74 58.22C61.53 57.98 61.88 58.22 62.35 59.22C62.46 59.46 62.58 59.7 62.67 59.94C62.828 60.2804 62.8764 60.6615 62.8083 61.0305C62.7402 61.3996 62.5591 61.7384 62.29 62C60.5612 63.4032 58.3736 64.1158 56.15 64C55.1668 64.0023 54.1879 63.8711 53.24 63.61C52.148 63.3052 51.128 62.785 50.24 62.08L50.35 62.07Z" fill="currentColor"/>
<path d="M26.94 30.73C27.2878 29.5136 27.3085 28.2269 27 27C26.938 26.768 26.8437 26.5458 26.72 26.34C26.61 26.12 26.5 25.91 26.41 25.69C25.8575 24.0278 24.7392 22.6122 23.25 21.69C22.5588 21.3286 21.7742 21.1856 21 21.28C19.9627 21.4185 18.9162 21.4753 17.87 21.45C17.49 21.45 17.16 20.69 17.13 19.76C17.1 18.83 17.38 17.55 18.25 17.12C18.6229 16.9104 19.0146 16.7363 19.42 16.6L20.05 16.39C20.265 16.3547 20.4822 16.3346 20.7 16.33C21.14 16.33 21.59 16.33 22.03 16.33C22.47 16.33 22.91 16.46 23.34 16.54C25.0222 16.9498 26.546 17.8474 27.72 19.12C29.1119 20.4266 30.3317 21.9051 31.35 23.52C32.31 25.3418 32.8563 27.3529 32.95 29.41C33.0348 30.7096 32.8684 32.0133 32.46 33.25C31.8377 35.2218 30.5741 36.9289 28.87 38.1C28.2305 38.5617 27.5625 38.9825 26.87 39.36C26.69 39.45 26.52 39.55 26.34 39.63L25.81 39.8C25.4547 39.9245 25.0903 40.0215 24.72 40.09C24.3901 40.1586 24.056 40.2054 23.72 40.23C23.4837 40.2378 23.2489 40.1893 23.035 40.0885C22.8211 39.9876 22.6343 39.8373 22.49 39.65C22.2298 39.2883 22.071 38.8637 22.03 38.42C21.9827 38.1956 21.9493 37.9685 21.93 37.74C21.9198 37.3684 22.0132 37.0014 22.2 36.68C22.4088 36.3151 22.6643 35.9789 22.96 35.68C23.19 35.53 23.4 35.28 23.59 35.14L24.16 34.7C24.48 34.39 24.77 34.05 24.99 33.87C25.3703 33.5872 25.7072 33.2503 25.99 32.87C26.1628 32.6028 26.3133 32.3219 26.44 32.03C26.5885 31.5978 26.6957 31.1524 26.76 30.7L26.94 30.73Z" fill="currentColor"/>
<path d="M35.24 23.73C35.7195 25.9451 35.637 28.245 35 30.42C34.4214 32.4573 33.4347 34.3557 32.1 36C31.6358 36.5787 31.1418 37.1327 30.62 37.66C30.35 37.92 30.09 38.19 29.81 38.42C29.53 38.65 29.21 38.87 28.91 39.07C26.7303 40.5055 24.1894 41.2958 21.58 41.35C19.0015 41.4414 16.4634 40.6902 14.35 39.21C13.428 38.4912 12.6336 37.6224 12 36.64C11.6845 36.1606 11.4166 35.6515 11.2 35.12C11.0168 34.5853 10.8763 34.0369 10.78 33.48C10.5763 32.0847 10.6787 30.6618 11.08 29.31C11.316 28.667 11.6247 28.053 12 27.48C12.18 27.2 12.36 26.92 12.55 26.66L13.21 25.93C13.78 25.35 14.21 25.83 14.43 26.72C14.7185 27.7631 14.8764 28.838 14.9 29.92C14.8165 30.7628 14.9365 31.6133 15.25 32.4C15.298 32.5784 15.3757 32.7475 15.48 32.9C15.5547 33.0566 15.6416 33.2071 15.74 33.35C15.82 33.49 15.87 33.65 15.96 33.79C16.0614 33.9188 16.1517 34.0559 16.23 34.2C16.6658 34.7267 17.1988 35.1647 17.8 35.49C18.5364 35.8639 19.3255 36.1235 20.14 36.26C21.2584 36.3904 22.3913 36.2177 23.42 35.76C24.4562 35.2506 25.4021 34.575 26.22 33.76C27.1636 32.9246 27.923 31.9019 28.4498 30.757C28.9767 29.6121 29.2594 28.3701 29.28 27.11C29.2548 25.545 28.7252 24.0299 27.77 22.79C26.29 20.62 24.24 19.19 22.08 19.61C21.2086 19.7987 20.3871 20.1702 19.67 20.7C18.9127 21.3003 18.213 21.9698 17.58 22.7C17.28 23 17.07 23.41 16.74 23.7C16.3304 24.1803 15.7875 24.5284 15.18 24.7C14.5421 24.7329 13.9062 24.6057 13.33 24.33C13 24.2 12.66 24.1 12.33 23.96C12.0808 23.8392 11.8617 23.6643 11.6886 23.4481C11.5156 23.2318 11.3931 22.9797 11.33 22.71C11.1083 22.005 11.1546 21.243 11.46 20.57C11.9209 19.3748 12.5802 18.2659 13.41 17.29C14.3107 16.2 15.365 15.2467 16.54 14.46C17.2038 14.034 17.903 13.666 18.63 13.36C19.02 13.21 19.4 13.05 19.81 12.93C20.22 12.81 20.67 12.77 21.1 12.7C21.5467 12.6326 21.9985 12.6058 22.45 12.62C22.9073 12.6067 23.3649 12.6234 23.82 12.67C24.7396 12.7775 25.6428 12.9957 26.51 13.32C28.8059 14.2201 30.8141 15.7271 32.32 17.68C32.65 18.11 32.93 18.55 33.23 18.98L33.67 19.63L34.09 20.41C34.6499 21.4512 35.0829 22.5557 35.38 23.7L35.24 23.73Z" fill="currentColor"/>
<path d="M54.38 65.88C52.4027 65.7831 50.4736 65.2358 48.74 64.28C46.9182 63.2903 45.4371 61.7743 44.49 59.93C44.3093 59.61 44.1554 59.2755 44.03 58.93C43.9 58.58 43.76 58.23 43.65 57.93C43.54 57.63 43.48 57.23 43.41 56.93C43.34 56.63 43.33 56.21 43.32 55.85C43.1839 53.3128 44.0006 50.8162 45.61 48.85C47.0732 47.0649 48.9854 45.7015 51.15 44.9C53.0714 44.2093 55.1108 43.9068 57.15 44.01C58.5125 44.087 59.835 44.4992 61 45.21C61.2974 45.395 61.5755 45.6094 61.83 45.85C62.1129 46.0591 62.3453 46.3291 62.51 46.64C62.6919 46.937 62.8427 47.252 62.96 47.58C63.0919 47.9021 63.1891 48.2373 63.25 48.58C63.41 49.42 62.68 49.63 61.53 49.8C60.8539 49.8907 60.1854 50.031 59.53 50.22C59.2 50.31 58.84 50.48 58.59 50.55C58.4022 50.5912 58.2078 50.5912 58.02 50.55C57.5124 50.48 56.9976 50.48 56.49 50.55C55.9258 50.4751 55.3542 50.4751 54.79 50.55C53.35 50.7139 51.9398 51.0774 50.6 51.63C49.7833 52.0335 49.1403 52.7191 48.79 53.56C48.4327 54.3648 48.3552 55.2661 48.57 56.12C48.7687 57.0672 49.2707 57.9238 50 58.56C50.796 59.281 51.7692 59.7779 52.82 60C54.2009 60.3299 55.647 60.2605 56.99 59.8C57.9688 59.4875 58.8436 58.9135 59.52 58.14C60.0874 57.3022 60.3873 56.3119 60.38 55.3C60.4011 54.5128 60.2542 53.7301 59.949 53.0041C59.6438 52.2782 59.1873 51.6256 58.61 51.09L58.31 50.93C58.2246 50.9235 58.1422 50.896 58.07 50.85C57.79 50.79 57.7 50.57 57.6 50.19C57.6 50.01 57.47 49.82 57.41 49.55C57.35 49.28 57.27 48.94 57.18 48.55C57.09 48.16 56.98 47.93 56.91 47.66C56.8432 47.4084 56.8421 47.1438 56.9069 46.8917C56.9717 46.6395 57.1002 46.4083 57.28 46.22C57.5085 45.9117 57.821 45.6756 58.18 45.54C58.6555 45.4269 59.1414 45.3633 59.63 45.35C60.4413 45.4876 61.2166 45.7869 61.91 46.23L62.44 46.58L62.88 46.98C63.1789 47.2371 63.4565 47.518 63.71 47.82C64.6304 48.9172 65.3115 50.1944 65.71 51.57C66.0864 52.8685 66.2518 54.219 66.2 55.57C66.1679 57.0325 65.8556 58.4752 65.28 59.82C65.0121 60.4258 64.6766 60.9995 64.28 61.53C63.9169 61.9902 63.5297 62.4308 63.12 62.85C62.71 63.24 62.25 63.57 61.81 63.92C61.37 64.27 60.87 64.49 60.39 64.76C58.5281 65.6833 56.4673 66.1332 54.39 66.07L54.38 65.88Z" fill="currentColor"/>
<path d="M83.57 81.12C82.4294 81.6215 81.196 81.877 79.95 81.87C78.6373 81.8693 77.3416 81.5719 76.16 81C75.2774 80.6153 74.5017 80.0216 73.9 79.27C73.6396 78.9339 73.4399 78.5548 73.31 78.15C73.165 77.7791 73.061 77.3935 73 77C73 76.59 72.86 76.15 72.85 75.79V74.79C72.9268 73.4789 73.2669 72.1968 73.85 71.02L74.3 70.22C74.4685 69.9531 74.6522 69.696 74.85 69.45C75.2886 68.9529 75.8138 68.5396 76.4 68.23C77.1561 67.8121 78.0191 67.6276 78.88 67.7C79.2734 67.7351 79.6566 67.8436 80.01 68.02C80.3498 68.171 80.6558 68.3886 80.91 68.66C81.24 68.99 80.73 69.66 80.12 70.36C79.81 70.72 79.48 71.06 79.23 71.36C78.98 71.66 78.79 71.93 78.72 72.04C78.6889 72.0617 78.663 72.09 78.644 72.1228C78.625 72.1556 78.6134 72.1922 78.61 72.23C78.61 72.1 78.61 72.38 78.61 72.23V72.3C78.6426 72.3585 78.683 72.4123 78.73 72.46C78.8 72.55 78.79 72.52 78.8 72.59C78.4698 72.9533 78.2209 73.3828 78.07 73.85C77.9548 74.2222 77.9308 74.6166 78 75C78.0788 75.2427 78.2089 75.4657 78.3814 75.6538C78.554 75.8418 78.7649 75.9906 79 76.09C79.4145 76.2155 79.852 76.2463 80.28 76.18C80.7827 76.126 81.2571 75.9202 81.64 75.59C81.7382 75.4939 81.8155 75.3785 81.8671 75.2512C81.9187 75.1239 81.9435 74.9873 81.94 74.85C81.934 74.6846 81.8915 74.5226 81.8154 74.3756C81.7393 74.2286 81.6316 74.1004 81.5 74C81.2398 73.8328 80.9348 73.7489 80.6256 73.7597C80.3165 73.7704 80.018 73.8752 79.77 74.06C79.68 74.13 79.6 74.24 79.55 74.28H79.49C79.4637 74.2471 79.4434 74.2099 79.43 74.17L79.26 73.8C79.11 73.47 78.89 72.98 78.51 72.23C78.34 71.88 78.14 71.56 77.96 71.23C77.6538 70.7325 77.5072 70.1532 77.54 69.57C77.5716 69.2658 77.6706 68.9724 77.8298 68.7113C77.9889 68.4501 78.2042 68.2276 78.46 68.06C79.3069 67.5966 80.2589 67.3596 81.2242 67.3719C82.1895 67.3841 83.1352 67.6452 83.97 68.13C84.9131 68.6223 85.739 69.3122 86.3913 70.1526C87.0436 70.993 87.507 71.9642 87.75 73C87.9254 73.8487 87.9558 74.7211 87.84 75.58C87.7259 76.4728 87.4407 77.3352 87 78.12C86.2442 79.4784 85.0886 80.5713 83.69 81.25L83.57 81.12Z" fill="currentColor"/>
</svg>
