<svg width="96" height="96" viewBox="0 0 96 96" fill="none" xmlns="http://www.w3.org/2000/svg">
<path d="M53.8 49.19C55.8242 47.559 57.6114 45.654 59.11 43.53C59.67 42.76 60.11 41.91 60.61 41.09C62.3601 38.1491 63.7278 34.997 64.68 31.71C65.1096 30.2406 65.4206 28.7391 65.61 27.22C65.74 26.22 65.78 25.28 65.9 24.31C66.0123 23.3542 66.0658 22.3924 66.06 21.43C66.06 20.92 66.21 20.83 66.63 21.31C67.1746 22.1097 67.5176 23.0291 67.63 23.99C67.7632 25.0414 67.7866 26.1038 67.7 27.16C67.64 28.21 67.5301 29.26 67.3701 30.3C67.2116 31.3439 66.998 32.3787 66.7301 33.4C66.4244 34.4187 66.0639 35.4202 65.65 36.4C64.7246 38.8051 63.6354 41.1439 62.39 43.4C60.9481 45.8702 59.1787 48.134 57.13 50.13C55.8803 51.3656 54.5252 52.4899 53.08 53.49C50.8841 54.9838 48.538 56.2439 46.0801 57.25C45.1301 57.65 44.17 58.01 43.21 58.34C42.2358 58.6883 41.2316 58.9461 40.21 59.11C39.77 59.18 39.33 59.27 38.88 59.31C38.2766 59.4031 37.6597 59.3517 37.0801 59.16C36.736 59.0378 36.4528 58.7868 36.29 58.46C36.1982 58.3289 36.1211 58.188 36.06 58.04C35.92 57.58 36.57 57.17 37.67 56.78C39.31 56.38 40.91 55.78 42.53 55.31C43.33 55.06 44.13 54.78 44.89 54.46C45.65 54.14 46.46 53.76 47.22 53.37C49.5252 52.2188 51.6839 50.7953 53.65 49.13L53.8 49.19Z" fill="currentColor"/>
<path d="M60.25 51.25C56.2299 54.6596 51.5184 57.157 46.44 58.57L43.72 59.28C42.81 59.49 41.88 59.64 40.96 59.78C34.4645 60.4874 27.8965 59.495 21.9 56.9C19.3169 55.767 16.8544 54.3766 14.55 52.75C13.0635 51.7047 11.6836 50.5156 10.43 49.2C9.2299 47.8 8.30685 46.1847 7.71 44.44C7.38 43.34 7.71 43.44 8.41 44.07C8.9198 44.4867 9.45049 44.8772 10 45.24L11.06 45.91C11.45 46.14 11.83 46.39 12.21 46.65C13.4672 47.7086 14.8045 48.6681 16.21 49.52C16.92 49.94 17.65 50.34 18.38 50.74C19.11 51.14 19.82 51.56 20.56 51.93C22.0076 52.7087 23.5119 53.3773 25.06 53.93L27.42 54.66L29.85 55.26C33.8956 55.9337 38.0387 55.7325 42 54.67C46.3546 53.6459 50.4438 51.7137 54 49C56.181 47.3109 58.1046 45.3133 59.71 43.07C62.2038 39.6445 63.911 35.711 64.71 31.55C64.9968 29.9502 65.1108 28.3242 65.05 26.7C65.05 25.9 64.96 25.11 64.85 24.32C64.74 23.53 64.68 22.77 64.61 21.99C64.54 21.21 64.35 20.68 64.22 19.99C64.22 19.68 64.12 19.4 64.09 19.13C64.06 18.86 64.09 18.62 64.09 18.4C64.0819 18.0093 64.1256 17.6192 64.22 17.24C64.3667 16.5965 64.7175 16.0178 65.22 15.59C65.45 15.36 65.66 15.09 65.89 14.9C66.1082 14.7524 66.3695 14.6821 66.6322 14.7002C66.895 14.7184 67.1441 14.8239 67.34 15C67.7048 15.2247 68.0407 15.4934 68.34 15.8C68.6909 16.2049 69.0054 16.6399 69.28 17.1C70.1277 18.6658 70.7313 20.3519 71.07 22.1C71.474 23.8394 71.6355 25.6263 71.55 27.41C71.3891 31.0295 70.6672 34.602 69.41 38C68.5047 40.5756 67.2748 43.0254 65.75 45.29L64.55 46.94C64.15 47.49 63.66 47.94 63.22 48.5C62.328 49.5253 61.3728 50.4938 60.36 51.4L60.25 51.25Z" fill="currentColor"/>
<path d="M12.75 59C12.64 58.74 13.06 58.74 13.81 58.81C14.1623 58.8571 14.502 58.9726 14.81 59.15C14.9517 59.3361 15.0725 59.5373 15.17 59.75C15.17 59.89 15.06 61.34 15.04 61.83C15.0046 62.281 14.8966 62.7234 14.72 63.14C14.4377 63.9701 14.1038 64.7817 13.72 65.57C13.6286 65.7436 13.5027 65.8968 13.35 66.02C12.8378 66.4432 12.4534 67.0007 12.24 67.63C12.2093 67.6832 12.1931 67.7435 12.1931 67.805C12.1931 67.8664 12.2093 67.9268 12.24 67.98C12.1031 68.7147 11.7948 69.4068 11.34 70C10.8852 70.3653 10.4574 70.763 10.06 71.19C10 71.19 10.06 71.34 9.83002 71.33C9.40002 71.33 9.39002 71.5 9.29002 71.64C9.14872 71.8388 8.98423 72.0201 8.80002 72.18C8.6283 72.2602 8.44673 72.3174 8.26002 72.35C8.00625 72.3426 7.75989 72.2628 7.55002 72.12C7.43002 71.97 7.16002 71.97 6.94002 71.91L6.72002 71.84C6.45213 71.2022 6.28026 70.5282 6.21002 69.84C6.21002 69.84 6.85002 67.69 6.89002 67.45C6.93002 67.21 7.05002 67.25 7.16002 67.16C7.27002 67.07 7.69002 65.47 7.73002 65.42C7.92002 65.13 7.95002 64.75 8.42002 64.61C8.51002 64.61 8.52002 64.51 8.55002 64.45C8.82321 63.9186 9.15892 63.4217 9.55002 62.97C9.72002 62.72 9.84002 62.45 10.01 62.2C10.01 62.2 10.11 62.14 10.16 62.1C10.2241 62.0674 10.2818 62.0233 10.33 61.97C10.7451 61.4134 11.1098 60.8211 11.42 60.2C11.48 60.05 12.16 59.57 12.2 59.39C12.24 59.21 12.78 59.16 12.75 59Z" fill="currentColor"/>
<path d="M38.63 68.08C38.49 67.88 38.79 67.68 39.31 67.5C39.5571 67.4464 39.8129 67.4464 40.06 67.5C40.2059 67.6059 40.346 67.7194 40.48 67.84C40.55 67.91 41.02 69.07 41.24 69.46C41.4261 69.8184 41.5576 70.2027 41.63 70.6L42.21 72.93C42.2498 73.1044 42.2498 73.2856 42.21 73.46C42.0651 74.0512 42.0651 74.6687 42.21 75.26C42.21 75.36 42.21 75.46 42.36 75.55C42.653 76.1733 42.7673 76.8656 42.69 77.55C42.44 78.09 42.34 78.62 42.11 79.16C42.11 79.24 42.11 79.32 41.94 79.39C41.52 79.58 41.58 79.74 41.55 79.9C41.4706 80.1521 41.3488 80.3888 41.19 80.6C41.0488 80.7389 40.8909 80.8598 40.72 80.96C40.4896 81.0462 40.2385 81.0601 40 81C39.84 80.91 39.6 81 39.4 81H39.18C38.6244 80.612 38.1204 80.155 37.68 79.64C37.59 79.64 37.29 77.74 37.2 77.53C37.11 77.32 37.25 77.3 37.31 77.18C37.37 77.06 37 75.64 37 75.58C37.05 75.27 36.9 74.96 37.24 74.58C37.2577 74.5515 37.2671 74.5186 37.2671 74.485C37.2671 74.4514 37.2577 74.4185 37.24 74.39C37.2461 73.832 37.3406 73.2784 37.52 72.75C37.5664 72.4756 37.5932 72.1982 37.6 71.92C37.6 71.92 37.66 71.82 37.68 71.77C37.7194 71.7091 37.7465 71.6412 37.76 71.57C37.8631 70.9081 37.9199 70.2398 37.93 69.57C37.93 69.42 38.26 68.68 38.23 68.51C38.2 68.34 38.7 68.17 38.63 68.08Z" fill="currentColor"/>
<path d="M64.07 58.16C63.75 58.08 63.99 57.65 64.6 57.05C64.8997 56.7908 65.2368 56.5784 65.6 56.42C65.8317 56.3851 66.0658 56.3684 66.3 56.37C66.39 56.37 67.46 57.03 67.86 57.21C68.2376 57.3861 68.5772 57.634 68.86 57.94C69.41 58.51 70.03 59.04 70.62 59.59C70.7514 59.7204 70.8537 59.8772 70.92 60.05C71.1533 60.6444 71.5702 61.1489 72.11 61.49C72.2 61.55 72.25 61.64 72.44 61.6C72.63 61.56 74 62.6 74.08 62.89C74.27 63.46 74.54 63.96 74.78 64.5C74.78 64.58 74.91 64.59 74.78 64.78C74.59 65.22 74.78 65.28 74.87 65.42C75.0197 65.6201 75.1285 65.8478 75.19 66.09C75.1953 66.3084 75.158 66.5258 75.08 66.73C74.9265 67.011 74.7152 67.2564 74.46 67.45C74.23 67.53 74.08 67.83 73.9 68.05C73.841 68.1329 73.774 68.21 73.7 68.28C73.0084 68.387 72.3029 68.3633 71.62 68.21L70.72 67.56C70.27 67.24 69.81 66.9 69.72 66.84C69.63 66.78 69.59 66.62 69.55 66.48C69.51 66.34 68.17 65.48 68.13 65.39C67.94 65.11 67.6 64.96 67.64 64.39C67.64 64.29 67.59 64.26 67.54 64.21C67.1403 63.7723 66.8037 63.2809 66.54 62.75C66.3606 62.5086 66.1669 62.2782 65.96 62.06C65.96 62.06 65.96 61.94 65.96 61.88C65.9489 61.8065 65.9252 61.7355 65.89 61.67C65.454 61.0855 64.9831 60.5278 64.48 60C64.36 59.87 64.19 59 64.04 58.85C63.89 58.7 64.2 58.18 64.07 58.16Z" fill="currentColor"/>
<path d="M75.71 33.07C75.44 33.15 75.37 32.73 75.48 32.07C75.5541 31.7756 75.6757 31.4952 75.84 31.24C76.01 31.11 76.18 30.98 76.32 30.89C76.46 30.8 77.53 30.69 77.92 30.54C78.2712 30.4406 78.6351 30.3934 79 30.4C79.74 30.4 80.51 30.3 81.27 30.33C81.4434 30.3375 81.6106 30.3967 81.75 30.5C82.2644 30.8174 82.8684 30.9579 83.47 30.9C83.57 30.9 83.67 30.9 83.79 30.78C84.4678 30.5929 85.1865 30.6173 85.85 30.85L87.37 32C87.44 32.05 87.54 32 87.56 32.22C87.56 32.72 87.79 32.69 87.96 32.78C88.2046 32.8932 88.4201 33.0608 88.59 33.27C88.6862 33.4769 88.7374 33.7018 88.74 33.93C88.6881 34.2591 88.5653 34.573 88.38 34.85C88.2284 35.0928 88.1201 35.3601 88.06 35.64L87.94 35.93C87.4679 36.3277 86.947 36.6637 86.39 36.93C86.39 36.93 85.96 36.93 85.49 36.93C85.02 36.93 84.54 36.93 84.49 36.93C84.44 36.93 84.3 36.82 84.21 36.73C84.12 36.64 82.71 36.73 82.65 36.73C82.37 36.61 82.04 36.73 81.81 36.25C81.76 36.16 81.7 36.17 81.64 36.16C81.1053 36.0597 80.5892 35.8776 80.11 35.62C79.8501 35.5139 79.5827 35.427 79.31 35.36C79.31 35.36 79.23 35.27 79.18 35.23C79.1454 35.1365 79.0825 35.0561 79 35C78.3723 34.7372 77.7314 34.5069 77.08 34.31C76.93 34.31 76.31 33.67 76.08 33.63C75.85 33.59 75.82 33 75.71 33.07Z" fill="currentColor"/>
</svg>
