<svg width="96" height="96" viewBox="0 0 96 96" fill="none" xmlns="http://www.w3.org/2000/svg">
<path d="M42.14 85.81C36.4281 85.1655 30.9616 83.1293 26.22 79.88C23.904 78.2206 21.8132 76.2677 20 74.07C18.1612 71.9123 16.5929 69.5381 15.33 67C13.5397 63.3714 12.2898 59.5004 11.62 55.51C10.3716 48.4581 11.0629 41.1995 13.62 34.51C16.2235 27.8546 20.7489 22.1247 26.62 18.05C31.7888 14.4421 37.7972 12.2213 44.07 11.6C48.0673 11.1642 52.1112 11.5038 55.98 12.6C56.9449 12.8584 57.8961 13.1655 58.83 13.52L60.18 14.16C60.63 14.38 61.05 14.64 61.49 14.88L62.77 15.62C63.19 15.88 63.59 16.17 63.99 16.44L65.2 17.27C65.59 17.56 65.97 17.87 66.35 18.17C68.22 19.72 67.6 19.98 65.45 19.77C64.45 19.63 62.89 19.53 61.2 19.37C60.34 19.37 59.42 19.3 58.49 19.22C58.01 19.22 57.55 19.16 57.05 19.22C56.55 19.28 56.13 18.99 55.65 18.91C54.0051 18.5355 52.3333 18.2914 50.65 18.18L49.4 18.11C48.98 18.11 48.56 18.11 48.14 18.11C47.3073 18.065 46.4727 18.065 45.64 18.11C42.2995 18.2144 39.0017 18.8908 35.89 20.11C34.3196 20.7193 32.8013 21.455 31.35 22.31C29.898 23.1973 28.5202 24.2005 27.23 25.31C24.5821 27.5413 22.3362 30.2099 20.59 33.2C18.4306 36.9365 17.1323 41.108 16.79 45.41C16.4928 49.8132 16.9013 54.2357 18 58.51C18.5872 60.8483 19.4289 63.1151 20.51 65.27C21.5659 67.4202 22.9118 69.4155 24.51 71.2C27.7668 74.7331 31.9103 77.3297 36.51 78.72C42.3193 80.3843 48.4587 80.5289 54.34 79.14C58.8611 78.0942 63.1949 76.3607 67.19 74C69.1498 72.864 70.9834 71.5232 72.66 70C73.4723 69.2519 74.2153 68.4319 74.88 67.55L75.88 66.24C76.17 65.78 76.42 65.24 76.7 64.81C78.3138 61.8479 79.1951 58.5424 79.27 55.17C79.3341 51.8327 78.8164 48.5096 77.74 45.35C77.24 43.97 76.74 42.64 76.1 41.35C75.01 38.85 74.1 37.35 73.78 36.02C73.6359 35.4478 73.562 34.8601 73.56 34.27C73.588 33.7049 73.7062 33.1478 73.91 32.62C74.0648 32.0911 74.2552 31.5732 74.48 31.07C74.9 30.33 75.73 30.24 76.93 30.81C78.6296 31.711 80.0664 33.0376 81.1 34.66C83.2643 37.7515 84.8905 41.1865 85.91 44.82C86.9199 48.6429 87.2249 52.6178 86.81 56.55C86.1119 62.7661 83.4456 68.5964 79.2 73.19L77 75.32C76.6289 75.6865 76.2274 76.0211 75.8 76.32L74.57 77.22C73.3996 78.075 72.1773 78.8565 70.91 79.56C69.66 80.22 68.43 80.92 67.14 81.56C64.5621 82.7825 61.886 83.7861 59.14 84.56C53.6209 86.1398 47.8504 86.6489 42.14 86.06V85.81Z" fill="currentColor"/>
<path d="M37.7 32C37.6955 32.0094 37.6932 32.0196 37.6932 32.03C37.6932 32.0404 37.6955 32.0506 37.7 32.06C37.7246 32.1097 37.7375 32.1645 37.7375 32.22C37.7375 32.2755 37.7246 32.3303 37.7 32.38C37.5338 32.7249 37.3869 33.0788 37.2599 33.44L37.11 34.44C37.0748 35.1062 37.0748 35.7738 37.11 36.44C37.1514 37.7785 37.2649 39.1137 37.45 40.44C37.76 43.07 38.06 45.7 38.45 48.32L39.83 56.15L40.53 60.06L41.64 64C41.6595 64.0459 41.6695 64.0952 41.6695 64.145C41.6695 64.1948 41.6595 64.2442 41.64 64.29C41.6353 64.3097 41.6353 64.3303 41.64 64.35C41.71 64.56 42.54 64.63 43.49 64.52C44.44 64.41 45.23 64.15 45.25 63.93C45.1844 63.8438 45.1492 63.7383 45.15 63.63L45.22 62.33C45.3669 59.7875 45.3335 57.2378 45.12 54.7L44.7 47L44 39.47L43.83 37.59C43.75 36.97 43.65 36.35 43.56 35.72L43.4199 34.79C43.3976 34.4754 43.3302 34.1655 43.22 33.87L42.9199 32.96C42.7399 32.67 42.53 32.37 42.34 32.09C42.3189 32.0481 42.3079 32.0019 42.3079 31.955C42.3079 31.9081 42.3189 31.8619 42.34 31.82C42.3452 31.8109 42.348 31.8005 42.348 31.79C42.348 31.7795 42.3452 31.7691 42.34 31.76C41.591 31.4912 40.7879 31.4088 40 31.52C39.2034 31.4601 38.4061 31.6265 37.7 32Z" fill="currentColor"/>
<path d="M53.7 32.64C53.7247 32.6807 53.7378 32.7274 53.7378 32.775C53.7378 32.8226 53.7247 32.8693 53.7 32.91C53.5177 33.1977 53.3508 33.4947 53.2 33.8L52.97 34.71C52.8815 35.3198 52.8281 35.9341 52.81 36.55C52.7082 37.7839 52.6715 39.0223 52.7 40.26C52.7 42.75 52.65 45.26 52.7 47.76C52.75 50.26 52.96 52.76 53.13 55.3L53.41 59.09C53.66 60.37 53.92 61.63 54.25 62.94C54.2695 62.9858 54.2796 63.0352 54.2796 63.085C54.2796 63.1348 54.2695 63.1842 54.25 63.23C54.25 63.23 54.25 63.23 54.25 63.3C54.31 63.51 55.14 63.58 56.09 63.47C57.04 63.36 57.83 63.11 57.86 62.93C57.8012 62.8566 57.7726 62.7637 57.78 62.67C57.78 62.29 57.86 61.9 57.92 61.5C58.2573 59.1593 58.4742 56.8029 58.57 54.44L59 47.3L59.24 40.12L59.29 38.31C59.29 37.71 59.29 37.1 59.23 36.5V35.59C59.2378 35.2796 59.2008 34.9698 59.12 34.67L58.89 33.74C58.74 33.44 58.55 33.13 58.36 32.81C58.3377 32.7631 58.3262 32.7119 58.3262 32.66C58.3262 32.6081 58.3377 32.5569 58.36 32.51C58.3646 32.4903 58.3646 32.4697 58.36 32.45C57.6111 32.1526 56.7967 32.0594 56 32.18C55.2084 32.1576 54.422 32.3148 53.7 32.64Z" fill="currentColor"/>
</svg>
