<svg width="96" height="96" viewBox="0 0 96 96" fill="none" xmlns="http://www.w3.org/2000/svg">
<path d="M47.55 90.11C47.82 90.32 47.35 90.58 46.45 90.73C46.0218 90.7857 45.5882 90.7857 45.16 90.73C44.92 90.63 44.68 90.54 44.51 90.45C44.34 90.36 43.92 89.34 43.7 88.97C43.5147 88.6309 43.4055 88.2555 43.38 87.87C43.29 87.11 43.15 86.34 43.05 85.57C43.0308 85.3943 43.0513 85.2166 43.11 85.05C43.2851 84.4628 43.2851 83.8372 43.11 83.25C43.11 83.16 43.11 83.05 42.95 82.97C42.79 82.89 42.59 81.22 42.68 80.97C42.77 80.72 42.88 80.42 42.97 80.15L43.27 79.32C43.27 79.24 43.27 79.16 43.41 79.08C43.76 78.89 43.68 78.73 43.75 78.56C43.8285 78.3116 43.9289 78.0706 44.05 77.84C44.1529 77.7006 44.2779 77.579 44.42 77.48C44.54 77.37 44.9 77.48 44.95 77.48C45 77.48 45.25 77.48 45.41 77.48H45.57C45.57 77.48 45.87 77.76 46.21 78.07L46.7 78.49C46.7759 78.5655 46.843 78.6494 46.9 78.74L47.01 79.04C47.08 79.21 47.17 79.44 47.27 79.67C47.44 80.15 47.6 80.67 47.65 80.74C47.7 80.81 47.65 80.97 47.65 81.08C47.65 81.19 48.18 82.56 48.16 82.63C48.16 82.94 48.34 83.23 48.03 83.57C48.0133 83.5989 48.0045 83.6316 48.0045 83.665C48.0045 83.6983 48.0133 83.7311 48.03 83.76C48.1051 84.2907 48.1051 84.8293 48.03 85.36C48.043 85.6321 48.0764 85.9029 48.13 86.17C48.13 86.17 48.13 86.28 48.07 86.33C48.0395 86.3889 48.0225 86.4537 48.02 86.52C48.0413 87.1913 48.1149 87.86 48.24 88.52C48.3 88.66 47.95 89.43 48.03 89.6C48.11 89.77 47.45 90 47.55 90.11Z" fill="currentColor"/>
<path d="M20.25 77.32C23.1709 80.8221 26.8459 83.6185 31 85.5C32.5358 86.1536 34.1207 86.6852 35.74 87.09C38.6113 87.8283 41.5812 88.1084 44.54 87.92C47.5424 87.7741 50.5088 87.2017 53.35 86.22C55.8711 85.339 58.2522 84.0996 60.42 82.54C63.1809 80.5125 65.674 78.1436 67.84 75.49C68.55 74.69 68.77 75 68.52 75.97C68.3459 76.6232 68.1047 77.2565 67.8 77.86C67.3492 78.6895 66.8093 79.4674 66.19 80.18C64.9544 81.5694 63.5992 82.8476 62.14 84C60.6599 85.1447 59.0764 86.1491 57.41 87C54.0527 88.6563 50.4314 89.7123 46.71 90.12C44.4631 90.3778 42.2 90.4647 39.94 90.38C37.6325 90.2812 35.3457 89.9018 33.13 89.25C28.2897 87.7952 23.8441 85.2578 20.13 81.83C17.8495 79.7437 15.8825 77.3389 14.29 74.69C11.915 70.6524 10.4859 66.1291 10.11 61.46C9.78087 57.8928 10.0959 54.2956 11.04 50.84C11.28 50.1 11.48 49.36 11.74 48.61C12.83 45.88 13.54 45.19 14.32 44.9C14.4941 44.8235 14.6748 44.7633 14.86 44.72C15.37 44.72 15.23 45.9 14.65 47.82C13.7941 50.6948 13.3266 53.6712 13.26 56.67C12.9982 60.4012 13.4823 64.1472 14.6842 67.6893C15.8861 71.2314 17.7816 74.4985 20.26 77.3L20.25 77.32Z" fill="currentColor"/>
<path d="M40 25.6C39.78 25.47 40.14 25.31 40.84 25.08C41.1661 24.9924 41.5024 24.9487 41.84 24.95C42.0313 25.0186 42.2155 25.1057 42.39 25.21C42.6388 25.6762 42.8592 26.1571 43.05 26.65C43.1833 26.9664 43.2513 27.3066 43.25 27.65L43.32 29.65C43.3191 29.799 43.2849 29.9459 43.22 30.08C43.0145 30.5445 42.9485 31.0587 43.03 31.56C43.03 31.64 43.03 31.72 43.13 31.8C43.3113 32.3212 43.3391 32.8835 43.21 33.42C42.9735 33.8212 42.7663 34.2389 42.59 34.67C42.59 34.73 42.59 34.79 42.47 34.84C42.16 34.98 42.21 35.1 42.19 35.23C42.1594 35.414 42.1021 35.5925 42.02 35.76C41.9204 35.8661 41.8059 35.9571 41.68 36.03C41.4939 36.1092 41.2882 36.1301 41.09 36.09C40.95 36.02 40.75 36.09 40.57 36.09H40.38C39.985 35.738 39.6476 35.3263 39.38 34.87C39.38 34.87 39.28 34.45 39.19 34.02C39.1 33.59 38.98 33.16 38.95 33.02C38.92 32.88 38.95 32.83 39.04 32.74C39.13 32.65 38.82 31.44 38.83 31.39C38.83 31.14 38.76 30.88 39.05 30.63C39.11 30.58 39.05 30.53 39.05 30.48C39.044 30.0381 39.0978 29.5974 39.21 29.17C39.225 28.9502 39.225 28.7297 39.21 28.51C39.21 28.51 39.21 28.43 39.27 28.39C39.2985 28.3438 39.3188 28.2931 39.33 28.24C39.38 27.7279 39.38 27.2121 39.33 26.7C39.33 26.6 39.61 26.03 39.55 25.91C39.49 25.79 40.08 25.66 40 25.6Z" fill="currentColor"/>
<path d="M11.25 61.8C10.92 62.01 10.72 61.38 11.02 60.45C11.1936 60.0163 11.3975 59.5952 11.63 59.19C11.7672 59.0042 11.8751 58.7985 11.95 58.58C11.95 58.58 12.14 58.41 12.3 58.3L12.94 57.96C13.1979 57.8113 13.4925 57.7385 13.79 57.75C14.39 57.75 15.03 57.65 15.67 57.59C15.8252 57.5811 15.9801 57.612 16.12 57.68C16.6062 57.8943 17.1542 57.9228 17.66 57.76C17.75 57.76 17.84 57.76 17.9 57.61C17.96 57.46 19.41 57.22 19.62 57.31C19.8576 57.4147 20.1014 57.5049 20.35 57.58C20.6 57.67 20.84 57.79 21.1 57.9C21.17 57.9 21.24 57.9 21.31 58.04C21.5 58.4 21.63 58.34 21.79 58.37C22.0157 58.4131 22.2345 58.4871 22.44 58.59C22.5719 58.6997 22.6836 58.8317 22.77 58.98C22.8298 59.1925 22.8298 59.4174 22.77 59.63C22.69 59.78 22.77 60 22.77 60.2C22.775 60.2666 22.775 60.3334 22.77 60.4C22.4513 60.8386 22.0968 61.25 21.71 61.63L20.91 62.04C20.5 62.18 20.06 62.35 19.97 62.4C19.88 62.45 19.78 62.4 19.67 62.33C19.56 62.26 18.36 62.84 18.3 62.84C18.02 62.84 17.76 63.02 17.44 62.72C17.38 62.66 17.33 62.72 17.27 62.72C16.7866 62.8002 16.2934 62.8002 15.81 62.72C15.5583 62.7273 15.3076 62.7541 15.06 62.8C15.01 62.8 14.96 62.8 14.92 62.74C14.8667 62.7038 14.8044 62.683 14.74 62.68C14.1087 62.6802 13.4778 62.7135 12.85 62.78C12.71 62.84 11.95 62.35 11.75 62.39C11.55 62.43 11.36 61.71 11.25 61.8Z" fill="currentColor"/>
<path d="M16.39 80.67C13.3368 76.8743 11.1154 72.4793 9.86999 67.77C8.65737 63.0992 8.40561 58.2309 9.12999 53.46C9.59861 50.0159 10.5339 46.6517 11.91 43.46C15.6984 35.0289 22.5413 28.3469 31.06 24.76C32.4557 24.1786 33.885 23.681 35.34 23.27L37.53 22.74L39.81 22.39C45.1649 21.8122 50.5799 22.5432 55.59 24.52C58.8154 25.7489 61.7954 27.5437 64.39 29.82C66.9349 32.185 68.8611 35.1378 70 38.42C70.67 40.42 69.68 40.42 68.09 39.33C67.34 38.76 66.26 38.05 65.21 37.18C64.6018 36.7704 64.0175 36.3263 63.46 35.85C62.8181 35.3997 62.2006 34.9157 61.61 34.4C57.2726 30.5163 51.7983 28.1351 46 27.61C45.2798 27.5252 44.5551 27.4851 43.83 27.49H42.75L41.67 27.56C41.32 27.56 40.95 27.56 40.6 27.64L39.54 27.81C38.84 27.89 38.12 28.07 37.39 28.23C34.4574 28.899 31.6333 29.9762 29 31.43C25.7464 33.262 22.9043 35.7434 20.65 38.72C18.3632 41.7381 16.5988 45.1183 15.43 48.72C14.1324 52.6764 13.6062 56.8452 13.88 61C14.1807 65.1606 15.3527 69.2115 17.32 72.89C17.9235 74.0238 18.5912 75.1223 19.32 76.18L20.52 77.69L21.13 78.45L21.8 79.15C23.5795 81.0447 25.5962 82.7017 27.8 84.08C31.1703 86.1708 34.9006 87.6155 38.8 88.34C42.6696 89.027 46.6454 88.8148 50.42 87.72C53.2932 86.8474 55.998 85.495 58.42 83.72C60.8358 81.992 62.9795 79.9123 64.78 77.55C65.62 76.55 66.26 75.46 67.05 74.42C67.67 73.42 68.23 72.55 68.68 71.83C69.0115 71.2088 69.3998 70.6196 69.84 70.07C70.3694 69.3176 71.096 68.7259 71.94 68.36C72.284 68.2141 72.6383 68.0938 73 68C73.52 67.9 73.77 68.4 73.8 69.47C73.8098 70.1394 73.763 70.8084 73.66 71.47C73.4527 72.3571 73.1854 73.2291 72.86 74.08C72.59 74.8 72.23 75.47 71.86 76.18L71.36 77.18L70.77 78.18C70.36 78.84 69.98 79.54 69.53 80.18C69.08 80.82 68.53 81.42 68.08 82.05C66.0076 84.5202 63.5932 86.682 60.91 88.47C58.1358 90.3029 55.1019 91.7086 51.91 92.64C51.1079 92.878 50.2934 93.0716 49.47 93.22L48.23 93.48C47.82 93.56 47.4 93.58 46.98 93.63C46.14 93.71 45.31 93.83 44.46 93.86H42C41.3743 93.8531 40.7497 93.8064 40.13 93.72L38.27 93.49C37.03 93.31 35.83 92.96 34.61 92.69C33.39 92.42 32.28 91.91 31.11 91.52C29.94 91.13 28.86 90.52 27.75 89.99C23.3468 87.7218 19.4511 84.5815 16.3 80.76L16.39 80.67Z" fill="currentColor"/>
<path d="M43.91 59.93C43.8672 60.0092 43.8337 60.0931 43.81 60.18C43.8498 60.2288 43.9014 60.2667 43.96 60.29C44.0497 60.3303 44.1436 60.3605 44.24 60.38H44.47H44.82C45.0612 60.3799 45.3021 60.3598 45.54 60.32C46.24 60.26 46.93 60.04 47.66 59.93C50.22 59.55 52.89 58.93 55.66 58.56C56.8934 58.3405 58.139 58.1969 59.39 58.13C61.0248 57.9227 62.6852 58.1683 64.19 58.84C64.66 59.06 64.41 59.62 63.87 60.16C63.3402 60.7413 62.6402 61.1403 61.87 61.3C60.5044 61.3888 59.1473 61.5793 57.81 61.87L53.43 62.52C51.6 62.76 49.78 63.52 47.83 63.99C47.3 64.11 46.74 64.2 46.2 64.3C45.93 64.3 45.64 64.38 45.36 64.42L44.36 64.55C43.52 64.62 42.7 64.61 41.89 64.64L40.74 64.53H40.18C40.01 64.53 39.72 64.53 39.79 64.3L39.62 61.37C39.62 60.91 39.54 60.37 39.55 59.98V58.98C39.5 56.98 39.67 54.98 39.65 53.04C39.6356 52.2837 39.5755 51.529 39.47 50.78L39.32 49.66C39.32 49.29 39.32 48.92 39.26 48.55C39.2 48.18 39.2 47.9 39.26 47.55C39.44 46.33 39.8 45.95 40.75 45.69C40.9597 45.6206 41.1735 45.5638 41.39 45.52C42.08 45.4 42.71 45.91 43.14 46.82C44.45 49.53 44.31 52.39 44.35 55.12C44.35 56.12 44.35 57.12 44.26 58.12L44.2 59.64V59.8L43.91 59.93Z" fill="currentColor"/>
<path d="M61.15 18C61.38 18.15 61.15 18.42 60.52 18.78C60.2351 18.9232 59.9269 19.0146 59.61 19.05C59.4173 18.989 59.2299 18.9121 59.05 18.82C58.6839 18.3182 58.3499 17.7938 58.05 17.25C57.8302 16.8823 57.6746 16.4799 57.59 16.06C57.39 15.23 57.18 14.39 57.04 13.54C56.9976 13.3633 56.9841 13.181 57 13C57.1162 12.3384 57.1162 11.6616 57 11C57 10.89 57 10.78 56.88 10.67C56.76 10.56 56.72 8.66998 56.88 8.39998C57.17 7.81998 57.38 7.23998 57.68 6.66998C57.68 6.58998 57.68 6.48998 57.84 6.43998C58.2 6.33998 58.23 6.15998 58.32 5.98998C58.4296 5.73481 58.6057 5.51377 58.83 5.34998C58.9827 5.26441 59.1435 5.19408 59.31 5.13998C59.45 5.07998 59.7 5.24998 59.73 5.29998C59.76 5.34998 59.97 5.41998 60.1 5.45998H60.23C60.23 5.53998 60.93 6.94998 60.94 7.04998C60.8968 7.70039 60.9169 8.35346 61 8.99998C61 9.09998 61 9.19998 60.9 9.29998C60.8 9.39998 61.14 10.74 61.13 10.8C61.13 11.09 61.23 11.38 60.96 11.69C60.91 11.75 60.96 11.81 60.96 11.87C61.0001 12.3859 61.0001 12.9041 60.96 13.42C60.9736 13.6854 61.007 13.9495 61.06 14.21C61.06 14.21 61.06 14.31 61.06 14.36C61.0504 14.4229 61.0504 14.487 61.06 14.55C61.1239 15.1795 61.2444 15.802 61.42 16.41C61.48 16.55 61.34 17.3 61.42 17.46C61.5 17.62 61.05 18 61.15 18Z" fill="currentColor"/>
<path d="M76.1 28.82C76.17 29.08 75.77 28.93 75.1 28.58C74.7741 28.4023 74.4746 28.1802 74.21 27.92C74.1122 27.7253 74.0351 27.5208 73.98 27.31C74.1136 26.7348 74.315 26.1776 74.58 25.65C74.7416 25.264 74.9917 24.9215 75.31 24.65C75.9038 24.0916 76.5426 23.5833 77.22 23.13C77.3769 23.0286 77.5546 22.9636 77.74 22.94C78.35 22.8485 78.9352 22.6341 79.46 22.31C79.55 22.26 79.65 22.25 79.7 22.09C79.75 21.93 81.37 21.27 81.62 21.38C81.87 21.49 82.19 21.49 82.47 21.59L83.3 21.88C83.37 21.88 83.45 21.88 83.53 22.01C83.5662 22.1063 83.6324 22.1884 83.7188 22.2442C83.8052 22.3 83.9073 22.3266 84.01 22.32C84.2146 22.3238 84.4146 22.3812 84.5901 22.4865C84.7655 22.5918 84.9103 22.7412 85.01 22.92C85.0703 23.0881 85.0703 23.2719 85.01 23.44C84.92 23.57 85.01 23.75 85.01 23.9C85.0144 23.9566 85.0144 24.0134 85.01 24.07C85.01 24.14 84.01 25.17 83.93 25.22L83.71 25.34L83.25 25.64C82.92 25.87 82.57 26 82.51 26.08C82.45 26.16 82.35 26.08 82.25 26.08C81.9035 26.2535 81.5694 26.4506 81.25 26.67C81.02 26.67 80.89 26.91 80.55 26.67C80.48 26.67 80.45 26.67 80.41 26.67C80.063 26.8468 79.6974 26.9843 79.32 27.08C79.1429 27.164 78.9781 27.2717 78.83 27.4C78.83 27.4 78.74 27.4 78.7 27.4C78.66 27.4 78.59 27.4 78.55 27.4C78.2 27.71 77.71 27.88 77.48 28.31C77.42 28.4 76.8 28.54 76.75 28.67C76.7 28.8 76.08 28.7 76.1 28.82Z" fill="currentColor"/>
</svg>
