<svg width="96" height="96" viewBox="0 0 96 96" fill="none" xmlns="http://www.w3.org/2000/svg">
<path d="M61.12 62.13C59.2863 62.2391 57.4462 62.1553 55.63 61.88C53.93 61.64 52.31 61.31 50.7 60.98C47.49 60.3 44.4 59.44 41.34 58.51L39.41 58L39 57.83L38.68 57.73C38.58 57.73 38.42 57.6 38.39 57.73C38.2794 57.9445 38.189 58.1688 38.12 58.4L38 58.6C37.9564 58.7196 37.9262 58.8437 37.91 58.97L37.61 60.44L36.4 66.44C35.5943 70.5071 34.5186 74.5159 33.18 78.44C32.93 79.12 32.67 79.8 32.37 80.44C32.22 80.78 32.06 81.13 31.89 81.44C31.6738 81.8796 31.4334 82.3069 31.17 82.72C30.6512 83.5809 29.9723 84.3345 29.17 84.94C28.3902 85.5264 27.4355 85.8329 26.46 85.81C25.8559 85.6501 25.2643 85.4462 24.69 85.2C24.11 84.88 23.53 84.54 22.96 84.2C20.96 82.99 18.96 81.89 17.06 80.7C16.06 80.12 15.14 79.52 14.2 78.91C13.7249 78.612 13.2736 78.2776 12.85 77.91L11.52 76.91C10.45 76.06 10.83 75.43 12.39 74.99C13.3952 74.7368 14.4241 74.5893 15.46 74.55C16.7355 74.5759 17.9918 74.8652 19.15 75.4C20.73 76.14 22.29 76.91 23.82 77.67L26 78.78C26 78.78 26.08 78.85 26.16 78.84C26.24 78.83 26.16 78.84 26.22 78.77C26.28 78.7 26.35 78.54 26.42 78.41C26.49 78.28 26.68 77.89 26.81 77.61C27.07 77.05 27.31 76.45 27.55 75.83C28.5 73.32 29.31 70.56 30.11 67.77C30.8361 65.0439 31.4103 62.2797 31.83 59.49L32.23 57.05C32.4079 55.8838 32.6651 54.7311 33 53.6C33.1594 53.1103 33.3813 52.6431 33.66 52.21C33.9229 51.813 34.263 51.4729 34.66 51.21C34.8562 51.1324 35.061 51.0787 35.27 51.05C35.4777 51.0112 35.6888 50.9944 35.9 51C36.1427 50.975 36.3873 50.975 36.63 51L37.46 51.16L37.73 51.22L41.31 52.36L43.51 53.04C44.9767 53.4867 46.4467 53.9067 47.92 54.3C50.8128 55.1035 53.7657 55.6721 56.75 56C57.8859 56.1203 59.0297 56.1471 60.17 56.08C60.5505 56.065 60.9288 56.0148 61.3 55.93C61.6111 55.866 61.9025 55.7289 62.15 55.53C62.3 55.44 62.33 55.26 62.38 55.11C62.43 54.96 62.48 54.79 62.52 54.63C62.56 54.47 62.64 54.13 62.7 53.83L62.9 52.83C64.03 47.1 65.29 41.26 66.59 35.51C67.59 31.03 68.41 26.51 69.86 22.07C70.19 21.07 70.46 20.07 70.86 19.12C71.3352 17.7662 72.1272 16.5456 73.17 15.56C73.5379 15.2857 73.9605 15.0937 74.4091 14.9971C74.8577 14.9005 75.3218 14.9015 75.77 15C76.1932 15.0466 76.6115 15.1302 77.02 15.25C77.3238 15.4046 77.5784 15.641 77.7551 15.9325C77.9318 16.224 78.0236 16.5591 78.02 16.9C78.0612 17.3591 78.0612 17.8209 78.02 18.28C77.9537 18.8399 77.8228 19.3902 77.63 19.92C75.32 26.92 73.63 34.92 71.63 43C71.08 45.46 70.52 47.93 69.97 50.4L69.13 54.18L68.58 56.49C68.45 57.0989 68.2556 57.6922 68 58.26C67.7282 58.7902 67.4209 59.3013 67.08 59.79C66.66 60.16 66.21 60.49 65.77 60.79C65.2912 61.0902 64.7816 61.3383 64.25 61.53C63.7168 61.7353 63.1685 61.8991 62.61 62.02C62.334 62.0902 62.0533 62.1403 61.77 62.17L61.12 62.25V62.13Z" fill="currentColor"/>
<path d="M76.14 16.94C76.14 16.82 76.14 16.87 76.14 16.84V16.54C76.14 16.41 76.14 16.16 75.97 16.18C75.8672 16.1658 75.7629 16.1658 75.66 16.18L75.47 16.24C75.3437 16.2864 75.2281 16.3578 75.13 16.45C74.4 16.99 73.77 17.7 73.05 18.33C70.3137 20.4918 67.7215 22.8301 65.29 25.33C64.2229 26.4705 63.2529 27.6981 62.39 29C61.4164 30.6241 60.2806 32.1452 59 33.54C58.7 33.8 57.62 33.6 56.84 32.54C56.421 32.02 56.1444 31.3999 56.0374 30.7407C55.9305 30.0815 55.9968 29.4058 56.23 28.78C56.7286 27.7982 57.3214 26.8672 58 26C58.65 25.13 59.33 24.3 60 23.5C61.4193 21.8893 62.9715 20.4008 64.64 19.05C65.6381 18.2128 66.5895 17.3214 67.49 16.38L68.91 15C69.41 14.55 69.91 14.12 70.47 13.72C71.03 13.32 71.26 13.13 71.67 12.85L72.31 12.43C72.55 12.25 72.93 12.06 73.23 11.86C73.8278 11.4643 74.4728 11.1451 75.15 10.91C75.7431 10.6778 76.3658 10.5297 77 10.47C77.3087 10.4611 77.6175 10.4879 77.92 10.55C77.92 10.55 77.84 10.78 77.92 10.68C77.9533 10.6782 77.9867 10.6782 78.02 10.68L78.2 10.8L78.54 11.05C79.016 11.495 79.3793 12.0469 79.6 12.66C80.3732 14.5549 81.0409 16.4912 81.6 18.46C82.37 20.98 83 23.54 83.8 26.02C84.42 27.95 85.31 29.78 86.04 31.69C86.2 32.11 86.4 32.51 86.53 32.94C86.99 34.57 86.67 35.21 85.38 35.81C85.0911 35.9599 84.7939 36.0934 84.49 36.21C83.9857 36.3651 83.4422 36.332 82.9604 36.1168C82.4786 35.9017 82.0912 35.5191 81.87 35.04C80.2827 31.7662 79.0458 28.3338 78.18 24.8C77.44 22.17 76.77 19.47 75.96 16.9L76.14 16.94Z" fill="currentColor"/>
</svg>
