<svg width="96" height="96" viewBox="0 0 96 96" fill="none" xmlns="http://www.w3.org/2000/svg">
<path d="M32 83.78L31.86 83.7C31.86 83.7 31.86 83.64 31.75 83.7L31.69 83.63C31.6463 83.5407 31.6127 83.4468 31.59 83.35L31.42 82.75C31.36 82.55 31.3 82.3 31.24 82.06C31.18 81.82 31.24 81.77 31.24 81.61L31.32 81.12C31.47 80.44 31.64 79.76 31.77 79.12L31.92 78.38L32.01 77.88C32.2586 76.5324 32.4123 75.1691 32.47 73.8C32.52 72.8 32.41 71.8 32.39 70.8C32.2831 67.1925 31.7151 63.6134 30.7 60.15C30.2516 58.5853 29.6832 57.0574 29 55.58C28.0557 53.7333 27.2111 51.8372 26.47 49.9C26.26 49.28 26.8 49.06 27.61 49.25C28.6767 49.5095 29.6098 50.1541 30.23 51.06C30.53 51.52 30.83 51.99 31.1 52.48L31.53 53.2C31.65 53.45 31.76 53.7 31.87 53.96C32.33 54.96 32.73 55.96 33.11 57.06C33.848 59.1786 34.387 61.3614 34.72 63.58C35.197 66.2805 35.5308 69.0043 35.72 71.74C35.7616 73.2552 35.7082 74.7715 35.56 76.28C35.49 77.03 35.38 77.79 35.26 78.53L35.17 79.09L35.11 79.33L34.98 79.82L34.81 80.46C34.8002 80.5129 34.8002 80.5671 34.81 80.62C34.81 80.62 34.9 80.62 34.94 80.62C34.98 80.62 35.14 80.62 35.24 80.62L36.67 80.38C39.4212 79.918 42.2122 79.7371 45 79.84C47.159 79.8574 49.3141 80.0244 51.45 80.34C51.92 80.42 52.39 80.47 52.86 80.59C54.6 81.04 55.04 81.52 55.05 82.52C55.065 82.7498 55.065 82.9802 55.05 83.21C54.93 83.94 54.05 84.21 52.89 84.08C49.3506 83.4654 45.7621 83.1775 42.17 83.22C40.8115 83.2592 39.4561 83.3727 38.11 83.56L37.11 83.72C36.49 83.83 35.77 83.98 35.11 84.15C34.7824 84.2498 34.4483 84.3266 34.11 84.38L33.62 84.44C33.47 84.44 33.35 84.44 33.21 84.44C33.0876 84.4329 32.9697 84.3913 32.87 84.32L32.58 84.17L32 83.84V83.78Z" fill="currentColor"/>
<path d="M32.15 53.18C34.022 58.4507 35.0349 63.9879 35.15 69.58C35.21 71.58 35.34 73.58 35.27 75.48C35.21 77.18 35.11 78.88 35.1 80.41V81C35.0903 81.1432 35.0903 81.2868 35.1 81.43C35.0973 81.5785 35.1425 81.7238 35.229 81.8445C35.3154 81.9652 35.4385 82.0548 35.58 82.1C35.8859 82.1301 36.1941 82.1301 36.5 82.1L39 81.84C40.69 81.63 42.4 81.44 44.12 81.3C47.2059 80.9837 50.3088 80.8634 53.41 80.94C55.4858 80.9955 57.5445 81.3319 59.53 81.94C60.548 82.3056 61.5183 82.7925 62.42 83.39C63.3254 84.0268 64.0967 84.8355 64.69 85.77C65.42 86.95 64.69 87.17 63.39 87.21C62.5617 87.2405 61.7365 87.3273 60.92 87.47C60.4907 87.5047 60.0593 87.5047 59.63 87.47C59.1996 87.4595 58.7711 87.4092 58.35 87.32C57.98 87.22 57.59 87.17 57.2 87.09C56.81 87.01 56.42 86.92 56.03 86.83C55.206 86.6809 54.3749 86.5741 53.54 86.51C51.78 86.3741 50.0135 86.344 48.25 86.42C46.43 86.49 44.59 86.63 42.71 86.81L36.56 87.39C35.5925 87.5408 34.6075 87.5408 33.64 87.39C33.4228 87.3405 33.209 87.2771 33 87.2L32.84 87.13H32.76L32.45 86.98C32.2373 86.8771 32.0417 86.7422 31.87 86.58C31.69 86.43 31.5288 86.2588 31.39 86.07C30.7869 85.3323 30.3871 84.4498 30.23 83.51C30.1147 83.0272 30.0411 82.5354 30.01 82.04C29.9723 81.7949 29.9489 81.5478 29.94 81.3V80.76C29.86 78.17 29.94 75.83 29.94 73.48C30.0608 68.4184 29.4477 63.3659 28.12 58.48C27.2654 55.5044 26.0673 52.6385 24.55 49.94C24.32 49.54 24.1 49.13 23.84 48.74L23.47 48.14C23.27 47.83 23.08 47.53 22.87 47.24C21.91 46 21 44.79 20.1 43.65L18.85 41.38L18.22 39.85C18.22 39.71 18.04 39.63 18.15 39.42C18.272 39.2727 18.4214 39.1504 18.59 39.06C18.908 38.8859 19.2431 38.7452 19.59 38.64C20.3328 38.4066 21.1023 38.2688 21.88 38.23C23.0761 38.1731 24.2747 38.2604 25.45 38.49C26.7521 38.7109 28.0408 39.0047 29.31 39.37L30.31 39.69L30.56 39.78L30.74 39.84L31.1 39.98C31.59 40.15 32.1 40.36 32.54 40.57C33.489 41.0132 34.4048 41.5245 35.28 42.1C36.0723 42.6031 36.8186 43.1753 37.51 43.81C38.0588 44.312 38.5517 44.8719 38.98 45.48C39.2578 45.9142 39.4544 46.3954 39.56 46.9C39.645 47.2752 39.645 47.6647 39.56 48.04C39.4296 48.394 39.2549 48.73 39.04 49.04C38.8868 49.3084 38.7199 49.5688 38.54 49.82C38.07 50.38 36.26 49.96 34.79 48.73C33.7489 47.7576 32.6095 46.8963 31.39 46.16C30.7861 45.7855 30.1581 45.4514 29.51 45.16C29.19 45 28.86 44.86 28.51 44.72L28.38 44.67H28.26C28.08 44.78 28.26 44.88 28.26 44.87C28.26 44.87 28.26 44.81 28.32 44.98L28.76 45.68C29.06 46.13 29.31 46.63 29.58 47.1C30.6576 49.0294 31.5934 51.0347 32.38 53.1L32.15 53.18Z" fill="currentColor"/>
<path d="M57 47.55C56.87 47.04 56.75 46.55 56.65 46.01L56.49 45.24L56.38 44.61L56.13 42.89C55.98 41.75 55.86 40.61 55.75 39.47C55.64 38.33 55.57 37.2 55.5 36.08L55.44 35.23C55.44 35.05 55.44 35.05 55.44 35.02V34.92V34.52C55.44 34.06 55.34 33.82 55.36 33.31C55.36 33.04 55.36 32.74 55.36 32.41C55.3695 32.2435 55.3695 32.0765 55.36 31.91C55.36 31.83 55.29 31.73 55.25 31.76C55.21 31.79 55.19 31.76 55.16 31.82C54.8864 32.0926 54.6479 32.3983 54.45 32.73C54.24 33.03 54.01 33.4 53.76 33.83L53.37 34.52L52.53 36.14L49 43C48.2603 44.4979 47.4322 45.9504 46.52 47.35C46.0348 48.0511 45.5036 48.7192 44.93 49.35C44.317 50.0159 43.6214 50.6007 42.86 51.09C41.86 51.73 41.41 50.64 41.29 49.26C41.2717 48.9269 41.2717 48.5931 41.29 48.26C41.2868 47.8818 41.3135 47.504 41.37 47.13C41.4785 46.3654 41.7626 45.6364 42.2 45C43.8824 42.3888 45.4278 39.6918 46.83 36.92C47.61 35.4467 48.3667 33.9867 49.1 32.54C49.79 31.14 50.44 29.76 51.1 28.47C51.76 27.18 52.42 25.9 53.1 24.87L53.58 24.06L53.84 23.71C53.9163 23.6224 54.0037 23.5451 54.1 23.48L54.59 23.04L55.08 22.58C55.22 22.48 55.36 22.42 55.49 22.32C55.7442 22.1485 56.008 21.9916 56.28 21.85L56.65 21.66C56.7319 21.6066 56.8244 21.5718 56.9211 21.558C57.0179 21.5442 57.1165 21.5517 57.21 21.58C57.5214 21.7266 57.7875 21.9546 57.98 22.24C58.1839 22.5034 58.3742 22.7771 58.55 23.06C59.0798 23.9473 59.4203 24.9347 59.55 25.96C59.8 27.6 59.89 29.54 60.04 31.35L60.41 35.92C60.59 38.1 60.83 40.26 61.17 42.39L61.53 44.56C61.62 45.07 61.74 45.56 61.88 46.15C61.97 46.48 62.07 46.82 62.19 47.15C62.31 47.48 62.39 47.7 62.5 47.98C62.5013 47.9968 62.5072 48.0129 62.5172 48.0264C62.5271 48.04 62.5407 48.0505 62.5563 48.0567C62.5719 48.063 62.589 48.0647 62.6055 48.0618C62.6221 48.0588 62.6375 48.0513 62.65 48.04L62.77 47.9C62.84 47.79 62.91 47.69 62.97 47.58L63.77 46.19C64.04 45.71 64.34 45.19 64.65 44.71L65.39 43.53L66.29 42.19C68.1097 39.3053 70.3743 36.7268 73 34.55C73.6021 34.056 74.2406 33.6081 74.91 33.21C75.8049 32.6192 76.8396 32.2743 77.91 32.21C78.2497 32.2296 78.5797 32.3307 78.8721 32.5048C79.1646 32.6788 79.4108 32.9207 79.59 33.21C79.8118 33.4702 80.0124 33.7478 80.19 34.04C80.67 35.04 79.9 36.09 78.53 37.04C76.4751 38.4641 74.61 40.1443 72.98 42.04C72.1241 43.0323 71.3229 44.0705 70.58 45.15C70.2 45.7 69.83 46.27 69.47 46.84L69.16 47.34L68.59 48.34C68.21 48.99 67.85 49.66 67.49 50.34C66.7936 51.8024 65.9599 53.1953 65 54.5C64.6662 54.8872 64.2582 55.2034 63.8 55.43C63.4882 55.5968 63.1498 55.7084 62.8 55.76C62.4676 55.7946 62.1324 55.7946 61.8 55.76C61.6114 55.7383 61.4244 55.7049 61.24 55.66C61.0744 55.6161 60.9136 55.5558 60.76 55.48C59.8614 55.0947 59.1453 54.3786 58.76 53.48C57.9346 51.5845 57.2657 49.6246 56.76 47.62L57 47.55Z" fill="currentColor"/>
<path d="M68.67 64.78C69.11 63.55 69.59 62.34 70.06 61.14C70.53 59.94 71.06 58.74 71.5 57.54C71.84 56.67 72.05 55.76 72.44 54.9C73.74 51.9 75.17 48.9 76.5 45.9C77.1 44.58 77.6 43.21 78.08 41.9C78.6213 40.112 79.4487 38.4234 80.53 36.9C80.89 36.43 81.41 36.71 81.86 37.41C82.4252 38.2662 82.6858 39.2877 82.6 40.31L82.34 41.72C82.2226 42.1537 82.0824 42.581 81.92 43C81.62 43.88 81.29 44.75 80.92 45.62C80.25 47.36 79.53 49.08 78.69 50.78C78.2224 51.8224 77.8346 52.8989 77.53 54C77.21 55.1 76.91 56.22 76.53 57.31L75.37 60.9L74.26 64.5C73.85 65.99 73.4 67.5 73.01 68.96C72.3699 71.1948 71.8985 73.4746 71.6 75.78C71.545 76.6658 71.545 77.5542 71.6 78.44C71.66 79.32 71.74 80.17 71.78 81.03C71.78 81.41 71.85 81.78 71.88 82.14C71.99 83.5 71.5 83.96 70.27 84.39C69.98 84.48 69.7 84.61 69.41 84.68C68.47 84.92 67.6 84.38 67.1 83.21C66.95 82.77 66.8 82.33 66.67 81.88C66.54 81.43 66.48 81 66.39 80.55C66.3 80.1 66.24 79.65 66.18 79.19C66.1023 78.7377 66.0689 78.2788 66.08 77.82C66.1147 76.0183 66.2953 74.2225 66.62 72.45C66.8336 71.1399 67.114 69.8415 67.46 68.56C67.76 67.27 68.12 66.01 68.54 64.76L68.67 64.78Z" fill="currentColor"/>
<path d="M21.67 23.16C21.8081 23.6576 21.8622 24.1747 21.83 24.69C21.8334 25.2075 21.7349 25.7206 21.54 26.2C21.3592 26.6699 21.1349 27.1219 20.87 27.55C20.5749 27.9619 20.24 28.3438 19.87 28.69C19.62 28.95 19.33 29.18 19.07 29.44C18.7734 29.6661 18.4628 29.8732 18.14 30.06C16.8658 30.651 15.442 30.8403 14.0577 30.6027C12.6734 30.3652 11.3942 29.712 10.39 28.73L9.73999 28C9.53646 27.7491 9.3494 27.4852 9.17999 27.21C8.88459 26.6494 8.69477 26.0393 8.61999 25.41C8.56022 24.9988 8.56022 24.5812 8.61999 24.17C8.7049 23.761 8.8498 23.3667 9.04999 23C9.25625 22.6834 9.49414 22.3885 9.75999 22.12C10.035 21.9013 10.3376 21.7197 10.66 21.58C11.07 21.41 11.45 22.13 11.77 22.94C11.94 23.35 12.1 23.76 12.22 24.1C12.34 24.44 12.53 24.68 12.48 24.77C12.43 24.86 12.54 24.9 12.48 24.94C12.42 24.98 12.55 24.94 12.57 24.94C12.59 24.94 12.57 24.94 12.62 24.94C12.6244 24.9494 12.6267 24.9596 12.6267 24.97C12.6267 24.9804 12.6244 24.9906 12.62 25C12.56 25.09 12.51 25.35 12.8 25.8C12.8709 25.9129 12.97 26.0054 13.0874 26.0685C13.2049 26.1316 13.3367 26.1631 13.47 26.16C13.6956 26.1281 13.917 26.0711 14.13 25.99C14.4638 25.9291 14.7767 25.7842 15.0391 25.569C15.3015 25.3539 15.5049 25.0755 15.63 24.76C15.6806 24.5531 15.6788 24.3368 15.6246 24.1307C15.5705 23.9246 15.4658 23.7354 15.32 23.58C15.0818 23.2895 14.7723 23.0659 14.4217 22.9309C14.0711 22.7959 13.6915 22.7543 13.32 22.81C13.0288 22.8928 12.7616 23.0441 12.5407 23.251C12.3198 23.458 12.1516 23.7148 12.05 24C12.0209 24.0994 11.9841 24.1963 11.94 24.29C11.8747 24.3783 11.784 24.4446 11.68 24.48C11.5407 24.5004 11.3992 24.5004 11.26 24.48C10.8662 24.4305 10.482 24.3226 10.12 24.16C9.88999 24.07 9.66999 24.01 9.45999 23.92C9.12287 23.7863 8.84332 23.5386 8.66999 23.22C8.4624 22.8492 8.37834 22.4218 8.42999 22L8.57999 21.49C8.65999 21.31 8.77999 21.12 8.87999 20.93C9.09499 20.5326 9.37949 20.177 9.71999 19.88C10.06 19.5607 10.4281 19.2729 10.82 19.02C11.2283 18.7867 11.6527 18.5829 12.09 18.41C12.9673 18.094 13.8986 17.9546 14.83 18C15.6936 18.0504 16.5439 18.236 17.35 18.55C17.9082 18.7592 18.4362 19.0417 18.92 19.39C19.1276 19.5775 19.3446 19.7544 19.57 19.92C19.8063 20.0708 20.0187 20.2562 20.2 20.47C20.9262 21.2451 21.4665 22.1752 21.78 23.19L21.67 23.16Z" fill="currentColor"/>
<path d="M59.62 12.43C59.5481 12.9315 59.4137 13.4219 59.22 13.89C58.9903 14.3346 58.7047 14.748 58.37 15.12C57.7113 15.848 56.9293 16.4539 56.06 16.91C55.4194 17.2477 54.7131 17.4421 53.99 17.48C51.3 17.6 49.18 14.58 49.14 12.66C49.0949 12.171 49.0949 11.679 49.14 11.19C49.1736 10.6699 49.324 10.164 49.58 9.71C49.8526 9.07565 50.3226 8.54612 50.92 8.2C51.4553 7.90213 52.0752 7.79295 52.68 7.89C53.04 7.95 53.02 8.56 52.92 9.24C52.82 9.92 52.72 10.71 52.68 10.89C52.6648 10.9158 52.6554 10.9446 52.6523 10.9744C52.6491 11.0042 52.6524 11.0343 52.6619 11.0627C52.6714 11.0911 52.6868 11.1172 52.7072 11.1391C52.7275 11.1611 52.7524 11.1784 52.78 11.19C52.8631 11.2248 52.9307 11.2889 52.97 11.37C53.0378 11.5168 53.0979 11.667 53.15 11.82C53.15 11.92 53.15 12.04 53.15 12.15C53.15 12.26 53.09 12.31 53.08 12.42C53.059 12.5168 53.0713 12.6178 53.1149 12.7067C53.1584 12.7956 53.2307 12.8672 53.32 12.91C53.4906 12.9859 53.6736 13.03 53.86 13.04C54.1137 13.0537 54.3668 13.0031 54.5958 12.893C54.8248 12.7829 55.0223 12.6167 55.17 12.41C55.2721 12.2562 55.3322 12.0785 55.3445 11.8943C55.3568 11.7101 55.3208 11.526 55.24 11.36C55.1175 11.0409 54.9066 10.7633 54.6322 10.5597C54.3577 10.356 54.0309 10.2348 53.69 10.21C53.41 10.21 53.14 10.33 53.11 10.5C53.11 10.5 53.11 10.5 53.11 10.56C53.0833 10.5186 53.0598 10.4751 53.04 10.43C53.04 10.43 53.04 10.43 53.19 10.54C53.34 10.65 53.36 10.65 53.46 10.68L53.59 10.73C53.433 10.806 53.2689 10.8663 53.1 10.91C52.7 11 52.28 11.08 51.78 11.16L51.15 11.29C50.8101 11.3375 50.4638 11.289 50.15 11.15C49.9228 11.0622 49.705 10.9516 49.5 10.82C49.23 10.67 49.2 10.46 49.09 10.23C48.9485 9.85016 48.8905 9.44427 48.92 9.04C48.9823 8.53554 49.1383 8.04715 49.38 7.6C49.6749 7.10537 50.0702 6.67806 50.5404 6.34564C51.0106 6.01321 51.5453 5.78305 52.11 5.67C52.9748 5.48635 53.8718 5.52072 54.72 5.77C55.064 5.8707 55.3986 6.0012 55.72 6.16C56.0531 6.31758 56.3655 6.51575 56.65 6.75C58.65 8.13 59.95 10.31 59.65 12.41L59.62 12.43Z" fill="currentColor"/>
<path d="M87.71 23.27C86.947 23.9479 86.0072 24.3952 85 24.56L84.59 24.61C84.4902 24.62 84.3897 24.62 84.29 24.61C84.11 24.61 83.95 24.61 83.73 24.61C83.2622 24.5638 82.802 24.4597 82.36 24.3C82.18 24.23 81.98 24.15 81.76 24.04C81.5363 23.9335 81.3251 23.8027 81.13 23.65C80.6364 23.2849 80.2645 22.7794 80.0629 22.1996C79.8613 21.6197 79.8394 20.9925 80 20.4C80.1039 19.9672 80.2725 19.5525 80.5 19.17C80.8562 18.5788 81.2681 18.0229 81.73 17.51C82.1 17.09 82.39 16.65 82.73 16.21C82.9028 15.8664 83.1462 15.5631 83.4443 15.3201C83.7425 15.0771 84.0886 14.8999 84.46 14.8C84.79 14.73 85.03 15.42 85.33 16.1C85.63 16.78 86.05 17.45 85.98 17.67C85.6912 18.5515 85.2363 19.3695 84.64 20.08C84.45 20.26 84.42 20.49 84.47 20.54H84.16C83.99 20.5539 83.8222 20.5875 83.66 20.64C83.5409 20.6614 83.4282 20.7093 83.33 20.78C83.4678 20.6014 83.5605 20.3921 83.6 20.17C83.6339 20.0252 83.6573 19.8782 83.67 19.73H83.75H83.9C83.85 19.36 83.97 20.24 83.96 20.15V20.2C83.96 20.2 83.96 20.15 83.96 20.12C83.9265 20.0584 83.8964 19.995 83.87 19.93C84.0996 19.8646 84.2983 19.7191 84.43 19.52C84.5775 19.3423 84.6866 19.1358 84.7503 18.9138C84.814 18.6918 84.8309 18.4589 84.8 18.23C84.8 18.15 84.72 18.14 84.67 18.12C84.62 18.1 84.62 18.12 84.59 18.12C84.6324 18.1011 84.6726 18.0776 84.71 18.05C84.92 17.91 84.86 17.87 84.79 18.05V18.18C84.7605 18.2642 84.7404 18.3514 84.73 18.44C84.73 19.21 84.63 18.08 84.38 17.02L84.19 16.27C84.0831 15.8789 84.066 15.4687 84.14 15.07C84.1771 14.8421 84.2443 14.6201 84.34 14.41C84.4185 14.2183 84.5643 14.0618 84.75 13.97C85.0446 13.8244 85.363 13.7329 85.69 13.7C85.8683 13.6685 86.0489 13.6518 86.23 13.65C86.4451 13.6659 86.6589 13.696 86.87 13.74C87.3158 13.8257 87.7343 14.0178 88.09 14.3C88.4766 14.5554 88.8151 14.877 89.09 15.25C89.9101 16.4068 90.2374 17.842 90 19.24C89.7575 20.8108 89.0056 22.2584 87.86 23.36L87.71 23.27Z" fill="currentColor"/>
</svg>
