<svg width="96" height="96" viewBox="0 0 96 96" fill="none" xmlns="http://www.w3.org/2000/svg">
<path d="M12.67 39.08C13.2 42.45 15 45.91 17 46.53C18.0668 46.8427 19.1856 46.9379 20.29 46.81C22.7172 46.6294 25.1089 46.1215 27.4 45.3C29.8675 44.4505 32.2877 43.469 34.65 42.36C36.78 41.36 38.84 40.22 40.92 39.09C42.26 38.36 43.59 37.59 45.05 36.95C45.804 36.61 46.5872 36.3389 47.39 36.14C47.8277 36.0295 48.2789 35.9823 48.73 36C49.2972 36.0016 49.8584 36.1172 50.38 36.34C51.12 36.67 51.11 37.11 50.93 37.34C50.75 37.57 50.28 37.78 49.93 38.15C49.5532 38.6197 49.2186 39.1216 48.93 39.65C48.5177 40.2382 47.9547 40.7045 47.3 41C44.82 42.2 42.17 43.8 39.45 45.23C36.6758 46.7445 33.7948 48.0546 30.83 49.15C29.01 49.79 27.17 50.53 25.23 51.15C23.1977 51.8872 21.0609 52.2956 18.9 52.36C17.5745 52.3727 16.2562 52.1632 15 51.74C14.3304 51.5069 13.6896 51.1982 13.09 50.82C12.5037 50.4289 11.9636 49.9727 11.48 49.46C9.84731 47.6313 8.65668 45.4519 7.99999 43.09C7.19911 40.387 6.88755 37.5626 7.07999 34.75C7.35111 30.4859 8.9807 26.4207 11.73 23.15C12.7796 21.9085 13.9485 20.7731 15.22 19.76C16.4958 18.7729 17.8777 17.931 19.34 17.25C19.9714 16.9418 20.619 16.6681 21.28 16.43C23.79 15.64 24.71 15.92 25.42 16.91C25.6022 17.1237 25.763 17.3548 25.9 17.6C26.27 18.42 25.42 19.29 23.9 20.01C21.6984 20.9806 19.6367 22.2419 17.77 23.76C16.9153 24.4988 16.1349 25.3193 15.44 26.21C14.7771 27.0936 14.2168 28.0498 13.77 29.06C12.4297 32.2146 12.0809 35.7024 12.77 39.06L12.67 39.08Z" fill="currentColor"/>
<path d="M71.52 50.22C72.8089 50.531 74.1357 50.6556 75.46 50.59C76.1039 50.5618 76.7435 50.4713 77.37 50.32C78.0263 50.1484 78.6656 49.9174 79.28 49.63C80.145 49.1942 80.9486 48.6462 81.67 48C84.32 45.78 85.51 41.85 85.04 38C84.8214 36.291 84.282 34.6387 83.45 33.13C82.4589 31.1365 80.8863 29.4907 78.94 28.41C78.32 28.1 78.41 28.02 79.06 28.05C80.1732 28.1322 81.2455 28.5045 82.17 29.13C84.2974 30.6095 85.923 32.7026 86.83 35.13C87.8045 37.5762 88.0915 40.2424 87.66 42.84C87.3799 44.4448 86.8785 46.003 86.17 47.47C85.4247 48.9724 84.3839 50.3091 83.11 51.4C81.7161 52.5555 80.1187 53.4406 78.4 54.01C76.6768 54.5597 74.8634 54.7702 73.06 54.63C70.9164 54.4661 68.818 53.9279 66.86 53.04C63.9849 51.7206 61.3727 49.891 59.15 47.64C57.4151 46.0045 55.8071 44.2394 54.34 42.36C54.0205 41.945 53.7266 41.5108 53.46 41.06C53.0951 40.4478 52.8603 39.767 52.77 39.06C52.78 38.5977 52.9417 38.1515 53.23 37.79C53.3312 37.6193 53.4484 37.4585 53.58 37.31C53.8 37.1 54.1 37.11 54.58 37.26C55.1362 37.4383 55.636 37.7589 56.03 38.19C56.38 38.55 56.7 38.93 57.08 39.27C57.4401 39.6007 57.7744 39.9584 58.08 40.34C58.69 41.1 59.4 41.78 60.08 42.51C60.76 43.24 61.47 43.86 62.13 44.57C62.79 45.28 63.48 46 64.26 46.5C66.3642 48.2685 68.86 49.5095 71.54 50.12L71.52 50.22Z" fill="currentColor"/>
<path d="M21 15.49C23.2852 14.9104 25.649 14.7044 28 14.88C30.2961 15.0898 32.546 15.6531 34.67 16.55C36.7428 17.4035 38.6959 18.5229 40.48 19.88C42.2258 21.1956 43.8101 22.7127 45.2 24.4C45.93 25.23 46.56 26.14 47.2 27.02L48.83 29.39C49.89 30.99 51.05 32.5 52.17 34.05C54.4524 37.0717 56.9064 39.9598 59.52 42.7C61.4012 44.6383 63.4454 46.4114 65.63 48C67.656 49.5086 69.9161 50.6742 72.32 51.45C72.8123 51.5975 73.3132 51.7144 73.82 51.8L74.57 51.92H75.3C75.7794 51.9549 76.2606 51.9549 76.74 51.92C77.2029 51.8464 77.6605 51.7428 78.11 51.61C79.0378 51.3325 79.9059 50.8849 80.67 50.29C81.5013 49.6873 82.2334 48.9585 82.84 48.13C84.1554 46.4024 85.08 44.4099 85.55 42.29C85.6657 41.7799 85.7426 41.2617 85.78 40.74C85.78 40.19 85.84 39.63 85.78 39.09C85.7445 38.0226 85.5731 36.9641 85.27 35.94C84.6785 33.9289 83.4371 32.1705 81.74 30.94C79.9136 29.6676 77.8139 28.8421 75.61 28.53C75.04 28.44 74.46 28.4 73.89 28.33L72.14 28.27L70.38 28.35C69.83 28.44 69.29 28.46 68.74 28.6C66.4473 29.1655 64.2433 30.0438 62.19 31.21C60.2823 32.2464 58.448 33.4125 56.7 34.7C54.92 35.97 53.22 37.36 51.55 38.79C48.2561 41.6578 45.1497 44.7342 42.25 48C38.5202 52.1958 35.1233 56.6761 32.09 61.4C30.5641 63.7325 29.1719 66.1497 27.92 68.64C27.3 69.88 26.73 71.14 26.23 72.43C26.01 73.08 25.67 73.69 25.44 74.34L25.06 75.34L24.75 76.34C24.25 77.98 24.09 78.73 23.91 78.67C23.6188 77.874 23.4995 77.0254 23.56 76.18C23.4451 74.0022 23.6678 71.8197 24.22 69.71C25.0085 66.7367 26.1676 63.8742 27.67 61.19C29.1034 58.569 30.7103 56.0467 32.48 53.64C34.2333 51.22 36.0733 48.8867 38 46.64C41.8613 42.0721 46.1068 37.8433 50.69 34C53.0089 32.0611 55.4507 30.2741 58 28.65C60.6573 26.945 63.529 25.5999 66.54 24.65C68.1672 24.1847 69.8479 23.9326 71.54 23.9C72.33 23.84 73.15 23.9 73.95 23.9C74.75 23.9 75.58 24.03 76.39 24.16C79.7817 24.6278 82.966 26.0654 85.56 28.3C87.1328 29.732 88.3749 31.4894 89.2 33.45C89.9659 35.3762 90.3693 37.4273 90.39 39.5V41C90.3664 41.5226 90.313 42.0435 90.23 42.56C90.0731 43.5772 89.8357 44.5804 89.52 45.56C88.8881 47.5038 87.9606 49.3386 86.77 51C85.5359 52.751 83.9569 54.2313 82.13 55.35C80.2179 56.4854 78.0522 57.1248 75.83 57.21C73.7191 57.2662 71.6162 56.9271 69.63 56.21C67.7617 55.5411 65.974 54.6657 64.3 53.6C60.8489 51.3109 57.6773 48.626 54.85 45.6C52.067 42.6742 49.4687 39.5783 47.07 36.33L45.28 33.92L43.57 31.46L42.71 30.24L41.91 29.14C41.66 28.77 41.35 28.44 41.06 28.09C40.7788 27.7403 40.4783 27.4064 40.16 27.09C38.9201 25.7679 37.5231 24.6026 36 23.62C34.5238 22.6281 32.9144 21.8504 31.22 21.31C29.1746 20.6349 27.0206 20.3499 24.87 20.47C22.7137 20.6096 20.6081 21.1845 18.68 22.16C14.734 24.16 11.7394 27.6399 10.35 31.84C9.85026 33.4304 9.57757 35.0834 9.54 36.75C9.55421 38.4196 9.8171 40.0778 10.32 41.67C10.8341 43.2731 11.6041 44.7826 12.6 46.14C13.4532 47.4969 14.669 48.588 16.11 49.29C18.95 50.62 22.56 50.09 25.8 48.87C29.1274 47.5603 32.3192 45.9293 35.33 44C37.71 42.52 40.03 40.93 42.41 39.38C43.61 38.6 44.82 37.83 46.14 37.13L46.65 36.87C46.83 36.79 46.98 36.7 47.25 36.6C47.724 36.3871 48.216 36.2164 48.72 36.09C49.2018 35.9429 49.7087 35.8963 50.2092 35.953C50.7098 36.0098 51.1934 36.1687 51.63 36.42C52.477 37.0382 53.163 37.8511 53.63 38.79C53.75 38.9895 53.8569 39.1966 53.95 39.41L54.2 39.94L54.63 40.94C55.16 42.33 55.63 43.69 56.01 45.05C56.84 47.75 57.59 50.42 58.43 53.05C59.16 55.37 59.97 57.58 60.87 59.79C61.9944 62.6209 63.3769 65.3424 65 67.92C65.91 69.65 66.54 70.65 67 71.62C67.21 72.07 67.63 72.53 67.76 72.86C67.89 73.19 67.76 73.26 67.34 73.24C66.6781 73.1759 66.0338 72.9894 65.44 72.69C64.3659 72.178 63.3584 71.5365 62.44 70.78C62.17 70.54 61.87 70.31 61.6 70.04L60.82 69.14C60.2755 68.4566 59.7713 67.7421 59.31 67C56.6748 62.5634 54.6086 57.8127 53.16 52.86L50.91 45.69C50.53 44.53 50.14 43.38 49.72 42.36C49.61 42.1 49.51 41.84 49.4 41.63L49.24 41.3C49.2184 41.2675 49.1868 41.243 49.15 41.23C49.15 41.23 49.07 41.23 49.04 41.23C49.01 41.23 49.19 41.23 48.5 41.5C47.5 41.98 46.39 42.63 45.28 43.3C43.06 44.65 40.77 46.13 38.41 47.55C36.0035 49.0218 33.5163 50.3572 30.96 51.55C28.2315 52.8507 25.3381 53.7725 22.36 54.29C19.8991 54.7355 17.3651 54.5427 15 53.73C13.7507 53.2738 12.5851 52.615 11.55 51.78C10.5834 50.9978 9.72578 50.0897 9 49.08C6.06807 45.3577 4.5104 40.7377 4.59 36C4.61586 33.6425 5.05239 31.3076 5.88 29.1C6.66973 26.8871 7.82956 24.8245 9.31 23C12.2757 19.2996 16.3361 16.6323 20.91 15.38L21 15.49Z" fill="currentColor"/>
</svg>
