<svg width="96" height="96" viewBox="0 0 96 96" fill="none" xmlns="http://www.w3.org/2000/svg">
<path d="M15.33 71.35C14.4515 70.5177 13.7537 69.5135 13.28 68.4C12.8498 67.3827 12.554 66.3137 12.4 65.22C12.1551 63.2231 12.209 61.2009 12.56 59.22C12.7639 57.8086 13.0987 56.4193 13.56 55.07C15.2045 50.3112 18.3041 46.1901 22.42 43.29C24.3007 42.0295 26.4218 41.1715 28.65 40.77C29.363 40.6449 30.086 40.5847 30.81 40.59C31.5314 40.6188 32.2499 40.6991 32.96 40.83L34 41C34.33 41.14 34.65 41.31 35 41.47C35.6248 41.7869 36.2263 42.1478 36.8 42.55C37.51 43.04 37.26 43.26 36.43 43.47C36.01 43.58 35.43 43.66 34.83 43.83C34.51 43.92 34.18 44.01 33.83 44.08C33.66 44.08 33.49 44.08 33.32 44.19H32.83C31.721 44.101 30.6052 44.1548 29.51 44.35C28.4344 44.492 27.3821 44.7744 26.38 45.19C25.3447 45.6572 24.3625 46.2338 23.45 46.91C22.5034 47.6482 21.6203 48.4644 20.81 49.35C18.8495 51.7112 17.4785 54.5047 16.81 57.5C16.3671 59.1132 16.0989 60.7694 16.01 62.44C15.9096 64.0242 16.1695 65.6106 16.77 67.08C17.1571 67.908 17.7407 68.6289 18.47 69.18C19.2151 69.8007 20.0746 70.2695 21 70.56C23.83 71.44 27.15 70.56 30 69.13C31.1122 68.5557 32.1728 67.8866 33.17 67.13C33.68 66.75 34.17 66.36 34.66 65.96L36.17 64.83C36.61 64.49 37.02 64.14 37.48 63.83C38.0642 63.3525 38.7185 62.968 39.42 62.69C39.855 62.5736 40.315 62.591 40.74 62.74C40.9167 62.7816 41.0904 62.8351 41.26 62.9C41.49 63.03 41.5 63.3 41.36 63.75C41.1585 64.3698 40.8162 64.9346 40.36 65.4C37.1109 69.4024 32.7571 72.3617 27.84 73.91C25.7502 74.5689 23.5391 74.7501 21.37 74.44C19.0737 74.0814 16.9399 73.0354 15.25 71.44L15.33 71.35Z" fill="currentColor"/>
<path d="M57.51 37.54C56.17 39.64 54.88 41.83 53.57 44.06L49.63 50.73C47.0654 55.3455 44.227 59.8035 41.13 64.08C38.8086 67.3526 35.9954 70.2467 32.79 72.66C29.808 74.8371 26.3421 76.2578 22.69 76.8C20.7114 77.0733 18.6958 76.8428 16.83 76.13C14.9694 75.4102 13.3288 74.2176 12.07 72.67C10.8374 71.1804 9.95258 69.4347 9.47997 67.56C9.26519 66.6672 9.10489 65.7622 8.99998 64.85C8.89998 63.96 8.87998 63.07 8.84998 62.18C8.88851 58.6443 9.56608 55.1446 10.85 51.85C11.9531 48.8837 13.632 46.1649 15.79 43.85C18.0336 41.4447 20.9687 39.7954 24.19 39.13C24.6965 38.9974 25.2166 38.9236 25.74 38.91L27.31 38.8C27.84 38.8 28.31 38.8 28.88 38.87C29.45 38.94 29.88 39.01 30.41 39.11C32.391 39.5297 34.31 40.2018 36.12 41.11C37.8415 41.9677 39.5111 42.926 41.12 43.98C42.74 44.98 44.2 46.15 45.75 47.16C47.65 48.43 47.18 48.83 45.03 48.6C43.5866 48.4142 42.1592 48.1201 40.76 47.72C38.9287 47.1358 37.1381 46.4309 35.4 45.61C33.8416 44.8697 32.2091 44.2965 30.53 43.9L29.34 43.68C28.95 43.68 28.56 43.58 28.17 43.57C27.7869 43.5502 27.4031 43.5502 27.02 43.57L25.89 43.63C25.5135 43.6303 25.1393 43.6876 24.78 43.8C24.42 43.89 24.05 43.93 23.69 44.04C22.9949 44.2808 22.3251 44.5889 21.69 44.96C20.3253 45.7357 19.1124 46.7521 18.11 47.96C15.9724 50.5952 14.4733 53.6892 13.73 57L13.44 58.27L13.26 59.57C13.1 60.44 13.13 61.3 13.04 62.18V63.48V64.13L13.11 64.76C13.17 65.18 13.2 65.63 13.27 66.03C13.3351 66.4187 13.4253 66.8029 13.54 67.18C14.04 69.0063 15.1655 70.5989 16.72 71.68C18.299 72.7586 20.2339 73.185 22.12 72.87C24.2167 72.4803 26.2257 71.7146 28.05 70.61L28.75 70.21L29.41 69.73C29.85 69.4 30.31 69.12 30.73 68.73C31.5868 68.032 32.4047 67.2875 33.18 66.5C34.07 65.66 34.85 64.69 35.67 63.76C36.49 62.83 37.21 61.81 37.92 60.76C39.38 58.76 40.72 56.54 42.01 54.33C43.3 52.12 44.54 49.84 45.81 47.56L49.62 40.74C51.17 37.94 52.76 35.08 54.62 32.36C56.4613 29.5535 58.6447 26.9871 61.12 24.72C65 21.28 70.3 19 75.79 19.64C77.1661 19.8526 78.4975 20.2919 79.73 20.94C81.5278 21.9209 83.0872 23.2862 84.2971 24.9386C85.507 26.591 86.3377 28.4899 86.73 30.5C86.9601 31.5468 87.0508 32.6194 87 33.69C86.9697 34.2262 86.9096 34.7604 86.82 35.29C86.7159 35.7997 86.5857 36.3037 86.43 36.8C85.8886 38.828 84.9317 40.7213 83.62 42.36L82.62 43.55C82.27 43.93 81.86 44.25 81.48 44.6C80.6984 45.2779 79.8696 45.8995 79 46.46C77.2862 47.4992 75.4741 48.3667 73.59 49.05C71.9937 49.655 70.3644 50.1692 68.71 50.59C66.5846 51.1766 64.3944 51.4957 62.19 51.54C61.0754 51.5306 59.9942 51.1585 59.11 50.48C58.7521 50.2381 58.4173 49.9636 58.11 49.66C57.72 49.16 58.11 48.58 59.11 47.94C60.6053 47.063 62.2332 46.4348 63.93 46.08C67.0144 45.3615 70.045 44.4293 73 43.29C75.6313 42.3051 77.9754 40.6794 79.82 38.56L80.34 37.76C80.43 37.63 80.53 37.51 80.61 37.37L80.81 36.93L81.22 36.07C81.34 35.77 81.41 35.44 81.51 35.13C81.7136 34.5557 81.8413 33.9573 81.89 33.35C81.9208 32.7648 81.8873 32.1779 81.79 31.6C81.58 30.3758 81.1154 29.2092 80.4264 28.1757C79.7374 27.1422 78.8393 26.2647 77.79 25.6C77.0611 25.1128 76.2356 24.7888 75.37 24.65C74.9176 24.5728 74.4585 24.5426 74 24.56L72.47 24.7C70.4242 25.0278 68.479 25.8141 66.78 27C64.8874 28.2838 63.2014 29.8484 61.78 31.64C60.2467 33.5411 58.8467 35.5458 57.59 37.64L57.51 37.54Z" fill="currentColor"/>
</svg>
