<svg width="96" height="96" viewBox="0 0 96 96" fill="none" xmlns="http://www.w3.org/2000/svg">
<path d="M30.72 55.35C30.72 55.35 33.72 64.66 28.58 66.88C23.44 69.1 32.7 73.68 36.58 69.65C40.46 65.62 39.26 56.29 36.58 55.35C34.6622 54.8231 32.6378 54.8231 30.72 55.35Z" fill="currentColor"/>
<path d="M27.94 66.91C28.822 67.374 29.7749 67.6883 30.76 67.84C31.4528 67.9775 32.1696 67.9327 32.84 67.71C33.1521 67.5742 33.442 67.3922 33.7 67.17C34.0707 66.8392 34.4058 66.4705 34.7 66.07C35.3502 65.1228 35.8651 64.0895 36.23 63C36.7792 61.2126 37.1149 59.3664 37.23 57.5C37.5394 54.0118 37.3305 50.497 36.61 47.07C35.8642 43.5445 34.7097 40.118 33.17 36.86C31.76 33.9397 29.9786 31.2138 27.87 28.75C27.22 27.94 26.5 27.2 25.79 26.44L23.67 24.15C22.94 23.41 22.24 22.63 21.49 21.89C20.74 21.15 20 20.36 19.25 19.6C18.35 18.6 18.94 18.06 20.42 18.01C22.5979 17.9861 24.7282 18.6473 26.51 19.9C27.51 20.57 28.37 21.31 29.28 22.05C29.7328 22.4247 30.1604 22.829 30.56 23.26C30.97 23.68 31.39 24.09 31.78 24.53C33.3716 26.2687 34.8354 28.1202 36.16 30.07C37.4842 32.0436 38.6479 34.1203 39.64 36.28C40.5764 38.4759 41.3127 40.7518 41.84 43.08C43.07 48.61 44.28 54.49 43.44 60.49C43.0312 63.9333 41.8036 67.2285 39.86 70.1C39.2986 70.8832 38.6549 71.604 37.94 72.25C37.1505 72.9355 36.2557 73.4893 35.29 73.89C34.3346 74.2847 33.3213 74.5211 32.29 74.59C31.3277 74.6774 30.3579 74.6269 29.41 74.44C27.3006 74.0169 25.2935 73.1882 23.5 72C21.7828 70.8743 20.2197 69.5296 18.85 68C17.7967 66.8459 16.8899 65.5662 16.15 64.19C15.3432 62.7262 14.8431 61.1134 14.68 59.45C14.5413 57.7961 14.7456 56.1314 15.28 54.56C15.8904 52.8773 17.031 51.4384 18.53 50.46C19.6442 49.7557 20.8778 49.2609 22.17 49C23.3857 48.7425 24.6279 48.6317 25.87 48.67C28.3433 48.7616 30.7709 49.3642 33 50.44C34.0253 50.892 34.9923 51.4662 35.88 52.15C36.2719 52.4582 36.6427 52.7923 36.99 53.15C37.261 53.4695 37.5147 53.8033 37.75 54.15C38.1133 54.7094 38.352 55.3403 38.45 56C38.499 56.4535 38.4483 56.9122 38.3015 57.344C38.1547 57.7759 37.9152 58.1704 37.6 58.5C37.3751 58.7773 37.1202 59.0288 36.84 59.25C36.4 59.54 35.84 59.38 35.21 59.08L34.08 58.58C33.8729 58.5117 33.6798 58.4067 33.51 58.27C33.32 58.15 33.14 58.02 32.96 57.88C32.37 57.5 31.83 57.07 31.22 56.7C30.5922 56.3249 29.9409 55.9909 29.27 55.7C27.9137 55.1484 26.4799 54.811 25.02 54.7C24.3723 54.6541 23.7216 54.681 23.08 54.78C22.5957 54.8812 22.1367 55.0784 21.73 55.36C21.4608 55.5636 21.2475 55.8319 21.11 56.14C20.9359 56.5359 20.831 56.9587 20.8 57.39C20.8 57.58 20.8 57.82 20.8 58.03C20.8 58.24 20.8 58.52 20.8 58.76C20.8102 58.9362 20.8404 59.1107 20.89 59.28C20.9311 59.4678 20.9879 59.6518 21.06 59.83C21.4399 60.7826 21.9662 61.6699 22.62 62.46C24.0667 64.2802 25.9057 65.7501 28 66.76L27.94 66.91Z" fill="currentColor"/>
<path d="M72.3699 60.11C75.0899 71.25 65.7699 73 65.7699 73C65.7699 73 71.3999 78 74.7699 74.42C78.1399 70.84 78.5599 65.58 77.2999 63.05C76.0399 60.52 72.3699 60.11 72.3699 60.11Z" fill="currentColor"/>
<path d="M66.78 72.9401C67.66 73.4005 68.609 73.7146 69.59 73.8701C70.2862 74.007 71.006 73.9622 71.68 73.7401C71.9877 73.6016 72.2739 73.4197 72.53 73.2001C72.8978 72.8663 73.2327 72.498 73.53 72.1001C74.1809 71.1424 74.6958 70.0992 75.06 69.0001C75.6083 67.2124 75.9439 65.3663 76.06 63.5001C76.3698 60.0118 76.1608 56.497 75.44 53.0701C74.6877 49.5495 73.5335 46.1271 72 42.8701C70.5852 39.9524 68.8042 37.2271 66.7 34.7601C66.05 33.9601 65.33 33.2101 64.62 32.4601L62.5 30.1701C61.77 29.4301 61.07 28.6401 60.33 27.9101C59.59 27.1801 58.87 26.3901 58.12 25.6301C57.22 24.6301 57.82 24.0901 59.29 24.0401C61.4679 24.0162 63.5983 24.6773 65.38 25.9301C66.38 26.6001 67.24 27.3401 68.16 28.0801C68.6097 28.4547 69.034 28.859 69.43 29.2901C69.84 29.7101 70.27 30.1201 70.65 30.5601C72.2334 32.2979 73.6873 34.1496 75 36.1001C76.3205 38.0759 77.484 40.1523 78.48 42.3101C79.4102 44.5073 80.1431 46.7829 80.67 49.1101C81.91 54.6401 83.12 60.5201 82.28 66.5201C81.861 69.9624 80.6306 73.2561 78.69 76.1301C78.1375 76.9143 77.4966 77.6324 76.78 78.2701C75.2119 79.6498 73.2336 80.4755 71.15 80.6201C70.1877 80.7074 69.2179 80.6569 68.27 80.4701C66.1494 80.037 64.1324 79.1983 62.33 78.0001C60.614 76.8767 59.0539 75.5318 57.69 74.0001C56.6365 72.863 55.7325 71.5961 55 70.2301C54.1772 68.7797 53.6732 67.1705 53.5215 65.51C53.3697 63.8494 53.5737 62.1755 54.12 60.6001C54.7336 58.9191 55.8735 57.4812 57.37 56.5001C58.4826 55.8039 59.7127 55.3159 61 55.0601C62.219 54.8021 63.4646 54.6913 64.71 54.7301C67.1697 54.8174 69.5857 55.4061 71.81 56.4601C72.8356 56.9216 73.8052 57.4987 74.7 58.1801C75.0888 58.4882 75.4563 58.8223 75.8 59.1801C76.1 59.5301 76.34 59.8901 76.56 60.1801C76.9232 60.7304 77.1684 61.3501 77.28 62.0001C77.3298 62.4551 77.2796 62.9155 77.1327 63.3491C76.9859 63.7827 76.7461 64.1789 76.43 64.5101C76.2077 64.7897 75.9525 65.0415 75.67 65.2601C75.23 65.5501 74.67 65.3801 74.04 65.09L72.91 64.59C72.7039 64.5194 72.5112 64.4146 72.34 64.2801C72.15 64.1601 71.98 64.0301 71.79 63.8901C71.2 63.5001 70.66 63.0801 70.05 62.7101C69.4084 62.3288 68.7399 61.9946 68.05 61.7101C66.6937 61.1584 65.2599 60.821 63.8 60.7101C63.1557 60.6643 62.5083 60.6912 61.87 60.7901C61.3821 60.8894 60.9194 61.0867 60.51 61.3701C60.2476 61.5804 60.0358 61.847 59.89 62.1501C59.7139 62.5447 59.6122 62.9685 59.59 63.4001C59.59 63.5901 59.59 63.8301 59.59 64.0401C59.59 64.2501 59.59 64.53 59.59 64.7701C59.6002 64.9462 59.6304 65.1207 59.68 65.2901C59.7271 65.4762 59.7839 65.6598 59.85 65.84C60.2338 66.7907 60.7598 67.6775 61.41 68.4701C62.8581 70.2807 64.6884 71.749 66.77 72.7701L66.78 72.9401Z" fill="currentColor"/>
</svg>
