<svg width="96" height="96" viewBox="0 0 96 96" fill="none" xmlns="http://www.w3.org/2000/svg">
<path d="M21.93 62.6C17.8951 67.2601 14.2401 72.236 11 77.48C9.00001 80.81 14.21 83.83 16.18 80.48C19.1413 75.6688 22.4855 71.104 26.18 66.83C28.63 63.88 24.41 59.61 21.94 62.58L21.93 62.6Z" fill="currentColor"/>
<path d="M42.36 42.79C38.23 46.16 34.24 49.69 30.43 53.41C27.67 56.12 31.91 60.41 34.68 57.66C38.48 53.93 42.47 50.4 46.6 47C49.6 44.56 45.32 40.33 42.36 42.76V42.79Z" fill="currentColor"/>
<path d="M61.17 28.76C58.17 30.65 55.17 32.67 52.33 34.76C51.6053 35.2136 51.0815 35.9272 50.8658 36.7545C50.6502 37.5818 50.759 38.4603 51.17 39.21C51.99 40.6 54.17 41.41 55.62 40.37C58.49 38.27 61.43 36.25 64.45 34.37C67.99 32.16 64.73 26.53 61.17 28.76Z" fill="currentColor"/>
<path d="M50.47 25C56.106 22.2572 62.2171 20.6242 68.47 20.19C70.7117 20.0075 72.9615 19.9441 75.21 20C76.72 20 78.78 20.66 80.21 20.39L80.7 20.49C81.87 20.85 81.44 20.25 79.43 18.69C79.2615 19.5089 79.1412 20.337 79.07 21.17C78.585 23.3702 77.9842 25.5432 77.27 27.68C75.9 32.06 74.16 36.39 73.21 40.89C72.4 44.65 78.21 46.26 78.99 42.48C80.3 36.33 82.99 30.48 84.47 24.41C85.29 21.14 86.81 16.24 82.69 14.8C78.57 13.36 73.23 13.85 69.12 14.14C61.5853 14.5786 54.2126 16.5093 47.43 19.82C43.98 21.55 47.01 26.72 50.43 25H50.47Z" fill="currentColor"/>
</svg>
