<svg width="96" height="96" viewBox="0 0 96 96" fill="none" xmlns="http://www.w3.org/2000/svg">
<path d="M48.0278 48.1932L42.9278 51.8032L37.9278 55.5232C36.7278 56.4532 35.6478 57.5232 34.4278 58.4532C30.1578 61.7132 25.8778 65.0032 21.7778 68.4532C19.9278 70.0432 18.2278 71.7432 16.5678 73.4232C14.5439 75.6718 12.3435 77.7551 9.98779 79.6532C9.21779 80.2032 8.42779 79.3832 8.11779 78.0032C7.96074 77.2176 7.96074 76.4088 8.11779 75.6232C8.24501 74.7655 8.59306 73.9557 9.12779 73.2732C10.1278 72.0532 11.2178 70.8932 12.2778 69.7232C13.3378 68.5532 14.5278 67.5132 15.6778 66.4432C18.005 64.2978 20.4451 62.2783 22.9878 60.3932C26.0478 58.1432 28.7478 55.2632 31.6978 52.7532C33.3078 51.3732 34.9578 50.0232 36.6178 48.6832C38.2778 47.3432 39.9378 46.0132 41.6178 44.6832C43.6678 43.0732 45.7978 41.5232 47.9278 39.9232C51.0878 37.5232 54.3878 35.2532 57.5578 32.8632C58.7578 31.8632 59.9978 30.9732 61.1778 29.9732C61.7778 29.4832 62.3578 28.9732 62.9678 28.4932L64.8678 27.0932C65.4378 26.6832 65.9578 26.2232 66.5478 25.8532C67.3502 25.2923 68.3089 24.9984 69.2878 25.0132C69.6708 25.0797 70.0357 25.2251 70.3594 25.4403C70.683 25.6555 70.9583 25.9358 71.1678 26.2632C71.4577 26.5826 71.7314 26.9163 71.9878 27.2632C72.7278 28.4932 72.3178 30.0632 71.0778 31.2632C70.0778 32.0332 69.1378 32.9632 68.1278 33.7832C67.6178 34.2032 67.1278 34.5932 66.5878 35.0032C66.0478 35.4132 65.5878 35.8632 65.0278 36.2732C64.4678 36.6832 63.9278 37.1432 63.3678 37.5232C62.8078 37.9032 62.2678 38.3032 61.7078 38.7132C60.5978 39.5132 59.4578 40.2932 58.3178 41.0732C56.6378 42.2732 54.9411 43.4599 53.2278 44.6332L48.1378 48.3232L48.0278 48.1932Z" fill="currentColor"/>
<path d="M81.6278 43.9932C82.7478 39.4632 89.6278 21.4632 86.9378 17.0532C85.0478 13.9332 45.6178 18.5232 47.4478 20.7632C50.7878 24.8632 55.6178 27.2132 59.9678 30.0432C64.6978 33.1232 69.1078 36.5532 73.5878 39.9832C74.3178 40.5232 81.2278 45.6232 81.6278 43.9932Z" fill="currentColor"/>
</svg>
