<svg width="96" height="96" viewBox="0 0 96 96" fill="none" xmlns="http://www.w3.org/2000/svg">
<path d="M62.17 16C59.7069 14.7774 57.0796 13.9184 54.37 13.45C53.37 13.31 52.37 13.31 51.37 13.26C47.7335 12.9836 44.0781 13.4219 40.61 14.55C39.0619 15.1015 37.5795 15.8226 36.19 16.7C35.76 16.99 35.31 17.26 34.86 17.53L33.55 18.42C32.65 18.97 31.78 19.58 30.8 20.06C30.19 20.35 29.73 19.71 29.66 18.7C29.6067 18.0888 29.6874 17.4733 29.8964 16.8965C30.1054 16.3196 30.4376 15.7953 30.87 15.36C31.7587 14.5571 32.7008 13.8154 33.69 13.14C34.716 12.5061 35.7778 11.9318 36.87 11.42C39.0995 10.4326 41.4553 9.75956 43.87 9.41999C46.7688 8.8731 49.7101 8.58198 52.66 8.54999C55.8952 8.69765 59.0918 9.31407 62.15 10.38C64.013 11.0419 65.819 11.8546 67.55 12.81C70.1204 14.2855 72.5301 16.0249 74.74 18C76.5733 19.4912 78.2488 21.1666 79.74 23C80.1151 23.4103 80.45 23.8557 80.74 24.33C80.9325 24.7253 81.0672 25.1463 81.14 25.58C81.1721 25.9181 81.1311 26.2591 81.02 26.58C80.8219 27.0817 80.4633 27.5037 80 27.78C79.7878 27.935 79.5675 28.0785 79.34 28.21C78.6 28.54 77.66 28.04 76.53 27.38C76.26 27.07 75.84 26.82 75.61 26.5C75.38 26.18 75.04 25.89 74.79 25.58L73.93 24.67L73.04 23.77C71.8038 22.5254 70.4877 21.3629 69.1 20.29C66.9689 18.633 64.6454 17.2395 62.18 16.14L62.17 16Z" fill="currentColor"/>
<path d="M86.9999 27.58C86.7869 28.9972 86.1648 30.3214 85.2099 31.39C84.6781 31.954 84.0521 32.421 83.3599 32.77C82.7276 33.0786 82.0539 33.2942 81.3599 33.41C80.5148 33.5825 79.6512 33.6463 78.7899 33.6C77.4633 33.4511 76.1561 33.1629 74.8899 32.74C73.6599 32.36 72.4699 31.93 71.3099 31.45C70.1499 30.97 69.2299 30.67 68.2099 30.24C66.8291 29.8024 65.5621 29.0648 64.4999 28.08C64.1699 27.74 64.6099 27.27 65.2599 26.93C65.5807 26.7314 65.9375 26.5983 66.31 26.5382C66.6824 26.4781 67.063 26.4923 67.4299 26.58C69.7999 27.52 72.3299 28.21 74.8199 29.07C76.3093 29.4822 77.8623 29.6145 79.3999 29.46C80.034 29.4491 80.6569 29.2917 81.2199 29C81.4362 28.8782 81.6292 28.7191 81.7899 28.53C81.969 28.3003 82.1232 28.0522 82.2499 27.79C82.613 26.9026 82.7834 25.9482 82.7499 24.99C82.7277 23.3209 82.4959 21.6613 82.0599 20.05C81.7699 18.76 81.1399 17.59 80.8199 16.3C80.7499 16.01 80.6599 15.73 80.6199 15.44C80.4499 14.33 80.5699 13.91 80.9799 13.52C81.0648 13.4282 81.155 13.3414 81.2499 13.26C81.5599 13.05 82.0299 13.36 82.6199 14.01L83.9299 15.5C84.335 16.0241 84.693 16.583 84.9999 17.17C85.7436 18.3097 86.2881 19.5677 86.6099 20.89C87.1969 23.0721 87.3598 25.3465 87.0899 27.59L86.9999 27.58Z" fill="currentColor"/>
<path d="M20.68 50.53C20.6448 53.2528 21.0882 55.9606 21.99 58.53C22.383 59.4442 22.827 60.3356 23.32 61.2C24.1167 62.8036 25.1001 64.3074 26.25 65.68C26.8324 66.3776 27.4499 67.0451 28.1 67.68C28.79 68.29 29.46 68.93 30.21 69.47C31.5379 70.4619 32.9819 71.288 34.51 71.93C35 72.13 35.51 72.36 35.96 72.57C36.41 72.78 36.96 72.95 37.45 73.16C38.4506 73.5598 39.4288 74.0138 40.38 74.52C40.97 74.87 40.69 75.6 39.89 76.22C39.4098 76.6054 38.8521 76.8826 38.255 77.0327C37.6579 77.1829 37.0354 77.2024 36.43 77.09C35.2632 76.8053 34.1172 76.4411 33 76C31.8844 75.5154 30.802 74.9575 29.76 74.33C27.6464 73.0587 25.7351 71.4778 24.09 69.64C21.9974 67.4715 20.1527 65.0767 18.59 62.5C17.0647 59.5597 16.0663 56.3749 15.64 53.09C15.4053 51.0989 15.3551 49.0904 15.49 47.09C15.7252 44.0949 16.2989 41.136 17.2 38.27C17.7794 35.9884 18.5522 33.7603 19.51 31.61C19.7247 31.1142 19.9719 30.6332 20.25 30.17C20.5118 29.8277 20.8178 29.5217 21.16 29.26C21.4397 29.082 21.7528 28.963 22.08 28.91C22.6427 28.828 23.2167 28.9371 23.71 29.22C23.9523 29.3217 24.1863 29.4421 24.41 29.58C25.07 30.05 25.11 31.12 25.01 32.48L24.82 33.13C24.7821 33.3481 24.7148 33.56 24.62 33.76C24.44 34.14 24.3 34.55 24.13 34.95C23.81 35.75 23.51 36.56 23.21 37.39C22.5949 39.061 22.0806 40.7674 21.67 42.5C21.0276 45.1162 20.7417 47.8072 20.82 50.5L20.68 50.53Z" fill="currentColor"/>
<path d="M21.17 23.36C22.6178 22.7783 24.2088 22.6527 25.73 23C27.2763 23.4389 28.6205 24.4046 29.53 25.73C30.0708 26.4647 30.5302 27.256 30.9 28.09C31.4061 29.4565 31.7746 30.8702 32 32.31C32.24 33.69 32.42 35.06 32.52 36.43C32.62 37.64 32.76 38.85 32.82 40.06C33.0328 41.6753 32.8119 43.3182 32.18 44.82C31.93 45.3 31.37 44.97 30.86 44.42C30.2812 43.8969 29.8999 43.1908 29.78 42.42C29.6141 39.6125 29.2802 36.8175 28.78 34.05C28.4493 32.3743 27.8119 30.7741 26.9 29.33C26.5796 28.6855 26.1182 28.1216 25.55 27.68C25.0473 27.3537 24.4428 27.2221 23.85 27.31C22.801 27.4562 21.7954 27.8244 20.9 28.39C19.3257 29.3386 17.869 30.4697 16.56 31.76C15.48 32.76 14.69 33.96 13.61 34.96C13.37 35.18 13.15 35.41 12.89 35.61C11.89 36.37 11.44 36.48 10.89 36.3C10.7654 36.2704 10.6447 36.2268 10.53 36.17C10.21 35.99 10.31 35.42 10.65 34.55L11.43 32.55C11.7178 31.9002 12.052 31.2719 12.43 30.67C13.15 29.3895 14.0566 28.2234 15.12 27.21C16.8575 25.5197 18.8914 24.1638 21.12 23.21L21.17 23.36Z" fill="currentColor"/>
<path d="M71.57 69.37C74.0944 67.9526 76.3299 66.0733 78.16 63.83C78.7872 62.9648 79.3681 62.0669 79.9 61.14C81.9811 57.8436 83.3093 54.1286 83.79 50.26C83.895 49.384 83.9451 48.5022 83.94 47.62C83.94 46.74 83.85 45.86 83.77 44.99C83.51 42.74 83.06 40.54 82.92 38.21C82.92 37.48 83.68 37.35 84.63 37.75C85.1803 37.99 85.6819 38.329 86.11 38.75C86.6249 39.2141 86.9991 39.8135 87.19 40.48C87.36 41.1 87.54 41.71 87.69 42.33C87.84 42.95 87.95 43.59 88.04 44.23C88.13 44.87 88.15 45.51 88.19 46.15C88.2248 46.7962 88.2248 47.4438 88.19 48.09C88.197 50.6964 87.7955 53.2879 87 55.77C86.1415 58.8369 84.9511 61.8011 83.45 64.61C81.609 67.6073 79.2369 70.2438 76.45 72.39C74.7478 73.6952 72.9026 74.8023 70.95 75.69C69.4835 76.3693 67.9654 76.9311 66.41 77.37C64.86 77.7915 63.2875 78.1253 61.7 78.37C59.236 78.8204 56.7346 79.0347 54.23 79.01C53.6683 79.0168 53.1068 78.9834 52.55 78.91C52.1169 78.8038 51.695 78.6564 51.29 78.47C50.8933 78.2271 50.5662 77.8859 50.3402 77.4795C50.1141 77.073 49.997 76.615 50 76.15C49.9803 75.8837 49.9803 75.6163 50 75.35C50.0436 75.137 50.1345 74.9365 50.2661 74.7634C50.3976 74.5903 50.5664 74.449 50.76 74.35C51.2992 74.0121 51.8856 73.7559 52.5 73.59C53.4473 73.4572 54.4034 73.3971 55.36 73.41C56.29 73.41 57.22 73.35 58.14 73.27C60.0051 73.1521 61.8577 72.8846 63.68 72.47C65.0406 72.1422 66.3771 71.7212 67.68 71.21C68.9927 70.6717 70.2573 70.0227 71.46 69.27L71.57 69.37Z" fill="currentColor"/>
<path d="M47.6599 83.51C46.7057 82.935 45.8456 82.2166 45.1099 81.38C44.2378 80.4193 43.6162 79.2583 43.2999 78C43.0535 77.0152 43.0535 75.9848 43.2999 75C43.742 73.6371 44.5031 72.3995 45.5199 71.39C46.36 70.5049 47.2516 69.6701 48.1899 68.89L50.5499 66.89C51.4934 65.9378 52.6146 65.1802 53.8499 64.66C54.2599 64.52 54.5399 65.09 54.6099 65.81C54.6756 66.176 54.6622 66.5518 54.5708 66.9123C54.4794 67.2727 54.312 67.6095 54.0799 67.9C52.2699 69.59 50.5499 71.35 48.8299 73.02C48.3355 73.5034 47.9383 74.0771 47.6599 74.71C47.4456 75.186 47.3234 75.6984 47.2999 76.22C47.2788 76.7051 47.4195 77.1835 47.6999 77.58C48.086 78.1135 48.5436 78.5913 49.0599 79C49.8293 79.6299 50.6681 80.1701 51.5599 80.61C52.9862 81.3241 54.4717 81.913 55.9999 82.37C57.1899 82.79 58.4499 82.86 59.6499 83.28C59.9199 83.38 60.1799 83.46 60.4399 83.58C61.4399 84.05 61.6799 84.4 61.7399 84.95C61.7399 85.08 61.7399 85.21 61.7399 85.32C61.7399 85.69 61.2199 85.89 60.4199 86.03L58.5899 86.33C57.9761 86.4032 57.3575 86.4266 56.7399 86.4C55.4825 86.4347 54.2274 86.2727 53.0199 85.92C51.1167 85.3636 49.2845 84.5884 47.5599 83.61L47.6599 83.51Z" fill="currentColor"/>
</svg>
