<svg width="96" height="96" viewBox="0 0 96 96" fill="none" xmlns="http://www.w3.org/2000/svg">
<path d="M20.21 53L19.58 52.18C19.3243 51.8629 19.0905 51.5288 18.88 51.18C18.4777 50.5045 18.1428 49.791 17.88 49.05C17.7365 48.2856 17.7511 47.4999 17.9231 46.7414C18.0951 45.9829 18.4208 45.2677 18.88 44.64C19.3503 43.9802 19.8755 43.3613 20.45 42.79C20.72 42.52 20.86 42.4 21.06 42.21L21.63 41.72C22.39 41.08 23.14 40.51 23.9 39.96C26.9 37.8 29.9 35.96 32.9 34.08C35.07 32.72 37.13 31.24 39.22 29.88C41.07 28.67 42.89 27.44 44.53 26.14C44.94 25.82 45.33 25.49 45.7 25.14L46.24 24.64L46.6 24.29C46.906 24.0346 47.1144 23.6813 47.19 23.29C47.19 22.84 46.79 22.59 46.42 22.4L46.27 22.32L46.06 22.22L45.36 21.91C44.91 21.7 44.36 21.5 43.9 21.3C41.9 20.51 39.79 19.81 37.66 19.2C33.8803 18.1334 30.0213 17.3709 26.12 16.92C23.64 16.62 21.12 16.33 18.66 16.15L14.91 15.89C14.2828 15.8674 13.6579 15.8005 13.04 15.69C12.41 15.61 11.78 15.56 11.15 15.49C9.57002 15.3 9.72002 14.9 11.02 14.11C11.9111 13.5704 12.8364 13.0894 13.79 12.67C15.1017 12.1695 16.487 11.8891 17.89 11.84C20.5941 11.732 23.3023 11.7855 26 12C28.6863 12.2799 31.3564 12.6971 34 13.25C36.6397 13.7801 39.2499 14.4477 41.82 15.25C43.11 15.66 44.4 16.1 45.68 16.61L46.68 16.99L47.68 17.43C48.5929 17.8444 49.484 18.305 50.35 18.81C51.4423 19.4522 52.2501 20.4851 52.61 21.7C52.9027 22.9409 52.732 24.2461 52.13 25.37C51.8049 25.9473 51.4266 26.493 51 27C50.8 27.26 50.57 27.53 50.36 27.77L49.87 28.29C49.23 28.95 48.58 29.54 47.93 30.1C45.409 32.226 42.7608 34.1963 40 36L31.1 41.79C29.65 42.79 28.22 43.73 26.89 44.79C26.22 45.3 25.58 45.79 25 46.35L24.6 46.71L24.39 46.91C24.2527 47.0542 24.1257 47.2079 24.01 47.37C23.8506 47.567 23.772 47.8172 23.79 48.07C23.8731 48.3043 23.9875 48.5263 24.13 48.73L24.34 49.02L24.51 49.25L24.74 49.52C25.08 49.87 25.38 50.24 25.74 50.58C27.2203 51.9786 28.8347 53.228 30.56 54.31C36.0391 57.6807 41.8918 60.4023 48 62.42C52.7395 63.9385 57.5688 65.1609 62.46 66.08C63.53 66.3 64.6 66.45 65.67 66.69C67.0837 67.069 68.4322 67.6589 69.67 68.44C70.3629 68.9862 70.8752 69.7284 71.14 70.57C71.2791 70.9121 71.396 71.2628 71.49 71.62C71.56 72.17 71.15 72.54 70.29 72.86C69.106 73.2867 67.8448 73.4571 66.59 73.36L64.84 73.28H63.97L63.11 73.14C61.97 72.94 60.83 72.72 59.68 72.47C57.4 71.98 55.11 71.39 52.82 70.72C48.1652 69.3448 43.6027 67.6748 39.16 65.72C35.7572 64.2487 32.4565 62.5516 29.28 60.64C27.6347 59.643 26.0486 58.5511 24.53 57.37C22.9022 56.1241 21.4076 54.7133 20.07 53.16L20.21 53Z" fill="currentColor"/>
<path d="M78 75.3C78.82 75.0133 79.63 74.68 80.43 74.3L80.74 74.17L80.89 74.1H80.95H81.09C81.2023 74.0891 81.313 74.0656 81.42 74.03C81.5369 74.0056 81.6509 73.9687 81.76 73.92C81.8165 73.9078 81.8684 73.8801 81.91 73.84C81.91 73.84 81.91 73.74 81.91 73.7C81.8456 73.6262 81.7949 73.5415 81.76 73.45C81.7095 73.2741 81.6425 73.1033 81.56 72.94C81.56 72.94 81.51 72.83 81.48 72.78L81.36 72.62L81.19 72.4L80.51 71.55L77.7 68.1C76.86 67.1 75.91 66.17 74.97 65.24C74.3176 64.6837 73.7366 64.0489 73.24 63.35C72.7355 62.6028 72.2908 61.8171 71.91 61C71.7 60.44 72.15 60.28 72.91 60.27C73.3316 60.2689 73.7528 60.299 74.17 60.36C74.6679 60.3982 75.157 60.5128 75.62 60.7C76.0167 60.8597 76.3955 61.0608 76.75 61.3L77.75 62.08C78.39 62.6 79.04 63.14 79.67 63.7C80.9778 64.8131 82.1796 66.0451 83.26 67.38C83.5718 67.8038 83.9056 68.211 84.26 68.6L84.82 69.17L85.72 70.04C86.3447 70.6552 86.9292 71.3099 87.47 72C87.9423 72.5876 88.2833 73.2696 88.47 74C88.5106 74.2986 88.5106 74.6014 88.47 74.9C88.4236 75.2091 88.2759 75.494 88.05 75.71L87.51 76.42C87.27 76.64 86.96 76.85 86.69 77.07C85.75 77.66 84.69 78.18 83.79 78.7L83.21 78.97L82.72 79.2C82.4 79.35 82.06 79.49 81.72 79.63C80.35 80.23 78.94 80.72 77.54 81.21C75.3975 81.9019 73.2131 82.4564 71 82.87C69.2398 83.3171 67.4528 83.6511 65.65 83.87C65.2337 83.895 64.8163 83.895 64.4 83.87C64.1103 83.885 63.8206 83.8404 63.5488 83.7389C63.277 83.6374 63.029 83.4812 62.82 83.28C62.5116 82.8226 62.3966 82.2618 62.5 81.72C62.5092 81.3851 62.5393 81.0511 62.59 80.72C62.6558 80.2449 62.8625 79.8005 63.1834 79.444C63.5042 79.0875 63.9245 78.8353 64.39 78.72C65.68 78.42 66.88 78.26 68.15 77.98C69.42 77.7 70.71 77.48 72.03 77.13C74.0546 76.6288 76.0399 75.9804 77.97 75.19L78 75.3Z" fill="currentColor"/>
</svg>
