<svg width="96" height="96" viewBox="0 0 96 96" fill="none" xmlns="http://www.w3.org/2000/svg">
<path d="M55.16 74.34C55.16 74.34 57.47 87.05 58.54 87.34C60.7 87.82 66.83 85.51 67.7 84.43C68.8 83 65.61 71.07 65.88 71C68.19 70 73.88 66.18 74.88 63.92C76.12 61.14 53.88 33.42 48.34 32.92C44.76 32.61 41.2 71.27 42.4 74.82C43.1 76.84 55.37 74.12 55.16 74.34Z" fill="currentColor"/>
<path d="M21.23 24.46C20.92 24.55 20.9 24.08 21.02 23.31C21.1011 22.9515 21.2504 22.612 21.46 22.31C21.6603 22.1796 21.871 22.0658 22.09 21.97C22.21 21.92 23.75 22.1 24.31 22.14C24.8216 22.1868 25.3218 22.3186 25.79 22.53C26.7572 22.8942 27.6936 23.3356 28.59 23.85C28.788 23.9774 28.9609 24.1401 29.1 24.33C29.5792 24.9674 30.1853 25.4986 30.88 25.89C31 25.95 31.08 26.06 31.28 26.02C31.48 25.98 33.28 27.37 33.38 27.67C33.67 28.44 33.92 29.09 34.18 29.79C34.18 29.89 34.32 29.94 34.24 30.12C34.06 30.54 34.24 30.66 34.34 30.85C34.4698 31.1323 34.5574 31.4322 34.6 31.74C34.5901 31.9449 34.5497 32.1471 34.48 32.34C34.48 32.52 34.01 32.74 33.94 32.74C33.87 32.74 33.61 32.94 33.45 33.06C33.3982 33.1093 33.3412 33.1529 33.28 33.19C32.6021 33.0767 31.9335 32.913 31.28 32.7L30.99 32.5L30.34 32.08C29.84 31.81 29.34 31.51 29.24 31.45C29.14 31.39 29.11 31.24 29.06 31.11C29.01 30.98 27.59 30.22 27.54 30.18C27.3 29.94 26.94 29.85 26.89 29.35C26.89 29.25 26.81 29.22 26.75 29.19C26.2492 28.8393 25.7837 28.4408 25.36 28C25.12 27.81 24.86 27.65 24.61 27.47C24.5675 27.423 24.5337 27.3688 24.51 27.31C24.4776 27.2373 24.4299 27.1725 24.37 27.12C23.7837 26.688 23.1576 26.313 22.5 26C22.34 25.95 21.79 25.2 21.58 25.15C21.37 25.1 21.36 24.43 21.23 24.46Z" fill="currentColor"/>
<path d="M42.3 9.72002C42.02 9.61002 42.36 9.28002 43 8.78002C43.3027 8.56267 43.6411 8.4002 44 8.30002C44.2482 8.32288 44.493 8.37318 44.73 8.45002C44.86 8.50002 45.88 9.61002 46.27 9.98002C46.6054 10.3123 46.8558 10.7205 47 11.17C47.32 12.04 47.67 12.88 47.95 13.75C48.017 13.9461 48.0342 14.1557 48 14.36C47.9227 15.0629 48.0332 15.7737 48.32 16.42C48.32 16.53 48.32 16.65 48.55 16.72C48.9932 17.3985 49.2326 18.1897 49.24 19C49.02 19.67 48.74 20.33 48.51 21C48.51 21.1 48.51 21.18 48.35 21.28C47.92 21.51 48 21.69 47.95 21.89C47.8235 22.1744 47.6695 22.4457 47.49 22.7C47.3359 22.8143 47.1719 22.9147 47 23C46.8002 23.0752 46.5799 23.0752 46.38 23C46.24 22.89 46.02 23 45.84 23C45.7768 23.005 45.7133 23.005 45.65 23C45.59 23 45.26 22.66 44.83 22.34C44.5046 22.1587 44.219 21.9139 43.99 21.62C43.9501 21.5138 43.9033 21.4102 43.85 21.31L43.54 20.65C43.4118 20.4295 43.295 20.2025 43.19 19.97C43.1519 19.8293 43.1017 19.6921 43.04 19.56C42.98 19.45 43.04 19.32 43.13 19.2C43.22 19.08 42.58 17.66 42.57 17.6C42.57 17.27 42.37 16.98 42.69 16.6C42.7098 16.5704 42.7204 16.5356 42.7204 16.5C42.7204 16.4644 42.7098 16.4296 42.69 16.4C42.5724 15.8381 42.5254 15.2636 42.55 14.69C42.5069 14.4058 42.4434 14.1251 42.36 13.85C42.36 13.85 42.36 13.73 42.36 13.67C42.3787 13.6013 42.3787 13.5288 42.36 13.46C42.2552 12.7804 42.0912 12.1112 41.87 11.46C41.87 11.32 42.03 10.46 41.93 10.32C41.83 10.18 42.41 9.77002 42.3 9.72002Z" fill="currentColor"/>
<path d="M58.58 24.22C58.73 24.55 58.19 24.6 57.27 24.55C56.8467 24.4992 56.4364 24.3704 56.06 24.17C55.874 23.9605 55.7099 23.7327 55.57 23.49C55.49 23.34 55.57 21.59 55.49 20.98C55.4747 20.4195 55.5593 19.8608 55.74 19.33C56.029 18.2694 56.4001 17.233 56.85 16.23C56.9505 16.0055 57.097 15.8045 57.28 15.64C57.89 15.0469 58.3494 14.3166 58.62 13.51C58.67 13.38 58.76 13.27 58.62 13.07C58.8101 12.1324 59.2293 11.2564 59.84 10.52C60.52 10.05 61.09 9.52001 61.74 9.06001C61.83 8.99001 61.83 8.86001 62.07 8.90001C62.213 8.95119 62.3696 8.94902 62.5111 8.8939C62.6526 8.83878 62.7694 8.73441 62.84 8.60001C63.0864 8.3432 63.3824 8.13908 63.71 8.00001C63.9605 7.94592 64.2196 7.94592 64.47 8.00001C64.72 8.00001 65.24 8.59001 65.27 8.68001C65.37 8.94001 65.71 9.09001 65.95 9.29001L66.21 9.50001C66.291 9.87442 66.3279 10.257 66.32 10.64C66.3715 11.0149 66.3715 11.3951 66.32 11.77L66.15 12.12L65.8 12.87C65.56 13.45 65.31 14.05 65.28 14.19C65.25 14.33 65.08 14.4 64.95 14.48C64.82 14.56 64.28 16.34 64.24 16.41C64.01 16.73 63.97 17.15 63.41 17.31C63.3 17.31 63.29 17.42 63.26 17.49C62.957 18.1132 62.5846 18.7002 62.15 19.24C61.976 19.5413 61.8256 19.8555 61.7 20.18C61.7 20.24 61.59 20.27 61.53 20.32C61.47 20.37 61.38 20.43 61.35 20.5C60.8925 21.1921 60.5072 21.9293 60.2 22.7C60.14 22.88 59.34 23.54 59.31 23.76C59.28 23.98 58.52 24.09 58.58 24.22Z" fill="currentColor"/>
</svg>
