<svg width="96" height="96" viewBox="0 0 96 96" fill="none" xmlns="http://www.w3.org/2000/svg">
<path d="M30.66 59.58C30.2 57.21 29.61 54.86 28.94 52.52C28.67 51.67 28.25 50.88 28 50.02C27.5 48.53 27.14 47.02 26.65 45.46C26.16 43.9 25.65 42.46 25.13 40.92C24.6005 39.6095 23.9824 38.3365 23.28 37.11L22.6 35.94C22.39 35.54 22.2 35.13 22.01 34.71C21.6299 33.8711 21.3448 32.9923 21.16 32.09C21.05 31.5 21.8 31.17 22.82 31.15C23.9567 31.0859 25.0733 31.4701 25.93 32.22C26.25 32.59 26.55 32.95 26.85 33.33C27.1245 33.7176 27.375 34.1217 27.6 34.54C28.07 35.35 28.52 36.19 28.93 37.04C29.7697 38.7548 30.4622 40.5379 31 42.37C31.62 44.59 32.9 46.63 33.63 48.87C34.49 51.3 35.17 53.81 35.81 56.31C36.18 57.86 36.55 59.41 36.86 60.96C37.39 63.31 37.69 65.71 38.2 68.03C38.54 69.85 39.3 71.58 39.57 73.41C39.6764 73.8003 39.7533 74.1981 39.8 74.6C39.8396 74.9321 39.8396 75.2678 39.8 75.6C39.7503 75.8475 39.6443 76.0802 39.49 76.28C39.137 76.6791 38.6688 76.9587 38.15 77.08C37.8751 77.1852 37.5947 77.2753 37.31 77.35C36.8039 77.4074 36.2923 77.309 35.8438 77.0677C35.3952 76.8264 35.031 76.4539 34.8 76C34.44 75.25 34.11 74.49 33.8 73.74C33.64 73.36 33.48 72.98 33.34 72.6C33.2 72.22 33.13 71.83 33.01 71.44C32.81 70.66 32.65 69.88 32.5 69.09C32.35 68.3 32.17 67.52 32.03 66.72C31.54 64.38 31.15 61.99 30.54 59.65L30.66 59.58Z" fill="currentColor"/>
<path d="M60.8 57C61.49 54.55 62.33 52.13 63.15 49.72C63.48 48.85 63.64 47.93 63.98 47.07C64.6163 45.5541 65.3306 44.0721 66.12 42.63C66.86 41.17 67.68 39.75 68.43 38.32C69.16 37.08 69.69 35.74 70.31 34.47C70.9697 32.737 71.9926 31.1651 73.31 29.86C73.74 29.45 74.41 29.92 74.98 30.77C75.6529 31.659 75.9605 32.7716 75.84 33.88C75.3449 35.5943 74.6747 37.253 73.84 38.83C73.07 40.43 72.28 42.01 71.36 43.56C70.27 45.44 69.85 47.65 69.11 49.71C68.29 51.97 67.57 54.28 66.88 56.61C66.5 58.06 66.09 59.5 65.78 60.98C65.2434 63.2012 64.836 65.4516 64.56 67.72C64.38 69.48 64.66 71.27 64.56 73.02C64.56 73.4 64.56 73.79 64.56 74.18C64.5257 74.483 64.4586 74.7814 64.36 75.07C64.2592 75.2942 64.1087 75.4926 63.92 75.65C63.4901 75.9595 62.9792 76.1368 62.45 76.16C62.15 76.16 61.86 76.26 61.57 76.27C61.0646 76.2397 60.5815 76.0516 60.1887 75.7323C59.7958 75.413 59.513 74.9785 59.38 74.49C59.17 73.67 58.99 72.84 58.86 72.01C58.7933 71.59 58.7333 71.17 58.68 70.75C58.65 70.3339 58.65 69.9161 58.68 69.5C58.7418 67.8249 58.9054 66.1552 59.17 64.5C59.55 62 60.11 59.5 60.71 57H60.8Z" fill="currentColor"/>
<path d="M72.68 16.42C74.0874 15.9982 75.5354 15.7267 77 15.61C77.4 15.61 77.8 15.61 78.23 15.61C78.688 15.613 79.1455 15.643 79.6 15.7C80.6505 15.8563 81.6658 16.1947 82.6 16.7C83.9443 17.4683 84.9455 18.7198 85.4 20.2C85.5689 20.7081 85.6927 21.2301 85.77 21.76C85.83 22.21 85.88 22.64 85.93 23.08C86 23.95 86.04 24.79 86.05 25.63C86.05 27.29 86.05 28.91 85.94 30.51C85.88 31.93 85.94 33.35 85.88 34.75C85.88 35.65 85.88 36.55 85.82 37.46C85.7153 38.381 85.4831 39.2829 85.13 40.14C84.9 40.69 84.24 40.49 83.55 39.94C82.7363 39.3514 82.1445 38.506 81.87 37.54C81.65 34.11 81.37 30.67 81.37 27.26C81.3594 26.2433 81.2046 25.2332 80.91 24.26C80.7741 23.8037 80.6105 23.3562 80.42 22.92C80.32 22.66 80.32 22.62 80.28 22.53C80.24 22.44 80.28 22.36 80.19 22.27C80.1177 22.0654 79.9808 21.8899 79.8 21.77C79.6076 21.6336 79.3842 21.5477 79.15 21.52C78.2004 21.4791 77.2506 21.5974 76.34 21.87C74.9952 22.214 73.6782 22.6586 72.4 23.2C70.3734 24.0244 68.4394 25.0601 66.63 26.29C65.3125 27.3356 64.0664 28.4681 62.9 29.68C62.64 29.93 62.42 30.22 62.15 30.46C61.15 31.32 60.61 31.29 59.4 30.46C59.12 30.28 58.83 30.11 58.57 29.91C58.1419 29.5884 57.852 29.1161 57.7591 28.5887C57.6663 28.0614 57.7774 27.5185 58.07 27.07C59.8055 24.0163 62.3258 21.4821 65.37 19.73C67.6644 18.3336 70.0933 17.1711 72.62 16.26L72.68 16.42Z" fill="currentColor"/>
<path d="M22.23 23.13C21.5304 22.7459 20.7888 22.4439 20.02 22.23C19.8064 22.1747 19.5892 22.1346 19.37 22.11C19.23 22.11 19.14 22.05 19.02 22.11C18.9 22.17 18.94 22.19 18.88 22.22C18.82 22.25 18.73 22.5 18.65 22.63C18.4876 22.9725 18.3073 23.3063 18.11 23.63C16.5217 26.2373 15.2558 29.0277 14.34 31.94C13.9312 33.2453 13.6368 34.5837 13.46 35.94C13.34 36.81 13.28 37.68 13.19 38.54C13.0629 39.3889 12.8893 40.2301 12.67 41.06C12.53 41.58 11.85 41.6 11.07 41.14C10.6003 40.8656 10.1943 40.4947 9.87886 40.0516C9.56337 39.6086 9.34561 39.1035 9.23998 38.57C9.09498 34.7071 9.71345 30.8535 11.06 27.23C11.94 25.08 12.24 22.69 13.37 20.32L13.93 19.32C14.2155 18.8794 14.5511 18.4734 14.93 18.11C15.6629 17.3673 16.5707 16.8205 17.57 16.52C19.2108 16.0781 20.9422 16.1023 22.57 16.59C24.2456 17.0877 25.8416 17.8217 27.31 18.77C29.3811 20.1212 31.3407 21.636 33.17 23.3C34.6691 24.4715 36.092 25.7374 37.43 27.09C37.7397 27.385 38.0271 27.7025 38.29 28.04C39.21 29.34 39.11 30.04 38.04 31.04C37.8114 31.2757 37.5675 31.4962 37.31 31.7C36.9028 31.9997 36.4105 32.1614 35.905 32.1614C35.3994 32.1614 34.9071 31.9997 34.5 31.7L30.8 29.15C29.55 28.36 28.53 27.34 27.36 26.48C25.7833 25.182 24.0456 24.093 22.19 23.24L22.23 23.13Z" fill="currentColor"/>
</svg>
