<svg width="96" height="96" viewBox="0 0 96 96" fill="none" xmlns="http://www.w3.org/2000/svg">
<path d="M63.37 65.33C59.9234 69.1909 55.8702 72.4638 51.37 75.02C50.54 75.46 49.73 75.94 48.92 76.4C48.095 76.86 47.2435 77.2707 46.37 77.63C43.3165 78.7776 40.1533 79.6087 36.93 80.11C33.7686 80.6351 30.5627 80.8428 27.36 80.73C24.5403 80.6735 21.7274 80.4297 18.94 80C17.1516 79.748 15.3906 79.3295 13.68 78.75C11.9866 78.1111 10.3726 77.2789 8.87 76.27C7.94 75.64 8.28 75.35 9.35 75.2C10.0363 75.109 10.7277 75.0623 11.42 75.06C12.3173 74.9608 13.2227 74.9608 14.12 75.06C14.55 75.06 14.97 75.12 15.38 75.18C15.79 75.24 16.19 75.35 16.61 75.4C17.44 75.49 18.25 75.62 19.08 75.7C19.91 75.78 20.73 75.83 21.56 75.87C22.39 75.91 23.22 75.93 24.05 75.87C25.71 75.87 27.37 75.8 29.05 75.68C30.73 75.56 32.4 75.55 34.05 75.39C36.0935 75.1839 38.1066 74.7444 40.05 74.08C41.9801 73.3994 43.8641 72.5944 45.69 71.67C49.7253 69.6041 53.3832 66.8724 56.51 63.59C57.4831 62.5738 58.4043 61.5091 59.27 60.4C59.7 59.84 60.16 59.3 60.56 58.72L61.77 57C64.1193 53.4145 65.8845 49.4789 67 45.34C67.7308 42.168 68.0301 38.912 67.89 35.66C67.95 34.96 67.8 34.27 67.82 33.56C67.84 32.85 67.88 32.36 67.92 31.91C67.986 31.5001 68.1213 31.1045 68.32 30.74C68.6416 30.1369 69.1315 29.6401 69.73 29.31C69.9948 29.1296 70.2684 28.9627 70.55 28.81C71 28.61 71.44 28.81 71.93 29.25C72.5883 29.9339 73.1138 30.7342 73.48 31.61C73.7 32.42 73.85 33.24 74.03 34.08L74.27 35.35L74.4 36.63C74.5001 37.4895 74.5402 38.3549 74.52 39.22C74.52 40.08 74.43 40.95 74.36 41.83C74.29 42.71 74.13 43.56 74.01 44.44C73.8701 45.3021 73.6865 46.1565 73.46 47C73.26 47.86 72.97 48.7 72.72 49.55C72.47 50.4 72.08 51.2 71.72 52.03C69.7028 56.8986 66.9285 61.4177 63.5 65.42L63.37 65.33Z" fill="currentColor"/>
<path d="M73.46 21.72C72.8149 21.1146 72.0477 20.6543 71.21 20.37C70.5448 20.1727 69.8293 20.2371 69.21 20.55C68.5943 20.9491 68.0415 21.4378 67.57 22C66.4199 23.1067 65.4303 24.369 64.63 25.75C63.69 27.24 62.81 28.81 61.99 30.4C61.2929 31.8269 60.7045 33.3045 60.23 34.82L59.32 37.68C59.0337 38.5706 58.6999 39.4452 58.32 40.3C58.13 40.61 57.23 40.88 56.32 40.18C55.8168 39.7769 55.4185 39.2581 55.1591 38.6678C54.8996 38.0775 54.7867 37.4333 54.83 36.79C54.9968 35.6884 55.2238 34.5968 55.51 33.52C55.83 32.4733 56.19 31.4433 56.59 30.43C57.384 28.3888 58.3683 26.4268 59.53 24.57C60.23 23.45 60.85 22.25 61.53 21C61.8875 20.3108 62.2848 19.643 62.72 19C62.9475 18.6784 63.1947 18.3712 63.46 18.08C63.7178 17.7722 64.0022 17.4878 64.31 17.23C65.7283 15.9092 67.5068 15.0392 69.42 14.73C71.3346 14.4979 73.2732 14.887 74.95 15.84C76.6895 16.8341 78.2482 18.1155 79.56 19.63C81.3737 21.754 83.0219 24.0139 84.49 26.39C85.65 28.16 87.01 29.78 88.16 31.58C88.4247 31.9695 88.6556 32.381 88.85 32.81C89.53 34.43 89.33 35.15 88.14 35.98C87.8811 36.1792 87.6106 36.3628 87.33 36.53C86.8452 36.7576 86.2975 36.8143 85.7763 36.6908C85.2551 36.5674 84.7911 36.271 84.46 35.85C83.8158 35.2245 83.2144 34.5563 82.66 33.85C82.13 33.14 81.66 32.41 81.12 31.68C80.12 30.22 79.17 28.68 78.17 27.3C76.856 25.2799 75.2599 23.4581 73.43 21.89L73.46 21.72Z" fill="currentColor"/>
</svg>
