<svg width="96" height="96" viewBox="0 0 96 96" fill="none" xmlns="http://www.w3.org/2000/svg">
<path d="M35.48 62.91C37.8502 63.8174 40.3724 64.2621 42.91 64.22C45.6885 64.1928 48.4554 63.8574 51.16 63.22C53.16 62.75 55.16 62.03 57.16 61.37C60.6 60.27 64.42 58.68 68.58 57.84C70.7203 57.3769 72.9149 57.2153 75.1 57.36C77.3505 57.5522 79.5315 58.2349 81.49 59.36C83.2513 60.345 84.7874 61.687 86 63.3C87.1921 64.8753 88.0094 66.7015 88.39 68.64C88.8716 71.0139 88.7711 73.4691 88.0971 75.7957C87.4232 78.1223 86.1958 80.2511 84.52 82C83.52 83.05 83.22 82.46 83.37 81.15C83.47 80.51 83.56 79.63 83.72 78.69C83.72 78.2 83.85 77.69 83.92 77.19C83.99 76.69 84.09 76.19 84.16 75.6C84.506 73.783 84.506 71.917 84.16 70.1C83.8227 68.4754 83.0079 66.9885 81.82 65.83C80.6082 64.7024 79.1047 63.9368 77.48 63.62C77.0685 63.5175 76.651 63.4406 76.23 63.39C75.8 63.39 75.38 63.3 74.93 63.26C74.0051 63.1794 73.0749 63.1794 72.15 63.26C69.6321 63.5334 67.1742 64.2086 64.87 65.26C63.64 65.77 62.36 66.33 60.99 66.86C59.62 67.39 58.29 67.86 56.9 68.3C53.8364 69.2476 50.6987 69.9367 47.52 70.36C44.2394 70.8129 40.9097 70.7759 37.64 70.25C33.4224 69.6126 29.519 67.6434 26.5 64.63C24.35 62.3558 22.6923 59.6625 21.6307 56.7184C20.5691 53.7744 20.1263 50.643 20.33 47.52C20.4399 45.2035 20.714 42.8977 21.15 40.62C21.5966 38.3693 22.215 36.1562 23 34C23.3192 33.0534 23.7208 32.1366 24.2 31.26C26.09 28.03 27.2 27.31 28.6 27.26C28.916 27.2302 29.234 27.2302 29.55 27.26C30.5 27.45 30.37 29.08 29.7 31.56C29.43 32.47 29.21 33.4 28.98 34.32C28.75 35.24 28.43 36.1 28.22 37C27.7208 38.7475 27.3136 40.5199 27 42.31C26.7207 44.0395 26.5769 45.7881 26.57 47.54C26.6051 49.1921 26.8027 50.8367 27.16 52.45C27.25 53.04 27.5 53.58 27.64 54.16C27.78 54.74 28.09 55.24 28.29 55.8C28.49 56.36 28.86 56.8 29.13 57.37C29.4 57.94 29.8 58.3 30.13 58.79C31.5185 60.6041 33.39 61.9904 35.53 62.79L35.48 62.91Z" fill="currentColor"/>
<path d="M21.71 15.39C24.23 13.39 27.78 10.68 32.55 10.95C34.2083 11.0472 35.8134 11.5707 37.21 12.47C39.207 13.9245 40.8453 15.8159 42 18C43.0512 19.9229 43.9409 21.9298 44.66 24C45.34 25.75 46.1 27.45 46.86 29.09C47.86 31.18 48.75 33.29 49.54 35.35C49.78 35.99 49.19 36.35 48.17 36.35C47.5146 36.2896 46.8781 36.0972 46.299 35.7844C45.7198 35.4717 45.2099 35.045 44.8 34.53C44.42 34.01 44.06 33.49 43.72 32.97L43.2 32.19L42.77 31.38C42.21 30.31 41.68 29.24 41.17 28.18C40.17 26.05 39.17 23.97 38.33 21.92C37.4544 19.6663 35.7819 17.8124 33.63 16.71C32.6471 16.2702 31.537 16.2062 30.51 16.53C29.2084 16.9382 27.9822 17.5563 26.88 18.36C25.3104 19.456 23.8261 20.6695 22.44 21.99C20.2686 23.9895 18.2869 26.1855 16.52 28.55C15.2481 30.4263 14.1183 32.3952 13.14 34.44C12.9 34.88 12.71 35.33 12.45 35.76C12.2614 36.1107 12.0439 36.4452 11.8 36.76C11.604 36.9701 11.3741 37.1459 11.12 37.28C10.6296 37.4994 10.0782 37.5419 9.55999 37.4C9.27346 37.3607 8.9896 37.3039 8.70999 37.23C7.84999 36.96 7.51999 35.88 7.82999 34.39C8.15962 33.3022 8.55024 32.2339 8.99999 31.19C9.46554 30.1644 9.98288 29.1631 10.55 28.19C11.7055 26.2418 13.0059 24.3833 14.44 22.63C16.6072 19.9468 19.0211 17.4727 21.65 15.24L21.71 15.39Z" fill="currentColor"/>
</svg>
