<svg width="96" height="96" viewBox="0 0 96 96" fill="none" xmlns="http://www.w3.org/2000/svg">
<path d="M42.49 84.09C44.79 68.83 44.26 53.04 45.07 37.65C45.29 33.47 38.79 33.48 38.57 37.65C37.79 52.44 38.43 67.7 36.23 82.36C35.61 86.46 41.87 88.22 42.49 84.09Z" fill="currentColor"/>
<path d="M56.5 83.23C56.64 69.08 56.5 55.04 58.71 41.02C59.34 36.92 53.08 35.16 52.44 39.29C50.17 53.91 50.14 68.47 50 83.23C50 87.41 56.46 87.41 56.5 83.23Z" fill="currentColor"/>
<path d="M26 46.09C29.121 39.9148 32.8494 34.066 37.13 28.63C40.42 24.5 47.51 15.36 53.73 16.28C54.13 16.34 54.22 16.4 55.04 17.12C56.027 18.047 56.909 19.0799 57.67 20.2C59.5405 22.8526 61.2118 25.6402 62.67 28.54C65.7194 34.0221 68.071 39.8641 69.67 45.93C70.67 50.32 77.44 48.46 76.42 44.07C74.65 36.51 71.07 29.07 67.28 22.35C64.62 17.64 60.58 9.9 54.45 9.35C46.74 8.61 39.45 15.41 34.79 20.64C28.9526 27.2916 23.9829 34.6571 20 42.56C17.94 46.56 24 50.1 26 46.09Z" fill="currentColor"/>
</svg>
