<svg width="96" height="96" viewBox="0 0 96 96" fill="none" xmlns="http://www.w3.org/2000/svg">
<path d="M31.16 79.89C29.2158 79.2659 27.3261 78.4832 25.51 77.55C23.7254 76.5995 22.0229 75.5024 20.42 74.27C18.8047 73.0761 17.3018 71.7372 15.93 70.27C14.5488 68.8152 13.2974 67.2426 12.19 65.57C11.3905 64.3412 10.6594 63.0693 9.99999 61.76C9.30787 60.4769 8.72256 59.1391 8.24999 57.76C6.60698 52.85 6.14783 47.6212 6.90999 42.5C7.6613 37.406 9.69878 32.5876 12.83 28.5C13.18 28.06 13.49 27.59 13.83 27.16L15 25.94C15.7339 25.0827 16.5366 24.2867 17.4 23.56C19.0901 22.0992 20.9112 20.797 22.84 19.67C25.3368 18.1429 28.0762 17.0539 30.94 16.45C31.6825 16.3075 32.4346 16.2205 33.19 16.19C33.9605 16.1435 34.7337 16.1669 35.5 16.26C36.2737 16.3401 37.0336 16.5217 37.76 16.8L38.83 17.28C39.1808 17.4337 39.5157 17.6212 39.83 17.84C41.45 18.94 40.59 19.53 38.93 20.03C38.53 20.13 38.05 20.31 37.56 20.49L36.81 20.75L36 21.1C34.9359 21.4955 33.8381 21.7934 32.72 21.99C28.45 22.76 23.99 25.44 20.52 28.64C20.06 29.01 19.67 29.46 19.24 29.87C18.81 30.28 18.37 30.7 18 31.16C17.23 32.0601 16.5185 33.0087 15.87 34C14.5069 36.032 13.4395 38.2475 12.7 40.58C12.4704 41.2931 12.2768 42.0174 12.12 42.75C12 43.49 11.89 44.25 11.77 45C11.65 45.75 11.77 46.53 11.7 47.3C11.63 48.07 11.79 48.84 11.83 49.61C12.1829 52.7151 13.0021 55.7492 14.26 58.61C17.0431 65.0045 22.0637 70.1638 28.38 73.12C32.2622 74.9572 36.5157 75.8743 40.81 75.8C47.3848 75.7026 53.7207 73.3196 58.73 69.06C60.6505 67.4292 62.3483 65.5532 63.78 63.48C64.52 62.48 65.15 61.38 65.78 60.32C66.41 59.26 67 58.13 67.54 57C67.79 56.51 68.03 56 68.26 55.52C68.49 55.04 68.69 54.52 68.93 54.01C69.39 53.09 69.73 52.3 70.07 51.67C70.3556 51.1304 70.6904 50.6182 71.07 50.14C71.3796 49.7952 71.7446 49.5045 72.15 49.28C72.5543 49.1016 72.9768 48.9675 73.41 48.88C73.79 48.79 74.16 48.62 74.41 48.58C74.88 48.58 75.12 48.96 75.41 49.94C75.6088 50.5008 75.6905 51.0964 75.65 51.69C75.6265 52.4424 75.4918 53.1871 75.25 53.9C75.08 54.5 74.91 55.1 74.72 55.7C74.53 56.3 74.29 56.89 74.08 57.49C73.67 58.7 73.08 59.86 72.58 61.05C71.3683 63.4033 69.9316 65.6337 68.29 67.71C64.8837 72.0777 60.5402 75.625 55.58 78.09C51.7994 79.9345 47.7041 81.0474 43.51 81.37C39.3343 81.6752 35.138 81.2108 31.13 80L31.16 79.89Z" fill="currentColor"/>
<path d="M79.75 41.24C79.4243 40.5872 78.9801 40.0005 78.44 39.51C78.0667 39.2092 77.6267 39.0024 77.1569 38.9067C76.6871 38.811 76.2013 38.8292 75.74 38.96C75.41 39.07 75.08 39.12 74.74 39.22C73.3663 39.5356 72.0266 39.9844 70.74 40.56C69.3626 41.1346 68.0262 41.8029 66.74 42.56C65.5832 43.2712 64.4712 44.0527 63.41 44.9C62.0361 46.0236 60.536 46.9834 58.94 47.76C58.41 47.99 58.09 47.44 58.02 46.6C57.9063 45.6018 58.1586 44.5963 58.73 43.77C61.0661 40.8397 64.0559 38.4971 67.46 36.93L70.65 35.35C71.7802 34.7632 72.9749 34.3102 74.21 34C75.7811 33.5961 77.4289 33.5961 79 34C80.5465 34.4572 81.9328 35.341 83 36.55C84.1523 37.8629 85.063 39.3695 85.69 41C86.5331 43.2661 87.1462 45.6112 87.52 48C87.89 49.77 88.52 51.47 88.82 53.23C88.82 53.62 88.95 54 88.96 54.39C88.96 55.86 88.64 56.34 87.51 56.72C87.2615 56.82 87.0078 56.9068 86.75 56.98C86.2965 57.0349 85.8378 56.9329 85.4503 56.6909C85.0627 56.449 84.7697 56.0816 84.62 55.65C84.27 54.92 83.9 54.19 83.57 53.46C83.24 52.73 83.09 51.99 82.88 51.26C82.45 49.79 82.07 48.32 81.64 46.93C81.29 45.93 81.08 44.87 80.75 43.93C80.4777 43.0439 80.1053 42.1917 79.64 41.39L79.75 41.24Z" fill="currentColor"/>
</svg>
