<svg width="96" height="96" viewBox="0 0 96 96" fill="none" xmlns="http://www.w3.org/2000/svg">
<path d="M26.42 70.93C26.4249 70.9665 26.4249 71.0035 26.42 71.04V71.12C26.42 71.12 26.42 71.22 26.53 71.24C26.64 71.26 26.6 71.24 26.66 71.24C26.8864 71.3201 27.1335 71.3201 27.36 71.24C27.44 71.19 27.48 71.13 27.46 71.06C27.44 70.99 27.29 70.9 27.46 70.78C27.7821 70.6607 28.1182 70.5834 28.46 70.55C28.94 70.55 29.46 70.6 29.52 70.84C29.5732 71.0391 29.5865 71.2468 29.5591 71.451C29.5316 71.6553 29.4639 71.852 29.36 72.03C29.1985 72.3669 28.9269 72.6385 28.59 72.8C28.21 72.96 27.99 73.27 27.59 73.42C27.1765 73.5931 26.724 73.6518 26.28 73.59C26.0341 73.5517 25.7928 73.4881 25.56 73.4C25.23 73.28 24.98 73.09 24.68 73C24.4042 72.9695 24.1258 72.9695 23.85 73C23.79 73 23.7 73 23.66 73C23.62 73 23.56 72.68 24.05 72L24.35 71.58C24.6217 71.2099 24.9374 70.8741 25.29 70.58C25.87 70.21 26 70.37 26.16 70.47C26.2495 70.5548 26.3151 70.6617 26.35 70.78L26.42 70.93Z" fill="currentColor"/>
<path d="M19.57 80.09C19.7476 80.1306 19.9282 80.1573 20.11 80.17C20.17 80.17 20.21 80.17 20.28 80.17C20.4926 80.1918 20.7074 80.1679 20.91 80.1C20.9502 80.0811 20.9855 80.0533 21.0133 80.0186C21.041 79.9839 21.0604 79.9434 21.07 79.9C21.12 79.79 21.07 79.66 21.26 79.62C21.5301 79.6863 21.7893 79.7906 22.03 79.93C22.36 80.11 22.66 80.37 22.6 80.5C22.5065 80.7347 22.3544 80.9415 22.1584 81.1008C21.9624 81.26 21.7288 81.3665 21.48 81.41C21.2289 81.4875 20.9819 81.5776 20.74 81.68C20.4804 81.7358 20.2155 81.7626 19.95 81.76H19.5C19.2838 81.74 19.0662 81.74 18.85 81.76C18.69 81.76 18.53 81.93 18.37 81.94H18.27C18.15 81.94 18.11 81.8 18.08 81.42V81.17C18.0601 80.9421 18.1051 80.7133 18.21 80.51C18.36 80.35 18.5 80.13 18.63 80.1C18.7486 80.0511 18.8729 80.0175 19 80C19.19 80 19.38 80 19.56 80L19.57 80.09Z" fill="currentColor"/>
<path d="M30.08 74.58C29.8579 74.8181 29.5977 75.0175 29.31 75.17L28.88 75.4L28.4 75.54L27.93 75.67H27.51C27.2339 75.6948 26.9561 75.6948 26.68 75.67C26.2735 75.6881 25.8665 75.6511 25.47 75.56C24.7824 75.3338 24.177 74.9094 23.73 74.34C23.2582 73.7902 22.9529 73.1172 22.85 72.4C22.7335 71.7093 22.8683 70.9998 23.23 70.4C23.4114 70.0345 23.7002 69.7333 24.0577 69.5367C24.4151 69.3401 24.8242 69.2575 25.23 69.3C25.46 69.3 25.53 69.96 25.56 70.61C25.59 71.26 25.61 71.9 25.56 71.98C25.51 72.06 25.56 72.04 25.56 72.05L25.41 72L25.32 71.9L25.21 71.84C25.15 71.84 25.27 71.84 25.3 71.84C25.33 71.84 25.75 71.75 25.62 71.84C25.5966 71.9386 25.5966 72.0414 25.62 72.14C25.634 72.2225 25.6703 72.2997 25.7249 72.3631C25.7795 72.4266 25.8505 72.4739 25.93 72.5C26.08 72.58 26.25 72.64 26.42 72.71C26.619 72.7983 26.8326 72.8492 27.05 72.86C27.2277 72.901 27.4123 72.901 27.59 72.86C27.701 72.8329 27.8028 72.777 27.8854 72.698C27.9679 72.619 28.0281 72.5197 28.06 72.41C28.0978 72.2244 28.0822 72.0319 28.015 71.8549C27.9477 71.6779 27.8315 71.5236 27.68 71.41C27.3472 71.1963 26.9874 71.0282 26.61 70.91C26.5178 70.8961 26.4273 70.8727 26.34 70.84C26.02 70.71 25.93 70.58 25.87 70.13C25.87 70.03 25.87 69.93 25.87 69.83C25.87 69.51 26.05 69.25 26.46 69.13C27.1159 68.9606 27.8041 68.9606 28.46 69.13C28.6434 69.1725 28.8213 69.2363 28.99 69.32L29.57 69.68C29.7571 69.8356 29.928 70.0099 30.08 70.2C30.25 70.381 30.3916 70.5866 30.5 70.81C30.8818 71.3858 31.0624 72.0718 31.0135 72.761C30.9647 73.4501 30.6892 74.1038 30.23 74.62L30.08 74.58Z" fill="currentColor"/>
<path d="M23.21 82.82C22.8382 83.1783 22.3973 83.4571 21.9142 83.6394C21.431 83.8216 20.9158 83.9035 20.4 83.88C20.2 83.88 20.02 83.88 19.82 83.88C19.6249 83.8681 19.431 83.8414 19.24 83.8C18.5733 83.6252 17.9871 83.2262 17.58 82.67C17.1877 82.1796 16.9355 81.5922 16.85 80.97C16.7455 80.3519 16.8662 79.7168 17.19 79.18C17.3401 78.8629 17.5858 78.6008 17.8925 78.4305C18.1991 78.2601 18.5515 78.19 18.9 78.23C19.1 78.23 19.17 78.9 19.23 79.53C19.2599 79.9758 19.3133 80.4198 19.39 80.86C19.39 80.94 19.32 80.77 19.25 80.67C19.2117 80.6128 19.1644 80.5621 19.11 80.52C19.0892 80.4942 19.0658 80.4707 19.04 80.45L19 80.42C18.95 80.42 19.05 80.42 19.07 80.42C19.1392 80.4346 19.2108 80.4346 19.28 80.42L19.7 80.34C19.6332 80.4024 19.5847 80.482 19.56 80.57C19.49 80.83 19.74 80.85 19.9 80.92C20.1366 81.0434 20.4083 81.0822 20.67 81.03C20.7469 81.0045 20.8168 80.9614 20.8741 80.9041C20.9314 80.8468 20.9745 80.7769 21 80.7C21.0376 80.5544 21.03 80.4009 20.9782 80.2598C20.9264 80.1186 20.8329 79.9966 20.71 79.91C20.4932 79.7818 20.24 79.7291 19.99 79.76C19.9335 79.7655 19.8765 79.7655 19.82 79.76C19.61 79.68 19.52 79.52 19.49 79.08V78.79C19.4775 78.6319 19.5206 78.4744 19.6119 78.3448C19.7032 78.2151 19.8369 78.1215 19.99 78.08C20.3164 77.9804 20.6511 77.9101 20.99 77.87C21.4022 77.9621 21.8067 78.0858 22.2 78.24C22.4183 78.3014 22.6246 78.3994 22.81 78.53L23.24 78.97C23.4916 79.2677 23.6911 79.6058 23.83 79.97C24.0525 80.4512 24.1121 80.9918 24 81.51C23.9371 82.0308 23.7093 82.5178 23.35 82.9L23.21 82.82Z" fill="currentColor"/>
<path d="M60.76 35.75C58.42 38.0767 56.1167 40.45 53.85 42.87C52.98 43.72 52.29 44.71 51.42 45.56C48.37 48.56 45.34 51.56 42.42 54.76C41.11 56.12 39.9 57.59 38.7 59C37.236 60.9352 35.6317 62.7601 33.9 64.46C33.34 64.98 32.98 64.6 32.9 63.73C32.7702 62.513 32.9814 61.2839 33.51 60.18C35.88 55.77 38.24 51.33 41.87 47.81C43.97 45.65 45.6 42.98 47.52 40.59C48.52 39.26 49.67 38 50.8 36.75L54.21 33.01L58.46 28.44C60.59 26.13 62.84 23.9 64.92 21.54C65.73 20.62 66.45 19.65 67.25 18.72C68.05 17.79 68.76 16.8 69.64 15.9C69.9745 15.482 70.3648 15.1119 70.8 14.8C72.57 13.68 73.48 13.71 74.58 14.49C74.8326 14.6571 75.0763 14.8373 75.31 15.03C76.01 15.68 75.9 16.89 75.31 18.22C75.08 18.69 74.86 19.22 74.64 19.75C74.4038 20.2259 74.1226 20.6779 73.8 21.1C73.2 22 72.6 22.89 72 23.74C70.6957 25.4799 69.2723 27.1272 67.74 28.67C65.5 31.05 63.17 33.42 60.92 35.86L60.76 35.75Z" fill="currentColor"/>
<path d="M74.06 21.15C74.1176 20.2139 73.9744 19.2763 73.64 18.4C73.4839 18.04 73.2786 17.7035 73.03 17.4C73.03 17.31 72.84 17.1 72.43 16.96C71.6597 16.7848 70.8688 16.7175 70.08 16.76C68.3253 16.7406 66.5731 16.898 64.85 17.23C63.04 17.57 61.21 18.01 59.38 18.48C57.7621 18.9451 56.181 19.5301 54.65 20.23C52.7211 21.2083 50.7142 22.0244 48.65 22.67C47.98 22.84 47.65 22.09 47.83 21.09C47.9006 20.4956 48.0934 19.9223 48.3963 19.406C48.6992 18.8897 49.1056 18.4417 49.59 18.09C51.5186 16.8619 53.5226 15.7564 55.59 14.78C57.6801 13.7445 59.9051 13.0073 62.2 12.59C63.6 12.35 64.99 11.98 66.45 11.65C67.9584 11.2489 69.5095 11.0307 71.07 11C72.049 11.001 73.0238 11.1287 73.97 11.38C74.5135 11.5269 75.0398 11.7314 75.54 11.99C76.0688 12.2613 76.5596 12.6009 77 13C77.7318 13.688 78.3585 14.4798 78.86 15.35C79.3533 16.1978 79.7364 17.1052 80 18.05C80.4906 20.1363 80.6057 22.2933 80.34 24.42C79.9338 27.3461 79.3359 30.2423 78.55 33.09C78.01 35.24 77.99 37.51 77.38 39.58C77.26 40.04 77.21 40.51 77.05 40.95C76.47 42.61 75.84 42.95 74.13 42.83C73.74 42.83 73.35 42.83 72.97 42.72C72.3568 42.6063 71.804 42.2784 71.4102 41.7949C71.0163 41.3113 70.8072 40.7035 70.82 40.08C70.7667 39.04 70.7667 38.01 70.82 36.99L70.88 35.47C70.9201 34.9756 70.9936 34.4845 71.1 34C71.54 32.11 72.1 30.29 72.6 28.51C73.3778 26.1233 73.8155 23.6389 73.9 21.13L74.06 21.15Z" fill="currentColor"/>
</svg>
