<svg width="96" height="96" viewBox="0 0 96 96" fill="none" xmlns="http://www.w3.org/2000/svg">
<path d="M45.87 54.52C46.8469 53.4578 47.6837 52.2748 48.36 51C48.5674 50.5547 48.738 50.0932 48.87 49.62C49.4783 47.784 49.746 45.8523 49.66 43.92C49.6167 43.0372 49.4929 42.1603 49.29 41.3C49.06 40.2 48.71 39.13 48.57 37.99C48.57 37.64 48.97 37.49 49.57 37.61C49.9072 37.6696 50.2264 37.8049 50.5035 38.0059C50.7807 38.2068 51.0086 38.4681 51.17 38.77C52.2351 41.1167 52.6197 43.7154 52.28 46.27C52.1934 47.8656 51.9557 49.4493 51.57 51C51.4358 51.4451 51.2687 51.8797 51.07 52.3C50.88 52.7 50.66 53.06 50.45 53.44C50.0099 54.1721 49.5257 54.8767 49 55.55C48.3499 56.3917 47.6307 57.1777 46.85 57.9C45.6466 58.9972 44.2804 59.9013 42.8 60.58C41.6627 61.1796 40.4319 61.582 39.16 61.77C38.8739 61.7947 38.5862 61.7947 38.3 61.77C38.0746 61.7764 37.8493 61.7529 37.63 61.7C37.4714 61.6335 37.3284 61.5348 37.21 61.41C37.0001 61.2089 36.8689 60.9393 36.84 60.65C36.8116 60.5113 36.7916 60.3711 36.78 60.23C36.78 59.81 37.23 59.42 37.86 59.13C38.7212 58.8999 39.5691 58.6228 40.4 58.3C41.2113 57.9953 41.9915 57.6135 42.73 57.16C43.8945 56.4146 44.9368 55.4938 45.82 54.43L45.87 54.52Z" fill="currentColor"/>
<path d="M8.91998 30.29C8.80718 30.5082 8.71349 30.7357 8.63998 30.97C8.63998 31.05 8.63998 31.12 8.63998 31.19C8.51706 31.4376 8.43918 31.7051 8.40998 31.98C8.40998 32.1 8.48998 32.12 8.57998 32.14C8.66998 32.16 8.89998 31.99 8.81998 32.36C8.59499 32.9295 8.32061 33.4783 7.99998 34C7.54998 34.75 6.93998 35.37 6.67998 35.24C6.47732 35.1181 6.2865 34.9774 6.10998 34.82C5.9452 34.6313 5.80416 34.423 5.68998 34.2C5.4811 33.7792 5.41442 33.302 5.49998 32.84C5.59998 32.32 5.37998 31.97 5.38998 31.56C5.42231 31.1462 5.49943 30.7372 5.61998 30.34L5.82998 29.67C5.90998 29.33 6.08998 29.02 6.12998 28.67C6.11065 28.4099 6.06713 28.1521 5.99998 27.9C5.99998 27.84 5.99998 27.77 5.99998 27.71C5.99998 27.49 6.27998 27.49 6.99998 27.71L7.47998 27.85C7.89389 27.9679 8.28103 28.1648 8.61998 28.43C8.94654 28.734 9.14049 29.1543 9.15998 29.6C9.13702 29.8393 9.08324 30.0745 8.99998 30.3L8.91998 30.29Z" fill="currentColor"/>
<path d="M68.66 87.18C68.234 87.0808 67.8187 86.9401 67.42 86.76C67.275 86.721 67.1343 86.6674 67 86.6C66.5294 86.3077 66.1433 85.8975 65.88 85.41C65.78 85.21 65.63 85.05 65.52 84.87C65.424 84.7747 65.3521 84.6578 65.3104 84.5291C65.2686 84.4004 65.2582 84.2636 65.28 84.13C65.28 84.03 65.64 83.91 66.01 83.81C66.2844 83.7154 66.5703 83.6582 66.86 83.64C67.17 83.79 67.38 83.75 67.4 84.09C67.42 84.43 67.64 84.26 67.77 84.32C67.9466 84.4121 68.1351 84.4794 68.33 84.52C68.4663 84.5353 68.6038 84.5353 68.74 84.52C68.9622 84.5334 69.1846 84.4958 69.39 84.41C69.54 84.33 69.6 84.07 69.69 83.9C69.78 83.73 69.69 83.82 69.75 83.81C69.81 83.8 69.99 83.89 70.4 84.45L70.67 84.82C70.9572 85.1456 71.1139 85.5659 71.11 86C71.094 86.179 71.0501 86.3545 70.98 86.52C70.9035 86.6462 70.8091 86.7607 70.7 86.86C70.4807 87.0364 70.2294 87.1688 69.96 87.25C69.5328 87.3198 69.0972 87.3198 68.67 87.25L68.66 87.18Z" fill="currentColor"/>
<path d="M12.55 68.28C13.1849 69.2373 13.996 70.0654 14.94 70.72C15.3161 70.9489 15.707 71.1526 16.11 71.33C17.5384 72.0991 19.0871 72.6198 20.69 72.87C21.4088 72.985 22.1412 72.985 22.86 72.87C23.78 72.76 24.65 72.59 25.51 72.43C25.8 72.43 25.98 72.64 25.94 73.1C25.9058 73.3936 25.8176 73.6784 25.68 73.94C25.5049 74.2259 25.2607 74.4631 24.97 74.63C23.9313 75.1527 22.7828 75.4202 21.62 75.41C21.0588 75.4235 20.4974 75.3968 19.94 75.33C19.3851 75.2396 18.8395 75.099 18.31 74.91C17.0017 74.5368 15.719 74.0792 14.47 73.54C13.1372 72.8317 11.9578 71.8665 11 70.7C10.73 70.31 10.43 69.95 10.19 69.55L9.48999 68.3C9.02096 67.0043 8.68588 65.664 8.48999 64.3C8.27777 63.2304 8.22052 62.1359 8.31999 61.05C8.32832 60.8082 8.37212 60.569 8.44999 60.34C8.75999 59.49 9.06999 59.34 9.68999 59.34C9.82437 59.3468 9.95807 59.3635 10.09 59.39C10.3094 59.4777 10.4944 59.6344 10.6171 59.8364C10.7397 60.0384 10.7934 60.2748 10.77 60.51C10.85 61.36 10.77 62.07 10.87 62.8C10.9472 63.548 11.0912 64.2876 11.3 65.01L11.57 65.93L11.86 66.7C11.9396 66.9625 12.0576 67.2119 12.21 67.44C12.3281 67.6879 12.4722 67.9226 12.64 68.14L12.55 68.28Z" fill="currentColor"/>
<path d="M90.85 50.62C90.5353 51.4042 90.1609 52.1631 89.73 52.89C89.51 53.25 89.32 53.63 89.07 53.97L88.34 54.97C88.014 55.4803 87.6496 55.965 87.25 56.42C86.8993 56.8224 86.5146 57.1938 86.1 57.53C85.7 57.88 85.32 58.24 84.92 58.53C84.0918 59.1594 83.2233 59.734 82.32 60.25C81.92 60.47 81.54 60.72 81.16 60.96L80 61.67C79.0422 62.3333 77.9432 62.7647 76.79 62.93C76.42 62.93 76.26 62.23 76.3 61.43C76.34 60.63 76.56 59.79 77.09 59.57L77.8 59.29L78.48 58.94C78.93 58.71 79.41 58.53 79.85 58.29C80.29 58.05 80.73 57.81 81.2 57.58C81.67 57.35 82.07 57.06 82.54 56.82C83.5949 56.1131 84.4796 55.1807 85.13 54.09C85.57 53.55 85.87 52.92 86.26 52.34C86.65 51.76 86.92 51.11 87.18 50.45L87.65 49.23L88 48C88.16 47.35 88.26 46.69 88.37 46C88.4532 45.3368 88.4767 44.6674 88.44 44C88.3552 42.9867 88.1812 41.9828 87.92 41C87.92 40.78 87.83 40.57 87.82 40.35C87.7576 40.0404 87.7925 39.719 87.92 39.43C88.0861 39.1857 88.3005 38.9781 88.55 38.82C88.67 38.74 88.78 38.65 88.89 38.59C88.9894 38.5407 89.099 38.515 89.21 38.515C89.321 38.515 89.4305 38.5407 89.53 38.59C89.8612 38.6903 90.1519 38.8935 90.36 39.17C90.7224 39.6326 91.0564 40.1168 91.36 40.62C91.6255 41.1253 91.8239 41.6632 91.95 42.22C92.1065 42.7727 92.2136 43.3383 92.27 43.91C92.2866 44.4876 92.2632 45.0656 92.2 45.64C92.1243 46.4928 91.9839 47.3385 91.78 48.17C91.55 49 91.33 49.83 91.02 50.63L90.85 50.62Z" fill="currentColor"/>
<path d="M33.92 15.25C33.39 15.48 32.92 15.76 32.35 16.03C31.78 16.3 31.35 16.67 30.88 17.03C30.41 17.39 30.27 17.67 29.94 17.97C28.7522 19.0764 27.7406 20.3579 26.94 21.77C26.608 22.4041 26.3529 23.0755 26.18 23.77C26.0009 24.6589 25.7397 25.5293 25.4 26.37C25.27 26.65 24.92 26.66 24.48 26.37C24.04 26.08 23.34 25.49 23.38 24.84C23.3791 24.2712 23.4192 23.7031 23.5 23.14C23.6325 22.6008 23.8064 22.0726 24.02 21.56C24.25 21.06 24.49 20.56 24.76 20.09C25.03 19.62 25.37 19.18 25.7 18.75C26.55 17.75 27.2 16.56 28.14 15.6C28.6469 15.0667 29.1989 14.5782 29.79 14.14L30.68 13.49L31.68 12.95C32.4757 12.5736 33.2979 12.2561 34.14 12C34.8 11.82 35.46 11.67 36.14 11.5C36.82 11.33 37.48 11.34 38.14 11.23C38.8 11.12 39.14 11.13 39.67 11.07C40.1829 10.9935 40.702 10.9668 41.22 10.99C41.4456 10.9787 41.6716 11.0023 41.89 11.06C42.71 11.31 42.89 11.57 42.97 12.19C42.9793 12.3165 42.9793 12.4435 42.97 12.57C42.97 12.93 42.55 13.36 41.97 13.57L41.33 13.79C41.1302 13.842 40.926 13.8754 40.72 13.89C40.31 13.89 39.92 14.06 39.53 14.12C39.14 14.18 38.74 14.18 38.36 14.25C37.98 14.32 37.6 14.38 37.22 14.42C36.9346 14.4457 36.6529 14.5027 36.38 14.59L35.55 14.8C35.0018 14.9675 34.4641 15.1678 33.94 15.4L33.92 15.25Z" fill="currentColor"/>
<path d="M38.64 33.25C36.5448 32.8679 34.3858 33.0438 32.38 33.76C30.5932 34.4003 28.9743 35.4362 27.6444 36.7904C26.3144 38.1446 25.3079 39.7819 24.7 41.58C23.6751 44.2402 23.6044 47.1735 24.5 49.88C25.4629 52.6703 27.2392 55.1083 29.6 56.88C31.7286 58.4231 34.291 59.2527 36.92 59.25C38.6292 59.3653 40.3461 59.2645 42.03 58.95C43.7411 58.657 45.41 58.1567 47 57.46C48 57 48.06 57.28 47.48 58.18C47.3082 58.4486 47.1106 58.6998 46.89 58.93C46.6246 59.2469 46.33 59.5382 46.01 59.8C45.2393 60.4991 44.3294 61.0274 43.34 61.35C41.4244 61.9916 39.4283 62.3618 37.41 62.45C35.336 62.491 33.272 62.1521 31.32 61.45C30.8138 61.2717 30.3195 61.0612 29.84 60.82C29.3347 60.5814 28.8468 60.3074 28.38 60C27.5302 59.4036 26.7339 58.7344 26 58C24.4989 56.5723 23.2779 54.8765 22.4 53C21.3225 50.7151 20.7463 48.226 20.71 45.7C20.6975 43.1569 21.3014 40.6487 22.47 38.39C23.7668 35.9587 25.633 33.8774 27.909 32.3241C30.185 30.7707 32.8033 29.7915 35.54 29.47C38.8922 29.1538 42.2643 29.8137 45.25 31.37C47.4818 32.5761 49.3998 34.2886 50.85 36.37C51.5525 37.4023 52.1457 38.5049 52.62 39.66C53.1358 40.8297 53.4729 42.0702 53.62 43.34C53.9566 47.2239 53.0232 51.1122 50.96 54.42C50.5355 55.1509 50.0575 55.8495 49.53 56.51C48.8686 57.4399 48.0032 58.2061 47 58.75C46.736 58.8936 46.4451 58.9811 46.1457 59.0069C45.8463 59.0327 45.5447 58.9963 45.26 58.9C45.0259 58.843 44.7981 58.7626 44.58 58.66C43.97 58.24 44.58 57.16 45.76 55.57C47.5761 53.3145 48.8704 50.6849 49.55 47.87C49.8654 46.5615 49.9567 45.209 49.82 43.87C49.7275 43.2313 49.5666 42.6043 49.34 42C48.5045 39.7221 47.0692 37.7122 45.1858 36.1826C43.3024 34.653 41.0409 33.6605 38.64 33.31V33.25Z" fill="currentColor"/>
<path d="M31.75 9.94C35.1095 8.50291 38.8574 8.24905 42.38 9.22C43.6588 9.51644 44.8928 9.98046 46.05 10.6C47.9893 11.7187 49.6443 13.2698 50.8862 15.1326C52.128 16.9954 52.9233 19.1196 53.21 21.34C53.4963 23.1998 53.4523 25.0955 53.08 26.94C52.8285 28.1175 52.3932 29.248 51.79 30.29C51.6374 30.5482 51.467 30.7955 51.28 31.03C51.08 31.26 50.86 31.47 50.65 31.68C50.2376 32.1015 49.7779 32.474 49.28 32.79C48.68 33.19 48.56 32.87 48.64 32.15C48.64 31.78 48.77 31.34 48.84 30.82C48.8982 30.2824 48.985 29.7483 49.1 29.22C49.789 27.5229 50.0234 25.6754 49.78 23.86C49.5278 22.0562 48.9805 20.3061 48.16 18.68C47.6416 17.6835 46.9029 16.8182 46 16.15C45.5486 15.8182 45.0624 15.5366 44.55 15.31L43.79 14.93C43.53 14.82 43.26 14.75 42.99 14.65C41.8231 14.215 40.5944 13.9686 39.35 13.92C38.7105 13.885 38.0695 13.885 37.43 13.92C36.7825 13.9695 36.1402 14.0732 35.51 14.23C33.9155 14.5797 32.4063 15.2425 31.07 16.18C28.9844 17.5798 27.4144 19.6239 26.6 22C26.448 22.45 26.3507 22.9167 26.31 23.39L26.21 24.1V24.81C26.21 25.29 26.21 25.74 26.28 26.22C26.35 26.7 26.43 27.15 26.53 27.61C26.63 28.07 26.76 28.4 26.85 28.79C27.11 30.28 27 30.79 26.09 31.59C25.89 31.76 25.7 31.97 25.5 32.11C24.82 32.61 23.79 32.24 22.97 30.92C22.36 29.9423 21.9236 28.8664 21.68 27.74C21.5493 27.1725 21.4491 26.5983 21.38 26.02C21.33 25.42 21.32 24.81 21.32 24.2C21.3317 21.6676 22.0224 19.1847 23.32 17.01C25.2653 13.7727 28.2047 11.2508 31.7 9.82L31.75 9.94Z" fill="currentColor"/>
<path d="M35.67 38.32C36.3235 38.5082 36.993 38.6355 37.67 38.7C37.9278 38.6916 38.1849 38.6682 38.44 38.63C39.4116 38.6787 40.3846 38.5672 41.32 38.3C41.7245 38.1603 42.1106 37.9723 42.47 37.74C42.8687 37.3598 43.3469 37.0729 43.87 36.9C44.07 36.9 44.54 37.28 44.87 37.84C45.2 38.4 45.49 39.18 45.23 39.57C44.97 39.96 44.72 40.18 44.45 40.46C44.1602 40.7229 43.8564 40.9699 43.54 41.2C43.1869 41.3427 42.8264 41.4662 42.46 41.57C42.0848 41.6534 41.7036 41.7069 41.32 41.73C40.8755 41.7587 40.4358 41.8393 40.01 41.97C39.5836 42.093 39.1492 42.1865 38.71 42.25C37.7282 42.3385 36.7389 42.2914 35.77 42.11C35.1745 41.9887 34.5867 41.8317 34.01 41.64C33.58 41.48 33.16 41.28 32.75 41.09C32.34 40.9 31.94 40.66 31.56 40.41C31.18 40.16 30.91 40.08 30.62 39.88C30.33 39.68 30.03 39.45 29.76 39.21C29.6326 39.1111 29.5212 38.9931 29.43 38.86C29.3835 38.811 29.3479 38.7527 29.3255 38.6889C29.3031 38.6251 29.2944 38.5574 29.3 38.49C29.2997 38.3748 29.3165 38.2602 29.35 38.15C29.4468 37.9207 29.5978 37.7182 29.79 37.56C29.8847 37.4643 29.9848 37.3741 30.09 37.29C30.4938 37.0425 30.9701 36.9401 31.44 37C31.82 37 31.96 37.14 32.25 37.15C32.54 37.16 32.73 37.23 32.93 37.28C33.1301 37.2943 33.3247 37.3523 33.5 37.45C33.6644 37.5385 33.8348 37.6154 34.01 37.68C34.5437 37.9292 35.1039 38.1171 35.68 38.24L35.67 38.32Z" fill="currentColor"/>
<path d="M60.5 68.94C62.8028 67.7891 64.6979 65.9604 65.93 63.7C66.3322 62.8711 66.6375 61.9987 66.84 61.1C67.0669 60.3085 67.1978 59.4927 67.23 58.67C67.255 58.2537 67.255 57.8363 67.23 57.42C67.2275 57.2219 67.2074 57.0245 67.17 56.83C67.1545 56.634 67.1211 56.4399 67.07 56.25C66.6549 54.5132 65.9079 52.8731 64.87 51.42C63.9267 50.0822 62.7351 48.9382 61.36 48.05C60.499 47.5161 59.5881 47.0673 58.64 46.71C58.17 46.55 57.72 46.3 57.24 46.16L56.53 45.89C56.28 45.83 56.04 45.76 55.79 45.68C55.17 45.47 55.19 44.75 55.85 43.98C56.3089 43.4647 56.8905 43.0736 57.5407 42.8429C58.191 42.6121 58.889 42.5492 59.57 42.66C60.9399 42.9442 62.2474 43.4726 63.43 44.22C64.5934 44.9221 65.6707 45.7578 66.64 46.71C67.5993 47.642 68.4513 48.6785 69.18 49.8C69.9414 50.9332 70.5531 52.16 71 53.45C71.14 53.84 71.25 54.24 71.36 54.67C71.4657 55.1083 71.5458 55.5524 71.6 56C71.6835 56.4227 71.7403 56.8502 71.77 57.28C71.829 57.6976 71.8624 58.1184 71.87 58.54C71.9587 60.2294 71.7523 61.9214 71.26 63.54C70.1001 66.9954 67.7876 69.947 64.71 71.9C62.9101 73.0729 60.9207 73.9255 58.83 74.42C57.2704 74.8018 55.6639 74.9568 54.06 74.88C52.458 74.8335 50.8699 74.5677 49.34 74.09C46.8971 73.4092 44.6539 72.1505 42.8 70.42C42.3732 70.0461 41.9997 69.6154 41.69 69.14C41.4616 68.7579 41.2675 68.3564 41.11 67.94C40.978 67.6522 40.9196 67.336 40.94 67.02C40.9896 66.5368 41.197 66.0835 41.53 65.73C41.6568 65.5713 41.7938 65.421 41.94 65.28C42.18 65.09 42.49 65.13 42.94 65.28C43.1802 65.3748 43.414 65.485 43.64 65.61C43.7669 65.6688 43.8821 65.7502 43.98 65.85C44.1057 65.9315 44.2229 66.0253 44.33 66.13C44.6412 66.4323 44.9756 66.7098 45.33 66.96C45.5022 67.0778 45.66 67.2154 45.8 67.37C45.96 67.51 46.13 67.63 46.29 67.76L46.77 68.14L47.28 68.48C47.6007 68.7094 47.9346 68.9198 48.28 69.11C49.7397 69.8909 51.3414 70.3704 52.99 70.52C55.5548 70.7145 58.1197 70.1437 60.36 68.88L60.5 68.94Z" fill="currentColor"/>
<path d="M87.63 45.33C87.6509 42.1728 86.5924 39.1033 84.63 36.63C83.8599 35.7694 82.975 35.019 82 34.4C80.2849 33.16 78.3353 32.2821 76.27 31.82C75.1936 31.6074 74.0967 31.5168 73 31.55C71.8554 31.5801 70.718 31.7411 69.61 32.03C67.6794 32.5589 65.9254 33.5947 64.53 35.03C62.72 36.88 61.69 39.33 60.12 41.61C59.64 42.33 59.21 42.05 58.92 41.13C58.7338 40.541 58.6361 39.9277 58.63 39.31C58.6075 38.9182 58.6344 38.5251 58.71 38.14C58.8061 37.7466 58.9435 37.3645 59.12 37C60.5446 34.0737 62.8071 31.6371 65.62 30C67.055 29.2336 68.5756 28.6395 70.15 28.23C71.6997 27.8009 73.3021 27.5922 74.91 27.61C76.8932 27.6198 78.8678 27.8717 80.79 28.36C81.7789 28.6031 82.7355 28.9623 83.64 29.43C84.5526 29.8673 85.4201 30.3932 86.23 31C89.6993 33.7903 92.0606 37.7257 92.89 42.1C93.3921 44.7196 93.3581 47.4139 92.79 50.02C91.897 53.9585 89.6934 57.4771 86.54 60C84.2679 62.0636 81.519 63.5308 78.54 64.27C77.8831 64.4308 77.2143 64.5379 76.54 64.59C75.6219 64.7066 74.6897 64.55 73.86 64.14C73.6118 64.0057 73.3966 63.8178 73.23 63.59C73.0888 63.3408 72.978 63.0756 72.9 62.8C72.8148 62.5875 72.7414 62.3705 72.68 62.15C72.57 61.64 73.68 60.74 75.08 60.44C77.1311 60.0473 79.0704 59.2074 80.76 57.98C81.5915 57.3839 82.368 56.7146 83.08 55.98C83.44 55.6 83.79 55.2 84.08 54.79C84.23 54.6 84.35 54.39 84.51 54.21C84.6791 54.0395 84.8299 53.8518 84.96 53.65C86.7581 51.2958 87.6586 48.378 87.5 45.42L87.63 45.33Z" fill="currentColor"/>
<path d="M16.33 76C13.2108 74.846 10.6097 72.6104 9.00004 69.7C8.70004 69.19 8.45004 68.7 8.17004 68.14C7.94049 67.6046 7.7402 67.0571 7.57004 66.5C7.0595 64.5183 7.0014 62.4472 7.40004 60.44C7.78888 58.4841 8.58254 56.631 9.73003 55C10.7673 53.5776 12.0468 52.3488 13.51 51.37C13.9914 51.0576 14.4887 50.7705 15 50.51C15.5169 50.283 16.0567 50.112 16.61 50C17.1665 49.8918 17.7336 49.8482 18.3 49.87C18.8576 49.8764 19.412 49.9536 19.95 50.1C20.62 50.27 20.44 50.8 19.9 51.42C19.2848 52.1333 18.5749 52.7591 17.79 53.28C17.0987 53.615 16.4305 53.9958 15.79 54.42C15.1623 54.8769 14.5916 55.4073 14.09 56C13.0351 57.2531 12.1477 58.638 11.45 60.12C11.0814 61.0957 10.9279 62.1395 11 63.18C11.0934 64.2447 11.3219 65.2931 11.68 66.3C12.0692 67.3949 12.6518 68.411 13.4 69.3C14.1767 70.1971 15.1039 70.9517 16.14 71.53C17.4399 72.2435 18.8883 72.6441 20.37 72.7C21.5157 72.7232 22.6583 72.5749 23.76 72.26C24.8969 71.9362 25.9788 71.4441 26.97 70.8C28.3963 69.7732 29.533 68.3954 30.27 66.8L30.73 65.74C30.9338 65.2398 31.282 64.8116 31.73 64.51C32.1187 64.302 32.5651 64.2282 33 64.3C33.2364 64.2845 33.4736 64.2845 33.71 64.3C34.44 64.42 34.85 65.3 34.71 66.65C34.5398 67.6528 34.2017 68.6197 33.71 69.51C33.202 70.4693 32.5736 71.3598 31.84 72.16C30.3056 73.7784 28.4158 75.0177 26.32 75.78C25.94 75.93 25.57 76.05 25.19 76.17L23.96 76.49C23.5457 76.5907 23.1246 76.6609 22.7 76.7C22.2799 76.7669 21.8554 76.8036 21.43 76.81C19.7146 76.8777 18.0017 76.6233 16.38 76.06L16.33 76Z" fill="currentColor"/>
<path d="M75.18 14.48C74.784 14.9242 74.3526 15.3356 73.89 15.71C73.5725 15.9712 73.2385 16.2117 72.89 16.43C72.5517 16.6115 72.2008 16.7685 71.84 16.9C71.354 17.1263 70.8392 17.2844 70.31 17.37C69.8995 17.3916 69.4887 17.3339 69.1 17.2C68.6963 17.0825 68.3441 16.8324 68.1 16.49C67.97 16.36 67.96 16.11 67.89 15.96C67.8208 15.7924 67.7934 15.6105 67.81 15.43C67.7996 15.0283 67.8641 14.6282 68 14.25C68.2946 13.4484 68.6984 12.6912 69.2 12C69.5 11.53 69.64 11.27 69.85 11C70.061 10.7139 70.3139 10.461 70.6 10.25C70.79 10.12 71.03 10.36 71.23 10.72C71.4599 11.0714 71.5557 11.4938 71.5 11.91L71.25 12.62H71.19C70.9801 12.7573 70.8136 12.9515 70.71 13.18C70.57 13.43 70.71 13.6 70.8 13.58C70.9318 13.5681 71.0623 13.5447 71.19 13.51C71.3452 13.5074 71.4983 13.4734 71.64 13.41L71.88 13.29C72.0343 13.1906 72.1813 13.0803 72.32 12.96C72.5062 12.8038 72.6832 12.6368 72.85 12.46C72.9875 12.3124 73.1145 12.1553 73.23 11.99C73.3728 11.8107 73.4752 11.6026 73.53 11.38C73.622 11.1454 73.622 10.8846 73.53 10.65C73.4899 10.5678 73.4275 10.4986 73.35 10.45C73.3128 10.4274 73.2723 10.4105 73.23 10.4C73.23 10.4 73.13 10.4 73.14 10.4L73.41 9.90001C73.4049 9.94653 73.4049 9.99348 73.41 10.04C73.4005 10.1264 73.4005 10.2136 73.41 10.3C73.4848 10.5355 73.5889 10.7606 73.72 10.97C73.81 11.09 73.72 11.03 73.5 10.91C73.28 10.79 72.99 10.51 72.5 10.09L71.8 9.53001C71.05 9.00001 70.57 8.20001 71 7.52001C71.361 6.87906 71.9558 6.4025 72.66 6.19001C72.9051 6.12533 73.1567 6.08844 73.41 6.08001C73.6917 6.07428 73.9732 6.09774 74.25 6.15001C74.7932 6.26783 75.3026 6.50715 75.74 6.85001L75.97 7.03001L76.14 7.18001C76.2377 7.28806 76.3248 7.40527 76.4 7.53001C76.4895 7.64611 76.5899 7.75327 76.7 7.85001C76.83 7.94001 76.84 8.12001 76.91 8.25001C77.1171 8.82776 77.2253 9.43629 77.23 10.05V10.84L76.9 12C76.69 12.36 76.48 12.71 76.3 13.06C75.75 13.81 75.55 14.06 75.24 14.52L75.18 14.48Z" fill="currentColor"/>
<path d="M70.38 88.17C69.8135 88.528 69.175 88.7568 68.51 88.84C67.833 88.9235 67.1457 88.8376 66.51 88.59C66.0953 88.4694 65.708 88.269 65.37 88C65.1186 87.7634 64.8877 87.5058 64.68 87.23C64.4506 86.9242 64.2655 86.5875 64.13 86.23C63.908 85.5882 63.8261 84.9062 63.89 84.23C63.9309 83.6577 64.0451 83.0931 64.23 82.55C64.36 82.1794 64.5642 81.8391 64.83 81.55C64.9776 81.3838 65.1574 81.2494 65.3586 81.1548C65.5597 81.0603 65.7779 81.0076 66 81C66.27 81 66.35 81.59 66.45 82.18C66.501 82.6007 66.6227 83.0098 66.81 83.39C66.81 83.54 66.68 84.07 66.61 84.7C66.6002 84.7748 66.6097 84.8509 66.6377 84.9209C66.6657 84.991 66.7113 85.0526 66.77 85.1C66.94 85.2204 67.117 85.3306 67.3 85.43C67.4195 85.5535 67.5687 85.6441 67.7333 85.6932C67.898 85.7422 68.0725 85.748 68.24 85.71C68.5273 85.6401 68.7858 85.4829 68.98 85.26C69.32 84.94 69.59 84.38 69.48 84.12C69.37 83.86 69.25 84.18 69.08 84.24C68.91 84.3 68.98 84.32 68.92 84.33C68.7 84.33 68.56 84.18 68.35 83.33L68.19 82.78C68.0837 82.532 68.0634 82.2555 68.1322 81.9946C68.2011 81.7337 68.3552 81.5033 68.57 81.34C68.9568 81.1439 69.3865 81.0476 69.82 81.06C70.4355 81.0723 71.0282 81.2946 71.5 81.69C72.0418 82.1335 72.4187 82.7464 72.57 83.43C72.6842 83.9673 72.6842 84.5227 72.57 85.06C72.2975 86.3474 71.5379 87.4796 70.45 88.22L70.38 88.17Z" fill="currentColor"/>
<path d="M64.4 58.38C64.381 58.3181 64.3487 58.261 64.3056 58.2127C64.2625 58.1644 64.2094 58.1259 64.15 58.1L63.43 57.72C63.54 57.72 63.49 57.72 63.52 57.66C63.5835 57.5289 63.6177 57.3856 63.62 57.24C63.5809 57.0768 63.5308 56.9164 63.47 56.76C63.3385 56.0102 62.9909 55.3151 62.47 54.76C62.2512 54.5241 61.9705 54.3543 61.66 54.27C61.27 54.17 60.97 54.21 60.66 54.09C60.4419 53.8049 60.3417 53.4469 60.38 53.09C60.38 52.6 60.71 52 61.18 51.99C61.9346 51.9505 62.6837 52.1386 63.33 52.53C63.8965 52.8956 64.3583 53.4021 64.67 54C65.1554 54.6212 65.5744 55.2915 65.92 56C66.118 56.4787 66.2106 56.9943 66.1916 57.512C66.1727 58.0296 66.0425 58.5371 65.81 59L65.64 59.27V59.34C65.4515 59.5456 65.2142 59.7004 64.95 59.79C64.7878 59.8384 64.6192 59.862 64.45 59.86C64.3174 59.8478 64.1867 59.821 64.06 59.78C63.7391 59.6587 63.4513 59.4634 63.22 59.21C62.64 58.57 62.4 57.96 61.99 57.44C61.6744 57.0894 61.3406 56.7556 60.99 56.44C60.9157 56.3889 60.8455 56.3321 60.78 56.27C60.58 56.04 60.68 55.9 60.99 55.33L61.19 54.95C61.2727 54.7453 61.431 54.5803 61.632 54.4891C61.8331 54.3978 62.0615 54.3874 62.27 54.46C62.8298 54.6543 63.3561 54.9343 63.83 55.29C64.217 55.5925 64.5544 55.9535 64.83 56.36C64.9941 56.5693 65.1381 56.7936 65.26 57.03V57.11L65.18 57.22C65.11 57.3 65.03 57.43 64.98 57.47C64.93 57.51 64.89 57.57 64.85 57.63C64.7186 57.821 64.6079 58.0255 64.52 58.24C64.5078 58.296 64.5078 58.354 64.52 58.41L64.4 58.38Z" fill="currentColor"/>
<path d="M3.49001 33.77C3.22145 33.4239 2.99955 33.044 2.83001 32.64C2.66093 32.23 2.56612 31.7932 2.55001 31.35C2.53122 30.9463 2.57165 30.542 2.67001 30.15C2.73601 29.778 2.84682 29.4154 3.00001 29.07C3.10648 28.8071 3.23354 28.5529 3.38001 28.31C3.50719 28.06 3.68019 27.8361 3.89001 27.65C4.53729 27.06 5.33802 26.6649 6.20001 26.51C6.91959 26.3811 7.65443 26.3609 8.38001 26.45C8.99535 26.5235 9.60625 26.6303 10.21 26.77C10.6435 26.8291 11.0547 26.9979 11.4047 27.2604C11.7547 27.5229 12.0319 27.8704 12.21 28.27C12.31 28.57 11.64 28.89 10.98 29.22C10.678 29.3647 10.3871 29.5319 10.11 29.72C9.85001 29.88 9.70001 30 9.65001 29.98C9.19001 29.84 8.36001 29.71 7.52001 29.55C7.3181 29.5143 7.11004 29.547 6.92887 29.643C6.74769 29.7391 6.60379 29.8929 6.52001 30.08C6.40518 30.2047 6.33181 30.3619 6.31001 30.53C6.27146 30.6837 6.25131 30.8415 6.25001 31C6.27532 31.1444 6.329 31.2824 6.40796 31.406C6.48691 31.5296 6.58957 31.6363 6.71001 31.72C7.23686 32.1477 7.87555 32.415 8.55001 32.49C8.82918 32.5082 9.10945 32.4811 9.38001 32.41L10.18 32.25C10.2875 32.214 10.3979 32.1873 10.51 32.17C10.92 32.17 11.04 32.33 11.35 33.1L11.55 33.62C11.6665 33.8684 11.6973 34.1485 11.6376 34.4163C11.5779 34.6841 11.431 34.9246 11.22 35.1C10.6016 35.5539 9.89734 35.8771 9.15001 36.05C8.43093 36.1178 7.70568 36.074 7.00001 35.92C5.61934 35.6173 4.36976 34.8858 3.43001 33.83L3.49001 33.77Z" fill="currentColor"/>
<path d="M41.29 49C41.6686 48.481 42.0759 47.9835 42.51 47.51C42.67 47.34 42.76 47.1 42.94 46.94C43.5676 46.3491 44.2584 45.8293 45 45.39C45.35 45.19 45.68 44.96 46 44.73C46.232 44.504 46.5227 44.3476 46.8392 44.2786C47.1556 44.2097 47.4851 44.2309 47.79 44.34C48.01 44.44 47.89 45.29 47.79 46.13C47.7509 46.512 47.7342 46.896 47.74 47.28C47.74 47.6 47.81 47.78 47.74 47.82C47.5749 47.93 47.3923 48.0112 47.2 48.06C47.032 48.1154 46.8568 48.1457 46.68 48.15C46.49 48.15 46.27 48.15 46.04 48.21C45.49 48.29 45.19 48.72 44.78 49.01C44.3097 49.351 43.859 49.7182 43.43 50.11C43.1618 50.3515 42.908 50.6086 42.67 50.88C42.2856 51.2715 41.9498 51.708 41.67 52.18C41.5034 52.5541 41.3825 52.9469 41.31 53.35C41.31 53.43 41.31 53.52 41.25 53.6C41.16 53.89 41.02 53.94 40.56 53.9H40.24C40.0845 53.8911 39.9374 53.8266 39.8254 53.7183C39.7135 53.61 39.6441 53.4651 39.63 53.31C39.6016 52.4074 39.7938 51.5115 40.19 50.7C40.4933 50.1057 40.8444 49.5372 41.24 49H41.29Z" fill="currentColor"/>
<path d="M31.28 49.87C31.8077 50.3242 32.3023 50.8155 32.76 51.34C32.92 51.53 33.14 51.67 33.3 51.88C33.5524 52.2615 33.7667 52.6667 33.94 53.09C34.1 53.53 34.19 53.97 34.3 54.39C34.3814 54.7297 34.485 55.0638 34.61 55.39C34.8354 55.8104 34.8857 56.3027 34.75 56.76C34.68 56.91 34.16 56.95 33.61 56.93C33.06 56.91 32.47 56.85 32.37 56.68C31.9853 56.1856 31.7154 55.6117 31.58 55C31.4485 54.6251 31.2083 54.2978 30.89 54.06C30.5876 53.6972 30.2529 53.3625 29.89 53.06C29.65 52.88 29.42 52.66 29.16 52.47C28.7716 52.1571 28.3362 51.9074 27.87 51.73C27.49 51.63 27.11 51.57 26.73 51.46C26.6474 51.4468 26.5668 51.4233 26.49 51.39C26.19 51.26 26.16 50.99 26.22 50.52V50.19C26.2562 50.0238 26.3276 49.8673 26.4294 49.731C26.5311 49.5947 26.6609 49.4819 26.81 49.4C27.2595 49.2224 27.725 49.0885 28.2 49C28.6291 48.9056 29.076 48.9333 29.49 49.08C30.1289 49.2528 30.7437 49.5047 31.32 49.83L31.28 49.87Z" fill="currentColor"/>
</svg>
