<svg width="96" height="96" viewBox="0 0 96 96" fill="none" xmlns="http://www.w3.org/2000/svg">
<path d="M37.9 83.64C36.14 83.64 34.37 83.56 32.59 83.48L27.22 83.25C25.9 83.18 24.56 83.25 23.22 83.06C21.9994 82.8472 20.7936 82.5566 19.61 82.19C18.2667 81.7807 16.9974 81.1596 15.85 80.35C15.5194 80.1084 15.2115 79.8373 14.93 79.54L14.5 79.05C14.3948 78.9195 14.298 78.7826 14.21 78.64C13.8386 78.107 13.5045 77.549 13.21 76.97C12.627 75.8309 12.1838 74.6255 11.89 73.38C11.4155 71.2872 11.1906 69.1457 11.22 67C11.1339 64.357 11.5165 61.7196 12.35 59.21C12.64 58.44 13.4 58.71 14.11 59.51C14.5231 59.9632 14.8607 60.4798 15.11 61.04C15.4206 61.6601 15.575 62.3466 15.56 63.04C15.5171 65.3848 15.6945 67.7284 16.09 70.04C16.2767 71.0802 16.5238 72.1086 16.83 73.12C17.1474 74.1012 17.5805 75.0411 18.12 75.92C18.3 76.43 19.47 77.07 20.81 77.33C22.15 77.59 23.67 77.71 25.17 77.95C26.67 78.19 28.53 78.34 30.25 78.42C31.97 78.5 33.71 78.5 35.46 78.51C37.61 78.51 39.77 78.51 41.93 78.51C45.2 78.43 48.51 78.44 51.78 78.3C54.34 78.19 56.85 77.81 59.47 77.73C60.0493 77.6899 60.6307 77.6899 61.21 77.73C63.39 77.93 64.07 78.51 64.21 79.99C64.2664 80.3203 64.2932 80.6549 64.29 80.99C64.21 82.1 63.29 82.78 61.86 82.99C57.67 83.53 53.14 83.62 48.47 83.75C45.01 83.84 41.47 83.85 37.94 83.9L37.9 83.64Z" fill="currentColor"/>
<path d="M15.11 69.15C15.03 71.27 15 73.4 15.11 75.44C15.11 76.44 15.22 77.44 15.34 78.36C15.34 78.59 15.4 78.81 15.44 79.02C15.48 79.23 15.44 79.24 15.44 79.3V79.37C15.4515 79.4617 15.4716 79.5521 15.5 79.64C15.55 79.86 15.76 79.89 15.95 79.95L16 80H16.34L17.06 80.07C17.55 80.07 18.01 80.2 18.54 80.21C20.59 80.3 22.72 80.28 24.89 80.21C28.05 80.07 31.23 79.63 34.45 79.37C40.11 78.92 45.82 78.37 51.59 78.04L56 77.8L60.37 77.68C61.84 77.68 63.29 77.68 64.78 77.74L67.01 77.86C67.38 77.86 67.76 77.96 68.13 78.01H68.4H68.53L68.79 78.07C69.07 78.07 69.43 78.27 69.66 78.07C69.8705 77.846 70.0247 77.5753 70.11 77.28C70.11 77.14 70.2 76.99 70.24 76.84L70.39 76.23C70.51 75.67 70.62 75.08 70.7 74.49C71.0197 72.0569 71.1635 69.6038 71.13 67.15C71.0571 60.8209 70.3435 54.5153 69 48.33C68.74 47.41 68.68 46.97 68.89 46.88C69.1 46.79 69.58 47.08 70.26 47.75C71.1673 48.6847 71.9719 49.7139 72.66 50.82C73.54 52.3801 74.1741 54.0666 74.54 55.82C75.4902 60.2586 76.0424 64.7732 76.19 69.31C76.2819 71.6668 76.1916 74.0271 75.92 76.37C75.92 76.67 75.83 76.99 75.78 77.31C75.7402 77.4878 75.7135 77.6683 75.7 77.85L75.51 78.63C75.44 78.89 75.39 79.16 75.32 79.41L75.05 80.16C74.8796 80.647 74.6548 81.1133 74.38 81.55C73.8982 82.4184 73.1578 83.1152 72.2617 83.5435C71.3657 83.9719 70.3584 84.1104 69.38 83.94H67.82L67.07 83.88L65.51 83.8L63.93 83.7H62.31C61.23 83.7 60.14 83.7 59.03 83.7C57.92 83.7 56.83 83.7 55.71 83.7C47.85 83.87 39.71 85.35 31.48 86.13C26.8794 86.6487 22.2479 86.8425 17.62 86.71L15.79 86.57H15.33L14.69 86.42L13.41 86L12.13 85.69C11.7297 85.536 11.3655 85.3011 11.06 85C10.445 84.3857 9.95881 83.6547 9.63001 82.85C9.45923 82.4445 9.30904 82.0306 9.18001 81.61C9.12001 81.39 9.06001 81.18 9.01001 80.97L8.90001 80.47C8.76001 79.83 8.66001 79.22 8.58001 78.61C8.42001 77.39 8.32001 76.21 8.27001 75.03C8.12449 69.3733 8.40864 63.7137 9.12001 58.1C9.58953 53.8356 10.3378 49.6066 11.36 45.44C11.64 44.44 11.95 43.33 12.36 42.24C12.9 40.86 13.5 39.37 14.93 38.8C15.5948 38.5004 16.2884 38.2692 17 38.11C17.6 37.97 18.12 37.87 18.67 37.77C19.76 37.59 20.83 37.44 21.89 37.33C28.3681 36.5134 34.8906 36.0992 41.42 36.09C42.86 36.09 44.29 36.09 45.76 36.23C46.44 36.29 47.06 36.36 47.64 36.45C48.22 36.54 48.71 36.71 49.18 36.85C49.9633 37.0685 50.721 37.3702 51.44 37.75C52.4082 38.1985 53.1646 39.0051 53.55 40C53.7477 40.3664 53.8989 40.7561 54 41.16C54.07 41.76 53.51 42.16 52.53 42.31C51.117 42.5603 49.685 42.6874 48.25 42.69C46.88 42.78 45.52 42.69 44.13 42.69C42.74 42.69 41.35 42.69 39.94 42.69C37.13 42.69 34.27 42.81 31.41 42.96C29.98 43.04 28.54 43.12 27.11 43.24L24.98 43.43L22.87 43.75C21.5531 43.9499 20.2479 44.2203 18.96 44.56L18.76 44.62V44.7L18.71 44.85L18.51 45.49C18.37 45.94 18.24 46.4 18.12 46.89C17.87 47.89 17.65 48.89 17.44 49.89C17.04 51.96 16.7 54.09 16.44 56.23C15.8763 60.5425 15.5425 64.882 15.44 69.23L15.11 69.15Z" fill="currentColor"/>
<path d="M48.1 43.52C48.44 43.14 48.8 42.77 49.1 42.38C49.1 42.32 49.16 42.31 49.17 42.31H49.23L49.36 42.23C49.5 42.16 49.7 42.06 49.74 41.89C49.7686 41.7244 49.7366 41.554 49.65 41.41C49.5884 41.309 49.4978 41.2289 49.39 41.18L49.31 41L49.07 40.81C48.903 40.6782 48.7428 40.5381 48.59 40.39C46.1633 38.1448 43.5128 36.1544 40.68 34.45C40.0352 34.0539 39.3673 33.6966 38.68 33.38L37.68 32.92L36.68 32.39C34.9209 31.5961 33.2459 30.628 31.68 29.5C31.19 29.11 31.49 28.5 32.25 27.98C33.1671 27.2905 34.2934 26.9375 35.44 26.98C36.44 27.14 37.49 27.31 38.5 27.52C39.0092 27.614 39.5132 27.7342 40.01 27.88C40.48 28.08 40.94 28.28 41.4 28.5C43.2746 29.3608 45.057 30.4095 46.72 31.63C48.72 33.15 51.15 34.05 53.35 35.77L53.81 36.16L54.28 36.62C54.6059 36.9107 54.91 37.2248 55.19 37.56C55.7368 38.1888 56.1853 38.8968 56.52 39.66L56.73 40.22L56.85 40.81C56.85 41.01 56.85 41.21 56.91 41.42C56.97 41.63 56.91 41.82 56.84 42.01C56.7973 42.1995 56.7438 42.3865 56.68 42.57L56.41 43.11C56.2473 43.4742 56.0568 43.8252 55.84 44.16C55.31 44.83 54.78 45.52 54.25 46.16C53.09 47.47 51.86 48.69 50.63 49.89C48.74 51.7 46.69 53.31 44.73 54.96C43.19 56.23 41.86 57.75 40.26 58.96C39.9 59.22 39.57 59.51 39.19 59.74C39.01 59.84 38.85 59.94 38.69 60.01C38.5343 60.0634 38.3734 60.1003 38.21 60.12C37.8028 60.2158 37.3764 60.1901 36.9836 60.0461C36.5908 59.9022 36.2489 59.6462 36 59.31C35.8 59.09 35.58 58.9 35.41 58.68C34.87 57.96 35.03 56.92 35.66 55.83C36.6392 54.4395 37.7806 53.1706 39.06 52.05L42.73 48.69C44.5888 47.0386 46.3486 45.2789 48 43.42L48.1 43.52Z" fill="currentColor"/>
<path d="M60.67 24.29C60.76 24.6 60.26 24.54 59.44 24.29C59.0789 24.1276 58.7424 23.9156 58.44 23.66C58.2756 23.4524 58.1284 23.2316 58 23C58 22.89 58.09 21.62 58.07 21.16C58.0847 20.7585 58.1799 20.364 58.35 20C58.63 19.25 58.87 18.47 59.16 17.69C59.2255 17.5146 59.3358 17.3594 59.48 17.24C59.9557 16.794 60.3014 16.2271 60.48 15.6C60.48 15.5 60.6 15.42 60.48 15.25C60.36 15.08 61.22 13.41 61.48 13.25C62.08 12.93 62.55 12.54 63.18 12.25C63.26 12.25 63.27 12.11 63.48 12.16C63.97 12.29 64.02 12.16 64.16 12C64.3703 11.8298 64.6066 11.6947 64.86 11.6C65.0657 11.5719 65.2743 11.5719 65.48 11.6C65.7413 11.7133 65.9712 11.8883 66.15 12.11C66.24 12.31 66.52 12.41 66.72 12.56C66.7936 12.6085 66.8638 12.6619 66.93 12.72C67.0382 13.0437 67.1054 13.3796 67.13 13.72C67.2047 14.0488 67.2515 14.3833 67.27 14.72C67.27 14.72 67.17 15.22 67.03 15.72C66.8996 16.07 66.7894 16.4273 66.7 16.79C66.7 16.9 66.54 16.94 66.43 17C66.32 17.06 66 18.5 66 18.55C65.83 18.8 65.81 19.13 65.27 19.2C65.16 19.2 65.15 19.27 65.12 19.33C64.845 19.8022 64.5087 20.2359 64.12 20.62C63.9492 20.8463 63.7986 21.0873 63.67 21.34C63.67 21.34 63.57 21.4 63.52 21.43C63.47 21.46 63.37 21.5 63.34 21.56C62.9322 22.1069 62.5741 22.6893 62.27 23.3C62.21 23.45 61.44 23.89 61.39 24.07C61.34 24.25 60.63 24.17 60.67 24.29Z" fill="currentColor"/>
<path d="M70.32 37.51C70.14 37.8 69.8 37.41 69.38 36.66C69.2003 36.2966 69.0885 35.9035 69.05 35.5C69.1089 35.2514 69.1857 35.0074 69.28 34.77C69.34 34.65 70.55 33.69 70.94 33.3C71.3132 32.9609 71.7431 32.6901 72.21 32.5L73.57 31.88C74.03 31.7 74.51 31.56 74.99 31.42C75.2167 31.3649 75.4533 31.3649 75.68 31.42C76.4637 31.5284 77.2621 31.4355 78 31.15C78.13 31.15 78.26 31.15 78.36 30.91C78.46 30.67 80.67 30.23 80.97 30.37L82.04 30.73L83.04 31.17C83.13 31.17 83.24 31.17 83.33 31.37C83.53 31.87 83.74 31.8 83.94 31.85C84.2427 31.9294 84.5276 32.0651 84.78 32.25C84.9406 32.4247 85.0722 32.6238 85.17 32.84C85.2471 33.135 85.2471 33.445 85.17 33.74C85.04 33.94 85.17 34.25 85.17 34.52C85.1754 34.6133 85.1754 34.7067 85.17 34.8C84.668 35.3696 84.1083 35.8857 83.5 36.34L83.15 36.45C82.95 36.51 82.68 36.59 82.42 36.69C81.88 36.84 81.32 36.98 81.21 37.04C81.1 37.1 80.97 36.98 80.84 36.92C80.71 36.86 79.21 37.47 79.14 37.48C78.8 37.48 78.49 37.7 78.07 37.34C77.99 37.27 77.92 37.34 77.86 37.34C77.2576 37.4594 76.644 37.5131 76.03 37.5C75.7152 37.5417 75.4042 37.6085 75.1 37.7C75.04 37.7 74.97 37.7 74.91 37.63C74.85 37.56 74.74 37.56 74.67 37.63C73.9006 37.6799 73.1374 37.8004 72.39 37.99C72.23 38.05 71.27 37.79 71.08 37.89C70.89 37.99 70.4 37.39 70.32 37.51Z" fill="currentColor"/>
</svg>
