<svg width="96" height="96" viewBox="0 0 96 96" fill="none" xmlns="http://www.w3.org/2000/svg">
<path d="M64.34 82.24L62.34 82.97L60.27 83.52L59.27 83.79L58.16 84C57.46 84.11 56.76 84.24 56.06 84.33C53.2683 84.635 50.4517 84.635 47.66 84.33C44.9083 84.0221 42.1967 83.4255 39.57 82.55C38.25 82.16 37 81.55 35.73 81.09C35.1 80.82 34.49 80.5 33.88 80.21C33.2593 79.909 32.6552 79.5752 32.07 79.21C28.5684 77.3174 25.3558 74.9332 22.53 72.13C20.0584 69.6385 17.951 66.8106 16.27 63.73C15.86 62.95 15.5 62.15 15.12 61.37C14.74 60.59 14.48 59.73 14.12 58.92C13.7795 58.1119 13.489 57.2837 13.25 56.44C12.975 55.6018 12.7546 54.7467 12.59 53.88C11.8392 50.4226 11.7307 46.8566 12.27 43.36C12.8709 39.9201 13.9585 36.5833 15.5 33.45C18.0979 27.852 21.9921 22.9534 26.86 19.16C29.9781 16.6637 33.5707 14.8265 37.42 13.76C41.2828 12.7749 45.3407 12.8578 49.16 14C50.29 14.58 50.73 14.88 50.67 15C50.61 15.12 50.02 15.17 48.99 15.54C48.47 15.8 47.89 15.82 47.22 16.08L45.05 16.81C44.27 17.09 43.47 17.49 42.63 17.76C41.79 18.03 40.94 18.43 40.04 18.68C39.14 18.93 38.5 19.33 37.73 19.6L35.45 20.6C34.72 21.01 33.98 21.37 33.26 21.79C32.54 22.21 31.86 22.69 31.18 23.17C28.4593 25.2042 26.0418 27.615 24 30.33C21.8844 33.0764 20.1643 36.1059 18.89 39.33L18.04 41.75L17.42 44.23C17.27 45.07 17.17 45.92 17.03 46.77C16.89 47.62 16.89 48.48 16.81 49.35C16.7035 53.661 17.8349 57.9122 20.07 61.6C22.3822 65.3589 25.377 68.6522 28.9 71.31C36.53 77.23 46.63 80.21 56.08 78.57C56.8 78.41 57.54 78.33 58.24 78.11L60.36 77.5L62.41 76.69C63.1 76.43 63.73 76.05 64.41 75.69C67.0244 74.3079 69.412 72.5341 71.49 70.43C74.6815 67.2561 77.0797 63.3744 78.49 59.1C79.1868 56.9984 79.5939 54.8116 79.7 52.6C79.735 52.0539 79.735 51.5061 79.7 50.96C79.7085 50.4179 79.6717 49.876 79.59 49.34C79.51 48.8 79.48 48.26 79.39 47.73L79 46.18C78.8 45.37 78.46 44.61 78.2 43.83C77.94 43.05 77.49 42.35 77.05 41.66L76.37 40.66C76.1539 40.3051 75.9062 39.9704 75.63 39.66C75.1496 39.0644 74.6211 38.5092 74.05 38C72.9999 37.0501 71.7383 36.3644 70.37 36C69.0029 35.6828 67.5884 35.6251 66.2 35.83C64.929 35.9878 63.6867 36.3245 62.51 36.83C58.1 38.98 56.29 39.83 54.51 39.83C54.0951 39.8778 53.6775 39.8979 53.26 39.89C52.7 39.81 52.66 39.19 53.05 37.97C53.292 37.2112 53.628 36.4855 54.05 35.81C54.311 35.3533 54.6087 34.9186 54.94 34.51C55.2865 34.0091 55.6891 33.5495 56.14 33.14C57.6071 31.8575 59.2422 30.781 61 29.94C62.9275 29.0156 65.0023 28.4368 67.13 28.23C69.471 28.1055 71.8113 28.4878 73.991 29.3507C76.1707 30.2136 78.1385 31.5369 79.76 33.23C80.1419 33.6103 80.4993 34.0144 80.83 34.44L81.83 35.66C82.46 36.49 82.99 37.41 83.56 38.3C84.13 39.19 84.5 40.19 84.95 41.15C85.4 42.11 85.67 43.15 85.95 44.15C87.004 48.1961 87.0931 52.4332 86.21 56.52C84.6746 63.7908 80.8931 70.3952 75.4 75.4C74.86 75.88 74.33 76.4 73.78 76.85L72 78.16L71.12 78.81C70.82 79.02 70.51 79.2 70.2 79.39L68.33 80.53C67.69 80.87 67.03 81.18 66.33 81.53C65.685 81.8676 65.0166 82.1583 64.33 82.4L64.34 82.24Z" fill="currentColor"/>
<path d="M52 24.38C52.57 24.15 55.22 36.32 56.77 38.03C59.17 40.67 66.15 47.65 65.56 48.03C62.78 49.71 41.45 49.39 40.47 47C38.68 42.58 50.1 25.15 52 24.38Z" fill="currentColor"/>
</svg>
