<svg width="96" height="96" viewBox="0 0 96 96" fill="none" xmlns="http://www.w3.org/2000/svg">
<path d="M52 38.94C47 38.37 47.62 32.23 51.08 32.45C51.08 32.45 47.45 29.07 45.5 32.07C44.7315 33.2065 44.4086 34.5864 44.5931 35.9459C44.7776 37.3054 45.4564 38.5493 46.5 39.44C48.71 41.57 52 38.94 52 38.94Z" fill="currentColor"/>
<path d="M37.13 49.78C41.69 48.78 39.83 43.37 37.05 44C37.05 44 35.82 43.45 37.55 43.11C39.28 42.77 41.6 42.18 42.21 44.76C42.82 47.34 42.64 49.46 41.21 50.18C39.78 50.9 37.13 49.78 37.13 49.78Z" fill="currentColor"/>
<path d="M34.45 55.78C34.45 55.78 30.87 53.12 29.76 57.9C29.76 57.9 27.3 55.47 29.11 53.57C29.6784 52.8855 30.4905 52.4486 31.3749 52.3516C32.2593 52.2546 33.1468 52.505 33.85 53.05C34.55 53.76 34.45 55.78 34.45 55.78Z" fill="currentColor"/>
<path d="M24.85 62.79C26.33 62.79 28.29 64.55 25.41 66.72C23.82 67.92 29.35 68.33 29.51 65.42C29.67 62.51 28.2 62.27 27.34 61.85C26.48 61.43 24.18 62.79 24.85 62.79Z" fill="currentColor"/>
<path d="M24.65 72.77C23.87 72.52 20.85 73.14 22.44 75.38C23.7 77.16 18.83 74.01 20.61 72.24C23.68 69.19 25.58 73.06 24.65 72.77Z" fill="currentColor"/>
<path d="M19.46 81.42C19.46 81.42 20.92 80.75 21.63 81.62C22 82 21.72 80.26 21 80C20.28 79.74 19.46 81.42 19.46 81.42Z" fill="currentColor"/>
<path d="M66.22 48.06C66.61 46.84 67.58 25.9 61.27 22.83C56.07 20.31 47.27 20.39 49.84 19.03C52.6 17.59 72.94 13.9 75.67 21.77C75.67 21.77 76.31 14.57 69.45 13.23C62.59 11.89 47.78 15.6 44 16.94C40.22 18.28 36.43 19.45 39 20.86C41.57 22.27 54.41 22.35 58.81 24.86C64.81 28.36 66.22 48.06 66.22 48.06Z" fill="currentColor"/>
<path d="M42.21 41.81C43.0659 42.3284 43.7589 43.0768 44.21 43.97C44.6091 44.7891 44.8144 45.6889 44.81 46.6C44.8426 47.2327 44.7786 47.8666 44.62 48.48C44.4343 49.0234 44.168 49.5358 43.83 50C43.4764 50.4178 43.0696 50.7876 42.62 51.1C41.7781 51.6485 40.8189 51.9911 39.82 52.1C38.9428 52.2073 38.0531 52.0688 37.25 51.7C36.7625 51.5013 36.328 51.1919 35.9808 50.7961C35.6337 50.4004 35.3835 49.9292 35.25 49.42C35.18 49.11 35.53 49.01 35.98 49C36.4457 48.9683 36.9136 49.0019 37.37 49.1C37.8227 49.2993 38.3345 49.3172 38.8 49.15C38.98 49.08 39.17 49.08 39.39 49.02C39.6481 48.9519 39.9019 48.8684 40.15 48.77C40.2891 48.7119 40.415 48.6261 40.5199 48.5178C40.6247 48.4095 40.7065 48.2809 40.76 48.14C40.9006 47.8602 41.0177 47.5692 41.11 47.27C41.2178 46.9372 41.2487 46.5842 41.2002 46.2378C41.1516 45.8913 41.0251 45.5604 40.83 45.27C40.5331 44.9011 40.115 44.6495 39.65 44.56C39.2406 44.4734 38.817 44.4796 38.4103 44.5782C38.0036 44.6769 37.6242 44.8654 37.3 45.13C36.7947 45.6007 36.4457 46.2149 36.3 46.89C36.25 47.02 36.3 47.17 36.22 47.3C36.06 47.78 35.81 47.85 34.93 47.81C34.73 47.81 34.53 47.81 34.33 47.81C34.1742 47.8113 34.0197 47.7818 33.8754 47.7231C33.7311 47.6644 33.5998 47.5776 33.4892 47.4679C33.3785 47.3582 33.2907 47.2277 33.2308 47.0839C33.1709 46.9401 33.14 46.7858 33.14 46.63C33.1975 45.5242 33.5671 44.4573 34.206 43.5529C34.8449 42.6485 35.727 41.9437 36.75 41.52C37.6109 41.1356 38.5476 40.951 39.49 40.98C40.4715 41.0143 41.4295 41.289 42.28 41.78L42.21 41.81Z" fill="currentColor"/>
<path d="M30.22 50.92C30.9523 50.7381 31.7125 50.6974 32.46 50.8L32.99 50.88L33.54 51.03L34.09 51.21L34.61 51.48C35.1322 51.7278 35.6063 52.0664 36.01 52.48C36.6504 53.2069 37.0211 54.132 37.06 55.1C37.1428 56.0041 36.9659 56.913 36.55 57.72C36.42 58.11 36.03 58.36 35.77 58.72C35.62 58.86 35.46 59.01 35.3 59.14C35.1233 59.2467 34.9356 59.3339 34.74 59.4C34.3075 59.5582 33.8418 59.6036 33.3869 59.5319C32.932 59.4601 32.5029 59.2736 32.14 58.99C31.93 58.83 32.14 58.52 32.41 58.19C32.707 57.8636 33.0429 57.5748 33.41 57.33C33.495 57.3065 33.5739 57.2648 33.6412 57.2078C33.7086 57.1508 33.7627 57.0799 33.8 57C33.8 56.93 33.8 56.89 33.8 56.87L33.73 56.78C33.65 56.72 33.83 56.54 33.91 56.16C33.932 56.0482 33.9271 55.9329 33.8958 55.8233C33.8646 55.7138 33.8077 55.6133 33.73 55.53C33.65 55.45 33.62 55.33 33.54 55.27C33.4845 55.1813 33.4172 55.1006 33.34 55.03C33.2751 54.9301 33.19 54.8449 33.09 54.78C32.9854 54.6996 32.8712 54.6324 32.75 54.58C32.4522 54.453 32.1336 54.3818 31.81 54.37C31.4239 54.348 31.0394 54.4346 30.7 54.62C30.4493 54.7451 30.2419 54.9425 30.1047 55.1868C29.9674 55.431 29.9066 55.7108 29.93 55.99C29.9971 56.2013 30.1111 56.3948 30.2635 56.5558C30.4159 56.7169 30.6027 56.8414 30.81 56.92C30.91 56.92 31.03 56.98 31.11 57.03C31.42 57.23 31.42 57.49 31.11 58.32L30.9 58.88C30.8186 59.1646 30.6372 59.4102 30.3892 59.5719C30.1412 59.7335 29.8433 59.8003 29.55 59.76C29.0602 59.6395 28.5992 59.4228 28.1941 59.1223C27.7889 58.8219 27.4476 58.4437 27.19 58.01C26.8739 57.4853 26.6675 56.902 26.5833 56.2952C26.4991 55.6885 26.5388 55.071 26.7 54.48C26.9447 53.6284 27.4029 52.8534 28.0312 52.2286C28.6595 51.6038 29.437 51.1499 30.29 50.91L30.22 50.92Z" fill="currentColor"/>
<path d="M29.88 61.66C30.3199 62.2025 30.6253 62.8413 30.7713 63.5243C30.9173 64.2073 30.8997 64.9151 30.72 65.59C30.6485 66.0362 30.5067 66.4682 30.3 66.87C30.095 67.2107 29.8424 67.5205 29.55 67.79C29.2396 68.0259 28.9043 68.2271 28.55 68.39C27.8938 68.6873 27.1805 68.8375 26.46 68.83C26.17 68.83 25.88 68.83 25.6 68.75L24.8 68.56C24.4822 68.4575 24.1715 68.3339 23.87 68.19C23.597 68.0092 23.3512 67.7903 23.14 67.54C23.02 67.37 23.22 67.11 23.53 66.85C23.8105 66.5794 24.1543 66.3834 24.53 66.28C24.79 66.28 25.02 66.21 25.23 66.2C25.44 66.19 25.61 66.09 25.76 66.02C26.0251 65.9567 26.2981 65.9331 26.57 65.95C26.6504 65.9305 26.7278 65.9002 26.8 65.86C26.8589 65.7944 26.9124 65.7241 26.96 65.65C27.0033 65.5754 27.0536 65.5051 27.11 65.44C27.1495 65.3623 27.1964 65.2886 27.25 65.22C27.3636 65.0668 27.4444 64.8918 27.4874 64.706C27.5304 64.5202 27.5347 64.3275 27.5 64.14C27.4456 63.8814 27.291 63.6549 27.07 63.51C26.8844 63.3707 26.6642 63.2849 26.4332 63.262C26.2023 63.2391 25.9694 63.2799 25.76 63.38C25.3816 63.6246 25.08 63.9713 24.89 64.38C24.8528 64.4696 24.8093 64.5564 24.76 64.64C24.56 64.91 24.33 64.84 23.62 64.44L23.14 64.18C22.8981 64.0756 22.6969 63.895 22.5669 63.6658C22.437 63.4366 22.3854 63.1712 22.42 62.91C22.6678 62.1571 23.1265 61.4911 23.7416 60.9913C24.3567 60.4914 25.1024 60.1786 25.89 60.09C26.6368 59.9841 27.3983 60.0736 28.1 60.35C28.7917 60.6209 29.4088 61.0528 29.9 61.61L29.88 61.66Z" fill="currentColor"/>
<path d="M19.07 72.24C19.4214 71.2845 20.107 70.4888 21 70C21.3063 69.7912 21.6439 69.6326 22 69.53C22.631 69.3748 23.2957 69.4352 23.8883 69.7016C24.4809 69.968 24.9673 70.4251 25.27 71C25.5739 71.4653 25.8128 71.97 25.98 72.5C25.98 72.9 26.07 73.38 26.04 73.76C25.9436 74.0783 25.8163 74.3864 25.66 74.68C25.56 74.87 25.27 74.78 24.93 74.68C24.59 74.58 24.21 74.4 24.13 74.24C24.05 74.08 24.13 74.15 24.13 74.15C24.1332 74.1301 24.1332 74.1099 24.13 74.09C24.187 73.8907 24.187 73.6793 24.13 73.48C24 73.04 23.77 73.19 23.57 73.18C23.4206 73.1666 23.27 73.1836 23.1274 73.23C22.9847 73.2764 22.853 73.3512 22.74 73.45C22.58 73.5767 22.4731 73.7586 22.44 73.96C22.4086 74.1258 22.4303 74.2972 22.5021 74.4499C22.574 74.6026 22.6922 74.7286 22.84 74.81C23.13 74.9199 23.4501 74.9199 23.74 74.81C23.7914 74.7935 23.8415 74.7735 23.89 74.75C24.01 74.75 24.07 74.93 24.09 75.68V76.19C24.09 76.74 23.92 77.26 23.4 77.37C22.5749 77.4746 21.7375 77.3246 21 76.94C20.2807 76.5976 19.6838 76.0426 19.29 75.35C19.0315 74.8736 18.8724 74.3496 18.8226 73.8098C18.7727 73.27 18.8331 72.7257 19 72.21L19.07 72.24Z" fill="currentColor"/>
<path d="M19.5 78.45C20.0432 78.2104 20.6453 78.1373 21.23 78.24C21.76 78.3374 22.254 78.5757 22.66 78.93C22.9506 79.1453 23.1983 79.4133 23.39 79.72C23.5489 80.0099 23.6428 80.3309 23.6652 80.6607C23.6876 80.9905 23.6381 81.3212 23.52 81.63C23.3339 82.1509 22.9828 82.5969 22.52 82.9C22.3622 83.014 22.1909 83.1081 22.01 83.18C21.86 83.2587 21.7026 83.3223 21.54 83.37C21.1677 83.5547 20.7398 83.594 20.34 83.48C20.21 83.48 20.17 83.15 20.17 82.8C20.1548 82.4797 20.2059 82.1597 20.32 81.86C20.4823 81.6561 20.6014 81.4214 20.67 81.17C20.72 81.09 20.67 81.1 20.75 81.1C20.8334 81.1792 20.9321 81.2405 21.04 81.28C20.99 81.28 20.86 81.38 20.91 81.34C20.962 81.26 20.9866 81.1652 20.98 81.07C20.98 81.01 20.84 80.98 20.72 81.07C20.6071 81.136 20.5124 81.2291 20.4443 81.3408C20.3762 81.4525 20.337 81.5794 20.33 81.71C20.33 81.93 20.61 82.05 20.64 82.01L20.53 82.09L20.46 82.23L20.31 82.65L20.17 83.11C20.04 83.63 19.7 84.05 19.17 83.92C18.8157 83.8037 18.4959 83.6011 18.2393 83.3306C17.9828 83.06 17.7974 82.7299 17.7 82.37C17.5198 81.7767 17.5198 81.1433 17.7 80.55C17.8385 80.0763 18.0734 79.6363 18.3901 79.2577C18.7067 78.8791 19.0982 78.5701 19.54 78.35L19.5 78.45Z" fill="currentColor"/>
<path d="M79.87 22.65C79.5765 25.9874 78.95 29.2872 78 32.5C77.0529 35.7272 75.7657 38.8447 74.16 41.8C73.549 42.8972 72.8814 43.962 72.16 44.99L71.55 45.89C71.2833 46.2858 70.9822 46.6573 70.65 47L68.65 49L68.22 49.44C68.07 49.58 67.93 49.77 67.8 49.79L66.98 50.15L65.36 50.87C65.23 50.92 65.09 51.02 64.96 51C64.8017 50.9824 64.6467 50.942 64.5 50.88C64.2602 50.758 64.0409 50.5995 63.85 50.41C63.4342 50.0158 63.0951 49.5479 62.85 49.03C62.2839 47.529 61.9468 45.9513 61.85 44.35L61.71 43.09L61.63 42.25L61.48 40.74C61.29 38.74 61.06 36.74 60.75 34.83C60.4919 32.9541 60.0257 31.1127 59.36 29.34C59.1328 28.7302 58.7704 28.1798 58.3 27.73C57.6711 27.389 56.9981 27.1366 56.3 26.98C54.65 26.54 52.89 26.21 51.16 25.88C48.92 25.46 46.65 25.08 44.39 24.58C42.033 24.1321 39.7462 23.3721 37.59 22.32C36.85 21.87 36.68 21.43 36.91 21.17C37.3333 20.8397 37.8375 20.629 38.37 20.56C40.3661 20.046 42.4485 19.9608 44.48 20.31L51.31 21.5C52.47 21.73 53.62 21.95 54.8 22.21C55.98 22.47 57.16 22.75 58.46 23.21C58.82 23.34 59.11 23.42 59.52 23.6C59.9936 23.8026 60.4431 24.0575 60.86 24.36C61.5939 24.949 62.2054 25.676 62.66 26.5C63.3297 27.7304 63.8404 29.0409 64.18 30.4C64.7621 32.7965 65.1632 35.2334 65.38 37.69C65.52 39.11 65.68 40.54 65.85 41.96C65.8864 42.1549 65.9098 42.352 65.92 42.55V42.89C65.92 43.12 65.98 43.35 66.03 43.58C66.0559 43.8131 66.1309 44.038 66.25 44.24C66.34 44.37 66.45 44.24 66.53 44.14L66.78 43.91C66.9574 43.761 67.1183 43.5933 67.26 43.41C67.4284 43.2335 67.5854 43.0464 67.73 42.85L68.28 42.04C68.4972 41.7484 68.6975 41.4445 68.88 41.13L69.96 39.2C70.654 37.834 71.2749 36.432 71.82 35C72.8374 32.1443 73.5938 29.2023 74.08 26.21C74.3708 24.5561 74.5645 22.8866 74.66 21.21C74.66 20.39 74.73 19.53 74.66 18.75C74.6527 18.3685 74.6227 17.9879 74.57 17.61C74.557 17.3757 74.5028 17.1455 74.41 16.93C74.323 16.7562 74.2043 16.6002 74.06 16.47C73.6868 16.1434 73.2562 15.8891 72.79 15.72C72.2118 15.4861 71.6124 15.3086 71 15.19C69.6445 14.9343 68.2693 14.7971 66.89 14.78C64.0301 14.7447 61.1727 14.9588 58.35 15.42C54.0016 16.2186 49.7245 17.3656 45.56 18.85C44.65 19.16 43.78 19.53 42.89 19.85C42 20.17 41.39 20.4 40.83 20.58C40.3687 20.7087 39.8968 20.7957 39.42 20.84C39.1051 20.876 38.7861 20.8522 38.48 20.77C38.3544 20.7348 38.2335 20.6844 38.12 20.62C38.0523 20.5978 37.9907 20.5601 37.94 20.51L37.81 20.44L37.66 20.38C37.6047 20.3497 37.5431 20.3326 37.48 20.33C37.4292 20.3314 37.3802 20.3489 37.34 20.38C37.2433 20.4964 37.184 20.6393 37.17 20.79C37.11 21.04 37.01 21.25 36.62 21.18C36.4906 21.1588 36.3733 21.0913 36.29 20.99C36.1268 20.8443 36.0118 20.6525 35.96 20.44C35.9052 20.1829 35.9052 19.9171 35.96 19.66C36.0037 19.4575 36.0674 19.2599 36.15 19.07C36.4354 18.4638 36.8246 17.9122 37.3 17.44C37.7981 16.9358 38.3516 16.4896 38.95 16.11C46.58 12 55 10 64.12 9.41C66.4572 9.28018 68.8015 9.3773 71.12 9.7C72.4504 9.90001 73.7527 10.2558 75 10.76C75.362 10.915 75.7158 11.0886 76.06 11.28C76.4596 11.4875 76.8409 11.7283 77.2 12C78.0196 12.6271 78.7005 13.417 79.2 14.32L79.74 15.8C79.8059 16.0393 79.8527 16.2834 79.88 16.53L79.97 17.12C80.06 17.85 80.06 18.42 80.1 19.12V20.92L80 22.65H79.87Z" fill="currentColor"/>
<path d="M44.24 39.3C43.6847 38.436 43.2947 37.4764 43.09 36.47C42.9629 35.9431 42.9057 35.4018 42.92 34.86C42.9428 34.2788 43.03 33.702 43.18 33.14L43.63 31.93C43.827 31.5531 44.058 31.195 44.32 30.86C45.2613 29.844 46.4947 29.1452 47.85 28.86C49.0573 28.5796 50.3127 28.5796 51.52 28.86L52.3 29.05C52.56 29.13 52.8 29.24 53.06 29.32C53.5646 29.502 54.053 29.7261 54.52 29.99C55.1127 30.3246 55.6232 30.7873 56.0142 31.3444C56.4052 31.9015 56.6668 32.5389 56.78 33.21C56.84 33.64 56.1 33.86 55.24 33.99C54.5201 34.1403 53.7806 34.1741 53.05 34.09C52.88 34.02 52.77 33.89 52.59 33.87C52.442 33.8354 52.3004 33.778 52.17 33.7C51.92 33.58 51.71 33.4 51.43 33.29C50.8346 32.9941 50.1971 32.7917 49.54 32.69C49.109 32.6394 48.6745 32.7498 48.32 33L48.07 33.18C48.0146 33.2538 47.9509 33.3209 47.88 33.38C47.71 33.48 47.65 33.64 47.51 33.76C47.3897 33.907 47.2826 34.0642 47.19 34.23C47.19 34.43 47.01 34.6 47.03 34.84C47.0274 34.9582 47.0106 35.0757 46.98 35.19C46.9658 35.333 46.9658 35.477 46.98 35.62C46.9822 35.9205 47.0225 36.2196 47.1 36.51L47.23 37.03L47.44 37.47C47.5029 37.6144 47.5909 37.7464 47.7 37.86C47.7867 37.9883 47.8991 38.0973 48.03 38.18L48.31 38.39L48.66 38.49C48.9067 38.563 49.1627 38.6 49.42 38.6C49.9811 38.5765 50.5289 38.4224 51.02 38.15C51.7768 37.685 52.3573 36.9814 52.67 36.15L52.83 35.66C52.95 35.09 53.46 35.16 54.38 35.18H55C55.1624 35.1856 55.3218 35.2249 55.4682 35.2955C55.6145 35.3661 55.7445 35.4664 55.85 35.59C55.9955 35.7465 56.1077 35.9309 56.1799 36.132C56.2521 36.3331 56.2827 36.5467 56.27 36.76C56.0122 38.0917 55.3064 39.295 54.27 40.17C53.2192 41.118 51.9234 41.7521 50.53 42C49.3383 42.201 48.1139 42.0588 47 41.59C45.8441 41.1462 44.8478 40.3659 44.14 39.35L44.24 39.3Z" fill="currentColor"/>
</svg>
