<svg width="96" height="96" viewBox="0 0 96 96" fill="none" xmlns="http://www.w3.org/2000/svg">
<path d="M38.3 42.26C40.3063 41.8271 42.213 41.0197 43.92 39.88C45.523 38.8578 46.8108 37.4108 47.64 35.7C47.77 35.39 47.9 35.08 48.01 34.7L48.19 33.7C48.2566 33.371 48.2868 33.0356 48.28 32.7C48.2985 32.3669 48.2985 32.0331 48.28 31.7C48.2663 31.0792 48.1825 30.4619 48.03 29.86C47.8953 29.2272 47.6942 28.6105 47.43 28.02C46.8518 26.7537 46.0976 25.5754 45.19 24.52C43.1853 22.2414 40.7657 20.3647 38.06 18.99C35.5857 17.7251 32.9519 16.8 30.23 16.24C28.505 15.8466 26.7537 15.5793 24.99 15.44C23.3146 15.2625 21.621 15.3879 19.99 15.81C19.11 16.19 18.88 15.94 19.5 14.96C19.9987 14.351 20.6141 13.8479 21.31 13.48C22.2676 12.9946 23.3175 12.7185 24.39 12.67C26.375 12.5779 28.3643 12.6784 30.33 12.97C32.2808 13.2194 34.2097 13.6172 36.1 14.16C38.0247 14.7162 39.8903 15.4598 41.67 16.38C43.4944 17.3041 45.2001 18.4457 46.75 19.78C48.7577 21.4331 50.4747 23.4104 51.83 25.63C53.2529 28.0464 53.928 30.8302 53.77 33.63C53.7 34.38 53.56 35.13 53.44 35.87C53.32 36.61 53 37.3 52.78 38C52.4865 38.7053 52.1527 39.3931 51.78 40.06C51.3709 40.739 50.913 41.3873 50.41 42C48.5118 44.2044 46.1108 45.9194 43.41 47C40.2391 48.3008 36.8369 48.9438 33.41 48.89C30.7872 48.8546 28.1961 48.3113 25.78 47.29L24.86 46.9L23.99 46.38L23.12 45.86C22.84 45.68 22.55 45.45 22.28 45.24C21.1755 44.3319 20.241 43.2348 19.52 42C18.9498 41.0081 18.5541 39.9257 18.35 38.8C18.1312 37.5786 18.2136 36.3223 18.59 35.14C18.973 33.9476 19.6307 32.8618 20.51 31.97C21.4112 31.0595 22.5144 30.3743 23.73 29.97C24.7418 29.6117 25.8066 29.4257 26.88 29.42C28.1536 29.3555 29.4174 29.6723 30.51 30.33C30.8193 30.5639 31.0705 30.8661 31.244 31.213C31.4174 31.5599 31.5085 31.9421 31.51 32.33C31.5644 32.7141 31.5844 33.1023 31.57 33.49C31.48 34.75 29.93 35.31 28.11 35.31C27.0957 35.2398 26.084 35.4805 25.21 36C24.7424 36.3558 24.4164 36.8662 24.29 37.44C24.2907 37.9905 24.443 38.5302 24.73 39C24.9609 39.3956 25.2434 39.7588 25.57 40.08C25.7346 40.2498 25.9117 40.4069 26.1 40.55L26.38 40.75L26.76 40.96C29.63 42.7 34.24 43.16 38.26 42.09L38.3 42.26Z" fill="currentColor"/>
<path d="M74.88 65.05C72.0237 65.3266 69.1415 64.968 66.44 64C63.6924 63.0178 61.2485 61.3357 59.35 59.12C58.6306 58.2837 57.9942 57.3795 57.45 56.42C56.9531 55.4465 56.5898 54.4105 56.37 53.34C56.1829 52.4383 56.0825 51.5208 56.07 50.6C56.0768 49.7201 56.1402 48.8416 56.26 47.97C56.4963 46.3227 56.9018 44.7041 57.47 43.14C58.5803 40.1934 60.0087 37.3767 61.73 34.74C62.47 33.59 63.24 32.44 64.07 31.32C64.9 30.2 65.74 29.15 66.64 28.12C67.7998 26.7185 69.1187 25.4567 70.57 24.36C70.9656 24.0757 71.3798 23.8185 71.81 23.59C72.2855 23.372 72.7812 23.2012 73.29 23.08C74.4307 22.764 75.6477 22.8778 76.71 23.4C77.38 23.77 77.44 24.19 77.25 24.4C77.06 24.61 76.58 24.8 76.09 25.1C75.592 25.4166 75.1852 25.8579 74.91 26.38L74.42 27.2C74.34 27.34 74.23 27.48 74.15 27.63L73.75 27.97C71.469 29.9597 69.4735 32.2547 67.82 34.79C66.99 36.07 66.08 37.44 65.28 38.79C64.48 40.14 63.71 41.57 63 43C61.36 46.41 61.1 50.48 62.38 53.25C62.7135 54.0361 63.1879 54.7546 63.78 55.37C64.4428 56.0423 65.1888 56.627 66 57.11C67.6613 58.1123 69.5427 58.6926 71.48 58.8C73.9743 58.9836 76.4753 58.5473 78.76 57.53C80.4914 56.7642 82.0495 55.6551 83.34 54.27C84.5818 52.9873 85.3687 51.3327 85.58 49.56C85.6908 48.3284 85.3338 47.1002 84.58 46.12C83.9234 45.279 82.98 44.7094 81.93 44.52C81.4857 44.4632 81.0373 44.4465 80.59 44.47H79.99C79.9012 44.4606 79.8139 44.4404 79.73 44.41H79.47C79.1467 44.3843 78.8328 44.2888 78.55 44.13C77.9353 43.7943 77.3999 43.3305 76.98 42.77C76.74 42.48 76.46 42.22 76.26 41.95C76.0914 41.706 76.0011 41.4165 76.0011 41.12C76.0011 40.8234 76.0914 40.5339 76.26 40.29C76.4921 39.8886 76.7707 39.5161 77.09 39.18C77.5412 38.7815 78.0685 38.4788 78.64 38.29C79.1158 38.0818 79.6225 37.9534 80.14 37.91C80.6682 37.8194 81.205 37.7892 81.74 37.82C82.3039 37.827 82.8661 37.8839 83.42 37.99C83.97 38.13 84.54 38.27 85.1 38.46C87.3876 39.3497 89.2911 41.0126 90.48 43.16C91.6613 45.2709 92.1706 47.692 91.94 50.1C91.8348 51.2521 91.5896 52.3871 91.21 53.48C90.8165 54.5089 90.3172 55.4942 89.72 56.42C88.0511 58.9643 85.7853 61.0619 83.12 62.53C80.5856 63.9594 77.7907 64.8672 74.9 65.2L74.88 65.05Z" fill="currentColor"/>
<path d="M55.26 71.19C55.4136 70.5243 55.3648 69.8279 55.12 69.19C54.8045 68.3417 54.3254 67.5636 53.71 66.9C52.0608 65.1891 50.1292 63.7751 48 62.72C46.37 61.84 44.55 61.3 42.81 60.53C39.8125 59.2247 36.6122 58.4467 33.35 58.23C30.0316 58.0188 26.7048 58.4814 23.57 59.59C20.7866 60.6567 18.2213 62.2223 16 64.21C13.21 66.83 10.48 69.57 9.35 73.21C9.04 74.33 8.62 74.21 8.19 73.05C7.93927 72.2347 7.83101 71.3822 7.87 70.53C7.89801 69.3106 8.17358 68.1096 8.68 67C9.1825 65.955 9.7677 64.9518 10.43 64C11.1035 63.0853 11.8528 62.229 12.67 61.44C13.4593 60.6524 14.2905 59.908 15.16 59.21L16.51 58.21L17.93 57.21C21.8253 54.7654 26.278 53.3511 30.87 53.1C33.6223 52.9424 36.3831 53.0294 39.12 53.36C41.8501 53.7039 44.5334 54.3512 47.12 55.29C49.9401 56.3677 52.6248 57.7705 55.12 59.47C56.4452 60.3757 57.666 61.4254 58.76 62.6C59.9512 63.8837 60.8969 65.3751 61.55 67C61.71 67.55 61.87 68.09 62.02 68.64C62.17 69.19 62.15 69.77 62.2 70.34C62.2151 71.4674 62.0738 72.5915 61.78 73.68C61.1257 75.7372 59.9511 77.5904 58.37 79.06C56.1513 81.1475 53.4067 82.5923 50.43 83.24C47.6243 83.859 44.7366 84.0177 41.88 83.71C39.4367 83.4719 37.097 82.6036 35.09 81.19C34.5646 80.7947 34.073 80.3565 33.62 79.88C33.37 79.59 33.13 79.29 32.89 78.99C32.65 78.69 32.49 78.33 32.3 77.99C31.5777 76.5789 31.3455 74.9676 31.64 73.41C31.8719 72.0999 32.3761 70.8531 33.12 69.75C33.5994 69.0377 34.171 68.3921 34.82 67.83C35.2361 67.4654 35.7181 67.1836 36.24 67C36.6584 66.8703 37.1012 66.8398 37.5334 66.911C37.9656 66.9821 38.3753 67.153 38.73 67.41C39.1443 67.6271 39.542 67.8745 39.92 68.15C41.12 69.15 40.71 70.92 39.64 72.62C39.3043 73.166 39.0198 73.7417 38.79 74.34C38.7481 74.4521 38.7345 74.5727 38.7502 74.6912C38.7658 74.8098 38.8104 74.9227 38.88 75.02C38.9551 75.1396 39.0676 75.231 39.2 75.28H39.28C39.3312 75.2928 39.379 75.3167 39.42 75.35C39.5829 75.4874 39.7568 75.6112 39.94 75.72C40.824 76.2139 41.8017 76.517 42.81 76.61C44.2019 76.7544 45.6066 76.7208 46.99 76.51C47.54 76.43 48.09 76.34 48.64 76.22L49.34 76.05L49.98 75.87C50.8661 75.5611 51.7095 75.1411 52.49 74.62C53.1974 74.1487 53.8224 73.5642 54.34 72.89C54.7493 72.3974 55.0064 71.7963 55.08 71.16L55.26 71.19Z" fill="currentColor"/>
</svg>
