<svg width="96" height="96" viewBox="0 0 96 96" fill="none" xmlns="http://www.w3.org/2000/svg">
<path d="M37.85 72.9C35.3802 72.6049 32.9975 71.805 30.85 70.55C30.0779 70.1229 29.3391 69.6382 28.64 69.1C26.2844 67.1854 24.2577 64.8986 22.64 62.33C21.92 61.22 21.22 60.1 20.64 58.96C19.8 57.514 19.0938 55.9944 18.53 54.42C18.16 53.42 19.32 54.42 20.27 56.01C21.921 58.8811 23.8395 61.5898 26 64.1C27.3327 65.5896 28.9042 66.8468 30.65 67.82C31.5859 68.3638 32.5621 68.8352 33.57 69.23C34.566 69.6386 35.6015 69.9436 36.66 70.14C37.9761 70.4021 39.321 70.4895 40.66 70.4C42.6993 70.3005 44.7028 69.8259 46.57 69C47.9533 68.2918 49.2348 67.4004 50.38 66.35C50.65 66.15 50.87 65.9 51.13 65.69C52.13 64.88 52.47 64.69 53.13 64.97C53.29 65.03 53.46 65.07 53.6 65.14C54.06 65.37 54.03 66.14 53.41 66.98C51.63 69.7 48.52 71.41 45.31 72.37C42.8791 73.0702 40.3352 73.291 37.82 73.02L37.85 72.9Z" fill="currentColor"/>
<path d="M59.29 20.7L61 21C61.5728 21.133 62.1371 21.2999 62.69 21.5C63.799 21.8633 64.8706 22.3321 65.89 22.9C66.6157 23.3104 67.32 23.7577 68 24.24C70.0837 26.145 71.7813 28.4333 73 30.98L73.44 31.77L73.83 32.58C74.118 33.0992 74.3784 33.6333 74.61 34.18C74.89 34.88 75.2 35.57 75.46 36.28C75.7002 37.004 75.8808 37.7465 76 38.5C76.06 38.97 75.62 39.04 75 38.84C74.2631 38.5986 73.629 38.116 73.2 37.47C72.84 36.84 72.43 36.24 72.07 35.62C71.9 35.31 71.68 35.02 71.5 34.72L71 33.8C70.32 32.58 69.62 31.39 68.88 30.22C68.6728 29.8513 68.4135 29.5145 68.11 29.22C67.83 28.92 67.54 28.61 67.23 28.33L66.23 27.6L65.73 27.23L65.2 26.92C63.7075 25.9155 62.0214 25.2342 60.25 24.92L58.56 24.68H56.83C56.3867 24.6786 55.9445 24.7222 55.51 24.81L54.19 25C53.3123 25.1848 52.4472 25.4253 51.6 25.72C50.9432 25.965 50.3133 26.2766 49.72 26.65C49.12 27.01 48.51 27.32 47.93 27.74C47.6856 27.9219 47.4283 28.0856 47.16 28.23C46.16 28.74 45.67 28.64 44.97 27.9C44.81 27.73 44.63 27.57 44.49 27.39C44.2666 27.0709 44.1743 26.6783 44.2319 26.2931C44.2896 25.908 44.493 25.5596 44.8 25.32C45.2952 24.8034 45.8229 24.3191 46.38 23.87C46.9676 23.456 47.5824 23.0818 48.22 22.75C48.8636 22.3725 49.5318 22.0384 50.22 21.75C50.92 21.49 51.65 21.29 52.38 21.08C53.4979 20.8262 54.6299 20.6392 55.77 20.52C56.35 20.52 56.94 20.52 57.53 20.52C58.1176 20.4988 58.706 20.5222 59.29 20.59V20.7Z" fill="currentColor"/>
<path d="M29.65 67.39C31.9921 69.5441 34.9174 70.9598 38.06 71.46C39.1621 71.5618 40.273 71.508 41.36 71.3C45.25 70.83 49.15 68 52 64.39C53.23 62.7529 54.2387 60.9608 55 59.06C56 56.61 56.54 54.06 57.38 51.55C57.65 50.76 58.55 50.95 59.38 51.82C59.8886 52.3763 60.2588 53.0448 60.4603 53.7712C60.6619 54.4975 60.6892 55.2611 60.54 56C59.3158 62.0945 56.0664 67.5959 51.32 71.61C49.8199 72.8423 48.2212 73.9493 46.54 74.92C44.7641 75.9264 42.8126 76.5849 40.79 76.86C38.58 77.1234 36.3396 76.9433 34.2 76.33C32.1527 75.7439 30.1997 74.8684 28.4 73.73C26.2624 72.3618 24.2981 70.74 22.55 68.9C19.9977 66.136 17.8436 63.0294 16.15 59.67C14.7201 57.129 13.554 54.4484 12.67 51.67C12.4657 51.0446 12.302 50.4066 12.18 49.76C11.79 47.3 12.43 46.44 13.97 45.99C14.3054 45.8511 14.6494 45.7342 15 45.64C16.22 45.49 17.16 46.39 17.72 47.78C19.0986 51.9743 20.9789 55.9868 23.32 59.73C25.0029 62.5905 27.1643 65.1408 29.71 67.27L29.65 67.39Z" fill="currentColor"/>
<path d="M6 39.92C6.66965 38.5248 7.60922 37.2762 8.76438 36.2463C9.91954 35.2164 11.2674 34.4258 12.73 33.92H12.92C13.6 33.7536 14.3026 33.6996 15 33.76C15.3578 33.8006 15.712 33.8675 16.06 33.96C16.23 34.02 16.42 34.07 16.57 34.13L16.97 34.32C18.4625 35.1638 19.8208 36.2255 21 37.47C22.09 38.56 23.09 39.64 24.11 40.69C25.0003 41.5959 25.9562 42.4348 26.97 43.2C28.25 44.2 29.54 45.01 30.67 46C31.01 46.3 30.74 47 30.01 47.5C29.5932 47.8089 29.1047 48.0068 28.5904 48.075C28.0761 48.1432 27.5529 48.0795 27.07 47.89C25.4654 47.1056 23.9585 46.1356 22.58 45C21.2813 43.9472 20.0521 42.8115 18.9 41.6C18.2361 40.9235 17.4824 40.3414 16.66 39.87C16.2912 39.652 15.9068 39.4615 15.51 39.3L15 39.09C14.9023 39.0658 14.8081 39.0288 14.72 38.98C14.541 38.9147 14.3488 38.8941 14.16 38.92C13.9444 38.9804 13.7338 39.0573 13.53 39.15C13.2748 39.2875 13.0308 39.4446 12.8 39.62C12.2811 40.0381 11.8263 40.53 11.45 41.08C10.7436 42.1105 10.1628 43.2217 9.72 44.39C8.99 46.2836 8.50605 48.2631 8.28 50.28C8.19656 51.8547 8.24674 53.4337 8.43 55C8.43 55.35 8.5 55.69 8.49 56C8.44 57.29 8.12 57.7 6.93 58C6.66 58.06 6.39 58.14 6.12 58.18C5.66717 58.2322 5.21118 58.1135 4.84126 57.8471C4.47135 57.5808 4.21414 57.186 4.12 56.74C3.63608 55.24 3.37989 53.676 3.36 52.1C3.26858 47.8877 4.12287 43.7085 5.86 39.87L6 39.92Z" fill="currentColor"/>
<path d="M65.75 27.8C63.6289 25.8367 60.8864 24.6796 58 24.53C57.47 24.53 56.94 24.53 56.41 24.61C55.88 24.69 55.41 24.83 54.83 24.87C50.7655 25.7686 47.1287 28.0262 44.52 31.27C43.8774 32.0017 43.286 32.7769 42.75 33.59C42.25 34.44 41.75 35.26 41.28 36.14C40.11 38.37 39.28 40.74 37.98 42.97C37.57 43.66 36.74 43.27 36.11 42.31C35.7259 41.7264 35.4779 41.0639 35.3845 40.3715C35.291 39.6791 35.3544 38.9746 35.57 38.31C36.5357 35.6618 37.7934 33.1296 39.32 30.76C40.891 28.2935 42.8849 26.1236 45.21 24.35C45.94 23.84 46.65 23.29 47.4 22.78C48.15 22.27 48.91 21.78 49.76 21.34L51 20.65L52.32 20.11C53.2048 19.7686 54.1184 19.5076 55.05 19.33C59.1866 18.632 63.4369 19.4183 67.05 21.55C69.1444 22.8353 71.0268 24.4376 72.63 26.3C74.9172 29.0586 76.7687 32.1511 78.12 35.47C79.2921 37.9454 80.2652 40.5101 81.03 43.14C81.2158 43.7182 81.3562 44.31 81.45 44.91C81.5352 45.385 81.5721 45.8675 81.56 46.35C81.5281 46.6988 81.4297 47.0383 81.27 47.35C81.0969 47.6295 80.8683 47.8705 80.5982 48.058C80.3281 48.2455 80.0224 48.3755 79.7 48.44C79.3733 48.5609 79.0393 48.6611 78.7 48.74C78.079 48.7861 77.4619 48.6104 76.9583 48.2442C76.4547 47.878 76.0974 47.345 75.95 46.74C75.19 44.74 74.51 42.74 73.72 40.74C72.93 38.74 72 36.91 71.07 35C69.7628 32.2903 67.9267 29.8695 65.67 27.88L65.75 27.8Z" fill="currentColor"/>
<path d="M87.73 52.52C87.0892 53.8434 86.1918 55.0263 85.09 56C84.75 56.26 84.41 56.51 84.09 56.74C83.77 56.97 83.35 57.11 82.97 57.28C82.5766 57.4262 82.1719 57.5399 81.76 57.62L81.15 57.76H80.54C79.968 57.8158 79.392 57.8158 78.82 57.76L78 57.63C77.7442 57.5672 77.4961 57.4767 77.26 57.36C75.7787 56.6734 74.452 55.6937 73.36 54.48C72.3634 53.434 71.46 52.303 70.66 51.1C69.95 50.1 69.24 49.1 68.56 48.1C67.5846 46.8145 66.9577 45.2989 66.74 43.7C66.74 43.18 67.43 43.06 68.29 43.16C68.7337 43.2134 69.1699 43.3174 69.59 43.47C69.9829 43.5826 70.3319 43.813 70.59 44.13C72.23 46.31 73.89 48.5 75.59 50.55C76.5434 51.6426 77.8486 52.3677 79.28 52.6C79.7895 52.77 80.3405 52.77 80.85 52.6C81.4446 52.387 81.9489 51.9779 82.28 51.44C82.8887 50.5041 83.3791 49.4964 83.74 48.44C84.37 46.7 85.02 44.83 85.55 42.96C85.96 41.5 86.15 39.96 86.55 38.49C86.626 38.151 86.7229 37.8171 86.84 37.49C87.37 36.34 87.84 36.12 89.03 36.4C89.3 36.47 89.57 36.52 89.82 36.61C90.2276 36.7512 90.5761 37.025 90.81 37.3875C91.0438 37.75 91.1494 38.1804 91.11 38.61C91.0659 39.9057 90.9018 41.1945 90.62 42.46C90.38 43.74 90.07 44.98 89.76 46.3C89.2725 48.4523 88.624 50.5649 87.82 52.62L87.73 52.52Z" fill="currentColor"/>
</svg>
