<svg width="96" height="96" viewBox="0 0 96 96" fill="none" xmlns="http://www.w3.org/2000/svg">
<path d="M50.19 55.14C50.58 53.92 50.97 52.7 51.3 51.49L51.81 49.69L52 48.8L52.05 48.66C52.1187 48.4767 52.1624 48.285 52.18 48.09C52.1888 48.041 52.178 47.9905 52.15 47.9493C52.1219 47.9082 52.0788 47.8797 52.03 47.87C51.9356 47.8401 51.8343 47.8401 51.74 47.87C51.5353 47.9396 51.3478 48.0521 51.19 48.2L51.08 48.32L50.79 48.63C50.61 48.84 50.41 49.05 50.23 49.28C49.86 49.72 49.5 50.19 49.15 50.67C47.699 52.6687 46.3634 54.7488 45.15 56.9C43.34 60.08 41.79 63.45 40.15 66.77L39 69.11C38.66 69.92 38.36 70.75 38 71.53L36.79 73.9L34.9 77.66C33.55 80.31 32.01 82.66 30.7 83.6C30.1261 84.069 29.4769 84.4376 28.78 84.69C28.3811 84.8398 27.9489 84.8778 27.53 84.8C27.0543 84.6516 26.6196 84.3949 26.26 84.05C25.7094 83.4789 25.2867 82.7971 25.02 82.05C24.7357 81.2737 24.5541 80.4634 24.48 79.64C24.385 78.6423 24.385 77.6377 24.48 76.64C24.58 75.53 24.81 74.33 25.04 73.14C25.17 72.55 25.31 71.95 25.46 71.36L25.87 69.82L26.52 67.56L27.17 65.32L27.67 63.62C27.88 62.94 28.09 62.23 28.24 61.51C28.321 61.1553 28.3678 60.7936 28.38 60.43C28.3994 60.2468 28.3534 60.0625 28.25 59.91C28.12 59.78 27.9 59.82 27.73 59.81C27.0315 59.9551 26.4136 60.3587 26 60.94C25.5764 61.4643 25.192 62.0191 24.85 62.6L23.61 64.6L22.19 67C21.19 68.62 20.26 70.25 19.19 71.85C18.0456 73.4626 16.7203 74.9389 15.24 76.25C14.85 76.58 14.45 76.9 14.03 77.19C13.5951 77.4783 13.1444 77.742 12.68 77.98C11.7428 78.4784 10.7288 78.8164 9.67999 78.98C9.20812 79.0756 8.72186 79.0756 8.24999 78.98C7.94999 78.92 7.82999 78.83 7.83999 78.73C7.84999 78.63 8.00999 78.49 8.26999 78.33L8.72999 78.07L9.27999 77.69C10.3106 76.9087 11.1629 75.9166 11.78 74.78C12.6 73.49 13.42 71.89 14.41 70.15C16.18 67.41 17.86 64.41 19.67 61.3L20.37 60.12C20.84 59.38 21.31 58.63 21.81 57.93C22.6886 56.5752 23.7409 55.3414 24.94 54.26C25.8141 53.4611 26.8615 52.8758 28 52.55C28.4907 52.4199 28.9932 52.3395 29.5 52.31C30.0328 52.3235 30.5641 52.3736 31.09 52.46C31.4056 52.5572 31.7161 52.6707 32.02 52.8C32.3066 52.9474 32.5722 53.1324 32.81 53.35C33.1643 53.6893 33.4555 54.0888 33.67 54.53C34.1928 55.7496 34.3323 57.0993 34.07 58.4C33.7617 60.2953 33.3206 62.1665 32.75 64L32.35 65.39L32.12 66.16L31.66 67.63C31.36 68.5967 31.08 69.5667 30.82 70.54L30.63 71.27C30.63 71.43 30.58 71.43 30.57 71.44V71.5L30.45 71.75C30.2327 72.2551 30.0815 72.7862 30 73.33C29.9202 73.6586 29.9202 74.0014 30 74.33C30.06 74.49 30.15 74.69 30.3 74.7C30.4261 74.6825 30.5425 74.6225 30.63 74.53C30.8284 74.3237 31.0029 74.0956 31.15 73.85C31.48 73.32 31.77 72.75 32.1 72.09L33.44 69.39C33.88 68.39 34.44 67.53 34.93 66.57C35.85 64.65 36.78 62.74 37.75 60.84C40.0628 56.0743 42.7723 51.5115 45.85 47.2C46.8049 45.905 47.9017 44.721 49.12 43.67C50.4598 42.4423 52.1938 41.7331 54.01 41.67C54.8446 41.6608 55.6629 41.9011 56.36 42.36C56.9242 42.9084 57.2781 43.6374 57.36 44.42C57.4879 46.3028 57.2745 48.1932 56.73 50C55.91 53.17 54.98 56.2 54.14 59.25C53.2603 62.2114 52.5459 65.2194 52 68.26C51.8062 69.3288 51.7158 70.4138 51.73 71.5C51.7343 71.8981 51.8018 72.293 51.93 72.67C51.9457 72.712 51.9658 72.7522 51.99 72.79L51.15 73.49C51.1209 73.5141 51.0941 73.5409 51.07 73.57L51 73.68C51 73.68 51 73.68 51 73.56C50.93 73.33 50.82 73.29 50.6 72.99C49.93 72.38 50.21 72.63 50.2 72.51C50.454 72.0897 50.6779 71.652 50.87 71.2C51.1 70.68 51.32 70.15 51.54 69.6C51.97 68.5 52.38 67.38 52.79 66.25C53.2 65.12 53.5 64.1 53.9 63L55.1 59.59C55.91 57.31 56.73 55.04 57.59 52.79C60.29 45.79 63.01 38.87 67.22 32.4C68.1513 30.9827 69.1982 29.6448 70.35 28.4C70.89 27.81 71.42 27.29 71.93 26.83C72.4033 26.4216 72.8973 26.0377 73.41 25.68C74.1767 25.1225 75.0015 24.6498 75.87 24.27C76.8973 23.8078 78.0361 23.6516 79.15 23.82C79.5225 23.8603 79.8906 23.9339 80.25 24.04C80.68 24.25 80.4 24.76 79.71 25.64C79.02 26.52 78 27.82 76.71 29.39C75.79 30.62 74.83 31.79 73.96 33.07C73.52 33.71 73.1 34.37 72.7 35.07L71.41 37.07C69.6945 39.8029 68.1288 42.6271 66.72 45.53C63.8074 51.6222 61.2106 57.8605 58.94 64.22C58.43 65.4 58.24 66.69 57.78 67.91C57.32 69.13 56.95 70.38 56.48 71.65C56.25 72.28 56 72.93 55.71 73.65C55.57 73.99 55.42 74.34 55.22 74.73C54.9665 75.1844 54.6648 75.6102 54.32 76L54.13 76.24L53.8 76.59L53.61 76.75C53.5344 76.8218 53.4542 76.8886 53.37 76.95C53.1265 77.1244 52.869 77.2783 52.6 77.41L52.38 77.51L52.02 77.63C51.7645 77.7011 51.5036 77.7512 51.24 77.78C50.6846 77.8296 50.125 77.7579 49.6 77.57C49.3344 77.4864 49.0793 77.3723 48.84 77.23L48.39 76.91L48 76.52L47.81 76.32V76.25C47.315 75.6295 46.951 74.9151 46.74 74.15C46.464 73.1749 46.3425 72.1627 46.38 71.15C46.4337 69.643 46.6211 68.1438 46.94 66.67C47.22 65.29 47.55 63.97 47.94 62.67C48.64 60.08 49.42 57.58 50.18 55.11L50.19 55.14Z" fill="currentColor"/>
<path d="M76.41 11.4C77.92 11.07 79.41 10.79 81.06 10.59C81.87 10.49 82.68 10.41 83.55 10.38H84.23C84.56 10.38 84.88 10.38 85.23 10.38C85.8572 10.3804 86.4808 10.4748 87.08 10.66C87.4994 10.7891 87.9021 10.967 88.28 11.19C88.6817 11.3626 89.0278 11.6429 89.28 12C89.52 12.35 89.76 12.71 89.98 13.09C90.127 13.529 90.2472 13.9765 90.34 14.43L90.48 15.03C90.5395 15.2275 90.5632 15.4341 90.55 15.64C90.55 16.06 90.55 16.48 90.55 16.89C90.55 17.5 90.47 17.98 90.44 18.49C90.39 19.49 90.23 20.49 90.1 21.49C89.8 23.42 89.4 25.26 89.02 27.11C88.65 28.73 88.48 30.39 88.14 31.99L87.53 35C87.32 36 87.11 36.95 86.9 37.95C86.79 38.49 86.31 38.58 85.71 38.02C84.9346 37.2058 84.4738 36.1425 84.41 35.02C84.41 33.9067 84.41 32.8067 84.41 31.72C84.41 31.18 84.41 30.64 84.47 30.1L84.69 28.52C84.99 26.42 85.35 24.35 85.69 22.3C85.9467 21.0911 86.0508 19.8548 86 18.62C86 18.04 85.76 17.3 85.83 17.25C85.9 17.2 85.76 16.83 85.68 16.62C85.6 16.41 85.62 16.35 85.51 16.28C85.4017 16.2147 85.2835 16.1674 85.16 16.14C84.7838 16.0638 84.3962 16.0638 84.02 16.14C82.6924 16.2795 81.376 16.51 80.08 16.83C78.4078 17.2296 76.7587 17.7204 75.14 18.3C72.633 19.129 70.2009 20.1694 67.87 21.41C66.1676 22.4955 64.5405 23.6949 63 25C62.65 25.27 62.34 25.58 62 25.83C60.65 26.77 59.95 26.66 58.75 25.53C58.48 25.27 58.19 25.04 57.95 24.77C57.5501 24.3212 57.3291 23.7411 57.3291 23.14C57.3291 22.5389 57.5501 21.9588 57.95 21.51C58.5857 20.7274 59.2704 19.9859 60 19.29C60.7195 18.5796 61.5028 17.9369 62.34 17.37C64.039 16.2265 65.8282 15.2232 67.69 14.37C69.08 13.72 70.5 13.14 71.96 12.61C73.42 12.08 74.96 11.68 76.43 11.28L76.41 11.4Z" fill="currentColor"/>
</svg>
