<svg width="96" height="96" viewBox="0 0 96 96" fill="none" xmlns="http://www.w3.org/2000/svg">
<path d="M79.61 37.05C80.24 36.85 80.85 36.64 81.46 36.42L81.69 36.34C81.77 36.34 81.75 36.34 81.78 36.34H81.89H82.09C82.2438 36.3226 82.3854 36.2483 82.4872 36.1317C82.589 36.0151 82.6435 35.8647 82.64 35.71C82.6183 35.5882 82.5588 35.4762 82.47 35.39L82.33 35.23C82.2488 35.1361 82.1752 35.0357 82.11 34.93C82.0438 34.8154 81.9704 34.7052 81.89 34.6L81.52 34.15C81.28 33.8361 81.023 33.5357 80.75 33.25C80.2 32.67 79.67 32.02 79.06 31.43C77.807 30.2116 76.4704 29.0822 75.06 28.05C73.7751 27.1325 72.4396 26.2878 71.06 25.52C69.2783 24.4503 67.6387 23.1601 66.18 21.68C65.74 21.19 66.05 20.91 66.79 20.77C67.8052 20.5626 68.8537 20.583 69.86 20.83L72.86 21.76C73.8243 22.1238 74.7689 22.5377 75.69 23C77.639 23.9192 79.4774 25.0565 81.17 26.39C82.17 27.24 83.36 27.96 84.44 28.88C84.99 29.31 85.53 29.8 86.06 30.29L86.26 30.48L86.5 30.73L86.97 31.24C87.3033 31.5871 87.6108 31.9581 87.89 32.35C88.5694 33.2313 89.0349 34.2582 89.25 35.35C89.4334 36.415 89.2869 37.5106 88.83 38.49C88.3385 39.453 87.6256 40.2858 86.75 40.92C86.3122 41.2438 85.8509 41.5346 85.37 41.79L84.69 42.15L84.18 42.37C82.5507 43.1265 80.8816 43.7941 79.18 44.37C76.67 45.26 74.18 45.98 71.77 47C69.9725 47.7746 68.2197 48.6493 66.52 49.62C66.15 49.82 65.8 50.05 65.42 50.22C65.2585 50.3016 65.0914 50.3718 64.92 50.43C64.757 50.4438 64.593 50.4438 64.43 50.43C64.1652 50.4427 63.8998 50.4226 63.64 50.37C63.1679 50.2668 62.7366 50.0268 62.4 49.68C62.2144 49.5337 62.0374 49.3768 61.87 49.21C61.4 48.69 61.63 47.75 62.41 46.52C62.6851 46.0985 63.0222 45.7209 63.41 45.4L64.52 44.4C65.28 43.78 66.07 43.18 66.88 42.63C67.69 42.08 68.5 41.53 69.35 41.06C70.2 40.59 71.09 40.27 71.95 39.9C74.54 38.83 77.06 37.9 79.49 36.9L79.61 37.05Z" fill="currentColor"/>
<path d="M11.25 66.79C10.7 66.29 10.15 65.79 9.61 65.26L8.43 64.11C7.99116 63.6602 7.58982 63.1752 7.23 62.66C6.53415 61.7083 6.11379 60.5834 6.01501 59.4086C5.91623 58.2338 6.14284 57.0545 6.67 56C7.08032 55.245 7.57698 54.5403 8.15 53.9C8.48 53.61 8.82 53.28 9.15 53.03C9.48 52.78 9.77 52.59 10.08 52.38C10.39 52.17 10.68 51.97 10.89 51.88L11.57 51.52C12.02 51.28 12.48 51.08 12.94 50.88C13.3845 50.6654 13.8461 50.4881 14.32 50.35C14.79 50.19 15.25 50.04 15.71 49.92C17.56 49.38 19.38 48.97 21.16 48.56C22.74 48.19 24.27 47.74 25.76 47.26C27.71 46.74 29.62 46.26 31.62 45.87C32.25 45.77 32.36 46.17 32.08 46.87C31.6801 47.8712 31.0081 48.7406 30.14 49.38C29.23 49.98 28.3 50.55 27.38 51.08C26.4517 51.5475 25.5005 51.968 24.53 52.34C22.63 53.1 20.75 53.76 18.88 54.34C18.3248 54.5168 17.7834 54.734 17.26 54.99C16.75 55.26 16.26 55.54 15.75 55.83C15.24 56.12 14.75 56.44 14.34 56.76L14.17 56.88L14.07 56.96L13.85 57.12L13.47 57.38C13.2316 57.4912 13.0282 57.6655 12.8819 57.8841C12.7355 58.1027 12.6519 58.3572 12.64 58.62C12.6802 58.8965 12.7903 59.1581 12.96 59.38C13.0404 59.5038 13.1307 59.6208 13.23 59.73L13.43 59.93L13.81 60.25C15.08 61.25 16.38 62.35 17.73 63.37C19.79 64.89 21.9 66.45 24.15 67.79C25.85 68.89 27.69 69.79 29.41 70.89C29.79 71.15 30.19 71.35 30.55 71.64C30.71 71.78 30.86 71.9 30.99 72.03C31.0939 72.1697 31.1875 72.3167 31.27 72.47C31.4094 72.7142 31.5137 72.9768 31.58 73.25C31.6773 73.7299 31.6285 74.228 31.44 74.68C31.3677 74.904 31.2843 75.1243 31.19 75.34C30.87 75.97 29.91 76.07 28.56 75.93C28.0946 75.8904 27.6387 75.7756 27.21 75.59L25.93 75.15C25.07 74.85 24.22 74.54 23.37 74.22C22.52 73.9 21.65 73.56 20.81 73.22C19.97 72.88 19.19 72.32 18.38 71.84C17.17 71.13 15.96 70.37 14.75 69.57C13.5078 68.7752 12.3094 67.9139 11.16 66.99L11.25 66.79Z" fill="currentColor"/>
<path d="M34 55.85L43.56 57C44.72 57.13 45.89 57.1 47.05 57.26L53.17 58.08C55.17 58.36 57.26 58.62 59.29 58.99C61.1 59.3 62.93 59.46 64.73 59.67C65.89 59.78 67.07 59.9 68.23 60.08C68.8264 60.1479 69.4176 60.2548 70 60.4L70.87 60.65C71.1901 60.7594 71.5039 60.8862 71.81 61.03C72.6 61.4 72.12 61.96 71.34 62.5C70.4427 63.2084 69.3425 63.6113 68.2 63.65C65.89 63.65 63.55 63.65 61.2 63.53C60.02 63.53 58.86 63.41 57.68 63.33C56.498 63.2211 55.323 63.0475 54.16 62.81C51.2782 62.4315 48.3764 62.2245 45.47 62.19L35.89 61.48L30 61.09C27 60.89 24 60.63 21.07 60.64C18.77 60.64 16.5 60.99 14.23 61.21C13.73 61.21 13.23 61.33 12.74 61.33C10.88 61.33 10.29 60.96 9.88 59.55C9.77326 59.2222 9.68643 58.8883 9.62 58.55C9.43 57.48 10.2 56.55 11.62 56.2C13.6768 55.636 15.7896 55.3007 17.92 55.2C20.06 55.06 22.23 55.06 24.39 55.11C27.61 55.16 30.84 55.37 34.05 55.66L34 55.85Z" fill="currentColor"/>
<path d="M59.7 36C56.59 35.34 53.47 34.69 50.34 34.12C49.2 33.9 48.04 33.85 46.9 33.63L40.9 32.47C38.9 32.08 36.9 31.77 34.9 31.35C33.1227 31.0345 31.3303 30.8109 29.53 30.68C28.38 30.57 27.24 30.54 26.1 30.45L24.42 30.31L23.58 30.2L22.84 30.13C22.24 30.05 22.05 29.4 22.58 28.61C22.967 28.1094 23.4523 27.6933 24.006 27.3872C24.5598 27.0811 25.1703 26.8915 25.8 26.83C28.1962 26.6634 30.5994 26.62 33 26.7C34.19 26.75 35.39 26.82 36.58 26.96C37.7723 27.103 38.9546 27.3201 40.12 27.61C42.93 28.26 45.92 28.33 48.82 28.72C52.01 29.16 55.18 29.66 58.36 30.17L64.22 31.12C67.22 31.61 70.13 32.19 73.09 32.53C75.38 32.8 77.68 32.74 79.98 32.85C80.49 32.85 80.98 32.85 81.5 32.94C83.37 33.21 83.9 33.69 84.07 35.14C84.1262 35.4709 84.163 35.8048 84.18 36.14C84.18 37.23 83.28 38 81.87 38.14C80.8284 38.2733 79.78 38.3468 78.73 38.36C77.73 38.36 76.63 38.36 75.57 38.26C73.45 38.12 71.33 37.87 69.19 37.6C66.03 37.19 62.86 36.66 59.71 36.08L59.7 36Z" fill="currentColor"/>
</svg>
