<svg width="96" height="96" viewBox="0 0 96 96" fill="none" xmlns="http://www.w3.org/2000/svg">
<path d="M60.72 58.94C60.72 58.94 68.54 52.18 69.52 54.13C71.09 57.28 65.24 70.33 64.21 70.98C63.18 71.63 55.36 66.98 54.1 64.24C53.32 62.57 53.89 58.64 57.33 58.24C58.5064 58.0889 59.6996 58.3353 60.72 58.94Z" fill="currentColor"/>
<path d="M57.94 18.84C56.9591 19.1368 56.0082 19.5252 55.1 20C54.2445 20.4583 53.4457 21.0155 52.72 21.66C51.2769 22.8716 50.1711 24.4355 49.51 26.2C49.2748 26.8296 49.2648 27.5213 49.4817 28.1575C49.6986 28.7937 50.1291 29.3352 50.7 29.69C51.1806 30.0258 51.7537 30.204 52.34 30.2C53.1304 30.2298 53.9181 30.09 54.65 29.79C57.2234 28.6668 59.3389 26.7029 60.65 24.22C60.8773 23.7817 61.0422 23.3139 61.14 22.83V22.67V22.45V22C61.1653 21.7005 61.1653 21.3995 61.14 21.1C61.0682 19.9245 60.726 18.7815 60.14 17.76C58.7808 15.6092 56.7108 14.0028 54.29 13.22C53.0163 12.7571 51.6947 12.4384 50.35 12.27C49.0183 12.1149 47.6712 12.152 46.35 12.38C43.5438 12.9488 40.8264 13.8905 38.27 15.18C35.89 16.31 33.54 17.63 31.1 18.91C28.6166 20.3051 25.9652 21.3771 23.21 22.1C21.2687 22.5755 19.2413 22.5755 17.3 22.1C16.8165 21.9717 16.3421 21.8113 15.88 21.62C15.4213 21.4519 14.9766 21.2479 14.55 21.01C13.6123 20.5399 12.7658 19.9067 12.05 19.14C11.3042 18.3325 10.7619 17.3587 10.4679 16.2995C10.174 15.2403 10.137 14.1263 10.36 13.05C10.7821 11.2229 11.5789 9.50326 12.7 7.99999C14.04 6.16999 14.34 6.80999 14.11 8.71999C13.9714 9.94503 13.9046 11.1771 13.91 12.41C13.9098 13.0827 13.9836 13.7534 14.13 14.41C14.26 14.914 14.4839 15.389 14.79 15.81C15.0931 16.2182 15.478 16.5588 15.92 16.81C16.1867 16.963 16.4641 17.0967 16.75 17.21C17.0751 17.3461 17.4093 17.4597 17.75 17.55C18.3326 17.7492 18.9442 17.8505 19.56 17.85C20.1947 17.8933 20.8322 17.8631 21.46 17.76C24.15 17.3 27.14 15.76 30.15 14.12C33.297 12.2888 36.5569 10.6589 39.91 9.23999C41.7326 8.48262 43.6345 7.9325 45.58 7.59999C47.6297 7.29643 49.7161 7.34377 51.75 7.73999C54.1468 8.16785 56.4574 8.98533 58.59 10.16C59.698 10.781 60.7342 11.5221 61.68 12.37C62.6392 13.2526 63.4735 14.2619 64.16 15.37C65.5043 17.6794 66.1439 20.3316 66 23C65.8896 24.4284 65.4735 25.8164 64.78 27.07C64.1794 28.1945 63.4404 29.2393 62.58 30.18C60.7251 32.2757 58.373 33.8713 55.74 34.82C54.2586 35.3399 52.6729 35.4909 51.12 35.26C50.2912 35.09 49.4946 34.7896 48.76 34.37C48.0551 33.9604 47.4232 33.4366 46.89 32.82C45.7721 31.6432 45.0698 30.1331 44.89 28.52C44.812 27.7392 44.8457 26.9513 44.99 26.18C45.0366 25.8125 45.1204 25.4506 45.24 25.1C45.3242 24.7575 45.438 24.4229 45.58 24.1C46.0959 22.8283 46.8005 21.6417 47.67 20.58C48.4882 19.5419 49.4207 18.5993 50.45 17.77C51.0796 17.2465 51.7482 16.7718 52.45 16.35C53.16 15.97 53.86 15.58 54.58 15.27C56.0018 14.6091 57.4814 14.0802 59 13.69C62.0271 12.8883 65.1687 12.6076 68.29 12.86C70.7346 13.046 73.1161 13.7264 75.29 14.86C77.5236 16.095 79.3561 17.9448 80.57 20.19C81.7462 22.4275 82.2759 24.9483 82.1 27.47C82.0353 28.6912 81.8375 29.9017 81.51 31.08C81.1934 32.2425 80.7717 33.3739 80.25 34.46C78.5905 37.7037 76.354 40.6179 73.65 43.06C71.15 45.51 68.53 47.62 66.35 49.92C65.4368 50.8855 64.6102 51.9296 63.88 53.04C62.9892 54.3937 62.2672 55.8511 61.73 57.38C61.4185 58.2392 60.9392 59.0278 60.32 59.7C60.0894 60.0091 59.8353 60.2999 59.56 60.57C59.13 60.91 58.65 60.57 58.14 59.46C57.4643 57.7166 57.3696 55.8016 57.87 54C58.3194 52.2206 59.0666 50.5301 60.08 49C61.038 47.575 62.1187 46.2366 63.31 45C64.46 43.79 65.64 42.66 66.8 41.58L70.21 38.51C72.2796 36.7447 74.014 34.6207 75.33 32.24C76.4943 30.0795 76.9985 27.6245 76.78 25.18C76.5718 23.5424 75.8507 22.0127 74.72 20.81C73.4909 19.5407 71.9271 18.6461 70.21 18.23C66.1545 17.279 61.9104 17.5221 57.99 18.93L57.94 18.84Z" fill="currentColor"/>
<path d="M63.74 66.94C65.007 64.5632 66.0643 62.0804 66.9 59.52C67.0433 59.063 67.1635 58.5991 67.26 58.13L67.33 57.79V57.7C67.33 57.64 67.33 57.58 67.33 57.51C67.4358 57.2465 67.4602 56.9574 67.4 56.68C67.21 56.43 66.91 56.58 66.64 56.68L66.19 56.88H66.12L66 57L65.72 57.16L65.16 57.51L62.88 58.9L61.81 59.55L61.21 59.89L60.8 60.07C60.6556 60.1128 60.5087 60.1462 60.36 60.17C60.0546 60.2099 59.7454 60.2099 59.44 60.17C59.15 60.17 58.98 60.09 58.75 60.06L57.54 59.79L54.6 59.1C53.6753 58.8289 52.7282 58.6415 51.77 58.54C51.2 58.54 51.15 58.2 51.65 57.71C52.4979 57.0139 53.5534 56.6198 54.65 56.59C54.94 56.59 55.22 56.59 55.51 56.59L56.33 56.7L57.91 56.94C58.42 57.03 58.91 57.11 59.36 57.16H59.68L59.8 57.09L60.05 56.92L60.63 56.5L61.88 55.59C62.31 55.29 62.74 54.97 63.2 54.69L64.88 53.69C65.7515 53.1612 66.6945 52.7604 67.68 52.5C68.0914 52.3857 68.5233 52.365 68.9438 52.4394C69.3643 52.5138 69.7628 52.6814 70.11 52.93C70.7237 53.574 71.0796 54.4209 71.11 55.31C71.2106 56.3703 71.1736 57.4391 71 58.49C70.344 61.3595 69.413 64.1591 68.22 66.85C67.87 67.67 67.49 68.49 67.07 69.31L66.65 70.09C66.5011 70.377 66.3341 70.6542 66.15 70.92C65.8389 71.4363 65.4064 71.8689 64.89 72.18L64.71 72.28C64.2724 72.345 63.8276 72.345 63.39 72.28L62.73 72.1C62.51 72.02 62.3 71.92 62.08 71.83C61.686 71.6699 61.3019 71.4862 60.93 71.28C60.62 71.11 60.33 70.93 60.04 70.76C58.87 70.04 57.76 69.28 56.68 68.46C54.8911 67.2383 53.2175 65.8559 51.68 64.33C51.35 63.96 50.99 63.63 50.68 63.23C49.59 61.7 49.68 60.92 50.63 60.11C50.8426 59.9099 51.0699 59.7261 51.31 59.56C51.7252 59.3374 52.2056 59.2685 52.6666 59.3654C53.1277 59.4624 53.5396 59.719 53.83 60.09C56.1026 62.5029 58.6156 64.6776 61.33 66.58C61.63 66.79 61.94 66.99 62.24 67.18C62.54 67.37 62.91 67.57 63.1 67.68C63.1 67.68 63.1 67.68 63.1 67.75C63.1 67.82 63.1 67.75 63.16 67.75C63.16 67.75 63.16 67.82 63.22 67.65L63.59 66.94H63.74Z" fill="currentColor"/>
<path d="M56.76 76.88C56.54 76.65 57.03 76.57 57.95 76.55C58.3773 76.5658 58.8007 76.6364 59.21 76.76C59.4183 76.8934 59.6127 77.0475 59.79 77.22C59.962 77.8033 60.0924 78.3982 60.18 79C60.2705 79.3982 60.2705 79.8117 60.18 80.21C60.02 80.99 59.87 81.78 59.67 82.55C59.6235 82.7287 59.5343 82.8934 59.41 83.03C59.0089 83.5056 58.7491 84.0842 58.66 84.7C58.66 84.8 58.58 84.89 58.66 85.03C58.6521 85.7384 58.4479 86.4307 58.07 87.03C57.61 87.42 57.24 87.85 56.8 88.23C56.73 88.23 56.8 88.38 56.56 88.37C56.12 88.37 56.11 88.51 56.01 88.64C55.8673 88.8402 55.6831 89.0074 55.47 89.13C55.2862 89.1893 55.0927 89.2131 54.9 89.2C54.6296 89.1288 54.3795 88.9952 54.17 88.81C54.05 88.63 53.76 88.57 53.54 88.45C53.4594 88.4181 53.3823 88.3779 53.31 88.33C53.0753 87.7829 52.9107 87.2083 52.82 86.62L52.89 86.34C52.89 86.18 52.96 85.96 53.02 85.74C53.1016 85.4104 53.165 85.0765 53.21 84.74C53.21 84.63 53.34 84.57 53.43 84.5C53.52 84.43 53.65 83.09 53.67 83.04C53.81 82.79 53.76 82.48 54.18 82.33C54.27 82.33 54.27 82.24 54.28 82.18C54.4193 81.7054 54.6211 81.2514 54.88 80.83C54.9664 80.5993 55.0333 80.3618 55.08 80.12C55.08 80.12 55.16 80.04 55.19 80.01C55.22 79.98 55.3 79.92 55.31 79.86C55.5158 79.3054 55.6534 78.7278 55.72 78.14C55.72 78 56.26 77.45 56.23 77.29C56.2 77.13 56.85 77 56.76 76.88Z" fill="currentColor"/>
<path d="M73.45 72.13C73.18 72.2 73.29 71.76 73.58 71.02C73.7421 70.6825 73.9508 70.3694 74.2 70.09C74.3964 69.9728 74.6041 69.8756 74.82 69.8C74.94 69.8 76.15 70.05 76.59 70.11C76.9736 70.1736 77.3408 70.313 77.67 70.52C78.33 70.89 79 71.23 79.67 71.59C79.8168 71.6721 79.9379 71.7932 80.02 71.94C80.3262 72.4122 80.785 72.7652 81.32 72.94C81.3694 72.9711 81.4266 72.9875 81.485 72.9875C81.5434 72.9875 81.6006 72.9711 81.65 72.94C81.93 72.81 83.23 73.49 83.31 73.68C83.421 73.9132 83.5445 74.1402 83.68 74.36C83.81 74.57 83.93 74.81 84.05 75.03C84.17 75.25 84.17 75.03 84.12 75.29C83.98 75.78 84.12 75.77 84.24 75.88C84.3734 76.0578 84.4749 76.2574 84.54 76.47C84.5655 76.6826 84.5655 76.8974 84.54 77.11C84.4769 77.4125 84.3582 77.7007 84.19 77.96C84.0331 78.1756 83.9209 78.4204 83.86 78.68C83.86 78.77 83.78 78.88 83.75 78.95C83.0935 79.3086 82.3734 79.5362 81.63 79.62L81.31 79.5C81.12 79.43 80.87 79.35 80.63 79.25C80.15 79.04 79.63 78.8 79.57 78.77C79.51 78.74 79.42 78.58 79.38 78.45C79.34 78.32 77.99 77.76 77.96 77.71C77.75 77.47 77.43 77.4 77.43 76.89C77.43 76.79 77.37 76.77 77.32 76.74C76.914 76.405 76.5572 76.0145 76.26 75.58C76.0836 75.3917 75.8893 75.2209 75.68 75.07C75.68 75.07 75.68 74.96 75.62 74.91C75.56 74.86 75.62 74.77 75.53 74.74C75.1063 74.3031 74.6445 73.9048 74.15 73.55C74.03 73.49 73.74 72.76 73.59 72.71C73.44 72.66 73.57 72.1 73.45 72.13Z" fill="currentColor"/>
</svg>
