<svg width="96" height="96" viewBox="0 0 96 96" fill="none" xmlns="http://www.w3.org/2000/svg">
<path d="M54.06 63.21C51.84 65.77 49.63 68.34 47.34 70.87L45.64 72.77L44.76 73.71L43.47 75.13C41.47 77.4 39.47 79.22 37.47 81.13C37.03 81.43 36.54 81.82 36.14 82.04L35.14 82.25C34.59 82.37 34.04 82.51 33.49 82.65C33.3456 82.6868 33.1943 82.6868 33.05 82.65C32.8666 82.5836 32.6945 82.4891 32.54 82.37C32.3204 82.1864 32.1225 81.9784 31.95 81.75C31.1157 80.585 30.6775 79.1828 30.7 77.75C30.7024 75.7424 30.846 73.7375 31.13 71.75L31.55 68.64L31.6 68.26V68.03L31.68 67.57L31.83 66.66C32.23 64.24 32.63 61.83 33.07 59.44C33.51 57.05 33.96 54.66 34.35 52.28C34.54 51.1 34.72 49.91 34.88 48.74L35.04 47.41C35.0602 47.1237 35.0602 46.8363 35.04 46.55C35.04 46.3 35.04 45.97 34.74 45.89C34.4995 45.8041 34.2452 45.7634 33.99 45.77C33.7269 45.7551 33.4631 45.7551 33.2 45.77L31.86 45.86C29.72 46.04 27.51 46.24 25.29 46.31C22.3896 46.4596 19.4817 46.2852 16.62 45.79C13.7085 45.2218 10.9427 44.0685 8.48999 42.4C6.98999 41.3 7.80999 40.63 9.48999 40.4C11.8748 40.1148 14.2852 40.1148 16.67 40.4C19.1927 40.7962 21.7487 40.9402 24.3 40.83C26.94 40.75 29.55 40.43 32.5 40.17C33.31 40 34 40 34.69 40C35.3595 39.9977 36.0283 40.0478 36.69 40.15C37.2879 40.2314 37.8668 40.4175 38.4 40.7C38.9026 40.9891 39.3607 41.3495 39.76 41.77C40.5104 42.7133 40.9161 43.8847 40.91 45.09C40.9465 45.7562 40.9465 46.4239 40.91 47.09L40.83 48.09C40.83 48.38 40.83 48.49 40.83 48.7C40.48 51.7 39.95 54.47 39.39 57.28C38.73 60.64 38.12 64.05 37.61 67.47L37.35 69.34L37.25 70.18C37.19 70.74 37.12 71.29 37.08 71.93C37.0501 72.1657 37.0501 72.4043 37.08 72.64C37.08 72.78 37.22 72.87 37.3 72.78C37.3777 72.7255 37.4512 72.6654 37.52 72.6L38.45 71.83C38.76 71.51 39.11 71.19 39.45 70.83C39.61 70.64 39.79 70.49 39.97 70.31L41.15 68.97C42.75 67.04 44.38 65.13 45.96 63.16C48.9133 59.54 51.8267 55.8734 54.7 52.16L67.8 35.29C71.13 30.9 74.15 26.38 77.57 22C78.2932 21.0135 79.0676 20.0655 79.89 19.16C80.73 18.34 81.46 17.69 82.1 17.16C82.5922 16.6695 83.1723 16.276 83.81 16C84.7936 15.7206 85.8383 15.7415 86.81 16.06C87.1798 16.1482 87.5412 16.2686 87.89 16.42C88.37 16.69 88.38 17.29 88.17 18.25C88.031 18.843 87.8574 19.4274 87.65 20C87.6004 20.1605 87.5403 20.3175 87.47 20.47L87.21 20.9C87.03 21.21 86.82 21.53 86.6 21.9C85.94 22.9 85.25 23.78 84.6 24.82C83.95 25.86 83.19 26.75 82.46 27.71C81.04 29.71 79.53 31.61 78.04 33.62C75.04 37.56 71.96 41.62 68.75 45.62C64 51.46 59.1 57.38 54.19 63.3L54.06 63.21Z" fill="currentColor"/>
</svg>
