<svg width="96" height="96" viewBox="0 0 96 96" fill="none" xmlns="http://www.w3.org/2000/svg">
<path d="M46.76 45.64C45.22 47.05 43.76 48.52 42.22 49.97C40.68 51.42 39.29 52.97 37.88 54.51C36.86 55.65 36 56.9 35 58C33.22 60 31.48 62.09 29.73 64.16C27.98 66.23 26.24 68.34 24.66 70.55C23.95 71.55 23.26 72.55 22.6 73.55L20.72 76.63C19.92 77.94 19.12 79.26 18.36 80.63C17.97 81.3 17.57 81.96 17.15 82.63L16.51 83.63C16.28 83.95 15.98 84.22 15.72 84.52C15.01 85.24 14.79 84.99 14.61 83.98C14.459 83.3247 14.3985 82.6518 14.43 81.98C14.4769 81.1299 14.6592 80.2927 14.97 79.5C15.27 78.75 15.57 78 15.89 77.26L16.89 75.07C17.5546 73.604 18.2922 72.1722 19.1 70.78C20.7129 67.9894 22.5207 65.3161 24.51 62.78C25.11 62.02 25.68 61.23 26.24 60.41C26.8 59.59 27.4 58.72 28 57.91C29.15 56.3 30.29 54.65 31.56 53.13L33.63 50.6C34.34 49.77 35.07 48.97 35.79 48.15C36.51 47.33 37.23 46.52 37.97 45.72L40.22 43.35L41.61 41.9L43 40.49C44 39.56 44.89 38.59 45.87 37.68C47.37 36.31 48.87 34.9 50.38 33.59L52.66 31.59C53.43 30.94 54.2 30.28 54.95 29.59C57.28 27.5 59.44 25.26 61.85 23.18C62.39 22.73 62.85 22.25 63.46 21.82C64.2122 21.2184 65.1149 20.8345 66.07 20.71C66.4319 20.7112 66.7893 20.7894 67.1187 20.9394C67.448 21.0894 67.7416 21.3078 67.98 21.58C68.2844 21.8446 68.5748 22.125 68.85 22.42C69.68 23.42 69.31 24.91 68.11 26.19C64.45 29.99 60.22 33.51 56.11 37.25L53.79 39.33L51.49 41.46C49.95 42.87 48.42 44.31 46.9 45.76L46.76 45.64Z" fill="currentColor"/>
<path d="M61.54 29.08C61.54 29.08 55.67 48.74 68.29 51.08C80.67 53.34 76.49 20.08 81.38 11.95C81.51 11.73 47.81 8.10999 40.26 22.21C38.81 24.93 37.93 28.48 40.44 30.88C42.95 33.28 46.4 34 49.55 34C55.38 34.11 61.35 29.72 61.54 29.08Z" fill="currentColor"/>
</svg>
