<svg width="96" height="96" viewBox="0 0 96 96" fill="none" xmlns="http://www.w3.org/2000/svg">
<path d="M15.71 48.62C16.1967 50.9933 16.6633 53.3767 17.11 55.77C17.28 56.64 17.49 57.5 17.62 58.38C18.06 61.49 18.38 64.62 18.55 67.77C18.67 69.16 18.66 70.57 18.7 71.95C18.7 72.84 18.7 73.75 18.61 74.64C18.533 75.5389 18.3757 76.4291 18.14 77.3C18 77.84 17.68 77.7 17.37 77.19C16.9581 76.4773 16.7312 75.6729 16.71 74.85L16.54 72.26C16.43 71.39 16.33 70.53 16.25 69.67C16.17 68.81 16.08 67.93 16.02 67.06C15.96 66.19 15.87 65.3 15.8 64.42C15.5411 62.2553 15.1368 60.1104 14.59 58C14.09 55.65 13.59 53.28 13.09 50.92C12.76 49.47 12.44 48.01 12.09 46.56C11.55 44.37 11.09 42.14 10.45 39.97C10 38.28 9.45 36.65 8.95 34.97C8.85 34.6 8.72 34.24 8.65 33.86C8.58 33.48 8.57 33.2 8.56 32.94C8.5654 32.7192 8.60245 32.5003 8.67 32.29C8.76395 31.9692 8.96516 31.6903 9.24 31.5C9.35266 31.4036 9.47307 31.3166 9.6 31.24C9.99 31.04 10.52 31.54 11.07 32.47C11.72 33.88 12.21 35.36 12.75 36.87C12.99 37.63 13.24 38.39 13.49 39.15L14.1 41.5C14.7 43.85 15.24 46.22 15.79 48.6L15.71 48.62Z" fill="currentColor"/>
<path d="M27.92 24.47C22.1533 26.3662 16.5513 28.7307 11.17 31.54L10.48 31.93C10.3898 31.9774 10.303 32.0309 10.22 32.09C10.16 32.16 10.01 32.2 10.05 32.3L10.16 32.58C10.24 32.77 10.16 32.64 10.43 33.43C11.61 37.43 12.49 41.33 13.34 45.29C14.19 49.25 14.94 53.2 15.63 57.17C16.23 60.7 16.84 64.24 17.44 67.74C18.16 72.24 18.94 76.81 18.61 81.47C18.51 82.93 17.61 82.7 16.73 81.54C15.5109 79.8386 14.7155 77.8707 14.41 75.8C13.07 66.8 11 57.91 9.49 48.8C9 46.19 8.38 43.59 7.66 41C7.28 39.72 6.91 38.41 6.49 37.15C6.29 36.52 6.1 35.87 5.87 35.26L5.52 34.26C5.34 33.7 5.1 33.18 4.91 32.65L4.76 31.43L4.66 30.6L4.86 30.66V30.57V30.47L4.91 30.28C4.93462 30.1478 4.98564 30.022 5.06 29.91C5.43615 29.4349 5.88905 29.0259 6.4 28.7C6.94 28.35 7.49 28 8.04 27.7L9.13 27C10.54 26.21 11.97 25.48 13.41 24.78C16.28 23.38 19.21 22.11 22.17 20.93C25.81 19.49 29.52 18.21 33.27 17.07C38.9504 15.375 44.7275 14.0225 50.57 13.02C52.83 12.62 55.07 12.2 57.32 11.83C59.5701 11.4379 61.8403 11.1709 64.12 11.03C65.12 10.97 66.12 10.88 67.12 10.88C67.9204 10.8688 68.7203 10.9291 69.51 11.06C70.0569 11.1469 70.5932 11.2911 71.11 11.49C71.4759 11.6283 71.8104 11.8385 72.0938 12.1081C72.3772 12.3778 72.6037 12.7014 72.76 13.06C72.9404 13.3613 73.0911 13.6795 73.21 14.01C73.46 15.06 71.91 15.79 69.29 16.2C61.56 17.28 53.6 18.02 45.59 19.7C39.6223 20.9282 33.7453 22.562 28 24.59L27.92 24.47Z" fill="currentColor"/>
<path d="M62.83 70.12C59.35 70.63 55.83 71.28 52.41 72.12C51.15 72.43 49.93 72.87 48.68 73.2C46.46 73.74 44.24 74.35 42.03 74.97C39.82 75.59 37.59 76.2 35.41 76.97C33.46 77.6 31.56 78.38 29.7 79.18C27.3003 80.2426 24.8313 81.1414 22.31 81.87C21.51 82.09 21.44 81.68 21.84 80.93C22.446 79.7772 23.3039 78.7758 24.35 78L26.06 76.86L26.91 76.29L27.82 75.83C29.02 75.21 30.25 74.64 31.48 74.08C33.9609 72.9567 36.5131 71.998 39.12 71.21C42.28 70.36 45.41 69.01 48.61 68.04C52.13 66.99 55.71 66.1 59.31 65.33C61.53 64.85 63.77 64.46 66.01 64.08C69.41 63.52 72.85 63.17 76.3 62.92L80.3 62.55C80.98 62.48 81.67 62.47 82.36 62.42C83.05 62.37 83.74 62.42 84.45 62.56C85.0791 62.6099 85.7039 62.7035 86.32 62.84C87.2104 62.9925 88.0392 63.3948 88.71 64C88.9143 64.2317 89.0621 64.5076 89.1419 64.806C89.2218 65.1044 89.2314 65.4173 89.17 65.72C89.1485 66.0346 89.0949 66.3463 89.01 66.65C88.9232 66.8777 88.7892 67.0845 88.6168 67.2569C88.4445 67.4292 88.2377 67.5632 88.01 67.65C87.4698 67.8821 86.8879 68.0012 86.3 68C85.3 68 84.3 68.1 83.22 68.2C82.1554 68.3403 81.0837 68.4205 80.01 68.44C77.83 68.55 75.56 68.71 73.26 68.95C69.84 69.24 66.34 69.65 62.86 70.26L62.83 70.12Z" fill="currentColor"/>
<path d="M66.18 42.88C63.5248 45.9132 61.0314 49.0843 58.71 52.38C57.86 53.59 57.17 54.89 56.38 56.11L56.1 56.55L55.74 57.12C55.42 57.65 55.14 58.22 54.82 58.72C54.0716 59.1026 53.3469 59.5301 52.65 60C52.5872 60.0491 52.5203 60.0926 52.45 60.13H52.18H51.63C51.25 60.13 50.73 60.13 50.29 60.13L49.87 59.98C49.7298 59.8751 49.5962 59.7615 49.47 59.64L48.69 58.96L47.92 58.28C47.7092 58.0474 47.4819 57.8301 47.24 57.63L45.48 56.1L42 52.8C40.29 51.17 38.51 49.6 36.77 48.03C35.66 47.03 34.51 46.03 33.41 45.03C32.31 44.03 31.26 43 30.19 41.9C29.54 41.24 29.82 41.05 30.7 41.2C32.0898 41.4695 33.4206 41.9842 34.63 42.72C37.23 44.42 39.74 46.2 42.19 48.05C44.64 49.9 46.97 51.89 49.26 53.87L49.85 54.36C49.98 54.5 49.97 54.51 50.04 54.58L50.21 54.76L50.3 54.85C50.3 54.85 50.37 55.01 50.4 55.08C50.5033 55.0975 50.6041 55.1277 50.7 55.17L50.85 55.28H50.93C50.93 55.28 50.93 55.28 50.93 55.2C51.01 55.01 51.12 54.82 51.21 54.62C51.21 54.62 52.12 52.97 52.78 51.96C55.0665 48.3895 57.5434 44.9445 60.2 41.64C61.82 39.64 63.52 37.64 65.26 35.69C67.9277 32.7657 70.7553 29.9914 73.73 27.38C74.89 26.38 76.01 25.33 77.18 24.33C78.3638 23.3008 79.6429 22.3866 81 21.6C81.5812 21.2339 82.1821 20.9001 82.8 20.6C83.632 20.141 84.5604 19.8841 85.51 19.85C85.8124 19.8724 86.1069 19.9567 86.3753 20.0978C86.6437 20.2388 86.8801 20.4336 87.07 20.67C87.2734 20.8753 87.4606 21.0959 87.63 21.33C88.09 22.12 87.41 23.17 86.07 24.15C84.07 25.57 82.24 27.32 80.25 28.9C78.26 30.48 76.37 32.31 74.48 34.19C73.1 35.6 71.69 37.01 70.32 38.47C68.95 39.93 67.61 41.47 66.32 43L66.18 42.88Z" fill="currentColor"/>
</svg>
