<svg width="96" height="96" viewBox="0 0 96 96" fill="none" xmlns="http://www.w3.org/2000/svg">
<path d="M80.81 56C80.97 55.66 81.13 55.32 81.26 55C81.32 54.83 81.4 54.66 81.45 54.5L81.54 54.25C81.54 54.17 81.54 54.07 81.54 54.1C81.6786 53.9434 81.7504 53.7388 81.74 53.53C81.74 53.38 81.54 53.39 81.43 53.35H81.35C81.29 53.35 81.24 53.25 81.17 53.23C81.1 53.21 80.72 53.08 80.48 53.01C79.98 52.86 79.48 52.74 78.92 52.62C77.85 52.38 76.73 52.19 75.61 52.03C74.6145 51.9106 73.6127 51.8504 72.61 51.85C71.32 51.85 69.92 52 68.61 51.15C68.2 50.89 68.51 50.15 69.01 49.42C69.2555 49.0344 69.5367 48.6728 69.85 48.34C69.9669 48.1813 70.1169 48.05 70.2895 47.955C70.4622 47.8601 70.6534 47.8038 70.85 47.79C73.4307 47.6993 76.0133 47.8972 78.55 48.38C79.321 48.5446 80.1032 48.6515 80.89 48.7H81.5L82.24 48.79C82.8638 48.8745 83.4794 49.0117 84.08 49.2L84.54 49.45C85.1894 49.7208 85.7113 50.2284 86 50.87C86.2869 51.4975 86.4337 52.18 86.43 52.87C86.4179 53.5772 86.3307 54.2812 86.17 54.97C86.04 55.47 85.88 55.97 85.72 56.41C85.2993 57.5104 84.8151 58.5856 84.27 59.63C83.46 61.18 82.48 62.63 81.54 64.07C80.82 65.2 80.25 66.44 79.42 67.58C79.2552 67.8416 79.0605 68.0832 78.84 68.3C77.98 69.09 77.44 69.06 76.57 68.3C76.362 68.1329 76.1649 67.9525 75.98 67.76C75.7017 67.4857 75.5098 67.136 75.4281 66.7539C75.3463 66.3718 75.3783 65.9741 75.52 65.61C75.7072 65.109 75.9209 64.6183 76.16 64.14C76.41 63.69 76.66 63.25 76.93 62.81L78.57 60.14C79.3846 58.8164 80.0967 57.4323 80.7 56H80.81Z" fill="currentColor"/>
<path d="M30.91 39.4C31.2149 39.3064 31.5256 39.2329 31.84 39.18H32.04H32.1H32.22C32.2622 39.1725 32.3022 39.1558 32.3371 39.1311C32.372 39.1064 32.401 39.0742 32.4221 39.0369C32.4431 38.9996 32.4556 38.9582 32.4587 38.9155C32.4618 38.8728 32.4554 38.8299 32.44 38.79C32.4132 38.7153 32.3762 38.6446 32.33 38.58C32.21 38.34 32.09 38.1 31.99 37.85C31.2194 35.9507 30.2401 34.1429 29.07 32.46C28.5407 31.7128 27.9628 31.0013 27.34 30.33C26.54 29.48 25.68 28.67 24.95 27.77C24.74 27.51 24.95 27.22 25.45 27.09C25.77 27.0149 26.1016 27.0036 26.4259 27.0568C26.7502 27.11 27.0608 27.2266 27.34 27.4C28.4045 28.1122 29.4079 28.9116 30.34 29.79C31.2442 30.6866 32.0305 31.6947 32.68 32.79C33.46 34.12 34.51 35.34 35.29 36.73L35.64 37.37L36.04 38.13C36.2131 38.5973 36.3274 39.0844 36.38 39.58C36.3611 39.827 36.3175 40.0716 36.25 40.31C36.1596 40.5407 36.0527 40.7646 35.93 40.98C35.6679 41.417 35.3292 41.8032 34.93 42.12C34.72 42.2628 34.5226 42.4234 34.34 42.6L33.83 42.92C32.84 43.4597 31.7847 43.8697 30.69 44.14C29.12 44.6 27.53 44.85 25.98 45.21C24.78 45.48 23.63 45.97 22.4 46.29C22.1364 46.378 21.8653 46.4416 21.59 46.48C20.59 46.53 20.2 46.2 19.98 45.06C19.93 44.8 19.87 44.55 19.84 44.29C19.7819 43.9022 19.8391 43.5058 20.0044 43.1502C20.1698 42.7946 20.436 42.4955 20.77 42.29C21.6722 41.7845 22.642 41.4107 23.65 41.18C24.65 40.92 25.65 40.71 26.65 40.48C28.0792 40.1984 29.4862 39.814 30.86 39.33L30.91 39.4Z" fill="currentColor"/>
<path d="M30.24 55.22C30.24 57.11 29.93 59.02 29.8 60.92C29.75 61.61 29.88 62.29 29.8 62.99C29.55 65.43 29.26 67.88 29.08 70.32C28.9489 71.3982 28.8921 72.484 28.91 73.57C29.017 74.9721 28.8851 76.3821 28.52 77.74C28.38 78.17 27.71 78.11 26.97 77.74C26.1566 77.4168 25.4981 76.7941 25.13 76C24.43 73.28 23.61 70.55 24.27 67.7C24.3679 65.9842 24.3009 64.263 24.07 62.56C24 60.67 24 58.77 24 56.87C24 55.7 24.07 54.53 24.06 53.37C24.1019 51.6017 24.0485 49.8325 23.9 48.07C23.8002 47.3921 23.6464 46.7233 23.44 46.07L23.13 45.07C23.05 44.73 23 44.4 22.95 44.07C22.9 43.74 22.83 43.49 22.82 43.19C22.82 43.05 22.82 42.92 22.82 42.8C22.862 42.6865 22.9121 42.5763 22.97 42.47C23.0786 42.2822 23.2171 42.1133 23.38 41.97C23.7611 41.6621 24.2102 41.4495 24.69 41.35C24.95 41.28 25.2 41.19 25.45 41.14C25.906 41.0952 26.3659 41.1629 26.7896 41.3372C27.2133 41.5116 27.5877 41.7872 27.88 42.14C29.88 44.41 29.98 46.96 30.21 49.5C30.35 51.39 30.32 53.31 30.37 55.21L30.24 55.22Z" fill="currentColor"/>
<path d="M34.44 40.54C34.4772 40.4657 34.4944 40.383 34.49 40.3C34.4944 40.2367 34.4944 40.1733 34.49 40.11C34.4408 39.9721 34.3806 39.8383 34.31 39.71L34 39.14C33.232 37.6257 32.3669 36.1626 31.41 34.76C30.73 33.76 29.88 32.86 29.15 31.93C28.6373 31.2717 28.0828 30.6471 27.49 30.06C27.38 29.94 27.16 29.76 27.15 29.74C27.1018 29.6818 27.0482 29.6282 26.99 29.58C26.865 29.4676 26.7137 29.3885 26.55 29.35C26.3134 29.3261 26.0747 29.3676 25.86 29.47L25.7 29.55C25.59 29.61 25.48 29.7 25.36 29.77C25.24 29.84 24.91 30.1 24.68 30.27C23.7386 31.0574 22.8438 31.8988 22 32.79C20.5666 34.2051 19.2303 35.7152 18 37.31C17.2 38.31 16.45 39.38 15.62 40.38L14.98 41.13L14.24 41.8C13.7267 42.24 13.1967 42.66 12.65 43.06C11.93 43.55 11.57 43.06 11.43 42.06C11.3488 41.4435 11.3221 40.8211 11.35 40.2C11.3658 39.8311 11.4059 39.4636 11.47 39.1C11.47 38.91 11.56 38.74 11.59 38.55C11.6668 38.3848 11.7536 38.2245 11.85 38.07C13.26 35.86 14.69 33.62 16.34 31.45C17.1539 30.3205 18.0712 29.2693 19.08 28.31C20.1813 27.242 21.395 26.2965 22.7 25.49C23.8376 24.697 25.1751 24.2396 26.56 24.17C28.56 24.22 30.56 25.8 31.39 26.57C32.3987 27.465 33.3318 28.4416 34.18 29.49C35.3415 30.9608 36.423 32.493 37.42 34.08C37.91 34.87 38.42 35.64 38.9 36.44L39.78 37.9C40.14 38.51 40.47 39.12 40.78 39.74C41.1546 40.4512 41.4658 41.1941 41.71 41.96C41.9026 42.6084 41.987 43.2841 41.96 43.96C41.9781 44.2656 41.9512 44.5722 41.88 44.87C41.7081 45.1643 41.4885 45.4279 41.23 45.65C40.6952 46.0464 40.0866 46.3319 39.44 46.49C38.3086 46.7615 37.1528 46.9189 35.99 46.96C35.38 46.96 34.77 46.96 34.17 46.96H32.87C31.19 46.96 29.53 46.96 27.87 47.06C25.3989 47.2732 22.9562 47.739 20.58 48.45C20.08 48.59 19.58 48.8 19.13 48.93L18.51 49.08C18.3368 49.0894 18.1632 49.0894 17.99 49.08C17.7022 49.0829 17.4166 49.0285 17.15 48.92C16.8921 48.8043 16.6581 48.6416 16.46 48.44C16.21 48.16 15.96 47.81 15.72 47.5C15.48 47.19 15.25 46.98 15.09 46.76C14.82 46.39 14.8 45.98 14.93 45.13C14.98 44.94 14.99 44.61 15.1 44.5C15.204 44.3405 15.321 44.19 15.45 44.05C15.7402 43.7251 16.0772 43.4454 16.45 43.22C17.0194 42.8641 17.6264 42.5723 18.26 42.35C18.88 42.12 19.5 41.91 20.12 41.74C21.3721 41.4087 22.6449 41.1615 23.93 41C26.3807 40.6816 28.8487 40.5146 31.32 40.5H33.95V40.56C33.95 40.61 34.22 40.66 34.19 40.56L34.44 40.54Z" fill="currentColor"/>
<path d="M27.88 21.51C25.88 21.41 23.88 21.28 21.88 21.14C21.15 21.09 20.43 21.14 19.7 21.09C18.42 20.99 17.14 20.67 15.87 20.45C14.6 20.23 13.33 19.97 12.07 19.68L8.74003 19C7.24271 18.7476 5.83091 18.1293 4.63003 17.2C4.26003 16.89 4.53003 16.66 5.06003 16.52C5.70965 16.3357 6.38863 16.278 7.06003 16.35C9.66003 16.82 12.47 16.7 15.28 17.02C16.1453 17.09 17.0148 17.09 17.88 17.02C18.7535 16.9271 19.6316 16.8837 20.51 16.89C22.44 16.89 24.38 16.89 26.32 16.89C27.51 16.89 28.71 16.84 29.9 16.76C31.7144 16.6973 33.5238 16.5337 35.32 16.27C36.6852 15.9501 38.0228 15.5221 39.32 14.99C39.61 14.89 39.89 14.73 40.18 14.65C41.3 14.43 41.71 14.76 42.18 16.19C42.28 16.51 42.41 16.83 42.49 17.19C42.6489 17.6545 42.6529 18.158 42.5015 18.6249C42.35 19.0919 42.0513 19.4972 41.65 19.78C39.29 21.16 36.65 21.42 33.93 21.61C31.93 21.73 29.93 21.7 27.93 21.7L27.88 21.51Z" fill="currentColor"/>
<path d="M69.58 38C69.71 36.25 70.03 34.49 70.21 32.72C70.27 32.08 70.21 31.44 70.21 30.79C70.49 28.51 70.79 26.22 70.97 23.93C71.0972 22.9353 71.1473 21.9324 71.12 20.93C70.9968 19.6191 71.0982 18.2968 71.42 17.02C71.55 16.61 72.22 16.64 72.98 16.94C73.7923 17.2105 74.4691 17.7835 74.87 18.54C75.63 21.12 76.46 23.71 75.8 26.42C75.51 28.03 75.9 29.67 75.93 31.3C75.93 33.1 75.93 34.9 75.83 36.71L75.66 40C75.58 41.68 75.39 43.37 75.44 45.06C75.4789 45.7315 75.5624 46.3996 75.69 47.06L75.89 48.06C75.89 48.39 75.89 48.73 75.89 49.06C75.91 49.353 75.91 49.647 75.89 49.94C75.8798 50.0728 75.8529 50.2039 75.81 50.33C75.7448 50.4357 75.6712 50.536 75.59 50.63C75.4459 50.7976 75.2773 50.9426 75.09 51.06C74.6562 51.2777 74.1751 51.3842 73.69 51.37C73.42 51.37 73.15 51.37 72.9 51.37C72.4621 51.3033 72.0426 51.1473 71.6676 50.9116C71.2926 50.6759 70.97 50.3656 70.72 50C69.15 47.77 69.28 45.57 69.25 43.24C69.25 41.52 69.39 39.77 69.43 38.01L69.58 38Z" fill="currentColor"/>
<path d="M90.8801 51.73C90.4267 53.2971 89.7533 54.792 88.8801 56.17C88.4501 56.95 88.2701 57.17 88.0001 57.62L87.2201 58.78C86.1501 60.31 85.1201 61.84 83.9801 63.31C83.1895 64.4361 82.3418 65.5208 81.4401 66.56C80.7022 67.3573 79.9067 68.0993 79.0601 68.78C78.8296 68.9693 78.5893 69.1463 78.34 69.31C78.0595 69.5047 77.7691 69.685 77.4701 69.85C76.7589 70.2203 75.9797 70.4415 75.1801 70.5C74.6407 70.4771 74.108 70.3726 73.6001 70.19C73.1253 70.0079 72.6725 69.7731 72.2501 69.49C71.6237 69.0565 71.0319 68.5751 70.4801 68.05C69.4805 67.1046 68.5356 66.103 67.6501 65.05C66.3401 63.42 65.0201 61.85 63.7301 60.29C62.8901 59.29 62.0401 58.29 61.2301 57.29L60.6201 56.54L60.1001 55.73L59.1001 54.08C58.6901 53.39 59.1001 53.08 60.1001 53.16C60.6918 53.2075 61.2759 53.325 61.8401 53.51C62.1815 53.622 62.5155 53.7556 62.8401 53.91L63.3501 54.18C63.4974 54.2948 63.6376 54.4183 63.7701 54.55C65.6601 56.45 67.4601 58.38 69.2201 60.27C70.0901 61.22 70.9901 62.13 71.7801 63.09C72.5306 63.9915 73.3354 64.8464 74.1901 65.65C74.2958 65.7521 74.4095 65.8458 74.5301 65.93L74.6801 66.07C74.7754 66.1536 74.894 66.2059 75.0201 66.22C75.2309 66.2358 75.4394 66.1675 75.6001 66.03C76.0023 65.7343 76.3742 65.3994 76.7101 65.03C77.4976 64.2296 78.2388 63.3849 78.9301 62.5C80.0001 61.23 81.0001 59.83 81.9401 58.39C82.4201 57.66 82.8701 56.92 83.3201 56.17L84.4501 54.17C84.8072 53.6261 85.0992 53.0421 85.3201 52.43C85.4101 52.17 85.1701 52.01 84.9801 51.96C84.7695 51.8886 84.5514 51.8416 84.3301 51.82C83.9201 51.76 83.4901 51.73 83.0401 51.7H81.8701H80.6301C78.9601 51.7 77.2901 51.7 75.6301 51.77C73.0301 51.85 70.4501 52.21 67.7401 52.19C67.1401 52.19 66.5401 52.19 65.9201 52.19C65.0603 52.1506 64.2362 51.835 63.5701 51.29C63.3536 51.0929 63.1888 50.8456 63.0901 50.57C63.0181 50.2248 62.9846 49.8726 62.9901 49.52C62.9762 49.2468 62.9762 48.9732 62.9901 48.7C62.9901 48.32 63.3101 48.07 63.8301 47.6C64.045 47.3614 64.3275 47.194 64.6401 47.12C64.9456 47.0189 65.2605 46.9485 65.5801 46.91C69.6801 46.64 74.2801 46.45 79.09 46.35H81.4001C82.2701 46.35 82.6401 46.35 84.4801 46.35C85.8446 46.4108 87.1926 46.6736 88.4801 47.13C88.6201 47.19 88.7801 47.24 88.9101 47.31L89.2601 47.54C89.4964 47.6839 89.7175 47.8514 89.9201 48.04L90.4001 48.73L90.5301 48.92H90.59V48.97V49.06C90.6557 49.1776 90.7093 49.3016 90.7501 49.43C90.986 50.1551 91.071 50.9208 91.0001 51.68L90.8801 51.73Z" fill="currentColor"/>
<path d="M77.65 78.94C75.9 78.69 74.13 78.52 72.36 78.44C71.71 78.44 71.07 78.54 70.42 78.51C69.28 78.51 68.12 78.34 66.96 78.3C65.8 78.26 64.64 78.3 63.5 78.36C62.4892 78.4479 61.4863 78.6117 60.5 78.85C59.25 79.16 58.02 79.54 56.73 79.78C56.33 79.85 56.23 79.53 56.41 79.05C56.6651 78.3925 57.1335 77.8397 57.74 77.48C60.2242 76.1579 62.9409 75.3294 65.74 75.04C67.41 74.93 69.09 74.35 70.8 74.28C72.67 74.15 74.54 74.15 76.41 74.19C77.57 74.19 78.72 74.28 79.87 74.34C81.61 74.44 83.35 74.65 85.1 74.75C85.78 74.75 86.46 74.75 87.16 74.75C87.8651 74.6912 88.5727 74.6679 89.28 74.68C89.6 74.68 89.93 74.68 90.28 74.68C91.46 74.94 91.74 75.46 91.47 76.92C91.41 77.25 91.37 77.58 91.28 77.92C91.1883 78.3756 90.9797 78.7996 90.6747 79.1502C90.3696 79.5008 89.9786 79.7661 89.54 79.92C87.3243 80.2151 85.0754 80.151 82.88 79.73C81.18 79.51 79.43 79.25 77.67 79.11L77.65 78.94Z" fill="currentColor"/>
</svg>
