<svg width="96" height="96" viewBox="0 0 96 96" fill="none" xmlns="http://www.w3.org/2000/svg">
<path d="M61.79 45.35L61.1 45.82C60.89 45.99 60.7 46.19 60.49 46.38L59.25 47.52L58.19 48.85L57.65 49.53C57.487 49.7685 57.3368 50.0155 57.2 50.27C56.8 51.03 56.43 51.78 56.09 52.57L55.17 54.69C55.008 55.0435 54.8807 55.4119 54.79 55.79L54.46 56.92C54.0041 58.4513 53.6894 60.0212 53.52 61.61C53.42 63.0416 53.42 64.4784 53.52 65.91C53.44 66.83 53.52 67.75 53.52 68.69C53.5375 69.6354 53.4907 70.5809 53.38 71.52C53.3 72.12 52.83 72.13 52.2 71.72C51.339 71.1546 50.6641 70.3475 50.26 69.4C48.51 65.56 49 61.26 50 57.23C50.2 56.63 50.35 56.02 50.49 55.4C50.63 54.78 50.71 54.15 50.93 53.54L51.47 51.68C51.629 51.0483 51.8536 50.435 52.14 49.85C52.7121 48.5377 53.4121 47.285 54.23 46.11C54.65 45.52 55.02 44.91 55.49 44.36L57 42.78L57.45 42.3C57.61 42.14 57.79 42.01 57.95 41.87L58.95 41.03C59.3 40.76 59.62 40.46 59.95 40.22L61.07 39.53C62.1955 38.8339 63.3801 38.2383 64.61 37.75C65.2 37.48 65.85 37.33 66.46 37.11C67.0677 36.8791 67.6888 36.6854 68.32 36.53C69.32 36.29 70.25 35.92 71.23 35.72L72.71 35.35C73.21 35.23 73.71 35.2 74.23 35.12C74.6841 35.0541 75.1415 35.0141 75.6 35C77.29 35.1 77.79 35.55 77.94 36.93C77.94 37.24 78.02 37.56 78.02 37.87C78.0048 38.3716 77.8223 38.8536 77.5016 39.2396C77.1808 39.6255 76.7403 39.8932 76.25 40C73.3143 40.619 70.4136 41.3934 67.56 42.32C65.5088 43.065 63.5909 44.1353 61.88 45.49L61.79 45.35Z" fill="currentColor"/>
<path d="M75.67 42.7C76.1618 41.9936 76.6061 41.2553 77 40.49C77.2148 40.0994 77.4767 39.7367 77.78 39.41C77.91 39.24 78.1 39.02 78.18 38.89C78.2184 38.794 78.2688 38.7033 78.33 38.62V38.47C78.33 38.26 78.1 38.17 78 38.02V38L77.85 37.85C77.73 37.75 77.63 37.65 77.5 37.55C77.37 37.45 77.02 37.16 76.76 36.96C76.23 36.58 75.68 36.2 75.11 35.84C73.9492 35.1109 72.7509 34.4433 71.52 33.84C70.4149 33.3171 69.2716 32.8792 68.1 32.53C66.64 32.05 65.17 31.39 63.81 30.82C63.47 30.67 63.39 30.31 63.88 29.82C64.5854 29.2599 65.4501 28.9378 66.35 28.9C67.2368 28.9082 68.1221 28.975 69 29.1C69.81 29.32 70.61 29.58 71.4 29.87C72.9789 30.4309 74.4994 31.1443 75.94 32C76.81 32.53 77.75 33 78.7 33.49C79.18 33.75 79.7 34 80.15 34.32C80.29 34.4 80.36 34.46 80.55 34.56L81.05 34.94C81.3737 35.2008 81.6748 35.4885 81.95 35.8C82.3273 36.2159 82.6195 36.7017 82.81 37.23C82.9451 37.7717 82.9451 38.3383 82.81 38.88L82.64 39.69L82.56 40.09V40.39C82.49 40.8 82.44 41.21 82.34 41.62C82.0625 42.3936 81.7283 43.1456 81.34 43.87C80.6592 45.1356 79.9115 46.364 79.1 47.55C77.91 49.33 76.57 50.94 75.45 52.66C75.0279 53.3294 74.6536 54.0278 74.33 54.75L73.84 55.84C73.66 56.19 73.47 56.53 73.28 56.84C73.09 57.15 72.98 57.45 72.78 57.73C72.01 58.73 71.36 58.79 70.11 58.24C69.82 58.12 69.53 58.01 69.26 57.87C68.8252 57.6332 68.4767 57.2645 68.2646 56.8171C68.0526 56.3697 67.988 55.8665 68.08 55.38C68.2049 54.6215 68.3956 53.8754 68.65 53.15C68.8677 52.4424 69.1842 51.7691 69.59 51.15C70.3313 49.9257 71.1357 48.7408 72 47.6C73.27 45.89 74.54 44.29 75.55 42.6L75.67 42.7Z" fill="currentColor"/>
<path d="M36.31 44.62C36.9 45.14 37.51 45.62 38.08 46.17L39.66 47.89C39.92 48.18 40.2 48.45 40.44 48.75L41.12 49.69L42.46 51.56C43.02 52.56 43.67 53.42 44.19 54.4C44.71 55.38 44.93 56.19 45.3 57.08L45.81 58.43L46.18 59.81L46.89 62.55L47.33 65.32C47.46 66.13 47.66 66.94 47.73 67.75C47.8 68.56 48.01 69.37 48.03 70.18C48.03 70.7 48.11 71.18 48.13 71.74C48.15 72.3 48.13 72.74 48.08 73.3C48.0199 74.3427 47.8997 75.3811 47.72 76.41C47.59 77.05 47.12 76.96 46.52 76.41C45.7232 75.718 45.123 74.8281 44.78 73.83C44.51 72.83 44.3 71.83 43.94 70.92L43.7 70.21C43.6488 69.9725 43.6121 69.732 43.59 69.49L43.43 68.03C43.32 67.03 43.08 66.13 42.96 65.16L42.76 63.7L42.45 62.27C42.2355 61.1278 41.8476 60.0251 41.3 59L40.49 57.41C40.23 56.87 39.85 56.41 39.56 55.9C39.27 55.39 38.91 54.78 38.56 54.26L37.37 52.74C37.16 52.49 36.99 52.22 36.76 51.99L36.08 51.3C35.62 50.85 35.18 50.37 34.7 49.94L32.78 48.4C32.13 47.92 31.42 47.54 30.78 47.1C30.2562 46.7748 29.7117 46.4842 29.15 46.23C28.59 45.98 28.05 45.67 27.47 45.45C26.3205 44.9894 25.1326 44.6313 23.92 44.38C23.45 44.29 22.97 44.22 22.5 44.16C22.03 44.1 21.5 44.16 21.06 44.16H19.61L18.19 44.26C17.7784 44.3079 17.3644 44.3313 16.95 44.33C15.4 44.33 14.95 44 14.53 42.64C14.45 42.32 14.33 42.02 14.27 41.71C14.07 40.71 14.73 39.78 16.01 39.42C19.9982 38.519 24.1605 38.7722 28.01 40.15C29.5094 40.6359 30.9674 41.2411 32.37 41.96C33.07 42.34 33.74 42.77 34.42 43.18L35.42 43.82L36.35 44.56L36.31 44.62Z" fill="currentColor"/>
<path d="M12.11 49C11.6463 48.0693 11.2324 47.1146 10.87 46.14C10.6528 45.6528 10.5209 45.1319 10.48 44.6L10.42 43.71L10.35 42.52L10.24 41.94C10.24 41.85 10.16 41.75 10.24 41.65V41.36C10.2798 40.971 10.3775 40.5901 10.53 40.23C10.8491 39.6177 11.2644 39.0606 11.76 38.58C12.2961 38.0805 12.8904 37.6474 13.53 37.29C14.9268 36.5752 16.374 35.9636 17.86 35.46C19.29 34.95 20.72 34.46 22.14 34.05C23.4 33.65 24.63 33.18 25.86 32.73C27.4908 32.1438 29.218 31.8723 30.95 31.93C31.61 32.01 31.43 32.4 31.09 32.93C30.6679 33.6616 30.0994 34.2982 29.42 34.8C28.71 35.22 28.02 35.71 27.29 36.1L25 37C23.47 37.58 21.92 38.14 20.35 38.64C19.4107 38.9494 18.5085 39.3619 17.66 39.87C17.24 40.12 16.82 40.39 16.44 40.65L16.15 40.85C16.0855 40.9044 16.0151 40.9514 15.94 40.99L15.73 41.12C15.45 41.28 15.08 41.56 15.13 41.95C15.1577 42.0082 15.181 42.0684 15.2 42.13C15.2151 42.2243 15.2529 42.3135 15.31 42.39C15.4637 42.634 15.5942 42.8918 15.7 43.16C15.91 43.7 16.11 44.24 16.37 44.77C16.9233 45.9498 17.5757 47.0805 18.32 48.15C19.4856 49.8731 20.7935 51.4954 22.23 53C22.8197 53.5723 23.4478 54.1035 24.11 54.59L25.11 55.32C25.43 55.58 25.73 55.85 26.04 56.13C26.35 56.41 26.61 56.58 26.85 56.85C27.72 57.85 27.6 58.57 26.75 59.69C26.55 59.96 26.37 60.23 26.16 60.46C25.8154 60.8381 25.3619 61.0998 24.8621 61.2091C24.3624 61.3184 23.841 61.2698 23.37 61.07C20.37 59.93 18.32 57.69 16.25 55.26C14.6501 53.3287 13.2276 51.257 12 49.07L12.11 49Z" fill="currentColor"/>
<path d="M81.76 29.11C81.87 29.29 81.56 29.43 81.08 29.56C80.8529 29.6112 80.6172 29.6112 80.39 29.56C80.2513 29.4571 80.1209 29.3434 80 29.22C79.94 29.16 79.5 28.03 79.33 27.6C79.1524 27.2228 79.0765 26.8056 79.11 26.39C79.2089 25.5798 79.3659 24.7777 79.58 23.99C79.6379 23.8118 79.7334 23.6481 79.86 23.51C80.2573 23.0338 80.5624 22.4878 80.76 21.9C80.7855 21.8487 80.7988 21.7923 80.7988 21.735C80.7988 21.6777 80.7855 21.6213 80.76 21.57C80.64 21.31 81.5 19.85 81.76 19.77C82.27 19.49 82.76 19.19 83.19 18.94C83.26 18.94 83.27 18.81 83.44 18.88C83.5327 18.9313 83.639 18.9531 83.7444 18.9424C83.8498 18.9316 83.9495 18.8889 84.03 18.82C84.2406 18.7125 84.4667 18.6383 84.7 18.6C84.877 18.6101 85.0519 18.6438 85.22 18.7C85.4171 18.8266 85.5815 18.9979 85.7 19.2C85.7 19.37 85.96 19.49 86.1 19.64C86.1525 19.6875 86.2026 19.7375 86.25 19.79C86.2949 20.0745 86.3183 20.362 86.32 20.65C86.32 21.06 86.4 21.52 86.32 21.53C86.0073 21.9813 85.7298 22.456 85.49 22.95C85.49 23.03 85.34 23.05 85.25 23.08C85.0674 23.4329 84.9071 23.797 84.77 24.17C84.61 24.34 84.6 24.58 84.22 24.64C84.15 24.64 84.14 24.7 84.12 24.74C83.9403 25.0937 83.7259 25.4286 83.48 25.74C83.3866 25.9206 83.3161 26.112 83.27 26.31C83.27 26.31 83.2 26.37 83.17 26.4C83.14 26.43 83.08 26.47 83.07 26.52C83.07 26.76 82.91 26.98 82.85 27.22C82.7328 27.4469 82.6486 27.6893 82.6 27.94C82.6 28.05 82.11 28.58 82.11 28.72C82.11 28.86 81.7 29 81.76 29.11Z" fill="currentColor"/>
<path d="M84.69 44.91C84.5 44.97 84.5 44.64 84.56 44.15C84.6019 43.9227 84.6868 43.7055 84.81 43.51C84.9352 43.4101 85.0653 43.3167 85.2 43.23C85.27 43.23 86.28 43.08 86.64 42.98C86.9444 42.8966 87.2656 42.8966 87.57 42.98C88.1 43.15 88.63 43.27 89.13 43.39C89.2442 43.4224 89.3477 43.4845 89.43 43.57C89.5562 43.7084 89.711 43.8177 89.8837 43.8902C90.0564 43.9627 90.2428 43.9968 90.43 43.99C90.49 43.99 90.55 43.99 90.63 43.91C90.71 43.83 91.7 43.8 91.8 43.91C92.0567 44.1453 92.3423 44.3469 92.65 44.51C92.65 44.51 92.74 44.51 92.78 44.64C92.89 45.01 92.99 44.97 93.09 45.02C93.2501 45.092 93.4012 45.1826 93.54 45.29C93.6471 45.4146 93.7378 45.5524 93.81 45.7C93.8941 45.9164 93.9316 46.1481 93.92 46.38C93.9048 46.5834 93.932 46.7877 94 46.98V47.19C93.8718 47.4474 93.714 47.689 93.53 47.91C93.27 48.25 92.96 48.59 92.9 48.56C92.84 48.53 91.19 48.75 90.99 48.76C90.79 48.77 90.8 48.67 90.71 48.6C90.62 48.53 89.33 48.6 89.29 48.51C89.05 48.39 88.75 48.44 88.6 48.05C88.6 47.97 88.52 47.97 88.47 47.96C88.0486 47.8261 87.6554 47.616 87.31 47.34C87.1234 47.2391 86.9295 47.1522 86.73 47.08C86.73 47.08 86.73 47.01 86.65 46.97C86.57 46.93 86.59 46.87 86.55 46.86C86.3232 46.7633 86.1056 46.6461 85.9 46.51C85.7145 46.3609 85.5172 46.2271 85.31 46.11C85.21 46.11 84.9 45.48 84.79 45.45C84.68 45.42 84.76 44.88 84.69 44.91Z" fill="currentColor"/>
<path d="M14.7 29.56C14.91 29.56 14.86 29.89 14.7 30.38C14.6236 30.5966 14.4967 30.792 14.33 30.95C14.1673 31.0123 14.0002 31.0625 13.83 31.1C13.2371 31.0172 12.6495 30.9003 12.07 30.75C11.6559 30.6857 11.2661 30.5132 10.94 30.25C10.3278 29.7312 9.75309 29.1698 9.22 28.57C9.11135 28.4287 9.03614 28.2646 9 28.09C8.81361 27.5045 8.51469 26.961 8.12 26.49C8.05 26.41 8.02 26.31 7.85 26.29C7.68 26.27 6.77 24.73 6.85 24.48C6.85 23.88 6.85 23.31 6.91 22.74C6.91 22.66 6.84 22.59 6.99 22.48C7.08556 22.4253 7.16357 22.3445 7.21493 22.2471C7.26628 22.1497 7.28885 22.0397 7.28 21.93C7.30198 21.6817 7.37338 21.4403 7.49 21.22C7.60191 21.0781 7.73718 20.9564 7.89 20.86C8.10976 20.7761 8.34786 20.7519 8.58 20.79C8.75 20.87 8.97 20.79 9.18 20.79H9.39C9.63991 20.9235 9.88046 21.0739 10.11 21.24C10.45 21.45 10.85 21.62 10.81 21.68C10.9776 22.1408 11.192 22.5831 11.45 23C11.51 23.07 11.45 23.17 11.45 23.27C11.6577 23.6159 11.8847 23.9497 12.13 24.27C12.19 24.5 12.41 24.63 12.26 25C12.26 25.07 12.26 25.1 12.26 25.14C12.4796 25.4894 12.6606 25.8616 12.8 26.25C12.907 26.4338 13.0345 26.6049 13.18 26.76C13.18 26.76 13.18 26.85 13.18 26.89C13.1644 26.9422 13.1644 26.9978 13.18 27.05C13.35 27.22 13.48 27.44 13.65 27.63C13.7721 27.8551 13.9271 28.0607 14.11 28.24C14.18 28.33 14.36 29.01 14.49 29.07C14.62 29.13 14.6 29.57 14.7 29.56Z" fill="currentColor"/>
<path d="M10.36 50.47C10.53 50.31 10.77 50.56 11.01 51C11.1007 51.2115 11.145 51.4399 11.14 51.67C11.07 51.84 11.01 52 10.94 52.13C10.5742 52.4802 10.2396 52.8617 9.94 53.27C9.77969 53.55 9.55733 53.7894 9.29 53.97C8.78879 54.2732 8.3138 54.6177 7.87 55C7.76053 55.0809 7.63395 55.1357 7.5 55.16C7.27341 55.2056 7.05833 55.2964 6.86762 55.427C6.6769 55.5576 6.51446 55.7252 6.39 55.92C6.35451 55.9498 6.32885 55.9896 6.31635 56.0342C6.30386 56.0788 6.30514 56.1261 6.32 56.17C6.14934 56.6338 5.86376 57.0467 5.49 57.37C5.09696 57.5365 4.72449 57.7479 4.38 58C4.32 58 4.38 58.11 4.18 58.07C3.81 57.98 3.77 58.07 3.66 58.18C3.50023 58.2993 3.32946 58.4031 3.15 58.49C2.97949 58.5296 2.80504 58.5497 2.63 58.55C2.39482 58.5026 2.17702 58.3919 2 58.23C1.89 58.09 1.64 58.06 1.45 57.98L1.25 57.9C1.12867 57.6119 1.04466 57.3094 1 57C0.88525 56.6798 0.837595 56.3394 0.86 56C0.86 56 1.09 55.52 1.34 55L1.96 54C2.01 53.89 2.16 53.86 2.27 53.81C2.38 53.76 3.27 52.51 3.27 52.49C3.54 52.31 3.73 52.02 4.17 52.06C4.26 52.06 4.3 52.06 4.35 51.98C4.78738 51.653 5.27327 51.3966 5.79 51.22C6.05 51.11 6.27 50.95 6.52 50.82C6.52 50.82 6.63 50.82 6.68 50.82C6.7429 50.8304 6.8071 50.8304 6.87 50.82C7.15924 50.672 7.46028 50.5482 7.77 50.45C8.08 50.36 8.41 50.31 8.71 50.2C8.86 50.15 9.65 50.31 9.81 50.26C9.97 50.21 10.3 50.54 10.36 50.47Z" fill="currentColor"/>
</svg>
