<svg width="96" height="96" viewBox="0 0 96 96" fill="none" xmlns="http://www.w3.org/2000/svg">
<path d="M30.2001 24C33.7335 22.3399 37.5124 21.2627 41.3901 20.81C42.3901 20.67 43.3001 20.63 44.2601 20.58C45.2093 20.525 46.1609 20.525 47.1101 20.58L49.9301 20.67C50.8701 20.76 51.8101 20.9 52.7401 21.01C53.4201 21.11 54.1101 21.16 54.7401 21.27L56.7401 21.67L58.7401 22.08C59.4101 22.25 60.0601 22.49 60.7401 22.71C65.3848 24.2103 69.6992 26.5865 73.4501 29.71C77.1386 32.8018 80.3117 36.4609 82.8501 40.55L84.4001 43.32C84.6501 43.78 84.9401 44.22 85.1601 44.7L85.8201 46.13C86.2501 47.13 86.7301 48.03 87.1301 49L88.3001 52C88.7312 53.2615 89.0885 54.547 89.3701 55.85C89.7305 57.1358 89.9979 58.4458 90.1701 59.77C90.3301 61.09 90.5301 62.4 90.6001 63.77V65.77C90.6001 66.44 90.4501 67.11 90.3801 67.77C90.1201 69.43 89.4901 69.2 88.3801 67.91C87.6547 67.1224 87.0331 66.2453 86.5301 65.3C85.9316 64.1277 85.4525 62.8982 85.1001 61.63C84.8436 60.4165 84.5096 59.2207 84.1001 58.05C83.7001 56.89 83.4001 55.7 82.9401 54.57C82.4801 53.44 82.1301 52.29 81.7201 51.14L80.2801 47.82C78.218 43.4359 75.4513 39.4193 72.0901 35.93C70.0242 33.7779 67.6314 31.9656 65.0001 30.56C64.3401 30.2 63.6301 29.93 62.9401 29.61C62.2593 29.2833 61.5616 28.9929 60.8501 28.74L58.6701 28L57.6001 27.64L56.4901 27.39L54.0501 26.81C53.2401 26.64 52.4001 26.58 51.5701 26.45C49.9138 26.2124 48.2432 26.0887 46.5701 26.08C39.0325 25.8199 31.6656 28.3598 25.8901 33.21C20.9731 37.3519 17.0411 42.5376 14.3801 48.39C12.3659 52.8925 10.9505 57.6396 10.1701 62.51C10.0001 63.57 9.77006 64.6 9.57006 65.66C8.77006 69.59 8.50006 70.83 7.35006 71.66C7.12006 71.85 6.91006 72.12 6.73006 72.24C6.26006 72.66 5.13006 70.91 5.06006 67.68C5.06006 66.49 5.06006 65.29 5.06006 64.09C5.06006 63.48 5.06006 62.88 5.13006 62.27C5.20006 61.66 5.29006 61.07 5.37006 60.47C5.75882 58.0574 6.30329 55.6724 7.00006 53.33C8.43901 48.4834 10.5423 43.8595 13.2501 39.59C17.3241 32.9075 23.1658 27.4811 30.1301 23.91L30.2001 24Z" fill="currentColor"/>
<path d="M35.2201 35.57C37.9059 34.4437 40.7431 33.7193 43.6401 33.42C44.3501 33.35 45.0701 33.32 45.7801 33.27C46.4901 33.22 47.2001 33.27 47.9101 33.27C49.3259 33.2767 50.7394 33.3837 52.1401 33.59C54.2133 33.8485 56.2542 34.321 58.2301 35C61.6945 36.2358 64.894 38.1155 67.6601 40.54C70.3092 42.9853 72.5507 45.8378 74.3001 48.99L75.4201 51C75.7801 51.7 76.0601 52.43 76.4201 53.14C77.056 54.5595 77.6168 56.0116 78.1001 57.49C78.4101 58.44 78.5901 59.42 78.8301 60.38L79.1701 61.83L79.3701 63.3C79.7102 65.2486 79.7102 67.2414 79.3701 69.19C79.1201 70.42 78.5601 70.26 77.6001 69.32C76.9861 68.7667 76.4481 68.1346 76.0001 67.44C75.7595 67.0294 75.5425 66.6053 75.3501 66.17C75.1262 65.7122 74.9486 65.2332 74.8201 64.74C74.4401 62.94 73.8201 61.24 73.2801 59.53C72.9201 58.71 72.6901 57.86 72.4101 57.01C72.2893 56.584 72.132 56.1691 71.9401 55.77L71.4401 54.55C70.0692 51.2972 68.2002 48.2777 65.9001 45.6C62.8932 42.4142 59.0214 40.1759 54.7601 39.16L53.0001 38.76C52.7101 38.7 52.4101 38.61 52.1101 38.57L51.2001 38.46L49.3801 38.23H47.5301C45.0764 38.1458 42.6236 38.4221 40.2501 39.05C37.3126 39.8149 34.5515 41.1428 32.1201 42.96C28.3597 45.7941 25.332 49.487 23.2901 53.73C21.751 56.9838 20.69 60.4429 20.1401 64C20.0301 64.78 19.8601 65.53 19.7001 66.31C19.0901 69.19 18.8401 70.1 17.8301 70.73C17.6201 70.88 17.4401 71.07 17.2901 71.16C16.8701 71.47 15.8701 70.16 15.7501 67.76C15.6901 66.87 15.6601 65.97 15.6501 65.06C15.6234 64.1493 15.687 63.2382 15.8401 62.34C16.6604 56.733 18.7427 51.3853 21.9301 46.7C25.1954 41.7838 29.7809 37.888 35.1601 35.46L35.2201 35.57Z" fill="currentColor"/>
<path d="M40.2401 49.23C43.6032 47.7971 47.3292 47.4475 50.9001 48.23C51.5301 48.4 52.1601 48.53 52.7901 48.68C53.4201 48.83 54.0101 49.08 54.6001 49.32C56.6375 50.2657 58.4952 51.5583 60.0901 53.14C61.6479 54.6852 62.9659 56.4548 64.0001 58.39L64.6701 59.66L65.2001 61C65.6301 61.85 65.9001 62.76 66.2001 63.63C66.3901 64.21 66.4801 64.81 66.6301 65.39L66.8201 66.27L66.9201 67.17C67.1287 68.3647 67.0498 69.5918 66.6901 70.75C66.4201 71.49 65.9401 71.36 65.1301 70.75C64.6405 70.4354 64.1934 70.059 63.8001 69.63C63.4431 69.1725 63.1721 68.6542 63.0001 68.1C62.7166 67.1136 62.3829 66.1423 62.0001 65.19C61.8039 64.7276 61.6369 64.2533 61.5001 63.77C61.3585 63.298 61.1916 62.834 61.0001 62.38C60.2201 60.5163 59.2124 58.7562 58.0001 57.14C56.3846 55.2134 54.2607 53.779 51.8701 53C49.2894 52.0091 46.4696 51.8209 43.7801 52.46C42.1079 52.9051 40.5432 53.6841 39.1801 54.75C36.9926 56.4366 35.2205 58.602 34.0001 61.08C33.1038 62.9804 32.4906 65.0019 32.1801 67.08C32.1133 67.526 32.0164 67.9671 31.8901 68.4C31.7625 69.002 31.554 69.584 31.2701 70.13C31.1709 70.3012 31.0423 70.4536 30.8901 70.58C30.7127 70.7021 30.5254 70.8092 30.3301 70.9C30.1501 70.98 29.9901 71.1 29.8501 71.15C29.7101 71.2 29.4001 71.15 29.0901 70.74C28.9062 70.5411 28.7725 70.3011 28.7001 70.04C28.5963 69.7152 28.5292 69.3798 28.5001 69.04C28.4199 68.4865 28.3699 67.929 28.3501 67.37V66.53C28.3598 66.2515 28.3898 65.9741 28.4401 65.7C28.9187 62.2889 30.1855 59.0362 32.1401 56.2C34.1153 53.1482 36.8797 50.6878 40.1401 49.08L40.2401 49.23Z" fill="currentColor"/>
</svg>
