<svg width="96" height="96" viewBox="0 0 96 96" fill="none" xmlns="http://www.w3.org/2000/svg">
<path d="M15.33 26C15.33 26 19.81 20.66 21.63 22.24C23.28 23.67 23.55 26.65 23.55 26.65L17.91 32.71L15.33 26Z" fill="currentColor"/>
<path d="M35.19 15.39C25.27 22.33 18.51 41.26 20.28 44.66C21.23 46.49 10.28 43.29 10.28 43.29L31.28 13.81L35.19 15.39Z" fill="currentColor"/>
<path d="M27.3 75.4C33.5067 73.3467 39.8 71.5467 46.18 70C48.5 69.44 50.81 68.8 53.18 68.35C57.23 67.59 61.32 67 65.44 66.62C66.44 66.53 67.44 66.44 68.52 66.37L71.36 66.2C71.8083 66.1951 72.2559 66.1617 72.7 66.1C72.8047 66.0828 72.9059 66.049 73 66C73.0434 65.9627 73.0744 65.913 73.0887 65.8576C73.103 65.8021 73.1 65.7437 73.08 65.69L72.81 65.09L72.69 64.84L72.41 64.26L71.81 63.07L70.56 60.57C69.72 58.91 68.91 57.23 68.11 55.57C67.11 53.41 66.11 51.23 65.24 48.97C64.8104 47.8275 64.4432 46.6624 64.14 45.48C63.972 44.8857 63.8648 44.2759 63.82 43.66C63.7396 43.0366 63.6995 42.4086 63.7 41.78C63.7 40.18 64.61 40.38 65.81 41.41C66.5172 42.0349 67.1851 42.7028 67.81 43.41C68.5584 44.334 69.1435 45.379 69.54 46.5C70.59 49.41 71.85 52.32 73.17 55.22C73.8367 56.6733 74.5033 58.1233 75.17 59.57L76.17 61.74L76.3 62.01L76.56 62.51L77.1 63.56C77.46 64.26 77.83 64.95 78.1 65.64L78.27 66.53V67.27C78.2563 67.5087 78.2091 67.7444 78.13 67.97C78.039 68.2435 77.9039 68.5002 77.73 68.73C76.97 69.624 75.8965 70.1929 74.73 70.32C74.04 70.42 73.36 70.51 72.64 70.55L71.58 70.62H70.95L68.64 70.7C62.94 70.89 57.12 72.14 51.42 73.4C45.15 74.79 38.92 76.5 32.76 78.48C30.86 79.08 28.98 79.72 27.09 80.36C25.2 81 23.73 81.59 21 82.79L20.47 83.01L19.11 83.19L18.43 83.28C18.2 83.38 17.98 83.22 17.8 83.07C17.1133 82.3519 16.6061 81.4815 16.32 80.53C16.15 80.02 16 79.53 15.87 78.97L15.58 77.78C15.42 77.04 15.27 76.29 15.12 75.55C14.56 72.55 14.12 69.55 13.78 66.63C13.0737 61.9169 12.7394 57.1556 12.78 52.39C12.7898 51.31 12.8632 50.2314 13 49.16C13.1924 47.6764 13.7152 46.2548 14.53 45C15.0732 44.3741 15.8079 43.9452 16.62 43.78C16.8823 43.702 17.1496 43.6419 17.42 43.6C17.78 43.6 17.84 44 17.99 44.77C18.2252 45.7756 18.2827 46.8146 18.16 47.84C18.05 49.71 17.98 51.64 18 53.63C18.02 55.62 18.13 57.63 18.3 59.71C18.64 63.82 19.14 68.04 19.88 72.18C20.19 73.94 20.56 75.78 20.97 77.38C20.97 77.38 20.97 77.48 20.97 77.47L21.6 77.28H21.68L21.85 77.22L22.33 77.05L23.33 76.7C24.63 76.23 25.94 75.76 27.25 75.32L27.3 75.4Z" fill="currentColor"/>
<path d="M13.43 43.51C13.373 43.5781 13.329 43.6561 13.3 43.74C13.3 43.85 13.38 43.87 13.44 43.89C13.523 43.9005 13.607 43.9005 13.69 43.89H13.89H14L14.48 43.78C17.09 43.13 19.77 42.32 22.48 41.51C24.43 40.92 26.35 40.21 28.32 39.64C35.295 37.5518 42.405 35.9447 49.6 34.83C52.8231 34.3379 56.0718 34.0307 59.33 33.91C61.448 33.8209 63.5698 33.9213 65.67 34.21C66.7355 34.3537 67.7863 34.5913 68.81 34.92C69.8496 35.2679 70.8541 35.7132 71.81 36.25C72.98 36.96 72.41 37.57 71.12 37.91C70.3371 38.1234 69.5376 38.2706 68.73 38.35C67.7365 38.5115 66.7235 38.5115 65.73 38.35C61.8412 37.8109 57.8998 37.7672 54 38.22C50 38.62 46 39.32 42 40.09C37.0566 41.2113 32.1873 42.6373 27.42 44.36L19.42 46.96C18.06 47.38 16.69 47.79 15.28 48.16C14.2504 48.4499 13.2009 48.6639 12.14 48.8C11.2256 48.9313 10.2935 48.8596 9.40999 48.59C8.85262 48.4619 8.35539 48.1481 7.99999 47.7C7.78063 47.2355 7.68422 46.7225 7.71999 46.21C7.83219 45.0135 8.17159 43.8494 8.71999 42.78L9.14999 41.9L9.56999 41.1L10.22 39.93C10.66 39.16 11.12 38.4 11.58 37.65C14.4195 33.1651 17.4834 28.8263 20.76 24.65C23.1872 21.3462 25.798 18.1812 28.58 15.17C29.22 14.51 29.84 13.85 30.58 13.24C33.28 10.99 34.72 10.75 35.87 11.55C36.1498 11.7106 36.4084 11.9054 36.64 12.13C36.7778 12.3443 36.8425 12.5975 36.8245 12.8516C36.8065 13.1058 36.7067 13.3473 36.54 13.54C36.0538 14.2472 35.4715 14.8833 34.81 15.43C32.3049 17.8138 29.9661 20.3665 27.81 23.07C25.52 25.85 23.27 28.77 21.1 31.77C19.5 34 17.94 36.27 16.46 38.58C15.73 39.73 15.01 40.89 14.35 42.06L13.86 42.94L13.64 43.34C13.6143 43.3716 13.5909 43.4051 13.57 43.44L13.43 43.51Z" fill="currentColor"/>
<path d="M57.69 31.1L52.69 27.65C52.08 27.23 51.4 26.9 50.79 26.46C48.6688 24.8335 46.6422 23.0874 44.72 21.23C43.89 20.38 42.93 19.68 42.06 18.9C40.8557 17.966 39.8723 16.7777 39.18 15.42C38.96 14.98 39.5 14.58 40.31 14.35C41.1685 14.0468 42.1087 14.0718 42.95 14.42C43.25 14.62 43.56 14.82 43.88 14.99L44.35 15.27L44.75 15.62C45.27 16.1 45.75 16.62 46.34 17.04C47.34 18.04 48.44 18.96 49.46 20.04C50.095 20.6622 50.7997 21.2092 51.56 21.67L53.84 23.14C55.48 24.26 57.16 25.38 58.84 26.5L62 28.56C63.61 29.56 65.12 30.82 66.7 31.89C67.92 32.73 69.28 33.36 70.41 34.31C70.6767 34.4961 70.9306 34.6999 71.17 34.92C72.04 35.78 72.17 36.23 71.82 37C71.74 37.17 71.68 37.35 71.59 37.51C71.28 38.02 70.59 38.1 69.72 37.79C69.09 37.56 68.5 37.29 67.86 37.07L66.92 36.72C66.62 36.6 66.35 36.42 66.06 36.27C64.91 35.67 63.8 35 62.65 34.35C60.95 33.42 59.34 32.27 57.65 31.2L57.69 31.1Z" fill="currentColor"/>
<path d="M12 20.07C12 20.01 12.05 19.97 12 19.9L12.06 19.74C12.3795 19.134 12.7949 18.5836 13.29 18.11C13.6503 17.7691 14.0459 17.4674 14.47 17.21C15.2133 16.7552 16.0006 16.3766 16.82 16.08C17.4085 15.8261 18.0173 15.622 18.64 15.47C18.94 15.41 19.18 15.37 19.53 15.33C19.9461 15.2596 20.3684 15.2327 20.79 15.25C21.5659 15.2539 22.3262 15.4682 22.99 15.87C23.3083 16.0589 23.5679 16.3324 23.74 16.66C23.8097 16.8175 23.8633 16.9817 23.9 17.15C23.9478 17.3232 23.978 17.5008 23.99 17.68C24.0201 18.0694 24.0201 18.4606 23.99 18.85C23.99 19.24 23.99 19.65 23.99 19.85C23.9764 20.7281 24.0132 21.6062 24.1 22.48C24.2659 23.6004 24.2321 24.7414 24 25.85C23.89 26.2 23.22 26.17 22.5 25.91C21.78 25.65 20.97 25.14 20.8 24.51C20.4801 23.4253 20.3151 22.3009 20.31 21.17V20.33V19.91C20.31 19.81 20.31 19.83 20.31 19.81H20.37C20.5289 19.685 20.6387 19.5079 20.68 19.31C20.68 19.02 20.45 18.98 20.24 18.98H20.08H19.78L18.9 19.14C18.2199 19.2523 17.5508 19.4229 16.9 19.65C16.594 19.7575 16.2965 19.8879 16.01 20.04C15.7784 20.1609 15.5576 20.3014 15.35 20.46C15.2512 20.5422 15.1667 20.6402 15.1 20.75C15.0242 20.898 14.993 21.0647 15.01 21.23C15.0381 21.5221 15.0815 21.8125 15.14 22.1C15.4242 23.4643 15.8223 24.8023 16.33 26.1C16.7805 27.0625 17.3373 27.9714 17.99 28.81C18.11 29 18.28 29.15 18.4 29.34C18.5868 29.574 18.6731 29.8725 18.64 30.17C18.5467 30.4744 18.3822 30.7521 18.16 30.98C18.03 31.14 17.92 31.3 17.79 31.45C17.6948 31.5674 17.5743 31.6616 17.4375 31.7257C17.3006 31.7898 17.1511 31.822 17 31.82C16.6346 31.8123 16.2824 31.682 16 31.45C14.4157 29.8921 13.238 27.9692 12.57 25.85C12.2797 25.0642 12.0589 24.2544 11.91 23.43C11.83 23.02 11.76 22.57 11.71 22.1V21.71C11.6898 21.5306 11.6898 21.3494 11.71 21.17C11.7132 20.7997 11.7568 20.4309 11.84 20.07H12Z" fill="currentColor"/>
<path d="M27.71 59.14C28.34 59.81 37.88 57.02 38.42 56.75C38.96 56.48 37.71 49.67 36.76 47.69C36.24 46.6 26.27 48.46 26.27 48.46C25.92 48.52 26.29 57.65 27.71 59.14Z" fill="currentColor"/>
<path d="M57.59 54.08C57.2 54.91 47.26 55.23 46.67 55.15C46.08 55.07 45.13 48.2 45.42 46C45.57 44.8 55.63 43.46 55.63 43.46C56 43.43 58.47 52.22 57.59 54.08Z" fill="currentColor"/>
<path d="M73.48 70.09C76.8924 69.1437 80.3543 68.3859 83.85 67.82C84.24 67.74 84.62 67.66 84.85 67.59H84.98L85.05 67.74L85.15 67.98C85.27 68.28 85.49 68.64 85.59 68.84C85.6504 68.959 85.7206 69.0727 85.8 69.18C85.853 69.2713 85.9132 69.3582 85.98 69.44L86.15 69.63C86.1936 69.6704 86.2404 69.7072 86.29 69.74C86.47 69.84 86.38 69.74 86.15 69.89C86.0967 69.9219 86.0465 69.9588 86 70L84.53 71.37V71.31L84.39 71.24L84.12 71.08C83.9862 71.0224 83.8493 70.9723 83.71 70.93C82.3047 70.4971 80.8492 70.2484 79.38 70.19C76.9159 70.1388 74.4511 70.2423 72 70.5C63.2306 71.2233 54.5226 72.5599 45.94 74.5C42.1 75.34 38.3 76.4 34.59 77.58C32.22 78.37 29.82 79.07 27.44 79.81L23.86 80.93L22 81.46C21.41 81.65 20.78 81.77 20.18 81.96C18.66 82.35 18.73 82.07 19.69 80.96C21.2251 79.1597 23.1098 77.69 25.23 76.64C26.41 76.06 27.6 75.49 28.79 74.95L30.59 74.14L32.44 73.5C34.92 72.66 37.44 71.91 39.92 71.2C44.9546 69.7615 50.0792 68.6591 55.26 67.9C61.48 67.03 67.87 65.68 74.42 65.34C76.2451 65.2351 78.0748 65.2351 79.9 65.34C81.8913 65.4017 83.8598 65.7832 85.73 66.47L86.54 66.89L86.94 67.1C87.07 67.19 87.21 67.31 87.35 67.42L87.75 67.76L88 68L88.1 68.08L88.3 68.33L88.4 68.47L88.53 68.7C88.6276 68.8786 88.6984 69.0707 88.74 69.27C88.7852 69.5247 88.7852 69.7853 88.74 70.04C88.7193 70.2969 88.6515 70.5477 88.54 70.78C88.3963 71.093 88.1885 71.3724 87.93 71.6C87.7916 71.7176 87.6445 71.8246 87.49 71.92C87.1596 72.1122 86.807 72.2634 86.44 72.37C86.17 72.46 85.93 72.52 85.69 72.58C85.21 72.69 84.77 72.79 84.33 72.87C82.58 73.22 80.91 73.54 79.25 73.87C75.159 74.7329 71.1655 76.006 67.33 77.67C63.2072 79.473 59.3486 81.8279 55.86 84.67L56.03 84.5C55.833 84.3077 55.611 84.1429 55.37 84.01C55.2866 83.9499 55.191 83.909 55.09 83.89C55.0417 83.8715 54.9883 83.8715 54.94 83.89C54.99 83.8507 55.0224 83.7932 55.03 83.73C55.1315 83.4913 55.1956 83.2383 55.22 82.98V82.73H55.33H55.58C55.96 82.73 56.41 82.61 56.84 82.52C57.72 82.34 58.62 82.11 59.51 81.88C64.35 80.63 69.04 79.01 74.06 77.99C75.17 77.77 76.26 77.53 77.44 77.41C79.0861 77.1382 80.774 77.2826 82.35 77.83C82.861 78.0479 83.3083 78.392 83.65 78.83C83.9185 79.188 84.0657 79.6225 84.07 80.07C84.1035 80.417 84.0303 80.7659 83.86 81.07C83.56 81.44 83.06 81.37 82.58 81.53C82.2699 81.6124 81.9508 81.6561 81.63 81.66L80.07 81.75C78.1048 81.9401 76.1562 82.2744 74.24 82.75C72.24 83.24 70.16 83.75 68.07 84.39L61.76 86C60.67 86.3 59.58 86.6 58.42 86.87C57.83 87.01 57.26 87.15 56.54 87.26C56.0618 87.3469 55.5758 87.3838 55.09 87.37C54.9737 87.3831 54.8563 87.3831 54.74 87.37C54.5855 87.3548 54.432 87.3315 54.28 87.3C54.0237 87.2327 53.7729 87.1458 53.53 87.04C53.2769 86.9258 53.0385 86.7814 52.82 86.61C52.5629 86.4115 52.3371 86.1755 52.15 85.91C51.8886 85.5443 51.6955 85.1344 51.58 84.7C51.4744 84.2056 51.4744 83.6944 51.58 83.2C51.5993 83.0733 51.6328 82.9492 51.68 82.83C51.7549 82.5421 51.8622 82.2637 52 82L52.13 81.81C52.21 81.69 52.31 81.56 52.4 81.45L52.57 81.25L52.8 81.05L53.8 80.2C59.6277 75.5655 66.2969 72.1019 73.44 70L73.48 70.09Z" fill="currentColor"/>
</svg>
