<svg width="96" height="96" viewBox="0 0 96 96" fill="none" xmlns="http://www.w3.org/2000/svg">
<path d="M67.0001 10.05C68.8376 9.32883 70.7544 8.82866 72.7101 8.55999L73.8701 8.40999C74.2927 8.37534 74.7174 8.37534 75.1401 8.40999L76.0301 8.59999C76.3729 8.70009 76.7073 8.82715 77.0301 8.97999C77.7105 9.34848 78.2881 9.88132 78.7101 10.53C79.0497 11.0719 79.3059 11.6619 79.4701 12.28C79.7323 13.263 79.9096 14.2667 80.0001 15.28L80.3601 18.38C80.4724 19.0405 80.5227 19.7101 80.5101 20.38C80.4074 21.0621 80.2366 21.7321 80.0001 22.38C79.8301 22.79 79.4601 22.72 78.9401 22.38C78.2553 21.9855 77.6649 21.4463 77.2101 20.8C76.6451 18.5002 76.2606 16.1597 76.0601 13.8C75.8601 12.98 75.8301 12.87 75.5301 12.67C75.4401 12.67 75.2801 12.61 75.0601 12.67C74.8303 12.6541 74.5998 12.6541 74.3701 12.67C72.8203 12.7304 71.2906 13.041 69.84 13.59C68.8745 13.8905 67.9264 14.2444 67.0001 14.65C65.5568 15.3373 64.1751 16.1469 62.8701 17.07C61.8701 17.84 61.0301 18.73 60.1301 19.57C59.9301 19.75 59.7601 19.95 59.5501 20.13C59.4281 20.2769 59.2752 20.395 59.1024 20.4762C58.9295 20.5573 58.741 20.5993 58.5501 20.5993C58.3591 20.5993 58.1706 20.5573 57.9977 20.4762C57.8249 20.395 57.672 20.2769 57.5501 20.13C57.3701 19.99 57.1801 19.87 57.0101 19.72C56.7326 19.4717 56.5589 19.1279 56.5237 18.7572C56.4885 18.3865 56.5943 18.0161 56.8201 17.72C57.446 16.697 58.1766 15.7419 59.0001 14.87C59.9044 13.9917 60.9117 13.2262 62.0001 12.59C63.5947 11.5942 65.2667 10.7281 67.0001 9.99999V10.05Z" fill="currentColor"/>
<path d="M59.12 51.86C56.3391 55.0883 53.1449 57.9361 49.62 60.33C48.3621 61.2486 47.0497 62.0902 45.69 62.85C40.742 65.1224 35.3648 66.309 29.92 66.33C28.74 66.33 27.57 66.33 26.4 66.25C25.81 66.25 25.23 66.17 24.65 66.13C24.07 66.09 23.5 65.94 22.93 65.85C20.0256 65.3556 17.2005 64.4744 14.53 63.23C13.7 62.85 13.88 62.7 14.71 62.57C16.0172 62.3682 17.3373 62.2613 18.66 62.25C20.1 62.32 21.54 62.25 22.94 62.25L25 62.09C25.68 62.09 26.36 62.09 27 62.09C29.7103 62.0715 32.4138 61.8172 35.08 61.33C36.7214 61.0218 38.3129 60.4902 39.81 59.75C40.58 59.41 41.29 58.93 42.03 58.54C42.77 58.15 43.47 57.68 44.19 57.25C47.3854 55.3041 50.2849 52.9097 52.8 50.14L53.98 48.83L55.08 47.46C55.84 46.56 56.49 45.57 57.17 44.6C59.2163 41.6222 60.9711 38.4543 62.41 35.14C63.54 32.57 64 29.78 64.94 27.14C65.12 26.56 65.25 25.97 65.47 25.39C65.57 25.12 65.67 24.88 65.77 24.66C65.87 24.44 66.03 24.27 66.15 24.1C66.3633 23.8073 66.6118 23.5419 66.89 23.31C67.3629 22.9353 67.9467 22.7278 68.55 22.72C68.8351 22.6815 69.1223 22.6614 69.41 22.66C70.28 22.71 70.75 23.87 70.89 25.75C70.9373 26.4186 70.9003 27.0906 70.78 27.75C70.7 28.41 70.61 29.08 70.5 29.75C70.39 30.42 70.25 31.08 70.12 31.75C69.9655 32.4099 69.7651 33.0581 69.52 33.69C68.602 36.3097 67.4889 38.8568 66.19 41.31C64.2193 45.0574 61.8739 48.5954 59.19 51.87L59.12 51.86Z" fill="currentColor"/>
<path d="M63.2299 10.31C64.5327 9.35873 65.8919 8.48713 67.2999 7.7C68.0624 7.27842 68.8469 6.89787 69.6499 6.56C69.8599 6.47 70.0999 6.4 70.3199 6.32C70.5614 6.22747 70.8086 6.15064 71.0599 6.09C71.6901 5.90171 72.3424 5.79747 72.9999 5.78C73.8035 5.75738 74.6051 5.87237 75.3699 6.12C75.8454 6.33331 76.2922 6.60544 76.6999 6.93C77.1054 7.27548 77.4679 7.66827 77.7799 8.1C78.0056 8.4192 78.2094 8.75329 78.3899 9.1C78.5337 9.34606 78.6638 9.59977 78.7799 9.86C79.0199 10.37 79.2199 10.86 79.3999 11.36C79.7699 12.36 80.0699 13.36 80.3399 14.27C80.8499 16.21 81.3399 18.11 81.6299 20.04C81.8899 21.75 82.2599 23.43 82.6299 25.11C82.8834 26.1813 83.0077 27.2791 82.9999 28.38C82.9772 29.5126 82.85 30.6407 82.6199 31.75C82.4599 32.46 82.1199 32.36 81.5399 31.84C80.6862 31.1037 79.9391 30.2522 79.3199 29.31L78.9299 28.57C78.7851 28.3368 78.674 28.0843 78.5999 27.82L78.1699 26.29L77.3199 23.23C77.0499 22.23 76.7299 21.23 76.5399 20.16L75.9999 17C75.7907 15.7569 75.4104 14.5488 74.8699 13.41C74.6294 12.8831 74.3555 12.3721 74.0499 11.88C73.8899 11.61 73.8899 11.62 73.8099 11.5C73.742 11.4089 73.6686 11.322 73.5899 11.24C73.5456 11.1892 73.4911 11.1483 73.4299 11.12C73.2137 11.0112 72.9679 10.9761 72.7299 11.02H72.5499C72.4399 11.02 72.3099 11.1 72.1799 11.14C71.9141 11.2241 71.6536 11.3243 71.3999 11.44C70.2492 11.9769 69.1453 12.6091 68.0999 13.33C66.6305 14.3265 65.2183 15.4049 63.8699 16.56C61.7503 18.3013 59.746 20.1786 57.8699 22.18C56.4299 23.74 55.3399 25.56 54.0599 27.18C53.7799 27.55 53.5399 27.93 53.2299 28.28C52.0899 29.57 51.4599 29.75 50.2299 29.22C49.9599 29.1 49.6699 29 49.4199 28.86C48.5799 28.37 48.4199 27.3 48.9499 26.06C49.3699 25.15 49.8199 24.25 50.3099 23.37C50.8162 22.5003 51.3843 21.6682 52.0099 20.88C53.2511 19.2573 54.6044 17.7236 56.0599 16.29C58.2602 14.0965 60.5983 12.0456 63.0599 10.15L63.2299 10.31Z" fill="currentColor"/>
<path d="M41.18 86.49C41.33 86.75 41.07 87.06 40.69 87.38C40.5052 87.4954 40.2855 87.5414 40.07 87.51C39.89 87.38 39.7 87.26 39.54 87.12C39.38 86.98 38.42 85.59 37.99 85.12C37.7126 84.6274 37.504 84.0992 37.37 83.55C37.06 82.46 36.77 81.34 36.53 80.23C36.4849 79.9787 36.4849 79.7213 36.53 79.47C36.6653 78.6287 36.6653 77.7713 36.53 76.93C36.53 76.79 36.53 76.64 36.36 76.52C36.0551 75.6302 35.9327 74.6881 36 73.75C36.25 73.03 36.39 72.31 36.57 71.59C36.57 71.49 36.57 71.39 36.71 71.29C36.8382 71.2311 36.9453 71.1344 37.0168 71.0128C37.0883 70.8912 37.1208 70.7506 37.11 70.61C37.1641 70.2874 37.2546 69.9721 37.38 69.67C37.5246 69.4953 37.6853 69.3346 37.86 69.19C38.08 69.0802 38.3328 69.0552 38.57 69.12C38.74 69.24 38.98 69.12 39.18 69.12H39.41C40.0154 69.6788 40.5495 70.3102 41 71C41 71 41.13 71.68 41.25 72.37C41.37 73.06 41.51 73.78 41.56 73.93C41.61 74.08 41.56 74.24 41.47 74.39C41.38 74.54 41.88 76.5 41.88 76.57C41.88 77 42.04 77.4 41.7 77.83C41.679 77.8683 41.668 77.9113 41.668 77.955C41.668 77.9987 41.679 78.0417 41.7 78.08C41.7279 78.7963 41.6809 79.5135 41.56 80.22C41.5517 80.5807 41.5684 80.9416 41.61 81.3C41.61 81.36 41.56 81.43 41.55 81.5C41.5112 81.5777 41.4907 81.6632 41.49 81.75C41.4979 82.609 41.5816 83.4657 41.74 84.31C41.74 84.5 41.4 85.55 41.46 85.78C41.52 86.01 41.1 86.39 41.18 86.49Z" fill="currentColor"/>
<path d="M60.27 77.09C60.43 77.35 60.17 77.66 59.78 77.98C59.5959 78.097 59.3756 78.1432 59.16 78.11C58.99 77.98 58.8 77.86 58.64 77.72C58.48 77.58 57.52 76.19 57.09 75.72C56.8053 75.2298 56.5931 74.701 56.46 74.15C56.16 73.06 55.86 71.94 55.63 70.83C55.5849 70.5787 55.5849 70.3213 55.63 70.07C55.7601 69.225 55.7601 68.365 55.63 67.52C55.63 67.39 55.63 67.24 55.46 67.12C55.1782 66.2359 55.0795 65.3035 55.17 64.38C55.42 63.66 55.56 62.94 55.74 62.22C55.74 62.12 55.74 62.02 55.88 61.91C56.0056 61.8506 56.1108 61.7552 56.182 61.6359C56.2532 61.5166 56.2874 61.3788 56.28 61.24C56.334 60.9174 56.4246 60.6021 56.55 60.3C56.6919 60.1229 56.8529 59.9619 57.03 59.82C57.1375 59.7611 57.2558 59.7245 57.3778 59.7125C57.4999 59.7005 57.623 59.7132 57.74 59.75C57.91 59.87 58.15 59.75 58.35 59.75H58.57C59.1739 60.3177 59.7077 60.9555 60.16 61.65C60.16 61.65 60.28 62.33 60.41 63.02C60.54 63.71 60.67 64.43 60.72 64.58C60.77 64.73 60.72 64.89 60.63 65.04C60.54 65.19 61.04 67.15 61.04 67.22C61.04 67.65 61.19 68.05 60.85 68.48C60.8306 68.5188 60.8205 68.5616 60.8205 68.605C60.8205 68.6484 60.8306 68.6912 60.85 68.73C60.8778 69.4463 60.8309 70.1635 60.71 70.87C60.6898 71.2264 60.6898 71.5836 60.71 71.94C60.71 72.01 60.71 72.08 60.65 72.15C60.619 72.2298 60.6021 72.3144 60.6 72.4C60.6095 73.2585 60.6898 74.1147 60.84 74.96C60.84 75.15 60.51 76.2 60.56 76.43C60.61 76.66 60.2 77 60.27 77.09Z" fill="currentColor"/>
<path d="M74.78 58.29C74.94 58.55 74.67 58.86 74.29 59.18C74.1056 59.2962 73.8856 59.3423 73.67 59.31C73.5 59.18 73.31 59.06 73.14 58.92C72.97 58.78 72.02 57.4 71.59 56.92C71.3205 56.4164 71.1219 55.878 71 55.32C70.7 54.23 70.4 53.12 70.17 52C70.1249 51.7487 70.1249 51.4913 70.17 51.24C70.3004 50.3983 70.3004 49.5417 70.17 48.7C70.17 48.56 70.17 48.41 70.01 48.29C69.7294 47.4056 69.6274 46.4742 69.71 45.55C69.97 44.83 70.1 44.12 70.29 43.4C70.29 43.29 70.29 43.19 70.42 43.09C70.5492 43.0315 70.6576 42.9352 70.7308 42.8138C70.804 42.6923 70.8386 42.5515 70.83 42.41C70.8805 42.0878 70.9677 41.7724 71.09 41.47C71.2111 41.3004 71.3484 41.1429 71.5 41C71.7155 40.8869 71.9664 40.8618 72.2 40.93C72.38 41.05 72.61 40.93 72.82 40.93H73.04C73.6439 41.4976 74.1777 42.1355 74.63 42.83L74.88 44.2C75.01 44.9 75.14 45.61 75.19 45.76C75.21 45.9202 75.1747 46.0825 75.09 46.22C75.09 46.3 75.51 48.33 75.51 48.4C75.51 48.83 75.66 49.23 75.32 49.66C75.25 49.75 75.32 49.83 75.32 49.92C75.3427 50.6171 75.289 51.3146 75.16 52C75.1401 52.3597 75.1401 52.7203 75.16 53.08C75.148 53.1488 75.1278 53.2159 75.1 53.28C75.0859 53.3627 75.0859 53.4473 75.1 53.53C75.1046 54.3887 75.1849 55.2454 75.34 56.09C75.34 56.28 75 57.33 75.06 57.56C75.12 57.79 74.71 58.19 74.78 58.29Z" fill="currentColor"/>
</svg>
