<svg width="96" height="96" viewBox="0 0 96 96" fill="none" xmlns="http://www.w3.org/2000/svg">
<path d="M55 52.79C51.44 58 48.17 63.51 45 69.11C44.4333 70.13 43.8933 71.17 43.38 72.23L42.58 73.81L41.65 75.58C41.07 76.65 40.44 77.75 39.83 78.78C39.52 79.32 39.19 79.78 38.83 80.27C38.5277 80.7011 38.1934 81.1089 37.83 81.49C37.2801 82.1094 36.5961 82.5951 35.83 82.91C35.4515 83.0275 35.0562 83.0816 34.66 83.07H34.61C34.61 83.12 34.61 82.96 34.61 83.18H34.51H34.36L34.14 83C33.9784 82.93 33.8214 82.8498 33.67 82.76C33.0523 82.251 32.4615 81.7103 31.9 81.14C31.61 80.73 31.32 80.34 31.05 79.9L30.25 78.5L28.74 75.58L27.74 73.58C26.62 71.11 25.5 68.66 24.35 66.24C22.8 62.93 20.94 59.76 19.16 56.64C18.01 54.64 16.72 52.74 15.51 50.84C14.92 49.84 14.32 48.92 13.71 48.02C13.1558 47.1345 12.5268 46.2982 11.83 45.52C11.6722 45.3632 11.5375 45.1848 11.43 44.99C11.371 44.8423 11.371 44.6776 11.43 44.53C11.52 44.26 11.97 43.96 12.8 43.94C13.9005 43.9495 14.9881 44.1772 16 44.61C17.2841 45.155 18.4468 45.9505 19.42 46.95C19.88 47.42 20.31 47.88 20.73 48.37L21.88 49.86C22.62 50.86 23.35 51.86 24.04 52.86C24.73 53.86 25.41 54.91 26.04 55.95C26.67 56.99 27.24 58.08 27.82 59.15C28.97 61.3 30.05 63.46 31.09 65.65C31.61 66.74 32.09 67.84 32.61 68.94L33.34 70.59L33.68 71.43L33.85 71.85C33.8992 71.9519 33.9361 72.0593 33.96 72.17C34.0748 72.8348 34.305 73.4744 34.64 74.06C34.6809 74.1305 34.7277 74.1974 34.78 74.26C34.7912 74.2745 34.8056 74.2863 34.8221 74.2944C34.8385 74.3025 34.8566 74.3067 34.875 74.3067C34.8934 74.3067 34.9115 74.3025 34.9279 74.2944C34.9444 74.2863 34.9588 74.2745 34.97 74.26C35.0794 74.1619 35.1768 74.0511 35.26 73.93C35.42 73.68 35.57 73.41 35.71 73.14L37.3 70.06C40.3 64.29 43.24 58.45 46.52 52.77C48.52 49.26 50.65 45.82 52.89 42.44C56.2918 37.3224 60.002 32.4167 64 27.75C67.12 24.12 70.17 20.4 74.09 17.27C74.9391 16.5416 75.8379 15.8733 76.78 15.27C77.5354 14.8071 78.3321 14.4154 79.16 14.1C79.7589 13.8997 80.3889 13.8082 81.02 13.83C81.5011 13.8429 81.9739 13.9584 82.4068 14.1688C82.8397 14.3792 83.2226 14.6796 83.53 15.05C83.8589 15.3561 84.1601 15.6908 84.43 16.05C85.17 17.27 84.11 18.86 82.26 20.58C80.82 21.76 79.43 23 78 24.26C76.57 25.52 75.19 26.86 73.82 28.26C70.9869 31.1604 68.3162 34.215 65.82 37.41C61.9832 42.3733 58.4084 47.5337 55.11 52.87L55 52.79Z" fill="currentColor"/>
</svg>
