<svg width="96" height="96" viewBox="0 0 96 96" fill="none" xmlns="http://www.w3.org/2000/svg">
<path d="M78.73 21.07C78.8602 20.9951 78.9755 20.8968 79.07 20.78C79.24 20.59 79.07 20.51 78.98 20.4C78.9218 20.3317 78.8583 20.2682 78.79 20.21L78.66 20.13L78.09 19.87C77.6663 19.6794 77.2283 19.5222 76.78 19.4L75.43 19C74.7719 18.8365 74.1038 18.7163 73.43 18.64C72.74 18.51 72.04 18.49 71.34 18.39C66.2127 17.7031 61.0038 17.9402 55.96 19.09C53.6745 19.6301 51.4448 20.3834 49.3 21.34C46.54 22.54 44 24.13 41.12 25.09C40.22 25.37 39.62 24.15 39.67 22.58C39.6688 21.6959 39.8943 20.8263 40.325 20.0542C40.7556 19.2821 41.3771 18.6334 42.13 18.17C45.0684 16.6047 48.1489 15.3222 51.33 14.34C54.5529 13.3666 57.8791 12.7759 61.24 12.58C65.24 12.38 69.47 11.8 73.68 12.43C76.0008 12.7715 78.2754 13.3754 80.46 14.23L81.46 14.65C81.8569 14.7957 82.2443 14.966 82.62 15.16C83.2948 15.5296 83.9401 15.9509 84.55 16.42C85.1505 16.8362 85.7157 17.3011 86.24 17.81C86.5349 18.4781 86.5845 19.2289 86.38 19.93C86.1552 20.8516 85.7874 21.7323 85.29 22.54C85.04 22.97 84.77 23.39 84.49 23.81C84.21 24.23 83.89 24.7 83.73 24.92C82.91 26 82.1 27 81.3 28.1C78.88 31.3 76.3 34.36 74.16 37.62C72.5197 40.1275 71.0272 42.7286 69.69 45.41C69.38 45.98 69.13 46.57 68.81 47.14C67.62 49.26 66.95 49.76 65.6 49.72C65.297 49.7406 64.993 49.7406 64.69 49.72C63.75 49.56 63.43 48.26 63.91 46.37C64.6921 43.5528 65.7262 40.8117 67 38.18C67.64 36.86 68.32 35.56 69 34.27C69.68 32.98 70.58 31.79 71.39 30.58C72.61 28.79 73.89 27.04 75.2 25.36L77.12 22.85L78.04 21.61L78.46 21.04L78.73 21.07Z" fill="currentColor"/>
<path d="M25.49 52.34C26.95 50.83 28.37 49.29 29.87 47.83C31.37 46.37 32.87 44.89 34.45 43.52C35.61 42.52 36.56 41.31 37.78 40.37C41.9655 36.9472 46.4695 33.9335 51.23 31.37C52.29 30.81 53.29 30.16 54.34 29.6C55.39 29.04 56.44 28.45 57.47 27.87C58.12 27.47 58.83 27.17 59.47 26.87C60.1465 26.496 60.8444 26.1621 61.56 25.87C63.0252 25.3711 64.5411 25.0357 66.08 24.87C67.08 24.76 67.18 25.72 66.78 26.99C66.3553 28.5055 65.4323 29.8336 64.16 30.76C63.86 30.96 63.57 31.18 63.26 31.36L62.32 31.85L60.43 32.85C59.2 33.58 57.96 34.27 56.7 34.95C55.44 35.63 54.25 36.45 52.99 37.15C51.73 37.85 50.52 38.68 49.23 39.4C48.4692 39.8607 47.7378 40.3684 47.04 40.92C46.32 41.45 45.6 42 44.91 42.57L40.9 46.18C38 48.86 35 51.6 32.31 54.57C30.59 56.35 29 58.25 27.41 60.15L24 64.61C22.92 66.15 21.82 67.67 20.87 69.28C20.14 70.53 19.5 71.83 18.87 73.13C18.24 74.43 17.7 75.76 17 77C16.68 77.54 16.44 78.11 16.12 78.65C14.92 80.65 14.12 81.12 12.68 80.96C12.3443 80.9497 12.0099 80.9129 11.68 80.85C10.68 80.61 10.3 79.34 10.63 77.49C10.9 76.14 11.15 74.74 11.55 73.39C11.95 72.04 12.55 70.77 13.1 69.49C13.65 68.21 14.45 67.03 15.17 65.8C15.89 64.57 16.7 63.42 17.49 62.23C19.9147 58.7583 22.5251 55.4201 25.31 52.23L25.49 52.34Z" fill="currentColor"/>
</svg>
