<svg width="96" height="96" viewBox="0 0 96 96" fill="none" xmlns="http://www.w3.org/2000/svg">
<path d="M43.61 11.44C45.49 13 46.7 13.83 46 15.1C45.6 15.81 46 16.69 46 17.48C46.095 20.3049 46.3454 23.1225 46.75 25.92C46.93 27.35 47.19 28.78 47.4 30.21C47.61 31.64 47.82 33.08 48.06 34.52C48.49 36.99 49.15 39.42 49.74 41.86C50.74 45.98 51.91 50.07 53.06 54.15C53.64 56.25 54 58.4 54.57 60.5C55.76 64.68 57.21 68.78 58.62 72.85C59 73.85 59.29 74.95 59.62 75.99C59.95 77.03 60.17 78.13 60.5 79.18C60.75 79.95 61.21 80.62 61.5 81.36C61.6801 81.6603 61.7374 82.0185 61.66 82.36C61.35 83.44 59.66 84.61 57.66 84.94C56.17 85.19 55 85.12 54.66 84.39C53.81 82.7 52.98 81 52.2 79.29C51.42 77.58 50.83 75.81 50.2 74.06C49.67 72.65 48.89 71.33 48.41 69.9C47.64 67.67 47.08 65.37 46.41 63.11C45.46 59.79 44.77 56.4 43.91 53.11C42.91 49.28 41.91 45.46 41.05 41.59C40.78 40.36 40.54 39.14 40.31 37.9C39.97 35.97 39.64 34.03 39.36 32.07C39.21 31.07 39.1 30.07 39.02 29.13C38.94 28.19 38.86 27.13 38.78 26.13C38.3874 21.8656 38.4477 17.5716 38.96 13.32C39.0094 12.977 39.1 12.6412 39.23 12.32C40 11 40.46 10.83 43.61 11.44Z" fill="currentColor"/>
<path d="M15.67 53.87C16.41 51.63 17.25 50.18 18.59 50.64C19.36 50.91 20.12 50.41 20.89 50.32C26.05 49.66 31.12 48.7 36.14 47.63C38.2782 47.091 40.3876 46.4434 42.46 45.69C44.23 45.14 45.95 44.42 47.69 43.78C49.43 43.14 51.14 42.38 52.86 41.63C54.58 40.88 56.5 40.38 58.27 39.63C61.82 38.06 65.27 36.03 69.03 34.63C70.94 33.86 73.03 33.4 74.97 32.74C75.6802 32.443 76.3745 32.1092 77.05 31.74C77.2003 31.6523 77.3691 31.6012 77.5428 31.5908C77.7166 31.5803 77.8903 31.6109 78.05 31.68C79.12 32.19 80.22 34.5 80.58 36.88C80.85 38.69 80.84 40 80.21 40.25C77.25 41.3 74.33 42.6 71.43 44C70.8414 44.3004 70.2705 44.6343 69.72 45C69.1557 45.3356 68.5712 45.6362 67.97 45.9C66.06 46.69 64.06 47.33 62.08 48.06C59.18 49.13 56.22 50.12 53.26 51.16C51.57 51.75 49.88 52.38 48.17 52.93C46.46 53.48 44.73 54 43 54.53C41.91 54.87 40.79 55.08 39.68 55.34C36.2111 56.1415 32.6936 56.7161 29.15 57.06C25.49 57.45 21.83 57.72 18.15 57.82C17.8785 57.8448 17.6048 57.8246 17.34 57.76C16.26 57.47 16.09 57.07 15.67 53.87Z" fill="currentColor"/>
</svg>
