<svg width="96" height="96" viewBox="0 0 96 96" fill="none" xmlns="http://www.w3.org/2000/svg">
<path d="M33.0801 14C29.7801 14.54 27.6201 16.31 26.9601 19.59C25.7701 25.59 27.7901 31.21 27.8301 37.16C27.8301 41.98 26.1201 46.1 21.2301 47.62C11.9001 50.51 8.65006 64.43 21.2801 66.06C26.0501 66.67 30.8601 66.59 35.6401 66.87C38.8001 67.06 43.0401 67.17 44.7401 70.37C46.0801 72.91 44.8001 75.94 45.9901 78.37C48.5601 83.73 57.9001 82.44 61.9901 80.03C68.4001 76.28 68.5801 67.25 68.0001 60.68C67.5001 55.05 69.7601 52.68 74.3301 49.36C77.1401 47.29 83.8801 42.36 82.9201 38.23C80.6401 28.41 63.9201 41.58 58.9201 34.93C56.9201 32.21 56.8501 28.71 55.5401 25.7C52.9401 19.7 46.9101 15.78 40.7001 14.42C38.2063 13.8205 35.6246 13.6782 33.0801 14Z" fill="currentColor"/>
</svg>
