<svg width="96" height="96" viewBox="0 0 96 96" fill="none" xmlns="http://www.w3.org/2000/svg">
<path d="M32.4 57.2C32.5359 57.3581 32.6073 57.5616 32.6 57.77C32.5966 58.0011 32.5765 58.2317 32.54 58.46C32.54 58.63 32.27 58.9 32.13 58.83C31.8353 58.6894 31.5541 58.5221 31.29 58.33C30.3941 57.4309 29.5526 56.4792 28.77 55.48C28.2572 54.7921 27.8023 54.063 27.41 53.3L26.21 51C25.81 50.24 25.5 49.44 25.21 48.64C25.0595 48.2867 24.9488 47.9178 24.88 47.54C24.6169 46.2567 24.2145 45.0059 23.68 43.81C23.6241 43.5905 23.5101 43.3901 23.35 43.23C22.9735 42.6044 22.681 41.9319 22.48 41.23C22.2078 40.5264 22.0296 39.7901 21.95 39.04C21.95 37.84 21.82 36.67 21.79 35.47C21.79 35.3 21.71 35.13 21.79 34.95C21.9597 34.5991 22.0123 34.203 21.94 33.82C21.9082 33.3093 21.9283 32.7966 22 32.29C22.0658 32.0212 22.1666 31.7623 22.3 31.52C22.4 31.3 22.76 31.43 22.8 31.52C22.84 31.61 23.09 31.52 23.24 31.52C23.2932 31.5149 23.3468 31.5149 23.4 31.52C23.46 31.52 23.67 32.16 24.03 32.8C24.39 33.44 24.8 34.08 24.86 34.23C24.92 34.38 25.16 35.23 25.58 36.16C26 37.09 26.45 38.16 26.58 38.33C26.6792 38.5465 26.7304 38.7818 26.73 39.02C26.73 39.14 27.97 42.02 28.02 42.18C28.2848 42.7936 28.4307 43.4519 28.45 44.12C28.4486 44.2565 28.4831 44.391 28.55 44.51C28.97 45.51 29.26 46.66 29.55 47.75C29.72 48.31 30 48.82 30.17 49.38C30.1755 49.4899 30.1755 49.6 30.17 49.71C30.1738 49.846 30.1974 49.9807 30.24 50.11C30.6647 51.4317 31.1587 52.7302 31.72 54C31.88 54.26 32.08 55.83 32.25 56.14C32.42 56.45 32.26 57.08 32.4 57.2Z" fill="currentColor"/>
<path d="M14.85 50.75C14.671 50.861 14.4554 50.8969 14.25 50.85C14.0282 50.8011 13.8108 50.7343 13.6 50.65C13.44 50.65 13.22 50.31 13.32 50.18C13.5033 49.9208 13.7109 49.6797 13.94 49.46C14 49.4 14.6 48.99 15.25 48.56C15.9 48.13 16.63 47.63 17.02 47.44C17.7428 47.0485 18.4951 46.7141 19.27 46.44L21.59 45.51C22.36 45.19 23.16 44.96 23.94 44.7C24.282 44.5681 24.6375 44.4742 25 44.42C26.2515 44.2458 27.4751 43.9096 28.64 43.42C28.852 43.3712 29.0461 43.2638 29.2 43.11C30.4329 42.4691 31.7539 42.0142 33.12 41.76C34.226 41.6982 35.3277 41.5747 36.42 41.39C36.57 41.39 36.71 41.27 36.89 41.39C37.0561 41.4601 37.2347 41.4962 37.415 41.4962C37.5953 41.4962 37.7739 41.4601 37.94 41.39C38.39 41.28 38.85 41.19 39.3 41.09C39.5494 41.0649 39.8006 41.0649 40.05 41.09C40.28 41.09 40.36 41.46 40.31 41.53C40.26 41.6 40.41 41.8 40.5 41.92C40.5341 41.962 40.5611 42.0093 40.58 42.06C39.8255 42.8837 39.0099 43.6492 38.14 44.35L34.03 46.46C33.8101 46.5619 33.5722 46.6197 33.33 46.63C33.21 46.63 30.24 47.88 30.12 47.9C29.485 48.1556 28.8043 48.2781 28.12 48.26C27.9861 48.2479 27.8514 48.2721 27.73 48.33C26.6472 48.6657 25.5452 48.9361 24.43 49.14C23.86 49.25 23.33 49.49 22.76 49.6C22.66 49.6 22.54 49.6 22.44 49.6C22.3075 49.5793 22.1725 49.5793 22.04 49.6C20.72 49.94 19.35 50.11 18.04 50.6C17.76 50.73 16.18 50.7 15.85 50.82C15.52 50.94 15 50.64 14.85 50.75Z" fill="currentColor"/>
<path d="M22.5 57.4C22.4792 57.4912 22.4389 57.5768 22.382 57.651C22.325 57.7252 22.2527 57.7863 22.17 57.83C21.982 57.931 21.7883 58.0211 21.59 58.1C21.44 58.16 21.08 58.1 21.05 57.97C20.9963 57.6762 20.9662 57.3786 20.96 57.08C20.96 57.01 21.08 56.34 21.22 55.65C21.36 54.96 21.5 54.16 21.62 53.78C21.8276 53.0602 22.0918 52.3581 22.41 51.68L23.33 49.62C23.63 48.93 24.01 48.29 24.33 47.62C24.49 47.33 24.6811 47.0584 24.9 46.81C25.6277 45.9417 26.2241 44.9714 26.67 43.93C26.7793 43.7677 26.8352 43.5755 26.83 43.38C27.1936 42.1913 27.7548 41.0723 28.49 40.07C29.1764 39.3565 29.8144 38.5982 30.4 37.8C30.48 37.69 30.5 37.54 30.68 37.48C31.11 37.35 31.2 37.07 31.34 36.82C31.48 36.57 31.79 36.11 31.98 35.82C32.122 35.6429 32.283 35.482 32.46 35.34C32.5386 35.2895 32.6331 35.2698 32.7253 35.2846C32.8175 35.2993 32.9011 35.3475 32.96 35.42C33.03 35.63 33.24 35.51 33.39 35.52C33.4394 35.5085 33.4907 35.5085 33.54 35.52C33.6864 36.5532 33.7233 37.599 33.65 38.64L33.47 39.25C33.37 39.61 33.23 40.08 33.08 40.55C32.78 41.55 32.46 42.48 32.41 42.68C32.3347 42.8895 32.2153 43.0804 32.06 43.24C32 43.33 30.86 46.01 30.79 46.1C30.46 46.6 30.28 47.19 29.71 47.55C29.6176 47.6283 29.5456 47.7278 29.5 47.84C29.008 48.7379 28.4533 49.6001 27.84 50.42C27.53 50.85 27.34 51.33 27.03 51.76C26.9675 51.834 26.8971 51.9011 26.82 51.96C26.7267 52.0364 26.6427 52.1237 26.57 52.22C25.91 53.22 25.11 54.22 24.57 55.29C24.47 55.56 23.39 56.49 23.25 56.76C23.11 57.03 22.52 57.24 22.5 57.4Z" fill="currentColor"/>
<path d="M38.68 51.64C38.8756 51.7244 39.0301 51.8825 39.11 52.08C39.2057 52.3072 39.2435 52.5546 39.22 52.8C39.1814 52.8912 39.1212 52.9716 39.0445 53.0344C38.9679 53.0971 38.8771 53.1402 38.78 53.16C38.53 53.16 38.36 53.16 38.09 53.09C38.01 53.09 37.48 52.89 36.79 52.73C36.1 52.57 35.34 52.42 34.98 52.29C34.2621 52.0892 33.5602 51.8351 32.88 51.53L30.78 50.67C30.07 50.39 29.41 50.04 28.72 49.67C28.415 49.521 28.1267 49.34 27.86 49.13C26.9446 48.4256 25.9347 47.8533 24.86 47.43C24.6883 47.3273 24.4898 47.2786 24.29 47.29C23.0462 46.9329 21.8702 46.372 20.81 45.63C20.05 44.89 19.23 44.25 18.43 43.63C18.32 43.54 18.16 43.5 18.11 43.31C17.98 42.88 17.7 42.76 17.44 42.57C17.0893 42.3113 16.7553 42.0308 16.44 41.73C16.2755 41.552 16.1344 41.3537 16.02 41.14C15.9 40.95 16.16 40.69 16.23 40.68C16.46 40.68 16.4 40.44 16.45 40.3C16.4652 40.2496 16.4889 40.2023 16.52 40.16C16.9851 40.1697 17.4492 40.2064 17.91 40.27C18.61 40.34 19.36 40.39 19.49 40.43L21.33 41.07C22.26 41.38 23.24 41.69 23.45 41.74C23.6566 41.8105 23.8446 41.9267 24 42.08C24.08 42.15 26.81 43.21 26.91 43.28C27.4832 43.4935 27.9998 43.8356 28.42 44.28C28.5033 44.3735 28.6105 44.4427 28.73 44.48C29.6608 44.9521 30.5625 45.4797 31.43 46.06C31.88 46.35 32.43 46.54 32.83 46.83C32.91 46.89 32.98 46.98 33.05 47.04C33.1334 47.1339 33.2273 47.2178 33.33 47.29C34.43 47.92 35.43 48.72 36.57 49.29C36.85 49.4 37.82 50.52 38.1 50.72C38.38 50.92 38.52 51.57 38.68 51.64Z" fill="currentColor"/>
<path d="M76.39 32.08C76.4453 32.1396 76.4859 32.2113 76.5085 32.2895C76.5311 32.3677 76.535 32.45 76.52 32.53C76.52 32.68 76.44 32.88 76.38 33.12C76.32 33.36 76.1 33.55 75.98 33.5C75.7231 33.4022 75.4755 33.2817 75.24 33.14C75.18 33.14 74.72 32.68 74.24 32.23C73.826 31.8434 73.4353 31.4327 73.07 31C72.6389 30.475 72.2604 29.909 71.94 29.31L71 27.5C70.68 26.9 70.43 26.27 70.16 25.65C70.0484 25.3703 69.9712 25.0782 69.93 24.78C69.7699 23.7408 69.46 22.7303 69.01 21.78C68.94 21.63 68.91 21.45 68.73 21.34C68.4096 20.8849 68.1633 20.382 68 19.85C67.7743 19.2991 67.6425 18.7144 67.61 18.12C67.61 17.12 67.61 16.22 67.61 15.26C67.61 15.12 67.55 14.99 67.61 14.84C67.7879 14.5723 67.856 14.2464 67.8 13.93C67.8179 13.5069 67.885 13.0875 68 12.68C68.075 12.4634 68.1793 12.2582 68.31 12.07C68.41 11.89 68.77 12 68.81 12.07C68.85 12.14 69.1 12.07 69.25 12.07H69.41C69.47 12.07 69.68 12.55 70.02 13.07C70.36 13.59 70.73 14.07 70.78 14.15C70.83 14.23 71.04 14.88 71.4 15.63C71.76 16.38 72.14 17.14 72.23 17.29C72.3131 17.4571 72.3477 17.6442 72.33 17.83C72.33 17.92 73.33 20.18 73.33 20.27C73.554 20.7474 73.6538 21.2737 73.62 21.8C73.6131 21.9047 73.6375 22.0091 73.69 22.1C73.9918 22.9323 74.2489 23.7802 74.46 24.64C74.58 25.08 74.81 25.48 74.93 25.92C74.9404 26.003 74.9404 26.087 74.93 26.17C74.9141 26.276 74.9141 26.3839 74.93 26.49C75.2213 27.5108 75.5753 28.5127 75.99 29.49C76.12 29.69 76.17 30.96 76.3 31.2C76.43 31.44 76.28 32 76.39 32.08Z" fill="currentColor"/>
<path d="M62.59 27.26C62.5156 27.2977 62.4334 27.3174 62.35 27.3174C62.2666 27.3174 62.1843 27.2977 62.11 27.26C61.97 27.26 61.79 27.11 61.57 27C61.35 26.89 61.2 26.65 61.28 26.53C61.4213 26.3026 61.5783 26.0854 61.75 25.88C61.75 25.83 62.26 25.47 62.75 25.1C63.24 24.73 63.8 24.28 64.1 24.1C64.6534 23.7451 65.2394 23.4437 65.85 23.2L67.65 22.43C68.25 22.17 68.87 21.99 69.48 21.78C69.7541 21.6859 70.0404 21.632 70.33 21.62C71.3141 21.5718 72.2837 21.3624 73.2 21C73.35 20.93 73.51 20.9 73.62 20.73C74.562 20.1805 75.6008 19.8173 76.68 19.66C77.5519 19.6725 78.4237 19.6291 79.29 19.53C79.41 19.53 79.52 19.44 79.67 19.53C79.7948 19.6069 79.9364 19.6525 80.0826 19.663C80.2289 19.6734 80.3755 19.6484 80.51 19.59C80.87 19.51 81.24 19.46 81.59 19.41C81.7986 19.4107 82.0065 19.4342 82.21 19.48C82.4 19.48 82.5 19.85 82.46 19.92C82.42 19.99 82.57 20.19 82.66 20.31C82.6904 20.3544 82.7171 20.4012 82.74 20.45C82.1779 21.1621 81.5628 21.8306 80.9 22.45L77.71 24.24C77.5364 24.3266 77.3438 24.3678 77.15 24.36C77.06 24.36 74.75 25.36 74.65 25.36C74.1628 25.5726 73.6279 25.652 73.1 25.59C72.999 25.5585 72.8909 25.5585 72.79 25.59C71.9395 25.8547 71.0704 26.0553 70.19 26.19C69.74 26.27 69.33 26.47 68.88 26.54C68.7936 26.5498 68.7064 26.5498 68.62 26.54C68.5172 26.5251 68.4128 26.5251 68.31 26.54C67.31 26.79 66.19 26.88 65.19 27.23C64.97 27.34 63.71 27.23 63.46 27.3C63.21 27.37 62.69 27.16 62.59 27.26Z" fill="currentColor"/>
<path d="M68.66 32.38C68.6451 32.453 68.6114 32.5209 68.5623 32.577C68.5133 32.6331 68.4504 32.6755 68.38 32.7L67.83 32.86C67.68 32.86 67.32 32.86 67.28 32.74C67.2207 32.4925 67.1739 32.2422 67.14 31.99C67.14 31.93 67.2 31.39 67.28 30.82C67.3231 30.3094 67.3966 29.8018 67.5 29.3C67.6289 28.7204 67.813 28.1544 68.05 27.61L68.73 26C68.95 25.45 69.25 24.95 69.51 24.43C69.6303 24.2008 69.7855 23.9916 69.97 23.81C70.5735 23.16 71.0516 22.4039 71.38 21.58C71.4699 21.4484 71.5058 21.2873 71.48 21.13C71.7173 20.1884 72.1538 19.3086 72.76 18.55C73.3459 18.033 73.8909 17.4713 74.39 16.87C74.46 16.79 74.47 16.67 74.64 16.64C75.04 16.56 75.1 16.34 75.22 16.15C75.34 15.96 75.6 15.62 75.78 15.38C75.9125 15.2466 76.0602 15.1291 76.22 15.03C76.36 14.92 76.69 15.03 76.72 15.11C76.75 15.19 76.99 15.2 77.14 15.21C77.1931 15.2034 77.2469 15.2034 77.3 15.21C77.4862 16.051 77.5867 16.9087 77.6 17.77C77.6 17.77 76.82 20.67 76.73 21.02C76.6818 21.1906 76.5801 21.3413 76.44 21.45C76.44 21.52 75.55 23.66 75.44 23.72C75.17 24.11 75.06 24.59 74.55 24.84C74.4689 24.8906 74.4086 24.9687 74.38 25.06C73.9882 25.7618 73.5401 26.4307 73.04 27.06C72.79 27.39 72.65 27.78 72.4 28.06C72.3468 28.1176 72.2863 28.1681 72.22 28.21C72.1407 28.2661 72.0699 28.3335 72.01 28.41C71.4293 29.1714 70.8886 29.9625 70.39 30.78C70.32 30.99 69.39 31.66 69.27 31.87C69.15 32.08 68.66 32.25 68.66 32.38Z" fill="currentColor"/>
<path d="M81.26 27.68C81.3405 27.7108 81.4125 27.7605 81.4699 27.8248C81.5274 27.8892 81.5685 27.9664 81.59 28.05C81.6503 28.2624 81.6503 28.4875 81.59 28.7C81.4994 28.8717 81.345 29.001 81.16 29.06C80.95 29.06 80.81 29.06 80.58 29.06C80.51 29.06 80.09 28.94 79.58 28.85C79.07 28.76 78.4 28.7 78.12 28.62C77.5458 28.4917 76.9838 28.3144 76.44 28.09L74.78 27.47C74.22 27.26 73.7 26.98 73.16 26.74C72.9189 26.6276 72.6964 26.4793 72.5 26.3C71.794 25.7285 70.9913 25.2882 70.13 25C69.9922 24.9163 69.8279 24.8877 69.67 24.92C68.6956 24.6766 67.785 24.2264 67 23.6C66.43 22.96 65.81 22.42 65.21 21.86C65.12 21.78 65 21.76 64.97 21.59C64.91 21.18 64.68 21.09 64.48 20.93C64.2002 20.7159 63.9362 20.4819 63.69 20.23C63.5716 20.0625 63.4742 19.8811 63.4 19.69C63.32 19.53 63.55 19.25 63.62 19.24C63.69 19.23 63.78 18.99 63.83 18.86L63.9 18.71C64.2797 18.6901 64.6602 18.6901 65.04 18.71C65.4696 18.6842 65.9004 18.6842 66.33 18.71L67.8 19.15C68.54 19.37 69.32 19.58 69.48 19.61C69.6482 19.6579 69.7981 19.7555 69.91 19.89C69.97 19.94 72.14 20.73 72.21 20.78C72.61 21.04 73.1 21.14 73.37 21.63C73.4287 21.7119 73.5132 21.7718 73.61 21.8C74.3422 22.1676 75.0443 22.5923 75.71 23.07C76.05 23.31 76.46 23.44 76.8 23.68C76.86 23.68 76.91 23.81 76.96 23.86C77.0169 23.9419 77.0881 24.013 77.17 24.07C78.03 24.58 78.79 25.25 79.69 25.7C79.91 25.78 80.62 26.76 80.85 26.92C81.08 27.08 81.12 27.63 81.26 27.68Z" fill="currentColor"/>
<path d="M68.67 83C68.7191 83.0529 68.7547 83.1169 68.7738 83.1865C68.793 83.2561 68.7951 83.3294 68.78 83.4C68.78 83.53 68.69 83.71 68.64 83.93C68.59 84.15 68.37 84.32 68.26 84.28C68.0306 84.194 67.8069 84.0938 67.59 83.98C67.59 83.98 67.13 83.58 66.73 83.18C66.3453 82.8489 65.9875 82.4877 65.66 82.1C65.2754 81.6469 64.9401 81.1541 64.66 80.63L63.78 79.07C63.49 78.55 63.28 78 63.04 77.46C62.9384 77.2137 62.8711 76.9546 62.84 76.69C62.6911 75.7863 62.408 74.9099 62 74.09C61.96 73.9343 61.8683 73.7968 61.74 73.7C61.1946 72.8346 60.8526 71.8567 60.74 70.84C60.8 69.99 60.74 69.17 60.8 68.33C60.8 68.21 60.8 68.09 60.8 67.96C60.8866 67.8477 60.9483 67.7183 60.981 67.5804C61.0138 67.4425 61.0168 67.2992 60.99 67.16C60.987 66.7899 61.0273 66.4207 61.11 66.06C61.1745 65.8645 61.2727 65.6817 61.4 65.52C61.49 65.37 61.82 65.46 61.86 65.52C61.9 65.58 62.13 65.52 62.27 65.52C62.3199 65.5149 62.3701 65.5149 62.42 65.52C62.42 65.52 62.67 65.94 62.98 66.36C63.29 66.78 63.63 67.19 63.67 67.28C63.71 67.37 63.91 67.92 64.23 68.57C64.55 69.22 64.89 69.88 64.97 70.01C65.0444 70.1548 65.0756 70.3179 65.06 70.48C65.06 70.56 65.96 72.48 65.99 72.61C66.2337 73.0313 66.3516 73.5137 66.33 74C66.3247 74.0938 66.3455 74.1872 66.39 74.27C66.6599 74.9951 66.8837 75.7366 67.06 76.49C67.15 76.88 67.36 77.22 67.46 77.6C67.4702 77.6763 67.4702 77.7536 67.46 77.83C67.4497 77.923 67.4497 78.0169 67.46 78.11C67.7061 79.0119 68.0101 79.8971 68.37 80.76C68.49 80.93 68.51 82.05 68.62 82.26C68.73 82.47 68.57 82.91 68.67 83Z" fill="currentColor"/>
<path d="M56.59 78.83C56.5255 78.865 56.4534 78.8833 56.38 78.8833C56.3066 78.8833 56.2345 78.865 56.17 78.83C56.05 78.83 55.89 78.69 55.69 78.59C55.49 78.49 55.36 78.26 55.42 78.15C55.5413 77.9431 55.6784 77.7458 55.83 77.56C55.83 77.56 56.28 77.19 56.71 76.86C57.082 76.5373 57.4727 76.2368 57.88 75.96C58.3595 75.6447 58.8686 75.3767 59.4 75.16L61 74.5C61.52 74.27 62.06 74.12 62.59 73.93C62.8333 73.8527 63.0852 73.8057 63.34 73.79C64.2001 73.732 65.0431 73.522 65.83 73.17C65.9797 73.1408 66.1123 73.0548 66.2 72.93C67.0104 72.4418 67.9123 72.1253 68.85 72C69.6143 72.0238 70.3793 71.9971 71.14 71.92C71.25 71.92 71.34 71.84 71.48 71.92C71.5874 71.9931 71.7116 72.0379 71.841 72.0502C71.9704 72.0624 72.1008 72.0417 72.22 71.99C72.53 71.93 72.85 71.88 73.16 71.85C73.3459 71.8541 73.5306 71.881 73.71 71.93C73.88 71.93 73.97 72.28 73.94 72.33C73.91 72.38 74.05 72.58 74.13 72.7C74.1571 72.7411 74.1806 72.7847 74.2 72.83C73.7192 73.475 73.1911 74.0834 72.62 74.65L71.3 75.39C70.65 75.76 69.96 76.15 69.83 76.24C69.6778 76.3143 69.5092 76.3487 69.34 76.34C69.26 76.34 67.24 77.25 67.16 77.27C66.71 77.36 66.31 77.61 65.8 77.45C65.7069 77.4343 65.6113 77.452 65.53 77.5C64.7847 77.73 64.0223 77.9006 63.25 78.01C62.86 78.07 62.5 78.25 62.11 78.31C62.0336 78.3197 61.9564 78.3197 61.88 78.31C61.7869 78.3 61.6931 78.3 61.6 78.31C60.7 78.53 59.75 78.6 58.88 78.9C58.69 79 57.58 78.9 57.36 78.9C57.14 78.9 56.68 78.74 56.59 78.83Z" fill="currentColor"/>
<path d="M61.92 83.28C61.9053 83.3439 61.8746 83.4031 61.8309 83.452C61.7872 83.501 61.7319 83.5381 61.67 83.56L61.16 83.69C61.03 83.69 60.69 83.69 60.66 83.57C60.5906 83.3554 60.5437 83.1342 60.52 82.91C60.52 82.91 60.52 82.37 60.62 81.91C60.646 81.4566 60.7028 81.0056 60.79 80.56C60.8875 80.0498 61.0453 79.553 61.26 79.08L61.84 77.64C62.02 77.16 62.29 76.72 62.51 76.27C62.6171 76.0693 62.7555 75.8871 62.92 75.73C63.4592 75.1501 63.8804 74.4708 64.16 73.73C64.1994 73.6739 64.2268 73.6104 64.2405 73.5433C64.2543 73.4762 64.2541 73.407 64.24 73.34C64.4304 72.514 64.8104 71.7437 65.35 71.09C65.8757 70.6476 66.364 70.1626 66.81 69.64C66.87 69.57 66.88 69.47 67.03 69.44C67.148 69.4284 67.2603 69.3838 67.354 69.3113C67.4478 69.2388 67.5192 69.1413 67.56 69.03C67.71 68.81 67.9 68.57 68.06 68.36C68.1826 68.2492 68.3167 68.152 68.46 68.07C68.59 67.97 68.9 68.07 68.93 68.14C68.96 68.21 69.18 68.22 69.32 68.24H69.47C69.6492 68.9843 69.753 69.7448 69.78 70.51L69.05 73.37C69.0013 73.516 68.9109 73.6446 68.79 73.74C68.79 73.8 68.02 75.68 67.97 75.74C67.74 76.08 67.64 76.5 67.18 76.74C67.1436 76.76 67.1115 76.7871 67.0857 76.8197C67.0599 76.8524 67.041 76.8899 67.03 76.93C66.6892 77.547 66.2943 78.1327 65.85 78.68C65.63 78.96 65.51 79.3 65.29 79.58C65.29 79.64 65.18 79.67 65.13 79.71C65.0579 79.756 64.9937 79.8134 64.94 79.88C64.4223 80.5581 63.9448 81.266 63.51 82C63.45 82.18 62.61 82.75 62.51 82.93C62.41 83.11 61.92 83.17 61.92 83.28Z" fill="currentColor"/>
<path d="M72.85 79.09C72.9251 79.1177 72.9925 79.163 73.0465 79.2222C73.1004 79.2814 73.1394 79.3526 73.16 79.43C73.2149 79.6296 73.2149 79.8403 73.16 80.04C73.0767 80.2016 72.933 80.3238 72.76 80.38C72.57 80.38 72.44 80.38 72.22 80.38C72 80.38 71.75 80.27 71.22 80.18C70.69 80.09 70.1 80.03 69.83 79.95C69.2857 79.8284 68.7535 79.6577 68.24 79.44L66.66 78.84C66.13 78.65 65.66 78.38 65.12 78.15C64.8939 78.0359 64.6823 77.8949 64.49 77.73C63.8275 77.1734 63.0728 76.7368 62.26 76.44C62.1328 76.3576 61.9796 76.3255 61.83 76.35C60.8882 76.1314 60.0047 75.7118 59.24 75.12C58.7 74.52 58.11 74.01 57.54 73.48C57.45 73.41 57.34 73.39 57.31 73.22C57.24 72.85 57.03 72.76 56.84 72.61C56.5759 72.403 56.3254 72.1792 56.09 71.94C55.9732 71.7876 55.8789 71.6192 55.81 71.44C55.73 71.29 55.95 71.03 56.01 71.02C56.07 71.01 56.16 70.79 56.21 70.67C56.2252 70.6196 56.2489 70.5723 56.28 70.53C56.28 70.53 56.81 70.53 57.35 70.53C57.89 70.53 58.48 70.53 58.57 70.53L60 71C60.71 71.21 61.45 71.42 61.61 71.44C61.7657 71.4914 61.9041 71.5848 62.01 71.71C62.07 71.71 64.12 72.52 64.2 72.57C64.58 72.81 65.03 72.91 65.3 73.38C65.3522 73.4555 65.4306 73.509 65.52 73.53C66.2182 73.8787 66.8871 74.2834 67.52 74.74C67.85 74.97 68.24 75.09 68.52 75.32C68.58 75.32 68.62 75.44 68.68 75.49C68.7369 75.5658 68.8042 75.6331 68.88 75.69C69.69 76.17 70.42 76.8 71.27 77.23C71.48 77.31 72.16 78.23 72.38 78.37C72.6 78.51 72.72 79 72.85 79.09Z" fill="currentColor"/>
</svg>
