<svg width="96" height="96" viewBox="0 0 96 96" fill="none" xmlns="http://www.w3.org/2000/svg">
<path d="M40.41 37.78C42.7 41 45 44.29 47.31 47.5C48.16 48.67 49.15 49.73 49.99 50.91L54.4 57.17C55.86 59.27 57.26 61.42 58.74 63.5C60.04 65.35 61.47 67.11 62.89 68.85C64.8245 70.9926 66.571 73.2978 68.11 75.74C68.56 76.54 67.82 77 66.65 76.99C65.1578 76.9662 63.7295 76.3805 62.65 75.35C58.4942 71.1824 54.6755 66.6916 51.23 61.92C49.23 58.92 46.71 56.28 44.45 53.45C42 50.34 39.55 47.18 37.11 44L32.63 38.16C30.35 35.23 28.13 32.22 25.72 29.45C23.88 27.25 21.82 25.32 19.9 23.25C19.47 22.8 19.03 22.37 18.64 21.88C18.3301 21.496 18.0461 21.0918 17.79 20.67C17.6289 20.3369 17.5274 19.9781 17.49 19.61C17.4149 18.9934 17.5412 18.369 17.85 17.83C17.9619 17.5581 18.0922 17.2942 18.24 17.04C18.3858 16.8533 18.5816 16.7119 18.8047 16.6322C19.0278 16.5526 19.2689 16.5379 19.5 16.59C20.249 16.6936 20.9717 16.9379 21.63 17.31C23.7534 18.841 25.759 20.5291 27.63 22.36C28.63 23.28 29.54 24.21 30.46 25.18C31.38 26.15 32.2 27.18 33.05 28.25C35.59 31.32 38.05 34.51 40.5 37.65L40.41 37.78Z" fill="currentColor"/>
<path d="M61.15 44.72C58.31 47.96 55.45 51.2 52.65 54.47C51.65 55.66 50.75 56.97 49.71 58.15L44.22 64.39C42.38 66.47 40.48 68.49 38.66 70.58C37 72.43 35.52 74.38 34 76.31C32.1962 78.8826 30.1899 81.307 28 83.56C27.29 84.24 26.68 83.56 26.47 82.41C26.223 80.8398 26.5458 79.233 27.38 77.88C30.8217 72.4542 34.6552 67.2871 38.85 62.42C41.49 59.59 43.69 56.23 46.12 53.13C48.81 49.73 51.54 46.37 54.26 43L59.32 36.8C61.85 33.65 64.47 30.55 66.82 27.3C68.69 24.81 70.26 22.16 71.99 19.61C72.37 19.05 72.72 18.48 73.14 17.94C73.4678 17.5182 73.8218 17.1174 74.2 16.74C74.5002 16.4894 74.8376 16.2869 75.2 16.14C75.7896 15.9075 76.4388 15.8724 77.05 16.04C77.3409 16.0868 77.6283 16.1537 77.91 16.24C78.33 16.41 78.53 16.81 78.58 17.43C78.6174 18.2435 78.5056 19.0569 78.25 19.83C77.0926 22.4489 75.7561 24.9849 74.25 27.42C73.5 28.66 72.74 29.9 71.92 31.1C71.1 32.3 70.2 33.44 69.32 34.6C66.71 38.05 63.94 41.42 61.24 44.82L61.15 44.72Z" fill="currentColor"/>
<path d="M11.52 23.05C11.4414 21.3766 11.5488 19.6997 11.84 18.05C11.92 17.62 12.06 17.14 12.18 16.68C12.351 16.0975 12.5822 15.5345 12.87 15C13.03 14.73 13.16 14.44 13.33 14.18L13.9 13.44C14.2981 12.9707 14.7753 12.5747 15.31 12.27C15.7019 12.0514 16.1138 11.8706 16.54 11.73C16.96 11.61 17.42 11.56 17.86 11.47C18.2906 11.3572 18.7351 11.3067 19.18 11.32C19.65 11.32 19.91 11.32 20.28 11.38C22.3529 11.7424 24.359 12.4168 26.23 13.38C28 14.25 29.63 15.21 31.23 16.19C32.65 17.06 34.13 17.81 35.51 18.66C37.3515 19.5918 39.0796 20.7327 40.66 22.06C41.13 22.5 40.66 23.25 39.77 23.82C39.2628 24.1547 38.6894 24.3762 38.0889 24.4694C37.4883 24.5626 36.8748 24.5253 36.29 24.36C35.29 23.96 34.29 23.55 33.34 23.14C32.3748 22.7548 31.4419 22.2934 30.55 21.76C28.78 20.76 27.06 19.65 25.35 18.6C24.8411 18.2905 24.3096 18.0198 23.76 17.79C23.2228 17.5758 22.6715 17.3988 22.11 17.26C21.5824 17.1186 21.0438 17.0215 20.5 16.97C20.2558 16.9268 20.008 16.9067 19.76 16.91C19.5937 16.9261 19.4263 16.9261 19.26 16.91C19.0079 16.8768 18.7515 16.9149 18.52 17.02C18.2849 17.1522 18.0937 17.3503 17.97 17.59C17.97 17.67 17.97 17.66 17.88 17.79C17.8382 17.9075 17.8048 18.0278 17.78 18.15C17.7005 18.4181 17.6436 18.6924 17.61 18.97C17.53 19.55 17.44 20.19 17.4 20.84C17.3151 22.5075 17.3586 24.1791 17.53 25.84C17.7507 28.4585 18.155 31.0582 18.74 33.62C18.99 34.62 19.29 35.62 19.59 36.55C19.89 37.48 20.25 38.49 20.48 39.49C20.56 39.94 20.68 40.37 20.73 40.83C20.94 42.55 20.58 43.24 19.68 43.72C19.4919 43.8388 19.2946 43.9425 19.09 44.03C18.917 44.0733 18.7362 44.075 18.5624 44.0351C18.3886 43.9951 18.2267 43.9145 18.09 43.8C17.6506 43.5217 17.2783 43.1494 17 42.71L15.51 40.28C15.1 39.43 14.71 38.56 14.35 37.67C13.6224 35.8552 13.0634 33.9773 12.68 32.06C12.0114 29.0976 11.5669 26.0891 11.35 23.06L11.52 23.05Z" fill="currentColor"/>
<path d="M77 19.43C76.9669 18.4198 76.8363 17.4151 76.61 16.43C76.61 16.28 76.61 16.25 76.56 16.17C76.5278 16.0594 76.4676 15.959 76.3853 15.8784C76.303 15.7978 76.2013 15.7398 76.09 15.71C76.0503 15.7173 76.0097 15.7173 75.97 15.71C75.7848 15.7155 75.6006 15.7389 75.42 15.78L74.84 15.86C74.6353 15.9072 74.4284 15.9439 74.22 15.97C72.5916 16.2331 70.9936 16.6585 69.45 17.24C67.7958 17.8379 66.1794 18.5358 64.61 19.33C63.2 20.03 61.9 20.94 60.61 21.77C58.9837 22.9978 57.2343 24.0535 55.39 24.92C54.78 25.16 54.32 24.42 54.2 23.35C54.1155 22.751 54.1611 22.1408 54.3336 21.561C54.5062 20.9812 54.8017 20.4453 55.2 19.99C55.99 19.25 56.79 18.52 57.62 17.83C58.4291 17.1052 59.3104 16.4652 60.25 15.92C62.1509 14.7848 64.1609 13.8434 66.25 13.11C67.52 12.67 68.77 12.11 70.07 11.58C70.7 11.3 71.4 11.07 72.07 10.82C72.789 10.5861 73.5244 10.4056 74.27 10.28C74.71 10.22 75.12 10.14 75.58 10.12H76.42C76.7228 10.0944 77.0272 10.0944 77.33 10.12C78.4706 10.2612 79.5377 10.758 80.38 11.54C80.5957 11.7208 80.7903 11.9254 80.96 12.15C81.1519 12.357 81.3197 12.5851 81.46 12.83C81.6 13.08 81.78 13.31 81.89 13.55L82.2 14.24C82.4944 15.0587 82.699 15.9071 82.81 16.77C83.0199 18.656 83.0567 20.5573 82.92 22.45C82.78 25.21 82.34 27.89 82.09 30.54C81.91 32.61 81.89 34.65 81.66 36.67C81.58 37.11 81.53 37.55 81.42 37.99C81.3001 38.5946 81.0473 39.165 80.68 39.66C80.3617 39.9839 79.9483 40.1977 79.5 40.27C79.2858 40.3249 79.0688 40.3683 78.85 40.4C78.6697 40.4071 78.4909 40.3653 78.3325 40.2791C78.174 40.1928 78.0419 40.0653 77.95 39.91C77.6223 39.4643 77.4063 38.9465 77.32 38.4C77.14 37.47 76.95 36.51 76.79 35.57C76.63 34.63 76.67 33.7 76.64 32.76C76.6008 30.9144 76.6676 29.068 76.84 27.23C77.0833 24.6374 77.1401 22.0307 77.01 19.43H77Z" fill="currentColor"/>
<path d="M65.19 65C64.5233 64.1 63.8567 63.21 63.19 62.33C62.93 62.01 62.64 61.73 62.39 61.41L59.79 57.93C59.4 57.42 58.98 56.93 58.57 56.44C57.9952 55.8515 57.516 55.1767 57.15 54.44C56.94 53.97 58.38 53.8 58.97 54.44C59.97 55.63 61.13 56.82 62.11 58.15C62.7561 58.9266 63.4508 59.6614 64.19 60.35L66.48 62.8L67.88 64.33C68.6 65.08 69.28 65.9 69.98 66.67C70.54 67.26 71.2 67.74 71.79 68.32C71.92 68.44 72.06 68.55 72.18 68.68C72.62 69.21 72.63 69.48 72.18 69.98C72.09 70.09 72 70.21 71.9 70.31C71.7362 70.4658 71.5244 70.5615 71.2992 70.5815C71.074 70.6015 70.8487 70.5445 70.66 70.42C69.4378 69.6199 68.3046 68.6913 67.28 67.65C66.52 66.86 65.88 65.93 65.15 65.07L65.19 65Z" fill="currentColor"/>
</svg>
