<svg width="96" height="96" viewBox="0 0 96 96" fill="none" xmlns="http://www.w3.org/2000/svg">
<path d="M63.32 64.71C64.4388 62.9657 65.0227 60.9321 65 58.86C65.0012 58.1835 64.907 57.5102 64.72 56.86C64.4084 55.6104 63.7619 54.4694 62.85 53.56C61.7883 52.4682 60.5801 51.5292 59.26 50.77C57.9954 50.0934 56.6518 49.5761 55.26 49.23C54.37 48.99 53.45 48.86 52.55 48.59C51.65 48.32 50.77 47.9 49.86 47.52C49.3 47.26 49.4 46.95 49.97 46.52C50.3403 46.2455 50.7277 45.995 51.13 45.77C51.6434 45.4712 52.2053 45.2647 52.79 45.16C53.06 45.16 53.33 45.07 53.59 45.06C53.8511 45.0684 54.1115 45.0918 54.37 45.13L55.92 45.32C56.9699 45.4902 58.0085 45.7239 59.03 46.02C61.1891 46.5829 63.2036 47.5988 64.94 49C66.0203 49.938 67.0235 50.9613 67.94 52.06C68.9494 53.2566 69.6773 54.6646 70.07 56.18C70.1643 56.5922 70.2344 57.0096 70.28 57.43L70.36 58.55C70.36 58.93 70.42 59.3 70.43 59.67L70.37 60.81C70.37 61.19 70.37 61.57 70.3 61.95L70.1 63.09C70.02 63.47 69.98 63.85 69.87 64.22L69.51 65.33L69.29 66.01L68.99 66.66C68.78 67.09 68.58 67.53 68.35 67.95C67.8644 68.7728 67.309 69.5523 66.69 70.28C64.7651 72.3406 62.3851 73.9227 59.74 74.9C58.74 75.27 57.79 75.73 56.74 76.04C55.7334 76.3427 54.7031 76.5601 53.66 76.69C53.2 76.69 52.75 76.81 52.29 76.8C51.6479 76.8545 51.008 76.6732 50.49 76.29C50.1398 75.8784 49.9143 75.3753 49.84 74.84C49.84 74.58 49.72 74.32 49.7 74.09C49.73 73.672 49.9198 73.2817 50.23 73C50.5311 72.5394 50.9731 72.1887 51.49 72C52.9309 71.4534 54.3368 70.8188 55.7 70.1C56.9643 69.6651 58.1779 69.0951 59.32 68.4C60.0941 67.9176 60.8148 67.3545 61.47 66.72C61.72 66.36 62.13 66.12 62.39 65.72C62.69 65.3811 62.9547 65.0125 63.18 64.62L63.32 64.71Z" fill="currentColor"/>
<path d="M65 51.49C62.09 49.72 58 48.97 53.91 48.82H52.35H51.16L49.64 48.89C47.5371 48.9875 45.4427 49.2213 43.37 49.59C42.25 49.78 40.94 50.11 39.82 50.28L39 50.4H38.3C38.08 50.4 37.8 50.4 37.64 50.4L37.12 50.34H36.86H36.66L36.28 50.23C36.03 50.16 35.77 50.11 35.55 50.04C35.1993 49.932 34.8634 49.7808 34.55 49.59C34.2437 49.3832 33.9266 49.1929 33.6 49.02C33.4357 48.9566 33.2754 48.8831 33.12 48.8L32.91 48.66C32.8019 48.5905 32.718 48.4892 32.67 48.37C32.6417 48.2584 32.6417 48.1416 32.67 48.03V47.8C32.67 47.64 32.73 47.5 32.78 47.33L32.99 46.74C33.1091 46.4904 33.2461 46.2498 33.4 46.02L34.3 44.58C34.413 44.4129 34.5513 44.2645 34.71 44.14L35.22 43.66L35.72 43.19L35.98 42.95L36.31 42.69L39.17 40.69L40.58 39.69L42.05 38.74C43.05 38.1 43.96 37.48 44.89 36.85L47.42 35.12C49.41 33.7528 51.3105 32.2597 53.11 30.65C53.9517 29.8914 54.7371 29.0726 55.46 28.2C56.0803 27.4818 56.5679 26.659 56.9 25.77C57.0076 25.5002 57.0429 25.2071 57.0026 24.9195C56.9623 24.6319 56.8476 24.3598 56.67 24.13C56.6 23.98 56.41 23.85 56.29 23.7C56.17 23.55 55.94 23.42 55.76 23.27C55.314 22.9799 54.8534 22.7128 54.38 22.47C52.2892 21.5072 50.0299 20.9636 47.73 20.87C45.3426 20.7374 42.9484 20.9461 40.62 21.49C37.5947 22.1944 34.6689 23.2727 31.91 24.7C30.5 25.38 29.16 26.2 27.79 26.99L25.79 28.29C25.1 28.69 24.53 29.24 23.79 29.64C22.02 30.64 21.94 30.19 22.7 28.43C23.2243 27.2595 23.9259 26.1768 24.78 25.22C25.3112 24.559 25.9002 23.9466 26.54 23.39C27.2373 22.7449 27.9903 22.1627 28.79 21.65C31.7766 19.6883 35.0208 18.1503 38.43 17.08C41.9784 15.9357 45.7078 15.4577 49.43 15.67C51.3852 15.7773 53.3148 16.1646 55.16 16.82C56.1269 17.1769 57.0633 17.6117 57.96 18.12C59.0407 18.6925 60.0122 19.4507 60.83 20.36C61.8747 21.5324 62.5069 23.0145 62.63 24.58C62.714 25.9538 62.4599 27.3272 61.89 28.58C61.0195 30.4481 59.8166 32.1423 58.34 33.58C56.2619 35.6403 54.0648 37.5769 51.76 39.38L50.92 40.05L50.65 40.25L50.1 40.64C49.74 40.91 49.35 41.17 49.04 41.42C48.28 41.92 47.66 42.37 46.78 42.9L46.51 43.07C46.51 43.07 46.4 43.17 46.51 43.19C46.62 43.21 46.59 43.19 46.62 43.19C46.7799 43.1999 46.9402 43.1999 47.1 43.19L48.1 43.08C48.79 43 49.55 42.93 50.38 42.9C50.7867 42.9 51.2167 42.9 51.67 42.9H53.09H54.86C57.2668 42.9692 59.6612 43.2706 62.01 43.8C65.066 44.4533 67.9343 45.7901 70.4 47.71C72.9196 49.7648 74.7227 52.5658 75.55 55.71C75.8523 56.8962 76.0035 58.1159 76 59.34C75.9807 60.5798 75.7923 61.8111 75.44 63C74.756 65.3086 73.5518 67.4296 71.92 69.2C68.7898 72.4792 64.9179 74.9587 60.63 76.43C54.2891 78.6992 47.6047 79.8595 40.87 79.86C39.4052 79.908 37.9388 79.8612 36.48 79.72C31 79 29.46 78 28.69 76.11C28.4866 75.6963 28.3226 75.2644 28.2 74.82C28.1 74.14 28.63 73.64 29.65 73.32C30.2611 73.1512 30.8876 73.044 31.52 73C32.3439 72.9155 33.1719 72.8788 34 72.89C35.38 72.89 36.77 72.89 38.15 72.82H42.28C45.0105 72.7445 47.7347 72.5175 50.44 72.14C53.0876 71.7715 55.6953 71.1589 58.23 70.31C60.648 69.4951 62.9301 68.3221 65 66.83C66.3515 65.8414 67.5078 64.6106 68.41 63.2C69.1832 61.9719 69.5956 60.5512 69.6 59.1C69.5861 58.3875 69.4716 57.6805 69.26 57C69.0316 56.265 68.7161 55.56 68.32 54.9C67.5112 53.544 66.3681 52.4181 65 51.63V51.49Z" fill="currentColor"/>
</svg>
