<svg width="96" height="96" viewBox="0 0 96 96" fill="none" xmlns="http://www.w3.org/2000/svg">
<path d="M33.83 50.64C33.1957 52.0787 32.6807 53.567 32.29 55.09C32.1215 55.7457 32.0111 56.4149 31.96 57.09V57.62C31.957 57.7256 31.974 57.8307 32.01 57.93C32.0433 58.0216 32.1068 58.0992 32.19 58.15C32.282 58.2055 32.3839 58.2429 32.49 58.26H32.65C32.733 58.2705 32.817 58.2705 32.9 58.26C34.916 58.4376 36.9467 58.3502 38.94 58C41.1281 57.6222 43.2945 57.1281 45.43 56.52C47.3332 55.9381 49.1942 55.2265 51 54.39C53.2583 53.2537 55.6231 52.3427 58.06 51.67C58.73 51.51 59.25 52.3 59.12 53.54C59.0456 54.2695 58.8184 54.9751 58.4531 55.6109C58.0878 56.2466 57.5927 56.7983 57 57.23C56.41 57.59 55.83 57.94 55.23 58.28C54.63 58.62 54 58.85 53.39 59.13C52.14 59.65 50.88 60.13 49.6 60.58C46.9972 61.4804 44.3202 62.1496 41.6 62.58C39.95 62.84 38.3 63.21 36.6 63.52C35.6968 63.6825 34.7855 63.796 33.87 63.86C33.39 63.86 32.92 63.86 32.35 63.86C31.6723 63.8125 31.0017 63.6918 30.35 63.5C29.7343 63.2846 29.1467 62.9958 28.6 62.64C27.5989 61.8271 26.8955 60.7053 26.6 59.45C26.5091 59.1225 26.4456 58.788 26.41 58.45L26.35 57.98C26.3408 57.8502 26.3408 57.7198 26.35 57.59C26.3195 57.1005 26.3195 56.6095 26.35 56.12C26.5107 54.3619 26.8697 52.6275 27.42 50.95C28.1301 48.7982 28.9923 46.6996 30 44.67C31.47 41.57 33.22 38.67 34.89 35.67C36.19 33.4 37.29 31.04 38.69 28.8C38.9825 28.3055 39.3171 27.8371 39.69 27.4C41.16 25.81 42 25.57 43.15 26C43.4252 26.084 43.6928 26.1911 43.95 26.32C44.75 26.77 44.77 27.91 44.21 29.32L43.58 31L43.27 31.8C43.16 32.06 43.02 32.3 42.89 32.55L41.31 35.55C40.24 37.55 39.14 39.55 38.1 41.55C36.5307 44.4982 35.1609 47.5484 34 50.68L33.83 50.64Z" fill="currentColor"/>
<path d="M33 47.93C31.6332 50.2903 30.4109 52.7315 29.34 55.24C28.8169 56.4238 28.3693 57.6396 28 58.88C27.84 59.44 27.72 60.18 27.71 60.14C27.6747 60.3082 27.6747 60.4818 27.71 60.65C27.713 60.7123 27.7309 60.773 27.7623 60.8269C27.7936 60.8808 27.8374 60.9265 27.89 60.96C27.9978 61.0188 28.1174 61.053 28.24 61.06C28.38 61.06 28.5 61.06 28.63 61.06C28.6598 61.055 28.6902 61.055 28.72 61.06H29H29.69C33.1511 60.727 36.5612 59.9886 39.85 58.86C43.29 57.77 46.7 56.43 50.09 55.03C53.09 53.77 56.03 52.29 58.89 50.76C60.74 49.76 62.51 48.68 64.42 47.81C66.33 46.94 68.22 46.06 70.22 45.32C71.5 44.86 71.68 45.65 71.14 46.95C70.3159 48.8164 69.0243 50.4387 67.39 51.66C66.49 52.27 65.64 52.95 64.7 53.49L61.88 55.09C59.99 56.09 58.07 57.15 56.12 58.09C52.2177 60.0479 48.1647 61.6898 44 63C41.47 63.8 38.92 64.71 36.25 65.5C34.8885 65.9059 33.5066 66.2397 32.11 66.5C31.3827 66.6444 30.6483 66.7512 29.91 66.82H29.34H28.66C28.1105 66.8995 27.5543 66.9229 27 66.89C26.537 66.8553 26.0764 66.7952 25.62 66.71C25.1095 66.5625 24.6113 66.3753 24.13 66.15C23.6599 65.9025 23.2449 65.5624 22.91 65.15C22.2447 64.2805 21.839 63.2404 21.74 62.15C21.6581 61.6007 21.6313 61.0446 21.66 60.49C21.66 60.21 21.66 59.94 21.71 59.65L21.76 59.23V58.93C21.8793 58.1587 22.0395 57.3943 22.24 56.64C23.0104 53.8345 24.0139 51.0983 25.24 48.46C26.77 45.11 28.52 41.9 30.34 38.75C33.16 34 36.31 29.47 39.49 25C42.01 21.56 44.32 18 47.19 14.76C47.82 14.04 48.41 13.29 49.12 12.62C49.9997 11.6419 51.1151 10.9052 52.36 10.48C53.2608 10.3549 54.175 10.5844 54.91 11.12C55.2852 11.34 55.646 11.5838 55.99 11.85C56.2314 12.1019 56.4027 12.4125 56.4869 12.7511C56.5711 13.0897 56.5653 13.4444 56.47 13.78C56.3186 14.7756 55.8887 15.7082 55.23 16.47C53 19.16 50.87 22 48.7 24.91L42.14 33.91C38.845 38.4254 35.839 43.1449 33.14 48.04L33 47.93Z" fill="currentColor"/>
<path d="M54.69 63.18C54.83 60.39 54.95 57.59 54.99 54.78C54.99 53.78 54.81 52.78 54.88 51.72C55.1 48.09 55.34 44.44 55.38 40.81C55.38 39.19 55.38 37.57 55.25 35.98C54.9676 33.8966 55.0047 31.7822 55.36 29.71C55.53 29.03 56.42 29.15 57.36 29.66C57.8841 29.9299 58.3714 30.266 58.81 30.66C59.2781 31.0557 59.6248 31.5757 59.81 32.16C60.3 34.16 60.81 36.23 61.11 38.29C61.2817 39.3275 61.3587 40.3785 61.34 41.43C61.34 42.48 61.34 43.54 61.24 44.61C61.04 47.16 61.65 49.75 61.82 52.34C61.94 55.19 61.93 58.05 61.93 60.92V66.21C61.93 68.88 61.8 71.57 61.93 74.21C61.93 75.21 62.02 76.29 62.14 77.33L62.3 78.89C62.3 79.42 62.36 79.95 62.37 80.48C62.3949 80.9497 62.3949 81.4203 62.37 81.89C61.97 83.68 61.37 84.17 59.74 84.25C59.3869 84.2696 59.0331 84.2696 58.68 84.25C58.101 84.1822 57.5534 83.9504 57.1016 83.5819C56.6498 83.2135 56.3127 82.7236 56.13 82.17C55.7744 81.3332 55.5063 80.4619 55.33 79.57C55.15 78.71 54.96 77.82 54.8 76.92C54.64 76.02 54.52 75.14 54.42 74.22C54.32 73.3 54.42 72.39 54.42 71.47C54.42 70.09 54.42 68.71 54.47 67.32V63.12L54.69 63.18Z" fill="currentColor"/>
</svg>
