<svg width="96" height="96" viewBox="0 0 96 96" fill="none" xmlns="http://www.w3.org/2000/svg">
<path d="M34.66 75.84C42.3567 78.7355 50.7272 79.3399 58.76 77.58C60.7541 77.1376 62.7076 76.5288 64.6 75.76C66.4758 75.0163 68.2828 74.1095 70 73.05C73.38 70.97 76.12 68.13 77.17 64.7C77.5786 63.4347 77.768 62.109 77.73 60.78C77.6524 56.5686 76.0295 52.5327 73.17 49.44C69.5817 45.746 64.8753 43.3383 59.78 42.59C54.5704 41.7076 49.2217 42.1688 44.24 43.93C41.8893 44.7785 39.76 46.1457 38.01 47.93C37.1993 48.8171 36.5222 49.8176 36 50.9C35.447 51.9909 35.0434 53.1513 34.8 54.35C34.5503 55.4661 34.5352 56.622 34.7555 57.7444C34.9759 58.8667 35.4269 59.931 36.08 60.87C36.7952 61.844 37.6474 62.7096 38.61 63.44C39.6425 64.1868 40.7482 64.8267 41.91 65.35C46.2243 67.2012 50.9796 67.7739 55.61 67C57.8523 66.6226 59.9971 65.8034 61.92 64.59C63.69 63.5066 65.0133 61.8251 65.65 59.85C65.798 59.2993 65.8344 58.7245 65.7571 58.1596C65.6798 57.5946 65.4904 57.0507 65.2 56.56C64.5012 55.4811 63.5371 54.5996 62.4 54C59.9254 52.6217 57.107 51.9831 54.28 52.16C52.9543 52.2432 51.6634 52.6188 50.5 53.26C49.417 53.8814 48.5248 54.7875 47.92 55.88C47.7717 56.1442 47.6414 56.4182 47.53 56.7C47.45 56.96 47.39 57.23 47.31 57.46C47.1454 57.9293 47.1454 58.4407 47.31 58.91C47.5304 59.4855 47.8714 60.0071 48.31 60.44C48.8291 60.9251 49.3952 61.3573 50 61.73C51.61 62.73 52.4 63.14 52.27 63.32C52.14 63.5 51.16 63.45 49.42 63.09C48.3104 62.8572 47.2418 62.4594 46.25 61.91C45.93 61.76 45.66 61.49 45.25 61.28C44.9322 60.9661 44.6349 60.6321 44.36 60.28C43.7051 59.4538 43.2869 58.4653 43.15 57.42V57C43.04 56.85 43.15 56.71 43.15 56.57C43.15 56.43 43.21 56.03 43.25 55.75C43.3359 55.2147 43.4732 54.6889 43.66 54.18C43.8441 53.694 44.0578 53.2197 44.3 52.76C44.58 52.3 44.87 51.82 45.19 51.36C46.6691 49.5031 48.706 48.1709 51 47.56C52.9488 47.0073 54.9826 46.8174 57 47C58.9445 47.1787 60.8536 47.6333 62.67 48.35C64.5997 49.1016 66.3681 50.2148 67.88 51.63C68.7403 52.4668 69.4566 53.4399 70 54.51C70.5702 55.6384 70.9101 56.8689 71 58.13C71.0988 60.5145 70.3945 62.8632 69 64.8C67.7479 66.4908 66.1745 67.918 64.37 69C62.7059 70.049 60.8965 70.8475 59 71.37C57.2022 71.8808 55.3551 72.1992 53.49 72.32C49.8136 72.5676 46.1228 72.1406 42.6 71.06C38.8633 69.9809 35.4898 67.9071 32.84 65.06C31.4173 63.4718 30.3894 61.5702 29.84 59.51C29.3228 57.4615 29.2988 55.3195 29.77 53.26C29.9829 52.2914 30.2739 51.3416 30.64 50.42C31.0271 49.5309 31.461 48.663 31.94 47.82C32.9515 46.154 34.2283 44.6644 35.72 43.41C37.4671 41.9879 39.4191 40.8382 41.51 40C43.5285 39.1943 45.6222 38.5913 47.76 38.2C51.9994 37.3887 56.3475 37.3211 60.61 38C64.9691 38.6399 69.1361 40.2234 72.82 42.64C74.6831 43.914 76.365 45.4345 77.82 47.16C79.274 48.9014 80.4235 50.8758 81.22 53C82.1193 55.3057 82.623 57.7466 82.71 60.22C82.8311 62.7711 82.3908 65.3177 81.42 67.68C80.4344 70.0029 78.9926 72.1044 77.18 73.86C75.4481 75.5337 73.509 76.9788 71.41 78.16C67.3394 80.4753 62.9178 82.1102 58.32 83C53.7609 83.8748 49.0991 84.0836 44.48 83.62C38.7792 83.0922 33.2324 81.4764 28.14 78.86C22.941 76.2297 18.5288 72.273 15.35 67.39C12.9807 63.6523 11.5311 59.4062 11.12 55C10.7063 50.6568 11.11 46.2745 12.31 42.08C13.5084 37.9052 15.4347 33.9748 18 30.47C20.5449 27.0268 23.6 23.9919 27.06 21.47C32.3782 17.5704 38.4398 14.8033 44.87 13.34C48.078 12.5861 51.3648 12.2202 54.66 12.25C57.9999 12.2409 61.325 12.6952 64.54 13.6C65.2566 13.7711 65.9614 13.9882 66.65 14.25C67.35 14.5 68.05 14.71 68.73 15.01C70.1136 15.571 71.451 16.2397 72.73 17.01C73.33 17.38 73.93 17.68 74.44 18.07L75.91 19.17C76.7639 19.8135 77.5694 20.5187 78.32 21.28C78.9677 21.8846 79.5509 22.5548 80.06 23.28C80.5027 23.8316 80.9166 24.4057 81.3 25C81.8378 25.8964 82.2994 26.8364 82.68 27.81C82.8922 28.5206 82.9999 29.2583 83 30C83.0549 30.5653 83.0549 31.1346 83 31.7C82.84 32.35 82 31.86 80.76 30.53C78.9052 28.5458 76.9351 26.6726 74.86 24.92L73.36 23.68L71.76 22.58C71.2237 22.2138 70.666 21.8799 70.09 21.58C69.52 21.29 68.98 20.92 68.38 20.67C66.0252 19.5581 63.5484 18.7258 61 18.19C58.3923 17.7074 55.7411 17.4996 53.09 17.57C50.3957 17.6889 47.7179 18.0537 45.09 18.66C34.66 21.19 24.9 28.07 20 37.55C18.1633 41.0425 17.0286 44.8611 16.66 48.79L16.53 51.79C16.5346 52.7593 16.5947 53.7275 16.71 54.69C16.8155 55.6444 16.9724 56.5924 17.18 57.53C17.44 58.44 17.67 59.37 18.02 60.25C19.3682 63.8672 21.5788 67.1008 24.46 69.67C27.4661 72.3176 30.9385 74.3827 34.7 75.76L34.66 75.84Z" fill="currentColor"/>
</svg>
