<svg width="96" height="96" viewBox="0 0 96 96" fill="none" xmlns="http://www.w3.org/2000/svg">
<path d="M59.68 81.49C56.3512 82.7016 52.8846 83.4943 49.36 83.85C45.869 84.2152 42.3465 84.1547 38.87 83.67C35.3576 83.1987 31.934 82.2114 28.71 80.74C25.3944 79.2245 22.4288 77.0386 20 74.32C16.4297 70.2905 14.4247 65.1131 14.35 59.73C14.3055 57.469 14.5237 55.2106 15 53C15.4077 50.7974 16.0793 48.652 17 46.61C18.8403 42.5232 21.526 38.873 24.88 35.9C26.5989 34.3996 28.5426 33.1781 30.64 32.28C32.8471 31.3409 35.2496 30.9531 37.64 31.15C39.9496 31.3172 42.202 31.9469 44.2634 33.0016C46.3248 34.0564 48.1532 35.5147 49.64 37.29C50.9107 38.8646 51.8987 40.6477 52.56 42.56C53.2757 44.422 53.7104 46.3801 53.85 48.37C53.916 49.3994 53.8623 50.433 53.69 51.45C53.5046 52.4933 53.1677 53.504 52.69 54.45C51.717 56.3469 50.2215 57.9257 48.38 59C46.0667 60.3824 43.3731 60.9919 40.69 60.74C39.3042 60.5924 37.9615 60.1709 36.74 59.5C35.433 58.7936 34.3516 57.7331 33.62 56.44C32.9142 55.1233 32.6149 53.6268 32.76 52.14C32.8791 50.7326 33.3021 49.3679 34 48.14C34.3327 47.5329 34.7428 46.9715 35.22 46.47C35.7179 45.9743 36.2716 45.5381 36.87 45.17C38.0858 44.4172 39.5187 44.0933 40.94 44.25C41.5622 44.3104 42.1598 44.5233 42.68 44.87C43 45.1 43.1 45.25 43.03 45.34C42.96 45.43 42.09 45.34 40.94 45.65C40.2471 45.8602 39.6139 46.2318 39.0924 46.7342C38.5709 47.2365 38.176 47.8554 37.94 48.54C37.5844 49.3265 37.3226 50.1522 37.16 51C37.015 51.8199 37.0422 52.6611 37.24 53.47C37.3788 54.0728 37.6959 54.6199 38.15 55.04C38.7258 55.5541 39.4091 55.9333 40.15 56.15C41.8534 56.6204 43.6662 56.497 45.29 55.8C46.9054 55.1814 48.2295 53.9786 49 52.43C49.6517 50.7204 49.7531 48.85 49.29 47.08C49.0633 46.0779 48.7591 45.0949 48.38 44.14C48.17 43.65 47.96 43.14 47.73 42.68C47.5 42.22 47.29 41.85 47.03 41.45C45.9424 39.8545 44.493 38.5387 42.8 37.61C41.0774 36.6503 39.1801 36.0451 37.22 35.83C36.257 35.7294 35.2849 35.7597 34.33 35.92C33.3598 36.0879 32.4154 36.3804 31.52 36.79C30.3689 37.3396 29.2794 38.01 28.27 38.79C27.2291 39.6069 26.2651 40.5174 25.39 41.51C23.5766 43.5425 22.1347 45.8781 21.13 48.41C20.6391 49.657 20.2609 50.9455 20 52.26C19.85 52.9 19.76 53.59 19.66 54.26C19.5553 54.9223 19.4885 55.59 19.46 56.26C19.2273 58.9117 19.4884 61.5835 20.23 64.14C20.6431 65.4985 21.2136 66.804 21.93 68.03C22.6802 69.2312 23.5624 70.3448 24.56 71.35C26.6661 73.3742 29.1593 74.9524 31.89 75.99C37.5994 78.0959 43.7627 78.6615 49.76 77.63C51.6038 77.3686 53.4232 76.9573 55.2 76.4C56.9702 75.8493 58.6845 75.1328 60.32 74.26C61.9653 73.4107 63.5258 72.4061 64.98 71.26C66.4292 70.1101 67.7683 68.8279 68.98 67.43C72.7379 63.1481 75.2977 57.9493 76.4 52.36C76.9354 49.5738 77.0935 46.7283 76.87 43.9C76.6494 41.0869 76.0194 38.3211 75 35.69C74.1829 33.6754 73.1288 31.7653 71.86 30C70.5897 28.2733 69.1492 26.6786 67.56 25.24C65.9783 23.8605 64.2515 22.6568 62.41 21.65C60.5685 20.7024 58.6308 19.9548 56.63 19.42C54.8661 19.0145 53.0684 18.7734 51.26 18.7C47.87 18.51 45.62 18.81 43.98 18.7C43.2692 18.7125 42.5608 18.6147 41.88 18.41C41.3039 18.2553 40.7591 18.0015 40.27 17.66C39.7815 17.3946 39.3193 17.0832 38.89 16.73C38.32 16.14 38.7 15.36 39.97 14.47C41.9483 13.2506 44.171 12.4824 46.48 12.22C48.7693 11.9049 51.0853 11.8312 53.39 12C55.7666 12.1859 58.1147 12.6388 60.39 13.35C62.7162 14.0785 64.9458 15.0858 67.03 16.35C68.0669 16.9813 69.0684 17.669 70.03 18.41C70.52 18.78 70.97 19.19 71.44 19.59C71.9175 19.9762 72.3747 20.3867 72.81 20.82L74.1 22.12C74.54 22.56 74.91 23.04 75.31 23.5C76.1087 24.4358 76.8564 25.4139 77.55 26.43C78.9638 28.4891 80.157 30.6912 81.11 33C82.9682 37.6395 83.8401 42.6151 83.67 47.61C83.4002 54.9929 81.0157 62.143 76.8 68.21C72.6258 74.3042 66.6968 78.9846 59.8 81.63L59.68 81.49Z" fill="currentColor"/>
</svg>
