<svg width="96" height="96" viewBox="0 0 96 96" fill="none" xmlns="http://www.w3.org/2000/svg">
<path d="M38.43 26.5C42.43 26.63 46.43 26.76 50.43 26.84C51.89 26.84 53.34 26.74 54.8 26.79L70.23 27.28C72.51 27.38 74.81 27.4 77.08 27.42C80.0534 27.2783 83.0329 27.5067 85.95 28.1C86.17 28.1545 86.3707 28.2687 86.53 28.43C86.579 28.4767 86.6114 28.5381 86.6222 28.6049C86.6331 28.6717 86.6217 28.7402 86.59 28.8C86.346 29.0979 86.0557 29.3546 85.73 29.56C84.6149 30.3745 83.3104 30.8908 81.94 31.06C79.04 31.32 76.1 31.64 73.15 31.85L70.92 32H68.7C67.21 32 65.7 31.9 64.23 31.8C60.66 31.57 56.96 31.97 53.31 32.06C49.31 32.15 45.31 32.19 41.25 32.24L33.83 32.33C30.08 32.39 26.31 32.33 22.6 32.53C21.15 32.61 19.72 32.78 18.3 32.96L16.16 33.25C15.44 33.33 14.73 33.38 14.01 33.43C13.29 33.48 12.77 33.56 12.13 33.57C9.75998 33.57 8.99998 33.16 8.48998 31.74C8.35474 31.4145 8.24116 31.0805 8.14998 30.74C7.92998 29.66 8.87998 28.74 10.58 28.3C13.118 27.5855 15.7151 27.1002 18.34 26.85C20.98 26.62 23.67 26.51 26.34 26.42C28.34 26.36 30.34 26.34 32.34 26.32H38.34L38.43 26.5Z" fill="currentColor"/>
<path d="M57.38 42.8C59.91 42.97 62.46 43.13 65 43.25C65.92 43.25 66.85 43.19 67.77 43.25C71.04 43.45 74.31 43.7 77.59 43.85C79 44 80.5 44 81.94 44C83.8506 43.9046 85.7648 44.0933 87.62 44.56C87.7782 44.6061 87.9181 44.7005 88.02 44.83C88.0514 44.8775 88.0681 44.9331 88.0681 44.99C88.0681 45.0469 88.0514 45.1025 88.02 45.15C87.8326 45.4094 87.6289 45.6565 87.41 45.89C86.785 46.6197 85.9388 47.1253 85 47.33C83.17 47.58 81.3 47.85 79.44 48.02L78.04 48.14C77.57 48.14 77.1 48.14 76.63 48.14C75.63 48.09 74.74 48.02 73.79 47.92C71.4764 47.8154 69.1586 47.8555 66.85 48.04C64.3 48.04 61.75 48.04 59.19 48.04H54.5C52.12 48.04 49.73 47.96 47.36 48.11C46.4441 48.1801 45.5328 48.3003 44.63 48.47C43.7322 48.6578 42.8239 48.7913 41.91 48.87C41.51 48.87 41.12 48.98 40.71 48.98C39.2 48.98 38.71 48.61 38.39 47.31C38.31 47.02 38.22 46.73 38.17 46.44C38.1182 45.9469 38.2452 45.4515 38.5279 45.0441C38.8105 44.6367 39.23 44.3442 39.71 44.22C41.2837 43.5826 42.9346 43.1556 44.62 42.95C46.29 42.75 48 42.67 49.71 42.62C50.98 42.62 52.25 42.62 53.53 42.62L57.37 42.72L57.38 42.8Z" fill="currentColor"/>
<path d="M73.33 64.61C74.46 64.74 75.6 64.87 76.74 64.96C77.15 64.96 77.56 64.96 77.98 64.96C79.44 65.1 80.91 65.29 82.39 65.4C83.0561 65.4368 83.7238 65.4368 84.39 65.4C85.2426 65.3153 86.1033 65.4212 86.91 65.71C87.17 65.83 87.13 66.41 86.91 67.04C86.69 67.67 86.31 68.38 85.84 68.53C84.2155 69.0356 82.4798 69.0634 80.84 68.61C79.8029 68.4999 78.7571 68.4999 77.72 68.61C76.57 68.61 75.42 68.54 74.27 68.49C73.56 68.49 72.85 68.42 72.14 68.41C71.07 68.41 69.99 68.31 68.93 68.41C68.1025 68.4971 67.281 68.634 66.47 68.82C66.2921 68.8639 66.1118 68.8973 65.93 68.92C65.26 68.92 65.05 68.62 64.93 67.72C64.93 67.51 64.85 67.3 64.84 67.1C64.7934 66.794 64.8334 66.4811 64.9553 66.1966C65.0773 65.9121 65.2763 65.6673 65.53 65.49C66.2318 65.1355 66.9738 64.8669 67.74 64.69C68.11 64.6 68.49 64.53 68.87 64.47C69.2496 64.445 69.6304 64.445 70.01 64.47C71.14 64.47 72.29 64.58 73.43 64.63L73.33 64.61Z" fill="currentColor"/>
</svg>
