<svg width="96" height="96" viewBox="0 0 96 96" fill="none" xmlns="http://www.w3.org/2000/svg">
<path d="M79.83 54.63C79.0112 53.9594 78.3806 53.0876 78 52.1C77.8244 51.7263 77.7225 51.3223 77.7 50.91C77.74 50.2845 77.9265 49.6771 78.2444 49.1369C78.5622 48.5967 79.0026 48.1388 79.53 47.8C79.9 47.56 80.2 47.33 80.53 47.11C80.8581 46.7997 81.2671 46.5883 81.71 46.5C81.86 46.5 82.12 46.82 82.3 47.25C82.48 47.68 82.6 48.25 82.44 48.43C82.0989 48.9737 81.6813 49.4654 81.2 49.89C80.96 50 81.2 50.27 81.27 50.34C81.2892 50.5926 81.4036 50.8285 81.59 51C82.0854 51.5013 82.7555 51.7915 83.46 51.81C83.6528 51.779 83.8369 51.7074 84 51.6C84.15 51.53 84.27 51.42 84.38 51.37C84.49 51.32 84.46 51.27 84.51 51.27C84.8415 51.6077 85.1121 52.0002 85.31 52.43L85.6 52.89C85.7609 53.1266 85.8599 53.3998 85.8878 53.6846C85.9158 53.9694 85.8718 54.2566 85.76 54.52C85.6196 54.8902 85.3725 55.2104 85.05 55.44C84.7749 55.6562 84.4764 55.8407 84.16 55.99C83.5531 56.1454 82.9169 56.1454 82.31 55.99C81.4124 55.7422 80.5705 55.3246 79.83 54.76V54.63Z" fill="currentColor"/>
<path d="M10.75 30.84C10.5862 30.2647 10.4757 29.6755 10.42 29.08C10.42 28.78 10.42 28.48 10.42 28.18C10.4068 27.8844 10.4338 27.5884 10.5 27.3C10.5204 26.8593 10.5943 26.4228 10.72 26C11.2504 24.6298 12.1985 23.4613 13.43 22.66C13.69 22.49 13.91 22.29 14.17 22.13L14.96 21.73C15.6 21.3577 16.3204 21.145 17.06 21.11C17.3 21.11 17.35 21.43 17.3 21.84C17.2686 22.2681 17.1003 22.6749 16.82 23L16.43 23.27L16.1 23.59C15.89 23.81 15.66 23.98 15.46 24.18C15.252 24.3558 15.0314 24.5162 14.8 24.66C14.58 24.82 14.4 25.01 14.16 25.18C13.9139 25.4016 13.7252 25.6795 13.61 25.99C13.51 26.32 13.44 26.64 13.34 26.99C13.1744 27.7376 13.1744 28.5124 13.34 29.26C13.3787 29.5004 13.4458 29.7354 13.54 29.96L13.66 30.31L13.84 30.63C14.1706 31.3139 14.6738 31.8999 15.3 32.33C15.5567 32.4605 15.8288 32.5579 16.11 32.62C16.3861 32.6536 16.6599 32.7037 16.93 32.77C17.0464 32.7802 17.1635 32.7802 17.28 32.77C17.71 32.85 17.84 33.06 17.94 33.66C17.94 33.8 18 33.94 18.02 34.08C18.0556 34.3034 18.0037 34.532 17.8753 34.7182C17.7468 34.9044 17.5515 35.034 17.33 35.08C16.9487 35.2215 16.5466 35.2993 16.14 35.31C15.7222 35.3629 15.2978 35.3184 14.9 35.18C14.5014 35.0425 14.1136 34.8754 13.74 34.68C13.4 34.45 13.05 34.2 12.74 33.94C11.8186 33.0952 11.1298 32.0277 10.74 30.84H10.75Z" fill="currentColor"/>
<path d="M21 34.1599C19.7239 34.9747 18.2881 35.5069 16.7892 35.7208C15.2904 35.9347 13.7631 35.8253 12.31 35.4C11.2228 35.1333 10.2018 34.6466 9.30999 33.97C8.52146 33.3501 7.86678 32.5768 7.38553 31.6968C6.90427 30.8168 6.60643 29.8483 6.50999 28.8499C6.33622 26.9751 6.83611 25.0996 7.91999 23.5599C8.86616 22.3026 10.2084 21.4008 11.73 20.9999C13.4832 20.4828 15.3607 20.5816 17.05 21.28C17.55 21.5 17.38 21.7699 16.89 22.0499C16.2268 22.4197 15.5262 22.7181 14.8 22.9399C13.5536 23.1721 12.4419 23.8692 11.69 24.8899C11.46 25.3299 11.18 25.6199 10.98 26.0699C10.7569 26.533 10.6116 27.0297 10.55 27.54C10.5039 27.8745 10.5277 28.2151 10.62 28.54C10.6823 28.8584 10.8008 29.1631 10.97 29.4399C11.3367 29.9869 11.8309 30.4365 12.41 30.7499C13.159 31.154 13.9867 31.3909 14.836 31.4444C15.6853 31.498 16.5362 31.3668 17.33 31.0599C18.3396 30.7044 19.2064 30.0306 19.8 29.1399C20.2245 28.5065 20.4539 27.7625 20.46 26.9999C20.3943 26.2527 20.0346 25.5621 19.46 25.0799C18.3847 24.2852 17.1255 23.776 15.8 23.5999L14.92 23.5099C14.5122 23.491 14.1176 23.3595 13.78 23.1299C13.5151 22.8345 13.3021 22.4964 13.15 22.1299C13.07 21.9399 12.96 21.77 12.9 21.61C12.8492 21.4614 12.8401 21.3018 12.8736 21.1484C12.9071 20.9951 12.9819 20.8538 13.09 20.7399C13.23 20.5401 13.3947 20.3587 13.58 20.2C13.8009 20.0267 14.0626 19.9131 14.34 19.87C16.1758 19.4428 18.0944 19.5363 19.88 20.1399C20.8958 20.4694 21.8228 21.027 22.59 21.7699C23.5108 22.627 24.2166 23.689 24.65 24.87C24.9875 25.8317 25.1137 26.855 25.02 27.87C24.9405 28.7829 24.6966 29.6739 24.3 30.4999C23.5958 32.0409 22.482 33.3588 21.08 34.31L21 34.1599Z" fill="currentColor"/>
<path d="M42.82 48.6699C41.3192 48.7872 39.8102 48.5995 38.3838 48.1183C36.9574 47.6371 35.6431 46.8723 34.52 45.8699C33.5768 45.0747 32.8681 44.0376 32.47 42.8699C31.9575 40.965 32.1937 38.9362 33.13 37.2C33.5225 36.4516 33.9989 35.7505 34.55 35.11C35.1044 34.5203 35.7252 33.9968 36.4 33.5499C37.5536 32.7218 38.8581 32.1273 40.24 31.7999C41.1286 31.5923 42.0558 31.6176 42.9317 31.8733C43.8077 32.1291 44.6028 32.6067 45.24 33.2599C45.61 33.6599 45.31 33.8899 44.73 34.0999C44.15 34.3099 43.29 34.63 42.73 34.77L42.32 34.86L41.9 35C41.7816 35.05 41.6679 35.1102 41.56 35.18C41.4411 35.2118 41.3268 35.2588 41.22 35.32C40.7766 35.5328 40.3603 35.7981 39.98 36.11C39.2036 36.8304 38.4659 37.5915 37.77 38.3899C37.3723 38.8336 37.1455 39.4043 37.13 40C37.1409 40.4482 37.2684 40.886 37.5 41.27C37.7984 41.7708 38.2362 42.1739 38.76 42.43C39.4358 42.8047 40.1748 43.0522 40.94 43.16C41.3194 43.2398 41.7109 43.2438 42.0919 43.1717C42.473 43.0996 42.8359 42.9529 43.16 42.74C43.5898 42.3833 43.8656 41.8747 43.93 41.32C44.0561 40.5992 43.9764 39.8575 43.7 39.18C43.5015 38.6775 43.1981 38.2232 42.8101 37.8473C42.4221 37.4714 41.9584 37.1825 41.45 37C41.3586 36.9733 41.2614 36.9733 41.17 37C41.17 37 41.17 37 41.17 36.88C41.1769 36.8571 41.1769 36.8328 41.17 36.81C41.1797 36.7503 41.1797 36.6896 41.17 36.63C41.1216 36.4043 41.0443 36.1858 40.94 35.9799C40.82 35.7199 40.67 35.4099 40.51 35.1199C40.3685 34.8736 40.2115 34.6365 40.04 34.41C39.9129 34.2044 39.8311 33.9741 39.8001 33.7344C39.769 33.4947 39.7895 33.2511 39.86 33.02C39.936 32.6272 40.1422 32.2715 40.4452 32.0102C40.7481 31.749 41.1303 31.5974 41.53 31.58C42.8945 31.403 44.2774 31.7185 45.43 32.47C46.3395 33.0736 47.1266 33.8438 47.75 34.74C48.3262 35.551 48.7841 36.4399 49.11 37.38C49.2786 37.8801 49.4123 38.3913 49.51 38.91C49.7357 40.1223 49.7129 41.3678 49.443 42.571C49.1732 43.7742 48.6618 44.9102 47.94 45.91C47.2866 46.7429 46.4611 47.4251 45.52 47.91C44.6832 48.3371 43.7807 48.6211 42.85 48.75L42.82 48.6699Z" fill="currentColor"/>
<path d="M34.79 68.54C34.3425 69.6364 33.5805 70.5758 32.6 71.24C32.3693 71.4037 32.1251 71.5475 31.87 71.67L31.5 71.84L31.16 71.95C30.7141 72.1053 30.2558 72.2224 29.79 72.3L28.66 72.46C28.2368 72.4568 27.8149 72.4133 27.4 72.33C26.647 72.1059 25.9603 71.7007 25.4 71.15C25.1358 70.9111 24.9217 70.6222 24.77 70.3C24.6014 70.0159 24.4735 69.7096 24.39 69.39C24.0851 68.3043 24.0851 67.1556 24.39 66.07C24.5897 65.1809 24.9525 64.3367 25.46 63.58C25.7458 63.0673 26.1535 62.6331 26.6471 62.3156C27.1408 61.9982 27.705 61.8073 28.29 61.76C28.65 61.76 28.69 62.25 28.64 62.86C28.6303 63.3834 28.5427 63.9024 28.38 64.4C27.8177 65.3335 27.582 66.4277 27.71 67.51C27.7179 67.6464 27.7554 67.7795 27.82 67.9L27.93 67.99C27.93 67.99 27.93 68.07 28.01 68.07C28.037 68.0807 28.0611 68.0979 28.08 68.12C28.08 68.12 28.15 68.12 28.17 68.12C28.19 68.12 28.31 68.12 28.38 68.12C28.45 68.12 28.66 68.12 28.81 68.12C28.96 68.12 29.2 67.99 29.41 67.95C29.7096 67.8721 29.9782 67.7046 30.18 67.47C30.4754 67.1021 30.6313 66.6416 30.62 66.17C30.6538 65.7673 30.5948 65.3623 30.4474 64.9861C30.3 64.6099 30.0683 64.2725 29.77 64C29.7029 63.9352 29.6133 63.899 29.52 63.899C29.4267 63.899 29.3371 63.9352 29.27 64C29.19 64.13 29.22 64.31 29.16 64.43C29.1316 64.506 29.0911 64.5769 29.04 64.64C28.9737 64.687 28.899 64.7209 28.82 64.74C28.6848 64.7195 28.5533 64.6791 28.43 64.62C28.0199 64.4289 27.6224 64.2117 27.24 63.97L26.65 63.62C26.3437 63.42 26.0981 63.1398 25.94 62.81C25.8111 62.6089 25.7235 62.3843 25.6823 62.1491C25.6411 61.9139 25.6471 61.6728 25.7 61.44C25.9979 60.723 26.4896 60.1032 27.12 59.65C28.0182 59.1014 29.0753 58.8724 30.12 59C31.1537 59.1525 32.1202 59.6044 32.9 60.3C33.5349 60.8335 34.064 61.4813 34.46 62.21C34.9737 63.1647 35.2771 64.2183 35.35 65.3C35.4385 66.4097 35.2849 67.5254 34.9 68.57L34.79 68.54Z" fill="currentColor"/>
<path d="M63.15 59.48C62.6729 59.6958 62.168 59.8439 61.65 59.92L60.88 60.01L60.1 59.91C59.5817 59.8467 59.0798 59.6873 58.62 59.44L58.27 59.29L58 59.06C57.7914 58.9111 57.5911 58.7508 57.4 58.58C56.7998 58.1091 56.32 57.5024 56 56.81C55.7731 56.2344 55.6675 55.6182 55.69 55C55.7024 54.508 55.7661 54.0187 55.88 53.54C56.0683 52.6507 56.3885 51.7946 56.83 51C57.1929 50.2962 57.6431 49.6411 58.17 49.05C58.556 48.5973 59.0732 48.2758 59.65 48.13C59.9644 48.0562 60.2916 48.0567 60.6057 48.1313C60.9199 48.206 61.2124 48.3527 61.46 48.56C61.74 48.82 61.4 49.15 61.02 49.56C60.8225 49.741 60.6569 49.954 60.53 50.19C60.4479 50.3473 60.4067 50.5226 60.41 50.7C60.41 50.85 60.41 50.9 60.25 51.06C60.0994 51.2536 59.9624 51.4574 59.84 51.67C59.5416 52.2197 59.2777 52.7874 59.05 53.37C58.9226 53.7128 58.9051 54.0868 59 54.44C59.0357 54.6247 59.0893 54.8056 59.16 54.98C59.2599 55.2014 59.4195 55.3907 59.6208 55.5267C59.8221 55.6626 60.0573 55.74 60.3 55.75C60.6701 55.7585 61.0289 55.6222 61.3 55.37C61.534 55.1757 61.7019 54.9136 61.7807 54.6199C61.8595 54.3262 61.8453 54.0153 61.74 53.73C61.5 53.28 60.81 53.24 60.43 53.32C60.3482 53.3514 60.2648 53.3781 60.18 53.4C59.86 53.4 59.85 53.11 59.85 51.9V51.06C59.85 50.12 60.24 49.41 61.09 49.28C61.7609 49.1839 62.4449 49.2421 63.09 49.45C63.4463 49.5221 63.7856 49.6612 64.09 49.86C64.4073 50.0213 64.7002 50.2267 64.96 50.47C65.5011 50.9515 65.9276 51.5482 66.2079 52.2162C66.4882 52.8842 66.6154 53.6064 66.58 54.33C66.5936 54.5991 66.5666 54.8688 66.5 55.13C66.4587 55.3997 66.402 55.6668 66.33 55.93C66.156 56.4429 65.921 56.9331 65.63 57.39C65.0522 58.3037 64.2501 59.0542 63.3 59.57L63.15 59.48Z" fill="currentColor"/>
<path d="M63.56 19.29C63.6145 19.471 63.7299 19.6276 63.8866 19.7332C64.0433 19.8389 64.2318 19.8872 64.42 19.87C64.58 19.87 64.55 19.62 64.68 19.57C65.16 19.35 65.17 18.57 64.52 17.95C64.4539 17.8708 64.3722 17.8061 64.28 17.76C64.1509 17.6541 64.0099 17.5635 63.86 17.49C63.5681 17.33 63.255 17.2122 62.93 17.14C62.5999 17.0745 62.2601 17.0745 61.93 17.14C61.8538 17.1513 61.7762 17.1513 61.7 17.14C61.6341 17.1814 61.5637 17.2149 61.49 17.24C61.31 17.24 61.17 17.42 60.97 17.52C60.77 17.62 60.21 17.42 59.89 16.82C59.7052 16.456 59.6321 16.0454 59.68 15.64C59.7266 15.385 59.8242 15.142 59.9668 14.9255C60.1094 14.709 60.2941 14.5235 60.51 14.38C60.73 14.26 60.96 14.13 61.19 14.02C61.4187 13.9382 61.6526 13.8714 61.89 13.82C62.347 13.7039 62.8194 13.66 63.29 13.69C63.7163 13.7209 64.1384 13.7946 64.55 13.91C64.931 14.0324 65.3049 14.176 65.67 14.34L66.21 14.64L66.57 14.86C66.69 14.93 66.86 14.95 66.95 15.06C67.35 15.44 67.75 15.79 68.13 16.18C68.497 16.5399 68.8316 16.9314 69.13 17.35C69.3332 17.7558 69.5037 18.1771 69.64 18.61C69.7891 19.1059 69.9093 19.6101 70 20.12C70.0908 20.5876 70.1277 21.064 70.11 21.54C70.0534 22.5074 69.7047 23.4349 69.11 24.2C68.4475 25.0034 67.608 25.6426 66.6573 26.0677C65.7067 26.4927 64.6705 26.692 63.63 26.65C62.3919 26.6471 61.1756 26.3233 60.1 25.71C59.309 25.2675 58.6401 24.6358 58.1532 23.8715C57.6663 23.1071 57.3766 22.2338 57.31 21.33C57.2357 20.6654 57.2357 19.9946 57.31 19.33C57.4046 18.564 57.6384 17.8218 58 17.14C58.1483 16.7885 58.3326 16.4534 58.55 16.14C58.909 15.7037 59.3892 15.3836 59.93 15.22C60.1781 15.2115 60.4251 15.2562 60.6545 15.351C60.8839 15.4459 61.0904 15.5887 61.26 15.77C61.4816 15.9503 61.692 16.144 61.89 16.35C62.1825 16.666 62.4101 17.0363 62.56 17.44C62.6903 17.6736 62.8007 17.9178 62.89 18.17C63.03 18.63 63.29 18.75 63.45 18.78C63.5276 18.8074 63.6124 18.8074 63.69 18.78C63.6503 18.8219 63.6235 18.8744 63.6128 18.9311C63.6022 18.9879 63.6081 19.0465 63.63 19.1L63.56 19.29Z" fill="currentColor"/>
<path d="M88.35 54.3C87.4924 55.0635 86.4633 55.6089 85.35 55.89C84.3183 56.1433 83.2445 56.174 82.2 55.98C81.4926 55.8854 80.8003 55.7006 80.14 55.43C79.6064 55.1448 79.1008 54.81 78.63 54.43C78.1036 54.0488 77.6411 53.5864 77.26 53.06C76.8658 52.4965 76.6067 51.8498 76.5026 51.17C76.3986 50.4902 76.4524 49.7956 76.66 49.14C76.9366 48.1716 77.4022 47.2676 78.03 46.48C78.4176 45.9578 78.9033 45.5162 79.46 45.18C80.0576 44.8125 80.7731 44.6873 81.46 44.83C81.91 44.95 81.7 45.39 81.46 45.83C81.22 46.27 81.05 46.9 80.84 47.14C80.3662 47.685 80.024 48.3317 79.84 49.03C79.7583 49.3238 79.708 49.6255 79.69 49.93C79.6855 50.1246 79.7022 50.3191 79.74 50.51C79.8951 50.8586 80.1676 51.1417 80.51 51.31C80.7408 51.4351 80.9778 51.5486 81.22 51.65L81.91 51.9C82.3761 52.0772 82.8741 52.1545 83.372 52.127C83.8698 52.0994 84.3563 51.9676 84.8 51.74C85.0715 51.5851 85.3177 51.3895 85.53 51.16C85.7175 50.9862 85.8761 50.7837 86 50.56C86.2063 50.2367 86.2781 49.8455 86.2 49.47C86.1454 49.2823 86.0471 49.1102 85.9133 48.9677C85.7795 48.8252 85.6139 48.7163 85.43 48.65C85.282 48.5956 85.1272 48.562 84.97 48.55C84.7638 48.5299 84.5562 48.5299 84.35 48.55C83.94 48.55 83.54 48.72 83.17 48.77C83 48.77 82.85 48.88 82.69 48.9C82.5643 48.9194 82.4357 48.9097 82.3144 48.8715C82.193 48.8334 82.082 48.7679 81.99 48.68C81.7253 48.4181 81.4966 48.1222 81.31 47.8L80.92 47.23C80.7231 46.9362 80.6413 46.5803 80.69 46.23C80.7844 45.8315 81.0142 45.4781 81.34 45.23C81.6032 44.9998 81.9 44.811 82.22 44.67C82.5423 44.5133 82.8767 44.3829 83.22 44.28C83.8968 44.094 84.6035 44.0431 85.3 44.13C85.668 44.1677 86.0325 44.2346 86.39 44.33C86.8339 44.4912 87.2679 44.6782 87.69 44.89C88.1194 45.1166 88.519 45.3953 88.88 45.72C89.0653 45.8737 89.2391 46.0409 89.4 46.22L89.83 46.79C90.237 47.378 90.5074 48.0494 90.6216 48.7553C90.7358 49.4612 90.6908 50.1837 90.49 50.87C90.4632 51.047 90.4197 51.2212 90.36 51.39L90.13 51.89C89.9931 52.2339 89.8327 52.568 89.65 52.89C89.45 53.16 89.23 53.51 89.04 53.72C88.85 53.93 88.67 54.15 88.45 54.35L88.35 54.3Z" fill="currentColor"/>
<path d="M69.78 79.69C69.1158 78.945 68.6604 78.0377 68.46 77.0599C68.3729 76.7321 68.3127 76.3976 68.28 76.0599C68.28 75.7499 68.36 75.45 68.42 75.16C68.5078 74.8848 68.6251 74.6199 68.77 74.37C69.0053 73.8807 69.2973 73.4209 69.64 73C69.915 72.6811 70.172 72.3473 70.41 72C70.6949 71.5717 71.0883 71.2267 71.55 71C71.71 70.94 71.97 71.25 72.18 71.64C72.39 72.03 72.6 72.51 72.49 72.74C72.1827 73.4338 71.8216 74.1025 71.41 74.74C71.2815 75.0572 71.2536 75.4063 71.33 75.74C71.3589 76.1334 71.4899 76.5125 71.71 76.8399C72.1655 77.4339 72.831 77.8311 73.57 77.9499C73.8812 77.9195 74.1682 77.7688 74.37 77.53C74.37 77.53 74.43 77.44 74.48 77.43C74.53 77.42 74.48 77.43 74.57 77.43C74.6427 77.4714 74.7099 77.5218 74.77 77.58L75.37 78.11L75.72 78.41C75.9203 78.569 76.0669 78.7856 76.1403 79.0305C76.2136 79.2755 76.21 79.5371 76.13 79.78C75.944 80.1132 75.6935 80.406 75.393 80.6412C75.0925 80.8765 74.7481 81.0494 74.38 81.15C73.6959 81.3441 72.9741 81.3647 72.28 81.21C71.302 80.9469 70.4181 80.4131 69.73 79.67L69.78 79.69Z" fill="currentColor"/>
<path d="M80 76.31C79.6813 77.7441 78.91 79.0377 77.8 80C76.8552 80.8149 75.7471 81.4184 74.55 81.77C73.7478 82.0518 72.9092 82.2168 72.06 82.26C71.6711 82.2606 71.283 82.2272 70.9 82.16C70.5006 82.1173 70.1077 82.0266 69.73 81.89C68.9331 81.6431 68.2041 81.2153 67.6 80.64C66.5143 79.5464 65.9004 78.0709 65.89 76.53C65.837 75.3174 66.0771 74.11 66.59 73.01C66.9613 72.304 67.4962 71.6971 68.15 71.24L68.67 70.93C68.86 70.86 69.05 70.81 69.24 70.76C69.6124 70.648 70.0038 70.614 70.39 70.66C70.87 70.66 70.77 71.1 70.51 71.6C70.39 71.86 70.23 72.11 70.1 72.38C70.0004 72.6296 69.8799 72.8705 69.74 73.1C69.68 73.18 69.63 73.26 69.57 73.33C69.51 73.4 69.49 73.52 69.45 73.61C69.3707 73.7899 69.3104 73.9776 69.27 74.17C69.27 74.35 69.2 74.57 69.14 74.75C69.08 74.93 69.14 75.15 69.14 75.36C69.1451 76.0964 69.3196 76.8218 69.65 77.48C69.65 77.56 69.77 77.62 69.83 77.7C69.8881 77.7759 69.9685 77.8319 70.06 77.86C70.1429 77.9191 70.2298 77.9726 70.32 78.02L70.64 78.09C71.1515 78.1428 71.6682 78.1124 72.17 78C72.7559 77.926 73.3193 77.7281 73.8227 77.4194C74.3262 77.1108 74.7582 76.6985 75.09 76.21C75.2423 75.9431 75.3344 75.6462 75.36 75.34C75.3919 75.0354 75.3716 74.7277 75.3 74.43C75.244 73.9758 75.0102 73.5622 74.65 73.28C74.4531 73.154 74.2304 73.0742 73.9983 73.0465C73.7663 73.0188 73.5309 73.0439 73.31 73.12C72.8453 73.2831 72.4148 73.5305 72.04 73.85C71.6207 74.2092 71.2234 74.5933 70.85 75C70.68 75.17 70.55 75.38 70.37 75.54C69.57 75.94 69.1 75.82 68.16 75.15C67.95 74.99 67.73 74.86 67.53 74.7C67.1983 74.4191 66.9671 74.0377 66.8715 73.6137C66.7758 73.1897 66.821 72.7461 67 72.35C67.1014 71.9934 67.2601 71.6556 67.47 71.35C67.6864 71.0751 67.9167 70.8114 68.16 70.56C68.6737 70.0314 69.2476 69.5649 69.87 69.17C70.6211 68.7085 71.4416 68.3708 72.3 68.17L73.16 67.98C73.45 67.98 73.74 67.98 74.04 67.98C74.6217 67.9798 75.2006 68.0606 75.76 68.22C79.27 69.04 80.82 73.55 80.13 76.37L80 76.31Z" fill="currentColor"/>
</svg>
