<svg width="96" height="96" viewBox="0 0 96 96" fill="none" xmlns="http://www.w3.org/2000/svg">
<path d="M64.18 66.1C61.69 66.4 59.18 66.88 56.75 67.43C55.85 67.63 54.98 67.94 54.08 68.15C50.93 68.95 47.79 69.87 44.71 70.97C43.34 71.45 42 71.97 40.71 72.61C39 73.32 37.35 74.18 35.57 74.73C35.01 74.91 34.9 74.49 35.16 73.89C35.5508 73.0762 36.197 72.4125 37 72C40.4163 70.2153 44.0222 68.8198 47.75 67.84C48.86 67.52 49.99 67.18 51.12 66.84C52.25 66.5 53.39 66.12 54.53 65.84C57.04 65.15 59.6 64.64 62.16 64.18C63.75 63.96 65.33 63.69 66.94 63.57C69.3625 63.3351 71.7968 63.2449 74.23 63.3C75.17 63.36 76.11 63.3 77.05 63.41C77.9981 63.4639 78.9427 63.5673 79.88 63.72C80.29 63.8 80.7 63.85 81.12 63.94C81.688 64.0334 82.2201 64.2787 82.66 64.65C82.9136 64.8565 83.0753 65.1548 83.11 65.48C83.1236 65.623 83.1236 65.767 83.11 65.91C83.11 66.33 82.35 66.49 81.3 66.38C78.1192 65.7852 74.885 65.5238 71.65 65.6C69.143 65.6533 66.6416 65.8604 64.16 66.22L64.18 66.1Z" fill="currentColor"/>
<path d="M66.83 51.89C66.4973 52.2625 66.1251 52.5978 65.72 52.89C65.49 53.05 65.25 53.21 65.02 53.35C64.7796 53.4807 64.5287 53.5911 64.27 53.68C63.6665 53.9178 63.0164 54.0136 62.37 53.96C61.7793 53.9021 61.2037 53.7396 60.67 53.48C59.9372 53.1191 59.2378 52.6941 58.58 52.21L56.84 50.93C56.02 50.32 55.12 49.77 54.38 49.24C51.4959 47.2935 48.3951 45.6893 45.14 44.46C43.667 43.9092 42.1565 43.4648 40.62 43.13C38.6397 42.7717 36.6828 42.2941 34.76 41.7C34.17 41.49 34.33 40.9 34.96 40.35C35.3658 39.9882 35.8412 39.7129 36.357 39.5409C36.8728 39.369 37.4182 39.304 37.96 39.35C40.0929 39.5855 42.1967 40.0344 44.24 40.69C46.3059 41.3183 48.3135 42.1246 50.24 43.1C52.6691 44.2047 55.0094 45.4952 57.24 46.96C58.38 47.79 59.51 48.64 60.62 49.41C61.1034 49.7671 61.6189 50.0784 62.16 50.34C62.3141 50.4214 62.4857 50.464 62.66 50.464C62.8343 50.464 63.0059 50.4214 63.16 50.34C63.2929 50.2799 63.4173 50.2026 63.53 50.11C63.6587 50.0408 63.7766 49.9532 63.88 49.85C64.1473 49.6056 64.3886 49.3341 64.6 49.04C65.0936 48.4103 65.535 47.7414 65.92 47.04C67.15 44.81 68.31 42.4 69.51 40.04C70.3804 38.1324 71.3828 36.288 72.51 34.52C72.7428 34.1001 73.0435 33.7216 73.4 33.4C74.78 32.22 75.4 32.07 76.18 32.46C76.355 32.5336 76.5224 32.624 76.68 32.73C77.15 33.12 76.92 33.92 76.33 34.84C75.9891 35.6099 75.5948 36.355 75.15 37.07C74.72 37.79 74.29 38.51 73.88 39.29C73.05 40.81 72.24 42.43 71.43 44.11C70.82 45.36 70.21 46.62 69.52 47.93C68.7977 49.3541 67.9226 50.6953 66.91 51.93L66.83 51.89Z" fill="currentColor"/>
<path d="M10.94 28.51C13.9355 27.1282 16.9995 25.8999 20.12 24.83C23.1667 23.75 26.23 22.75 29.31 21.83C31.56 21.15 33.76 20.33 36.02 19.73C44.0162 17.5938 52.1299 15.9243 60.32 14.73C63.97 14.24 67.63 13.73 71.32 13.38C73.6988 13.139 76.0891 13.0288 78.48 13.05C79.6989 13.0855 80.9145 13.1957 82.12 13.38C83.3482 13.6103 84.5437 13.9898 85.68 14.51C87.12 15.2 86.52 16.15 85.08 17.06C84.227 17.6115 83.3346 18.0995 82.41 18.52C81.3407 18.9544 80.1939 19.1654 79.04 19.14C74.559 19.1231 70.082 19.4104 65.64 20C61.11 20.59 56.51 21.13 51.86 21.81C46.3 22.6 40.71 24.4 35.19 26C29.13 27.78 23.08 29.7 17.27 32C15.88 32.57 14.5 33.17 13.19 33.81L12.19 34.3L11.85 34.49L11.59 34.63C11.29 34.83 10.85 35.05 10.87 35.47C10.85 35.6829 10.85 35.8971 10.87 36.11C10.87 36.22 10.87 36.33 10.87 36.44C10.87 36.55 10.92 36.81 10.96 37C11.47 39.73 12.31 42.63 13.1 45.48L15.58 54.09C16.85 58.57 18.33 62.94 19.03 67.71C19.2076 68.7694 19.3277 69.8376 19.39 70.91C19.4196 71.7788 19.3761 72.6485 19.26 73.51C19.1332 74.1229 18.914 74.7129 18.61 75.26C18.4074 75.6447 18.1236 75.9808 17.7783 76.245C17.433 76.5092 17.0343 76.6951 16.61 76.79C16.287 76.906 15.9513 76.9832 15.61 77.02C15.07 77.02 14.71 76.58 14.44 75.89C14.1054 74.9602 13.8675 73.9985 13.73 73.02C13.3732 69.1907 12.6839 65.3998 11.67 61.69C10.67 57.77 9.49999 53.75 8.26999 49.69C7.59999 47.46 6.91999 45.2 6.26999 42.86C5.95999 41.68 5.63999 40.5 5.36999 39.23L5.16999 38.23L5.07999 37.72L4.97999 37.04C4.81958 35.9157 4.81958 34.7743 4.97999 33.65L5.14999 33.09C5.14999 33.01 5.14999 32.89 5.28999 32.83L5.38999 32.56C5.54624 32.1979 5.75516 31.8609 6.00999 31.56C6.54681 30.9569 7.16233 30.4289 7.83999 29.99C8.16999 29.75 8.49999 29.55 8.83999 29.35L9.60999 29C10.03 28.77 10.45 28.55 10.86 28.35L10.94 28.51Z" fill="currentColor"/>
<path d="M59.39 70C57.76 70.26 56.13 70.63 54.5 71L49.61 72.2C48.41 72.52 47.27 72.97 46.07 73.28C43.97 73.83 41.86 74.42 39.76 75.01C37.66 75.6 35.56 76.27 33.48 76.95C31.63 77.58 29.83 78.33 28.06 79.09C25.8369 80.2093 23.4864 81.0555 21.06 81.61C20.29 81.75 20.06 80.96 20.32 79.9C20.6387 78.5951 21.4481 77.4633 22.58 76.74C24.8175 75.4943 27.1597 74.4469 29.58 73.61C31.9854 72.6933 34.439 71.9088 36.93 71.26C38.42 70.85 39.93 70.35 41.41 69.8C42.89 69.25 44.41 68.65 45.89 68.19C47.37 67.73 49.22 67.19 50.89 66.74L53.44 66.09L56 65.51C57.05 65.26 58.11 65.07 59.18 64.88C60.25 64.69 61.31 64.48 62.39 64.34C65.6556 63.858 68.9494 63.5908 72.25 63.54C74.8 63.43 77.34 63.31 79.9 63.41C80.46 63.41 81.01 63.41 81.57 63.5C83.57 63.96 84.16 64.5 84.33 65.84C84.3875 66.1172 84.4275 66.3978 84.45 66.68C84.45 67.54 83.45 68.3 81.98 68.46C81.4367 68.5453 80.8893 68.602 80.34 68.63C79.8 68.63 79.26 68.63 78.72 68.63C77.66 68.63 76.59 68.63 75.53 68.63H74H72.4C71.33 68.63 70.26 68.72 69.19 68.78C65.9277 69.0102 62.684 69.4545 59.48 70.11L59.39 70Z" fill="currentColor"/>
<path d="M68.3 49.91C68.06 50.31 67.79 50.67 67.54 51.05C67.2792 51.4018 66.9952 51.7359 66.69 52.05L66.24 52.44L65.72 52.69L65.2 52.94C65.0993 52.9703 65.0046 53.0177 64.92 53.08H64.63C63.8321 53.1376 63.0311 53.0251 62.28 52.75C61.47 52.45 60.65 52.01 59.93 51.66L57.27 50.28C56.42 49.85 55.58 49.43 54.72 49.03C53.48 48.45 52.17 48.03 50.9 47.52C46.4728 45.5214 41.8518 43.9834 37.11 42.93C34.9887 42.5011 32.8336 42.2602 30.67 42.21C29.29 42.15 27.91 42.21 26.54 42.21C25.1484 42.1738 23.7598 42.0637 22.38 41.88C21.51 41.74 21.54 40.81 22.23 39.77C22.6554 39.1189 23.2091 38.5613 23.8573 38.1315C24.5056 37.7016 25.2346 37.4085 26 37.27C27.5047 37.1134 29.0195 37.0767 30.53 37.16C32.04 37.23 33.53 37.35 35.04 37.54C38.0455 37.926 41.004 38.6162 43.87 39.6C47.28 40.78 50.95 41.6 54.33 43.04C56.18 43.82 58.01 44.68 59.79 45.58L61.11 46.27L61.77 46.61L62.02 46.74L62.18 46.84L62.76 47.16L63.06 47.32C63.16 47.32 63.28 47.43 63.38 47.32C63.5916 47.1577 63.7712 46.9577 63.91 46.73L64.15 46.39L64.27 46.21L64.48 45.86L66.28 42.73C68.1 39.53 70.11 36.37 72.22 33.3C73.8029 30.809 75.5819 28.4482 77.54 26.24C77.9976 25.7471 78.4852 25.2828 79 24.85C79.421 24.501 79.8767 24.196 80.36 23.94C80.7153 23.7721 81.0982 23.6704 81.49 23.64C81.8162 23.634 82.1395 23.7019 82.4356 23.8388C82.7318 23.9756 82.9931 24.1777 83.2 24.43C83.4534 24.6574 83.6845 24.9085 83.89 25.18C84.5 26.11 84.06 27.26 83.1 28.36C79.8001 31.6921 76.9127 35.4087 74.5 39.43C73.5 41.01 72.57 42.63 71.62 44.3L70.2 46.83L69.47 48.13L68.41 50L68.3 49.91Z" fill="currentColor"/>
<path d="M80 43.27L81.28 39.27C81.44 38.78 81.47 38.27 81.64 37.8C82.29 36.12 82.91 34.43 83.73 32.8C84.09 32.08 84.32 31.32 84.66 30.58C84.8363 30.0811 85.0572 29.5992 85.32 29.14C85.4513 28.9023 85.6054 28.6779 85.78 28.47C85.9855 28.2608 86.2061 28.0669 86.44 27.89C86.74 27.67 87.1 28.12 87.44 28.7C87.5984 28.9876 87.7386 29.2849 87.86 29.59C87.9826 29.8304 88.028 30.1028 87.99 30.37C87.6306 32.1615 87.1153 33.9182 86.45 35.62C86.0413 36.7381 85.7791 37.9045 85.67 39.09L84.79 43C84.63 43.8 84.48 44.61 84.35 45.42C84.0847 46.6312 83.9175 47.8619 83.85 49.1C83.8642 49.583 83.9144 50.0644 84 50.54C84.05 51.02 84.12 51.54 84.16 51.96C84.1951 52.1618 84.1951 52.3682 84.16 52.57C84.02 53.32 83.67 53.57 82.65 53.72L81.96 53.83C81.6142 53.8688 81.2645 53.8119 80.9488 53.6655C80.6332 53.5192 80.3638 53.289 80.17 53C79.6284 52.1524 79.2549 51.2086 79.07 50.22C78.9599 49.2865 78.9599 48.3434 79.07 47.41C79.212 46.0232 79.4594 44.6492 79.81 43.3L80 43.27Z" fill="currentColor"/>
</svg>
