<svg width="96" height="96" viewBox="0 0 96 96" fill="none" xmlns="http://www.w3.org/2000/svg">
<path d="M15.44 78.13L16.26 78.03C16.5275 78.016 16.7909 77.9586 17.04 77.86L18.44 77.3C19.3733 76.9596 20.2793 76.5484 21.15 76.07C22.88 75.14 24.58 74.18 26.27 73.19C27.96 72.2 29.64 71.19 31.27 70.19C32.1 69.67 32.93 69.19 33.75 68.61L36.18 66.92C39.4671 64.6226 42.6066 62.121 45.58 59.43C47.207 57.9603 48.6873 56.336 50 54.58C50.7996 53.4889 51.427 52.2815 51.86 51C51.9877 50.5572 52.0846 50.1061 52.15 49.65C52.2049 49.1788 52.225 48.7042 52.21 48.23C52.1719 47.7572 52.0779 47.2906 51.93 46.84C51.78 46.39 51.56 45.97 51.4 45.52C51.1604 45.2575 50.9461 44.9729 50.76 44.67L50.32 44C50.02 43.56 49.7 43.23 49.39 42.84C49.08 42.45 48.77 42.09 48.46 41.73L47.46 40.73C46.82 40.03 46.16 39.41 45.46 38.73C44.76 38.05 44.13 37.48 43.46 36.89C40.72 34.52 37.91 32.34 35.05 30.24C29.3433 26.08 23.4567 22.22 17.39 18.66C16.5 18.13 14.68 21.03 15.49 21.6C21.11 25.6 26.56 29.93 31.74 34.47C34.32 36.74 36.83 39.07 39.17 41.47C40.34 42.68 41.48 43.9 42.51 45.15L43.28 46.08L43.96 47.02C44.1944 47.3207 44.4114 47.6345 44.61 47.96C44.75 48.24 45.08 48.67 44.97 48.66C44.7182 49.1652 44.4023 49.6357 44.03 50.06C42.9404 51.3013 41.7386 52.4394 40.44 53.46C37.5749 55.716 34.5688 57.7869 31.44 59.66C28.25 61.56 25.09 63.56 21.81 65.37C18.53 67.18 15.04 68.67 12.32 71.11C11.91 71.72 14.41 78.19 15.44 78.13Z" fill="currentColor"/>
<path d="M43.75 84.26C48.45 83.07 52.01 80.42 55.87 78.12C59.73 75.82 63.42 73.32 67.02 70.62C70.6802 67.9393 74.192 65.0617 77.54 62C79.2931 60.3907 80.9305 58.6598 82.44 56.82C83.271 55.8101 84.0169 54.7331 84.67 53.6C85.5145 52.1909 86.0401 50.614 86.21 48.98C86.3102 47.8498 86.1281 46.7124 85.68 45.67C85.56 45.4 85.41 45.14 85.27 44.89C85.22 44.7937 85.1596 44.7032 85.09 44.62L85 44.38L84.44 43.61C83.6827 42.6229 82.868 41.6813 82 40.79C81.2 39.91 80.36 39.13 79.53 38.3L77 36C73.55 33 70 30.39 66.3 27.84C59.0131 22.7868 51.4697 18.1139 43.7 13.84C42.62 13.24 40.9 16.2 41.91 16.84C49.1993 21.5942 56.2386 26.721 63 32.2C66.36 34.93 69.62 37.77 72.65 40.74L74.89 43C75.57 43.77 76.29 44.53 76.89 45.3C77.5091 46.0477 78.0867 46.8289 78.62 47.64L79.01 48.22L79.1 48.37V48.44C79.25 48.35 78.78 48.66 79.45 48.24L79.54 48.19H79.48C79.4036 48.1983 79.3264 48.1983 79.25 48.19C79.1603 48.201 79.0697 48.201 78.98 48.19C78.819 48.7229 78.5724 49.2261 78.25 49.68C77.7562 50.4224 77.2045 51.1246 76.6 51.78C75.2565 53.2821 73.8132 54.692 72.28 56C68.9899 58.6883 65.5584 61.1985 62 63.52C58.42 65.87 54.83 68.27 51.14 70.52C47.45 72.77 43.53 74.66 40.38 77.42C39.84 78.05 42.58 84.42 43.75 84.26Z" fill="currentColor"/>
</svg>
