<svg width="96" height="96" viewBox="0 0 96 96" fill="none" xmlns="http://www.w3.org/2000/svg">
<path d="M69.27 61.49C70.76 58.3 72.2 55.04 73.56 51.76C74.05 50.56 74.4 49.31 74.89 48.11C76.65 43.88 78.41 39.65 79.97 35.34C80.69 33.44 81.16 31.45 81.75 29.54C82.08 28.3 82.42 27.05 82.75 25.81C82.92 25.19 83.11 24.58 83.31 23.97C83.5575 23.3665 83.8483 22.7816 84.18 22.22C84.59 21.51 85.18 21.69 85.87 22.53C86.3054 23.0625 86.6842 23.6389 87 24.25C87.2984 24.9494 87.3954 25.7184 87.28 26.47C87.07 27.82 86.82 29.15 86.54 30.47C86.4 31.14 86.26 31.79 86.09 32.47L85.46 34.39C84.5973 36.9493 83.5958 39.4596 82.46 41.91C81.11 44.85 80.28 48.1 79.12 51.19C77.85 54.58 76.49 57.94 75.12 61.28C74.25 63.34 73.34 65.39 72.41 67.44C71.88 68.62 71.32 69.79 70.7 70.97C70.4 71.55 70.0667 72.14 69.7 72.74C69.51 73.04 69.35 73.33 69.1 73.66C68.8384 74.026 68.5365 74.3615 68.2 74.66C67.5033 75.2238 66.7682 75.7383 66 76.2C63.5917 78.0069 60.8383 79.3002 57.91 80C57.5811 80.0803 57.2469 80.1371 56.91 80.17C56.5794 80.2228 56.2445 80.2429 55.91 80.23C54.9733 80.3034 54.0428 80.0253 53.3 79.45C53.0496 79.1438 52.8704 78.7858 52.7753 78.4019C52.6801 78.0179 52.6715 77.6177 52.75 77.23C52.7626 76.761 52.806 76.2933 52.88 75.83C52.9974 75.1627 53.3161 74.5474 53.7934 74.0665C54.2707 73.5857 54.8836 73.2624 55.55 73.14C56.4 73.04 57.19 72.78 57.95 72.7C58.71 72.62 59.48 72.55 60.25 72.41C61.0525 72.2677 61.8444 72.0706 62.62 71.82C63.0244 71.6937 63.4035 71.4974 63.74 71.24L64.27 70.88L64.52 70.68L64.65 70.58C64.65 70.58 64.65 70.58 64.71 70.58C64.77 70.58 64.66 70.64 64.77 70.47C65.1699 69.8618 65.5338 69.2307 65.86 68.58C66.25 67.86 66.63 67.09 67.01 66.31C67.76 64.75 68.5 63.14 69.2 61.51L69.27 61.49Z" fill="currentColor"/>
<path d="M16.19 49.45C17.7 46.05 19.26 42.68 20.92 39.35C21.51 38.13 22.02 36.86 22.66 35.66C23.76 33.53 24.96 31.43 26.24 29.35C26.57 28.84 26.92 28.35 27.24 27.81L27.76 27.04L28.35 26.28C28.7415 25.7419 29.1727 25.2339 29.64 24.76L30.39 24C30.7 23.76 31.04 23.52 31.39 23.3C33.5906 22.2017 36.0324 21.6755 38.49 21.77C41.4729 21.5775 44.4188 22.5167 46.74 24.4C47.53 25.18 46.86 25.51 45.93 25.88C44.7539 26.4474 43.5056 26.8511 42.22 27.08L41.31 27.15C41.0158 27.2043 40.7142 27.2043 40.42 27.15C39.84 27.09 39.26 27.03 38.69 27.02C37.6303 26.9613 36.5673 27.0183 35.52 27.19C35.303 27.2181 35.0889 27.2649 34.88 27.33C34.68 27.39 34.48 27.42 34.34 27.48L34.1 27.55L33.93 27.62C33.83 27.62 33.64 27.81 33.46 27.95C33.28 28.09 33.09 28.23 32.89 28.42L32.28 29.08C31.8248 29.5374 31.3974 30.0216 31 30.53C30.4809 31.1301 30.0126 31.7723 29.6 32.45C29.17 33.14 28.74 33.83 28.37 34.57C27.61 36 26.88 37.51 26.16 39C24.57 42.27 22.99 45.58 21.55 49C20.64 51 19.77 53.11 19 55.22C17.77 58.41 16.51 61.62 15.57 64.88C14.9098 67.4101 14.3857 69.9738 14 72.56C13.9 73.12 13.84 73.68 13.72 74.24C13.6413 74.6807 13.531 75.1151 13.39 75.54C13.2544 75.8395 13.0683 76.1135 12.84 76.35C12.4328 76.7479 11.8978 76.9888 11.33 77.03C11.046 77.0875 10.7588 77.1276 10.47 77.15C9.56998 77.15 8.97998 76.15 8.84998 74.42C9.2999 69.462 10.3958 64.584 12.11 59.91C13.31 56.37 14.7 52.91 16.11 49.41L16.19 49.45Z" fill="currentColor"/>
<path d="M12.06 58.17C14.06 52.81 16.21 47.52 18.17 42.17C18.88 40.23 19.37 38.23 20.07 36.29C20.87 34.08 21.65 31.86 22.37 29.65C22.73 28.55 23.07 27.44 23.32 26.33L23.69 24.69V24.48C23.69 24.42 23.69 24.35 23.74 24.2C23.7586 23.9582 23.792 23.7177 23.84 23.48C23.8853 23.2388 23.9154 22.995 23.93 22.75V22C24.0139 21.0427 24.2678 20.1081 24.68 19.24C24.8328 18.8908 25.0169 18.5561 25.23 18.24C25.5119 17.8952 25.8867 17.6384 26.31 17.5C27.1434 17.2224 28.0246 17.117 28.9 17.19C29.35 17.19 29.85 17.29 30.33 17.34C30.81 17.39 31.33 17.67 31.81 17.87C33.03 18.41 34.28 18.74 34.92 18.98L37.24 19.73C38.78 20.2 40.31 20.62 41.82 20.98C43.77 21.46 45.73 21.65 47.62 21.98C49.4621 22.2954 51.3332 22.4094 53.2 22.32C54.29 22.22 54.65 23.05 53.87 24.45C53.3275 25.3159 52.5959 26.0476 51.73 26.59C50.6389 27.3432 49.3844 27.8265 48.07 28C46.9242 28.1209 45.7711 28.1577 44.62 28.11C43.5 28.01 42.39 27.88 41.32 27.71C39.15 27.38 37.07 26.91 35.06 26.4L33.57 26L32.83 25.81L32.47 25.71L32.19 25.63L32.07 25.55L32 25.48C31.954 25.4227 31.9001 25.3722 31.84 25.33C31.6921 25.1865 31.5035 25.0922 31.3 25.06C31.1625 25.1463 31.0463 25.2626 30.96 25.4C30.8934 25.4537 30.836 25.5179 30.79 25.59V25.64C30.79 25.64 30.79 25.64 30.74 25.75L30.57 26.25L30.24 27.25C30.03 27.89 29.81 28.54 29.59 29.19C29.23 30.48 28.86 31.77 28.49 33.07C27.77 35.65 27.04 38.22 26.18 40.71C24.29 46.2 22.23 51.59 20.18 56.97C18.94 60.29 17.69 63.59 16.54 66.91C15.68 69.42 14.81 71.91 14.1 74.44L13.89 75.2L13.74 75.75C13.6523 76.1226 13.5855 76.4999 13.54 76.88C13.51 77.0688 13.51 77.2612 13.54 77.45C13.5557 77.5439 13.6028 77.6297 13.6737 77.6933C13.7446 77.7569 13.8349 77.7945 13.93 77.8C14.3055 77.8751 14.6871 77.9152 15.07 77.92H16H17L20.11 77.81C22.2497 77.7008 24.3942 77.7309 26.53 77.9C27.5406 77.962 28.5441 78.1092 29.53 78.34C30.385 78.5607 31.206 78.8971 31.97 79.34C32.2872 79.5251 32.5767 79.7541 32.83 80.02C33.0635 80.2364 33.2685 80.4818 33.44 80.75C33.7326 81.1214 33.9094 81.5707 33.9485 82.0419C33.9877 82.5131 33.8873 82.9854 33.66 83.4C33.4879 83.7379 33.2615 84.0453 32.99 84.31C32.4991 84.5789 31.9328 84.6773 31.38 84.59C30.7121 84.6041 30.0439 84.5741 29.38 84.5C27.9004 84.1785 26.3937 83.9976 24.88 83.96C23.2 83.89 21.43 83.88 19.59 83.88H16.76H15.56H14.17C13.6636 83.8579 13.1565 83.8982 12.66 84C12.1805 84.0793 11.6896 84.0554 11.22 83.93C10.76 83.87 10.35 83.76 9.90998 83.68C9.46998 83.6 9.22998 83.31 8.90998 83.16C8.5406 82.9795 8.22636 82.7032 7.99998 82.36C7.88879 82.247 7.78523 82.1267 7.68998 82L7.60998 81.89C7.68998 81.82 7.60998 81.89 7.60998 81.83V81.77L7.39998 81.54C7.16493 81.2218 6.99191 80.8622 6.88998 80.48C6.81998 80.29 6.72998 80.12 6.67998 79.93L6.59998 79.32C6.44039 78.8967 6.34598 78.4516 6.31998 78C6.31998 77.56 6.31998 77.11 6.31998 76.66C6.30715 76.3231 6.34422 75.9861 6.42998 75.66C6.48998 75.3133 6.55998 74.98 6.63998 74.66C6.77998 74 6.99998 73.13 7.05998 72.89C7.25998 72.14 7.46998 71.4 7.67998 70.68C8.10998 69.24 8.56998 67.83 9.03998 66.44C9.97998 63.65 10.96 60.92 11.92 58.19L12.06 58.17Z" fill="currentColor"/>
<path d="M70.13 60.16C72.29 54.54 74.37 48.88 76.28 43.16C76.98 41.08 77.42 38.93 78.14 36.86C79.37 33.21 80.58 29.54 81.55 25.86C81.8 24.95 82.03 24.04 82.22 23.14C82.32 22.69 82.41 22.25 82.49 21.81L82.62 21.11C82.7371 20.6899 82.6832 20.2405 82.47 19.86C82.1488 19.5566 81.731 19.3761 81.29 19.35C81.0879 19.3191 80.8842 19.2991 80.68 19.29H79.53C78.7 19.29 77.84 19.29 76.97 19.36C75.22 19.42 73.43 19.5 71.6 19.45C69.1564 19.4694 66.7245 19.1118 64.39 18.39C63.1849 17.9566 62.0444 17.3611 61 16.62C59.9482 15.8552 59.0293 14.9228 58.28 13.86C57.39 12.48 58.66 11.99 60.36 11.86C61.21 11.81 62.2 11.78 63.14 11.79C64.0743 11.7441 65.0104 11.8316 65.92 12.05C67.6764 12.5233 69.4818 12.7917 71.3 12.85C73.3 12.93 75.36 12.85 77.64 12.77H79.4C80.04 12.77 80.4 12.77 81.73 12.82C83.7937 12.7785 85.8019 13.4894 87.38 14.82C90.49 17.39 88.95 23.24 88.6 24.72C87.91 27.53 87.27 30.28 86.6 33.05C85.93 35.82 85.34 38.58 84.6 41.28C82.8 47.15 80.83 53 78.8 58.79C77.55 62.36 76.24 65.92 74.94 69.47C74.16 71.62 73.34 73.76 72.48 75.91L71.73 77.79C71.42 78.55 71.1 79.29 70.73 80.02C70.4156 80.7031 70.0229 81.3474 69.56 81.94L68.85 82.64C68.7393 82.7733 68.6022 82.8821 68.4472 82.9596C68.2923 83.037 68.123 83.0814 67.95 83.09C67.25 83.02 66.55 82.91 65.82 82.82C65.09 82.73 64.28 82.34 63.5 82.07C63.12 81.95 62.76 81.82 62.36 81.71L61.57 81.51C61.07 81.39 60.57 81.29 60.07 81.19C59.0775 81.0314 58.0749 80.9445 57.07 80.93C55.02 80.93 53.02 80.93 51 81.14C50.11 81.14 49.24 81.41 48.35 81.45C47.1644 81.6697 45.9434 81.6011 44.79 81.25C43.9205 80.7791 43.2522 80.0077 42.91 79.08C42.6502 78.603 42.4165 78.1123 42.21 77.61C42.0692 77.2041 42.0385 76.7682 42.121 76.3466C42.2036 75.925 42.3965 75.5328 42.68 75.21C43.4432 74.2791 44.5017 73.6369 45.68 73.39C47.5507 72.8918 49.4612 72.5572 51.39 72.39C52.39 72.32 53.39 72.24 54.39 72.26H55.91L57.42 72.44C59.42 72.73 61.42 73.22 63.49 73.71C63.74 73.77 63.99 73.85 64.24 73.92C64.3928 73.976 64.55 74.0195 64.71 74.05C64.71 74.05 64.71 74.12 64.78 73.88L65.19 72.88L66.82 68.7C67.89 65.88 68.95 63.04 69.96 60.18L70.13 60.16Z" fill="currentColor"/>
</svg>
