<svg width="96" height="96" viewBox="0 0 96 96" fill="none" xmlns="http://www.w3.org/2000/svg">
<path d="M71.15 67.1C70.473 68.9885 69.4563 70.7373 68.15 72.26C66.7949 73.7118 65.1762 74.8927 63.38 75.74C60.1575 77.2179 56.6178 77.8709 53.08 77.64C50.5463 77.554 48.0506 76.9979 45.72 76C44.7159 75.544 43.7495 75.009 42.83 74.4C42.4 74.09 41.9 73.74 41.53 73.4L40.43 72.55C38.9834 71.4366 37.4779 70.4017 35.92 69.45C32.9548 67.5157 29.5346 66.3917 26 66.19C24.4452 66.1291 22.891 66.3251 21.4 66.77C19.8952 67.1871 18.4526 67.8025 17.11 68.6C15.4343 69.6391 13.9799 70.9983 12.83 72.6C12.53 72.99 12.25 73.41 11.98 73.83C11.71 74.25 11.38 74.65 11.1 75.09C10.52 75.94 9.99003 76.85 9.46003 77.77C8.81003 78.92 8.38003 78.61 8.17003 77.29C8.0387 76.406 8.01855 75.509 8.11003 74.62C8.16344 74.027 8.26037 73.4388 8.40003 72.86L8.67003 71.92C8.82003 71.62 8.98003 71.32 9.16003 71.02C10.4769 68.8353 12.2342 66.9486 14.32 65.48C16.4026 64.0529 18.7219 63.0067 21.17 62.39C23.6551 61.7748 26.2351 61.6424 28.77 62C31.2252 62.3515 33.6065 63.1013 35.82 64.22C38.3636 65.4971 40.8371 66.9091 43.23 68.45L44.11 69.02C44.4 69.22 44.71 69.41 44.94 69.55C45.4369 69.8592 45.9511 70.1397 46.48 70.39C47.5406 70.8834 48.6455 71.2752 49.78 71.56C52.276 72.1751 54.884 72.1751 57.38 71.56C58.6112 71.2593 59.7956 70.7916 60.9 70.17C61.9258 69.6311 62.8177 68.8691 63.51 67.94C65.23 65.73 65.73 62.35 65.67 58.87C65.67 53.57 64.74 47.94 64.9 42.05C64.9459 39.6846 65.2817 37.3337 65.9 35.05C66.5951 32.5888 67.863 30.3271 69.6 28.45C69.9661 28.0239 70.3639 27.6261 70.79 27.26C71.186 26.8602 71.6216 26.5017 72.09 26.19C72.52 25.91 72.93 25.65 73.3 25.43C73.6506 25.2535 74.0152 25.1063 74.39 24.99C74.9442 24.7921 75.5229 24.671 76.11 24.63C76.5474 24.6348 76.9787 24.7327 77.3753 24.9172C77.7719 25.1017 78.1246 25.3686 78.41 25.7C78.717 25.9881 78.9981 26.3027 79.25 26.64C79.4143 26.9388 79.4929 27.2771 79.477 27.6177C79.4611 27.9583 79.3514 28.2878 79.16 28.57C78.647 29.3785 78.0168 30.1065 77.29 30.73L76.83 31.13C76.7 31.28 76.56 31.41 76.42 31.55C76.28 31.69 75.85 32.07 75.6 32.35C75.35 32.63 75.13 32.91 74.89 33.18C74.65 33.45 74.5 33.76 74.3 34.04C73.5765 35.1894 73.0556 36.4544 72.76 37.78C72.4298 39.2908 72.2688 40.8336 72.28 42.38C72.28 44.06 72.2 45.87 72.28 47.76C72.36 50.6 72.57 53.58 72.59 56.76C72.611 58.429 72.5443 60.098 72.39 61.76C72.207 63.5934 71.835 65.403 71.28 67.16L71.15 67.1Z" fill="currentColor"/>
<path d="M83.7101 23.47C83.7441 22.8772 83.7441 22.2828 83.7101 21.69C83.7101 21.59 83.7101 21.58 83.7101 21.5C83.7101 21.42 83.7101 21.39 83.7101 21.35C83.7101 21.31 83.5201 21.12 83.3001 21C82.8159 20.8828 82.3179 20.8324 81.8201 20.85C80.5873 20.7751 79.35 20.8625 78.1401 21.11C76.7825 21.3377 75.445 21.6721 74.1401 22.11C72.9583 22.5317 71.8279 23.0852 70.7701 23.76C69.4433 24.67 67.996 25.3903 66.4701 25.9C65.9801 26.04 65.4701 25.38 65.2601 24.38C65.1162 23.8346 65.0918 23.2646 65.1885 22.7089C65.2851 22.1531 65.5005 21.6248 65.8201 21.16C66.1401 20.83 66.4701 20.49 66.8201 20.16L67.3201 19.68L67.8901 19.29C68.6419 18.7839 69.4233 18.3231 70.2301 17.91C71.8267 17.0411 73.5364 16.3983 75.3101 16C76.4301 15.78 77.5601 15.53 78.7401 15.25C79.9875 14.9338 81.2741 14.7991 82.5601 14.85C84.2832 14.9366 85.938 15.551 87.3001 16.61C88.6145 17.7703 89.4696 19.3633 89.7101 21.1C89.9172 22.6987 89.9407 24.3159 89.7801 25.92C89.5 28.1778 89.0927 30.4181 88.5601 32.63C88.2301 34.31 88.1901 36.04 87.9801 37.73C87.9642 38.0999 87.9174 38.4679 87.8401 38.83C87.4401 40.13 86.8401 40.38 85.1801 40.14C84.8001 40.08 84.4101 40.04 84.0401 39.96C83.4795 39.8768 82.9598 39.6181 82.5556 39.221C82.1513 38.8239 81.8833 38.3089 81.7901 37.75C81.6277 36.2486 81.6951 34.7311 81.9901 33.25C82.2301 31.82 82.5601 30.45 82.8301 29.11C83.2857 27.2636 83.5306 25.3715 83.5601 23.47H83.7101Z" fill="currentColor"/>
</svg>
