<svg width="96" height="96" viewBox="0 0 96 96" fill="none" xmlns="http://www.w3.org/2000/svg">
<path d="M55.86 25.39C55.56 27.22 51.75 28.84 51.74 25.39C51.74 22.74 56.24 23.06 55.86 25.39Z" fill="currentColor"/>
<path d="M52 35.52C51.74 37.12 48.39 38.52 48.39 35.52C48.37 33.19 52.32 33.48 52 35.52Z" fill="currentColor"/>
<path d="M74.1 33.38C73.83 35.05 70.33 36.53 70.33 33.38C70.33 31 74.45 31.24 74.1 33.38Z" fill="currentColor"/>
<path d="M69.08 19.72C68.83 21.23 65.67 22.57 65.67 19.72C65.67 17.52 69.39 17.79 69.08 19.72Z" fill="currentColor"/>
<path d="M62.6 43.12C62.33 44.78 58.87 46.25 58.87 43.12C58.87 40.72 63 41 62.6 43.12Z" fill="currentColor"/>
<path d="M81.21 24.66C80.95 26.23 77.67 27.66 77.67 24.66C77.67 22.37 81.54 22.65 81.21 24.66Z" fill="currentColor"/>
<path d="M79.55 48.11C79.25 49.91 75.49 51.51 75.49 48.11C75.49 45.5 79.92 45.82 79.55 48.11Z" fill="currentColor"/>
<path d="M66.6 33.94C66.24 36.14 61.6 38.09 61.6 33.94C61.64 30.75 67.05 31.14 66.6 33.94Z" fill="currentColor"/>
<path d="M51.75 49.93C51.49 51.51 48.19 52.93 48.19 49.93C48.18 47.63 52.08 47.91 51.75 49.93Z" fill="currentColor"/>
<path d="M39.16 32.17C38.91 33.69 35.73 35.04 35.73 32.17C35.73 30 39.48 30.22 39.16 32.17Z" fill="currentColor"/>
<path d="M54.07 12.38C53.75 14.32 49.7 16.04 49.7 12.38C49.7 9.57 54.47 9.91 54.07 12.38Z" fill="currentColor"/>
<path d="M42.81 45.08C42.5 47 38.5 48.69 38.5 45.08C38.49 42.3 43.21 42.64 42.81 45.08Z" fill="currentColor"/>
<path d="M44.63 31.33C43.79 32.67 40.24 32.66 41.4 29.95C42.28 27.87 45.71 29.63 44.63 31.33Z" fill="currentColor"/>
<path d="M38.46 40.48C37.69 41.69 34.46 41.68 35.54 39.23C36.34 37.36 39.43 39 38.46 40.48Z" fill="currentColor"/>
<path d="M58.59 46C57.66 47.45 53.8 47.45 55.06 44.48C56 42.17 59.77 44.1 58.59 46Z" fill="currentColor"/>
<path d="M60.13 31.73C58.88 33.73 53.61 33.73 55.33 29.67C56.65 26.59 61.74 29.2 60.13 31.73Z" fill="currentColor"/>
<path d="M44 50.33C43.19 51.61 39.79 51.61 40.9 49C41.73 47 45 48.7 44 50.33Z" fill="currentColor"/>
<path d="M68.63 40.76C67.72 42.2 63.89 42.19 65.14 39.26C66.1 37 69.8 38.92 68.63 40.76Z" fill="currentColor"/>
<path d="M58 61.72C56.92 63.43 52.37 63.42 53.86 59.94C55 57.27 59.38 59.53 58 61.72Z" fill="currentColor"/>
<path d="M51.19 43.42C50.12 45.11 45.66 45.1 47.11 41.68C48.23 39.06 52.55 41.28 51.19 43.42Z" fill="currentColor"/>
<path d="M31.61 52.44C30.7 53.88 26.87 53.88 28.12 50.94C29.07 48.7 32.78 50.6 31.61 52.44Z" fill="currentColor"/>
<path d="M27.1 31.2C26.16 32.67 22.26 32.67 23.53 29.67C24.51 27.38 28.29 29.33 27.1 31.2Z" fill="currentColor"/>
<path d="M48.11 18.68C47.19 20.14 43.33 20.13 44.59 17.17C45.55 14.9 49.29 16.82 48.11 18.68Z" fill="currentColor"/>
<path d="M25.26 45.8C24.26 47.43 19.92 47.42 21.33 44.11C22.4 41.58 26.58 43.73 25.26 45.8Z" fill="currentColor"/>
<path d="M60.61 39.9C59.61 41.59 55.13 41.67 56.52 38.24C57.58 35.61 61.92 37.74 60.61 39.9Z" fill="currentColor"/>
<path d="M54.2 49C53.46 50.23 50.2 50.28 51.2 47.79C52 45.91 55.16 47.45 54.2 49Z" fill="currentColor"/>
<path d="M74.22 54C73.43 55.3 70 55.37 71.07 52.72C71.89 50.71 75.23 52.35 74.22 54Z" fill="currentColor"/>
<path d="M74.9 39.56C74.08 40.91 70.52 40.98 71.63 38.22C72.48 36.12 76 37.82 74.9 39.56Z" fill="currentColor"/>
<path d="M60.11 58.83C59.23 60.29 55.4 60.35 56.59 57.4C57.5 55.13 61.24 57 60.11 58.83Z" fill="currentColor"/>
<path d="M84.18 48.63C83.39 49.93 80 50 81 47.35C81.85 45.34 85.18 47 84.18 48.63Z" fill="currentColor"/>
<path d="M74 69.79C73 71.36 68.91 71.44 70.2 68.25C71.13 65.81 75.16 67.79 74 69.79Z" fill="currentColor"/>
<path d="M66.69 51.6C65.8 53.07 61.95 53.14 63.15 50.16C64.07 47.89 67.83 49.73 66.69 51.6Z" fill="currentColor"/>
<path d="M47.51 61.08C46.66 62.48 42.98 62.54 44.13 59.7C45 57.53 48.6 59.29 47.51 61.08Z" fill="currentColor"/>
<path d="M42.36 39.85C41.6 41.11 38.36 41.16 39.36 38.63C40.12 36.69 43.33 38.26 42.36 39.85Z" fill="currentColor"/>
<path d="M63.45 27C62.54 28.49 58.62 28.56 59.84 25.53C60.77 23.26 64.6 25.13 63.45 27Z" fill="currentColor"/>
<path d="M41.23 54.64C40.17 56.39 35.58 56.47 37.01 52.92C38.1 50.21 42.59 52.41 41.23 54.64Z" fill="currentColor"/>
<path d="M58 71.74C58.08 70.08 61.31 68.23 61.68 71.31C62 73.67 58 73.86 58 71.74Z" fill="currentColor"/>
<path d="M58.9 60.72C58.96 59.27 61.79 57.66 62.11 60.35C62.35 62.41 58.82 62.57 58.9 60.72Z" fill="currentColor"/>
<path d="M38.7 66C38.78 64.24 42.22 62.27 42.61 65.54C42.91 68.06 38.6 68.26 38.7 66Z" fill="currentColor"/>
<path d="M45.31 79C45.38 77.4 48.49 75.62 48.85 78.59C49.12 80.84 45.22 81 45.31 79Z" fill="currentColor"/>
<path d="M49.06 55C49.13 53.33 52.38 51.47 52.75 54.57C53 56.9 49 57.09 49.06 55Z" fill="currentColor"/>
<path d="M32.6 75.52C32.67 73.79 36.05 71.86 36.43 75.07C36.72 77.53 32.5 77.73 32.6 75.52Z" fill="currentColor"/>
<path d="M31.57 52C31.65 50.12 35.31 48 35.73 51.51C36.05 54.2 31.47 54.41 31.57 52Z" fill="currentColor"/>
<path d="M46.62 64.48C46.7 62.67 50.23 60.65 50.62 64.01C50.93 66.58 46.52 66.79 46.62 64.48Z" fill="currentColor"/>
<path d="M58.88 47C58.96 45.27 62.32 43.34 62.71 46.55C63 49 58.79 49.15 58.88 47Z" fill="currentColor"/>
<path d="M73.65 63.07C73.72 61.56 76.65 59.87 77 62.68C77.26 64.82 73.57 65 73.65 63.07Z" fill="currentColor"/>
<path d="M61.79 84.38C61.85 83 64.54 81.46 64.85 84.02C65.08 86 61.71 86.14 61.79 84.38Z" fill="currentColor"/>
<path d="M68.11 49.48C68.11 47.76 71.19 45.88 71.57 49.08C71.86 51.52 68.05 51.67 68.11 49.48Z" fill="currentColor"/>
<path d="M38.26 62.29C38.34 60.52 41.79 58.54 42.18 61.83C42.48 64.34 38.16 64.55 38.26 62.29Z" fill="currentColor"/>
<path d="M39.32 51.24C39.38 49.86 42.06 48.33 42.32 50.88C42.6 52.83 39.24 53 39.32 51.24Z" fill="currentColor"/>
<path d="M19.07 56.53C19.14 54.79 22.53 52.85 22.92 56.08C23.21 58.55 19 58.75 19.07 56.53Z" fill="currentColor"/>
<path d="M25.51 69.53C25.58 67.8 28.95 65.88 29.33 69.08C29.62 71.53 25.41 71.73 25.51 69.53Z" fill="currentColor"/>
<path d="M29.35 45.5C29.43 43.79 32.75 41.89 33.13 45.05C33.42 47.48 29.26 47.67 29.35 45.5Z" fill="currentColor"/>
<path d="M13.12 66C13.19 64.44 16.23 62.69 16.58 65.6C16.85 67.83 13 68 13.12 66Z" fill="currentColor"/>
<path d="M11.64 42.59C11.73 40.46 15.87 38.09 16.35 42.04C16.71 45.06 11.52 45.3 11.64 42.59Z" fill="currentColor"/>
<path d="M26.63 57.35C26.7 55.76 29.79 53.99 30.14 56.94C30.41 59.19 26.54 59.37 26.63 57.35Z" fill="currentColor"/>
<path d="M39.26 37.47C39.33 35.77 42.64 33.88 43.01 37.03C43.3 39.44 39.16 39.63 39.26 37.47Z" fill="currentColor"/>
<path d="M54.27 53.55C54.27 52.29 56.78 50.88 57.06 53.23C57.27 55 54.19 55.16 54.27 53.55Z" fill="currentColor"/>
<path d="M41.88 74.94C41.95 73.34 45.08 71.55 45.44 74.53C45.71 76.81 41.79 77 41.88 74.94Z" fill="currentColor"/>
<path d="M48.37 40C48.44 38.37 51.63 36.55 51.99 39.58C52.27 41.91 48.28 42.1 48.37 40Z" fill="currentColor"/>
</svg>
