<svg width="96" height="96" viewBox="0 0 96 96" fill="none" xmlns="http://www.w3.org/2000/svg">
<path d="M35.72 31.83C37.9981 29.8762 40.4987 28.1979 43.17 26.83C44.11 26.3 45.02 25.76 45.98 25.28C47.67 24.48 49.38 23.74 51.1 23.03L56.28 21.03C57.8 20.44 59.28 19.78 60.77 19.13C62.7 18.36 64.64 17.62 66.61 16.92C67.22 16.71 67.19 16.84 66.79 17.26C66.1401 17.9606 65.4271 18.6 64.66 19.17C63.77 19.79 62.88 20.39 61.98 20.98C61.08 21.57 60.1 21.98 59.15 22.46C57.25 23.41 55.32 24.29 53.38 25.11C51.0289 26.1556 48.7475 27.3514 46.55 28.69C44.1194 30.0499 41.799 31.5979 39.61 33.32C38.9398 33.8445 38.2988 34.4054 37.69 35L36.79 35.88L35.97 36.83C35.5585 37.2823 35.1933 37.7748 34.88 38.3C34.5487 38.8185 34.2546 39.3599 34 39.92C33.4817 41.0965 33.0733 42.3183 32.78 43.57C32.3762 45.5147 32.1188 47.4869 32.01 49.47C32.01 49.91 32.01 50.33 31.96 50.76C31.75 52.36 31.53 52.85 30.87 53.24C30.7287 53.3355 30.5818 53.4223 30.43 53.5C29.96 53.7 29.43 53.01 29.15 51.71C28.4233 47.6865 28.7929 43.5415 30.22 39.71C30.7514 38.1265 31.502 36.6252 32.45 35.25C32.96 34.61 33.45 34.01 33.98 33.4L35.63 31.72L35.72 31.83Z" fill="currentColor"/>
<path d="M46.49 49.86C43.9026 52.233 41.4583 54.7574 39.17 57.42C38.32 58.42 37.65 59.49 36.83 60.48C33.8841 63.998 31.1268 67.6698 28.57 71.48C27.4662 73.1962 26.4644 74.9759 25.57 76.81C24.5414 79.2272 23.1963 81.497 21.57 83.56C21.02 84.2 20.17 83.65 19.57 82.56C19.1828 81.9293 18.9273 81.2266 18.819 80.4945C18.7108 79.7623 18.7519 79.0158 18.94 78.3L19.66 76.38C19.9291 75.7536 20.2329 75.1426 20.57 74.55C21.2033 73.3367 21.87 72.1467 22.57 70.98C23.9848 68.6192 25.5584 66.3574 27.28 64.21C29.38 61.64 31.01 58.61 33.05 55.92C35.3046 52.9538 37.7077 50.1035 40.25 47.38L42.65 44.92L45.11 42.52C46.39 41.34 47.65 40.15 49 39.05C49.69 38.49 50.28 37.95 51 37.37C51.72 36.79 52.44 36.28 53.13 35.77C54.1776 35.0098 55.1794 34.1884 56.13 33.31C56.59 32.89 57.02 32.46 57.42 32.03C57.82 31.6 58.26 31.24 58.63 30.84C59 30.44 59.23 30.12 59.53 29.79C59.8606 29.2986 60.3231 28.9103 60.8643 28.6697C61.4056 28.4292 62.0037 28.3461 62.59 28.43C62.91 28.43 63.24 28.43 63.59 28.43C63.8456 28.4554 64.0878 28.5566 64.2855 28.7205C64.4833 28.8844 64.6276 29.1036 64.7 29.35C64.9645 30.1384 64.9645 30.9916 64.7 31.78C64.2611 33.2155 63.5851 34.5675 62.7 35.78C61.913 36.9167 60.9589 37.9281 59.87 38.78C57.87 40.47 55.93 41.7 54.46 43.04C51.86 45.3 49.17 47.53 46.7 50.04L46.49 49.86Z" fill="currentColor"/>
<path d="M61.77 18.05C63.7571 17.2475 65.6939 16.3258 67.57 15.29C68.57 14.75 69.38 14.08 70.28 13.48C70.5345 13.3428 70.7755 13.1821 71 13L71.73 12.31L73.18 10.94C73.63 10.53 74.18 9.94001 74.77 9.40001L76.43 7.75001C76.96 7.24001 77.59 6.58001 78.19 5.97001L80 4.10001L79.88 4.77001C79.88 4.92001 79.88 4.99001 79.88 5.09001V5.68001V6.55001C79.8881 6.66653 79.8881 6.78348 79.88 6.90001L79.43 10.36L78.5 17.36L77.65 23.3C77.45 24.64 77.23 25.97 76.94 27.3C75.9475 32.0228 74.5559 36.6527 72.78 41.14C71.9012 43.4061 70.8997 45.6227 69.78 47.78C68.6747 49.9712 67.3763 52.0595 65.9 54.02C63.3085 57.6059 60.053 60.6611 56.31 63.02C53.8728 64.49 51.1895 65.5064 48.39 66.02C45.5815 66.5579 42.6959 66.5511 39.89 66C38.19 65.69 38.57 64.94 40.02 64.21C42.1219 63.251 44.3168 62.5105 46.57 62C51.2939 61.0312 55.5533 58.4981 58.66 54.81C60.2582 52.9427 61.684 50.9345 62.92 48.81C64.2669 46.6157 65.4791 44.3415 66.55 42C67.8651 39.0755 68.8965 36.0316 69.63 32.91C70.39 29.74 71.12 26.52 71.75 23.3L72.51 19.57L72.77 18.26L72.83 17.91V17.74L72.61 17.92C72.5136 18.0001 72.4264 18.0907 72.35 18.19C72 18.39 71.5 18.77 70.99 19.07C70.74 19.23 70.46 19.38 70.18 19.53L69.28 20.03C68.95 20.22 68.61 20.39 68.28 20.56C64.1143 22.5929 59.8023 24.311 55.38 25.7C52.12 26.79 48.84 27.79 45.68 28.95C42.5781 29.9765 39.6511 31.4703 37 33.38C36.0759 34.097 35.2695 34.954 34.61 35.92C33.9382 36.9359 33.3592 38.0103 32.88 39.13C31.929 41.3273 31.3608 43.6711 31.2 46.06C31.135 47.0957 31.135 48.1344 31.2 49.17C31.26 50.17 31.34 50.94 31.4 51.62C31.4403 52.1926 31.4403 52.7674 31.4 53.34C31.384 53.7599 31.303 54.1749 31.16 54.57C30.9835 54.9169 30.783 55.251 30.56 55.57C30.37 55.85 30.25 56.18 30.12 56.36C29.99 56.54 29.54 56.43 28.74 55.82C28.56 55.66 28.25 55.5 28.14 55.26C28.03 55.02 27.83 54.76 27.67 54.46C27.3134 53.7757 27.0318 53.0548 26.83 52.31C25.567 47.0222 26.1748 41.4602 28.55 36.57C29.1538 35.3219 29.8631 34.1275 30.67 33C31.5562 31.7517 32.6171 30.637 33.82 29.69C36.0144 27.972 38.4292 26.556 41 25.48C44.59 23.93 48.15 22.8 51.63 21.63C55.11 20.46 58.51 19.33 61.74 17.94L61.77 18.05Z" fill="currentColor"/>
</svg>
