<svg width="96" height="96" viewBox="0 0 96 96" fill="none" xmlns="http://www.w3.org/2000/svg">
<path d="M44.81 26C51.7078 22.5865 56.9797 16.5887 59.48 9.30998C59.64 8.86998 62.24 23.65 71 26.5C71 26.5 60.4 31.58 57.89 41.64C57.9 41.78 57.29 33.65 44.81 26Z" fill="currentColor"/>
<path d="M60.1 73.87C65.7793 71.0558 70.1147 66.1092 72.16 60.11C72.29 59.75 74.42 71.91 81.66 74.25C81.66 74.25 72.95 78.43 70.88 86.7C70.85 86.81 70.35 80.13 60.1 73.87Z" fill="currentColor"/>
<path d="M14.34 55.39C19.8218 52.6688 24.0109 47.8977 26 42.11C26.12 41.75 28.19 53.49 35.18 55.75C35.18 55.75 26.76 59.75 24.77 67.75C24.72 67.88 24.24 61.43 14.34 55.39Z" fill="currentColor"/>
</svg>
