<svg width="96" height="96" viewBox="0 0 96 96" fill="none" xmlns="http://www.w3.org/2000/svg">
<path d="M37.05 29.78C39.1376 28.8854 41.2823 28.1304 43.47 27.52C44.073 27.359 44.6838 27.2288 45.3 27.13L45.89 27.04C46.13 27.04 46.37 26.98 46.61 26.97C47.0734 26.9417 47.5383 26.9517 48 27C48.9004 27.0609 49.7754 27.3241 50.56 27.77C50.9293 28.0001 51.2657 28.2794 51.56 28.6C51.8536 28.9255 52.1024 29.2887 52.3 29.68C52.6208 30.3656 52.788 31.113 52.79 31.87C52.79 32.26 52.79 32.66 52.73 33.06L52.67 33.75V33.87C52.6848 33.9779 52.7218 34.0816 52.7785 34.1745C52.8353 34.2674 52.9107 34.3476 53 34.41C53.3634 34.595 53.7557 34.7167 54.16 34.77C55.5556 34.9387 56.9688 34.8915 58.35 34.63C59.9077 34.3843 61.4501 34.0504 62.97 33.63C66.06 32.76 69.14 31.63 72.2 30.44C75 29.31 77.61 28 80.19 26.69C81.85 25.84 83.46 24.88 85.19 24.06C86.92 23.24 88.6 22.49 90.37 21.82C91.5 21.41 91.67 22.09 91.17 23.24C90.4131 24.899 89.2338 26.3301 87.75 27.39C87.34 27.66 86.95 27.94 86.53 28.2L85.27 28.92L82.72 30.31C81.01 31.23 79.27 32.1 77.51 32.94C73.9689 34.6571 70.2892 36.0721 66.51 37.17C64.2 37.81 61.87 38.54 59.38 39.07C58.0836 39.3519 56.7654 39.5225 55.44 39.58C54.7078 39.6131 53.9742 39.5728 53.25 39.46C52.3953 39.3299 51.5697 39.0525 50.81 38.64C50.056 38.2511 49.4049 37.6891 48.91 37C48.4565 36.3198 48.1469 35.5542 48 34.75C47.926 34.331 47.8992 33.905 47.92 33.48V33.25V33.1C47.9601 32.8986 47.9601 32.6913 47.92 32.49C47.8767 32.3459 47.7938 32.217 47.6806 32.1179C47.5674 32.0189 47.4285 31.9537 47.28 31.93C46.9491 31.8723 46.6108 31.8723 46.28 31.93C44.869 32.2099 43.4866 32.6183 42.15 33.15C40.7 33.7 39.3 34.32 37.78 34.98C36.26 35.64 34.78 36.15 33.38 36.82C29.0044 38.766 24.7648 41.0044 20.69 43.52C17.55 45.52 14.64 47.78 11.78 49.99C11.14 50.47 10.55 50.99 9.89999 51.45C7.51999 53.19 6.59999 53.45 5.20999 52.8C4.88446 52.6729 4.57004 52.5191 4.26999 52.34C3.35999 51.72 3.73999 50.19 5.35999 48.48C6.56988 47.2239 7.84497 46.0322 9.17999 44.91C10.55 43.83 11.97 42.81 13.41 41.84C16.29 39.84 19.34 38.05 22.48 36.32C24.8133 35.04 27.2033 33.8433 29.65 32.73C30.88 32.17 32.11 31.63 33.36 31.13L35.24 30.38C35.72 30.2 36.32 29.93 36.93 29.67L37.05 29.78Z" fill="currentColor"/>
<path d="M45.67 52.05L45.56 52.23L45.49 52.29C45.4367 52.336 45.3955 52.3944 45.37 52.46C45.353 52.5321 45.3593 52.6078 45.3881 52.6761C45.4168 52.7443 45.4665 52.8017 45.53 52.84C45.5627 52.869 45.5998 52.8927 45.64 52.91C45.705 52.9556 45.7809 52.9832 45.86 52.99C45.9924 53.0411 46.1298 53.078 46.27 53.1L46.85 53.19C47.7136 53.2797 48.5828 53.3031 49.45 53.26C50.78 53.19 52.13 52.89 53.51 52.68C58.4618 51.8668 63.3359 50.6358 68.08 49C70.21 48.25 72.32 47.39 74.37 46.5L82.21 42.89C83.01 42.52 83.21 42.98 82.83 43.89C82.221 45.1627 81.2686 46.2398 80.08 47C77.5275 48.634 74.8832 50.1198 72.16 51.45C69.378 52.6736 66.5144 53.7027 63.59 54.53C60.07 55.53 56.5 56.84 52.71 57.53C50.5545 57.9568 48.3536 58.108 46.16 57.98C45.5105 57.9196 44.8657 57.816 44.23 57.67L43.1 57.29C42.7348 57.1491 42.3834 56.975 42.05 56.77C41.4063 56.3844 40.8618 55.8536 40.46 55.22C40.0739 54.5801 39.8989 53.8349 39.96 53.09C40.0608 52.1667 40.3684 51.278 40.86 50.49L41.47 49.49L41.62 49.24L41.89 49.31C42.0229 49.3593 42.1602 49.3962 42.3 49.42H42.62C43 49.42 43 49.29 42.85 49.49C42.7988 49.5512 42.7552 49.6184 42.72 49.69V49.75C42.67 49.85 43.09 48.84 42.91 49.27C42.8792 49.3281 42.8525 49.3882 42.83 49.45C42.7823 49.7543 42.7588 50.062 42.76 50.37V50.59H42.64L42.32 50.66C41.7838 50.8029 41.2563 50.9765 40.74 51.18C37.3207 52.5452 34.0138 54.1769 30.85 56.06C28.38 57.53 26.2 59.34 23.92 61C23.42 61.37 22.92 61.76 22.44 62.11C20.56 63.43 19.72 63.47 18.63 62.86C18.3723 62.7341 18.1219 62.5939 17.88 62.44C17.17 61.9 17.47 60.67 18.67 59.28C19.6 58.28 20.57 57.37 21.59 56.47C22.629 55.5949 23.7175 54.7802 24.85 54.03C27.1382 52.4947 29.5048 51.0795 31.94 49.79C33.77 48.79 35.63 47.9 37.61 47.06C38.6702 46.6392 39.7556 46.2852 40.86 46L41.41 45.86C41.59 45.86 41.87 45.78 42.09 45.75C42.31 45.72 42.45 45.75 42.62 45.75H43.06H43.35C43.7326 45.8118 44.1057 45.9228 44.46 46.08C44.8243 46.2574 45.1611 46.4864 45.46 46.76C45.8532 47.1325 46.1604 47.5864 46.36 48.09C46.4496 48.3265 46.5165 48.5709 46.56 48.82C46.56 48.94 46.56 49.06 46.56 49.18V49.45C46.5699 49.6299 46.5699 49.8101 46.56 49.99L46.49 50.35C46.4485 50.5475 46.3917 50.7414 46.32 50.93C46.1619 51.3363 45.9747 51.7306 45.76 52.11L45.67 52.05Z" fill="currentColor"/>
<path d="M42.15 70.61C42.22 70.61 42.15 70.72 42.67 70.75C43.19 70.78 43.67 70.75 44.25 70.75C45.4298 70.7257 46.6062 70.6154 47.77 70.42C48.65 70.28 49.49 69.99 50.38 69.8C53.5476 69.1365 56.6704 68.2748 59.73 67.22C61.08 66.72 62.42 66.16 63.73 65.58C65.39 64.8 67.03 63.97 68.73 63.29C69.26 63.08 69.44 63.46 69.27 64.13C69.0075 65.0454 68.4526 65.8497 67.69 66.42C66.0851 67.5437 64.4155 68.5722 62.69 69.5C60.9283 70.3269 59.1064 71.0189 57.24 71.57C55 72.23 52.77 73.22 50.44 73.88C49.1426 74.2381 47.8275 74.5285 46.5 74.75C45.1026 75.01 43.6773 75.0873 42.26 74.98C40.13 74.8 37.34 73.68 37.26 71.31C37.3212 70.482 37.6007 69.6849 38.07 69L38.41 68.43L38.5 68.28H38.57H38.7C38.9536 68.3816 39.2283 68.4193 39.5 68.39C39.45 68.39 39.5 68.39 39.4 68.51L39.34 68.62V68.68C39.19 69.03 39.53 68.2 39.5 68.29C39.3767 68.5487 39.3483 68.8425 39.42 69.12V69.27H39.37C39.3275 69.258 39.2825 69.258 39.24 69.27C39.1276 69.2858 39.0171 69.3126 38.91 69.35C38.67 69.42 38.41 69.51 38.15 69.61C37.6184 69.8129 37.0977 70.0432 36.59 70.3C34.9984 71.2244 33.4654 72.2464 32 73.36C31.67 73.57 31.36 73.81 31 74.01C29.73 74.76 29.11 74.64 28.33 73.96C28.15 73.79 27.95 73.65 27.79 73.48C27.28 72.91 27.47 72.01 28.25 71.12C28.8551 70.4968 29.4926 69.906 30.16 69.35C30.8411 68.7991 31.5631 68.301 32.32 67.86C33.08 67.4 33.86 66.97 34.68 66.57C35.5583 66.1256 36.4673 65.7446 37.4 65.43C37.6192 65.3528 37.8429 65.2894 38.07 65.24L38.46 65.15C38.6615 65.1108 38.8652 65.0841 39.07 65.07H39.23C39.3032 65.0645 39.3767 65.0645 39.45 65.07C39.7092 65.0786 39.9671 65.1121 40.22 65.17C40.4722 65.2294 40.717 65.3166 40.95 65.43C41.2093 65.5589 41.4513 65.7202 41.67 65.91C41.8074 66.0324 41.9376 66.1626 42.06 66.3C42.1903 66.4672 42.3074 66.6444 42.41 66.83C42.6102 67.1921 42.7392 67.5893 42.79 68C42.83 68.2953 42.83 68.5947 42.79 68.89C42.7649 69.0755 42.7281 69.2592 42.68 69.44C42.68 69.57 42.59 69.7 42.55 69.82L42.43 70.09L42.27 70.4C42.2575 70.4069 42.247 70.417 42.2398 70.4294C42.2325 70.4417 42.2287 70.4557 42.2287 70.47C42.2287 70.4843 42.2325 70.4983 42.2398 70.5106C42.247 70.5229 42.2575 70.5331 42.27 70.54L42.15 70.61Z" fill="currentColor"/>
</svg>
