<svg width="96" height="96" viewBox="0 0 96 96" fill="none" xmlns="http://www.w3.org/2000/svg">
<path d="M58.48 73.16L59.31 72.64C59.59 72.46 59.83 72.23 60.09 72.03C60.6225 71.6323 61.1179 71.1871 61.57 70.7C61.8165 70.4753 62.0409 70.2275 62.24 69.96C62.45 69.7 62.68 69.44 62.9 69.19C63.0902 68.9394 63.2671 68.6791 63.43 68.41C63.6144 68.1533 63.7783 67.8825 63.92 67.6C64.1 67.17 64.28 66.74 64.42 66.3C64.5063 65.8347 64.6164 65.374 64.75 64.92C65.0797 63.2137 65.0593 61.4582 64.69 59.76C64.2971 58.0059 63.522 56.3602 62.42 54.94C61.9173 54.3056 61.336 53.7377 60.69 53.25C60.0264 52.7858 59.3075 52.4062 58.55 52.12L57.82 51.84C57.567 51.768 57.3098 51.7113 57.05 51.67C56.5384 51.5406 56.0164 51.457 55.49 51.42C54.96 51.42 54.43 51.35 53.89 51.31L52.24 51.38C51.55 51.38 51.57 51.17 52.1 50.77C52.9606 50.0641 53.9982 49.6076 55.1 49.45C57.742 49.174 60.4009 49.7825 62.66 51.18C64.9731 52.6007 66.7197 54.7821 67.6 57.35C68.7539 60.38 69.075 63.6638 68.53 66.86C68.4594 67.3088 68.3386 67.7482 68.17 68.17L67.72 69.45L67.09 70.65C66.8909 71.05 66.6567 71.4315 66.39 71.79C65.9089 72.5023 65.3669 73.1715 64.77 73.79L63.89 74.73L62.89 75.58C61.2819 76.9414 59.4698 78.0415 57.52 78.84C56.7919 79.1505 56.0435 79.4111 55.28 79.62C54.52 79.85 53.73 79.96 52.96 80.13C52.19 80.3 51.39 80.32 50.6 80.34C49.8105 80.38 49.0195 80.38 48.23 80.34C45.7491 80.2646 43.3012 79.75 41 78.82C40.4745 78.6372 39.9713 78.3956 39.5 78.1C38.8503 77.7621 38.3249 77.2263 38 76.57C37.9068 76.3076 37.8736 76.0276 37.903 75.7507C37.9325 75.4737 38.0237 75.207 38.17 74.97C38.2844 74.6797 38.4215 74.3988 38.58 74.13C38.9044 73.7254 39.3619 73.4491 39.871 73.3502C40.3801 73.2513 40.9077 73.3363 41.36 73.59C42.9529 74.2007 44.5788 74.7215 46.23 75.15C47.8734 75.4906 49.5556 75.605 51.23 75.49C53.8103 75.3145 56.3028 74.4814 58.47 73.07L58.48 73.16Z" fill="currentColor"/>
<path d="M30.29 59.38C31.0329 62.976 32.6894 66.3201 35.1 69.09C37.6172 71.8969 40.7824 74.046 44.32 75.35C46.8935 76.2102 49.6197 76.5169 52.32 76.25C52.886 76.2134 53.4479 76.1298 54 76L54.87 75.87C55.15 75.8 55.43 75.7 55.71 75.62C56.8771 75.3221 58.0099 74.9032 59.09 74.37C60.1836 73.8252 61.2334 73.1967 62.23 72.49C63.2163 71.7951 64.1429 71.0191 65 70.17C65.7812 69.3277 66.4531 68.3903 67 67.38C67.5046 66.3887 67.8424 65.3211 68 64.22C68.2909 61.9241 67.8239 59.5961 66.67 57.59C65.5792 55.7647 63.9951 54.2846 62.1 53.32C60.1289 52.3219 57.9495 51.8044 55.74 51.81C52.8295 51.8025 49.9679 52.5575 47.44 54C46.1742 54.7493 44.9703 55.5987 43.84 56.54C42.6411 57.4817 41.542 58.5439 40.56 59.71C39.33 61.2 39.12 60.87 39.44 59.05C39.7061 57.7906 40.098 56.561 40.61 55.38C40.9646 54.5631 41.4036 53.7855 41.92 53.06C42.2229 52.6698 42.5573 52.3053 42.92 51.97C43.2567 51.6217 43.6176 51.2975 44 51C47.0083 48.6246 50.6142 47.1261 54.42 46.67C58.4161 46.171 62.4683 46.9332 66.01 48.85C67.8701 49.8361 69.5047 51.1982 70.81 52.85C72.1266 54.5352 73.1015 56.4612 73.68 58.52C73.9563 59.5317 74.1437 60.5657 74.24 61.61L74.31 63.2C74.31 63.73 74.25 64.27 74.2 64.8C73.9578 66.9089 73.2983 68.9485 72.26 70.8C69.8738 74.8546 66.3663 78.1328 62.16 80.24C60.1187 81.3298 57.9387 82.1371 55.68 82.64L54 83C53.43 83.1 52.84 83.11 52.26 83.16C51.68 83.21 51.11 83.26 50.53 83.24L48.81 83.15C43.8247 82.7179 39.0509 80.9377 35 78C30.9786 75.1936 27.7397 71.4075 25.59 67C25.2442 66.3287 24.9468 65.6336 24.7 64.92C24.4154 64.2074 24.1815 63.4756 24 62.73L23.44 60.54C23.32 59.79 23.2 59.04 23.1 58.29C22.824 55.305 23.0402 52.2949 23.74 49.38C24.8047 45.0986 26.6121 41.037 29.08 37.38C30.2764 35.5892 31.5718 33.8665 32.96 32.22C34.36 30.61 35.8 29.03 37.34 27.57C41.9766 22.8554 47.3887 18.9723 53.34 16.09C54.671 15.4418 56.0441 14.8838 57.45 14.42C59.3511 13.7384 61.3818 13.4957 63.39 13.71C63.962 13.7841 64.5168 13.9567 65.03 14.22C65.455 14.4754 65.8227 14.8158 66.11 15.22C66.403 15.5212 66.6583 15.857 66.87 16.22C67.33 17.43 65.32 18.33 62.13 19.61C57.2264 21.5225 52.628 24.14 48.48 27.38C44.1276 30.5762 40.2346 34.3548 36.91 38.61C34.5083 41.6599 32.614 45.0771 31.3 48.73C30.0483 52.1182 29.7542 55.7857 30.45 59.33L30.29 59.38Z" fill="currentColor"/>
</svg>
