<svg width="96" height="96" viewBox="0 0 96 96" fill="none" xmlns="http://www.w3.org/2000/svg">
<path d="M68.13 50.36C68.2939 50.2919 68.4542 50.2151 68.61 50.13C68.6996 50.0842 68.7781 50.0194 68.84 49.94C68.84 49.84 68.84 49.84 68.77 49.79C68.7 49.74 68.46 49.64 68.23 49.55L67.87 49.42H67.77L67.36 49.33L66.16 49L56.54 46.87C53.27 46.14 49.97 45.55 46.7 44.71L41 43.23C38.6471 42.687 36.3401 41.9614 34.1 41.06L33.27 40.57C33.0068 40.4395 32.7642 40.271 32.55 40.07C32.1948 39.7817 31.8818 39.4451 31.62 39.07C31.3941 38.7768 31.187 38.4695 31 38.15C30.9311 38.0747 30.8859 37.9808 30.87 37.88C30.8586 37.7396 30.8826 37.5986 30.94 37.47C31.0179 37.2755 31.1186 37.0908 31.24 36.92C31.8117 36.1374 32.5156 35.4606 33.32 34.92C34.6475 34.1186 36.0636 33.4742 37.54 33C39.17 32.41 40.84 31.86 42.54 31.32L44.54 30.69L46 30.22L52.27 28.29C57.27 26.77 62.17 25 67.03 23.29C70.14 22.18 73.23 20.98 76.32 19.82C77.88 19.2733 79.44 18.7167 81 18.15L83.34 17.36C84.13 17.11 84.96 16.98 85.77 16.79C87.77 16.37 87.96 17.35 86.84 19.25C86.1525 20.4765 85.2595 21.5758 84.2 22.5C82.8545 23.6789 81.3196 24.6222 79.66 25.29C76.48 26.58 73.28 27.79 70.07 28.95C68.47 29.53 66.86 30.1 65.25 30.64L60.37 32.18C57.1233 33.18 53.8633 34.1467 50.59 35.08L45.69 36.47C45.6 36.47 45.44 36.55 45.43 36.54H45.24H44.95L44.23 36.63C43.5443 36.7403 42.8733 36.9282 42.23 37.19C42.15 37.19 42.05 37.27 42.02 37.35C41.99 37.43 42.12 37.43 42.17 37.47L42.57 37.64C42.85 37.75 43.15 37.85 43.44 37.95L44.44 38.22L45.64 38.5L51.64 39.73C55.81 40.57 60.03 41.34 64.25 42.12L71.63 43.48C73.2714 43.7486 74.8971 44.1058 76.5 44.55C77.5832 44.9945 78.6103 45.5651 79.56 46.25C79.7495 46.4096 79.9298 46.5799 80.1 46.76C80.3276 46.9568 80.4738 47.2313 80.51 47.53C80.5091 48.2779 80.2864 49.0087 79.87 49.63C79.4605 50.3248 78.9668 50.9663 78.4 51.54C76.9451 52.9265 75.3382 54.1442 73.61 55.17C73.17 55.46 72.7 55.73 72.25 56.01C71.8 56.29 71.25 56.58 71.01 56.72L69.1 57.72C67.82 58.4 66.53 59.05 65.23 59.72C57.379 63.4147 49.303 66.611 41.05 69.29C34.71 71.43 28.51 73.64 22.05 75.37C20.64 75.75 19.26 76.18 17.81 76.49C15.9264 77.0083 13.9694 77.2077 12.02 77.08C11.436 76.9785 10.8763 76.7682 10.37 76.46C9.91301 76.1413 9.50533 75.7572 9.15998 75.32C8.82842 74.9784 8.52102 74.6142 8.23998 74.23C7.89998 73.64 8.23998 73.02 9.09998 72.15C10.2636 71.0923 11.6841 70.3579 13.22 70.02C24.22 66.82 35.82 63.64 47.11 59.46C51.3 57.91 55.45 56.24 59.51 54.46C61.51 53.54 63.51 52.58 65.51 51.56L67 50.78L67.71 50.38H67.78L67.96 50.32L68.13 50.36Z" fill="currentColor"/>
<path d="M64.25 14.07C65.322 13.9125 66.3838 13.6921 67.43 13.41C67.81 13.31 68.16 13.1 68.55 13C69.91 12.6 71.36 12.33 72.75 11.88C73.3634 11.6789 73.9645 11.4419 74.55 11.17C75.2923 10.7698 76.1029 10.512 76.94 10.41C77.21 10.41 77.32 10.85 77.29 11.41C77.2908 11.6675 77.2379 11.9224 77.1346 12.1583C77.0313 12.3942 76.8798 12.606 76.69 12.78C75.3058 13.6682 73.8181 14.3835 72.26 14.91C71.26 15.21 70.41 15.82 69.43 16.2C68.45 16.58 67.25 17 66.13 17.34C65.44 17.53 64.75 17.72 64.04 17.89C62.99 18.16 61.9 18.33 60.84 18.59C60.03 18.82 59.24 19.2 58.41 19.52C58.22 19.58 58.04 19.67 57.85 19.71C57.15 19.85 56.91 19.58 56.73 18.44C56.73 18.18 56.64 17.92 56.62 17.65C56.5428 17.3102 56.5557 16.9562 56.6574 16.6229C56.7591 16.2896 56.9462 15.9887 57.2 15.75C58.4214 15.0961 59.7607 14.6916 61.14 14.56C62.14 14.4 63.14 14.27 64.22 14.03L64.25 14.07Z" fill="currentColor"/>
<path d="M38.94 82.21C38.14 82.43 37.31 82.58 36.47 82.74L34 83.23C33.4 83.36 32.83 83.61 32.22 83.72C30.07 84.1 27.9 84.42 25.75 84.72C24.8 84.87 23.87 85.13 22.95 85.37C22.35 85.48 21.76 85.64 21.15 85.73C20.532 85.8001 19.908 85.8001 19.29 85.73C18.9 85.73 18.84 85.12 19.03 84.45C19.1854 83.7108 19.6231 83.0614 20.25 82.64L21.89 82C22.44 81.79 23.02 81.63 23.59 81.47C24.7484 81.1382 25.9277 80.8843 27.12 80.71C28.5666 80.3742 29.9743 79.8882 31.32 79.26L36 77.61C37 77.31 38 77.03 38.94 76.71C40.41 76.22 41.94 75.8 43.35 75.18C44.4398 74.6225 45.492 73.9945 46.5 73.3C46.74 73.16 46.95 72.97 47.19 72.86C48.11 72.45 48.53 72.7 49.19 74.05C49.34 74.36 49.5 74.66 49.63 74.98C49.855 75.3889 49.9559 75.8545 49.9204 76.3198C49.8849 76.7851 49.7144 77.23 49.43 77.6C47.7705 79.043 45.8296 80.1258 43.73 80.78C42.19 81.35 40.59 81.78 39 82.33L38.94 82.21Z" fill="currentColor"/>
</svg>
