<svg width="96" height="96" viewBox="0 0 96 96" fill="none" xmlns="http://www.w3.org/2000/svg">
<path d="M69 17.33C67.69 18.15 64.47 20.26 60.44 23.19C58.44 24.65 56.2 26.31 53.9 28.09C51.6 29.87 49.12 31.6 46.74 33.44C41.96 37.11 37.37 40.92 33.91 44.06C30.45 47.2 28.11 49.63 27.43 50.4L26.37 51.59L25.69 52.39C25.64 52.45 25.51 52.61 25.53 52.57C25.5028 52.5816 25.4787 52.5994 25.4596 52.622C25.4405 52.6446 25.427 52.6713 25.42 52.7C25.42 52.78 25.51 52.78 25.58 52.76C25.44 52.83 26.13 52.54 26.39 52.43L27.39 51.97C27.5 51.91 28.88 51.31 30.96 50.32C33.04 49.33 35.83 47.99 38.7 46.49C44.42 43.49 50.7 40.38 52.76 39.49C53.02 39.38 54.08 38.88 55.81 38.15C56.66 37.78 57.7 37.36 58.88 36.9L60.77 36.2L61.77 35.86C62.15 35.74 62.39 35.63 63.12 35.43C64.3565 35.0458 65.6155 34.7386 66.89 34.51C67.51 34.42 68.2 34.24 68.78 34.22L70.55 34.14C71.11 34.14 71.61 34.23 72.14 34.28C72.67 34.33 73.14 34.49 73.61 34.58C73.8359 34.6216 74.0505 34.7102 74.24 34.84L74.82 35.16C74.9965 35.2801 75.1606 35.4175 75.31 35.57C75.4862 35.7097 75.6441 35.8709 75.78 36.05C76.0034 36.4623 76.081 36.9381 76 37.4C75.9417 37.8233 75.8273 38.2369 75.66 38.63C75.2088 39.6782 74.568 40.6342 73.77 41.45C72.7312 42.5557 71.6329 43.6039 70.48 44.59L68.65 46.15L67.4 47.15C61.15 52.14 54.72 57 49.64 61C44.56 65 40.81 68.2 39.58 69.39C38.7 70.23 36.78 71.92 34.49 74.15L33 75.58C32.66 75.92 32.3 76.29 31.95 76.7C31.1222 77.5479 30.4997 78.5742 30.13 79.7C30.0601 79.9993 30.0601 80.3107 30.13 80.61C30.1623 80.7539 30.2306 80.8871 30.3286 80.9973C30.4266 81.1075 30.5509 81.191 30.69 81.24C31.2305 81.3847 31.7995 81.3847 32.34 81.24C33.4066 80.9153 34.4437 80.5004 35.44 80L37 79.33L38.86 78.44L41.64 77.26C41.8014 77.1746 41.9792 77.1248 42.1614 77.1138C42.3437 77.1028 42.5262 77.1309 42.6967 77.1962C42.8672 77.2616 43.0217 77.3627 43.1499 77.4927C43.2781 77.6227 43.377 77.7786 43.44 77.95C43.5684 78.2464 43.5948 78.577 43.5152 78.8901C43.4356 79.2031 43.2544 79.4809 43 79.68C41.71 80.48 40.41 81.46 39 82.23L37.82 82.91C37.31 83.2 36.82 83.5 36.27 83.78C35.2378 84.3525 34.1726 84.8634 33.08 85.31C31.3183 86.0762 29.3948 86.3957 27.48 86.24C26.6141 86.1859 25.7939 85.8323 25.16 85.24C24.5672 84.5209 24.2547 83.6116 24.28 82.68C24.3461 80.8566 24.9097 79.086 25.91 77.56C26.6182 76.3711 27.4386 75.2526 28.36 74.22C28.83 73.64 29.36 73.07 29.93 72.48L31.23 71.17C34.54 67.9 38.48 64.55 42.23 61.46C49.83 55.31 56.74 50.09 57.23 49.62C59.8 47.56 62.36 45.49 64.87 43.4C65.65 42.75 65.73 42.65 66.03 42.4L66.79 41.67C67.257 41.2435 67.664 40.7558 68 40.22C68 40.1 68.12 39.92 68 39.82C67.8455 39.7623 67.6841 39.7253 67.52 39.71C67.1875 39.6774 66.8525 39.6774 66.52 39.71C65.9255 39.7835 65.3395 39.9141 64.77 40.1L64.22 40.29L63.22 40.67C62.22 41.01 61.3 41.42 60.34 41.81C58.42 42.62 56.52 43.53 54.62 44.45C50.83 46.33 47.09 48.36 43.36 50.45C39.85 52.37 36.43 54.45 32.88 56.5C32 57 31.1 57.5 30.18 57.99C29.7 58.24 29.33 58.45 28.67 58.77C28.01 59.09 27.56 59.34 26.59 59.77L25.29 60.3L24.02 60.62L23.39 60.77H22.8C22.4208 60.805 22.0392 60.805 21.66 60.77C20.1769 60.6612 18.7871 60.0054 17.76 58.93C17.0451 58.1132 16.6198 57.0832 16.55 56C16.4847 54.8867 16.6692 53.7728 17.09 52.74L17.46 51.87C17.6 51.58 17.79 51.29 17.96 51C18.3143 50.4087 18.7016 49.8378 19.12 49.29C19.51 48.77 19.91 48.29 20.27 47.85L21.06 46.94C23.1463 44.6783 25.367 42.5445 27.71 40.55C32.29 36.61 37.04 33.02 41.88 29.55C44.64 27.55 47.4267 25.6133 50.24 23.74C53.13 21.96 56.04 20.22 59 18.56C62.51 16.62 66.1 14.83 69.76 13.13C71.6459 12.187 73.7318 11.7136 75.84 11.75C76.66 11.75 75.25 12.65 73.58 13.92C71.91 15.19 69.89 16.74 69 17.33Z" fill="currentColor"/>
</svg>
