<svg width="96" height="96" viewBox="0 0 96 96" fill="none" xmlns="http://www.w3.org/2000/svg">
<path d="M27.51 39.37C27.51 43.96 18.64 44.69 18.64 39.14C18.64 36.21 21.59 35.02 24.24 35.14C26.37 35.22 27.51 37.45 27.51 39.37Z" fill="currentColor"/>
<path d="M65.9 50.59C65.9 53.99 59.32 54.53 59.32 50.41C59.32 48.24 61.51 47.41 63.47 47.41C65.06 47.51 65.9 49.16 65.9 50.59Z" fill="currentColor"/>
<path d="M60.18 37.89C60.18 40.47 55.18 40.89 55.18 37.75C55.18 36.11 56.84 35.43 58.33 35.5C58.8832 35.5912 59.3814 35.8882 59.7245 36.3316C60.0677 36.7749 60.2304 37.3316 60.18 37.89Z" fill="currentColor"/>
<path d="M23.08 67.3299C23.08 70.9999 16 71.5999 16 67.1399C16 64.7899 18.37 63.8299 20.5 63.9199C22.16 63.9999 23.08 65.7899 23.08 67.3299Z" fill="currentColor"/>
<path d="M79 56.5999C79 58.9299 74.5 59.2999 74.49 56.4799C74.49 54.9899 75.99 54.3899 77.34 54.4799C77.831 54.5632 78.2732 54.8267 78.5802 55.2188C78.8872 55.6108 79.0369 56.1033 79 56.5999Z" fill="currentColor"/>
<path d="M41.83 37.89C41.83 40.57 36.65 40.99 36.65 37.76C36.65 36.05 38.37 35.35 39.92 35.42C40.4918 35.5137 41.0068 35.8206 41.3612 36.279C41.7157 36.7373 41.8832 37.313 41.83 37.89Z" fill="currentColor"/>
<path d="M12 26.78C12 29.37 7 29.78 7 26.64C7 24.99 8.67 24.32 10.17 24.38C10.7203 24.4779 11.2138 24.7789 11.5527 25.2233C11.8916 25.6678 12.0513 26.2234 12 26.78Z" fill="currentColor"/>
<path d="M51.41 15.21C51.41 17.84 46.33 18.21 46.33 15.08C46.33 13.4 48.02 12.72 49.53 12.79C50.0911 12.8812 50.5969 13.1815 50.9457 13.6304C51.2944 14.0794 51.4603 14.6437 51.41 15.21Z" fill="currentColor"/>
<path d="M48.87 80.94C48.87 83.77 43.39 84.22 43.39 80.79C43.39 78.98 45.21 78.25 46.85 78.32C48.16 78.37 48.87 79.75 48.87 80.94Z" fill="currentColor"/>
<path d="M85.62 63C85.62 67.43 77.04 68.14 77.04 62.77C77.04 59.94 79.89 58.77 82.45 58.9C84.51 59 85.62 61.17 85.62 63Z" fill="currentColor"/>
<path d="M69.09 21.47C69.09 24.77 62.72 25.29 62.72 21.3C62.72 19.2 64.83 18.3 66.72 18.42C68.27 18.49 69.09 20.09 69.09 21.47Z" fill="currentColor"/>
<path d="M15.19 48.86C15.19 53.14 6.91 53.86 6.91 48.64C6.91 45.9 9.66 44.79 12.14 44.89C14.13 45 15.19 47.06 15.19 48.86Z" fill="currentColor"/>
<path d="M50.89 27.63C50.89 32.55 41.37 33.34 41.36 27.37C41.36 24.23 44.53 22.95 47.36 23.07C49.67 23.17 50.89 25.57 50.89 27.63Z" fill="currentColor"/>
<path d="M40.81 51.54C40.81 55.6 32.95 56.25 32.95 51.33C32.95 48.73 35.56 47.68 37.95 47.78C39.8 47.86 40.81 49.83 40.81 51.54Z" fill="currentColor"/>
<path d="M89.09 48.89C89.09 53.78 79.64 54.56 79.64 48.64C79.64 45.52 82.78 44.26 85.64 44.38C87.88 44.47 89.09 46.85 89.09 48.89Z" fill="currentColor"/>
<path d="M48.87 64.69C48.87 69.62 39.33 70.41 39.32 64.44C39.32 61.29 42.49 60.01 45.32 60.13C47.64 60.22 48.87 62.63 48.87 64.69Z" fill="currentColor"/>
<path d="M75.21 34.42C75.21 39.1 66.15 39.85 66.15 34.18C66.15 31.18 69.15 29.98 71.87 30.09C74 30.18 75.21 32.46 75.21 34.42Z" fill="currentColor"/>
<path d="M27.63 19.41C27.63 23.97 18.81 24.7 18.81 19.18C18.81 16.27 21.74 15.08 24.38 15.18C26.5 15.28 27.63 17.5 27.63 19.41Z" fill="currentColor"/>
<path d="M63.19 67.34C63.19 71.08 55.95 71.68 55.95 67.14C55.95 64.75 58.36 63.78 60.52 63.87C62.26 64 63.19 65.77 63.19 67.34Z" fill="currentColor"/>
<path d="M76.73 75.3199C76.73 79.2499 69.13 79.8799 69.12 75.1199C69.12 72.6099 71.65 71.5899 73.92 71.6799C75.75 71.7599 76.73 73.6699 76.73 75.3199Z" fill="currentColor"/>
</svg>
