<svg width="96" height="96" viewBox="0 0 96 96" fill="none" xmlns="http://www.w3.org/2000/svg">
<path d="M46 15.16C44.29 15.24 42.58 15.33 40.87 15.47C40.25 15.47 39.65 15.73 39.02 15.77C37.92 15.85 36.81 15.9 35.69 15.91C34.57 15.92 33.46 15.99 32.35 16.07C31.3718 16.1611 30.4022 16.3282 29.45 16.57C28.8496 16.7641 28.2289 16.8882 27.6 16.94C26.9278 16.9669 26.2551 16.903 25.6 16.75C25.17 16.64 25.14 16 25.33 15.21C25.5226 14.3536 25.9811 13.58 26.64 13C26.9157 12.8123 27.2107 12.6548 27.52 12.53L28.44 12.29C29.06 12.14 29.68 12 30.31 11.89C31.5828 11.6519 32.8752 11.5347 34.17 11.54C34.9589 11.5209 35.7434 11.417 36.51 11.23C37.28 11.08 38.06 10.9 38.85 10.8C40.58 10.57 42.32 10.4 44.06 10.23C45.12 10.12 46.2 10.04 47.27 9.91999C48.89 9.73999 50.53 9.64999 52.13 9.35999C52.75 9.26999 53.36 9.02999 53.98 8.91999C54.6008 8.78845 55.2284 8.69164 55.86 8.62999C56.1384 8.58856 56.4188 8.56186 56.7 8.54999C56.9334 8.55279 57.1654 8.58641 57.39 8.64999C57.5705 8.73511 57.7308 8.85786 57.86 9.00999C58.1078 9.29618 58.2797 9.64004 58.36 10.01C58.36 10.2 58.48 10.39 58.51 10.56C58.5498 10.8754 58.4753 11.1947 58.3 11.46C58.0957 11.8333 57.8323 12.171 57.52 12.46L56 13.31L54.45 14.15C54.1979 14.2811 53.9229 14.3626 53.64 14.39L52.82 14.54C52.27 14.63 51.71 14.71 51.15 14.77C49.48 14.99 47.77 15.1 46.06 15.29L46 15.16Z" fill="currentColor"/>
<path d="M49.52 22.7C46.67 23.01 43.81 23.33 40.97 23.7C39.97 23.83 38.97 24.1 37.88 24.22C34.21 24.65 30.54 25.05 26.88 25.55C25.26 25.75 23.65 26.09 22.07 26.44C20.0623 27.0419 17.992 27.411 15.9 27.54C15.24 27.54 15.13 26.54 15.47 25.54C15.6255 24.965 15.915 24.4351 16.3147 23.9936C16.7145 23.5521 17.2132 23.2116 17.77 23C21.8987 21.7939 26.1476 21.0461 30.44 20.77C33.03 20.62 35.63 19.91 38.23 19.5C41.09 19.06 43.97 18.67 46.84 18.27L52.13 17.53C54.8 17.13 57.49 16.81 60.13 16.28C62.13 15.86 64.13 15.17 66.13 14.59C66.57 14.46 66.99 14.29 67.44 14.19C69.09 13.81 69.68 14.05 70.26 15.34C70.4084 15.6248 70.5387 15.9187 70.65 16.22C70.7249 16.4734 70.7488 16.7392 70.7203 17.0019C70.6918 17.2647 70.6116 17.5191 70.4842 17.7507C70.3568 17.9822 70.1848 18.1862 69.9781 18.3509C69.7714 18.5155 69.5341 18.6376 69.28 18.71C65.7033 20.0967 61.9734 21.0501 58.17 21.55C55.33 22.01 52.45 22.36 49.59 22.78L49.52 22.7Z" fill="currentColor"/>
<path d="M54.19 36.61C50.46 37.14 46.72 37.68 43 38.26C41.64 38.47 40.31 38.83 39 39.03C34.2 39.73 29.39 40.4 24.59 41.15C22.46 41.47 20.35 41.92 18.27 42.4C15.6281 43.16 12.9187 43.6624 10.18 43.9C9.30996 43.9 9.17996 42.9 9.69996 41.75C9.97817 41.0752 10.4007 40.4694 10.938 39.9753C11.4753 39.4813 12.1142 39.1108 12.81 38.89C18.2285 37.3672 23.7695 36.3199 29.37 35.76C32.76 35.45 36.15 34.51 39.56 33.9C43.25 33.23 47 32.61 50.75 32L57.68 30.84C61.17 30.23 64.68 29.7 68.13 28.96C70.8 28.38 73.37 27.51 75.99 26.77C76.57 26.61 77.12 26.4 77.71 26.26C79.89 25.77 80.71 26.02 81.38 27.4C81.5598 27.7062 81.7201 28.0235 81.86 28.35C82.26 29.45 81.52 30.53 79.99 31.13C75.2666 32.8098 70.3997 34.055 65.45 34.85C61.73 35.54 57.96 36.11 54.22 36.76L54.19 36.61Z" fill="currentColor"/>
<path d="M55.9 30.2C52.82 30.58 49.74 30.95 46.67 31.38C45.54 31.53 44.45 31.83 43.33 31.97C39.33 32.47 35.41 32.97 31.46 33.48C29.7 33.71 27.96 34.07 26.25 34.48C24.0816 35.1231 21.8474 35.519 19.59 35.66C18.87 35.66 18.76 34.66 19.14 33.59C19.3245 32.9863 19.6475 32.4342 20.0833 31.9775C20.5191 31.5209 21.0556 31.1724 21.65 30.96C26.1064 29.6715 30.6841 28.8471 35.31 28.5C38.1 28.32 40.9 27.55 43.7 27.09C46.79 26.58 49.88 26.09 52.98 25.66L58.69 24.79C61.56 24.33 64.47 23.94 67.3 23.34C69.5 22.88 71.6 22.13 73.75 21.5C74.22 21.36 74.68 21.17 75.16 21.06C76.95 20.65 77.58 20.9 78.16 22.24C78.3 22.54 78.47 22.84 78.58 23.15C78.6544 23.4199 78.6748 23.7017 78.6402 23.9795C78.6055 24.2573 78.5165 24.5255 78.3781 24.7688C78.2397 25.0122 78.0547 25.2258 77.8337 25.3976C77.6127 25.5694 77.36 25.6959 77.09 25.77C73.2188 27.2519 69.1937 28.2951 65.09 28.88C62.02 29.42 58.92 29.88 55.83 30.32L55.9 30.2Z" fill="currentColor"/>
<path d="M47.25 54.29C44.25 54.73 41.16 55.17 38.13 55.66C37.02 55.83 35.94 56.14 34.83 56.31L23.08 58C21.35 58.26 19.62 58.63 17.93 59C15.7774 59.6432 13.5609 60.0489 11.32 60.21C10.61 60.21 10.52 59.33 10.91 58.32C11.1135 57.7459 11.4454 57.2259 11.8803 56.7996C12.3153 56.3732 12.8419 56.0519 13.42 55.86C17.8278 54.6177 22.3399 53.7809 26.9 53.36C29.66 53.11 32.42 52.36 35.19 51.81C38.24 51.24 41.29 50.73 44.35 50.2L49.99 49.2C52.83 48.69 55.7 48.2 58.5 47.62C60.68 47.13 62.76 46.39 64.9 45.77C65.37 45.63 65.82 45.45 66.3 45.34C68.08 44.93 68.71 45.15 69.3 46.34C69.4514 46.611 69.585 46.8916 69.7 47.18C70.04 48.18 69.46 49.09 68.21 49.6C64.3899 51.0474 60.4379 52.1192 56.41 52.8C53.41 53.38 50.32 53.86 47.27 54.4L47.25 54.29Z" fill="currentColor"/>
<path d="M57.23 46.57C53.23 47.16 49.23 47.76 45.23 48.4C43.76 48.64 42.33 49.02 40.87 49.24C35.7 50 30.53 50.78 25.38 51.6C23.1 51.95 20.82 52.44 18.59 52.95C15.7423 53.7429 12.8315 54.2882 9.88999 54.58C8.95999 54.63 8.88999 53.65 9.42999 52.52C9.77033 51.8407 10.247 51.2388 10.8302 50.7519C11.4135 50.265 12.0908 49.9035 12.82 49.69C18.6554 48.0934 24.6069 46.9566 30.62 46.29C34.26 45.92 37.91 44.94 41.62 44.29L53.7 42.2L61.14 40.93C64.89 40.26 68.67 39.66 72.37 38.93C75.25 38.31 78.01 37.41 80.83 36.65C81.46 36.48 82.05 36.27 82.69 36.12C85.03 35.6 85.85 35.82 86.59 37.12C86.7458 37.404 86.8827 37.698 87 38C87.41 39.05 86.6 40.11 84.94 40.71C79.8385 42.4349 74.6044 43.7393 69.29 44.61C65.29 45.36 61.29 46 57.22 46.71L57.23 46.57Z" fill="currentColor"/>
<path d="M58.67 57.64C54.86 58.21 51.04 58.78 47.24 59.39C45.85 59.61 44.49 59.97 43.1 60.18L28.4 62.43C26.23 62.76 24.07 63.23 21.95 63.71C19.2427 64.4641 16.476 64.986 13.68 65.27C12.79 65.27 12.68 64.37 13.24 63.27C13.5608 62.6206 14.0124 62.0446 14.5666 61.5782C15.1207 61.1118 15.7654 60.7652 16.46 60.56C22.0072 59.0441 27.6645 57.9641 33.38 57.33C36.83 56.98 40.3 56.04 43.78 55.41L55.26 53.41L62.33 52.21C65.89 51.59 69.49 51 73 50.29C75.73 49.7 78.36 48.85 81 48.13C81.59 47.97 82.16 47.76 82.76 47.62C84.99 47.13 85.76 47.34 86.47 48.62C86.6451 48.8979 86.8054 49.185 86.95 49.48C87.34 50.48 86.57 51.48 84.95 52.08C80.1026 53.7193 75.1294 54.9601 70.08 55.79C66.27 56.5 62.43 57.1 58.6 57.79L58.67 57.64Z" fill="currentColor"/>
<path d="M60.25 70C57.01 70.51 53.76 71 50.53 71.58C49.35 71.78 48.2 72.13 47.02 72.32L34.49 74.32C32.63 74.61 30.8 75.03 28.99 75.47C26.6949 76.182 24.3264 76.6315 21.93 76.81C21.17 76.81 21.07 75.81 21.47 74.75C21.6721 74.1195 22.0161 73.5438 22.4755 73.067C22.9349 72.5903 23.4975 72.2253 24.12 72C28.8115 70.615 33.6172 69.6512 38.48 69.12C41.48 68.83 44.36 67.93 47.31 67.34C50.56 66.7 53.82 66.11 57.08 65.5L63.08 64.4C66.08 63.81 69.18 63.32 72.17 62.63C74.5 62.1 76.72 61.28 79 60.63C79.5 60.48 80 60.28 80.5 60.16C82.4 59.72 83.07 59.96 83.72 61.3C83.8847 61.5943 84.0317 61.8981 84.16 62.21C84.52 63.27 83.9 64.3 82.57 64.85C78.4998 66.3919 74.2903 67.5372 70 68.27C66.78 68.92 63.51 69.45 60.27 70.07L60.25 70Z" fill="currentColor"/>
<path d="M53.84 65.79L44.75 67.35C43.65 67.55 42.57 67.86 41.46 68.05L29.76 70C28.02 70.29 26.3 70.68 24.61 71.08C22.4546 71.721 20.24 72.1431 18 72.34C17.3 72.34 17.22 71.55 17.62 70.62C17.8513 70.0771 18.1971 69.5906 18.6338 69.1937C19.0704 68.7967 19.5876 68.4987 20.15 68.32C24.5506 67.0576 29.0448 66.1481 33.59 65.6C36.34 65.3 39.09 64.48 41.85 63.93L51 62.16L56.62 61.08C59.45 60.52 62.31 60.02 65.09 59.34C67.26 58.82 69.33 58.07 71.45 57.42C71.92 57.28 72.37 57.1 72.84 56.98C74.61 56.53 75.24 56.71 75.84 57.8C75.9902 58.0423 76.1271 58.2927 76.25 58.55C76.59 59.42 76.02 60.3 74.77 60.82C70.9528 62.2686 67.0138 63.373 63 64.12C60 64.76 56.93 65.3 53.89 65.89L53.84 65.79Z" fill="currentColor"/>
<path d="M60.29 78.31C57.96 78.74 55.61 79.2 53.29 79.7C52.43 79.88 51.61 80.19 50.75 80.35C47.75 80.95 44.65 81.48 41.6 82.02C40.24 82.24 38.91 82.59 37.6 82.92C35.9364 83.4975 34.1989 83.8342 32.44 83.92C31.87 83.92 31.76 83 32.02 82.03C32.1141 81.5202 32.3295 81.0405 32.648 80.6315C32.9665 80.2224 33.3788 79.8961 33.85 79.68C37.2204 78.5953 40.6911 77.8516 44.21 77.46C46.3618 77.0969 48.4866 76.5891 50.57 75.94C52.9 75.37 55.26 74.83 57.63 74.3L62.01 73.3C64.22 72.81 66.46 72.41 68.64 71.87C70.33 71.44 71.94 70.78 73.64 70.23C74.01 70.11 74.36 69.95 74.73 69.86C76.12 69.51 76.62 69.75 77.14 70.99C77.2712 71.2671 77.388 71.5508 77.49 71.84C77.6375 72.2958 77.6083 72.7903 77.4083 73.2256C77.2082 73.6609 76.8519 74.0051 76.41 74.19C73.5219 75.4347 70.5029 76.3505 67.41 76.92C65.1 77.42 62.76 77.92 60.41 78.39L60.29 78.31Z" fill="currentColor"/>
<path d="M60.56 84C59.25 84.19 57.93 84.37 56.62 84.59C56.14 84.67 55.7 84.87 55.22 84.93C53.52 85.18 51.81 85.39 50.08 85.53C49.3274 85.6299 48.5824 85.7802 47.85 85.98C46.9277 86.3264 45.944 86.4796 44.96 86.43C44.64 86.43 44.55 85.76 44.66 85.06C44.77 84.36 45.05 83.58 45.55 83.36C47.3371 82.5605 49.2355 82.0378 51.18 81.81C52.3836 81.6776 53.5701 81.4195 54.72 81.04C56.03 80.77 57.34 80.52 58.65 80.27L61.08 79.8C62.32 79.59 63.57 79.43 64.77 79.13C65.24 79.02 65.68 78.81 66.15 78.7C66.61 78.5609 67.0774 78.4474 67.55 78.36C67.758 78.3128 67.9683 78.2761 68.18 78.25C68.99 78.2 69.29 78.36 69.54 78.94C69.6019 79.0526 69.6554 79.1695 69.7 79.29C69.733 79.5286 69.6934 79.7716 69.5864 79.9874C69.4794 80.2032 69.3099 80.3818 69.1 80.5C68.37 81.02 67.63 81.56 66.86 82.07C66.0709 82.4673 65.2517 82.8016 64.41 83.07C63.79 83.29 63.16 83.48 62.53 83.67C61.8719 83.8505 61.2042 83.9941 60.53 84.1L60.56 84Z" fill="currentColor"/>
</svg>
