<svg width="96" height="96" viewBox="0 0 96 96" fill="none" xmlns="http://www.w3.org/2000/svg">
<path d="M27.61 75.28C27.26 74.28 26.91 73.37 26.61 72.36C26.4403 71.8349 26.3001 71.3008 26.19 70.76C26.19 70.62 26.13 70.43 26.1 70.26V69.68C26.1042 69.3026 26.1512 68.9269 26.24 68.56C26.4333 67.628 26.8369 66.7524 27.42 66C28.3536 64.9436 29.4347 64.0275 30.63 63.28C31.74 62.54 32.89 61.91 34.03 61.28C35.17 60.65 36.03 60.18 37.03 59.69C38.2875 58.9742 39.6319 58.423 41.03 58.05C41.48 57.95 41.6 58.4 41.45 58.99C41.2639 59.7184 40.8243 60.3566 40.21 60.79C38.98 61.53 37.8 62.33 36.58 63.03L32.9 65.03C31.5194 65.8348 30.3558 66.9641 29.51 68.32C29.3238 68.5913 29.1852 68.8923 29.1 69.21C29.0247 69.5087 29.0247 69.8214 29.1 70.12C29.3135 71.0317 29.5807 71.9299 29.9 72.81C30.2972 73.9356 30.7511 75.0404 31.26 76.12C31.9811 77.7724 32.8514 79.3557 33.86 80.85C34.6371 81.9145 35.5909 82.8379 36.68 83.58C36.9 83.72 37.13 83.83 37.32 83.93C37.7 84.13 37.85 84.25 37.92 84.48C38.0079 84.8073 38.0648 85.1421 38.09 85.48C38.09 85.67 38.18 85.86 38.21 86.03C38.2418 86.1875 38.2254 86.3509 38.1629 86.499C38.1005 86.647 37.9949 86.7728 37.86 86.86C37.6797 87.0294 37.4467 87.1318 37.2 87.15C36.913 87.209 36.617 87.209 36.33 87.15C34.83 86.6182 33.505 85.6841 32.5 84.45C31.5694 83.3647 30.7549 82.185 30.07 80.93C29.0709 79.116 28.1988 77.2348 27.46 75.3L27.61 75.28Z" fill="currentColor"/>
<path d="M59.26 43.16C59.8561 45.1358 60.9433 46.9283 62.42 48.37C62.71 48.64 63 48.89 63.3 49.13C63.6 49.37 63.96 49.55 64.3 49.78C66.3 51.4 69.17 51.87 72.07 51.78C73.3569 51.6964 74.6209 51.399 75.81 50.9C76.5479 50.5863 77.2601 50.2152 77.94 49.79C78.59 49.37 79.29 49.01 79.94 48.54C80.34 48.28 80.83 48.63 81 49.42C81.1084 49.8968 81.0877 50.3939 80.94 50.86C80.7887 51.4282 80.4592 51.9329 80 52.3C78.3377 53.4958 76.4549 54.3501 74.4604 54.8135C72.4658 55.277 70.3992 55.3404 68.38 55C67.1413 54.7751 65.9212 54.4575 64.73 54.05C64.1078 53.8284 63.5056 53.5541 62.93 53.23C62.42 52.9 61.93 52.56 61.41 52.23C59.2592 50.5973 57.5423 48.4615 56.41 46.01C56.0623 45.2605 55.7845 44.4806 55.58 43.68C55.47 43.28 55.43 42.86 55.35 42.46C55.265 42.0551 55.2148 41.6436 55.2 41.23C55.0255 38.7326 55.5704 36.2374 56.77 34.04C57.6323 32.3268 58.8452 30.8141 60.33 29.6C60.67 29.35 61.02 29.12 61.33 28.9C62.73 28.19 63.33 28.34 63.87 28.84C63.9941 28.9491 64.111 29.066 64.22 29.19C64.2914 29.3094 64.329 29.4459 64.329 29.585C64.329 29.7241 64.2914 29.8606 64.22 29.98C64.0466 30.3699 63.7826 30.7127 63.45 30.98C62.86 31.39 62.45 32.07 61.94 32.46C61.7 32.7 61.51 32.98 61.28 33.22C61.0461 33.4499 60.8382 33.7048 60.66 33.98C60.48 34.26 60.3 34.52 60.11 34.78C59.92 35.04 59.83 35.36 59.67 35.64C59.51 35.92 59.52 35.92 59.45 36.07L59.3 36.52C59.22 36.83 59.06 37.11 59.01 37.43C58.5488 39.3224 58.6567 41.3087 59.32 43.14L59.26 43.16Z" fill="currentColor"/>
<path d="M34.79 26.76C34.3907 26.0651 33.9464 25.397 33.46 24.76C32.91 24.12 32.34 23.48 31.72 22.86C31.29 22.41 30.72 22.07 30.29 21.62C28.68 20 27 18.45 25.23 16.94C24.4615 16.2658 23.6534 15.638 22.81 15.06C21.6865 14.376 20.6462 13.5639 19.71 12.64C19.43 12.33 19.71 11.94 20.32 11.64C20.9968 11.3045 21.7753 11.2366 22.5 11.45C23.75 11.98 24.99 12.54 26.18 13.19C26.7842 13.5001 27.3627 13.8579 27.91 14.26C28.44 14.7 28.91 15.15 29.45 15.64C30.62 16.81 32.14 17.64 33.45 18.64C34.9126 19.8389 36.3081 21.1175 37.63 22.47C38.04 22.93 38.44 23.37 38.84 23.86L39.44 24.62C39.64 24.87 39.82 25.21 40.01 25.5C40.325 26.0308 40.5545 26.6079 40.69 27.21C40.78 27.68 40.85 28.15 40.9 28.66C41.0266 29.7782 40.9106 30.9106 40.56 31.98C40.2756 32.8931 39.8578 33.7592 39.32 34.55C39.0694 34.9209 38.799 35.2781 38.51 35.62C38.2292 35.9235 37.9249 36.2043 37.6 36.46C37.3404 36.6904 37.0665 36.9042 36.78 37.1C35.69 37.69 35.16 37.39 34.28 35.95C34.08 35.62 33.86 35.29 33.69 34.95C33.4127 34.5053 33.2478 33.9998 33.2095 33.4772C33.1711 32.9545 33.2606 32.4304 33.47 31.95C33.892 31.2426 34.2726 30.5114 34.61 29.76C34.6043 29.7336 34.6043 29.7064 34.61 29.68C34.61 29.68 34.89 29.83 34.75 29.78L34.56 29.71C34.56 29.71 34.56 29.59 34.65 29.5L34.76 29.19L34.86 28.76L34.92 28.26L36.45 28H36.25H36.02C35.868 28.0238 35.7177 28.0572 35.57 28.1L35.15 28.24C35.05 28.24 35.09 28.24 35.09 28.24C35.2 28.29 35.09 28.11 35.09 28.02C35.1081 27.9007 35.1081 27.7793 35.09 27.66C34.9862 27.3317 34.8453 27.0164 34.67 26.72L34.79 26.76Z" fill="currentColor"/>
<path d="M35.63 26.4C32.45 23.4 29.06 20.49 25.58 17.78C24.31 16.78 22.94 15.97 21.65 15.05C21.08 14.65 20.52 14.24 19.94 13.87L19.51 13.6L19.3 13.47L19.23 13.41L19 13.22C18.7958 13.0732 18.5781 12.946 18.35 12.84C18.2294 12.7792 18.0948 12.7516 17.96 12.76C17.82 12.76 17.82 12.93 17.77 13.03C17.72 13.13 17.62 13.49 17.54 13.76C17.4915 13.8891 17.4579 14.0233 17.44 14.16C17.38 14.46 17.32 14.84 17.26 15.16C17.03 16.56 16.83 17.98 16.64 19.41C16.32 21.94 16.17 24.51 16 27.06C15.89 28.71 15.83 30.35 15.64 32.06C15.5332 32.8994 15.3729 33.7311 15.16 34.55C15.04 34.97 14.93 35.38 14.79 35.8C14.65 36.22 14.49 36.64 14.27 37.09C13.6 38.28 13.06 37.51 12.5 36.52C11.6705 35.2019 11.1888 33.6949 11.1 32.14C11.26 28.93 11.39 25.61 11.61 22.28C11.73 20.6 11.87 18.93 12.07 17.23C12.16 16.39 12.28 15.54 12.41 14.68L12.65 13.2C12.718 12.4598 12.8349 11.7248 13 11L13.35 9.83002L13.52 9.24002C13.58 9.04002 13.71 8.96002 13.8 8.82002C14.22 8.31002 14.44 7.68002 15.23 7.44002C16.7276 7.10407 18.2964 7.32818 19.64 8.07002C20.03 8.23002 20.42 8.43002 20.81 8.62002L21.81 9.17002L23.3 10C24.24 10.53 25.15 11.08 26.03 11.66C29.89 14.21 33.54 16.98 37.11 19.86C38.21 20.74 39.3 21.65 40.38 22.58L41.18 23.29C41.33 23.41 41.43 23.52 41.6 23.65L42.18 24.18C42.9548 24.8313 43.6556 25.5657 44.27 26.37C44.41 26.58 44.53 26.78 44.65 26.99C44.8137 27.2693 44.9191 27.5789 44.96 27.9C45.0208 28.2327 45.0037 28.575 44.91 28.9C44.7197 29.5692 44.4115 30.1991 44 30.76C43.5903 31.3502 43.1285 31.9024 42.62 32.41L41.84 33.17L41.19 33.73C39.5496 35.0709 37.8334 36.3162 36.05 37.46C33.274 39.4295 30.3292 41.1496 27.25 42.6C26.55 42.9 25.87 43.24 25.12 43.48C24.5342 43.6706 23.9314 43.8046 23.32 43.88C22.8737 43.9154 22.4249 43.861 22 43.72C21.6474 43.6013 21.3241 43.4087 21.0516 43.1553C20.7792 42.9018 20.5639 42.5932 20.42 42.25C20.2295 41.9307 20.0656 41.5962 19.93 41.25C19.63 40.08 20.53 39 22 38C24.33 36.82 26.66 35.46 29 34C30.15 33.25 31.34 32.58 32.51 31.85C33.68 31.12 34.81 30.36 35.88 29.58C36.32 29.25 36.75 28.91 37.15 28.58C37.55 28.25 37.34 28.44 37.36 28.42C37.3889 28.4317 37.4211 28.4317 37.45 28.42C37.4589 28.3873 37.4589 28.3528 37.45 28.32L37.35 28.22L37.12 28L36.6 27.51L35.54 26.51L35.63 26.4Z" fill="currentColor"/>
<path d="M67.67 57.4C65.0912 57.0701 62.6135 56.1895 60.405 54.8178C58.1965 53.4461 56.3088 51.6154 54.87 49.45C53.7666 47.9161 52.9501 46.195 52.46 44.37C52.0487 42.737 51.9369 41.0429 52.13 39.37C52.2991 37.72 52.756 36.1124 53.48 34.62C54.1498 33.1474 55.0588 31.7958 56.17 30.62C57.2204 29.4648 58.4211 28.4558 59.74 27.62C61.9654 26.1286 64.4418 25.0513 67.05 24.44C68.7716 24.0032 70.5627 23.9114 72.32 24.17C74.1714 24.4489 75.8459 25.4257 77 26.9C77.69 27.83 77 28.09 75.91 28.16C75.277 28.1938 74.6461 28.2606 74.02 28.36C73.3848 28.4589 72.7429 28.509 72.1 28.51C70.8888 28.4732 69.6814 28.6631 68.54 29.07C67.32 29.48 66.13 30.07 64.9 30.62C64.29 30.91 63.7 31.24 63.13 31.57C62.5871 31.9079 62.063 32.2751 61.56 32.67C60.5511 33.4622 59.6472 34.3795 58.87 35.4C57.9141 36.6394 57.3531 38.1376 57.26 39.7C57.1691 41.2703 57.4393 42.8405 58.05 44.29C58.3883 45.124 58.8104 45.9214 59.31 46.67C59.8161 47.4005 60.4032 48.0714 61.06 48.67C62.4219 49.9317 64.043 50.8805 65.81 51.45C66.9179 51.8139 68.0667 52.039 69.23 52.12C70.4116 52.1883 71.5972 52.1111 72.76 51.89C74.4753 51.6056 76.0994 50.9203 77.5 49.89C78.8646 48.8274 79.9039 47.4035 80.5 45.78C81.357 43.2442 81.2825 40.486 80.29 38C80.08 37.49 79.86 37 79.64 36.55C79.3248 35.9664 79.1085 35.3345 79 34.68C79.0247 34.0781 79.1674 33.4869 79.42 32.94C79.55 32.62 79.62 32.26 79.75 31.94C79.8616 31.6726 80.0614 31.4515 80.316 31.3132C80.5707 31.175 80.865 31.128 81.15 31.18C82.1503 31.2897 83.0685 31.7847 83.71 32.56C84.3233 33.2258 84.8569 33.9607 85.3 34.75C85.7384 35.5162 86.0746 36.3365 86.3 37.19C86.836 38.8965 87.0729 40.6828 87 42.47C86.8538 46.2546 85.3649 49.8634 82.8 52.65C80.8372 54.7589 78.3162 56.2673 75.53 57C74.2434 57.3557 72.9226 57.5736 71.59 57.65C70.2807 57.7513 68.9648 57.7278 67.66 57.58L67.67 57.4Z" fill="currentColor"/>
<path d="M25 76.81C24.18 75.34 23.41 73.81 22.68 72.3L22.37 71.63C22.22 71.29 22.06 70.95 21.92 70.63C21.78 70.31 21.66 69.93 21.54 69.63C21.42 69.33 21.15 68.94 21.13 68.63C20.9012 67.983 20.9012 67.2771 21.13 66.63C21.2512 66.3305 21.4163 66.0508 21.62 65.8C21.8475 65.551 22.0878 65.314 22.34 65.09C22.75 64.82 23.14 64.53 23.57 64.28L24.2 63.9L24.72 63.6L26.25 62.79C27.72 62.04 29.11 61.21 30.58 60.55C33.19 59.39 35.83 58.32 38.58 57.36C39.94 56.88 41.29 56.36 42.76 56.04L43.32 55.91C43.5739 55.8467 43.8309 55.7966 44.09 55.76C44.6087 55.6463 45.1392 55.5959 45.67 55.61C45.9219 55.6026 46.1738 55.6261 46.42 55.68C46.6766 55.7178 46.9241 55.8025 47.15 55.93C47.5932 56.1836 47.9809 56.5237 48.29 56.93L48.7 57.5L49.05 58.11L49.37 58.74L49.63 59.32C49.9 59.93 50.14 60.54 50.37 61.14C50.83 62.34 51.26 63.52 51.68 64.68C52.8367 67.5278 53.8087 70.4472 54.59 73.42C54.647 73.5826 54.6463 73.7597 54.588 73.9218C54.5297 74.0839 54.4174 74.221 54.27 74.31C54.0498 74.4381 53.8052 74.5185 53.552 74.546C53.2988 74.5736 53.0426 74.5477 52.8 74.47C52.0205 74.2843 51.286 73.9443 50.64 73.47C50.2743 73.1968 49.939 72.885 49.64 72.54C49.353 72.1738 49.1175 71.7701 48.94 71.34C47.7 68.27 46.69 65.19 45.6 62.41L45.19 61.41L45.13 61.3V61.1C45.13 61.03 45.13 60.88 45.04 60.83C44.9941 60.7988 44.9434 60.7752 44.89 60.76H44.78L44.27 60.89L42 61.4C38.37 62.4 34.81 64.29 31.32 65.98C30.41 66.43 29.5 66.88 28.61 67.35L27.29 68.05L26.71 68.36L26.41 68.53C26.29 68.59 26.33 68.74 26.34 68.83C26.386 69.0536 26.4461 69.2741 26.52 69.49L26.65 69.83L26.96 70.56C27.18 71.06 27.41 71.56 27.65 72.08C28.21 73.26 28.81 74.44 29.44 75.6C30.07 76.76 30.8 77.88 31.51 79C32.3676 80.3319 33.2955 81.617 34.29 82.85C34.7073 83.3596 35.1583 83.8407 35.64 84.29C35.96 84.59 36.44 84.92 36.89 84.64C37 84.64 37.1 84.56 37.21 84.53L37.37 84.46L37.63 84.34L38.69 83.86C41.5 82.51 44.16 80.86 47.08 79.48C47.71 79.17 48.35 78.85 49.08 78.58C51.63 77.58 52.81 77.88 53.55 79.18C53.7328 79.434 53.8839 79.7094 54 80C54.0665 80.2504 54.0712 80.5131 54.0137 80.7657C53.9562 81.0183 53.8383 81.2531 53.67 81.45C53.4802 81.698 53.2621 81.9228 53.02 82.12C52.7093 82.3555 52.374 82.5566 52.02 82.72C50.02 83.72 47.82 84.9 45.57 86.02C44.45 86.59 43.31 87.18 42.11 87.71L40.28 88.52L39.28 88.92C39.22 88.92 39.02 88.98 38.88 89.04L38.42 89.21L37.5 89.54C36.3076 89.8254 35.0509 89.6315 34 89C33.5301 88.7358 33.0908 88.4206 32.69 88.06C32.49 87.87 32.28 87.7 32.09 87.5C31.948 87.3685 31.8144 87.2282 31.69 87.08C31.23 86.59 30.83 86.08 30.45 85.63C29.7 84.63 29.04 83.69 28.45 82.72C27.86 81.75 27.24 80.72 26.67 79.78L25.83 78.3L24.96 76.84L25 76.81Z" fill="currentColor"/>
</svg>
