<svg width="96" height="96" viewBox="0 0 96 96" fill="none" xmlns="http://www.w3.org/2000/svg">
<path d="M62.4 59.07C64.5219 59.5793 66.5885 60.296 68.57 61.21C69.51 61.63 70.45 62.08 71.24 62.37C71.65 62.53 72.09 62.64 72.52 62.79C72.95 62.94 73.38 63.01 73.82 63.07C75.0717 63.2752 76.3484 63.2752 77.6 63.07C79.8313 62.7452 81.892 61.6902 83.46 60.07C84.2844 59.2562 84.9612 58.3054 85.46 57.26C85.9431 56.2408 86.1957 55.1278 86.2 54C86.1975 52.9904 85.968 51.9943 85.5283 51.0856C85.0886 50.1768 84.4501 49.3785 83.66 48.75C83.1475 48.3051 82.5913 47.9131 82 47.58C81.393 47.2723 80.7647 47.0083 80.12 46.79C78.8102 46.2932 77.475 45.8659 76.12 45.51C75.25 45.26 75.37 44.9 76.2 44.51C77.539 43.8427 79.0565 43.6219 80.53 43.88L81.75 44.22L82.95 44.72C83.3573 44.8803 83.749 45.0778 84.12 45.31C84.5141 45.5216 84.8918 45.7622 85.25 46.03C86.791 47.1063 87.9862 48.6071 88.69 50.35C89.3936 52.1037 89.5911 54.0196 89.26 55.88C88.9276 57.6545 88.1958 59.3301 87.12 60.78C85.8773 62.4901 84.3152 63.9435 82.52 65.06C80.6708 66.1643 78.5808 66.8027 76.43 66.92C74.1549 67.0176 71.8832 66.6572 69.75 65.86C67.66 65.06 65.96 64.23 64.08 63.66C61.7794 62.9497 59.403 62.5134 57 62.36C53.2794 62.1292 49.5446 62.3847 45.89 63.12C43.0823 63.7319 40.3219 64.5439 37.63 65.55C37.03 65.75 36.46 65.99 35.86 66.21C33.62 66.97 32.86 66.93 31.99 66.05C31.7878 65.8615 31.6006 65.6576 31.43 65.44C30.95 64.71 31.67 63.76 33.3 62.99C38.3603 60.651 43.7617 59.1352 49.3 58.5C50.36 58.37 51.43 58.26 52.52 58.23L54.15 58.16H55.79C58.0107 58.1968 60.222 58.4581 62.39 58.94L62.4 59.07Z" fill="currentColor"/>
<path d="M24.76 63.88C27.2122 63.7598 29.642 63.3537 32 62.67C34.55 61.9 37.24 61.04 40 60.3C42.844 59.4684 45.755 58.8862 48.7 58.56C51.7816 58.2354 54.8947 58.3872 57.93 59.01C58.49 59.11 59.04 59.24 59.58 59.39C60.12 59.54 60.7 59.67 61.18 59.82L64.11 60.7L69.67 62.36C71.1635 62.8306 72.6964 63.1653 74.25 63.36C75.6516 63.5599 77.0777 63.5057 78.46 63.2C79.8194 62.9082 81.1054 62.3435 82.24 61.54C83.4563 60.7125 84.5359 59.7004 85.44 58.54C86.3289 57.4489 86.9826 56.1858 87.36 54.83C87.7002 53.6095 87.6371 52.3117 87.18 51.13C86.6474 49.9222 85.72 48.9313 84.55 48.32C83.9114 47.9721 83.2419 47.6842 82.55 47.46C81.7721 47.2723 80.9842 47.1287 80.19 47.03C78.7 46.83 77.11 46.72 75.47 46.48C73.6946 46.2823 71.9663 45.7817 70.36 45C69.9271 44.7687 69.5126 44.5046 69.12 44.21C68.7109 43.8965 68.3355 43.5413 68 43.15L67.53 42.53C67.39 42.3 67.26 42.04 67.14 41.79L67 41.41L66.89 41C66.811 40.7278 66.7509 40.4505 66.71 40.17C66.6416 39.1556 66.7672 38.1374 67.08 37.17C67.34 36.33 67.65 35.55 67.9 34.88C68.2245 34.1847 68.4177 33.4355 68.47 32.67C68.4647 32.4021 68.399 32.1389 68.2778 31.9C68.1566 31.661 67.983 31.4525 67.77 31.29C67.484 31.0485 67.1835 30.8247 66.87 30.62L66.41 30.39L65.88 30.2C65.4895 30.101 65.0915 30.0341 64.69 30C64.27 29.93 63.84 29.87 63.4 29.84C61.5674 29.7425 59.7309 29.9383 57.96 30.42C56.11 30.8531 54.3411 31.5789 52.72 32.57C50.77 33.93 50.82 33.71 52.06 31.85C52.9947 30.5675 54.1018 29.42 55.35 28.44C57.2347 27.0208 59.4214 26.0558 61.74 25.62C62.9566 25.3973 64.1961 25.3268 65.43 25.41C66.8608 25.5499 68.2467 25.9858 69.5 26.69C70.953 27.5021 72.1248 28.7367 72.86 30.23C73.0354 30.694 73.1823 31.1682 73.3 31.65C73.3591 32.0979 73.3958 32.5484 73.41 33C73.41 33.42 73.33 33.84 73.28 34.25L73 35.32C72.6924 36.3474 72.308 37.3502 71.85 38.32C71.6335 38.775 71.4885 39.2607 71.42 39.76C71.42 39.76 71.42 39.83 71.42 39.86C71.4319 39.9059 71.4319 39.9541 71.42 40C71.5494 40.1693 71.7007 40.3206 71.87 40.45C72.3649 40.8005 72.9212 41.0549 73.51 41.2C75.2852 41.5915 77.0931 41.8158 78.91 41.87C79.91 41.95 81.01 42.01 82.19 42.19C82.48 42.19 82.79 42.28 83.1 42.34C83.41 42.4 83.72 42.45 84.1 42.56C84.7444 42.73 85.3733 42.9541 85.98 43.23C87.2379 43.7454 88.4059 44.4577 89.44 45.34C89.9819 45.8221 90.4805 46.3508 90.93 46.92C91.3797 47.5072 91.7652 48.1408 92.08 48.81C92.7004 50.1328 93.0408 51.5695 93.08 53.03C93.1105 54.3841 92.9248 55.7344 92.53 57.03C92.0803 58.5003 91.4274 59.9005 90.59 61.19C90.1818 61.8248 89.7378 62.4358 89.26 63.02C88.7801 63.5813 88.2658 64.1124 87.72 64.61C85.5701 66.7515 82.9149 68.3164 80 69.16C77.1098 69.8784 74.0999 69.9738 71.17 69.44C68.5419 68.9737 65.9589 68.2811 63.45 67.37L59.5 66C58.3116 65.5929 57.0993 65.2589 55.87 65C53.413 64.5471 50.9026 64.4595 48.42 64.74C45.8087 65.0552 43.2293 65.5939 40.71 66.35C39.41 66.73 38.11 67.13 36.79 67.55C35.47 67.97 34.2 68.4 32.73 68.8C29.1934 69.8115 25.5131 70.2272 21.84 70.03C19.8254 69.9204 17.8562 69.3889 16.06 68.47C15.0582 67.9479 14.1712 67.2302 13.4515 66.3594C12.7318 65.4886 12.1941 64.4823 11.87 63.4C11.4517 61.891 11.3328 60.3147 11.52 58.76C11.587 57.9768 11.7482 57.2046 12 56.46C12.2462 55.7781 12.5299 55.1104 12.85 54.46C13.13 53.86 13.42 53.29 13.65 52.76C13.78 52.49 13.86 52.25 13.96 52C13.9842 51.9049 14.0142 51.8114 14.05 51.72L14.11 51.47C14.2075 51.1164 14.206 50.7428 14.1054 50.3901C14.0049 50.0373 13.8093 49.719 13.54 49.47C13.2034 49.1599 12.8307 48.8913 12.43 48.67C11.96 48.4 11.43 48.14 10.87 47.88C9.54827 47.3508 8.28761 46.6802 7.11003 45.88C6.40855 45.3685 5.80834 44.731 5.34003 44C5.1198 43.6292 4.92276 43.2451 4.75003 42.85C4.59664 42.4428 4.47298 42.0251 4.38003 41.6C4.04675 39.8889 4.33766 38.115 5.20003 36.6C5.79544 35.5354 6.5819 34.5896 7.52003 33.81C8.38805 33.0863 9.34599 32.478 10.37 32C12.3349 31.0081 14.4443 30.3331 16.62 30C20.824 29.4345 25.0981 29.6995 29.2 30.78C30.9818 31.2034 32.7325 31.748 34.44 32.41C35.7833 32.917 37.0757 33.5499 38.3 34.3C39.1412 34.7916 39.9347 35.3608 40.67 36C41.1878 36.4325 41.6364 36.9417 42 37.51C42.2486 37.9801 42.4335 38.4812 42.55 39C42.6826 39.3987 42.7862 39.8064 42.86 40.22C42.86 40.76 42.22 40.83 40.95 40.68C39.2048 40.3342 37.4993 39.8115 35.86 39.12C34.28 38.55 32.71 37.97 31.13 37.46C29.553 36.9732 27.9506 36.5726 26.33 36.26C23.2245 35.6071 20.0268 35.519 16.89 36C15.4917 36.2331 14.1406 36.6924 12.89 37.36C12.3563 37.6292 11.859 37.9653 11.41 38.36C11.0531 38.6632 10.7549 39.0292 10.53 39.44C10.4028 39.6631 10.3308 39.9134 10.32 40.17C10.336 40.3371 10.3983 40.4965 10.5 40.63C10.5 40.7 10.5 40.69 10.5 40.7C10.5 40.71 10.5 40.7 10.55 40.7L10.68 40.8L10.91 40.95C11.5118 41.2899 12.1367 41.5873 12.78 41.84C13.39 42.1 14.11 42.4 14.91 42.84C15.8575 43.2862 16.7363 43.8653 17.52 44.56C18.5297 45.4921 19.3365 46.6222 19.89 47.88C20.3452 49.1615 20.4758 50.5357 20.27 51.88C20.2 52.22 20.17 52.57 20.07 52.88L19.77 53.88C19.59 54.32 19.42 54.78 19.26 55.15C18.92 55.94 18.6 56.58 18.35 57.15C18.1275 57.5899 17.9435 58.0483 17.8 58.52C17.7571 58.6467 17.7269 58.7773 17.71 58.91L17.63 59.64C17.5511 60.3614 17.6436 61.0911 17.9 61.77C18.0989 62.2271 18.4531 62.5991 18.9 62.82C20.7327 63.5808 22.7269 63.8696 24.7 63.66L24.76 63.88Z" fill="currentColor"/>
</svg>
