<svg width="96" height="96" viewBox="0 0 96 96" fill="none" xmlns="http://www.w3.org/2000/svg">
<path d="M29.83 51.47C29.5015 50.5456 29.2833 49.5856 29.18 48.61C29.0522 47.6654 29.0287 46.7097 29.11 45.76C29.2491 43.8559 29.7694 41.9991 30.64 40.3C31 39.71 31.31 39.09 31.69 38.53C32.0696 37.9714 32.4838 37.437 32.93 36.93C34.5069 35.2326 36.3226 33.774 38.32 32.6C39.32 32.02 40.26 31.43 41.32 30.95L42.81 30.18L44.34 29.5C45.25 29.1 46.15 28.69 47.06 28.33C47.97 27.97 48.87 27.55 49.78 27.2C50.95 26.76 52.12 26.29 53.3 25.87C54.4943 25.463 55.7331 25.2012 56.99 25.09C57.77 24.96 57.71 25.14 57.18 25.63C56.91 25.87 56.55 26.24 56.1 26.68C55.8645 26.8914 55.6138 27.0853 55.35 27.26L54.92 27.55C54.76 27.61 54.61 27.69 54.44 27.75C49.7892 29.5829 45.2423 31.6693 40.82 34C38.2123 35.4231 35.9303 37.3747 34.12 39.73C33.1492 40.9543 32.4289 42.3576 32 43.86L31.77 45L31.65 46.18V47.38L31.78 48.55C32.0653 50.4843 32.906 52.2942 34.2 53.76C36.358 56.0156 38.8672 57.9067 41.63 59.36C43.77 60.59 45.99 61.64 48.11 63.09C48.57 63.42 49.04 63.72 49.49 64.09C51.02 65.61 51.25 66.39 50.97 67.09C50.9319 67.2425 50.8852 67.3928 50.83 67.54C50.67 67.87 49.67 67.6 48.64 66.77C45.41 64.35 41.31 62.48 37.3 59.77C35.7487 58.8059 34.3069 57.6759 33 56.4C31.6106 54.9998 30.5187 53.333 29.79 51.5L29.83 51.47Z" fill="currentColor"/>
<path d="M35.9999 37.51C34.0426 39.0391 32.5643 41.0969 31.7399 43.44C31.6299 44.04 31.4299 44.62 31.3499 45.24L31.2599 46.18L31.2099 46.65V47.1C31.1968 47.6875 31.2505 48.2746 31.3699 48.85C31.4399 49.14 31.4799 49.43 31.5499 49.72L31.8599 50.54C32.6338 52.2054 33.7516 53.6879 35.1399 54.89C37.9174 57.3592 41.0112 59.4476 44.3399 61.1L49.6199 63.85L52.2099 65.26L54.8699 66.66C58.1867 68.3139 61.2399 70.4504 63.9299 73C65.6023 74.7 67.0659 76.5934 68.2899 78.64C68.8844 79.6633 69.3703 80.7458 69.7399 81.87C69.9199 82.43 70.1099 82.98 70.2799 83.54L70.6699 85.25C70.9699 86.67 70.5199 86.58 69.5199 85.7C68.9899 85.27 68.4099 84.61 67.5999 83.92C67.2099 83.56 66.7999 83.18 66.3999 82.77C66.1978 82.5549 65.9805 82.3544 65.7499 82.17C65.5799 81.94 65.3799 81.71 65.2099 81.47C63.9688 79.816 62.5354 78.3155 60.9399 77C59.3689 75.6903 57.7192 74.478 55.9999 73.37C54.1445 72.2691 52.2318 71.2677 50.2699 70.37C49.7999 70.15 49.0499 69.76 48.6299 69.52L47.1799 68.69L44.1799 66.99C41.7599 65.6 39.1799 64.31 36.5799 62.77C33.8387 61.2482 31.3905 59.2504 29.3499 56.87C28.7799 56.1626 28.2682 55.4101 27.8199 54.62L27.1599 53.4L26.6599 52.09C26.3421 51.2154 26.1143 50.3108 25.9799 49.39C25.8768 48.4802 25.8234 47.5656 25.8199 46.65C25.9486 43.0684 27.1738 39.6127 29.3299 36.75C30.6301 35.0864 32.1624 33.6181 33.8799 32.39C35.541 31.222 37.3011 30.2014 39.1399 29.34C41.8553 28.0849 44.6637 27.0418 47.5399 26.22C48.2499 26.01 48.9499 25.79 49.5999 25.58C50.2499 25.37 50.9299 25.16 51.5999 24.9C52.2699 24.64 52.8999 24.4 53.5299 24.11C54.1652 23.839 54.7861 23.5352 55.3899 23.2C59.0811 21.2445 62.2496 18.4326 64.6299 15C64.8888 14.6412 65.1259 14.2672 65.3399 13.88C65.5699 13.5 65.7999 13.13 66.0199 12.74C66.6769 11.7428 67.4126 10.7998 68.2199 9.91999C68.7469 9.41501 69.4053 9.06848 70.1199 8.91999C70.4252 8.83055 70.7359 8.76041 71.0499 8.70999C71.5099 8.70999 71.7799 9.08999 71.8999 9.87999C72.0514 11.0284 71.9315 12.1963 71.5499 13.29C71.2542 14.3651 70.8418 15.4046 70.3199 16.39L69.4499 17.83C69.1399 18.3 68.7999 18.75 68.4499 19.21C67.072 21.0363 65.4807 22.6914 63.7099 24.14C60.138 27.001 56.0704 29.1805 51.7099 30.57L47.2799 32C45.8799 32.46 44.5099 33 43.1799 33.51C40.6166 34.5227 38.2146 35.9039 36.0499 37.61L35.9999 37.51Z" fill="currentColor"/>
<path d="M68.68 33.79C69.3328 34.4847 69.9375 35.2231 70.49 36C70.7708 36.3895 71.0311 36.7934 71.27 37.21C71.537 37.5985 71.7808 38.0025 72 38.42C72.4333 39.2867 72.7978 40.1861 73.09 41.11C73.23 41.57 73.4 42.03 73.5 42.5L73.75 43.91L73.87 44.62C73.87 44.86 73.87 45.09 73.87 45.33L74 46.74C74 47.69 73.85 48.69 73.77 49.65C73.3887 51.5849 72.653 53.4326 71.6 55.1C70.1769 57.3999 68.3229 59.4033 66.14 61C62.5392 63.3308 58.6968 65.2654 54.68 66.77C52.76 67.54 50.93 68.28 49.07 69.1C46.97 69.99 45.14 70.51 43.29 71.29C40.0815 72.5745 37.0898 74.3452 34.42 76.54C31.084 79.4003 28.2954 82.8428 26.19 86.7C25.47 87.92 25.19 87.7 25.01 86.3C25.01 85.96 24.95 85.54 24.93 85.06C24.9057 84.5256 24.9291 83.9902 25 83.46C25.0556 82.1169 25.3965 80.8011 26 79.6C28.4526 74.9737 32.189 71.1541 36.76 68.6C38.9396 67.3545 41.2132 66.2813 43.56 65.39L45.23 64.76L46.03 64.48L46.73 64.23L48.42 63.56L50.13 62.92C52.8257 61.966 55.4548 60.8334 58 59.53C60.3923 58.3143 62.6286 56.8133 64.66 55.06C65.9614 54.0243 67.0014 52.6975 67.6962 51.1864C68.3909 49.6752 68.7211 48.0221 68.66 46.36V45.36L68.5 44.36C68.3914 43.6791 68.2207 43.0097 67.99 42.36C67.8816 42.0366 67.7479 41.7223 67.59 41.42C67.4629 41.0976 67.3091 40.7866 67.13 40.49C65.2089 37.4313 62.4918 34.9528 59.27 33.32C56.7291 31.9436 54.0803 30.7764 51.35 29.83C50 29.36 48.52 28.88 47.09 28.33C45.66 27.78 44.24 27.19 42.85 26.53C38.4394 24.6022 34.3832 21.9488 30.85 18.68C30.0486 17.9431 29.3032 17.1475 28.62 16.3C26.33 12.8 26.5 11.2 27.25 9.99998C27.3987 9.72125 27.5728 9.4568 27.77 9.20998C28.1 8.88998 28.58 9.02998 29.2 9.44998C29.52 9.65998 29.85 9.94998 30.26 10.28C30.67 10.61 31.03 11.03 31.49 11.48C32.1 12.18 32.88 12.74 33.49 13.43L34.49 14.43L35.49 15.37C36.9175 16.5945 38.424 17.7236 40 18.75C41.6288 19.8047 43.3259 20.7501 45.08 21.58C46.8664 22.437 48.7031 23.185 50.58 23.82L52.85 24.59C53.64 24.86 54.43 25.15 55.22 25.45C56.79 26.07 58.37 26.72 59.92 27.51C63.1998 29.0468 66.1903 31.1374 68.76 33.69L68.68 33.79Z" fill="currentColor"/>
<path d="M53.78 13.36L50.78 13.22C50.4069 13.24 50.0331 13.24 49.66 13.22C48.34 13.03 47.02 12.79 45.73 12.57C45.16 12.45 44.58 12.42 44.01 12.34C43.2712 12.317 42.5413 12.1717 41.85 11.91C41.63 11.82 41.71 11.5 41.95 11.19C42.0687 11.0114 42.2234 10.8595 42.4042 10.7441C42.585 10.6287 42.788 10.5524 43 10.52C44.4272 10.4481 45.8577 10.4815 47.28 10.62C48.1635 10.6575 49.0485 10.6005 49.92 10.45C50.92 10.45 51.92 10.45 52.92 10.38H54.78C55.73 10.38 56.68 10.38 57.62 10.3C57.9879 10.2667 58.3525 10.2032 58.71 10.11L59.26 9.97999C59.4432 9.97008 59.6268 9.97008 59.81 9.97999C59.9698 9.97001 60.1301 9.97001 60.29 9.97999C60.89 10.05 61.08 10.29 61.16 10.98C61.16 11.14 61.21 11.3 61.22 11.47C61.2354 11.7159 61.1806 11.9612 61.062 12.1772C60.9434 12.3932 60.7658 12.5711 60.55 12.69C59.9803 13.0583 59.34 13.3036 58.67 13.41C58.0356 13.4785 57.398 13.5118 56.76 13.51H53.79L53.78 13.36Z" fill="currentColor"/>
<path d="M50.31 16.61C50.7206 16.7507 51.142 16.8577 51.57 16.93C51.72 16.93 51.87 16.93 52.03 16.93C52.61 17.01 53.25 17.09 53.87 17.15C54.1388 17.1854 54.4112 17.1854 54.68 17.15C55.0029 17.0323 55.3571 17.0323 55.68 17.15C55.9 17.27 55.68 19.02 55.35 19.15C54.6967 19.323 54.0125 19.3435 53.35 19.21C52.9249 19.1979 52.5004 19.2484 52.09 19.36C51.594 19.395 51.0961 19.395 50.6 19.36C50.3 19.36 49.99 19.36 49.7 19.28C49.2647 19.1935 48.8234 19.14 48.38 19.12C48.0379 19.1629 47.7021 19.2469 47.38 19.37C47.308 19.3946 47.2345 19.4147 47.16 19.43C46.88 19.43 46.81 19.26 46.81 18.55V18C46.7864 17.5884 46.9225 17.1837 47.19 16.87C47.7236 16.5149 48.3611 16.3494 49 16.4C49.4274 16.3961 49.8537 16.4431 50.27 16.54L50.31 16.61Z" fill="currentColor"/>
<path d="M45.77 82.21L48.77 82.44C49.13 82.44 49.49 82.44 49.86 82.44C51.16 82.65 52.45 82.89 53.74 83.06C54.31 83.15 54.88 83.16 55.45 83.2C56.183 83.1889 56.9138 83.2832 57.62 83.48C57.84 83.56 57.79 83.88 57.62 84.21C57.5134 84.3946 57.3694 84.555 57.1971 84.6807C57.0249 84.8064 56.8284 84.8947 56.62 84.94C55.1766 85.1148 53.7194 85.145 52.27 85.03C51.3737 85.0041 50.4769 85.0577 49.59 85.19C48.59 85.19 47.59 85.19 46.59 85.19H44.74C43.8 85.19 42.86 85.19 41.92 85.19C41.5533 85.2222 41.1891 85.279 40.83 85.36L40.28 85.49C40.0968 85.5002 39.9132 85.5002 39.73 85.49C39.5702 85.5 39.4098 85.5 39.25 85.49C38.64 85.41 38.46 85.17 38.4 84.49C38.4 84.32 38.4 84.16 38.4 84C38.3826 83.7645 38.4291 83.5286 38.5347 83.3174C38.6403 83.1061 38.8011 82.9274 39 82.8C39.5729 82.4421 40.2125 82.2039 40.88 82.1C41.5243 82.031 42.172 81.9976 42.82 82C43.82 82 44.82 82.07 45.82 82.09L45.77 82.21Z" fill="currentColor"/>
<path d="M49.64 78.78C49.0519 78.6559 48.4578 78.5625 47.86 78.5C47.64 78.5 47.42 78.5 47.2 78.5C46.41 78.42 45.6 78.32 44.8 78.28C44.4452 78.2681 44.0901 78.2916 43.74 78.35C43.2919 78.475 42.8181 78.475 42.37 78.35C42.08 78.23 42.37 76.48 42.85 76.35C43.7302 76.1594 44.6363 76.1189 45.53 76.23C46.0969 76.252 46.6644 76.205 47.22 76.09C47.84 76.09 48.48 76.09 49.12 76.09C49.51 76.09 49.9 76.09 50.29 76.09C50.89 76.09 51.48 76.23 52.06 76.22C52.5214 76.1804 52.9793 76.1068 53.43 76C53.53 76 53.63 75.94 53.73 75.94C54.1 75.94 54.21 76.12 54.22 76.83C54.23 76.9898 54.23 77.1502 54.22 77.31C54.2416 77.5216 54.211 77.7353 54.1308 77.9323C54.0506 78.1293 53.9233 78.3037 53.76 78.44C53.0256 78.8071 52.2103 78.9825 51.39 78.95C50.8052 78.9647 50.2202 78.9346 49.64 78.86V78.78Z" fill="currentColor"/>
<path d="M52.63 41.42C51.71 41.31 50.78 41.2 49.85 41.11C49.5169 41.1292 49.183 41.1292 48.85 41.11C47.65 40.92 46.45 40.72 45.25 40.6C44.7172 40.565 44.1827 40.565 43.65 40.6C42.9683 40.713 42.2707 40.6858 41.6 40.52C41.39 40.45 41.42 39.97 41.6 39.52C41.78 39.07 42.08 38.52 42.47 38.52C43.8374 38.2816 45.2326 38.2479 46.61 38.42C47.4608 38.4746 48.315 38.4444 49.16 38.33C50.1 38.33 51.04 38.4 51.99 38.44L53.73 38.53C54.61 38.53 55.49 38.63 56.36 38.53C57.05 38.53 57.72 38.38 58.41 38.34C58.5618 38.3098 58.7181 38.3098 58.87 38.34C59.0992 38.3867 59.3049 38.5124 59.451 38.6951C59.5972 38.8778 59.6747 39.106 59.67 39.34C59.67 39.47 59.67 39.6 59.67 39.72C59.6477 39.926 59.5773 40.1239 59.4643 40.2976C59.3514 40.4713 59.1992 40.616 59.02 40.72L58.58 41.03C58.4446 41.11 58.3003 41.1738 58.15 41.22C57.85 41.33 57.55 41.43 57.25 41.51C56.9521 41.6044 56.648 41.6779 56.34 41.73H55.42C54.5 41.73 53.57 41.61 52.64 41.56L52.63 41.42Z" fill="currentColor"/>
<path d="M52.93 47L48.93 46.71C48.44 46.71 47.93 46.71 47.46 46.71C45.73 46.58 43.99 46.32 42.26 46.21C41.4906 46.165 40.7193 46.165 39.95 46.21C38.9696 46.3393 37.9754 46.3224 37 46.16C36.69 46.09 36.71 45.57 37 45.05C37.1006 44.772 37.2667 44.5223 37.4843 44.3221C37.7019 44.122 37.9645 43.9772 38.25 43.9C40.2397 43.6405 42.2521 43.6036 44.25 43.79C45.46 43.93 46.71 43.71 47.95 43.73L52.03 43.84H54.54H56.44C57.08 43.84 57.71 43.84 58.34 43.84C59.34 43.84 60.27 43.62 61.23 43.51C61.4426 43.4852 61.6574 43.4852 61.87 43.51C62.66 43.59 62.87 43.81 63.1 44.38C63.1458 44.5072 63.1826 44.6376 63.21 44.77C63.29 45.19 62.97 45.59 62.4 45.87C61.566 46.272 60.6759 46.5451 59.76 46.68C58.87 46.85 57.96 46.97 57.06 47.06C56.3942 47.108 55.7258 47.108 55.06 47.06L53.06 47H52.93Z" fill="currentColor"/>
<path d="M50.21 53.41L48.09 53.2C47.83 53.2 47.58 53.2 47.32 53.2C46.41 53.08 45.5 52.94 44.59 52.87C44.1907 52.835 43.7892 52.835 43.39 52.87C42.882 52.9748 42.3579 52.9748 41.85 52.87C41.53 52.77 41.85 51.26 42.45 51.15C43.4939 50.9899 44.5561 50.9899 45.6 51.15C46.2464 51.1549 46.892 51.1047 47.53 51C48.23 51 48.94 51 49.66 51H50.97C51.6361 51.0357 52.3038 51.0357 52.97 51C53.4773 50.9054 53.9757 50.7683 54.46 50.59C54.57 50.59 54.68 50.5 54.79 50.48C55.2 50.41 55.34 50.58 55.46 51.27C55.46 51.43 55.52 51.59 55.54 51.75C55.6077 51.9753 55.6047 52.2159 55.5313 52.4394C55.458 52.6629 55.3179 52.8586 55.13 53C54.2664 53.4212 53.3093 53.614 52.35 53.56C51.64 53.56 50.93 53.56 50.22 53.49L50.21 53.41Z" fill="currentColor"/>
</svg>
