<svg width="96" height="96" viewBox="0 0 96 96" fill="none" xmlns="http://www.w3.org/2000/svg">
<path d="M63 59.53C61.7412 59.2225 60.6406 58.4602 59.91 57.39C59.76 57.19 59.52 56.91 59.43 56.78L59.1 56.34C58.87 56.04 58.69 55.81 58.47 55.55C58.25 55.29 57.74 54.91 57.41 54.55L57.25 54.4L57.13 54.27C57.0818 54.2118 57.0282 54.1582 56.97 54.11C56.8411 53.9772 56.6727 53.8895 56.49 53.86C56.07 53.86 55.98 54.31 55.9 54.73C55.9 54.78 55.9 55.06 55.9 55.23C55.9 55.4 55.9 55.63 55.9 55.83C55.9016 56.2221 55.935 56.6134 56 57C56.1439 57.9042 56.4167 58.7832 56.81 59.61C56.95 59.86 56.81 60.12 56.32 60.23C55.9572 60.2948 55.5839 60.2674 55.2345 60.1503C54.885 60.0332 54.5706 59.8303 54.32 59.56C54.0732 59.2828 53.846 58.9888 53.64 58.68C53.4769 58.3638 53.3559 58.0276 53.28 57.68C53.1281 57.0635 53.0344 56.434 53 55.8L52.94 54.85C52.9258 54.3392 52.9459 53.8281 53 53.32C53.0732 52.8725 53.2347 52.4439 53.475 52.0594C53.7154 51.6748 54.0298 51.3419 54.4 51.08C54.8544 50.8226 55.3637 50.6775 55.8855 50.6566C56.4073 50.6357 56.9265 50.7397 57.4 50.96C57.9071 51.1707 58.3899 51.4356 58.84 51.75C59.1946 51.9741 59.5291 52.2284 59.84 52.51C60.4432 53.0651 61.0016 53.667 61.51 54.31C62.11 55.03 62.12 55.14 62.39 55.44C62.5252 55.6316 62.7234 55.7697 62.95 55.83C63.0648 55.833 63.178 55.8025 63.2757 55.7421C63.3734 55.6817 63.4514 55.5941 63.5 55.49C63.6009 55.3434 63.6848 55.1857 63.75 55.02C63.7954 54.9291 63.8355 54.8356 63.87 54.74L64.03 54.33L64.81 52.33C65.1833 51.1721 65.6759 50.0561 66.28 49C66.4283 48.7509 66.5955 48.5136 66.78 48.29C66.8978 48.1279 67.047 47.9912 67.2189 47.8881C67.3907 47.785 67.5815 47.7176 67.78 47.69C68.1437 47.7679 68.471 47.965 68.71 48.25C68.8405 48.3663 68.9609 48.4934 69.07 48.63C69.2261 48.8652 69.3159 49.1381 69.33 49.42C69.4248 49.7125 69.4248 50.0275 69.33 50.32C68.63 51.7959 68.0091 53.308 67.47 54.85L67 56C66.8926 56.3431 66.7588 56.6774 66.6 57C66.4752 57.3257 66.3106 57.6347 66.11 57.92C65.9358 58.1982 65.7275 58.4535 65.49 58.68L65.15 59L64.76 59.24C64.2164 59.5465 63.5906 59.6759 62.97 59.61L63 59.53Z" fill="currentColor"/>
<path d="M49.66 71.61C46.207 67.4969 43.0809 63.1203 40.31 58.52C37.3816 53.7447 35.4432 48.4293 34.61 42.89C33.9802 38.6977 34.3607 34.4155 35.72 30.4C37.066 26.8174 39.3655 23.6707 42.37 21.3C45.3573 19.0036 48.9019 17.5436 52.64 17.07C56.2625 16.5943 59.9444 16.8805 63.45 17.91C66.9763 18.9594 70.177 20.8901 72.75 23.52C74.9375 25.8386 76.713 28.5137 78 31.43C79.2423 34.2457 80.1939 37.1809 80.84 40.19C81.2546 42.1243 81.5286 44.0861 81.66 46.06C81.8179 47.9857 81.8713 49.9185 81.82 51.85C81.7682 55.6793 81.4944 59.5024 81 63.3C80.68 65.65 80 65.3 79.26 63.24C78.2685 59.9937 77.7038 56.6321 77.58 53.24C77.51 51.34 77.36 49.45 77.24 47.6C77.1326 45.7928 76.9222 43.9932 76.61 42.21C75.941 38.6961 74.8007 35.2887 73.22 32.08C72.4316 30.5684 71.4864 29.1438 70.4 27.83C69.324 26.5806 68.0825 25.4838 66.71 24.57C65.2908 23.6887 63.7696 22.9835 62.18 22.47C60.4932 21.9652 58.7562 21.6466 57 21.52C52.8012 21.1371 48.6158 22.383 45.31 25C42.0581 27.7439 39.9647 31.6164 39.45 35.84C39.1461 38.2197 39.1831 40.6307 39.56 43C39.9696 45.4187 40.6401 47.7858 41.56 50.06C43.6113 54.6998 46.2314 59.0666 49.36 63.06C51 65.24 52.71 67.38 54.47 69.51L59.41 75.44C59.57 75.62 59.7 75.82 59.87 75.98C60.04 76.14 60.33 75.92 60.54 75.84C60.75 75.76 61.09 75.53 61.36 75.36L62.84 74.36C63.84 73.68 64.9 72.99 65.97 72.36C66.5 72.03 67.05 71.7 67.6 71.36L68.48 70.88C68.82 70.7 69.11 70.54 69.54 70.34C71.0297 69.5984 72.6097 69.0538 74.24 68.72C75.6136 68.4504 77.0264 68.4504 78.4 68.72C79.7001 68.9538 80.905 69.558 81.87 70.46C82.1108 70.6909 82.29 70.9784 82.3913 71.2963C82.4926 71.6141 82.5128 71.9523 82.45 72.28C82.3049 72.8097 82.0455 73.3013 81.69 73.72C80.8964 74.7159 79.9595 75.5887 78.91 76.31C77.91 77.01 76.74 77.71 75.58 78.41L73.89 79.41L73.25 79.83L72.7 80.21C71.9888 80.6963 71.3198 81.2416 70.7 81.84C70.183 82.3047 69.7706 82.8739 69.49 83.51L69.43 83.69L67.99 83.22C67.9791 83.2147 67.9671 83.2119 67.955 83.2119C67.9429 83.2119 67.9309 83.2147 67.92 83.22C67.92 83.22 67.92 83.22 67.92 83.15L68 82.99C68.04 82.8846 68.0604 82.7727 68.06 82.66C68.1172 82.3298 68.144 81.9951 68.14 81.66H68.35C68.7 81.6 69.13 81.49 69.55 81.38L72.2 80.64C74.71 79.96 78.09 79.02 80.26 79.2C80.857 79.2317 81.448 79.3358 82.02 79.51C82.558 79.7005 83.049 80.004 83.46 80.4C83.6168 80.6544 83.7348 80.9307 83.81 81.22C83.849 81.4517 83.849 81.6883 83.81 81.92C83.7239 82.5417 83.5311 83.1439 83.24 83.7C82.8906 84.3655 82.4533 84.981 81.94 85.53C80.8453 86.5974 79.6683 87.5771 78.42 88.46L77.75 88.96C77.59 89.089 77.4231 89.2092 77.25 89.32C77.02 89.45 76.81 89.56 76.61 89.65C76.2376 89.8128 75.8531 89.9465 75.46 90.05C75.1003 90.185 74.7631 90.3738 74.46 90.61C74.22 90.77 73.99 90.76 73.81 90.4C73.6101 89.8406 73.6101 89.2293 73.81 88.67C73.9299 88.287 74.0838 87.9155 74.27 87.56C74.3651 87.3605 74.4719 87.1668 74.59 86.98L74.68 86.83C74.68 86.83 74.68 86.83 74.68 86.76V86.64C74.7888 86.3649 74.9227 86.1005 75.08 85.85C75.178 85.7051 75.2618 85.5511 75.33 85.39C75.3404 85.3271 75.3404 85.2629 75.33 85.2C75.3343 85.1774 75.3337 85.1542 75.3283 85.1319C75.3229 85.1096 75.3127 85.0887 75.2984 85.0707C75.2842 85.0527 75.2663 85.0379 75.2458 85.0274C75.2254 85.017 75.2029 85.011 75.18 85.01C74.7974 85.0034 74.4192 85.0928 74.08 85.27L73.72 85.43L73.58 85.51H73.52L73.37 85.57L71.21 86.15C70.3521 86.3842 69.4804 86.5645 68.6 86.69H68.06H67.62C67.3867 86.6779 67.1554 86.641 66.93 86.58C66.7388 86.5351 66.5515 86.475 66.37 86.4L66.08 86.27C65.8397 86.135 65.6151 85.9741 65.41 85.79C64.9891 85.4228 64.6676 84.9554 64.4753 84.431C64.2831 83.9066 64.2262 83.3422 64.31 82.79C64.31 82.66 64.31 82.52 64.37 82.4C64.43 82.28 64.46 82.1 64.45 82.14V82.08V81.96L64.55 81.71C64.6597 81.3999 64.8004 81.1018 64.97 80.82C65.1067 80.5495 65.2673 80.2918 65.45 80.05C66.0413 79.2119 66.7369 78.4525 67.52 77.79C68.22 77.19 68.91 76.66 69.6 76.17L70.6 75.53L70.89 75.33L70.63 75.47L70.21 75.7C69.85 75.9 69.49 76.12 69.13 76.33C67.69 77.21 66.26 78.19 64.71 79.22L64.12 79.61L63.63 79.93L63.06 80.28C62.3326 80.7431 61.5498 81.1127 60.73 81.38C59.9675 81.5899 59.1625 81.5899 58.4 81.38C58.2143 81.3361 58.0425 81.2468 57.9 81.12L57.42 80.79L56.42 80.13L49.32 71.73L49.66 71.61Z" fill="currentColor"/>
<path d="M58.86 48.81C59.7286 49.3734 60.5217 50.0455 61.22 50.81L61.65 51.28V51.37L61.76 51.57L62.04 52.08C62.09 52.15 62.16 52.36 62.24 52.28C62.2882 52.2241 62.3255 52.1597 62.35 52.09C62.44 51.86 62.41 51.51 62.53 51.27C62.53 51.27 62.53 51.27 62.53 51.16L62.64 50.76L62.9 49.88L63.06 49.39L63.32 48.77C63.5061 48.3389 63.7338 47.9269 64 47.54C64.4379 46.8322 65.0648 46.2608 65.81 45.89C66.5485 45.5392 67.3846 45.451 68.18 45.64C68.9856 45.8203 69.7365 46.1906 70.37 46.72C70.6877 46.9911 70.9914 47.2781 71.28 47.58C71.52 47.89 71.71 48.22 71.92 48.58C72.5252 49.6995 72.8928 50.9319 73 52.2C73.07 52.73 73.07 53.2 73.12 53.74C73.17 54.28 73.12 54.74 73.12 55.24C73.131 56.2048 73.0909 57.1695 73 58.13C72.88 59.35 72.73 60.55 72.54 61.73C72.44 62.32 72.14 62.88 72.03 63.46C71.92 64.04 71.78 64.62 71.68 65.2C71.58 65.78 71.22 65.83 70.84 65.2C70.5968 64.7696 70.4022 64.3134 70.26 63.84C70.15 63.55 70.11 63.25 70 62.92C69.8604 62.594 69.7402 62.2601 69.64 61.92C69.5 60.67 69.53 59.48 69.45 58.3L69.34 56.57C69.34 56.01 69.34 55.45 69.26 54.91C69.2109 53.9249 69.0498 52.9486 68.78 52C68.7347 51.7999 68.6676 51.6054 68.58 51.42C68.51 51.28 68.43 51.03 68.39 50.97C68.27 50.73 68.25 50.6 68.17 50.44C68.1197 50.336 68.0437 50.2465 67.9492 50.1801C67.8547 50.1136 67.7449 50.0722 67.63 50.06C67.5162 50.0801 67.4092 50.1281 67.3184 50.1996C67.2277 50.2712 67.1561 50.364 67.11 50.47C67.053 50.5788 67.0061 50.6926 66.97 50.81C66.9 51 66.79 51.32 66.7 51.64L66.55 52.16L66.33 53.06L65.94 54.87C65.7705 55.9212 65.3636 56.9198 64.75 57.79C64.6336 57.9327 64.5066 58.0665 64.37 58.19C64.2199 58.3333 64.0384 58.4394 63.84 58.5C63.6699 58.5301 63.4947 58.4944 63.35 58.4C63.21 58.32 63.1 58.29 62.93 58.18L62.44 57.88L61.86 57.43L61.71 57.32L61.55 57.11L61.24 56.69L60.62 55.86L60 55L59.36 54.26C59.25 54.14 59.15 54.01 59.03 53.9L58.82 53.67C58.68 53.54 58.56 53.39 58.42 53.27C57.9027 52.7535 57.3049 52.3245 56.65 52C56.4184 51.8942 56.1588 51.8661 55.91 51.92C55.6644 52.0021 55.4486 52.1553 55.29 52.36C55.0384 52.7063 54.9276 53.1352 54.98 53.56C55.0289 54.2088 55.1773 54.8463 55.42 55.45C55.9523 56.8003 56.6547 58.0773 57.51 59.25C58.9107 61.0621 60.4812 62.7363 62.2 64.25C62.57 64.6 62.96 64.91 63.32 65.25C64.68 66.56 64.94 67.11 64.59 68.1C64.5254 68.3273 64.4486 68.5509 64.36 68.77C64.01 69.45 62.98 69.36 61.78 68.49C58.0653 65.7418 54.943 62.2727 52.6 58.29C52.1019 57.4193 51.6996 56.4973 51.4 55.54C51.2388 54.9772 51.125 54.4018 51.06 53.82C51.0338 53.4371 51.0338 53.0529 51.06 52.67C51.0926 52.2652 51.1732 51.8658 51.3 51.48C51.3545 51.286 51.4213 51.0956 51.5 50.91L51.79 50.38C51.9818 50.0219 52.2133 49.6865 52.48 49.38C52.76 49.12 53.06 48.86 53.37 48.62C53.6892 48.4122 54.0235 48.2283 54.37 48.07C55.1259 47.8463 55.9207 47.7859 56.7017 47.8928C57.4827 47.9997 58.232 48.2714 58.9 48.69L58.86 48.81Z" fill="currentColor"/>
<path d="M31.2 24.72C31.51 24.72 31.42 25.15 31.08 25.82C30.906 26.1273 30.6752 26.3988 30.4 26.62C30.199 26.7005 29.9916 26.7641 29.78 26.81C29.68 26.81 28.49 26.42 28.05 26.33C27.6551 26.2252 27.2801 26.0563 26.94 25.83C26.24 25.41 25.51 25.02 24.79 24.61C24.6266 24.5199 24.4863 24.3933 24.38 24.24C23.9815 23.7315 23.4577 23.3352 22.86 23.09C22.8114 23.0514 22.7538 23.0257 22.6927 23.0153C22.6315 23.0048 22.5687 23.0098 22.51 23.03C21.8025 22.8702 21.1502 22.525 20.62 22.03C20.34 21.44 19.99 20.95 19.67 20.41C19.62 20.34 19.53 20.33 19.56 20.15C19.64 19.75 19.47 19.69 19.35 19.55C19.1675 19.3363 19.0465 19.0771 19 18.8C18.9737 18.6142 18.9737 18.4257 19 18.24C19 18.07 19.29 17.79 19.35 17.77C19.41 17.75 19.57 17.52 19.67 17.38C19.7009 17.326 19.7378 17.2757 19.78 17.23C19.78 17.23 20.26 17.17 20.78 17.08C21.1115 17.0303 21.4485 17.0303 21.78 17.08L22.09 17.21L22.76 17.47L23.91 17.88C24.02 17.88 24.06 18.06 24.13 18.18C24.2 18.3 25.61 18.9 25.66 18.95C25.9 19.18 26.25 19.26 26.33 19.73C26.33 19.82 26.41 19.84 26.47 19.88C26.9107 20.2072 27.3132 20.5829 27.67 21C27.88 21.2 28.15 21.34 28.38 21.52C28.38 21.52 28.44 21.62 28.47 21.67C28.5 21.72 28.54 21.81 28.6 21.84C29.1316 22.2996 29.6928 22.7238 30.28 23.11C30.43 23.19 30.84 23.96 31.01 24.04C31.18 24.12 31.08 24.73 31.2 24.72Z" fill="currentColor"/>
<path d="M38.45 17.43C38.68 17.63 38.3 17.86 37.58 18.06C37.2515 18.1296 36.915 18.1532 36.58 18.13C36.37 18.03 36.17 17.94 36.02 17.85C35.87 17.76 35.41 16.85 35.17 16.5C34.9634 16.1964 34.8142 15.8574 34.73 15.5C34.53 14.81 34.28 14.13 34.04 13.42C34.0046 13.2552 34.0046 13.0848 34.04 12.92C34.1056 12.3352 33.9978 11.744 33.73 11.22C33.73 11.13 33.73 11.03 33.52 10.97C33.1197 10.4227 32.8932 9.76767 32.87 9.09C33.07 8.5 33.17 7.93 33.32 7.36C33.32 7.28 33.32 7.21 33.42 7.11C33.5231 7.06778 33.6078 6.9903 33.6591 6.8914C33.7104 6.79249 33.7249 6.67859 33.7 6.57C33.7217 6.30819 33.8113 6.05657 33.96 5.84C34.0753 5.70203 34.2062 5.57787 34.35 5.47C34.5321 5.38945 34.734 5.36508 34.93 5.4C35.08 5.49 35.27 5.4 35.44 5.4H35.62C35.62 5.4 36 5.67 36.4 5.92C36.648 6.08294 36.8704 6.28177 37.06 6.51C37.06 6.51 37.11 6.62 37.18 6.78L37.47 7.35C37.68 7.77 37.95 8.19 37.99 8.29C38.03 8.39 37.99 8.49999 37.99 8.60999C37.99 8.71999 38.55 9.98 38.56 10.04C38.56 10.34 38.77 10.6 38.51 10.97C38.4951 10.9977 38.4873 11.0286 38.4873 11.06C38.4873 11.0914 38.4951 11.1223 38.51 11.15C38.6328 11.6674 38.6899 12.1983 38.68 12.73C38.7146 12.996 38.7646 13.2598 38.83 13.52C38.8396 13.5729 38.8396 13.6271 38.83 13.68C38.8111 13.7453 38.8111 13.8147 38.83 13.88C38.9033 14.5317 39.0101 15.1792 39.15 15.82C39.2 15.97 38.94 16.75 39.01 16.92C39.08 17.09 38.37 17.36 38.45 17.43Z" fill="currentColor"/>
<path d="M29.31 34.86C29.61 34.7 29.79 35.13 29.86 35.86C29.8572 36.202 29.7928 36.5408 29.67 36.86C29.51 37.04 29.36 37.22 29.22 37.35C28.6328 37.5338 28.0554 37.7475 27.49 37.99C27.1085 38.1627 26.7045 38.2805 26.29 38.34C25.47 38.51 24.65 38.74 23.8 38.97C23.6053 39.0099 23.4046 39.0099 23.21 38.97C22.5401 38.8474 21.8496 38.906 21.21 39.14C21.09 39.14 20.97 39.14 20.89 39.34C20.187 39.7146 19.4063 39.9201 18.61 39.94C17.93 39.73 17.26 39.63 16.61 39.48C16.52 39.48 16.43 39.48 16.32 39.36C16.08 38.99 15.89 39.08 15.69 39.06C15.3919 39.0063 15.1025 38.9121 14.83 38.78C14.6678 38.6685 14.5229 38.5338 14.4 38.38C14.27 38.25 14.31 37.79 14.34 37.73C14.37 37.67 14.34 37.35 14.34 37.16C14.34 36.97 14.34 37.01 14.34 36.95C14.5537 36.6886 14.7807 36.4382 15.02 36.2C15.2282 35.9165 15.4856 35.6726 15.78 35.48L16.12 35.36L16.84 35.08L18 34.59C18.11 34.53 18.26 34.59 18.39 34.59C18.52 34.59 20.11 33.96 20.19 33.96C20.56 33.96 20.9 33.73 21.33 34.01C21.41 34.07 21.48 34.01 21.56 34.01C22.2161 33.8646 22.8912 33.8241 23.56 33.89C23.9 33.89 24.23 33.84 24.56 33.83C24.62 33.83 24.69 33.83 24.75 33.89C24.8281 33.917 24.9084 33.9371 24.99 33.95C25.81 33.88 26.63 34.04 27.46 33.95C27.66 33.95 28.57 34.35 28.79 34.34C29.01 34.33 29.2 34.92 29.31 34.86Z" fill="currentColor"/>
</svg>
