<svg width="96" height="96" viewBox="0 0 96 96" fill="none" xmlns="http://www.w3.org/2000/svg">
<path d="M55.38 79C56.2722 73.5858 56.7834 68.1157 56.91 62.63C56.773 59.4046 56.2595 56.2062 55.38 53.1C54.38 48.69 51.38 46.04 46.78 46.28C42.18 46.52 37.63 52.47 37.59 52.53C38.92 50.77 41.95 50.22 44.03 50.33C50.71 50.69 53.03 58.1 53.78 63.66C54.5313 68.624 54.6757 73.6611 54.21 78.66L55.38 79Z" fill="currentColor"/>
<path d="M69.51 46.3C69.51 46.3 71.92 36.51 71.85 28.79C71.85 25.71 70.26 20.27 69.99 19.02C68.99 14.6 65.77 12.19 61.12 12.44C56.47 12.69 52 18.62 51.93 18.69C53.26 16.93 56.29 16.37 58.37 16.49C65.05 16.85 67.37 24.26 68.12 29.82C68.8243 34.8969 68.925 40.0394 68.42 45.14L69.51 46.3Z" fill="currentColor"/>
<path d="M52.1 56.26C51.8907 54.5858 51.488 52.9415 50.9 51.36C50.6361 50.6862 50.3008 50.0425 49.9 49.44C49.5955 48.9846 49.2007 48.5965 48.74 48.3L48.52 48.17L48.22 48.08C48.0238 48.0249 47.823 47.9881 47.62 47.97C47.2134 47.9358 46.8044 47.9459 46.4 48C44.82 48.24 42.85 49.59 41.1 51.2C39.2878 52.8955 37.5654 54.6846 35.94 56.56C34.45 58.27 33 60 31.57 61.76C29.8058 64.1002 27.7414 66.1982 25.43 68C24.67 68.53 24.21 67.85 24.16 66.72C24.1117 65.282 24.5562 63.8707 25.42 62.72C27.2 60.51 28.91 58.22 30.68 55.93C32.5208 53.5832 34.5011 51.3492 36.61 49.24C37.94 47.97 39.27 46.58 40.88 45.24C41.7379 44.5489 42.6744 43.9615 43.67 43.49C44.779 42.965 45.9837 42.6724 47.21 42.63C47.8825 42.6222 48.5537 42.6927 49.21 42.84C49.5479 42.9119 49.8818 43.0021 50.21 43.11C50.54 43.24 50.88 43.37 51.21 43.52C52.3768 44.1473 53.3989 45.0126 54.21 46.06C55.5806 47.8817 56.5981 49.9439 57.21 52.14C57.9317 54.6235 58.4271 57.1672 58.69 59.74C58.9614 63.5444 58.9881 67.3622 58.77 71.17C58.64 74.1 58.72 77.02 58.35 79.99C58.28 80.64 58.22 81.3 58.09 81.99C57.55 84.42 56.8 85.08 55.09 84.99C54.7247 84.9838 54.3603 84.9503 54 84.89C52.74 84.61 52.12 83.43 52.2 81.89C52.4 77.16 52.75 72.23 52.71 67.24C52.71 65.4 52.63 63.55 52.49 61.73C52.4321 59.912 52.2685 58.099 52 56.3L52.1 56.26Z" fill="currentColor"/>
<path d="M66.87 22.11C66.6607 20.4358 66.258 18.7915 65.67 17.21C65.4042 16.537 65.069 15.8936 64.67 15.29C64.3627 14.8369 63.9684 14.4494 63.51 14.15L63.29 14L63 13.93C62.8004 13.8749 62.5962 13.8381 62.39 13.82C61.9843 13.7807 61.5757 13.7807 61.17 13.82C59.61 14.04 57.64 15.41 55.9 17.02C54.16 18.63 52.43 20.52 50.75 22.4C49.26 24.09 47.83 25.86 46.37 27.58C44.5944 29.8989 42.5274 31.9794 40.22 33.77C39.46 34.3 39 33.62 38.95 32.49C38.9013 31.0504 39.3498 29.6379 40.22 28.49C42.01 26.28 43.72 24 45.49 21.71C47.3323 19.3735 49.3054 17.1433 51.4 15.03C52.73 13.75 54.04 12.35 55.66 11.03C56.5144 10.3286 57.4514 9.73415 58.45 9.26C60.189 8.46893 62.1427 8.28237 64 8.73C64.32 8.81 64.63 8.88 65 8.99C65.37 9.1 65.67 9.26 66 9.41C67.1717 10.0518 68.1941 10.9345 69 12C70.3738 13.8197 71.3917 15.8825 72 18.08C72.7251 20.5621 73.2173 23.1065 73.47 25.68C73.7497 29.4839 73.7798 33.3021 73.56 37.11C73.43 40.04 73.56 42.96 73.14 45.93C73.07 46.58 73.01 47.24 72.88 47.93C72.33 50.37 71.59 51.02 69.88 50.93C69.4916 50.9307 69.1037 50.9006 68.72 50.84C67.46 50.57 66.84 49.38 66.92 47.84C67.12 43.1 67.47 38.17 67.43 33.18C67.43 31.34 67.35 29.49 67.21 27.67C67.1254 25.8646 66.9418 24.0653 66.66 22.28L66.87 22.11Z" fill="currentColor"/>
</svg>
