<svg width="96" height="96" viewBox="0 0 96 96" fill="none" xmlns="http://www.w3.org/2000/svg">
<path d="M45.42 65.59C49.0824 65.1211 52.6239 63.9678 55.86 62.19C59.0609 60.5488 61.8084 58.1447 63.86 55.19C64.7442 53.8135 65.3175 52.2608 65.54 50.64C65.635 49.8529 65.635 49.0572 65.54 48.27C65.4519 47.4749 65.2707 46.6928 65 45.94C64.8162 45.3227 64.5037 44.7514 64.0832 44.2636C63.6626 43.7758 63.1435 43.3827 62.56 43.11C61.2215 42.6462 59.762 42.671 58.44 43.18C56.0789 44.0271 54.0009 45.5163 52.44 47.48C50.7318 49.5555 49.3432 51.8744 48.32 54.36C47.8448 55.4575 47.4472 56.5869 47.13 57.74C46.8315 58.8837 46.6109 60.0464 46.47 61.22C46.2016 63.5893 46.2858 65.9854 46.72 68.33C46.92 69.45 47.2559 70.5413 47.72 71.58C47.945 72.0698 48.2022 72.5442 48.49 73C48.7898 73.4268 49.1243 73.8282 49.49 74.2C49.8356 74.5707 50.2175 74.9057 50.63 75.2C51.11 75.46 51.63 75.77 52.07 76.01C52.51 76.25 53.07 76.47 53.64 76.62C54.1858 76.7828 54.7399 76.9163 55.3 77.02C59.89 77.82 64.97 76.59 69.42 74.43C73.9636 72.3198 77.7883 68.9228 80.42 64.66C82.8541 60.8601 84.4748 56.5972 85.18 52.14C85.9811 47.7591 85.4805 43.2394 83.74 39.14C82.5552 36.612 80.7234 34.4421 78.43 32.85C76.0893 31.2389 73.4459 30.1197 70.66 29.56C64.9758 28.3953 59.0771 28.8811 53.66 30.96C51.98 31.63 51.24 31.96 51.19 31.73C51.14 31.5 51.81 30.88 53.19 30C55.1012 28.8189 57.1678 27.9101 59.33 27.3C62.4784 26.3951 65.767 26.0798 69.03 26.37C72.3146 26.6654 75.5139 27.5781 78.46 29.06C81.5082 30.6322 84.0934 32.9727 85.96 35.85C87.7401 38.7633 88.8216 42.049 89.12 45.45C89.4164 48.7424 89.2073 52.0608 88.5 55.29C87.1518 61.7709 84.0129 67.7438 79.44 72.53C77.0832 74.8999 74.3451 76.8571 71.34 78.32C68.3718 79.8217 65.1808 80.8347 61.89 81.32C59.8594 81.6427 57.7954 81.6998 55.75 81.49C53.6105 81.2767 51.5289 80.6698 49.61 79.7C49.13 79.44 48.61 79.19 48.17 78.9C47.73 78.61 47.17 78.22 46.78 77.84C45.9336 77.0702 45.1877 76.1966 44.56 75.24C43.4055 73.3985 42.5862 71.3672 42.14 69.24C41.2699 65.1929 41.2699 61.0071 42.14 56.96C43.032 52.9485 44.7334 49.1612 47.14 45.83C48.4763 43.9944 50.0769 42.3667 51.89 41C53.8155 39.5438 56.0327 38.5205 58.39 38C59.6603 37.742 60.9644 37.6947 62.25 37.86C63.622 38.0456 64.9326 38.5452 66.08 39.32C67.1958 40.1113 68.1271 41.1348 68.81 42.32C69.4419 43.3994 69.9135 44.5649 70.21 45.78C70.7702 48.1304 70.7702 50.5796 70.21 52.93C69.6305 55.2056 68.6114 57.3458 67.21 59.23C64.4679 62.7591 60.9414 65.6009 56.91 67.53C54.502 68.7448 51.9619 69.6776 49.34 70.31C46.6685 71.001 43.9021 71.2509 41.15 71.05C38.3815 70.8007 35.6759 70.0803 33.15 68.92C30.6465 67.7032 28.3888 66.0353 26.49 64C23.6273 60.9367 21.6053 57.1853 20.62 53.11C19.1312 47.0296 19.8396 40.6187 22.62 35.01L23.36 33.65L24.17 32.34C24.7683 31.4667 25.4372 30.644 26.17 29.88C27.5725 28.3064 29.2082 26.9573 31.02 25.88C31.5467 25.5834 32.1075 25.3517 32.69 25.19C33.4144 24.9758 34.1807 24.9448 34.92 25.1C35.751 25.3138 36.4845 25.804 37 26.49C37.2253 26.7697 37.4167 27.0752 37.57 27.4C37.63 27.55 37.7 27.69 37.77 27.86C37.84 28.03 37.89 28.25 37.93 28.45C38.0982 29.4552 38.0122 30.4865 37.68 31.45C37.4132 32.2503 37.0786 33.0265 36.68 33.77C35.9434 35.1881 35.0656 36.5282 34.06 37.77C32.1286 40.4139 29.5863 42.5513 26.65 44C25.8252 44.3626 24.9586 44.6213 24.07 44.77C23.61 44.8435 23.1457 44.8869 22.68 44.9C22.24 44.9 21.87 44.9 21.46 44.9C19.8072 44.8713 18.1645 44.6361 16.57 44.2C14.8297 43.7596 13.1961 42.9729 11.7666 41.8871C10.3371 40.8012 9.14108 39.4384 8.25 37.88C6.74062 35.1353 6.10234 31.9962 6.42 28.88C6.61191 26.4999 7.29277 24.185 8.42 22.08C9.17975 20.6234 10.196 19.3158 11.42 18.22C12.2399 17.4709 13.2121 16.908 14.27 16.57C15.0455 16.37 15.8568 16.3529 16.64 16.52C17.22 16.5956 17.7839 16.7645 18.31 17.02C18.6 17.23 18.58 17.49 18.31 17.85C18.1722 18.0583 18.0184 18.2556 17.85 18.44C17.67 18.69 17.44 18.93 17.2 19.24C16.76 19.89 16.15 20.55 15.52 21.43C14.7859 22.4724 14.1689 23.5925 13.68 24.77C12.8424 26.7333 12.4464 28.8567 12.52 30.99C12.5452 32.8813 13.2195 34.7066 14.43 36.16C15.7336 37.5411 17.4622 38.4459 19.34 38.73C19.8724 38.8339 20.4098 38.9107 20.95 38.96C21.49 38.96 22.12 39.02 22.61 39.04C23.4498 39.0006 24.2685 38.7642 25 38.35C26.9348 37.266 28.6345 35.8076 30 34.06C30.72 33.1806 31.3624 32.2404 31.92 31.25C32.1624 30.8277 32.3698 30.3862 32.54 29.93C32.5716 29.8449 32.5983 29.7581 32.62 29.67C32.6484 29.6062 32.6686 29.539 32.68 29.47C32.8 29.33 32.38 29.34 33.34 29.35C33.4978 29.3399 33.6547 29.3198 33.81 29.29C33.95 29.29 34 29.29 34.11 29.24H34.25H34.32L32.77 29.83L32.87 29.78C33.0206 29.7137 33.1646 29.6334 33.3 29.54L33.5 29.39L33.65 29.29C33.7449 29.2157 33.8351 29.1355 33.92 29.05C34.16 28.84 34.2 28.65 34.15 28.81C34.059 29.2183 34.059 29.6417 34.15 30.05C34.15 30.17 34.15 30.42 34.24 30.58L34.12 30.64C33.9722 30.7118 33.8287 30.7919 33.69 30.88C33.2829 31.149 32.8952 31.4464 32.53 31.77C31.6614 32.541 30.8524 33.3768 30.11 34.27C29.7764 34.6606 29.4627 35.0678 29.17 35.49C28.89 36 28.55 36.49 28.3 37.01C26.6373 40.0633 25.7383 43.4738 25.68 46.95C25.6062 50.4429 26.4584 53.8931 28.15 56.95C29.8068 59.9531 32.325 62.3912 35.38 63.95C36.9307 64.7179 38.5846 65.2568 40.29 65.55L41.59 65.73C42.01 65.73 42.4 65.81 42.83 65.81C43.7022 65.8222 44.5741 65.7754 45.44 65.67L45.42 65.59Z" fill="currentColor"/>
</svg>
