<svg width="96" height="96" viewBox="0 0 96 96" fill="none" xmlns="http://www.w3.org/2000/svg">
<path d="M76.06 71.76C73.4854 74.2557 70.5195 76.3129 67.28 77.85C64.1163 79.3287 60.7806 80.407 57.35 81.06C54.9073 81.5787 52.4251 81.8898 49.93 81.99C41.1532 82.192 32.5122 79.7986 25.09 75.11C21.8012 73.0235 18.8618 70.4317 16.38 67.43C14.7695 65.4975 13.4243 63.3586 12.38 61.07C11.4632 58.7317 10.995 56.2416 11 53.73C11 52.18 12.07 52.33 13.4 53.32C15.0887 54.6245 16.5428 56.2071 17.7 58C19.3977 61.7172 21.9096 65.005 25.05 67.62C28.3332 70.3859 32.0496 72.5921 36.05 74.15C40.98 76.15 46.73 76.39 52.13 75.91C58.1043 75.5176 63.8518 73.4713 68.73 70C71.6891 67.813 74.1841 65.0596 76.07 61.9C78.9907 56.9747 80.7646 51.4547 81.26 45.75C81.565 41.347 81.2689 36.9231 80.38 32.6C80.2 31.65 79.95 30.73 79.77 29.78C79.33 26.22 79.44 25.04 80.92 23.86C81.1908 23.5924 81.4781 23.342 81.78 23.11C82.62 22.51 84.39 23.68 85.41 26.42C86.2251 28.4575 86.8055 30.5812 87.14 32.75C87.5227 34.9616 87.7533 37.1968 87.83 39.44C87.9889 44.0739 87.5077 48.7076 86.4 53.21C84.7668 60.2479 81.2274 66.7004 76.17 71.86L76.06 71.76Z" fill="currentColor"/>
<path d="M30.34 26.24C30.71 29.48 32.72 33.57 35.83 35C37.17 35.62 39.16 35.23 39.5 33.51C39.9603 30.4784 39.3409 27.3814 37.75 24.76C37.1118 23.5042 36.1657 22.4307 35 21.64C34.5794 21.4199 34.1138 21.2996 33.6393 21.2885C33.1648 21.2774 32.6941 21.3757 32.2637 21.5759C31.8333 21.7761 31.4549 22.0728 31.1577 22.4429C30.8605 22.813 30.6525 23.2465 30.55 23.71C29.65 26.8 34.47 28.12 35.37 25.03L35.48 24.63L34.33 26.13L33.74 26.3L32 25.57C33.69 26.92 35.13 29.98 34.7 32.18L38.37 30.68C37.5839 30.1947 36.91 29.5479 36.3928 28.7824C35.8756 28.017 35.5269 27.1504 35.37 26.24C35.3499 25.5833 35.0801 24.959 34.6155 24.4945C34.1509 24.0299 33.5266 23.7601 32.87 23.74C32.2085 23.7452 31.5757 24.0103 31.108 24.478C30.6403 24.9457 30.3752 25.5786 30.37 26.24H30.34Z" fill="currentColor"/>
<path d="M45.48 19.55C45.86 22.86 47.94 27.28 51.12 28.77C52.46 29.39 54.46 28.99 54.79 27.27C55.2354 24.1118 54.5747 20.8967 52.92 18.17C52.2805 16.8924 51.3231 15.8008 50.14 15C49.7242 14.7795 49.2635 14.657 48.7931 14.6416C48.3227 14.6263 47.8551 14.7186 47.4258 14.9116C46.9965 15.1045 46.617 15.3929 46.3162 15.7549C46.0153 16.1168 45.8011 16.5427 45.69 17C44.79 20.1 49.62 21.42 50.51 18.33L50.63 17.93L49.48 19.43L48.88 19.6L47.11 18.87C48.87 20.28 50.41 23.65 49.97 25.93L53.64 24.44C52.12 23.73 50.64 21.18 50.48 19.54C50.12 16.38 45.11 16.34 45.48 19.54V19.55Z" fill="currentColor"/>
</svg>
