<svg width="96" height="96" viewBox="0 0 96 96" fill="none" xmlns="http://www.w3.org/2000/svg">
<path d="M34.83 20.2C34.6509 19.8119 34.4075 19.4569 34.11 19.15C33.9863 19.0421 33.856 18.9419 33.72 18.85C33.2683 18.4494 32.7635 18.1129 32.22 17.85C31.9714 17.745 31.7085 17.6776 31.44 17.65C31.13 17.65 30.76 17.73 30.72 17.59C30.504 17.4226 30.3522 17.1861 30.29 16.92C30.2554 16.7194 30.2966 16.5131 30.4056 16.3412C30.5147 16.1693 30.6838 16.0441 30.88 15.99C31.8073 15.9316 32.7252 16.2045 33.47 16.76C33.89 17.07 34.39 17.23 34.83 17.54C35.31 17.8713 35.7409 18.2685 36.11 18.72C36.7206 19.4453 37.1217 20.3235 37.27 21.26C37.3935 21.711 37.4706 22.1734 37.5 22.64C37.5 22.74 37.5 22.85 37.5 22.95C37.43 23.33 37.23 23.39 36.64 23.23C36.5043 23.2026 36.3706 23.1658 36.24 23.12C35.8922 23.032 35.5894 22.8183 35.39 22.52C35.2071 22.1136 35.1052 21.6754 35.09 21.23C35.0547 20.8793 34.9493 20.5392 34.78 20.23L34.83 20.2Z" fill="currentColor"/>
<path d="M12.76 42.54C13.2589 42.8857 13.8137 43.1428 14.4 43.3C14.63 43.35 14.85 43.3 15.08 43.3C15.4908 43.3883 15.9099 43.4319 16.33 43.43H16.65H16.98C17.1995 43.4502 17.4205 43.4502 17.64 43.43C18.0075 43.3597 18.3514 43.1981 18.64 42.96C19.0195 42.652 19.377 42.3179 19.71 41.96C19.84 41.84 20.05 41.96 20.26 42.15C20.3973 42.3011 20.4991 42.481 20.5579 42.6765C20.6167 42.8721 20.6311 43.0782 20.6 43.28C20.4119 44.0322 20.0188 44.7173 19.4644 45.2593C18.91 45.8013 18.2162 46.1789 17.46 46.35C16.57 46.35 15.75 46.68 14.89 46.67C13.9556 46.6448 13.0309 46.4727 12.15 46.16C11.5947 45.9657 11.0669 45.7002 10.58 45.37C9.764 44.8466 9.09875 44.1193 8.64999 43.26C8.45262 42.9025 8.28859 42.5276 8.15999 42.14C8.09039 41.7363 8.09039 41.3237 8.15999 40.92C8.16965 40.7503 8.19987 40.5824 8.24999 40.42C8.28626 40.3028 8.3523 40.1969 8.44169 40.1128C8.53107 40.0286 8.64074 39.9691 8.75999 39.94C9.0085 39.8972 9.26392 39.9214 9.49999 40.01L9.90999 40.14C10.3034 40.3341 10.6305 40.6403 10.85 41.02C11.12 41.49 11.36 41.74 11.61 41.77C11.86 41.8 11.76 41.77 11.86 41.88C12.1532 42.1428 12.4922 42.3495 12.86 42.49L12.76 42.54Z" fill="currentColor"/>
<path d="M37.27 63.26C36.7677 63.6147 36.2001 63.8662 35.6 64C35.4004 64.0641 35.1966 64.1142 34.99 64.15C34.6571 64.1726 34.3229 64.1726 33.99 64.15C33.66 64.15 33.32 64.15 32.99 64.1C32.66 64.05 32.37 64.1 32.05 63.98C31.83 63.9603 31.6175 63.8906 31.4286 63.7762C31.2397 63.6618 31.0794 63.5058 30.96 63.32C30.89 63.2 31.12 63.03 31.38 62.88C31.64 62.73 31.9 62.57 32.01 62.6C32.5341 62.7001 33.0664 62.7503 33.6 62.75C33.8119 62.7648 34.0247 62.7446 34.23 62.69L34.77 62.52C35.1556 62.4153 35.5207 62.2463 35.85 62.02C36.0711 61.8924 36.2731 61.7342 36.45 61.55C36.7535 61.2604 37.0069 60.9225 37.2 60.55C37.3174 60.2268 37.3979 59.8913 37.44 59.55C37.4553 59.4755 37.4754 59.402 37.5 59.33C37.61 59.07 37.76 59.05 38.23 59.2L38.55 59.31C38.6979 59.3525 38.832 59.4331 38.9391 59.5436C39.0461 59.6542 39.1223 59.7909 39.16 59.94C39.2031 60.6583 38.9866 61.3681 38.55 61.94C38.2164 62.439 37.8122 62.887 37.35 63.27L37.27 63.26Z" fill="currentColor"/>
<path d="M53.17 45.79C52.9797 46.0344 52.8557 46.3237 52.81 46.63C52.81 46.75 52.87 46.84 52.88 46.96C52.9622 47.5425 53.258 48.0735 53.71 48.45C53.9429 48.6817 54.2092 48.8772 54.5 49.03C54.9379 49.2026 55.3117 49.5065 55.57 49.9C55.65 50.05 55.35 50.38 55 50.68C54.65 50.98 54.23 51.28 54 51.21C53.0477 50.9869 52.2069 50.4299 51.63 49.64C51.1367 49.0866 50.7228 48.4674 50.4 47.8C50.1202 47.0073 50.1202 46.1427 50.4 45.35C50.5478 44.9134 50.7494 44.4969 51 44.11C51.3971 43.5734 51.8608 43.0895 52.38 42.67C52.7327 42.2694 53.1361 41.9164 53.58 41.62C53.687 41.5607 53.7972 41.5073 53.91 41.46C54.35 41.33 54.55 41.46 54.72 42.13C54.766 42.2674 54.8027 42.4077 54.83 42.55C54.9184 42.9302 54.887 43.3284 54.74 43.69C54.6239 43.9755 54.4763 44.2472 54.3 44.5C54.14 44.69 53.97 44.85 53.81 45.02C53.5685 45.2515 53.3629 45.5178 53.2 45.81L53.17 45.79Z" fill="currentColor"/>
<path d="M69 80.78C67.648 80.6477 66.353 80.1689 65.24 79.39C64.7831 79.151 64.3651 78.8442 64 78.48C63.4192 77.8229 62.9861 77.0488 62.73 76.21C62.5976 75.8379 62.507 75.4522 62.46 75.06C62.39 74.67 62.36 74.35 62.3 73.92C62.2651 73.7273 62.2184 73.5369 62.16 73.35C62.16 73.16 62.09 72.99 62.07 72.81C62.0968 72.4633 62.2456 72.1374 62.49 71.89C62.635 71.7063 62.7993 71.5387 62.98 71.39C63.2201 71.2329 63.4746 71.0989 63.74 70.99C64.0113 70.8785 64.2883 70.7817 64.57 70.7C64.7789 70.6701 64.9911 70.6701 65.2 70.7C65.47 70.7 65.69 71.27 65.81 71.92C65.8712 72.2498 65.9014 72.5846 65.9 72.92V73.14V73.26C65.9173 73.2949 65.9373 73.3284 65.96 73.36C65.96 73.36 65.96 73.36 65.86 73.36C65.8373 73.3524 65.8127 73.3524 65.79 73.36V73.54C65.8158 73.7827 65.8158 74.0274 65.79 74.27C65.8347 74.5273 65.9433 74.7692 66.1058 74.9736C66.2683 75.1781 66.4795 75.3384 66.72 75.44C67.2472 75.8004 67.8324 76.0676 68.45 76.23L69.15 76.34H69.88C70.658 76.3435 71.4279 76.1833 72.14 75.87C72.408 75.7228 72.6456 75.526 72.84 75.29C73.02 75.04 73.22 74.82 73.39 74.61C73.4485 74.5111 73.5154 74.4174 73.59 74.33C73.6577 74.2747 73.736 74.2339 73.82 74.21C73.9296 74.2256 74.035 74.263 74.13 74.32C74.4848 74.5287 74.8195 74.7698 75.13 75.04L75.71 75.51C76.0083 75.7267 76.2409 76.0217 76.382 76.3623C76.5232 76.7028 76.5675 77.0758 76.51 77.44C76.2044 78.2654 75.666 78.9845 74.96 79.51C74.2751 79.9609 73.5222 80.2985 72.73 80.51C71.5173 80.8482 70.2564 80.98 69 80.9V80.78Z" fill="currentColor"/>
<path d="M16.63 47.87C14.8594 48.2629 13.0161 48.1766 11.29 47.62C10.6031 47.4261 9.95628 47.1111 9.38 46.69C8.83596 46.2639 8.39259 45.723 8.08147 45.1059C7.77034 44.4889 7.59912 43.8108 7.58 43.12C7.55736 41.9204 7.90668 40.7431 8.58 39.75C9.11121 38.9195 9.76532 38.1744 10.52 37.54C11.0246 37.1161 11.5956 36.7783 12.21 36.54C12.8778 36.3828 13.5783 36.4424 14.21 36.71C14.6 36.89 14.42 37.36 14.12 37.92C13.82 38.48 13.53 39.26 13.33 39.57C12.7616 39.876 12.2561 40.2865 11.84 40.78C11.611 41.0417 11.4099 41.3266 11.24 41.63C11.0502 41.9184 10.8799 42.219 10.73 42.53C10.41 43.31 10.8 43.86 11.55 44.34C12.5635 44.9334 13.7456 45.1726 14.91 45.02C15.6737 44.927 16.415 44.7002 17.1 44.35C17.6076 44.1309 18.0643 43.809 18.4413 43.4045C18.8182 43 19.1072 42.5218 19.29 42C19.3853 41.6158 19.3853 41.2142 19.29 40.83C19.1893 40.5315 19.0012 40.2702 18.75 40.08C18.64 39.98 18.5 39.91 18.37 39.79C17.87 39.33 17.8 38.93 18.47 38.12C18.61 37.93 18.75 37.74 18.91 37.56C19.1135 37.2783 19.4139 37.0817 19.7534 37.0079C20.093 36.934 20.4479 36.9882 20.75 37.16C21.2933 37.5143 21.7537 37.9816 22.1 38.53C22.5115 39.2331 22.7449 40.0261 22.78 40.84C22.8528 42.3152 22.3992 43.7683 21.5 44.94C20.2763 46.463 18.5684 47.5217 16.66 47.94L16.63 47.87Z" fill="currentColor"/>
<path d="M52.6 51.81C51.0253 51.0115 49.7414 49.7381 48.93 48.17C48.58 47.4995 48.3916 46.7564 48.38 46C48.4013 45.3319 48.5685 44.6766 48.87 44.08C49.1617 43.5537 49.5443 43.0831 50 42.69C50.3961 42.3067 50.8358 41.9711 51.31 41.69C51.78 41.4365 52.2808 41.2449 52.8 41.12C53.6852 40.8959 54.5972 40.7949 55.51 40.82C56.1223 40.8338 56.7277 40.9521 57.3 41.17C57.8735 41.4792 58.3223 41.9774 58.57 42.58C58.72 42.96 58.25 43.21 57.65 43.48C57.0888 43.7464 56.5444 44.047 56.02 44.38C55.5126 44.308 54.9975 44.308 54.49 44.38C54.204 44.418 53.9202 44.4714 53.64 44.54C53.3403 44.5849 53.0456 44.6586 52.76 44.76C52.4163 44.8762 52.13 45.1195 51.96 45.44C51.8477 45.6837 51.8028 45.9531 51.83 46.22C51.9073 46.6716 52.0837 47.1004 52.3465 47.4756C52.6093 47.8508 52.952 48.1631 53.35 48.39C53.9102 48.7653 54.5335 49.0363 55.19 49.19C55.6493 49.3303 56.1328 49.3734 56.6097 49.3166C57.0866 49.2597 57.5465 49.1043 57.96 48.86C58.5312 48.3389 58.9554 47.6768 59.19 46.94C59.2113 46.8378 59.2113 46.7323 59.19 46.63C59.19 46.39 59.42 46.31 60.52 46.19L61.28 46.1C62.11 46.01 62.89 46.34 62.9 47.33C62.8796 48.0658 62.6658 48.7832 62.28 49.41C61.9857 49.8752 61.6511 50.3135 61.28 50.72C60.426 51.7417 59.2531 52.4461 57.95 52.72C56.1417 53.0712 54.2677 52.7924 52.64 51.93L52.6 51.81Z" fill="currentColor"/>
<path d="M34.9 22.38C35.53 21.98 35.95 21.59 35.99 20.93C35.99 20.7 35.85 20.45 35.75 20.09C35.5863 19.4641 35.285 18.8826 34.8681 18.3878C34.4511 17.893 33.9291 17.4975 33.34 17.23C33.0858 17.1382 32.8156 17.0988 32.5458 17.1142C32.2759 17.1297 32.012 17.1997 31.77 17.32C31.4385 17.4952 31.1296 17.7101 30.85 17.96C30.58 18.22 30.27 18.37 30 18.6C29.73 18.83 29.33 18.68 28.89 18.21C28.6282 17.909 28.4695 17.5322 28.4371 17.1346C28.4047 16.737 28.5004 16.3394 28.71 16C29.1564 15.462 29.6865 14.9994 30.28 14.63C30.9353 14.2354 31.6692 13.9896 32.43 13.91C33.155 13.841 33.8864 13.9265 34.5759 14.161C35.2654 14.3954 35.8973 14.7734 36.43 15.27C37.6334 16.2438 38.6354 17.4428 39.38 18.8C39.7878 19.6811 39.9634 20.6519 39.89 21.62C39.8108 22.5714 39.5057 23.4902 39 24.3C38.4187 25.1739 37.6712 25.9248 36.8 26.51C36.4848 26.7359 36.1502 26.9334 35.8 27.1C35.4185 27.2943 35.011 27.4324 34.59 27.51C33.7865 27.6686 32.963 27.699 32.15 27.6C30.9369 27.5211 29.7414 27.2685 28.6 26.85C28.3454 26.7587 28.0981 26.6484 27.86 26.52C27.5826 26.2192 27.4337 25.8219 27.4449 25.4128C27.4561 25.0038 27.6266 24.6152 27.92 24.33C28.0428 24.1457 28.1764 23.9687 28.32 23.8C28.8176 23.3115 29.4592 22.9959 30.15 22.9L30.52 22.82L30.71 22.77H30.83L31.32 22.82L32.17 22.91C32.539 22.9489 32.911 22.9489 33.28 22.91H33.49C33.6066 22.9201 33.7239 22.8994 33.83 22.85C34.1882 22.7203 34.5251 22.5384 34.83 22.31L34.9 22.38Z" fill="currentColor"/>
<path d="M83.72 43.28C84.21 43.06 84.55 42.95 84.72 42.53C84.72 42.38 84.63 42.21 84.58 41.92C84.4873 41.4116 84.2833 40.9301 83.9824 40.5099C83.6816 40.0898 83.2914 39.7415 82.84 39.49C82.6514 39.3988 82.4445 39.3514 82.235 39.3514C82.0255 39.3514 81.8186 39.3988 81.63 39.49C81.3671 39.6302 81.122 39.8014 80.9 40C80.6735 40.1702 80.4286 40.3144 80.17 40.43C79.9509 40.4639 79.7268 40.4434 79.5175 40.3701C79.3082 40.2969 79.1202 40.1732 78.97 40.01C78.6903 39.7418 78.5057 39.3897 78.4444 39.007C78.383 38.6244 78.4482 38.2322 78.63 37.89C79.0101 37.3965 79.4738 36.9734 80 36.64C80.6109 36.2808 81.2941 36.0621 82 36C82.6769 35.9256 83.3619 36.0028 84.0054 36.2259C84.6488 36.449 85.2345 36.8125 85.72 37.29C86.7945 38.1881 87.6989 39.272 88.39 40.49C88.7671 41.3054 88.9256 42.2048 88.85 43.1C88.759 43.9557 88.4678 44.7778 88 45.5C87.4707 46.2912 86.7912 46.9707 86 47.5C85.7091 47.7028 85.4013 47.8801 85.08 48.03C84.7276 48.2008 84.3544 48.3252 83.97 48.4C83.2351 48.5403 82.4831 48.5673 81.74 48.48C80.6392 48.4232 79.5502 48.2249 78.5 47.89C78.2656 47.821 78.0379 47.7306 77.82 47.62C77.27 46.83 77.43 46.27 78.07 45.43C78.22 45.24 78.36 45.04 78.51 44.88C79.0349 44.3745 79.6724 44.0009 80.37 43.79L80.71 43.65L80.88 43.58H81H81.4H82.06C82.2681 43.5788 82.4756 43.5587 82.68 43.52C82.68 43.52 82.68 43.61 82.85 43.52C83.1119 43.4574 83.3642 43.3599 83.6 43.23L83.72 43.28Z" fill="currentColor"/>
<path d="M36.71 67.07C35.1935 67.4922 33.5773 67.372 32.14 66.73C31.6251 66.5228 31.1459 66.236 30.72 65.88C29.9731 65.185 29.4656 64.2713 29.27 63.27C29.1057 62.321 29.2791 61.3445 29.76 60.51C30.1274 59.8915 30.5858 59.3319 31.12 58.85C31.4431 58.5324 31.8102 58.263 32.21 58.05C32.6795 57.8016 33.2239 57.734 33.74 57.86C34.12 57.98 33.88 58.53 33.74 59.1C33.6 59.67 33.64 60.27 33.5 60.4C33.1584 60.6995 32.85 61.0348 32.58 61.4C32.4016 61.6322 32.263 61.8924 32.17 62.17C32.05 62.56 32.54 62.85 32.98 63.04C33.437 63.3158 33.962 63.4583 34.4957 63.4512C35.0294 63.4441 35.5505 63.2878 36 63C36.6068 62.637 37.099 62.1102 37.42 61.48C37.497 61.2634 37.497 61.0267 37.42 60.81C37.42 60.61 37.18 60.58 37.24 60.54C37.2356 60.5307 37.2332 60.5204 37.2332 60.51C37.2332 60.4997 37.2356 60.4894 37.24 60.48C37.2551 60.4185 37.2752 60.3583 37.3 60.3L37.36 60.01C37.36 59.81 37.44 59.57 37.53 59.24L37.63 58.82C37.6546 58.7055 37.703 58.5975 37.7718 58.5027C37.8407 58.408 37.9287 58.3288 38.03 58.27C38.3111 58.0679 38.6549 57.9722 39 58C39.7168 58.1413 40.3591 58.5352 40.81 59.11C41.0574 59.3965 41.2293 59.7402 41.31 60.11C41.4032 60.4358 41.4569 60.7715 41.47 61.11C41.5034 62.292 41.1868 63.4574 40.56 64.46C39.6041 65.7193 38.2793 66.6492 36.77 67.12L36.71 67.07Z" fill="currentColor"/>
<path d="M71.42 82.07C69.3635 82.6987 67.1515 82.5855 65.17 81.75C64.4504 81.4802 63.776 81.1026 63.17 80.63C62.1184 79.7198 61.386 78.4968 61.08 77.14C60.8168 75.8349 61.0222 74.4787 61.66 73.31C62.1685 72.4104 62.8204 71.5997 63.59 70.91C64.0643 70.4622 64.5955 70.0789 65.17 69.77C65.8206 69.4281 66.5674 69.3154 67.29 69.45C67.8 69.58 67.53 70.17 67.29 70.78C67.05 71.39 66.94 72.06 66.61 72.28C65.9349 72.7553 65.3406 73.3361 64.85 74C64.4458 74.5149 64.2023 75.1375 64.15 75.79C64.1485 75.9973 64.1894 76.2027 64.2703 76.3936C64.3511 76.5845 64.4701 76.7568 64.62 76.9C64.9568 77.2182 65.3415 77.4814 65.76 77.68C66.7462 78.2259 67.89 78.4165 69 78.22C69.7457 78.0932 70.4553 77.8066 71.08 77.38C71.5792 77.0507 72.0331 76.6574 72.43 76.21C72.8416 75.7819 73.1795 75.2886 73.43 74.75C73.5781 74.3719 73.6229 73.9612 73.56 73.56C73.56 73.19 73.29 72.99 73.28 72.8C73.27 72.61 73.21 72.65 73.17 72.56C73.0621 72.0423 73.0621 71.5078 73.17 70.99C73.17 70.82 73.17 70.66 73.24 70.51C73.2659 70.3836 73.3235 70.2659 73.4075 70.1679C73.4915 70.0699 73.599 69.995 73.72 69.95C74.1116 69.7718 74.5516 69.7296 74.97 69.83C75.8647 70.0678 76.6471 70.613 77.18 71.37C77.4814 71.7527 77.6871 72.2018 77.78 72.68C77.8751 73.1134 77.9187 73.5565 77.91 74C77.9129 75.5803 77.4541 77.127 76.59 78.45C75.3062 80.1911 73.5138 81.4909 71.46 82.17L71.42 82.07Z" fill="currentColor"/>
<path d="M73.06 26.39C72.427 27.1326 71.6604 27.7499 70.8 28.21C70.0307 28.6299 69.2107 28.9492 68.36 29.16C67.7106 29.3488 67.0361 29.4365 66.36 29.42C65.0459 29.3497 63.7801 28.9006 62.7155 28.127C61.6509 27.3533 60.8328 26.2882 60.36 25.06C60.1839 24.6386 60.0694 24.1941 60.02 23.74C59.9562 23.1558 60.0071 22.5647 60.17 22C60.2997 21.3854 60.6569 20.8424 61.17 20.48C61.54 20.26 61.7 20.71 61.86 21.19C62.02 21.67 62.36 22.12 62.36 22.41C62.3515 23.0036 62.5147 23.587 62.83 24.09C63.1531 24.6178 63.57 25.0821 64.06 25.46C64.4128 25.677 64.8097 25.8121 65.2216 25.8553C65.6335 25.8986 66.0499 25.8489 66.44 25.71C67.3606 25.4852 68.2078 25.0272 68.9 24.38C69.259 24.0712 69.514 23.6592 69.63 23.2C69.6672 22.8854 69.6153 22.5666 69.48 22.28C69.2949 21.8861 69.0169 21.5429 68.67 21.28C68.4029 21.0851 68.0807 20.98 67.75 20.98C67.4517 21.001 67.1566 21.0546 66.87 21.14C66.76 21.14 66.65 21.25 66.56 21.25C66.21 21.3 66.09 20.95 65.72 19.53L65.45 18.53C65.16 17.46 65.35 16.42 66.24 16.03C66.9135 15.7586 67.6339 15.6226 68.36 15.63C69.1106 15.6784 69.8428 15.8828 70.51 16.23C71.7965 16.9323 72.8419 18.0055 73.51 19.31C74.1197 20.4063 74.4236 21.6462 74.39 22.9C74.3131 24.1809 73.8493 25.4083 73.06 26.42V26.39Z" fill="currentColor"/>
</svg>
