<svg width="96" height="96" viewBox="0 0 96 96" fill="none" xmlns="http://www.w3.org/2000/svg">
<path d="M62.85 66.62C63.6488 65.3687 64.2524 64.003 64.64 62.57C65.0833 61.0891 65.276 59.5445 65.21 58C65.1302 56.849 64.9461 55.7077 64.66 54.59C63.7393 50.4203 61.3819 46.7071 58 44.1C56.4709 42.9745 54.7236 42.1809 52.87 41.77C52.2834 41.6286 51.6891 41.5218 51.09 41.45C50.49 41.45 49.88 41.35 49.27 41.36C48.958 41.3673 48.6462 41.3405 48.34 41.28C48.0249 41.2398 47.7076 41.2198 47.39 41.22C47.07 41.22 46.74 41.22 46.39 41.22C46.0735 41.2572 45.7595 41.314 45.45 41.39C44.65 41.53 44.69 41.39 45.28 40.94C45.58 40.72 46.01 40.44 46.54 40.01C47.1505 39.5014 47.8224 39.0713 48.54 38.73C50.0197 38.3597 51.5523 38.248 53.07 38.4C53.8378 38.4523 54.5966 38.5967 55.33 38.83C56.0648 39.0493 56.7832 39.3199 57.48 39.64C60.2209 40.9227 62.5992 42.8679 64.4 45.3C65.4667 46.7387 66.4387 48.2452 67.31 49.81C68.1867 51.4094 68.8587 53.1128 69.31 54.88C70.1061 58.0418 70.086 61.354 69.2516 64.5059C68.4173 67.6578 66.7961 70.5461 64.54 72.9C61.9634 75.5668 58.7327 77.5114 55.17 78.54C52.4389 79.4484 49.5659 79.855 46.69 79.74C46.0418 79.7412 45.3963 79.6572 44.77 79.49C42.44 78.76 41.92 77.92 42.06 76.55C42.0734 76.2405 42.1136 75.9326 42.18 75.63C42.47 74.63 43.57 74.3 44.94 74.29C45.47 74.29 45.94 74.29 46.48 74.21C47.02 74.13 47.48 74.21 47.94 74.21C48.94 74.21 49.87 74.09 50.82 73.96C52.7297 73.6791 54.5848 73.1057 56.32 72.26C56.9676 71.9574 57.5896 71.6029 58.18 71.2C58.48 70.99 58.8 70.81 59.08 70.58L59.93 69.89C61.0256 68.9348 61.9697 67.8188 62.73 66.58L62.85 66.62Z" fill="currentColor"/>
<path d="M66.77 56.62L66.66 55.22L66.44 53.94C66.3608 53.5017 66.2471 53.0704 66.1 52.65C65.997 52.2128 65.8496 51.7872 65.66 51.38C64.9947 49.6762 64.0407 48.0998 62.84 46.72C60.3566 43.8545 56.8801 42.0358 53.11 41.63L51 41.46L48.82 41.61C48.0855 41.6536 47.3561 41.7606 46.64 41.93C45.91 42.08 45.18 42.18 44.45 42.34C43.1573 42.6759 41.8851 43.0866 40.64 43.57L38.79 44.4L37.49 44.99C36.93 45.23 36.35 45.66 35.84 45.89L30.84 47.37L30.22 47.56C30.1264 47.5968 30.0292 47.6236 29.93 47.64C29.8525 47.6267 29.778 47.5996 29.71 47.56C29.367 47.3123 29.1114 46.9622 28.98 46.56C28.6831 45.7909 28.5011 44.9822 28.44 44.16C28.44 43.93 28.44 43.67 28.44 43.43C28.44 43.19 28.38 42.96 28.36 42.72C28.34 42.48 28.36 42.2 28.41 41.93L28.54 41.09C28.74 39.97 28.99 38.85 29.27 37.73C29.63 36.31 30.03 34.91 30.45 33.51C31.3 30.73 32.22 27.99 33.26 25.26C33.96 23.42 34.69 21.57 35.53 19.72C35.939 18.783 36.4101 17.8743 36.94 17C37.5962 15.8289 38.5259 14.8339 39.65 14.1C40.4801 13.7305 41.3817 13.5495 42.29 13.57C42.7419 13.5677 43.1933 13.6012 43.64 13.67C44.02 13.72 44.33 13.77 44.64 13.84C46.2921 14.2017 47.9243 14.6489 49.53 15.18L54.12 16.66L56.37 17.37C57.11 17.64 57.85 17.88 58.59 18.12C60.0692 18.6003 61.5751 18.9943 63.1 19.3C64.95 19.63 64.81 20.3 63.01 21.17C61.7865 21.681 60.4972 22.0176 59.18 22.17C58.3246 22.2836 57.4629 22.3437 56.6 22.35H55.2C54.74 22.27 54.27 22.2 53.79 22.1C51.35 21.58 48.98 20.95 46.73 20.43C45.6883 20.1703 44.6335 19.9667 43.57 19.82L42.93 19.76H42.87C42.87 19.66 42.78 19.89 42.7 20.02L42.43 20.52C42.04 21.23 41.58 22.04 41.17 22.9C40.33 24.62 39.54 26.46 38.79 28.33C38.04 30.2 37.3 32.08 36.62 34L35.62 36.89L35.15 38.34L34.92 39.07C34.8939 39.1351 34.8639 39.1986 34.83 39.26C34.5579 39.8031 34.3948 40.3942 34.35 41C34.35 41.08 34.35 41.19 34.45 41.2C34.55 41.21 34.57 41.15 34.64 41.12L35 41L35.84 40.55C35.9868 40.5113 36.1256 40.447 36.25 40.36L37.72 39.75L39.19 39.14L40.74 38.66C41.74 38.34 42.74 37.92 43.82 37.66L47.01 36.97C48.2 36.81 49.42 36.75 50.63 36.64C51.84 36.53 53.08 36.74 54.3 36.8L56.12 37.15C56.7343 37.2424 57.3398 37.3862 57.93 37.58C59.1341 37.925 60.3027 38.3838 61.42 38.95C63.6764 40.0565 65.7101 41.5683 67.42 43.41C69.1038 45.2539 70.4843 47.3534 71.51 49.63C71.78 50.35 72.06 51.07 72.32 51.79C72.58 52.51 72.72 53.3 72.89 54.05C73.06 54.8 73.14 55.52 73.23 56.27C73.32 57.02 73.37 57.77 73.38 58.52C73.4611 61.5858 72.9624 64.6393 71.91 67.52C71.0812 69.6925 69.9097 71.7181 68.44 73.52C66.9585 75.2999 65.2273 76.8561 63.3 78.14C59.4893 80.6829 55.088 82.2016 50.52 82.55C43.4177 83.1496 36.3324 81.2153 30.52 77.09L28.66 75.64C28.06 75.14 27.51 74.57 26.95 74C26.0873 73.0945 25.3384 72.0871 24.72 71C24.3205 70.2411 24.0085 69.4393 23.79 68.61C23.6271 68.0199 23.6066 67.3996 23.73 66.8C23.9019 66.2589 24.1475 65.744 24.46 65.27C24.6761 64.87 24.92 64.4858 25.19 64.12C25.62 63.66 26.29 63.83 27.39 64.27C27.6856 64.3598 27.9656 64.4947 28.22 64.67C28.48 64.85 28.69 65.07 28.98 65.27C29.588 65.7396 30.1627 66.2509 30.7 66.8C31.19 67.21 31.7 67.6 32.1 68.03C32.5 68.46 33.1 68.8 33.51 69.19C33.9834 69.575 34.4811 69.9291 35 70.25C35.476 70.6131 35.9736 70.9471 36.49 71.25C38.5021 72.531 40.6971 73.4987 43 74.12C47.4865 75.4272 52.2912 75.1012 56.56 73.2C58.1282 72.4924 59.5865 71.5629 60.89 70.44C61.2153 70.1776 61.5227 69.8936 61.81 69.59C62.112 69.298 62.399 68.9909 62.67 68.67C62.963 68.3586 63.2305 68.0242 63.47 67.67C63.736 67.3538 63.9799 67.0197 64.2 66.67C66.0696 63.6688 66.9185 60.1433 66.62 56.62H66.77Z" fill="currentColor"/>
</svg>
