<svg width="96" height="96" viewBox="0 0 96 96" fill="none" xmlns="http://www.w3.org/2000/svg">
<path d="M48.81 26.92C48.81 26.92 52.3 33.29 49.4 39.52C46.5 45.75 38.85 48.78 37.68 49.16C36.51 49.54 44.74 49.64 44.74 49.64C44.74 49.64 52.48 46.77 53.96 42.52C55.44 38.27 55.27 33.83 54.17 31.92C53.07 30.01 48.81 26.92 48.81 26.92Z" fill="currentColor"/>
<path d="M57 41.38C56.4704 43.0619 55.6291 44.6291 54.52 46C53.9674 46.7326 53.337 47.4031 52.64 48C52.0081 48.5174 51.3397 48.9886 50.64 49.41C48.1169 50.8079 45.4296 51.8862 42.64 52.62C40.8 53.16 39.21 53.84 37.64 54.45C34.8672 55.55 32.288 57.086 30 59C27.7176 60.8915 25.9066 63.2879 24.71 66C24.4586 66.6008 24.2514 67.2191 24.09 67.85C23.94 68.48 23.85 69.13 23.76 69.78C23.67 70.43 23.67 71.08 23.76 71.78L23.84 72.78C23.8422 73.1145 23.8656 73.4485 23.91 73.78C24.1482 75.4833 24.5569 77.1584 25.13 78.78C25.66 80.47 26.28 82.21 26.88 83.99C27.24 85.11 26.58 85.31 25.38 84.82C23.5887 84.077 22.0625 82.8122 21 81.19C19.8539 79.3243 18.9817 77.3037 18.41 75.19C17.8166 72.9481 17.7176 70.6039 18.12 68.32C18.4512 66.0261 19.193 63.8107 20.31 61.78C20.8543 60.8094 21.4693 59.8803 22.15 59C22.8422 58.1352 23.594 57.3198 24.4 56.56C28.096 52.9001 32.4942 50.0257 37.33 48.11C39.95 47.18 42.42 46.55 44.62 45.67C46.6627 45.0071 48.4782 43.784 49.86 42.14C50.5861 41.0597 51.0855 39.8434 51.3278 38.5646C51.5702 37.2857 51.5505 35.971 51.27 34.7C50.7211 32.5361 49.8587 30.4642 48.71 28.55C47.417 26.3392 46.3739 23.9914 45.6 21.55C44.97 19.4653 44.7659 17.2752 45 15.11C45.277 12.8946 46.1247 10.7892 47.46 8.99999C47.9965 8.22083 48.6096 7.49723 49.29 6.83999C50.1694 5.98278 51.2433 5.35143 52.42 4.99999C52.7628 4.9236 53.1179 4.91972 53.4623 4.9886C53.8067 5.05749 54.1329 5.19761 54.42 5.39999C54.7063 5.55565 54.9805 5.73282 55.24 5.92999C55.96 6.57999 55.36 8.02999 54.05 9.58999C53.1806 10.6697 52.3981 11.8166 51.71 13.02C51.1794 14.0324 50.8757 15.1483 50.82 16.29C50.788 17.4805 50.9605 18.6678 51.33 19.8C51.7829 21.131 52.3797 22.4086 53.11 23.61C54.6077 26.0194 55.8542 28.5761 56.83 31.24C57.3661 32.8554 57.6691 34.539 57.73 36.24C57.7866 37.9802 57.5672 39.7184 57.08 41.39L57 41.38Z" fill="currentColor"/>
<path d="M58.09 64.66C63.76 62.22 64.47 59.87 65.65 57.35C67.26 53.87 66.49 49.42 66.49 49.42C67.3541 50.045 68.0521 50.8722 68.5227 51.8292C68.9934 52.7862 69.2225 53.844 69.19 54.91C69.19 58.67 66 61.04 64.11 63.13C62.22 65.22 58.09 64.66 58.09 64.66Z" fill="currentColor"/>
<path d="M65.21 66.83C63.2295 67.8765 61.1123 68.6405 58.92 69.1C56.92 69.57 54.92 69.87 53.08 70.18C51.74 70.42 50.48 70.84 49.21 71.13C47.0565 71.6066 44.9705 72.349 43 73.34C41.1657 74.2615 39.6758 75.7478 38.75 77.58C38.66 77.78 38.55 77.98 38.47 78.19L38.28 78.85C38.1263 79.2577 38.032 79.6854 38 80.12C37.9713 81.0235 38.0552 81.9272 38.25 82.81C38.5384 83.9788 39.0002 85.0979 39.62 86.13C39.78 86.38 39.92 86.65 40.1 86.88C40.2321 87.1467 40.3825 87.404 40.55 87.65C40.8685 88.1641 41.2442 88.6405 41.67 89.07C42.2 89.6 42 90.12 40.95 90.41C40.246 90.5728 39.5141 90.5728 38.81 90.41C38.3548 90.328 37.9115 90.1903 37.49 90C37.26 89.9 37.07 89.76 36.83 89.64C36.6355 89.4823 36.4549 89.3084 36.29 89.12C35.1053 87.7956 34.1702 86.2676 33.53 84.61C32.7703 82.8441 32.5075 80.9043 32.77 79C33.0627 77.1782 33.7313 75.4372 34.7333 73.8878C35.7353 72.3383 37.0487 71.0143 38.59 70C41.8385 67.8525 45.4253 66.2671 49.2 65.31C53.2 64.31 56.92 64.01 60.2 62.76C62.092 62.1449 63.7613 60.9868 65 59.43C65.8341 58.2172 66.3499 56.8142 66.5 55.35C66.567 53.6724 66.4259 51.9929 66.08 50.35C65.7838 48.7591 65.7568 47.1298 66 45.53C66.2993 43.8465 66.9838 42.2551 68 40.88C68.422 40.2939 68.8973 39.7483 69.42 39.25C69.8389 38.8633 70.3021 38.5277 70.8 38.25C71.1798 38.0889 71.5875 38.0039 72 38C72.3142 37.9868 72.6278 38.0376 72.9218 38.1493C73.2157 38.261 73.4839 38.4314 73.71 38.65C73.9356 38.8219 74.1464 39.0126 74.34 39.22C74.4657 39.4098 74.5433 39.6273 74.5659 39.8539C74.5886 40.0804 74.5557 40.309 74.47 40.52C74.2981 41.1544 74.0496 41.7656 73.73 42.34C72.48 43.93 71.65 45.89 71.79 47.04C71.85 47.71 71.86 48.51 72.01 49.6C72.16 50.69 72.4 52.04 72.49 53.69C72.5697 54.9981 72.4654 56.3109 72.18 57.59C71.7905 59.5659 70.9727 61.4325 69.784 63.0583C68.5953 64.6841 67.0648 66.0295 65.3 67L65.21 66.83Z" fill="currentColor"/>
</svg>
