<svg width="96" height="96" viewBox="0 0 96 96" fill="none" xmlns="http://www.w3.org/2000/svg">
<path d="M52.82 42.23C56.7848 38.0657 60.4317 33.6098 63.73 28.9C64.2468 28.108 64.6982 27.2752 65.08 26.41C65.28 26.02 65.46 25.61 65.59 25.31L65.73 24.91C65.7887 24.7991 65.8193 24.6755 65.8193 24.55C65.8193 24.4245 65.7887 24.3009 65.73 24.19L65.46 23.9C65.46 23.9 65.38 23.77 65.33 23.77H65.26L65.15 23.68C63.7212 22.7125 62.1965 21.8948 60.6 21.24C57.1945 19.8045 53.639 18.7546 50 18.11C46.6961 17.5611 43.3484 17.3201 40 17.39C38.94 17.39 37.88 17.49 36.82 17.54C35.76 17.59 34.71 17.76 33.64 17.78C31.52 17.92 29.38 18.05 27.23 18.26C25.89 18.36 25.94 17.88 26.92 17.02C27.5876 16.4505 28.2999 15.9355 29.05 15.48C30.0957 14.8599 31.2098 14.3632 32.37 14C34.6058 13.4163 36.8875 13.0249 39.19 12.83C40.34 12.7 41.5 12.66 42.66 12.58C43.82 12.5 44.97 12.58 46.14 12.58C50.8377 12.5904 55.5081 13.2946 60 14.67C62.862 15.5009 65.6513 16.5644 68.34 17.85L69.06 18.26C69.32 18.41 69.6 18.55 69.83 18.71C70.307 19.015 70.7526 19.3668 71.16 19.76L71.79 20.32C72.0109 20.482 72.1977 20.6859 72.34 20.92C72.6586 21.3756 72.8955 21.8832 73.04 22.42C73.3448 23.4963 73.4063 24.627 73.22 25.73C73.1289 26.2909 73.002 26.8453 72.84 27.39C72.7914 27.6281 72.7245 27.8622 72.64 28.09C72.57 28.29 72.5 28.48 72.42 28.67C71.7761 30.2274 70.9929 31.7235 70.08 33.14C69.23 34.51 68.34 35.81 67.43 37.07C65.6 39.6 63.68 42 61.75 44.35C59.36 47.24 56.89 50.05 54.46 52.86C50.76 57.11 46.91 61.25 43.36 65.53C41.98 67.19 40.71 68.92 39.47 70.67C38.23 72.42 37.09 74.22 35.74 75.85C35.16 76.59 34.65 77.35 34.04 78.06C31.76 80.68 30.65 81.14 28.6 80.49C28.1297 80.378 27.6684 80.2309 27.22 80.05C25.81 79.4 25.66 77.43 26.83 74.98C27.7 73.17 28.64 71.4 29.63 69.64C30.1157 68.7641 30.6603 67.9222 31.26 67.12C31.83 66.31 32.42 65.5 33.03 64.7C35.44 61.5 38.03 58.38 40.7 55.4C44.7 50.93 48.79 46.58 52.7 42.11L52.82 42.23Z" fill="currentColor"/>
</svg>
