<svg width="96" height="96" viewBox="0 0 96 96" fill="none" xmlns="http://www.w3.org/2000/svg">
<path d="M34.43 24.47C32.4373 24.2568 30.4339 24.16 28.43 24.18C27.68 24.18 26.95 24.36 26.2 24.37C23.5453 24.3617 20.8918 24.4885 18.25 24.75C17.1003 24.9059 15.9706 25.1841 14.88 25.58C14.18 25.77 13.5 26.03 12.88 26.24C12.2917 26.4426 11.6802 26.5702 11.06 26.62C10.7071 26.4449 10.3986 26.1919 10.1578 25.88C9.91695 25.5682 9.75017 25.2057 9.66999 24.82C9.53063 24.2242 9.56073 23.6012 9.75689 23.0216C9.95304 22.442 10.3074 21.9288 10.78 21.54C11.5532 21.1008 12.3512 20.7068 13.17 20.36C13.9657 20.0964 14.7818 19.899 15.61 19.77C17.2342 19.4904 18.883 19.3798 20.53 19.44C22.5002 19.3394 24.4632 19.1291 26.41 18.81C28.58 18.64 30.76 18.59 32.96 18.63H33.96L35.05 18.68C36.0113 18.7034 36.9701 18.7903 37.92 18.94C38.8933 19.09 39.8276 19.4298 40.67 19.94C41.3269 20.3436 41.8031 20.9846 42 21.73C42.1471 22.4819 42.1267 23.2569 41.94 24C41.7228 24.9997 41.3871 25.9699 40.94 26.89C40.69 27.38 40.4 27.89 40.11 28.38C40.0382 28.5084 39.958 28.632 39.87 28.75L39.71 29.03L39.4 29.55C39.2202 29.8506 39.0016 30.1263 38.75 30.37C37.75 31.25 37.22 31.21 36.11 30.58C35.85 30.44 35.59 30.32 35.35 30.18C34.964 29.9101 34.6743 29.5239 34.5232 29.0778C34.3721 28.6317 34.3674 28.1489 34.51 27.7L34.74 26.61L34.84 26.07C34.8854 25.9107 34.9388 25.7539 35 25.6L35.18 25.15C35.18 25.07 35.18 25.07 35.18 25.03C35.1571 24.9823 35.1227 24.9411 35.08 24.91C34.95 24.79 34.86 24.84 34.86 24.84C34.8783 24.8213 34.8886 24.7962 34.8886 24.77C34.8886 24.7438 34.8783 24.7187 34.86 24.7H34.73H34.46L34.43 24.47Z" fill="currentColor"/>
<path d="M31.56 39.17C31.38 38.88 31.23 38.6 31.03 38.23C30.8178 37.7999 30.6276 37.3594 30.46 36.91C30.1452 36.0174 29.9895 35.0764 30 34.13C30.0284 33.1909 30.2713 32.2708 30.71 31.44C30.9207 31.0178 31.1648 30.6132 31.44 30.23C31.5555 30.0312 31.6894 29.8437 31.84 29.67L32.14 29.29C33.62 27.48 35.05 26.05 36.5 24.55C36.7897 24.1757 37.1257 23.8397 37.5 23.55L37.99 23.11C38.14 22.94 38.4 22.78 38.44 22.53C38.48 22.28 38.15 22.23 37.95 22.19C37.07 22.19 37.5 22.3 33.57 22.62C29.48 22.97 25.38 23.18 21.32 23.62C19.32 23.82 17.27 24.04 15.32 24.34L13.86 24.59L13.16 24.73L12.64 24.86C12.4216 24.8792 12.2065 24.9262 12 25C11.897 25.0384 11.8117 25.1131 11.76 25.21C11.7496 25.3164 11.7496 25.4236 11.76 25.53V25.88V26.4V28.02C11.76 29.11 11.76 30.19 11.84 31.28C12.0529 35.8175 12.7639 40.3178 13.96 44.7L14.53 46.54C14.73 47.15 14.97 47.74 15.19 48.34C15.4091 48.9361 15.6594 49.5203 15.94 50.09L16.21 50.67L16.42 51L16.66 51.42C16.8 51.54 16.96 51.35 17.08 51.28L17.43 50.95L17.82 50.55C18.81 49.44 19.88 48.22 21 47C22.24 45.63 22.7 46.3 22.38 48C22.14 49.1325 21.7604 50.2309 21.25 51.27C21.09 51.59 20.92 51.92 20.73 52.27L20.43 52.78L20.25 53.07L19.9 53.51C19.4267 54.1301 18.8978 54.7059 18.32 55.23C17.8106 55.6887 17.1778 55.9877 16.5 56.09C16.2576 56.1197 16.0124 56.1197 15.77 56.09C15.6406 56.0729 15.5133 56.0428 15.39 56C15.2837 55.9357 15.1833 55.8621 15.09 55.78L13.93 54.87L13 53.39C12.86 53.14 12.68 52.89 12.56 52.65L12.26 52.01C11.99 51.44 11.69 50.86 11.44 50.28C10.96 49.11 10.44 47.93 10.1 46.74C9.31972 44.3783 8.70161 41.966 8.25 39.52C7.78805 37.0993 7.45425 34.6559 7.25 32.2C7.16 31 7.08 29.75 7 28.51C7 27.89 7 27.26 7 26.64V25.32C7 24.77 7 24.22 7.08 23.68C7.17733 23.2934 7.31475 22.9181 7.49 22.56C7.69424 22.2072 7.9621 21.8952 8.28 21.64C8.95104 21.1197 9.70962 20.7235 10.52 20.47L11.14 20.28C11.2384 20.2557 11.3352 20.2257 11.43 20.19L11.63 20.14L12.42 19.95L13.94 19.65C17.71 19 21.4 18.5 25.14 18C27.01 17.74 28.87 17.45 30.74 17.23L36.59 16.58L39.15 16.28C39.9561 16.1463 40.7734 16.0927 41.59 16.12C42.2623 16.1266 42.9323 16.2003 43.59 16.34C44.1606 16.4527 44.7126 16.6445 45.23 16.91C45.745 17.1502 46.2072 17.4901 46.59 17.91C47.0091 18.381 47.2404 18.9896 47.24 19.62C47.1097 20.7365 46.7229 21.8077 46.11 22.75C45.156 24.0127 44.1169 25.2088 43 26.33L40.38 29.13C39.69 29.87 39 30.6 38.38 31.34C38.0533 31.7133 37.72 32.0833 37.38 32.45C37.22 32.63 37.08 32.81 36.94 32.99L36.63 33.39C36.4374 33.6036 36.3001 33.8611 36.23 34.14C36.2 34.4322 36.2412 34.7272 36.35 35C36.4071 35.1508 36.4739 35.2978 36.55 35.44C36.64 35.64 36.8 35.86 36.93 36.08C37.2406 36.5368 37.5744 36.9773 37.93 37.4C39.4954 39.2123 41.2152 40.8852 43.07 42.4C45.93 44.78 48.97 47.03 52.07 49.19C55.17 51.35 58.34 53.44 61.57 55.38C66.57 58.38 71.8 60.91 76.96 63.56C78.09 64.14 79.23 64.66 80.37 65.27C84.57 67.52 85.7 68.59 85.87 70.48C85.9509 70.8986 85.9944 71.3237 86 71.75C85.87 73.05 83.62 73.05 80.31 71.75C70.1633 67.6291 60.4493 62.5142 51.31 56.48C47.7423 54.1941 44.3006 51.7171 41 49.06C39.34 47.71 37.69 46.31 36.08 44.76C34.3105 43.1223 32.7428 41.2792 31.41 39.27L31.56 39.17Z" fill="currentColor"/>
<path d="M43.38 57.33C45.24 59.21 47.12 61.06 49.09 62.81C49.8 63.44 50.58 64 51.31 64.62C53.85 66.86 56.49 69 59.2 71C60.4229 71.8918 61.6913 72.7196 63 73.48C64.7235 74.3821 66.393 75.3838 68 76.48C68.49 76.85 68.19 77.26 67.49 77.48C66.5492 77.775 65.5354 77.7361 64.62 77.37C60.8764 75.8491 57.3548 73.831 54.15 71.37C52.29 69.79 50.15 68.43 48.23 66.87C46.14 65.13 44.1 63.33 42.13 61.48L38.46 58C36.63 56.27 34.86 54.47 33 52.82C31.56 51.54 30 50.46 28.44 49.29C28.11 49.04 27.75 48.82 27.44 48.54C26.24 47.54 26.07 46.98 26.62 45.9C26.75 45.66 26.85 45.4 27 45.17C27.51 44.41 28.48 44.32 29.49 44.93C32.4737 46.8622 35.2339 49.1193 37.72 51.66C39.65 53.51 41.53 55.42 43.46 57.25L43.38 57.33Z" fill="currentColor"/>
</svg>
