<svg width="96" height="96" viewBox="0 0 96 96" fill="none" xmlns="http://www.w3.org/2000/svg">
<path d="M35.29 67.82C35.2096 68.0128 35.1395 68.2097 35.08 68.41C35.08 68.61 34.98 68.8 34.92 69C34.8145 69.4117 34.7607 69.835 34.76 70.26C34.7385 70.5481 34.7587 70.8377 34.82 71.12C34.8945 71.3949 35.0432 71.6441 35.25 71.84C35.7669 72.2397 36.3488 72.5475 36.97 72.75C38.4231 73.3097 39.9267 73.7283 41.46 74C43.1392 74.3076 44.8357 74.5114 46.54 74.61C48.08 74.71 49.64 74.61 51.19 74.61L52.7 74.55C53.2 74.55 53.7 74.55 54.22 74.62C55.2741 74.7061 56.3127 74.928 57.31 75.28C57.96 75.54 57.72 76.03 57.13 76.56C56.4045 77.2687 55.5199 77.7933 54.55 78.09L53.11 78.4C52.63 78.5 52.11 78.52 51.64 78.59C50.64 78.69 49.64 78.8 48.64 78.87C46.5557 79.0411 44.46 79.0177 42.38 78.8C39.83 78.49 37.06 78.61 34.14 77.36C33.2944 76.9916 32.5063 76.5032 31.8 75.91C31.0274 75.2355 30.3982 74.4125 29.95 73.49C29.565 72.6104 29.3414 71.6688 29.29 70.71C29.2265 69.8486 29.2635 68.9828 29.4 68.13C29.8156 66.1426 30.7078 64.286 32 62.72C33.8078 60.6707 35.8598 58.8505 38.11 57.3C39.74 56.08 41.22 54.71 42.76 53.54C43.12 53.3 43.43 53.04 43.76 52.82C45.08 52.04 45.55 52.09 46.54 52.73C46.76 52.88 47.01 53 47.22 53.15C47.95 53.62 47.86 54.76 47.02 55.82C46.41 56.6 45.79 57.32 45.15 58C44.51 58.68 43.78 59.17 43.1 59.72C41.73 60.82 40.37 61.85 39.1 62.92C37.33 64.53 35.83 66.25 35.33 67.86L35.29 67.82Z" fill="currentColor"/>
<path d="M59.93 45.37C54.53 51.37 48.35 55.61 42.36 59.78C40.18 61.29 38.11 62.92 36.02 64.42C34.2533 65.6573 32.5759 67.0173 31 68.49C30.81 68.67 30.64 68.84 30.48 69.01L30.22 69.28C30.09 69.4227 29.9729 69.5766 29.87 69.74C29.7514 69.912 29.6774 70.1108 29.6547 70.3186C29.632 70.5263 29.6613 70.7364 29.74 70.93C30.0459 71.2255 30.426 71.4328 30.84 71.53L31.35 71.68L32.15 71.87C32.69 72 33.24 72.12 33.79 72.23C36.01 72.68 38.28 73.02 40.57 73.32C42.57 73.55 44.64 73.8 46.68 73.99C48.72 74.18 50.78 74.31 52.82 74.42C55.43 74.57 58.05 74.62 60.67 74.63C63.29 74.64 65.91 74.69 68.43 74.52C69.9 74.37 70 74.98 68.71 75.96C66.6025 77.3026 64.2002 78.1125 61.71 78.32C56.23 78.78 50.78 79.2 45.28 79.18C42.5103 79.1887 39.7434 79.0016 37 78.62C35.62 78.45 34.24 78.24 32.84 77.98C32.13 77.85 31.44 77.72 30.72 77.55L29.58 77.27C28.9934 77.1359 28.4156 76.9656 27.85 76.76C26.5912 76.4197 25.4564 75.7256 24.58 74.76C24.356 74.5316 24.1612 74.2763 24 74C23.8644 73.7077 23.7475 73.4071 23.65 73.1C23.4621 72.4842 23.3677 71.8438 23.37 71.2C23.4238 69.8655 23.8198 68.5673 24.52 67.43L25.08 66.56L25.71 65.72C25.93 65.43 26.07 65.29 26.23 65.09C26.39 64.89 26.55 64.74 26.71 64.56C29.1715 62.0715 31.8486 59.8059 34.71 57.79C40.71 53.47 46.71 49.5 51.77 44.64C54.83 41.64 57.53 38.29 58.67 34.57C59.5335 31.7994 59.3557 28.8088 58.17 26.16C57.7215 24.9407 56.9006 23.8934 55.8237 23.1665C54.7469 22.4396 53.4686 22.07 52.17 22.11C49.9215 22.2024 47.7275 22.8297 45.77 23.94C43.7271 25.0855 41.8128 26.4466 40.06 28C39.26 28.66 38.55 29.39 37.79 30.1C35 32.76 34.11 33.52 32.15 33.33C31.7328 33.3347 31.3155 33.318 30.9 33.28C30.27 33.15 29.97 32.61 29.95 31.58C30.0388 30.1895 30.5018 28.8489 31.29 27.7C32.6753 25.4319 34.3345 23.3429 36.23 21.48C38.3026 19.6133 40.6208 18.0387 43.12 16.8C44.4679 16.1309 45.8779 15.595 47.33 15.2C48.1064 14.9857 48.8944 14.8154 49.69 14.69C50.543 14.5924 51.4018 14.5556 52.26 14.58C54.1544 14.6231 56.0224 15.034 57.76 15.79C59.5982 16.5961 61.2192 17.8264 62.49 19.38C64.1349 21.3977 65.2794 23.7757 65.83 26.32C66.3908 28.7308 66.469 31.2288 66.06 33.67C65.6421 35.9726 64.8517 38.1917 63.72 40.24C62.6832 42.1077 61.4567 43.8637 60.06 45.48L59.93 45.37Z" fill="currentColor"/>
</svg>
