<svg width="103" height="22" viewBox="0 0 103 22" fill="none" xmlns="http://www.w3.org/2000/svg">
<path d="M29.0287 14.9602C28.2686 14.9602 27.5302 14.8489 26.7918 14.6039C26.0988 14.3736 25.462 13.9939 24.924 13.4902L25.9013 11.7975C26.4443 12.1762 26.9655 12.4657 27.4867 12.6884C27.9862 12.9112 28.4858 13.0002 28.9636 13.0002C29.3111 13.0002 29.5934 12.9334 29.7888 12.7998C29.9843 12.6884 30.0712 12.488 30.0712 12.243C30.0712 12.0202 29.9626 11.7975 29.702 11.6639C29.2938 11.4633 28.8636 11.3137 28.4206 11.2184L26.9003 10.7062C26.4877 10.528 26.1619 10.3498 25.9013 10.1493C25.6407 9.97116 25.4452 9.72616 25.3366 9.48116C25.2184 9.19997 25.1592 8.89643 25.1629 8.59025C25.1502 7.71354 25.5255 6.87814 26.1836 6.31843C26.4877 6.05116 26.8786 5.8507 27.313 5.69479C27.7473 5.53888 28.2251 5.47207 28.7247 5.47207C29.3979 5.47207 30.0277 5.56116 30.6141 5.73934C31.2005 5.93979 31.7652 6.27388 32.3081 6.76388L31.244 8.43434C30.8236 8.12589 30.3722 7.86455 29.8974 7.65479C29.4848 7.47661 29.1156 7.40979 28.7247 7.40979C28.4423 7.40979 28.1817 7.45434 27.9862 7.58798C27.7691 7.69934 27.6822 7.89979 27.6822 8.16707C27.6822 8.43434 27.7908 8.61252 28.008 8.74616C28.2251 8.87979 28.6595 9.01343 29.2459 9.16934C29.7903 9.30996 30.3268 9.48098 30.853 9.68161C31.2874 9.85979 31.6349 10.0602 31.9172 10.2607C32.4511 10.6639 32.7463 11.3197 32.6991 11.998C32.6991 12.9112 32.3733 13.6239 31.7 14.1584C31.0485 14.693 30.1798 14.9602 29.0287 14.9602ZM39.7792 14.3143C39.41 14.4702 38.9756 14.6262 38.4978 14.7598C38.02 14.8934 37.5422 14.9825 37.0427 14.9825C36.6952 14.9825 36.3911 14.938 36.0871 14.8489C35.7915 14.7605 35.5176 14.6087 35.2835 14.4034C35.0663 14.2252 34.8926 13.958 34.7623 13.6684C34.632 13.3566 34.5451 12.978 34.5451 12.5325V7.74388H33.4158V5.65025H34.5668V2.73252H37.2599V5.62798H39.0842V7.74388H37.2599V11.5748C37.2599 11.8643 37.325 12.0871 37.4771 12.243C37.6291 12.3543 37.8245 12.4212 38.0417 12.4212C38.2589 12.4212 38.4761 12.3989 38.6715 12.3098C38.8887 12.243 39.0842 12.1762 39.2362 12.0871L39.7575 14.3143H39.7792ZM44.8612 14.9602C44.1701 14.9726 43.4835 14.8439 42.8414 14.5816C41.7112 14.1231 40.8261 13.191 40.409 12.0202C39.9823 10.8573 39.9823 9.57499 40.409 8.41207C40.8261 7.2413 41.7112 6.30921 42.8414 5.8507C43.4278 5.6057 44.1011 5.47207 44.8612 5.47207C46.1833 5.40825 47.4671 5.93654 48.3795 6.91979C48.7922 7.34298 49.0962 7.85525 49.3134 8.41207C49.758 9.57927 49.758 10.8753 49.3134 12.0425C48.8937 13.1988 48.0186 14.1205 46.9027 14.5816C46.2538 14.8468 45.5596 14.9756 44.8612 14.9602ZM42.9066 10.2384C42.9066 10.9512 43.0803 11.5302 43.4495 11.9534C43.8405 12.3989 44.3183 12.6216 44.8829 12.6216C45.4284 12.6324 45.9487 12.3862 46.2946 11.9534C46.4683 11.7307 46.5987 11.508 46.7072 11.1962C46.8158 10.9066 46.8593 10.5725 46.8593 10.2384C46.8593 9.50343 46.6638 8.92434 46.2946 8.50116C45.9254 8.0557 45.4476 7.83297 44.8829 7.83297C44.3394 7.83171 43.8229 8.07616 43.4712 8.50116C43.2975 8.72388 43.1455 8.94661 43.0369 9.25843C42.939 9.57501 42.8949 9.90652 42.9066 10.2384ZM56.6541 8.03343C56.0026 8.03343 55.3945 8.14479 54.8515 8.36752C54.3736 8.53279 53.9666 8.86354 53.7005 9.30297V14.8043H50.9857V5.65025H53.4833V7.47661C53.7873 6.85298 54.1783 6.36298 54.6778 6.02888C55.1556 5.67252 55.6551 5.49434 56.1981 5.47207H56.4804L56.6541 5.49434V8.01116V8.03343ZM57.8486 16.163C58.2263 16.2976 58.6217 16.3727 59.0214 16.3857C59.3472 16.3857 59.6078 16.2743 59.8033 16.0516C59.977 15.8289 60.129 15.3834 60.2811 14.8043L56.893 5.65025H59.6947L61.7579 12.3989L63.5605 5.65025H66.1015L62.6918 16.2743C62.1569 18.0788 60.3638 19.1628 58.5653 18.7689C58.3481 18.7243 58.0875 18.6575 57.8486 18.5462V16.163ZM72.5301 14.9604C71.8568 14.9604 71.2487 14.8266 70.7492 14.5148C70.2417 14.2289 69.8208 13.805 69.533 13.2898V14.8043H67.1657V2.06434H69.9022V7.14252C70.4962 6.07645 71.6157 5.43388 72.8124 5.47207C73.3771 5.47207 73.8983 5.58343 74.3761 5.8507C74.8539 6.07343 75.2448 6.42979 75.614 6.85298C76.6831 8.37446 76.974 10.3302 76.3959 12.1093C76.1787 12.6884 75.8746 13.2007 75.5054 13.6239C74.7429 14.4813 73.6616 14.9669 72.5301 14.9604ZM71.7699 12.6216C72.6515 12.6235 73.4369 12.0508 73.7245 11.1962C74.043 10.2989 73.887 9.29664 73.3119 8.5457C72.9724 8.08717 72.4398 7.82237 71.8785 7.83297C71.4659 7.83297 71.0749 7.98888 70.7057 8.27843C70.3582 8.59025 70.0759 8.96888 69.8805 9.43661V11.3521C70.2309 12.1099 70.9738 12.5947 71.7916 12.5993L71.7699 12.6216ZM78.0247 2.06434H80.7395V11.5302C80.7395 12.243 81.0218 12.5771 81.6082 12.5771C81.9183 12.578 82.2239 12.5015 82.4987 12.3543L82.8679 14.4257C82.1072 14.7674 81.2875 14.9491 80.4572 14.9602C79.6753 14.9602 79.0672 14.7375 78.6546 14.3366C78.2202 13.8912 78.003 13.3121 78.003 12.5102V2.06434H78.0247ZM87.9933 14.9602C87.3023 14.9726 86.6157 14.8439 85.9736 14.5816C84.8367 14.1259 83.9437 13.194 83.5194 12.0202C82.8914 10.2697 83.2408 8.30745 84.4316 6.89752C84.8659 6.45207 85.3437 6.11798 85.9518 5.8507C86.5382 5.6057 87.2115 5.47207 87.9716 5.47207C89.2937 5.40825 90.5776 5.93654 91.49 6.91979C91.9243 7.34298 92.2066 7.85525 92.4238 8.41207C93.0767 10.1603 92.7249 12.136 91.5117 13.5348C91.099 13.9802 90.5995 14.3366 89.9914 14.5816C89.3493 14.8439 88.6627 14.9726 87.9716 14.9602H87.9933ZM86.017 10.2384C86.017 10.9512 86.1907 11.5302 86.5599 11.9534C86.9509 12.3989 87.4287 12.6216 87.9933 12.6216C88.5382 12.6291 89.0571 12.3835 89.405 11.9534C89.5788 11.7307 89.7091 11.508 89.8177 11.1962C89.9262 10.9066 89.9697 10.5725 89.9697 10.2384C89.9697 9.50343 89.7742 8.92434 89.405 8.50116C89.0358 8.0557 88.558 7.83297 87.9933 7.83297C87.4498 7.83171 86.9334 8.07616 86.5817 8.50116C86.4079 8.72388 86.2559 8.94661 86.1473 9.25843C86.0387 9.57025 86.017 9.88207 86.017 10.2384ZM100.112 14.8043L97.7882 11.1071L96.8326 12.1316V14.8043H94.1178V2.06434H96.8326V9.43661L99.8514 5.65025H102.74L99.5256 9.59252L103.001 14.8043H100.112Z" fill="white"/>
<path fill-rule="evenodd" clip-rule="evenodd" d="M0 1.75796C0 0.813063 0.76599 0.0470734 1.71089 0.0470734H17.1089C18.0538 0.0470734 18.8198 0.813064 18.8198 1.75796V17.1559C18.8198 18.1008 18.0538 18.8668 17.1089 18.8668H7.13145L4.57616 20.9768C4.24445 21.2506 3.74366 21.0147 3.74366 20.5845V18.8668H1.71089C0.76599 18.8668 0 18.1008 0 17.1559V1.75796ZM3.74233 3.15654H11.9675C13.7438 3.15654 15.1839 4.59657 15.1839 6.37295C15.1839 7.79643 14.2592 9.00394 12.9777 9.42752C14.4761 9.70154 15.6117 11.0138 15.6117 12.5913C15.6117 14.3677 14.1717 15.8078 12.3953 15.8078H3.74247V9.58936H3.74233V3.15654ZM10.583 6.05092H6.73607V7.98076H10.583C11.1159 7.98076 11.5479 7.54875 11.5479 7.01584C11.5479 6.48293 11.1159 6.05092 10.583 6.05092ZM6.73607 10.3396H10.9035C11.4956 10.3396 11.9757 10.8196 11.9757 11.4117C11.9757 12.0039 11.4956 12.4839 10.9035 12.4839H6.73607V10.3396Z" fill="white"/>
</svg>
